<svg xmlns="http://www.w3.org/2000/svg" viewBox="0 0 58.38 49.29"><defs><style>.cls-1{fill:#121214;}.cls-1,.cls-19{opacity:0.3;}.cls-2{fill:#474747;}.cls-3{fill:#333;}.cls-4{fill:#1f1f1f;}.cls-5{fill:#0f0f0f;}.cls-6{fill:#919191;}.cls-7{fill:#3b3b3b;}.cls-8{fill:#787878;}.cls-9{fill:#666;}.cls-10{fill:gray;}.cls-11{fill:#adadad;}.cls-12{fill:#d1d3d4;}.cls-13{fill:#b7b9bd;}.cls-14,.cls-19{fill:#fff;}.cls-15{fill:#939598;}.cls-16{fill:#575757;}.cls-17{fill:#a7a9ac;}.cls-18{fill:#eb5c44;}.cls-20{opacity:0.2;}.cls-21{fill:#dae5f8;}.cls-22{fill:#00537d;}.cls-23{fill:#1078ad;}.cls-24{fill:#003552;}</style></defs><g id="Слой_2" data-name="Слой 2"><g id="Layer_1" data-name="Layer 1"><path class="cls-1" d="M58.38,49.29s-2.16-2.62-3.5-3.91a75.78,75.78,0,0,0-10.19-8L40.8,21.86l.62.36h0l.66.18h0a.16.16,0,0,0,.13,0,.46.46,0,0,0,.19-.34c0-.06,0-.1,0-.12h0l-.49-.48h0l0,0h0l-1.34-.77L40,18.75l.91.52h0l.66.18h0a.16.16,0,0,0,.13,0,.43.43,0,0,0,.19-.34c0-.06,0-.1,0-.12h0l-.49-.48h0l0,0h0l-4.65-2.68,0,0-.7-.2h0a.17.17,0,0,0-.12,0,.46.46,0,0,0-.2.35.18.18,0,0,0,0,.11h0l.56.53h0L37,17,25.36,26l-3.48-2,.1-7-1.29-.74-5.18,4-1.62-1a3.94,3.94,0,0,0-2-.23L7.44,17.44l-.09,0h0a2.39,2.39,0,0,0-1.09,0A3.9,3.9,0,0,0,3.56,18.9a.55.55,0,0,0,0,.63h0l.06.06,2.65,2.56a1,1,0,0,0,.45,1.24l1.59.94-7,3,1.29.74L14.63,28l3.66,2.15-16,6.91-1.2-.69H1l-.7-.21h0a.13.13,0,0,0-.11,0,.42.42,0,0,0-.2.34.12.12,0,0,0,0,.11H0l.57.54h0l4.64,2.69h0l.65.18H6a.16.16,0,0,0,.13,0,.44.44,0,0,0,.2-.34.14.14,0,0,0,0-.12h0l-.48-.49h0l0,0h0l-.58-.34,4,.34L10.7,40h.05l.66.18h0a.22.22,0,0,0,.13,0,.45.45,0,0,0,.19-.35.16.16,0,0,0,0-.12h0l-.43-.43,27.83,2.32-.28-.16c3.91,1.87,8.5,3.92,13.08,5.66C54.08,47.9,58.38,49.29,58.38,49.29Z"/><path class="cls-2" d="M39.39,36.18c-.48-.27-.88,0-.88.51a2,2,0,0,0,.88,1.53c.49.28.89.05.89-.51A2,2,0,0,0,39.39,36.18Z"/><path class="cls-3" d="M40.2,35.72a.63.63,0,0,0-.61-.07l-.82.47a.64.64,0,0,1,.62.06,2,2,0,0,1,.89,1.53.65.65,0,0,1-.24.56l.8-.46h0a.6.6,0,0,0,.24-.55A2,2,0,0,0,40.2,35.72Z"/><path class="cls-4" d="M39.39,36.48c-.34-.2-.62,0-.62.36a1.4,1.4,0,0,0,.62,1.09c.35.2.63,0,.63-.36A1.37,1.37,0,0,0,39.39,36.48Z"/><path class="cls-5" d="M39.43,37.8a1.19,1.19,0,0,1-.54-.94.43.43,0,0,1,.11-.32.4.4,0,0,0-.15.35,1.19,1.19,0,0,0,.54.94.36.36,0,0,0,.43,0A.38.38,0,0,1,39.43,37.8Z"/><path class="cls-6" d="M39.39,36.57a.37.37,0,0,0-.39,0h0a.43.43,0,0,0-.11.32,1.19,1.19,0,0,0,.54.94.38.38,0,0,0,.39,0h0a.44.44,0,0,0,.11-.32A1.2,1.2,0,0,0,39.39,36.57Z"/><path class="cls-7" d="M39.47,37.53a.75.75,0,0,1-.35-.61.41.41,0,0,1,0-.16A.28.28,0,0,0,39,37a.81.81,0,0,0,.35.61c.14.08.26.06.32,0A.22.22,0,0,1,39.47,37.53Z"/><path class="cls-8" d="M39.39,36.79a.27.27,0,0,0-.24,0,.41.41,0,0,0,0,.16.75.75,0,0,0,.35.61.22.22,0,0,0,.24,0,.33.33,0,0,0,0-.15A.79.79,0,0,0,39.39,36.79Z"/><polygon class="cls-9" points="39.46 34.35 39.97 34.06 39.97 37.8 39.46 38.09 39.46 34.35"/><polygon class="cls-10" points="38.27 33.66 39.46 34.35 39.46 38.09 38.27 37.4 38.27 33.66"/><polygon class="cls-11" points="39.46 34.35 39.97 34.06 38.78 33.37 38.27 33.66 39.46 34.35"/><path class="cls-2" d="M38,37c-.48-.27-.88-.05-.88.52A2,2,0,0,0,38,39c.49.28.89,0,.89-.5A2,2,0,0,0,38,37Z"/><path class="cls-3" d="M38.85,36.5a.66.66,0,0,0-.61-.07l-.81.47A.63.63,0,0,1,38,37a2,2,0,0,1,.89,1.54.64.64,0,0,1-.24.55l.8-.46h0a.63.63,0,0,0,.24-.56A2,2,0,0,0,38.85,36.5Z"/><path class="cls-4" d="M38,37.26c-.34-.2-.62,0-.62.37A1.38,1.38,0,0,0,38,38.71c.35.2.63,0,.63-.36A1.37,1.37,0,0,0,38,37.26Z"/><path class="cls-5" d="M38.08,38.59a1.2,1.2,0,0,1-.54-1,.43.43,0,0,1,.11-.32.4.4,0,0,0-.15.35,1.19,1.19,0,0,0,.54.94.34.34,0,0,0,.43,0A.37.37,0,0,1,38.08,38.59Z"/><path class="cls-6" d="M38,37.36a.38.38,0,0,0-.39,0h0a.43.43,0,0,0-.11.32,1.2,1.2,0,0,0,.54,1,.37.37,0,0,0,.39,0h0a.41.41,0,0,0,.11-.32A1.17,1.17,0,0,0,38,37.36Z"/><path class="cls-7" d="M38.12,38.31a.78.78,0,0,1-.35-.61.33.33,0,0,1,0-.15.25.25,0,0,0-.11.23.79.79,0,0,0,.35.61c.14.08.26.06.32,0A.22.22,0,0,1,38.12,38.31Z"/><path class="cls-8" d="M38,37.58a.24.24,0,0,0-.24,0,.33.33,0,0,0,0,.15.78.78,0,0,0,.35.61.22.22,0,0,0,.24,0,.3.3,0,0,0,0-.15A.76.76,0,0,0,38,37.58Z"/><path class="cls-11" d="M36.17,14.15a.46.46,0,0,1,.2-.35c.11-.06.2,0,.2.12a.44.44,0,0,1-.2.34C36.26,14.32,36.17,14.27,36.17,14.15Z"/><polygon class="cls-11" points="37.23 13.99 36.77 14.79 36.21 14.26 36.48 13.78 37.23 13.99"/><path class="cls-12" d="M36.78,14.8a.26.26,0,0,1-.09-.21A.71.71,0,0,1,37,14a.21.21,0,0,1,.21,0l4.65,2.69-.44.81Z"/><polygon class="cls-11" points="40.42 15.08 39.28 14.42 39.28 15.45 40.42 16.11 40.42 15.08"/><polygon class="cls-10" points="40.54 15.01 40.42 15.08 40.42 16.11 40.54 16.03 40.54 15.01"/><polygon class="cls-13" points="40.42 15.08 39.28 14.42 39.41 14.35 40.54 15.01 40.42 15.08"/><path class="cls-11" d="M41.33,17.27a.71.71,0,0,1,.33-.56c.18-.11.33,0,.32.19a.71.71,0,0,1-.32.56C41.48,17.57,41.33,17.48,41.33,17.27Z"/><polygon class="cls-11" points="42.41 17.19 42.13 17.68 41.47 17.5 41.92 16.71 42.41 17.19"/><path class="cls-10" d="M42.06,17.54a.44.44,0,0,1,.2-.34c.1-.06.19,0,.19.12a.46.46,0,0,1-.19.34C42.15,17.72,42.06,17.67,42.06,17.54Z"/><polygon class="cls-13" points="20.69 9.58 14.91 14.05 21.87 18.07 21.98 10.33 20.69 9.58"/><path class="cls-11" d="M35.68,9.33a.44.44,0,0,1,.2-.34c.11-.06.2,0,.2.11a.44.44,0,0,1-.2.35C35.77,9.51,35.68,9.46,35.68,9.33Z"/><polygon class="cls-11" points="36.74 9.18 36.28 9.98 35.72 9.44 35.99 8.97 36.74 9.18"/><path class="cls-12" d="M36.29,10a.26.26,0,0,1-.09-.21.74.74,0,0,1,.33-.57.24.24,0,0,1,.21,0l4.65,2.68-.45.82Z"/><path class="cls-11" d="M40.84,12.46a.74.74,0,0,1,.33-.57.2.2,0,0,1,.33.19.74.74,0,0,1-.33.57C41,12.75,40.84,12.67,40.84,12.46Z"/><polygon class="cls-11" points="41.92 12.38 41.64 12.87 40.98 12.69 41.43 11.9 41.92 12.38"/><path class="cls-10" d="M41.57,12.73a.42.42,0,0,1,.2-.34c.11-.06.2,0,.19.11a.45.45,0,0,1-.19.35C41.66,12.91,41.57,12.86,41.57,12.73Z"/><polygon class="cls-13" points="37.91 10.54 25.08 20.17 44.88 31.61 39.91 11.69 37.91 10.54"/><path class="cls-10" d="M33.06,21.35a1.22,1.22,0,0,1,0-2.31,4.41,4.41,0,0,1,4,0,1.22,1.22,0,0,1,0,2.31A4.41,4.41,0,0,1,33.06,21.35Z"/><polygon class="cls-14" points="36.6 21.06 35.23 20.79 34.08 21.29 34.09 20.45 32.92 19.97 34.3 19.73 34.72 18.93 35.56 19.61 37 19.6 36.13 20.27 36.6 21.06"/><polygon class="cls-15" points="37.09 10.3 24.48 20.05 26.23 20.84 37.91 10.54 37.09 10.3"/><path class="cls-16" d="M3.75,13a3.44,3.44,0,0,1,1.54-2.67c.85-.48,1.54-.08,1.54.9a3.39,3.39,0,0,1-1.55,2.66C4.44,14.4,3.75,14,3.75,13Z"/><polygon class="cls-16" points="11.97 11.86 8.4 18.04 4.03 13.88 6.17 10.18 11.97 11.86"/><path class="cls-17" d="M8,18.46a2.08,2.08,0,0,1-.84-1.86,6.47,6.47,0,0,1,2.94-5.08A2.07,2.07,0,0,1,12,11.25L33.37,23.59l-3.95,7.28Z"/><path class="cls-18" d="M52.41,40.88c2,.66,6,1.62,6,1.62s-2.69-3.1-4.23-4.56Z"/><path class="cls-17" d="M54.13,37.94c-9.26-8.81-22.24-15.2-22.24-15.2L25.8,21.57l3.62,9.3a160.56,160.56,0,0,0,23,10Z"/><path class="cls-18" d="M51.94,40.05a2.68,2.68,0,0,1,1.21-2.12c.68-.38,1.23-.07,1.22.71a2.67,2.67,0,0,1-1.22,2.11C52.48,41.13,51.94,40.82,51.94,40.05Z"/><path class="cls-19" d="M54.13,37.94c-8.81-8.38-21-14.57-22.15-15.16L12,11.25a2.07,2.07,0,0,0-1.93.27A4.81,4.81,0,0,0,9,12.43s.07,0,.58.3L34.62,27.19S41.13,34.31,48.06,35c4,2.15,10.3,7.54,10.3,7.54S55.67,39.4,54.13,37.94Z"/><path class="cls-20" d="M28.8,29.29l-20-11.53L7.14,16.6A2.08,2.08,0,0,0,8,18.46L29.42,30.87a160.56,160.56,0,0,0,23,10c2,.66,6,1.62,6,1.62S45.87,39.54,28.8,29.29Z"/><polygon class="cls-12" points="19.79 16.91 19.39 17.14 18.56 16.2 6.91 0.23 7.31 0 11.64 2.5 19.79 16.91"/><polygon class="cls-17" points="19.39 17.14 9.87 11.64 6.91 0.23 11.24 2.73 19.39 17.14"/><polygon class="cls-10" points="18.61 14.82 18.21 15.05 17.6 14.32 17.5 13.79 17.9 13.56 18.61 14.82"/><polygon class="cls-16" points="17.5 13.79 9.18 8.99 9.44 9.99 18.21 15.05 17.5 13.79"/><polygon class="cls-21" points="12.51 9.99 9.79 8.42 9.79 6.77 12.51 8.34 12.51 9.99"/><path class="cls-11" d="M5.45,31.88a.44.44,0,0,1,.2-.34c.11-.06.2,0,.2.11a.46.46,0,0,1-.2.35C5.54,32.06,5.45,32,5.45,31.88Z"/><polygon class="cls-11" points="6.51 31.73 6.05 32.53 5.49 31.99 5.76 31.52 6.51 31.73"/><path class="cls-12" d="M6.06,32.54A.26.26,0,0,1,6,32.33a.74.74,0,0,1,.33-.57.21.21,0,0,1,.21,0l4.65,2.68-.45.82Z"/><polygon class="cls-11" points="9.7 32.81 8.56 32.16 8.56 33.18 9.7 33.84 9.7 32.81"/><polygon class="cls-10" points="9.82 32.74 9.7 32.81 9.7 33.84 9.82 33.77 9.82 32.74"/><polygon class="cls-13" points="9.7 32.81 8.56 32.16 8.69 32.08 9.82 32.74 9.7 32.81"/><path class="cls-11" d="M10.61,35a.74.74,0,0,1,.33-.57c.18-.1.33,0,.32.19a.73.73,0,0,1-.32.57C10.76,35.3,10.61,35.22,10.61,35Z"/><polygon class="cls-11" points="11.69 34.93 11.41 35.41 10.75 35.24 11.2 34.45 11.69 34.93"/><path class="cls-10" d="M11.34,35.28a.42.42,0,0,1,.2-.34c.11-.07.19,0,.19.11a.45.45,0,0,1-.19.35C11.43,35.46,11.34,35.41,11.34,35.28Z"/><path class="cls-10" d="M1.78,30.87,18.68,24,37.15,34.65s1.56.2,1.94.31a1.94,1.94,0,0,0,.41.84L4.6,32.5Z"/><polygon class="cls-13" points="2.31 30.76 17.88 24.19 20.43 24.19 39.09 34.96 4.6 32.08 2.31 30.76"/><path class="cls-10" d="M17.3,30.45a1.22,1.22,0,0,1,0-2.31,4.41,4.41,0,0,1,4,0,1.22,1.22,0,0,1,0,2.31A4.41,4.41,0,0,1,17.3,30.45Z"/><polygon class="cls-14" points="20.84 30.16 19.47 29.89 18.31 30.39 18.33 29.56 17.15 29.08 18.53 28.83 18.96 28.04 19.79 28.71 21.23 28.7 20.37 29.37 20.84 30.16"/><polygon class="cls-15" points="1.78 30.69 18.68 23.4 20.43 24.19 2.59 30.93 1.78 30.69"/><polygon class="cls-10" points="1.4 21.16 1.4 20.72 2.31 20.75 9.13 17.76 15.2 21.26 16.09 21.4 16.28 22.03 2.69 21.9 1.4 21.16"/><polygon class="cls-13" points="1.4 20.72 9.13 17.39 16.09 21.4 2.69 21.47 1.4 20.72"/><path class="cls-11" d="M0,29.94a.44.44,0,0,1,.2-.35c.11-.06.2,0,.2.12a.44.44,0,0,1-.2.34C.09,30.11,0,30.06,0,29.94Z"/><polygon class="cls-11" points="1.06 29.78 0.6 30.58 0.04 30.05 0.31 29.57 1.06 29.78"/><path class="cls-12" d="M.61,30.59a.23.23,0,0,1-.09-.21.73.73,0,0,1,.32-.57.26.26,0,0,1,.22,0L5.7,32.47l-.44.81Z"/><path class="cls-11" d="M5.16,33.06a.73.73,0,0,1,.32-.57c.19-.1.33,0,.33.19a.7.7,0,0,1-.33.57C5.3,33.35,5.16,33.27,5.16,33.06Z"/><polygon class="cls-11" points="6.23 32.98 5.95 33.47 5.29 33.29 5.75 32.5 6.23 32.98"/><path class="cls-10" d="M5.88,33.33a.44.44,0,0,1,.2-.34c.11-.06.2,0,.2.11a.46.46,0,0,1-.2.35C6,33.51,5.88,33.46,5.88,33.33Z"/><path class="cls-22" d="M36.72,28c1.67,1.51,7.56,5.75,10.46,6.05a.76.76,0,0,0,.78-.61c0-.41-1.92-3.18-4.61-5.34s-6.93-3-7.61-2.44S35.69,27.06,36.72,28Z"/><path class="cls-23" d="M37,25.93a11.23,11.23,0,0,1,1.52.37,15.86,15.86,0,0,1,4.21,2.07,18.42,18.42,0,0,1,2.42,2c.37.36.73.74,1.07,1.14a10.39,10.39,0,0,1,.93,1.25q-.56-.54-1.14-1.05c-.39-.34-.78-.67-1.18-1-.79-.65-1.6-1.26-2.44-1.84a26.72,26.72,0,0,0-2.61-1.59c-.45-.24-.9-.48-1.37-.7S37.46,26.14,37,25.93Z"/><path class="cls-24" d="M36.72,28c1.67,1.51,7.56,5.75,10.46,6.05a.76.76,0,0,0,.78-.61c-.75.86-4.31-1-7.16-3-3.19-2.17-5.69-4-5.06-4.83C35.06,26.16,35.69,27.06,36.72,28Z"/></g></g></svg>