<svg xmlns="http://www.w3.org/2000/svg" viewBox="0 0 65.94 36.37"><defs><style>.cls-1{fill:#121214;opacity:0.3;}.cls-2{fill:#666;}.cls-3{fill:gray;}.cls-4{fill:#7b916d;}.cls-5{fill:#9cb88a;}.cls-6{fill:#adadad;}.cls-7{fill:#333;}.cls-8{fill:#474747;}.cls-9{fill:#575757;}.cls-10{fill:#2b2b2b;}.cls-11{fill:#1f1f1f;}.cls-12{fill:#5d6e52;}.cls-13{fill:#36402f;}.cls-14{fill:#8aa37b;}.cls-15{fill:#abc997;}.cls-16{fill:#050505;}</style></defs><g id="Слой_2" data-name="Слой 2"><g id="Layer_1" data-name="Layer 1"><polygon class="cls-1" points="38.53 21.83 36.24 23.15 57.83 35.62 60.11 34.3 38.53 21.83"/><polygon class="cls-1" points="1.77 27.41 3 29.13 31.32 22.4 30.09 20.68 1.77 27.41"/><path class="cls-1" d="M37.44,19.16a4.78,4.78,0,0,0-.95-.41l.81.2L49,2.6l-3-.71L34.31,18.24l1.42.33a6.25,6.25,0,0,0-4,.59c-1.58.91-1.58,2.39,0,3.3a6.31,6.31,0,0,0,5.71,0C39,21.55,39,20.07,37.44,19.16Z"/><path class="cls-2" d="M56.09,35.83a5,5,0,0,0,4.52,0,1.59,1.59,0,0,0,.94-1.31v-.81l-6.4,0v.8A1.62,1.62,0,0,0,56.09,35.83Z"/><path class="cls-3" d="M56.09,35.05a1.38,1.38,0,0,1,0-2.61,5,5,0,0,1,4.52,0,1.38,1.38,0,0,1,0,2.61A5,5,0,0,1,56.09,35.05Z"/><path class="cls-2" d="M.94,29.37a5,5,0,0,0,4.52,0,1.58,1.58,0,0,0,.94-1.31v-.8L0,27.3v.81A1.61,1.61,0,0,0,.94,29.37Z"/><path class="cls-3" d="M.94,28.59A1.38,1.38,0,0,1,.94,26a5,5,0,0,1,4.52,0,1.38,1.38,0,0,1,0,2.61A5,5,0,0,1,.94,28.59Z"/><path class="cls-2" d="M44.93,4a5,5,0,0,0,4.53,0,1.58,1.58,0,0,0,.93-1.31V1.85L44,1.9v.81A1.63,1.63,0,0,0,44.93,4Z"/><path class="cls-3" d="M44.93,3.19a1.38,1.38,0,0,1,0-2.61,5,5,0,0,1,4.53,0,1.38,1.38,0,0,1,0,2.61A5,5,0,0,1,44.93,3.19Z"/><polygon class="cls-4" points="48.95 1.77 48.95 0.71 34.31 15.68 34.31 17.41 37.3 18.12 48.95 1.77"/><polygon class="cls-5" points="48.95 0.71 45.96 0 34.31 15.68 37.3 16.39 48.95 0.71"/><path class="cls-2" d="M38.6,18.63h-.09a2.34,2.34,0,0,0-1.1-1.17,6.31,6.31,0,0,0-5.71,0,2.37,2.37,0,0,0-1.09,1.15h-.09V20a2,2,0,0,0,1.18,1.65,6.31,6.31,0,0,0,5.71,0A2,2,0,0,0,38.6,20Z"/><path class="cls-3" d="M37.41,20.28a6.31,6.31,0,0,1-5.71,0c-1.58-.92-1.58-2.39,0-3.3a6.31,6.31,0,0,1,5.71,0C39,17.89,39,19.36,37.41,20.28Z"/><path class="cls-2" d="M37.8,18.45H31.32v.18h0A1.62,1.62,0,0,0,32.26,20a5.08,5.08,0,0,0,4.59,0,1.63,1.63,0,0,0,.95-1.32h0Z"/><path class="cls-6" d="M36.85,19.78a5.08,5.08,0,0,1-4.59,0C31,19,31,17.86,32.26,17.13a5.08,5.08,0,0,1,4.59,0C38.12,17.86,38.12,19,36.85,19.78Z"/><polygon class="cls-4" points="60.11 33.47 60.11 32.41 58.04 32.35 36.24 20.59 36.24 22.32 57.83 34.78 60.11 33.47"/><polygon class="cls-5" points="60.11 32.41 38.53 19.27 36.24 20.59 57.83 33.73 60.11 32.41"/><polygon class="cls-4" points="3 28.3 1.77 26.57 1.77 25.52 3.76 26.12 31.32 19.84 31.32 21.57 3 28.3"/><polygon class="cls-5" points="3 27.24 1.77 25.52 30.09 18.12 31.32 19.84 3 27.24"/><path class="cls-7" d="M40.68,10.15c-1.77-1-3.19-.19-3.19,1.84a7,7,0,0,0,3.19,5.51c1.75,1,3.18.2,3.18-1.83A7.07,7.07,0,0,0,40.68,10.15Z"/><path class="cls-8" d="M42.45,9.12a2.27,2.27,0,0,0-2.21-.24h0l-1.8,1a2.3,2.3,0,0,1,2.24.23,7.07,7.07,0,0,1,3.18,5.52,2.32,2.32,0,0,1-.86,2l1.77-1a2.31,2.31,0,0,0,.87-2A7.06,7.06,0,0,0,42.45,9.12Z"/><path class="cls-9" d="M40.81,10.08a2.29,2.29,0,0,0-2.22-.25l-.15.09a2.3,2.3,0,0,1,2.24.23,7.07,7.07,0,0,1,3.18,5.52,2.32,2.32,0,0,1-.86,2l.12-.08a2.25,2.25,0,0,0,.87-2A7,7,0,0,0,40.81,10.08Z"/><path class="cls-10" d="M41.75,9.53a2.3,2.3,0,0,0-2.21-.24l-.15.09a2.25,2.25,0,0,1,2.23.23,7,7,0,0,1,3.19,5.52,2.27,2.27,0,0,1-.87,2h0l.12-.07a2.26,2.26,0,0,0,.87-2A7,7,0,0,0,41.75,9.53Z"/><path class="cls-7" d="M44.11,14.77l.25-.73-.58-.55.14-.77-.72-.43.08-.81-.83-.25-.08-.78-.85-.12-.2-.56-1-.11L40,9.37s-.75.19-1,.26l-.22.1-.13.06A1.5,1.5,0,0,1,39,9.67c.17-.06.87-.25.87-.25l.33.31,1,.1.2.56.85.12.07.76.82.25-.06.82.71.42-.15.76.59.55-.24.74.42.65-.4.62.2.43-.53.55-.08.27.1-.06,0-.21.57-.57-.19-.43.41-.6Z"/><path class="cls-7" d="M45.14,14.17l.25-.72-.59-.55.14-.78-.72-.42.08-.82-.82-.25-.09-.77-.85-.12-.2-.56-1-.12L41,8.77S40.23,9,40,9l-.22.09-.13.08A1.13,1.13,0,0,1,40,9.08l.88-.25.34.3,1,.11.2.55.85.13.06.76.83.25-.06.83.72.4-.15.77.58.54-.23.74.42.66-.41.62.2.43-.53.54-.08.27.11-.06,0-.19.56-.58-.19-.43.42-.61Z"/><path class="cls-11" d="M40.68,11.22c-1.25-.72-2.26-.14-2.26,1.31a5,5,0,0,0,2.26,3.91c1.24.72,2.25.13,2.25-1.31A5,5,0,0,0,40.68,11.22Z"/><path class="cls-4" d="M40.68,11.55c-1.1-.62-2-.12-2,1.14a4.34,4.34,0,0,0,2,3.42c1.09.63,2,.12,2-1.14A4.35,4.35,0,0,0,40.68,11.55Z"/><path class="cls-12" d="M40.68,13c-.39-.22-.7,0-.7.41a1.55,1.55,0,0,0,.7,1.21c.38.22.69,0,.69-.41A1.57,1.57,0,0,0,40.68,13Z"/><path class="cls-13" d="M40.68,13.62c-.1-.06-.19,0-.19.1a.4.4,0,0,0,.19.32c.1.06.18,0,.18-.1A.41.41,0,0,0,40.68,13.62Z"/><path class="cls-13" d="M41,13.65c0-.06-.05-.13,0-.16h0s0,.12,0,.21.13.13.18.11a.09.09,0,0,0,0-.05A.21.21,0,0,1,41,13.65Z"/><path class="cls-10" d="M40.93,13.49s0,.1,0,.16a.21.21,0,0,0,.15.12.23.23,0,0,0,0-.17C41,13.53,41,13.49,40.93,13.49Z"/><path class="cls-13" d="M41,14.36a.23.23,0,0,1,0-.16h0c-.05,0-.05.12,0,.21s.14.14.19.1,0,0,0,0S41,14.43,41,14.36Z"/><path class="cls-10" d="M40.92,14.2a.23.23,0,0,0,0,.16c0,.07.1.12.15.12a.28.28,0,0,0,0-.17A.22.22,0,0,0,40.92,14.2Z"/><path class="cls-13" d="M40.33,14a.25.25,0,0,1,0-.17h0c-.06,0-.06.13,0,.22s.13.13.18.1,0,0,0-.05A.19.19,0,0,1,40.33,14Z"/><path class="cls-10" d="M40.31,13.83a.25.25,0,0,0,0,.17.19.19,0,0,0,.15.11.26.26,0,0,0-.17-.28Z"/><path class="cls-13" d="M40.34,13.29a.22.22,0,0,1,0-.17h0c-.05,0-.05.13,0,.21s.13.14.18.11a.05.05,0,0,0,0,0S40.38,13.36,40.34,13.29Z"/><path class="cls-10" d="M40.31,13.12a.22.22,0,0,0,0,.17c0,.07.09.11.14.11a.16.16,0,0,0,0-.16A.2.2,0,0,0,40.31,13.12Z"/><path class="cls-13" d="M40.85,12.24a1.54,1.54,0,0,1-.66-.9l-.2-.05a1.51,1.51,0,0,0,.69,1.08.43.43,0,0,0,.59,0A.52.52,0,0,1,40.85,12.24Z"/><path class="cls-10" d="M40.19,11.34a1.54,1.54,0,0,0,.66.9.52.52,0,0,0,.42.08.5.5,0,0,0,.1-.22,3.47,3.47,0,0,0-.69-.55A2,2,0,0,0,40.19,11.34Z"/><path class="cls-13" d="M41.48,16.23a.83.83,0,0,1,0-.75h0c-.25.1-.32.47-.19.87a1,1,0,0,0,.92-.22A1.08,1.08,0,0,1,41.48,16.23Z"/><path class="cls-10" d="M41.51,15.47a.85.85,0,0,0,0,.76,1.08,1.08,0,0,0,.74-.1,1.14,1.14,0,0,0,.15-.16C42.12,15.61,41.77,15.4,41.51,15.47Z"/><path class="cls-13" d="M42.07,14a.71.71,0,0,1,.07-.63c-.23.07-.34.36-.25.76a1.57,1.57,0,0,0,.75,1v-.23A1.57,1.57,0,0,1,42.07,14Z"/><path class="cls-10" d="M42.14,13.33a.71.71,0,0,0-.07.63,1.57,1.57,0,0,0,.57.88,4,4,0,0,0-.42-1.53Z"/><path class="cls-13" d="M39,14a4.68,4.68,0,0,0,1.07,1.61.78.78,0,0,0,.07-.23A4.77,4.77,0,0,1,39.2,14,.37.37,0,0,0,39,14Z"/><path class="cls-10" d="M39.2,14a4.77,4.77,0,0,0,.93,1.39,1.32,1.32,0,0,0-.26-.86A1.09,1.09,0,0,0,39.2,14Z"/><path class="cls-13" d="M38.88,12.67v-.1a1.64,1.64,0,0,1,.28-1l0,0a1.5,1.5,0,0,0-.43,1.17v.1c.29.2.56.21.7,0A.63.63,0,0,1,38.88,12.67Z"/><path class="cls-10" d="M38.88,12.57v.1a.63.63,0,0,0,.52.15.91.91,0,0,0,.07-.14,1.32,1.32,0,0,0-.31-1.12A1.64,1.64,0,0,0,38.88,12.57Z"/><path class="cls-13" d="M41.19,14.53a.43.43,0,0,0,.18-.39,1.37,1.37,0,0,0-.62-1.08.44.44,0,0,0-.42-.06l-5.82,3.37.84,1.54Z"/><path class="cls-12" d="M35.55,17.5a1.37,1.37,0,0,0-.63-1.08c-.34-.2-.62,0-.62.36a1.37,1.37,0,0,0,.63,1.08C35.27,18.06,35.55,17.9,35.55,17.5Z"/><polygon class="cls-4" points="38.06 8.47 37.18 6.79 39.46 14.34 39.46 17.43 39.9 17.68 39.9 14.48 38.06 8.47"/><polygon class="cls-14" points="43.44 12.44 39.9 14.48 38.06 8.47 41.6 6.42 43.44 12.44"/><polygon class="cls-12" points="43.44 15.64 39.9 17.68 39.9 14.48 43.44 12.44 43.44 15.64"/><polygon class="cls-5" points="41.6 6.42 38.06 8.47 37.18 6.79 40.68 4.77 41.6 6.42"/><polygon class="cls-5" points="39.9 15.22 38.33 16.51 36.36 17.26 35.92 16.92 39.46 14.97 39.9 15.22"/><polygon class="cls-12" points="39.9 17.68 36.81 19.46 36.23 18.75 36.81 17 39.9 15.22 40.87 16.57 39.9 17.68"/><polygon class="cls-12" points="39.59 13.42 38.24 14.19 37.07 11.28 37.25 10.36 38.6 9.59 39.59 13.42"/><polygon class="cls-15" points="35.36 9.82 34.31 10.43 34.45 10.73 35.43 11.01 37.25 10.36 38.6 9.59 35.36 9.82"/><polygon class="cls-4" points="35.24 14.46 38.24 14.19 37.25 10.36 34.42 10.66 35.24 14.46"/><path class="cls-5" d="M38.65,12.12a.34.34,0,0,0-.27.23,1.12,1.12,0,0,0,.09,1,.35.35,0,0,0,.28.18l2.59-.23-.09-1.43Z"/><path class="cls-12" d="M40.75,11.93a.34.34,0,0,0-.27.23,1.12,1.12,0,0,0,.09,1,.36.36,0,0,0,.28.18l.24,0L41,11.91Z"/><path class="cls-16" d="M41,12.12a1.12,1.12,0,0,0,.09,1c.19.26.45.24.58-.05a1.12,1.12,0,0,0-.09-1A.31.31,0,0,0,41,12.12Z"/><path class="cls-5" d="M41,11.73a.47.47,0,0,0-.34.29,1.39,1.39,0,0,0,.12,1.27.43.43,0,0,0,.35.23l5.2-.45-.11-1.8Z"/><path class="cls-12" d="M45.88,11.56A1.42,1.42,0,0,0,46,12.83c.24.34.57.31.74-.06a1.39,1.39,0,0,0-.12-1.27C46.38,11.17,46.06,11.2,45.88,11.56Z"/><path class="cls-5" d="M46.27,11.45a.34.34,0,0,0-.26.23,1.15,1.15,0,0,0,.08,1,.35.35,0,0,0,.29.18l14.46-1.26-.09-1.44Z"/><path class="cls-12" d="M60.06,10.24a.37.37,0,0,0-.27.24,1.1,1.1,0,0,0,.09,1,.35.35,0,0,0,.29.19l.49,0-.09-1.44Z"/><path class="cls-12" d="M60.46,10.41a1.12,1.12,0,0,0,.09,1,.31.31,0,0,0,.58,0,1.12,1.12,0,0,0-.09-1A.31.31,0,0,0,60.46,10.41Z"/><path class="cls-16" d="M60.53,10.51a.89.89,0,0,0,.07.81c.15.22.36.2.47,0a.9.9,0,0,0-.08-.81C60.85,10.26,60.64,10.28,60.53,10.51Z"/><path class="cls-5" d="M60.55,9.61a.64.64,0,0,0-.49.42,2.07,2.07,0,0,0,.16,1.86.65.65,0,0,0,.52.33l4.51-.39L65.09,9.2Z"/><path class="cls-12" d="M64.56,9.63a2.07,2.07,0,0,0,.16,1.86.57.57,0,0,0,1.07-.1,2.05,2.05,0,0,0-.16-1.85A.57.57,0,0,0,64.56,9.63Z"/><path class="cls-16" d="M64.69,9.81a1.61,1.61,0,0,0,.12,1.48c.28.39.66.36.86-.07a1.67,1.67,0,0,0-.13-1.49A.45.45,0,0,0,64.69,9.81Z"/><path class="cls-5" d="M38.19,10.28a.34.34,0,0,0-.27.23,1.1,1.1,0,0,0,.09,1,.34.34,0,0,0,.28.19l2.59-.23L40.79,10Z"/><path class="cls-12" d="M40.29,10.08a.36.36,0,0,0-.27.24,1.1,1.1,0,0,0,.09,1,.34.34,0,0,0,.28.19l.24,0-.15-1.42Z"/><path class="cls-16" d="M40.5,10.28a1.12,1.12,0,0,0,.09,1,.31.31,0,0,0,.58-.06,1.1,1.1,0,0,0-.09-1C40.9,10,40.64,10,40.5,10.28Z"/><path class="cls-5" d="M40.57,9.89a.45.45,0,0,0-.34.29,1.39,1.39,0,0,0,.12,1.27.45.45,0,0,0,.35.23l5.2-.46-.11-1.8Z"/><path class="cls-12" d="M45.42,9.72A1.42,1.42,0,0,0,45.53,11a.39.39,0,0,0,.74-.07,1.4,1.4,0,0,0-.12-1.27A.39.39,0,0,0,45.42,9.72Z"/><path class="cls-5" d="M45.82,9.59a.37.37,0,0,0-.27.23,1.15,1.15,0,0,0,.09,1,.38.38,0,0,0,.29.18l2.58-.23-.08-1.43Z"/><path class="cls-12" d="M48.14,9.59a1.15,1.15,0,0,0,.08,1c.19.26.46.24.59,0a1.12,1.12,0,0,0-.09-1A.31.31,0,0,0,48.14,9.59Z"/><polygon class="cls-12" points="35.18 13.75 33.64 14.63 32.48 11.77 32.66 10.85 34.21 9.96 35.18 13.75"/><polygon class="cls-15" points="32.04 10.19 30.51 11.07 30.8 11.49 32.08 11.37 32.66 10.85 34.21 9.96 32.04 10.19"/><polygon class="cls-12" points="30.64 14.89 33.64 14.63 32.66 10.85 30.51 11.07 30.9 12.9 30.28 13.21 30.64 14.89"/><polygon class="cls-4" points="31.44 12.29 30.56 10.61 32.84 18.16 32.84 21.25 33.28 21.5 33.28 18.31 31.44 12.29"/><polygon class="cls-14" points="36.81 16.27 33.28 18.31 31.44 12.29 34.98 10.25 36.81 16.27"/><polygon class="cls-12" points="36.81 19.46 33.28 21.5 33.28 18.31 36.81 16.27 36.81 19.46"/><polygon class="cls-5" points="38.06 8.47 31.44 12.29 30.56 10.61 37.18 6.79 38.06 8.47"/><path class="cls-7" d="M28.77,17c-1.77-1-3.19-.19-3.19,1.83a7,7,0,0,0,3.19,5.52c1.76,1,3.19.19,3.19-1.84A7,7,0,0,0,28.77,17Z"/><path class="cls-8" d="M30.54,16a2.28,2.28,0,0,0-2.2-.24h0l-1.79,1a2.26,2.26,0,0,1,2.23.24A7,7,0,0,1,32,22.54a2.31,2.31,0,0,1-.87,2l1.77-1a2.27,2.27,0,0,0,.87-2A7.06,7.06,0,0,0,30.54,16Z"/><path class="cls-9" d="M28.9,17a2.24,2.24,0,0,0-2.21-.24l-.15.08a2.26,2.26,0,0,1,2.23.24A7,7,0,0,1,32,22.54a2.31,2.31,0,0,1-.87,2l.12-.08a2.23,2.23,0,0,0,.87-2A7,7,0,0,0,28.9,17Z"/><path class="cls-10" d="M29.85,16.41a2.28,2.28,0,0,0-2.21-.25l-.16.09a2.27,2.27,0,0,1,2.24.23A7,7,0,0,1,32.91,22,2.24,2.24,0,0,1,32,24h0l.12-.07a2.26,2.26,0,0,0,.86-2A7,7,0,0,0,29.85,16.41Z"/><path class="cls-7" d="M32.21,21.64l.25-.72-.59-.56.15-.77-.72-.43.07-.81-.82-.25-.09-.77-.85-.12-.2-.57-1-.1-.33-.3s-.75.19-.95.26l-.23.11-.12.06a1.62,1.62,0,0,1,.33-.13l.88-.25.33.31,1,.11.19.56.85.12.07.76.82.24-.06.82.72.42-.15.76.58.55-.24.74.42.65-.39.62.2.43-.54.55-.07.27.09-.06,0-.2.56-.57-.19-.43.41-.61Z"/><path class="cls-7" d="M33.23,21.05l.25-.73-.58-.55L33,19l-.71-.42.08-.81-.83-.25-.09-.78-.84-.11-.2-.57-1-.11-.32-.3s-.76.2-1,.28a2.18,2.18,0,0,0-.23.09l-.13.07A1.81,1.81,0,0,1,28.1,16c.18-.06.88-.24.88-.24l.34.29,1,.11.2.56.86.13.05.75.84.25-.07.83.72.4-.15.77.59.54-.24.74.42.66-.4.62.19.43-.53.55-.07.26.1-.06,0-.19.56-.57-.19-.44.42-.6Z"/><path class="cls-11" d="M28.77,18.1c-1.25-.72-2.26-.14-2.26,1.3a5,5,0,0,0,2.26,3.92C30,24,31,23.45,31,22A5,5,0,0,0,28.77,18.1Z"/><path class="cls-4" d="M28.77,18.43c-1.09-.63-2-.12-2,1.14a4.37,4.37,0,0,0,2,3.41c1.09.63,2,.12,2-1.14A4.36,4.36,0,0,0,28.77,18.43Z"/><path class="cls-12" d="M28.77,19.9c-.38-.22-.7,0-.7.4a1.55,1.55,0,0,0,.7,1.21c.39.23.7,0,.7-.4A1.52,1.52,0,0,0,28.77,19.9Z"/><path class="cls-13" d="M28.77,20.5c-.1-.06-.18,0-.18.1a.41.41,0,0,0,.18.32c.11.06.19,0,.19-.11A.38.38,0,0,0,28.77,20.5Z"/><path class="cls-13" d="M29.05,20.53a.29.29,0,0,1,0-.17h0c-.05,0-.05.13,0,.21s.14.14.19.11,0,0,0-.05A.23.23,0,0,1,29.05,20.53Z"/><path class="cls-10" d="M29,20.36a.29.29,0,0,0,0,.17.23.23,0,0,0,.15.11.25.25,0,0,0,0-.16A.21.21,0,0,0,29,20.36Z"/><path class="cls-13" d="M29.05,21.24a.22.22,0,0,1,0-.17h0c-.06,0-.06.13,0,.22s.13.13.18.1a0,0,0,0,0,0,0S29.09,21.3,29.05,21.24Z"/><path class="cls-10" d="M29,21.07a.22.22,0,0,0,0,.17c0,.06.1.11.14.11s0-.1,0-.16A.18.18,0,0,0,29,21.07Z"/><path class="cls-13" d="M28.43,20.87a.24.24,0,0,1,0-.16h0c-.05,0-.05.12,0,.21s.13.14.18.1,0,0,0,0A.2.2,0,0,1,28.43,20.87Z"/><path class="cls-10" d="M28.4,20.71a.24.24,0,0,0,0,.16.2.2,0,0,0,.14.12.19.19,0,0,0,0-.17C28.5,20.75,28.45,20.71,28.4,20.71Z"/><path class="cls-13" d="M28.44,20.16a.22.22,0,0,1,0-.16h0c-.05,0-.05.13,0,.22s.12.13.18.1,0,0,0,0A.18.18,0,0,1,28.44,20.16Z"/><path class="cls-10" d="M28.4,20a.22.22,0,0,0,0,.16.18.18,0,0,0,.14.12.22.22,0,0,0,0-.17A.19.19,0,0,0,28.4,20Z"/><path class="cls-13" d="M28.94,19.12a1.58,1.58,0,0,1-.65-.91l-.21,0a1.58,1.58,0,0,0,.69,1.07.43.43,0,0,0,.6,0A.54.54,0,0,1,28.94,19.12Z"/><path class="cls-10" d="M28.29,18.21a1.58,1.58,0,0,0,.65.91.54.54,0,0,0,.43.07.44.44,0,0,0,.09-.22,3.15,3.15,0,0,0-.69-.54A2.25,2.25,0,0,0,28.29,18.21Z"/><path class="cls-13" d="M29.57,23.1a.89.89,0,0,1,0-.75h0c-.26.11-.33.47-.19.87a1,1,0,0,0,.91-.21A1.06,1.06,0,0,1,29.57,23.1Z"/><path class="cls-10" d="M29.6,22.35a.89.89,0,0,0,0,.75,1.06,1.06,0,0,0,.74-.09,1.21,1.21,0,0,0,.16-.16C30.21,22.48,29.87,22.27,29.6,22.35Z"/><path class="cls-13" d="M30.17,20.84a.78.78,0,0,1,.06-.64c-.23.07-.33.37-.24.76a1.51,1.51,0,0,0,.75,1v-.23A1.52,1.52,0,0,1,30.17,20.84Z"/><path class="cls-10" d="M30.23,20.2a.78.78,0,0,0-.06.64,1.52,1.52,0,0,0,.57.87,3.8,3.8,0,0,0-.43-1.52Z"/><path class="cls-13" d="M27.08,20.91a4.53,4.53,0,0,0,1.08,1.6.77.77,0,0,0,.06-.23,4.74,4.74,0,0,1-.92-1.39A.41.41,0,0,0,27.08,20.91Z"/><path class="cls-10" d="M27.3,20.89a4.74,4.74,0,0,0,.92,1.39,1.36,1.36,0,0,0-.25-.86A1.19,1.19,0,0,0,27.3,20.89Z"/><path class="cls-13" d="M27,19.54v-.1a1.64,1.64,0,0,1,.28-1l0,0a1.56,1.56,0,0,0-.43,1.18v.09c.29.21.56.22.71,0A.65.65,0,0,1,27,19.54Z"/><path class="cls-10" d="M27,19.44v.1a.65.65,0,0,0,.53.15.83.83,0,0,0,.07-.13,1.35,1.35,0,0,0-.32-1.13A1.64,1.64,0,0,0,27,19.44Z"/></g></g></svg>