<svg xmlns="http://www.w3.org/2000/svg" xmlns:xlink="http://www.w3.org/1999/xlink" viewBox="0 0 63.75 37.39"><defs><style>.cls-1{fill:none;}.cls-2{isolation:isolate;}.cls-3{fill:#cccfd2;}.cls-4{fill:#8e8f91;}.cls-5{fill:#ebecee;}.cls-6{fill:url(#linear-gradient);}.cls-7{fill:#909193;}.cls-8{clip-path:url(#clip-path);}.cls-9{opacity:0.5;}.cls-33,.cls-9{mix-blend-mode:multiply;}.cls-10,.cls-11,.cls-12,.cls-13{fill:#9d9e9f;}.cls-10{opacity:0.2;}.cls-11,.cls-16,.cls-46{opacity:0.6;}.cls-12,.cls-15{opacity:0.9;}.cls-13{opacity:0.1;}.cls-14,.cls-15,.cls-16{fill:#515253;}.cls-14{opacity:0.4;}.cls-17{fill:#b0b2b5;}.cls-18{fill:url(#linear-gradient-2);}.cls-19{fill:#738187;}.cls-20{fill:#485155;}.cls-21{fill:url(#linear-gradient-3);}.cls-22{fill:url(#linear-gradient-4);}.cls-23{fill:#85959c;}.cls-24{fill:#5a666b;}.cls-25{fill:url(#linear-gradient-5);}.cls-26{fill:url(#linear-gradient-6);}.cls-27{fill:url(#linear-gradient-7);}.cls-28{fill:url(#linear-gradient-8);}.cls-29{fill:url(#linear-gradient-9);}.cls-30{fill:url(#linear-gradient-10);}.cls-31{fill:url(#linear-gradient-11);}.cls-32{fill:url(#linear-gradient-12);}.cls-33{opacity:0.3;fill:url(#linear-gradient-13);}.cls-34{fill:url(#linear-gradient-14);}.cls-35{fill:url(#linear-gradient-15);}.cls-36{fill:url(#linear-gradient-16);}.cls-37{fill:url(#linear-gradient-17);}.cls-38{fill:url(#linear-gradient-18);}.cls-39{fill:url(#linear-gradient-19);}.cls-40{fill:url(#linear-gradient-20);}.cls-41{fill:url(#linear-gradient-21);}.cls-42{fill:url(#linear-gradient-22);}.cls-43{fill:url(#linear-gradient-23);}.cls-44{fill:url(#linear-gradient-24);}.cls-45{fill:url(#linear-gradient-25);}.cls-46{mix-blend-mode:screen;fill:url(#linear-gradient-26);}.cls-47{fill:#802121;}</style><linearGradient id="linear-gradient" x1="7.32" y1="7.27" x2="9.76" y2="7.27" gradientUnits="userSpaceOnUse"><stop offset="0" stop-color="#999fa3"/><stop offset="0.55" stop-color="#9da3a7"/><stop offset="1" stop-color="#a6acaf"/></linearGradient><clipPath id="clip-path"><path id="SVGID" class="cls-1" d="M13.94,4.42c.17,2.64-1.76,6.16-4.31,7.86s-4.75.92-4.91-1.72S6.48,4.39,9,2.7,13.78,1.77,13.94,4.42Z"/></clipPath><linearGradient id="linear-gradient-2" x1="10.12" y1="14.39" x2="13.15" y2="14.39" xlink:href="#linear-gradient"/><linearGradient id="linear-gradient-3" x1="46.85" y1="13.76" x2="46.3" y2="14.71" gradientUnits="userSpaceOnUse"><stop offset="0" stop-color="#ecedef"/><stop offset="0.17" stop-color="#e8e9eb"/><stop offset="0.33" stop-color="#dcdee0"/><stop offset="0.5" stop-color="#c8cbce"/><stop offset="0.67" stop-color="#abb0b4"/><stop offset="0.76" stop-color="#999fa3"/><stop offset="0.88" stop-color="#9ca2a6"/><stop offset="0.98" stop-color="#a7adb0"/><stop offset="1" stop-color="#abb1b3"/></linearGradient><linearGradient id="linear-gradient-4" x1="50.08" y1="15.63" x2="49.54" y2="16.58" gradientUnits="userSpaceOnUse"><stop offset="0" stop-color="#45474d"/><stop offset="1" stop-color="#2c2e31"/></linearGradient><linearGradient id="linear-gradient-5" x1="46.37" y1="11.89" x2="48.23" y2="11.89" xlink:href="#linear-gradient"/><linearGradient id="linear-gradient-6" x1="43.51" y1="15.69" x2="42.96" y2="16.63" xlink:href="#linear-gradient-3"/><linearGradient id="linear-gradient-7" x1="46.75" y1="17.55" x2="46.2" y2="18.5" xlink:href="#linear-gradient-4"/><linearGradient id="linear-gradient-8" x1="43.03" y1="13.81" x2="44.9" y2="13.81" xlink:href="#linear-gradient"/><linearGradient id="linear-gradient-9" x1="40.17" y1="17.61" x2="39.63" y2="18.56" xlink:href="#linear-gradient-3"/><linearGradient id="linear-gradient-10" x1="43.41" y1="19.48" x2="42.86" y2="20.43" xlink:href="#linear-gradient-4"/><linearGradient id="linear-gradient-11" x1="39.7" y1="15.74" x2="41.56" y2="15.74" xlink:href="#linear-gradient"/><linearGradient id="linear-gradient-12" x1="8.63" y1="19.53" x2="44.67" y2="19.53" xlink:href="#linear-gradient"/><linearGradient id="linear-gradient-13" x1="12.01" y1="20.78" x2="44.56" y2="20.78" xlink:href="#linear-gradient"/><linearGradient id="linear-gradient-14" x1="26.36" y1="25.59" x2="25.81" y2="26.54" xlink:href="#linear-gradient-3"/><linearGradient id="linear-gradient-15" x1="29.59" y1="27.46" x2="29.05" y2="28.4" xlink:href="#linear-gradient-4"/><linearGradient id="linear-gradient-16" x1="25.88" y1="23.71" x2="27.74" y2="23.71" xlink:href="#linear-gradient"/><linearGradient id="linear-gradient-17" x1="23.02" y1="27.52" x2="22.48" y2="28.46" xlink:href="#linear-gradient-3"/><linearGradient id="linear-gradient-18" x1="26.26" y1="29.38" x2="25.71" y2="30.33" xlink:href="#linear-gradient-4"/><linearGradient id="linear-gradient-19" x1="22.54" y1="25.64" x2="24.41" y2="25.64" xlink:href="#linear-gradient"/><linearGradient id="linear-gradient-20" x1="19.69" y1="29.44" x2="19.14" y2="30.39" xlink:href="#linear-gradient-3"/><linearGradient id="linear-gradient-21" x1="22.92" y1="31.31" x2="22.37" y2="32.26" xlink:href="#linear-gradient-4"/><linearGradient id="linear-gradient-22" x1="19.21" y1="27.57" x2="21.07" y2="27.57" xlink:href="#linear-gradient"/><linearGradient id="linear-gradient-23" x1="0" y1="36.28" x2="3.03" y2="36.28" xlink:href="#linear-gradient"/><linearGradient id="linear-gradient-24" x1="18.06" y1="10.92" x2="19.86" y2="10.92" xlink:href="#linear-gradient"/><linearGradient id="linear-gradient-25" x1="0.16" y1="20.87" x2="2.82" y2="20.87" xlink:href="#linear-gradient"/><linearGradient id="linear-gradient-26" x1="38.58" y1="21.32" x2="41.21" y2="25.87" gradientUnits="userSpaceOnUse"><stop offset="0" stop-color="#ecedef"/><stop offset="0.13" stop-color="#e8e9eb"/><stop offset="0.26" stop-color="#dcdddf"/><stop offset="0.39" stop-color="#c8c9cb"/><stop offset="0.52" stop-color="#acadae"/><stop offset="0.65" stop-color="#888889"/><stop offset="0.78" stop-color="#5b5c5d"/><stop offset="0.91" stop-color="#282829"/><stop offset="1"/></linearGradient></defs><g class="cls-2"><g id="Слой_2" data-name="Слой 2"><g id="Layer_1" data-name="Layer 1"><g id="_7" data-name="7"><g class="cls-2"><polygon class="cls-3" points="24.86 8.7 24.77 9.02 14.11 9.88 14.2 9.56 24.86 8.7"/><polygon class="cls-4" points="14.2 9.56 14.11 9.88 10.03 7.81 10.12 7.49 14.2 9.56"/><polygon class="cls-5" points="24.86 8.7 14.2 9.56 10.12 7.49 22.29 7.39 24.86 8.7"/></g><g class="cls-2"><path class="cls-6" d="M8.2,6.09a.42.42,0,0,0-.34.07,1.21,1.21,0,0,0-.54,1,.4.4,0,0,0,.12.31l1.33,1a.55.55,0,0,1-.15-.41,1.54,1.54,0,0,1,.7-1.24.53.53,0,0,1,.44-.08Z"/><path class="cls-7" d="M9.32,6.81a1.54,1.54,0,0,0-.7,1.24c0,.45.33.63.72.4A1.55,1.55,0,0,0,10,7.21C10,6.75,9.71,6.58,9.32,6.81Z"/></g><g class="cls-8"><g class="cls-9"><polygon class="cls-10" points="11.98 1.54 9.34 7.46 6.18 5.39 5.27 7.04 9.31 7.49 5.65 13.07 6.68 13.43 9.32 7.51 12.48 9.58 13.39 7.93 9.34 7.49 13.01 1.9 11.98 1.54"/><polygon class="cls-11" points="11.31 1.55 9.34 7.46 5.64 6.29 4.91 7.98 9.31 7.49 6.19 13.33 7.35 13.43 9.32 7.51 13.02 8.68 13.75 6.99 9.35 7.49 12.47 1.64 11.31 1.55"/><polygon class="cls-12" points="10.59 1.7 9.33 7.47 5.19 7.22 4.65 8.9 9.31 7.49 6.8 13.44 8.06 13.28 9.32 7.51 13.47 7.75 14.01 6.07 9.35 7.48 11.86 1.53 10.59 1.7"/><polygon class="cls-11" points="9.85 1.99 9.33 7.47 4.85 8.16 4.51 9.79 9.31 7.5 7.48 13.41 8.81 12.98 9.33 7.51 13.81 6.81 14.15 5.18 9.35 7.48 11.18 1.56 9.85 1.99"/><polygon class="cls-10" points="9.09 2.42 9.33 7.47 4.61 9.08 4.49 10.63 9.31 7.5 8.21 13.23 9.57 12.55 9.33 7.5 14.04 5.89 14.17 4.35 9.35 7.47 10.45 1.74 9.09 2.42"/><polygon class="cls-13" points="7.06 4.23 9.32 7.47 4.58 11.37 5.05 12.48 9.31 7.5 10.31 12.01 11.6 10.74 9.34 7.5 14.08 3.61 13.61 2.5 9.35 7.47 8.35 2.96 7.06 4.23"/><path class="cls-14" d="M11.2,1.61,9.35,7.48l1.38-5.82ZM14,6.22,9.35,7.48l4.42-.63ZM8,13.3,9.35,7.48,7.49,13.35ZM4.7,8.75,9.35,7.48l-4.43.64Z"/><path class="cls-15" d="M11.69,1.58,9.35,7.48l1.71-6ZM13.8,6.76l-4.45.72,4.18,0ZM7.63,13.41,9.35,7.48,7,13.38ZM4.89,8.2l4.46-.72-4.19,0Z"/><path class="cls-16" d="M12.11,1.61,9.35,7.48l2.35-6Zm1.47,5.88H9.35l3.92.64ZM7,13.44l2.35-6L6.59,13.35Zm-1.89-6H9.35L5.42,6.84Z"/></g></g><g class="cls-2"><polygon class="cls-3" points="13.15 10.84 13.47 10.66 12.53 19.5 12.21 19.68 13.15 10.84"/><polygon class="cls-17" points="10.79 9.48 11.11 9.29 13.47 10.66 13.15 10.84 10.79 9.48"/><polygon class="cls-18" points="13.15 10.84 12.21 19.68 10.12 18.47 10.14 9.11 13.15 10.84"/></g><g class="cls-2"><polygon class="cls-19" points="44.23 13.44 44.31 13.39 46.18 14.47 46.1 14.52 44.23 13.44"/><polygon class="cls-20" points="44.23 13.44 46.1 14.52 44.9 14.9 44.23 14.51 44.23 13.44"/></g><g class="cls-2"><polygon class="cls-20" points="46.57 13.76 46.57 13.85 44.7 12.77 44.7 12.68 46.57 13.76"/><polygon class="cls-19" points="46.3 12.54 46.57 13.76 44.7 12.68 45.62 12.15 46.3 12.54"/></g><path class="cls-21" d="M49.5,15.29a2.5,2.5,0,0,0-.54.95l-5-2.91a.25.25,0,0,1-.11-.24.83.83,0,0,1,.38-.68.27.27,0,0,1,.27,0Z"/><path class="cls-22" d="M50.68,16.51c0,.37-1,.16-1.72-.27a.26.26,0,0,1-.12-.24.88.88,0,0,1,.38-.68.28.28,0,0,1,.29,0C50.14,15.68,50.67,16.22,50.68,16.51Z"/><g class="cls-2"><polygon class="cls-19" points="44.23 11.35 44.31 11.31 44.98 11.7 44.9 11.74 44.23 11.35"/><polygon class="cls-23" points="44.9 11.74 44.98 11.7 46.18 13.45 46.1 13.49 44.9 11.74"/><polygon class="cls-20" points="44.9 11.74 46.1 13.49 44.23 12.42 44.23 11.35 44.9 11.74"/></g><g class="cls-2"><polygon class="cls-20" points="43.63 14.08 43.63 14.17 42.96 13.78 42.96 13.69 43.63 14.08"/><polygon class="cls-24" points="45.76 14.23 45.76 14.32 43.63 14.17 43.63 14.08 45.76 14.23"/><polygon class="cls-19" points="43.89 13.15 45.76 14.23 43.63 14.08 42.96 13.69 43.89 13.15"/></g><g class="cls-2"><polygon class="cls-25" points="48.23 14.95 46.37 13.86 46.37 8.82 48.23 9.91 48.23 14.95"/><polygon class="cls-5" points="48.23 9.91 46.37 8.82 46.67 8.65 48.53 9.74 48.23 9.91"/><polygon class="cls-3" points="48.53 9.74 48.54 14.77 48.23 14.95 48.23 9.91 48.53 9.74"/></g><g class="cls-2"><polygon class="cls-19" points="40.9 15.37 40.98 15.32 42.84 16.4 42.76 16.45 40.9 15.37"/><polygon class="cls-20" points="40.9 15.37 42.76 16.45 41.56 16.83 40.89 16.44 40.9 15.37"/></g><g class="cls-2"><polygon class="cls-20" points="43.23 15.69 43.23 15.78 41.37 14.7 41.37 14.61 43.23 15.69"/><polygon class="cls-19" points="42.96 14.47 43.23 15.69 41.37 14.61 42.28 14.07 42.96 14.47"/></g><path class="cls-26" d="M46.16,17.22a2.5,2.5,0,0,0-.54,1l-5-2.91a.26.26,0,0,1-.11-.25.88.88,0,0,1,.38-.67.29.29,0,0,1,.28,0Z"/><path class="cls-27" d="M47.35,18.43c0,.37-1,.16-1.73-.26a.3.3,0,0,1-.12-.25.88.88,0,0,1,.38-.67.28.28,0,0,1,.29,0C46.81,17.61,47.34,18.15,47.35,18.43Z"/><g class="cls-2"><polygon class="cls-19" points="40.9 13.28 40.98 13.23 41.65 13.62 41.57 13.67 40.9 13.28"/><polygon class="cls-23" points="41.57 13.67 41.65 13.62 42.84 15.37 42.76 15.42 41.57 13.67"/><polygon class="cls-20" points="41.57 13.67 42.76 15.42 40.89 14.34 40.9 13.28 41.57 13.67"/></g><g class="cls-2"><polygon class="cls-20" points="40.3 16 40.3 16.09 39.62 15.71 39.62 15.62 40.3 16"/><polygon class="cls-24" points="42.42 16.15 42.42 16.25 40.3 16.09 40.3 16 42.42 16.15"/><polygon class="cls-19" points="40.55 15.07 42.42 16.15 40.3 16 39.62 15.62 40.55 15.07"/></g><g class="cls-2"><polygon class="cls-28" points="44.9 16.87 43.03 15.79 43.03 10.75 44.9 11.84 44.9 16.87"/><polygon class="cls-5" points="44.9 11.84 43.03 10.75 43.34 10.58 45.2 11.66 44.9 11.84"/><polygon class="cls-3" points="45.2 11.66 45.2 16.7 44.9 16.87 44.9 11.84 45.2 11.66"/></g><g class="cls-2"><polygon class="cls-19" points="37.56 17.29 37.64 17.25 39.51 18.32 39.43 18.37 37.56 17.29"/><polygon class="cls-20" points="37.56 17.29 39.43 18.37 38.23 18.75 37.56 18.37 37.56 17.29"/></g><g class="cls-2"><polygon class="cls-20" points="39.9 17.61 39.9 17.7 38.03 16.63 38.03 16.53 39.9 17.61"/><polygon class="cls-19" points="39.63 16.39 39.9 17.61 38.03 16.53 38.95 16 39.63 16.39"/></g><path class="cls-29" d="M42.83,19.15a2.41,2.41,0,0,0-.55.94l-5-2.9a.28.28,0,0,1-.12-.25.86.86,0,0,1,.38-.67.27.27,0,0,1,.28,0Z"/><path class="cls-30" d="M44,20.36c0,.37-.95.16-1.73-.27a.25.25,0,0,1-.11-.24.8.8,0,0,1,.38-.67.25.25,0,0,1,.28,0C43.47,19.53,44,20.07,44,20.36Z"/><g class="cls-2"><polygon class="cls-19" points="37.56 15.21 37.64 15.16 38.31 15.55 38.23 15.59 37.56 15.21"/><polygon class="cls-23" points="38.23 15.59 38.31 15.55 39.5 17.3 39.42 17.35 38.23 15.59"/><polygon class="cls-20" points="38.23 15.59 39.42 17.35 37.56 16.27 37.56 15.21 38.23 15.59"/></g><g class="cls-2"><polygon class="cls-20" points="36.96 17.93 36.96 18.02 36.29 17.63 36.29 17.54 36.96 17.93"/><polygon class="cls-24" points="39.08 18.08 39.08 18.17 36.96 18.02 36.96 17.93 39.08 18.08"/><polygon class="cls-19" points="37.22 17 39.08 18.08 36.96 17.93 36.29 17.54 37.22 17"/></g><g class="cls-2"><polygon class="cls-31" points="41.56 18.8 39.7 17.71 39.7 12.68 41.56 13.76 41.56 18.8"/><polygon class="cls-5" points="41.56 13.76 39.7 12.68 40 12.5 41.86 13.59 41.56 13.76"/><polygon class="cls-3" points="41.86 13.59 41.86 18.62 41.56 18.8 41.56 13.76 41.86 13.59"/></g><g class="cls-2"><polygon class="cls-3" points="63.75 1.75 63.75 2.22 37.09 20.39 37.09 19.92 63.75 1.75"/><polygon class="cls-5" points="63.75 1.75 37.09 19.92 29.58 15.66 60.72 0 63.75 1.75"/></g><g class="cls-2"><path class="cls-5" d="M47.31,29.3a12.91,12.91,0,0,0-2.06-3,35.83,35.83,0,0,0-8.92-7.06C25.46,13,10.41,6.83,9.66,6.48l-1,.61c.74.35,14,7.57,24.84,13.85A35.83,35.83,0,0,1,42.4,28a13.25,13.25,0,0,1,2.06,3,2.18,2.18,0,0,1,.21.77v.17a.16.16,0,0,1-.08.14l2.86-1.66a.15.15,0,0,0,.07-.14v-.17A2,2,0,0,0,47.31,29.3Z"/><path class="cls-3" d="M47.31,29.3a12.91,12.91,0,0,0-2.06-3L42.4,28a13.25,13.25,0,0,1,2.06,3,2.18,2.18,0,0,1,.21.77v.17a.16.16,0,0,1-.08.14l2.86-1.66a.15.15,0,0,0,.07-.14v-.17A2,2,0,0,0,47.31,29.3Z"/></g><path class="cls-5" d="M9.91,6.31,8.68,7c.67-.38,9.27,3.8,9.27,3.8l2-1.17C17.22,8.07,10.58,5.92,9.91,6.31Z"/><path class="cls-32" d="M33.48,20.94C28.3,18,22.59,14.74,18,12.17V10.83C15.24,9.26,9,6.39,8.64,7.09v1.4c.52.46,6.1,3.86,12.83,8.17,2.08,1.33,4.79,6.21,5.71,6.75,8.45,4.87,17.5,9.66,17.5,8.49v-.17C44.67,30.41,41.09,25.33,33.48,20.94Z"/><path class="cls-33" d="M15.7,12.68,12,10.43l.08-.12,3.68,2.25c3.83,2.34,7.44,4.55,10.87,6.61l-.07.12Q21.43,16.2,15.7,12.68ZM44.5,31.06c-2.71-1.21-5.58-2.65-8.61-4.29V22.44l-.15-.09v4.34c-3.44-1.87-7.1-4-11-6.3l.21.3A193.64,193.64,0,0,0,44.56,31.24Z"/><g class="cls-2"><polygon class="cls-19" points="23.74 25.27 23.82 25.22 25.69 26.3 25.61 26.35 23.74 25.27"/><polygon class="cls-20" points="23.74 25.27 25.61 26.35 24.41 26.73 23.74 26.34 23.74 25.27"/></g><g class="cls-2"><polygon class="cls-20" points="26.08 25.59 26.08 25.68 24.21 24.6 24.21 24.51 26.08 25.59"/><polygon class="cls-19" points="25.81 24.37 26.08 25.59 24.21 24.51 25.13 23.98 25.81 24.37"/></g><path class="cls-34" d="M29,27.12a2.5,2.5,0,0,0-.54.95l-5-2.91a.25.25,0,0,1-.11-.24.83.83,0,0,1,.38-.68.29.29,0,0,1,.28,0Z"/><path class="cls-35" d="M30.2,28.33c0,.38-1,.17-1.73-.26a.26.26,0,0,1-.12-.24.88.88,0,0,1,.38-.68.31.31,0,0,1,.29,0C29.66,27.51,30.19,28.05,30.2,28.33Z"/><g class="cls-2"><polygon class="cls-19" points="23.74 23.18 23.82 23.14 24.5 23.52 24.41 23.57 23.74 23.18"/><polygon class="cls-23" points="24.41 23.57 24.5 23.52 25.69 25.28 25.61 25.32 24.41 23.57"/><polygon class="cls-20" points="24.41 23.57 25.61 25.32 23.74 24.25 23.74 23.18 24.41 23.57"/></g><g class="cls-2"><polygon class="cls-20" points="23.14 25.91 23.14 26 22.47 25.61 22.47 25.52 23.14 25.91"/><polygon class="cls-24" points="25.27 26.06 25.27 26.15 23.14 26 23.14 25.91 25.27 26.06"/><polygon class="cls-19" points="23.4 24.98 25.27 26.06 23.14 25.91 22.47 25.52 23.4 24.98"/></g><g class="cls-2"><polygon class="cls-36" points="27.75 26.77 25.88 25.69 25.88 20.65 27.74 21.74 27.75 26.77"/><polygon class="cls-5" points="27.74 21.74 25.88 20.65 26.18 20.48 28.05 21.57 27.74 21.74"/><polygon class="cls-3" points="28.05 21.57 28.05 26.6 27.75 26.77 27.74 21.74 28.05 21.57"/></g><g class="cls-2"><polygon class="cls-19" points="20.41 27.2 20.49 27.15 22.36 28.23 22.28 28.27 20.41 27.2"/><polygon class="cls-20" points="20.41 27.2 22.28 28.27 21.08 28.66 20.4 28.27 20.41 27.2"/></g><g class="cls-2"><polygon class="cls-20" points="22.75 27.51 22.75 27.61 20.88 26.53 20.88 26.44 22.75 27.51"/><polygon class="cls-19" points="22.48 26.3 22.75 27.51 20.88 26.44 21.8 25.9 22.48 26.3"/></g><path class="cls-37" d="M25.67,29.05a2.5,2.5,0,0,0-.54.95l-5-2.91a.28.28,0,0,1-.12-.25.88.88,0,0,1,.38-.67.29.29,0,0,1,.28,0Z"/><path class="cls-38" d="M26.86,30.26c0,.37-1,.16-1.73-.26a.27.27,0,0,1-.11-.25.81.81,0,0,1,.38-.67.27.27,0,0,1,.28,0C26.32,29.43,26.85,30,26.86,30.26Z"/><g class="cls-2"><polygon class="cls-19" points="20.41 25.11 20.49 25.06 21.16 25.45 21.08 25.5 20.41 25.11"/><polygon class="cls-23" points="21.08 25.5 21.16 25.45 22.35 27.2 22.27 27.25 21.08 25.5"/><polygon class="cls-20" points="21.08 25.5 22.27 27.25 20.4 26.17 20.41 25.11 21.08 25.5"/></g><g class="cls-2"><polygon class="cls-20" points="19.81 27.83 19.81 27.92 19.14 27.54 19.14 27.44 19.81 27.83"/><polygon class="cls-24" points="21.93 27.98 21.93 28.07 19.81 27.92 19.81 27.83 21.93 27.98"/><polygon class="cls-19" points="20.06 26.9 21.93 27.98 19.81 27.83 19.14 27.44 20.06 26.9"/></g><g class="cls-2"><polygon class="cls-39" points="24.41 28.7 22.55 27.62 22.54 22.58 24.41 23.67 24.41 28.7"/><polygon class="cls-5" points="24.41 23.67 22.54 22.58 22.85 22.41 24.71 23.49 24.41 23.67"/><polygon class="cls-3" points="24.71 23.49 24.71 28.53 24.41 28.7 24.41 23.67 24.71 23.49"/></g><g class="cls-2"><polygon class="cls-19" points="17.07 29.12 17.15 29.07 19.02 30.15 18.94 30.2 17.07 29.12"/><polygon class="cls-20" points="17.07 29.12 18.94 30.2 17.74 30.58 17.07 30.2 17.07 29.12"/></g><g class="cls-2"><polygon class="cls-20" points="19.41 29.44 19.41 29.53 17.54 28.45 17.54 28.36 19.41 29.44"/><polygon class="cls-19" points="19.14 28.22 19.41 29.44 17.54 28.36 18.46 27.83 19.14 28.22"/></g><path class="cls-40" d="M22.34,31a2.66,2.66,0,0,0-.55,1l-5-2.91c-.07,0-.11-.12-.12-.24A.85.85,0,0,1,17,28.1a.27.27,0,0,1,.28,0Z"/><path class="cls-41" d="M23.52,32.19c0,.37-.95.16-1.73-.27a.28.28,0,0,1-.11-.24.88.88,0,0,1,.38-.68.26.26,0,0,1,.28,0C23,31.36,23.51,31.9,23.52,32.19Z"/><g class="cls-2"><polygon class="cls-19" points="17.07 27.04 17.15 26.99 17.82 27.38 17.74 27.42 17.07 27.04"/><polygon class="cls-23" points="17.74 27.42 17.82 27.38 19.02 29.13 18.94 29.18 17.74 27.42"/><polygon class="cls-20" points="17.74 27.42 18.94 29.18 17.07 28.1 17.07 27.04 17.74 27.42"/></g><g class="cls-2"><polygon class="cls-20" points="16.47 29.76 16.47 29.85 15.8 29.46 15.8 29.37 16.47 29.76"/><polygon class="cls-24" points="18.59 29.91 18.59 30 16.47 29.85 16.47 29.76 18.59 29.91"/><polygon class="cls-19" points="16.73 28.83 18.59 29.91 16.47 29.76 15.8 29.37 16.73 28.83"/></g><g class="cls-2"><polygon class="cls-42" points="21.07 30.63 19.21 29.54 19.21 24.51 21.07 25.59 21.07 30.63"/><polygon class="cls-5" points="21.07 25.59 19.21 24.51 19.51 24.33 21.37 25.42 21.07 25.59"/><polygon class="cls-3" points="21.37 25.42 21.38 30.45 21.07 30.63 21.07 25.59 21.37 25.42"/></g><g class="cls-2"><polygon class="cls-3" points="34.31 21.41 34.31 21.89 3.02 37.39 3.03 36.91 34.31 21.41"/><polygon class="cls-43" points="3.03 36.91 3.02 37.39 0 35.64 0 35.17 3.03 36.91"/><polygon class="cls-5" points="26.87 17.12 34.31 21.41 3.03 36.91 0 35.17 26.87 17.12"/></g><g class="cls-2"><polygon class="cls-3" points="17.95 10.83 17.95 12.18 19.97 11.01 19.98 9.66 17.95 10.83"/><polygon class="cls-44" points="18.07 10.9 19.86 9.86 19.86 10.94 18.06 11.98 18.07 10.9"/></g><g class="cls-2"><polygon class="cls-3" points="12.59 10.4 12.59 10.83 2.82 21.68 2.66 21.43 12.59 10.4"/><polygon class="cls-45" points="2.66 21.43 2.82 21.68 0.33 20.3 0.16 20.05 2.66 21.43"/><polygon class="cls-5" points="12.59 10.4 2.66 21.43 0.16 20.05 8.63 8.2 12.59 10.4"/></g><path class="cls-46" d="M36.23,22.67a35.73,35.73,0,0,1,4.57,3.67l2.86-1.65A36.29,36.29,0,0,0,39.1,21Z"/><path class="cls-47" d="M16.41,11.45c0,.37-.3.49-.66.28a1.36,1.36,0,0,1-.66-1c0-.37.29-.49.66-.28A1.39,1.39,0,0,1,16.41,11.45Z"/></g></g></g></g></svg>