<svg xmlns="http://www.w3.org/2000/svg" viewBox="0 0 49.82 44.24"><defs><style>.cls-1{opacity:0.3;}.cls-2{fill:#050505;}.cls-3{fill:#383838;}.cls-4{fill:#575757;}.cls-5{fill:#54634a;}.cls-6{fill:#7b916d;}.cls-7{fill:#687a5c;}.cls-8{fill:#666;}.cls-9{fill:gray;}.cls-10{fill:#adadad;}.cls-11{fill:#9cb88a;}.cls-12{fill:#8aa37b;}.cls-13{fill:#5d6e52;}.cls-14{fill:#abc997;}.cls-15{fill:#4e5c45;}.cls-16{fill:#fff;}.cls-17{fill:#535359;}.cls-18{fill:#ffec7a;}</style></defs><g id="Слой_2" data-name="Слой 2"><g id="Layer_1" data-name="Layer 1"><polygon class="cls-1" points="31.83 44.24 2.54 27.33 20.09 17.2 49.38 34.11 31.83 44.24"/><polygon class="cls-2" points="44.65 33.65 42.38 34.45 20.45 21.82 16.68 16.34 16.52 15.68 16.52 14.76 17.17 14.4 18.43 14.55 45.52 30.61 46.1 31.73 46.08 33.08 44.65 33.65"/><path class="cls-3" d="M21.06,15.68a2.69,2.69,0,0,0-1.21-2.1A.85.85,0,0,0,19,13.5l-.86.5L19.86,17l.86-.5A.86.86,0,0,0,21.06,15.68Z"/><path class="cls-4" d="M20.21,16.17c0,.77-.54,1.08-1.21.7a2.69,2.69,0,0,1-1.21-2.1c0-.77.54-1.08,1.21-.7A2.69,2.69,0,0,1,20.21,16.17Z"/><path class="cls-5" d="M19.9,16.7a.68.68,0,0,1-.9,0,2.38,2.38,0,0,1-1.1-1.89c0-.44.19-.71.48-.77a.88.88,0,0,0-.19.6,2.43,2.43,0,0,0,1.09,1.9A.89.89,0,0,0,19.9,16.7Z"/><path class="cls-2" d="M20.09,16.1a.86.86,0,0,1-.19.6h0a.89.89,0,0,1-.62-.13,2.43,2.43,0,0,1-1.09-1.9.88.88,0,0,1,.19-.6h0a.89.89,0,0,1,.62.13A2.43,2.43,0,0,1,20.09,16.1Z"/><path class="cls-3" d="M20,16.32a2.69,2.69,0,0,0-1.21-2.1.85.85,0,0,0-.86-.08l-.86.5,1.74,2.95.86-.5A.88.88,0,0,0,20,16.32Z"/><path class="cls-4" d="M19.1,16.81c0,.77-.54,1.08-1.21.7a2.69,2.69,0,0,1-1.21-2.1c0-.77.54-1.08,1.21-.7A2.69,2.69,0,0,1,19.1,16.81Z"/><path class="cls-5" d="M18.8,17.34c-.2.23-.53.25-.91,0a2.44,2.44,0,0,1-1.1-1.9c0-.44.19-.71.48-.77a.88.88,0,0,0-.19.6,2.42,2.42,0,0,0,1.1,1.9A.88.88,0,0,0,18.8,17.34Z"/><path class="cls-6" d="M19,16.74a.86.86,0,0,1-.19.6h0a.88.88,0,0,1-.62-.13,2.42,2.42,0,0,1-1.1-1.9.88.88,0,0,1,.19-.6h0a.88.88,0,0,1,.62.13A2.42,2.42,0,0,1,19,16.74Z"/><path class="cls-5" d="M18.54,16.44a.29.29,0,0,1-.36,0,1,1,0,0,1-.44-.76.29.29,0,0,1,.19-.31.37.37,0,0,0-.08.25,1,1,0,0,0,.44.76A.4.4,0,0,0,18.54,16.44Z"/><path class="cls-7" d="M18.62,16.2a.35.35,0,0,1-.08.24h0a.4.4,0,0,1-.25-.05,1,1,0,0,1-.44-.76.37.37,0,0,1,.08-.25h0a.37.37,0,0,1,.25.06A1,1,0,0,1,18.62,16.2Z"/><path class="cls-5" d="M18.38,17.06a.13.13,0,0,1-.2,0,.49.49,0,0,1-.22-.38c0-.11.05-.16.13-.16a.29.29,0,0,0,0,.09.49.49,0,0,0,.22.38A.16.16,0,0,0,18.38,17.06Z"/><path class="cls-7" d="M18.4,17a.2.2,0,0,1,0,.09.16.16,0,0,1-.09,0,.49.49,0,0,1-.22-.38.29.29,0,0,1,0-.09.19.19,0,0,1,.09,0A.49.49,0,0,1,18.4,17Z"/><path class="cls-5" d="M18,14.92a.49.49,0,0,0,.22.38.13.13,0,0,0,.2,0l-.09,0A.46.46,0,0,1,18.1,15l-.14-.1Z"/><path class="cls-7" d="M18.29,15.23l.09,0h0A2.37,2.37,0,0,0,18.1,15,.46.46,0,0,0,18.29,15.23Z"/><path class="cls-5" d="M17.6,15.71a.13.13,0,0,1-.2,0,.49.49,0,0,1-.22-.38c0-.11.05-.16.13-.16a.24.24,0,0,0,0,.09.49.49,0,0,0,.22.38A.16.16,0,0,0,17.6,15.71Z"/><path class="cls-7" d="M17.62,15.62a.24.24,0,0,1,0,.09.16.16,0,0,1-.09,0,.49.49,0,0,1-.22-.38.24.24,0,0,1,0-.09l.09,0A.49.49,0,0,1,17.62,15.62Z"/><path class="cls-5" d="M18.85,16.2a.29.29,0,0,1,0-.09c-.08,0-.13.05-.13.16a.49.49,0,0,0,.22.38h0a1,1,0,0,0,0-.17A.47.47,0,0,1,18.85,16.2Z"/><path class="cls-7" d="M18.85,16.2a.47.47,0,0,0,.12.29,2,2,0,0,0-.1-.38h0A.29.29,0,0,0,18.85,16.2Z"/><path class="cls-5" d="M17.47,15.08c.09.15.22.23.31.18s0,0,0,0a.38.38,0,0,1-.25-.2.34.34,0,0,1,0-.3h-.07C17.38,14.77,17.38,14.93,17.47,15.08Z"/><path class="cls-7" d="M17.58,15a.38.38,0,0,0,.25.2.36.36,0,0,0,0-.31.39.39,0,0,0-.18-.18h-.06A.34.34,0,0,0,17.58,15Z"/><path class="cls-5" d="M18.93,17.12a.12.12,0,0,1-.05.05c-.08,0-.22,0-.3-.18s-.09-.31,0-.36a.06.06,0,0,1,.06,0,.32.32,0,0,0,.05.3A.35.35,0,0,0,18.93,17.12Z"/><path class="cls-7" d="M18.93,17.12a.35.35,0,0,1-.24-.2.32.32,0,0,1-.05-.3.31.31,0,0,1,.24.19A.33.33,0,0,1,18.93,17.12Z"/><path class="cls-5" d="M18.79,15.9a3.47,3.47,0,0,0-.27-.46.36.36,0,0,0,.06.27A.35.35,0,0,0,18.79,15.9Z"/><path class="cls-5" d="M17.83,16.48a.12.12,0,0,1,0,.05c-.09,0-.22,0-.31-.18s-.09-.31,0-.36h.07a.41.41,0,0,0,.29.5Z"/><path class="cls-7" d="M17.83,16.48a.41.41,0,0,1-.29-.5c.08,0,.17.08.24.19A.37.37,0,0,1,17.83,16.48Z"/><path class="cls-8" d="M18.63,16.2a1,1,0,0,0-.45-.78.34.34,0,0,0-.32,0l-.09.06.64,1.1.1-.06A.32.32,0,0,0,18.63,16.2Z"/><path class="cls-9" d="M18.54,16.26c0,.28-.2.4-.45.26a1,1,0,0,1-.45-.78c0-.29.2-.41.45-.26A1,1,0,0,1,18.54,16.26Z"/><path class="cls-8" d="M18.39,16.2a.74.74,0,0,0-.33-.57.24.24,0,0,0-.23,0l-.07,0,.47.8.07,0A.22.22,0,0,0,18.39,16.2Z"/><path class="cls-10" d="M18.32,16.24c0,.21-.14.3-.33.19a.72.72,0,0,1-.32-.57c0-.21.14-.29.32-.19A.71.71,0,0,1,18.32,16.24Z"/><path class="cls-9" d="M46.68,29.12a2.68,2.68,0,0,0,1.2,2.09c.67.38,1.21.07,1.21-.7a2.67,2.67,0,0,0-1.21-2.09C47.22,28,46.68,28.35,46.68,29.12Z"/><path class="cls-6" d="M46.79,29.18a2.4,2.4,0,0,0,1.09,1.89c.6.35,1.09.07,1.09-.63a2.43,2.43,0,0,0-1.09-1.89C47.28,28.21,46.79,28.49,46.79,29.18Z"/><path class="cls-7" d="M47.45,29.56a1,1,0,0,0,.43.76.27.27,0,0,0,.44-.25,1,1,0,0,0-.44-.76C47.64,29.17,47.45,29.28,47.45,29.56Z"/><path class="cls-7" d="M47.66,30.58a.49.49,0,0,0,.22.38c.12.07.22,0,.22-.12a.49.49,0,0,0-.22-.38C47.76,30.39,47.66,30.45,47.66,30.58Z"/><path class="cls-7" d="M47.66,28.79a.49.49,0,0,0,.22.38c.12.07.22,0,.22-.13a.5.5,0,0,0-.22-.38C47.76,28.6,47.66,28.65,47.66,28.79Z"/><path class="cls-7" d="M48.66,30.51c.12.07.22,0,.22-.12a.49.49,0,0,0-.22-.38c-.12-.07-.22,0-.22.13A.47.47,0,0,0,48.66,30.51Z"/><path class="cls-7" d="M47.1,29.62c.13.07.22,0,.22-.13a.46.46,0,0,0-.22-.38c-.12-.07-.21,0-.21.13A.48.48,0,0,0,47.1,29.62Z"/><path class="cls-7" d="M48.58,29.76c.09,0,.09-.2,0-.35s-.23-.23-.31-.18-.09.21,0,.36S48.5,29.81,48.58,29.76Z"/><path class="cls-7" d="M47.49,30.4c.08,0,.08-.21,0-.36s-.23-.23-.31-.18-.09.21,0,.36S47.4,30.45,47.49,30.4Z"/><path class="cls-7" d="M47.49,28.77c-.09-.14-.23-.22-.31-.17s-.09.2,0,.35.22.23.31.18S47.57,28.92,47.49,28.77Z"/><path class="cls-7" d="M48.58,30.68c-.08-.15-.22-.23-.3-.18s-.09.21,0,.35.22.23.3.18S48.67,30.82,48.58,30.68Z"/><path class="cls-9" d="M22.23,15c0,.77-.54,1.08-1.21.7a2.67,2.67,0,0,1-1.2-2.09c0-.77.54-1.08,1.2-.69A2.65,2.65,0,0,1,22.23,15Z"/><path class="cls-6" d="M22.11,14.94c0,.69-.48,1-1.09.63a2.43,2.43,0,0,1-1.09-1.89c0-.7.49-1,1.09-.63A2.39,2.39,0,0,1,22.11,14.94Z"/><path class="cls-7" d="M21.46,14.56c0,.28-.19.39-.44.25a1,1,0,0,1-.43-.75c0-.28.19-.4.43-.26A1,1,0,0,1,21.46,14.56Z"/><path class="cls-7" d="M21.24,15.33c0,.14-.1.2-.22.13a.48.48,0,0,1-.21-.38c0-.14.09-.2.21-.13A.49.49,0,0,1,21.24,15.33Z"/><path class="cls-7" d="M21.24,13.54c0,.14-.1.19-.22.12a.48.48,0,0,1-.21-.38c0-.13.09-.19.21-.12A.49.49,0,0,1,21.24,13.54Z"/><path class="cls-7" d="M20.25,14.11a.49.49,0,0,1-.22-.38c0-.14.1-.19.22-.12a.49.49,0,0,1,.22.38C20.47,14.12,20.37,14.18,20.25,14.11Z"/><path class="cls-7" d="M21.8,15a.49.49,0,0,1-.22-.38c0-.14.1-.2.22-.13a.49.49,0,0,1,.22.38C22,15,21.92,15.08,21.8,15Z"/><path class="cls-7" d="M20.32,13.45c-.09-.15-.09-.31,0-.36s.22,0,.31.18.08.3,0,.35S20.41,13.59,20.32,13.45Z"/><path class="cls-7" d="M21.42,15.35c-.09-.15-.09-.31,0-.36s.22,0,.31.18.08.31,0,.36S21.5,15.5,21.42,15.35Z"/><path class="cls-7" d="M21.42,13.72c.08-.05.22,0,.31.18s.08.31,0,.36-.23,0-.31-.18S21.33,13.77,21.42,13.72Z"/><path class="cls-7" d="M20.32,14.36c.09,0,.22,0,.31.18s.08.3,0,.35-.22,0-.31-.18S20.24,14.41,20.32,14.36Z"/><path class="cls-3" d="M26.11,19.11a4.29,4.29,0,0,0-1.94-3.36,1.37,1.37,0,0,0-1.37-.14l-1.38.8,2.78,4.73,1.37-.8A1.39,1.39,0,0,0,26.11,19.11Z"/><path class="cls-4" d="M24.75,19.89c0,1.24-.87,1.74-1.94,1.12a4.29,4.29,0,0,1-1.94-3.36c0-1.23.87-1.74,1.94-1.12A4.29,4.29,0,0,1,24.75,19.89Z"/><path class="cls-2" d="M24.57,19.78c0,1.12-.79,1.58-1.76,1a3.87,3.87,0,0,1-1.75-3c0-1.12.78-1.57,1.75-1A3.86,3.86,0,0,1,24.57,19.78Z"/><path class="cls-3" d="M24.35,20.12a4.3,4.3,0,0,0-1.94-3.36A1.34,1.34,0,0,0,21,16.63l-1.38.8,2.78,4.72,1.37-.79A1.41,1.41,0,0,0,24.35,20.12Z"/><path class="cls-4" d="M23,20.91c0,1.23-.87,1.73-1.94,1.12a4.3,4.3,0,0,1-1.94-3.36c0-1.24.87-1.74,1.94-1.12A4.29,4.29,0,0,1,23,20.91Z"/><path class="cls-5" d="M22.5,21.76c-.31.36-.84.4-1.45,0a3.87,3.87,0,0,1-1.75-3c0-.69.3-1.13.76-1.23a1.44,1.44,0,0,0-.3,1,3.87,3.87,0,0,0,1.75,3A1.42,1.42,0,0,0,22.5,21.76Z"/><path class="cls-6" d="M22.81,20.8a1.41,1.41,0,0,1-.31,1h0a1.42,1.42,0,0,1-1-.21,3.87,3.87,0,0,1-1.75-3,1.44,1.44,0,0,1,.3-1h0a1.44,1.44,0,0,1,1,.22A3.88,3.88,0,0,1,22.81,20.8Z"/><path class="cls-5" d="M22.08,20.32a.44.44,0,0,1-.57,0,1.54,1.54,0,0,1-.7-1.22c0-.27.12-.45.3-.49A.57.57,0,0,0,21,19a1.56,1.56,0,0,0,.7,1.22A.61.61,0,0,0,22.08,20.32Z"/><path class="cls-7" d="M22.21,19.92a.58.58,0,0,1-.12.4h0a.61.61,0,0,1-.39-.09A1.56,1.56,0,0,1,21,19a.57.57,0,0,1,.12-.39h0a.57.57,0,0,1,.4.09A1.54,1.54,0,0,1,22.21,19.92Z"/><path class="cls-5" d="M21.83,21.31c0,.11-.18.14-.32.06a.79.79,0,0,1-.35-.61c0-.17.08-.26.21-.25a.33.33,0,0,0,0,.15.75.75,0,0,0,.35.6A.3.3,0,0,0,21.83,21.31Z"/><path class="cls-7" d="M21.86,21.16a.33.33,0,0,1,0,.15.3.3,0,0,1-.14,0,.75.75,0,0,1-.35-.6.33.33,0,0,1,0-.15.3.3,0,0,1,.14,0A.77.77,0,0,1,21.86,21.16Z"/><path class="cls-5" d="M21.16,17.87a.78.78,0,0,0,.35.61c.14.09.27.06.32-.05a.3.3,0,0,1-.14-.05.76.76,0,0,1-.31-.39l-.22-.16Z"/><path class="cls-7" d="M21.69,18.38a.3.3,0,0,0,.14.05h0a3,3,0,0,0-.45-.43A.76.76,0,0,0,21.69,18.38Z"/><path class="cls-5" d="M20.58,19.15c0,.11-.18.14-.32.05a.77.77,0,0,1-.35-.6c0-.17.09-.26.21-.25a.29.29,0,0,0,0,.14.75.75,0,0,0,.35.61A.48.48,0,0,0,20.58,19.15Z"/><path class="cls-7" d="M20.61,19a.33.33,0,0,1,0,.15.48.48,0,0,1-.14,0,.75.75,0,0,1-.35-.61.29.29,0,0,1,0-.14.27.27,0,0,1,.14,0A.79.79,0,0,1,20.61,19Z"/><path class="cls-5" d="M22.59,19.94a.33.33,0,0,1,0-.15c-.12,0-.21.08-.21.25a.81.81,0,0,0,.35.61l0,0a1.24,1.24,0,0,0,0-.27A.76.76,0,0,1,22.59,19.94Z"/><path class="cls-7" d="M22.59,19.94a.76.76,0,0,0,.18.46,3.39,3.39,0,0,0-.15-.61h0A.33.33,0,0,0,22.59,19.94Z"/><path class="cls-5" d="M20.38,18.13c.14.24.36.37.5.29a.27.27,0,0,0,.07-.08.57.57,0,0,1-.39-.31.57.57,0,0,1-.08-.49h0a.11.11,0,0,0-.08,0C20.24,17.64,20.24,17.9,20.38,18.13Z"/><path class="cls-7" d="M20.56,18a.57.57,0,0,0,.39.31.6.6,0,0,0-.07-.49.64.64,0,0,0-.29-.28l-.11,0A.57.57,0,0,0,20.56,18Z"/><path class="cls-5" d="M22.71,21.4a.18.18,0,0,1-.07.08c-.14.08-.36-.05-.49-.29s-.14-.49,0-.57a.12.12,0,0,1,.1,0,.57.57,0,0,0,.07.49A.59.59,0,0,0,22.71,21.4Z"/><path class="cls-7" d="M22.71,21.4a.59.59,0,0,1-.39-.31.57.57,0,0,1-.07-.49.52.52,0,0,1,.39.31A.53.53,0,0,1,22.71,21.4Z"/><path class="cls-5" d="M22.49,19.45a4.93,4.93,0,0,0-.43-.74.58.58,0,0,0,.09.44A.6.6,0,0,0,22.49,19.45Z"/><path class="cls-5" d="M21,20.38a.27.27,0,0,1-.07.08c-.14.08-.36-.05-.5-.29s-.14-.49,0-.57a.12.12,0,0,1,.1,0,.58.58,0,0,0,.08.49A.57.57,0,0,0,21,20.38Z"/><path class="cls-7" d="M21,20.38a.57.57,0,0,1-.39-.31.58.58,0,0,1-.08-.49.55.55,0,0,1,.4.31A.6.6,0,0,1,21,20.38Z"/><path class="cls-8" d="M22.24,19.94a1.59,1.59,0,0,0-.72-1.25.48.48,0,0,0-.51-.05l-.16.09,1,1.76L22,20.4A.53.53,0,0,0,22.24,19.94Z"/><path class="cls-9" d="M22.09,20c0,.46-.32.65-.72.42a1.59,1.59,0,0,1-.72-1.25c0-.46.32-.65.72-.42A1.59,1.59,0,0,1,22.09,20Z"/><path class="cls-8" d="M21.85,19.94a1.17,1.17,0,0,0-.52-.92A.38.38,0,0,0,21,19l-.11.07.75,1.28.12-.07A.37.37,0,0,0,21.85,19.94Z"/><path class="cls-10" d="M21.74,20c0,.34-.23.47-.52.3a1.15,1.15,0,0,1-.53-.91c0-.33.24-.47.53-.3A1.17,1.17,0,0,1,21.74,20Z"/><path class="cls-3" d="M30.22,21.48a4.29,4.29,0,0,0-1.94-3.36A1.37,1.37,0,0,0,26.91,18l-1.38.8,2.78,4.73,1.37-.8A1.38,1.38,0,0,0,30.22,21.48Z"/><path class="cls-4" d="M28.86,22.26c0,1.24-.87,1.74-1.94,1.12A4.29,4.29,0,0,1,25,20c0-1.23.87-1.73,1.94-1.11A4.27,4.27,0,0,1,28.86,22.26Z"/><path class="cls-2" d="M28.68,22.16c0,1.12-.79,1.57-1.76,1a3.87,3.87,0,0,1-1.75-3c0-1.12.78-1.57,1.75-1A3.88,3.88,0,0,1,28.68,22.16Z"/><path class="cls-3" d="M28.46,22.49a4.27,4.27,0,0,0-1.94-3.35A1.37,1.37,0,0,0,25.15,19l-1.38.8,2.78,4.73,1.37-.8A1.4,1.4,0,0,0,28.46,22.49Z"/><path class="cls-4" d="M27.1,23.28c0,1.24-.87,1.74-1.94,1.12A4.29,4.29,0,0,1,23.22,21c0-1.24.87-1.74,1.94-1.12A4.29,4.29,0,0,1,27.1,23.28Z"/><path class="cls-5" d="M26.61,24.14c-.31.35-.84.39-1.45.05a3.87,3.87,0,0,1-1.75-3c0-.7.3-1.14.76-1.23a1.41,1.41,0,0,0-.3,1,3.87,3.87,0,0,0,1.75,3A1.44,1.44,0,0,0,26.61,24.14Z"/><path class="cls-6" d="M26.92,23.17a1.46,1.46,0,0,1-.31,1h0a1.44,1.44,0,0,1-1-.22,3.87,3.87,0,0,1-1.75-3,1.41,1.41,0,0,1,.3-1h0a1.44,1.44,0,0,1,1,.22A3.88,3.88,0,0,1,26.92,23.17Z"/><path class="cls-5" d="M26.19,22.69a.44.44,0,0,1-.57,0,1.54,1.54,0,0,1-.7-1.21c0-.28.12-.46.3-.5a.57.57,0,0,0-.12.39,1.54,1.54,0,0,0,.7,1.22A.55.55,0,0,0,26.19,22.69Z"/><path class="cls-7" d="M26.32,22.3a.57.57,0,0,1-.13.39h0a.55.55,0,0,1-.39-.09,1.54,1.54,0,0,1-.7-1.22.57.57,0,0,1,.12-.39h0a.63.63,0,0,1,.4.09A1.54,1.54,0,0,1,26.32,22.3Z"/><path class="cls-5" d="M25.94,23.68c-.05.11-.18.14-.32.06a.78.78,0,0,1-.35-.61c0-.16.08-.26.21-.25a.33.33,0,0,0,0,.15.77.77,0,0,0,.35.61A.27.27,0,0,0,25.94,23.68Z"/><path class="cls-7" d="M26,23.54a.26.26,0,0,1,0,.14.27.27,0,0,1-.14,0,.77.77,0,0,1-.35-.61.33.33,0,0,1,0-.15.3.3,0,0,1,.14.05A.78.78,0,0,1,26,23.54Z"/><path class="cls-5" d="M25.27,20.25a.77.77,0,0,0,.35.6c.14.09.27.06.32-.05a.3.3,0,0,1-.14-.05.72.72,0,0,1-.31-.39l-.22-.16Z"/><path class="cls-7" d="M25.8,20.75a.3.3,0,0,0,.14.05h0a3.11,3.11,0,0,0-.45-.44A.72.72,0,0,0,25.8,20.75Z"/><path class="cls-5" d="M24.69,21.52c-.05.11-.18.14-.32.06A.81.81,0,0,1,24,21c0-.17.09-.26.21-.25a.33.33,0,0,0,0,.15.75.75,0,0,0,.35.6A.3.3,0,0,0,24.69,21.52Z"/><path class="cls-7" d="M24.72,21.37a.33.33,0,0,1,0,.15.3.3,0,0,1-.14-.05.75.75,0,0,1-.35-.6.33.33,0,0,1,0-.15.3.3,0,0,1,.14.05A.77.77,0,0,1,24.72,21.37Z"/><path class="cls-5" d="M26.7,22.31a.33.33,0,0,1,0-.15c-.13,0-.21.09-.21.25a.79.79,0,0,0,.35.61l0,0a1.24,1.24,0,0,0,0-.27A.76.76,0,0,1,26.7,22.31Z"/><path class="cls-7" d="M26.7,22.31a.76.76,0,0,0,.18.46,3.61,3.61,0,0,0-.15-.61h0A.33.33,0,0,0,26.7,22.31Z"/><path class="cls-5" d="M24.49,20.51c.13.23.36.36.5.28a.19.19,0,0,0,.07-.08.52.52,0,0,1-.39-.31.57.57,0,0,1-.08-.49h0l-.08,0C24.35,20,24.35,20.27,24.49,20.51Z"/><path class="cls-7" d="M24.67,20.4a.52.52,0,0,0,.39.31.57.57,0,0,0-.07-.49.7.7,0,0,0-.29-.28l-.11,0A.57.57,0,0,0,24.67,20.4Z"/><path class="cls-5" d="M26.82,23.77a.14.14,0,0,1-.07.08c-.14.08-.36-.05-.49-.28s-.14-.5,0-.58a.16.16,0,0,1,.1,0,.57.57,0,0,0,.07.49A.56.56,0,0,0,26.82,23.77Z"/><path class="cls-7" d="M26.82,23.77a.56.56,0,0,1-.39-.31.57.57,0,0,1-.07-.49.57.57,0,0,1,.39.31A.54.54,0,0,1,26.82,23.77Z"/><path class="cls-5" d="M26.6,21.82a4.93,4.93,0,0,0-.43-.74.54.54,0,0,0,.09.44A.57.57,0,0,0,26.6,21.82Z"/><path class="cls-5" d="M25.06,22.75a.19.19,0,0,1-.07.08c-.14.08-.37,0-.5-.28s-.14-.5,0-.58a.18.18,0,0,1,.1,0,.57.57,0,0,0,.08.49A.52.52,0,0,0,25.06,22.75Z"/><path class="cls-7" d="M25.06,22.75a.52.52,0,0,1-.39-.31.57.57,0,0,1-.08-.49.6.6,0,0,1,.4.31A.57.57,0,0,1,25.06,22.75Z"/><path class="cls-8" d="M26.35,22.31a1.59,1.59,0,0,0-.72-1.25.48.48,0,0,0-.51,0L25,21.1l1,1.76.15-.09A.53.53,0,0,0,26.35,22.31Z"/><path class="cls-9" d="M26.2,22.39c0,.46-.32.65-.72.42a1.59,1.59,0,0,1-.72-1.25c0-.46.32-.65.72-.42A1.59,1.59,0,0,1,26.2,22.39Z"/><path class="cls-8" d="M26,22.31a1.14,1.14,0,0,0-.52-.91.36.36,0,0,0-.38,0l-.11.07.75,1.28.12-.07A.36.36,0,0,0,26,22.31Z"/><path class="cls-10" d="M25.85,22.37c0,.34-.23.47-.52.31a1.15,1.15,0,0,1-.53-.92c0-.33.23-.47.53-.3A1.17,1.17,0,0,1,25.85,22.37Z"/><path class="cls-3" d="M34.33,23.85a4.29,4.29,0,0,0-1.94-3.36A1.34,1.34,0,0,0,31,20.36l-1.38.8,2.78,4.72,1.37-.8A1.37,1.37,0,0,0,34.33,23.85Z"/><path class="cls-4" d="M33,24.64c0,1.23-.87,1.73-1.94,1.12a4.3,4.3,0,0,1-1.94-3.36c0-1.24.87-1.74,1.94-1.12A4.29,4.29,0,0,1,33,24.64Z"/><path class="cls-2" d="M32.78,24.53c0,1.12-.78,1.57-1.75,1a3.88,3.88,0,0,1-1.76-3c0-1.12.79-1.57,1.76-1A3.87,3.87,0,0,1,32.78,24.53Z"/><path class="cls-3" d="M32.57,24.87a4.29,4.29,0,0,0-1.94-3.36,1.37,1.37,0,0,0-1.37-.14l-1.38.8,2.78,4.73L32,26.1A1.38,1.38,0,0,0,32.57,24.87Z"/><path class="cls-4" d="M31.21,25.65c0,1.24-.87,1.74-1.94,1.12a4.29,4.29,0,0,1-1.94-3.36c0-1.23.87-1.73,1.94-1.12A4.3,4.3,0,0,1,31.21,25.65Z"/><path class="cls-5" d="M30.72,26.51a1.11,1.11,0,0,1-1.45,0,3.87,3.87,0,0,1-1.75-3c0-.69.3-1.13.76-1.23a1.41,1.41,0,0,0-.3,1,3.87,3.87,0,0,0,1.75,3A1.44,1.44,0,0,0,30.72,26.51Z"/><path class="cls-6" d="M31,25.55a1.41,1.41,0,0,1-.31,1h0a1.44,1.44,0,0,1-1-.22,3.87,3.87,0,0,1-1.75-3,1.41,1.41,0,0,1,.3-1h0a1.38,1.38,0,0,1,1,.22A3.88,3.88,0,0,1,31,25.55Z"/><path class="cls-5" d="M30.3,25.06c-.12.14-.33.15-.57,0a1.56,1.56,0,0,1-.7-1.22c0-.28.12-.45.3-.49a.55.55,0,0,0-.12.39,1.52,1.52,0,0,0,.7,1.21A.55.55,0,0,0,30.3,25.06Z"/><path class="cls-7" d="M30.43,24.67a.55.55,0,0,1-.13.39h0a.55.55,0,0,1-.39-.09,1.52,1.52,0,0,1-.7-1.21.55.55,0,0,1,.12-.39h0a.56.56,0,0,1,.4.08A1.56,1.56,0,0,1,30.43,24.67Z"/><path class="cls-5" d="M30.05,26.06c-.05.11-.18.14-.32.05a.78.78,0,0,1-.35-.61c0-.16.08-.25.21-.24a.26.26,0,0,0,0,.14.76.76,0,0,0,.36.61A.48.48,0,0,0,30.05,26.06Z"/><path class="cls-7" d="M30.08,25.91a.33.33,0,0,1,0,.15.48.48,0,0,1-.14,0,.76.76,0,0,1-.36-.61.26.26,0,0,1,0-.14.27.27,0,0,1,.14,0A.79.79,0,0,1,30.08,25.91Z"/><path class="cls-5" d="M29.38,22.62a.79.79,0,0,0,.35.61c.14.08.27.05.32-.06a.27.27,0,0,1-.14,0,.78.78,0,0,1-.31-.4,1.7,1.7,0,0,0-.22-.15Z"/><path class="cls-7" d="M29.91,23.13a.27.27,0,0,0,.14,0h0a3.73,3.73,0,0,0-.45-.44A.78.78,0,0,0,29.91,23.13Z"/><path class="cls-5" d="M28.8,23.89c-.05.11-.18.14-.32.06a.79.79,0,0,1-.35-.61c0-.16.08-.26.21-.25a.33.33,0,0,0,0,.15.78.78,0,0,0,.35.61A.27.27,0,0,0,28.8,23.89Z"/><path class="cls-7" d="M28.83,23.75a.32.32,0,0,1,0,.14.27.27,0,0,1-.14,0,.78.78,0,0,1-.35-.61.33.33,0,0,1,0-.15.3.3,0,0,1,.14.05A.78.78,0,0,1,28.83,23.75Z"/><path class="cls-5" d="M30.8,24.68a.33.33,0,0,1,0-.15c-.13,0-.21.09-.21.25a.78.78,0,0,0,.35.61l0,0a1.15,1.15,0,0,0,0-.26A.8.8,0,0,1,30.8,24.68Z"/><path class="cls-7" d="M30.8,24.68a.8.8,0,0,0,.19.47,3.5,3.5,0,0,0-.15-.62h0A.33.33,0,0,0,30.8,24.68Z"/><path class="cls-5" d="M28.6,22.88c.14.24.36.36.5.28a.16.16,0,0,0,.07-.07.6.6,0,0,1-.4-.31.61.61,0,0,1-.07-.49h0l-.08,0C28.46,22.38,28.46,22.64,28.6,22.88Z"/><path class="cls-7" d="M28.77,22.78a.6.6,0,0,0,.4.31.59.59,0,0,0-.07-.5.77.77,0,0,0-.29-.28l-.11,0A.61.61,0,0,0,28.77,22.78Z"/><path class="cls-5" d="M30.93,26.14a.11.11,0,0,1-.07.08c-.14.08-.36,0-.49-.28s-.14-.5,0-.58l.1,0a.59.59,0,0,0,.07.5A.54.54,0,0,0,30.93,26.14Z"/><path class="cls-7" d="M30.93,26.14a.54.54,0,0,1-.39-.3.59.59,0,0,1-.07-.5.57.57,0,0,1,.39.31A.54.54,0,0,1,30.93,26.14Z"/><path class="cls-5" d="M30.71,24.2a5,5,0,0,0-.43-.75.56.56,0,0,0,.09.45A.6.6,0,0,0,30.71,24.2Z"/><path class="cls-5" d="M29.17,25.12a.22.22,0,0,1-.07.09c-.14.07-.36-.06-.5-.29s-.14-.5,0-.57a.19.19,0,0,1,.1,0,.63.63,0,0,0,.07.5A.55.55,0,0,0,29.17,25.12Z"/><path class="cls-7" d="M29.17,25.12a.55.55,0,0,1-.4-.3.63.63,0,0,1-.07-.5.6.6,0,0,1,.4.31A.57.57,0,0,1,29.17,25.12Z"/><path class="cls-8" d="M30.46,24.68a1.59,1.59,0,0,0-.72-1.25.53.53,0,0,0-.51-.05l-.16.09,1,1.76.15-.09A.52.52,0,0,0,30.46,24.68Z"/><path class="cls-9" d="M30.31,24.77c0,.46-.32.64-.72.41a1.59,1.59,0,0,1-.72-1.25c0-.46.32-.64.72-.41A1.59,1.59,0,0,1,30.31,24.77Z"/><path class="cls-8" d="M30.07,24.68a1.17,1.17,0,0,0-.52-.91.41.41,0,0,0-.38,0l-.11.07.75,1.28.12-.06A.39.39,0,0,0,30.07,24.68Z"/><path class="cls-10" d="M30,24.75c0,.33-.23.47-.52.3a1.15,1.15,0,0,1-.53-.91c0-.34.23-.47.53-.31A1.17,1.17,0,0,1,30,24.75Z"/><path class="cls-3" d="M38.44,26.22a4.3,4.3,0,0,0-1.94-3.36,1.39,1.39,0,0,0-1.37-.13l-1.38.8,2.77,4.73,1.38-.8A1.4,1.4,0,0,0,38.44,26.22Z"/><path class="cls-4" d="M37.08,27c0,1.23-.87,1.74-1.94,1.12a4.29,4.29,0,0,1-1.94-3.36c0-1.24.87-1.74,1.94-1.12A4.29,4.29,0,0,1,37.08,27Z"/><path class="cls-2" d="M36.9,26.9c0,1.12-.79,1.58-1.76,1a3.88,3.88,0,0,1-1.76-3c0-1.12.79-1.58,1.76-1A3.88,3.88,0,0,1,36.9,26.9Z"/><path class="cls-3" d="M36.68,27.24a4.29,4.29,0,0,0-1.94-3.36,1.34,1.34,0,0,0-1.37-.13L32,24.54l2.78,4.73,1.37-.8A1.38,1.38,0,0,0,36.68,27.24Z"/><path class="cls-4" d="M35.32,28c0,1.24-.87,1.74-1.94,1.12a4.27,4.27,0,0,1-1.94-3.35c0-1.24.87-1.74,1.94-1.12A4.27,4.27,0,0,1,35.32,28Z"/><path class="cls-5" d="M34.83,28.88a1.1,1.1,0,0,1-1.45.05,3.88,3.88,0,0,1-1.76-3c0-.69.31-1.13.77-1.23a1.42,1.42,0,0,0-.31,1,3.88,3.88,0,0,0,1.76,3A1.38,1.38,0,0,0,34.83,28.88Z"/><path class="cls-6" d="M35.14,27.92a1.41,1.41,0,0,1-.31,1h0a1.38,1.38,0,0,1-1-.22,3.88,3.88,0,0,1-1.76-3,1.42,1.42,0,0,1,.31-1h0a1.44,1.44,0,0,1,1,.22A3.88,3.88,0,0,1,35.14,27.92Z"/><path class="cls-5" d="M34.41,27.43c-.12.14-.33.15-.57,0a1.56,1.56,0,0,1-.7-1.22c0-.27.12-.45.3-.49a.55.55,0,0,0-.12.39,1.56,1.56,0,0,0,.7,1.22A.53.53,0,0,0,34.41,27.43Z"/><path class="cls-7" d="M34.54,27a.54.54,0,0,1-.13.39h0a.53.53,0,0,1-.39-.08,1.56,1.56,0,0,1-.7-1.22.55.55,0,0,1,.12-.39h0a.52.52,0,0,1,.4.09A1.54,1.54,0,0,1,34.54,27Z"/><path class="cls-5" d="M34.16,28.43c0,.11-.18.14-.32.06a.78.78,0,0,1-.35-.61c0-.17.08-.26.21-.25a.33.33,0,0,0,0,.15.76.76,0,0,0,.36.6A.3.3,0,0,0,34.16,28.43Z"/><path class="cls-7" d="M34.19,28.28a.33.33,0,0,1,0,.15.3.3,0,0,1-.14-.05.76.76,0,0,1-.36-.6.33.33,0,0,1,0-.15.27.27,0,0,1,.14,0A.81.81,0,0,1,34.19,28.28Z"/><path class="cls-5" d="M33.49,25a.75.75,0,0,0,.35.61c.14.08.27,0,.32-.06a.27.27,0,0,1-.14,0,.74.74,0,0,1-.31-.4L33.49,25Z"/><path class="cls-7" d="M34,25.5a.27.27,0,0,0,.14,0h0a3.73,3.73,0,0,0-.45-.44A.74.74,0,0,0,34,25.5Z"/><path class="cls-5" d="M32.91,26.27c0,.11-.18.13-.32.05a.75.75,0,0,1-.35-.61c0-.16.08-.25.21-.25a.33.33,0,0,0,0,.15.75.75,0,0,0,.35.61A.48.48,0,0,0,32.91,26.27Z"/><path class="cls-7" d="M32.94,26.12a.33.33,0,0,1,0,.15.48.48,0,0,1-.14-.05.75.75,0,0,1-.35-.61.33.33,0,0,1,0-.15.48.48,0,0,1,.14.05A.79.79,0,0,1,32.94,26.12Z"/><path class="cls-5" d="M34.91,27.05a.58.58,0,0,1,0-.14c-.12,0-.2.08-.2.25a.77.77,0,0,0,.35.6.05.05,0,0,0,0,0,2.6,2.6,0,0,0,0-.26A.78.78,0,0,1,34.91,27.05Z"/><path class="cls-7" d="M34.91,27.05a.78.78,0,0,0,.19.47,3.39,3.39,0,0,0-.15-.61h0A.58.58,0,0,0,34.91,27.05Z"/><path class="cls-5" d="M32.71,25.25c.14.24.36.37.49.29a.2.2,0,0,0,.08-.08.57.57,0,0,1-.39-.31.57.57,0,0,1-.08-.49h0a.11.11,0,0,0-.08,0C32.57,24.76,32.57,25,32.71,25.25Z"/><path class="cls-7" d="M32.89,25.15a.57.57,0,0,0,.39.31.6.6,0,0,0-.08-.5.68.68,0,0,0-.28-.28l-.11,0A.57.57,0,0,0,32.89,25.15Z"/><path class="cls-5" d="M35,28.52a.18.18,0,0,1-.07.08c-.14.08-.36-.05-.49-.29s-.14-.49,0-.57a.17.17,0,0,1,.1,0,.55.55,0,0,0,.07.5A.59.59,0,0,0,35,28.52Z"/><path class="cls-7" d="M35,28.52a.59.59,0,0,1-.39-.31.55.55,0,0,1-.07-.5A.57.57,0,0,1,35,28,.56.56,0,0,1,35,28.52Z"/><path class="cls-5" d="M34.82,26.57a4.93,4.93,0,0,0-.43-.74.54.54,0,0,0,.09.44A.6.6,0,0,0,34.82,26.57Z"/><path class="cls-5" d="M33.28,27.5a.2.2,0,0,1-.08.08c-.13.08-.35,0-.49-.29s-.14-.49,0-.57a.12.12,0,0,1,.1,0,.54.54,0,0,0,.08.49A.57.57,0,0,0,33.28,27.5Z"/><path class="cls-7" d="M33.28,27.5a.57.57,0,0,1-.39-.31.54.54,0,0,1-.08-.49.52.52,0,0,1,.39.3A.6.6,0,0,1,33.28,27.5Z"/><path class="cls-8" d="M34.57,27.06a1.59,1.59,0,0,0-.72-1.25.48.48,0,0,0-.51,0l-.16.08,1,1.76.15-.09A.5.5,0,0,0,34.57,27.06Z"/><path class="cls-9" d="M34.42,27.14c0,.46-.32.65-.72.42A1.59,1.59,0,0,1,33,26.31c0-.46.32-.65.72-.42A1.59,1.59,0,0,1,34.42,27.14Z"/><path class="cls-8" d="M34.18,27.05a1.17,1.17,0,0,0-.52-.91.38.38,0,0,0-.38,0l-.11.06.75,1.29.12-.07A.38.38,0,0,0,34.18,27.05Z"/><path class="cls-10" d="M34.07,27.12c0,.33-.23.47-.53.3a1.15,1.15,0,0,1-.52-.91c0-.34.23-.47.52-.3A1.12,1.12,0,0,1,34.07,27.12Z"/><path class="cls-3" d="M42.55,28.6a4.29,4.29,0,0,0-1.94-3.36,1.37,1.37,0,0,0-1.37-.14l-1.38.8,2.77,4.73,1.38-.8A1.38,1.38,0,0,0,42.55,28.6Z"/><path class="cls-4" d="M41.19,29.38c0,1.24-.87,1.74-1.94,1.12a4.29,4.29,0,0,1-1.94-3.36c0-1.23.87-1.74,1.94-1.12A4.3,4.3,0,0,1,41.19,29.38Z"/><path class="cls-2" d="M41,29.28c0,1.11-.78,1.57-1.75,1a3.88,3.88,0,0,1-1.76-3c0-1.12.79-1.57,1.76-1A3.87,3.87,0,0,1,41,29.28Z"/><path class="cls-3" d="M40.79,29.61a4.3,4.3,0,0,0-1.94-3.36,1.36,1.36,0,0,0-1.37-.13l-1.38.8,2.77,4.72,1.38-.79A1.4,1.4,0,0,0,40.79,29.61Z"/><path class="cls-4" d="M39.43,30.4c0,1.23-.87,1.73-1.94,1.12a4.3,4.3,0,0,1-1.94-3.36c0-1.24.87-1.74,1.94-1.12A4.29,4.29,0,0,1,39.43,30.4Z"/><path class="cls-5" d="M38.94,31.26a1.11,1.11,0,0,1-1.45,0,3.87,3.87,0,0,1-1.76-3c0-.69.31-1.13.77-1.23a1.46,1.46,0,0,0-.31,1A3.88,3.88,0,0,0,38,31,1.44,1.44,0,0,0,38.94,31.26Z"/><path class="cls-6" d="M39.25,30.29a1.41,1.41,0,0,1-.31,1h0A1.44,1.44,0,0,1,38,31a3.88,3.88,0,0,1-1.76-3,1.46,1.46,0,0,1,.31-1h0a1.44,1.44,0,0,1,1,.22A3.88,3.88,0,0,1,39.25,30.29Z"/><path class="cls-5" d="M38.52,29.81a.44.44,0,0,1-.57,0,1.54,1.54,0,0,1-.7-1.22c0-.27.12-.45.3-.49a.57.57,0,0,0-.13.39,1.57,1.57,0,0,0,.71,1.22A.6.6,0,0,0,38.52,29.81Z"/><path class="cls-7" d="M38.65,29.42a.57.57,0,0,1-.13.39h0a.6.6,0,0,1-.39-.09,1.57,1.57,0,0,1-.71-1.22.57.57,0,0,1,.13-.39h0a.58.58,0,0,1,.4.09A1.54,1.54,0,0,1,38.65,29.42Z"/><path class="cls-5" d="M38.27,30.8c-.05.11-.18.14-.32.06a.79.79,0,0,1-.35-.61c0-.16.08-.26.2-.25a.34.34,0,0,0,0,.15.78.78,0,0,0,.35.61A.27.27,0,0,0,38.27,30.8Z"/><path class="cls-7" d="M38.3,30.65a.33.33,0,0,1,0,.15.27.27,0,0,1-.14,0,.78.78,0,0,1-.35-.61.34.34,0,0,1,0-.15.3.3,0,0,1,.15.05A.77.77,0,0,1,38.3,30.65Z"/><path class="cls-5" d="M37.6,27.36A.78.78,0,0,0,38,28c.14.09.27.06.32,0a.3.3,0,0,1-.14-.05.76.76,0,0,1-.31-.39l-.22-.16Z"/><path class="cls-7" d="M38.13,27.87a.3.3,0,0,0,.14.05h0a2.66,2.66,0,0,0-.45-.44A.76.76,0,0,0,38.13,27.87Z"/><path class="cls-5" d="M37,28.64c-.05.11-.18.14-.32.05a.77.77,0,0,1-.35-.6c0-.17.08-.26.21-.25a.32.32,0,0,0,0,.14.75.75,0,0,0,.35.61A.3.3,0,0,0,37,28.64Z"/><path class="cls-7" d="M37.05,28.49a.33.33,0,0,1,0,.15.3.3,0,0,1-.14-.05.75.75,0,0,1-.35-.61.32.32,0,0,1,0-.14.27.27,0,0,1,.14,0A.81.81,0,0,1,37.05,28.49Z"/><path class="cls-5" d="M39,29.43a.34.34,0,0,1,0-.15c-.12,0-.2.08-.2.25a.81.81,0,0,0,.35.61l0,0a2.48,2.48,0,0,0,0-.27A.76.76,0,0,1,39,29.43Z"/><path class="cls-7" d="M39,29.43a.76.76,0,0,0,.18.46,3.39,3.39,0,0,0-.15-.61h0A.34.34,0,0,0,39,29.43Z"/><path class="cls-5" d="M36.82,27.62c.13.24.36.37.49.29a.2.2,0,0,0,.08-.08.54.54,0,0,1-.39-.31.57.57,0,0,1-.08-.49h0a.11.11,0,0,0-.08,0C36.68,27.13,36.68,27.39,36.82,27.62Z"/><path class="cls-7" d="M37,27.52a.54.54,0,0,0,.39.31.57.57,0,0,0-.08-.49.58.58,0,0,0-.28-.28l-.11,0A.57.57,0,0,0,37,27.52Z"/><path class="cls-5" d="M39.15,30.89a.18.18,0,0,1-.07.08c-.14.08-.36,0-.5-.29s-.13-.49,0-.57a.15.15,0,0,1,.11,0,.57.57,0,0,0,.07.49A.59.59,0,0,0,39.15,30.89Z"/><path class="cls-7" d="M39.15,30.89a.59.59,0,0,1-.39-.31.57.57,0,0,1-.07-.49.56.56,0,0,1,.39.31A.53.53,0,0,1,39.15,30.89Z"/><path class="cls-5" d="M38.92,28.94a4.15,4.15,0,0,0-.42-.74.57.57,0,0,0,.08.44A.67.67,0,0,0,38.92,28.94Z"/><path class="cls-5" d="M37.39,29.87a.16.16,0,0,1-.08.08c-.13.08-.36-.05-.49-.29s-.14-.49,0-.57a.12.12,0,0,1,.1,0,.69.69,0,0,0,.47.8Z"/><path class="cls-7" d="M37.39,29.87a.69.69,0,0,1-.47-.8.54.54,0,0,1,.39.31A.57.57,0,0,1,37.39,29.87Z"/><path class="cls-8" d="M38.68,29.43A1.59,1.59,0,0,0,38,28.18a.48.48,0,0,0-.51-.05l-.16.09,1,1.76.15-.09A.53.53,0,0,0,38.68,29.43Z"/><path class="cls-9" d="M38.53,29.51c0,.46-.32.65-.72.42a1.59,1.59,0,0,1-.72-1.25c0-.46.32-.65.72-.42A1.59,1.59,0,0,1,38.53,29.51Z"/><path class="cls-8" d="M38.29,29.43a1.17,1.17,0,0,0-.52-.92.38.38,0,0,0-.38,0l-.11.07L38,29.83l.12-.07A.37.37,0,0,0,38.29,29.43Z"/><path class="cls-10" d="M38.18,29.49c0,.34-.24.47-.53.31a1.17,1.17,0,0,1-.52-.92c0-.33.23-.47.52-.3A1.18,1.18,0,0,1,38.18,29.49Z"/><path class="cls-3" d="M46.66,31a4.29,4.29,0,0,0-1.94-3.36,1.34,1.34,0,0,0-1.37-.13L42,28.27,44.74,33l1.38-.8A1.38,1.38,0,0,0,46.66,31Z"/><path class="cls-4" d="M45.3,31.75c0,1.24-.87,1.74-1.94,1.12a4.29,4.29,0,0,1-1.94-3.35c0-1.24.87-1.74,1.94-1.12A4.27,4.27,0,0,1,45.3,31.75Z"/><path class="cls-2" d="M45.11,31.65c0,1.12-.78,1.57-1.75,1a3.88,3.88,0,0,1-1.76-3c0-1.12.79-1.57,1.76-1A3.87,3.87,0,0,1,45.11,31.65Z"/><path class="cls-3" d="M44.9,32A4.27,4.27,0,0,0,43,28.63a1.37,1.37,0,0,0-1.37-.14l-1.38.8L43,34l1.38-.8A1.4,1.4,0,0,0,44.9,32Z"/><path class="cls-4" d="M43.54,32.77c0,1.24-.87,1.74-1.94,1.12a4.29,4.29,0,0,1-1.94-3.36c0-1.24.87-1.74,1.94-1.12A4.29,4.29,0,0,1,43.54,32.77Z"/><path class="cls-5" d="M43.05,33.63a1.12,1.12,0,0,1-1.45,0,3.88,3.88,0,0,1-1.76-3c0-.7.31-1.13.77-1.23a1.37,1.37,0,0,0-.31,1,3.88,3.88,0,0,0,1.76,3A1.44,1.44,0,0,0,43.05,33.63Z"/><path class="cls-6" d="M43.35,32.66a1.44,1.44,0,0,1-.3,1h0a1.44,1.44,0,0,1-1-.22,3.88,3.88,0,0,1-1.76-3,1.37,1.37,0,0,1,.31-1h0a1.37,1.37,0,0,1,1,.21A3.87,3.87,0,0,1,43.35,32.66Z"/><path class="cls-5" d="M42.63,32.18a.44.44,0,0,1-.57,0,1.54,1.54,0,0,1-.7-1.21.46.46,0,0,1,.3-.5.58.58,0,0,0-.13.4,1.55,1.55,0,0,0,.71,1.21A.55.55,0,0,0,42.63,32.18Z"/><path class="cls-7" d="M42.76,31.79a.57.57,0,0,1-.13.39h0a.55.55,0,0,1-.39-.09,1.55,1.55,0,0,1-.71-1.21.58.58,0,0,1,.13-.4h0a.64.64,0,0,1,.4.09A1.56,1.56,0,0,1,42.76,31.79Z"/><path class="cls-5" d="M42.38,33.17a.21.21,0,0,1-.32.06.78.78,0,0,1-.35-.61c0-.16.08-.25.2-.25a.33.33,0,0,0,0,.15.78.78,0,0,0,.36.61A.27.27,0,0,0,42.38,33.17Z"/><path class="cls-7" d="M42.41,33a.26.26,0,0,1,0,.14.27.27,0,0,1-.14,0,.78.78,0,0,1-.36-.61.33.33,0,0,1,0-.15.3.3,0,0,1,.15.05A.78.78,0,0,1,42.41,33Z"/><path class="cls-5" d="M41.71,29.74a.81.81,0,0,0,.35.61.21.21,0,0,0,.32-.06.3.3,0,0,1-.14-.05.72.72,0,0,1-.31-.39l-.22-.16Z"/><path class="cls-7" d="M42.24,30.24a.3.3,0,0,0,.14.05h0a3.11,3.11,0,0,0-.45-.44A.72.72,0,0,0,42.24,30.24Z"/><path class="cls-5" d="M41.13,31c-.05.11-.18.14-.32.06a.79.79,0,0,1-.35-.61c0-.17.08-.26.21-.25a.33.33,0,0,0,0,.15A.75.75,0,0,0,41,31,.3.3,0,0,0,41.13,31Z"/><path class="cls-7" d="M41.16,30.86a.33.33,0,0,1,0,.15A.3.3,0,0,1,41,31a.75.75,0,0,1-.35-.6.33.33,0,0,1,0-.15.3.3,0,0,1,.14.05A.77.77,0,0,1,41.16,30.86Z"/><path class="cls-5" d="M43.13,31.8a.33.33,0,0,1,0-.15c-.12,0-.2.09-.2.25a.75.75,0,0,0,.35.61l0,0a2.48,2.48,0,0,0,0-.27A.77.77,0,0,1,43.13,31.8Z"/><path class="cls-7" d="M43.13,31.8a.77.77,0,0,0,.19.46,3.61,3.61,0,0,0-.15-.61h0A.33.33,0,0,0,43.13,31.8Z"/><path class="cls-5" d="M40.93,30c.13.23.36.36.49.28a.2.2,0,0,0,.08-.08.66.66,0,0,1-.47-.79h0l-.08,0C40.79,29.5,40.79,29.76,40.93,30Z"/><path class="cls-7" d="M41.1,29.89a.55.55,0,0,0,.4.31.58.58,0,0,0-.08-.49.63.63,0,0,0-.28-.28l-.11,0A.55.55,0,0,0,41.1,29.89Z"/><path class="cls-5" d="M43.26,33.26a.14.14,0,0,1-.07.08c-.14.08-.36-.05-.5-.28s-.13-.5,0-.58l.11,0a.57.57,0,0,0,.07.49A.53.53,0,0,0,43.26,33.26Z"/><path class="cls-7" d="M43.26,33.26a.53.53,0,0,1-.39-.31.57.57,0,0,1-.07-.49.59.59,0,0,1,.39.31A.54.54,0,0,1,43.26,33.26Z"/><path class="cls-5" d="M43,31.32a4.33,4.33,0,0,0-.44-.75.65.65,0,0,0,.09.45A.69.69,0,0,0,43,31.32Z"/><path class="cls-5" d="M41.5,32.24a.2.2,0,0,1-.08.08c-.13.08-.36,0-.49-.28s-.14-.5,0-.58a.16.16,0,0,1,.1,0,.57.57,0,0,0,.07.49A.55.55,0,0,0,41.5,32.24Z"/><path class="cls-7" d="M41.5,32.24a.55.55,0,0,1-.4-.31.57.57,0,0,1-.07-.49.57.57,0,0,1,.39.31A.58.58,0,0,1,41.5,32.24Z"/><path class="cls-8" d="M42.79,31.8a1.59,1.59,0,0,0-.72-1.25.51.51,0,0,0-.51-.05l-.16.09,1,1.76.15-.09A.53.53,0,0,0,42.79,31.8Z"/><path class="cls-9" d="M42.64,31.88c0,.47-.32.65-.72.42a1.59,1.59,0,0,1-.72-1.25c0-.46.32-.64.72-.41A1.57,1.57,0,0,1,42.64,31.88Z"/><path class="cls-8" d="M42.4,31.8a1.14,1.14,0,0,0-.53-.91.36.36,0,0,0-.37,0l-.11.07.75,1.28.12-.07A.36.36,0,0,0,42.4,31.8Z"/><path class="cls-10" d="M42.29,31.86c0,.34-.24.48-.53.31a1.17,1.17,0,0,1-.52-.91c0-.34.23-.48.52-.31A1.18,1.18,0,0,1,42.29,31.86Z"/><path class="cls-3" d="M47.91,31.17a2.69,2.69,0,0,0-1.21-2.1.85.85,0,0,0-.86-.08l-.86.5,1.73,2.95.86-.5A.85.85,0,0,0,47.91,31.17Z"/><path class="cls-4" d="M47.06,31.66c0,.77-.54,1.09-1.21.7a2.67,2.67,0,0,1-1.21-2.1c0-.77.54-1.08,1.21-.7A2.69,2.69,0,0,1,47.06,31.66Z"/><path class="cls-5" d="M46.75,32.2c-.19.22-.52.25-.9,0a2.42,2.42,0,0,1-1.1-1.9c0-.43.19-.71.48-.77a.9.9,0,0,0-.19.6,2.42,2.42,0,0,0,1.1,1.9A.92.92,0,0,0,46.75,32.2Z"/><path class="cls-2" d="M46.94,31.6a.9.9,0,0,1-.19.6h0a.92.92,0,0,1-.61-.14,2.42,2.42,0,0,1-1.1-1.9.9.9,0,0,1,.19-.6h0a.84.84,0,0,1,.62.14A2.43,2.43,0,0,1,46.94,31.6Z"/><path class="cls-3" d="M46.8,31.81a2.69,2.69,0,0,0-1.21-2.1.85.85,0,0,0-.86-.08l-.86.5,1.74,2.95.86-.5A.85.85,0,0,0,46.8,31.81Z"/><path class="cls-4" d="M46,32.3c0,.77-.54,1.09-1.21.7a2.7,2.7,0,0,1-1.21-2.1c0-.77.55-1.08,1.21-.7A2.69,2.69,0,0,1,46,32.3Z"/><path class="cls-5" d="M45.65,32.84a.69.69,0,0,1-.91,0A2.43,2.43,0,0,1,43.65,31c0-.43.19-.71.47-.77a.9.9,0,0,0-.19.6A2.42,2.42,0,0,0,45,32.7.89.89,0,0,0,45.65,32.84Z"/><path class="cls-6" d="M45.84,32.24a.9.9,0,0,1-.19.6h0A.89.89,0,0,1,45,32.7a2.42,2.42,0,0,1-1.1-1.9.9.9,0,0,1,.19-.6h0a.84.84,0,0,1,.62.14A2.42,2.42,0,0,1,45.84,32.24Z"/><path class="cls-5" d="M45.39,31.93c-.08.09-.21.1-.36,0a1,1,0,0,1-.44-.76.29.29,0,0,1,.19-.31.37.37,0,0,0-.08.25,1,1,0,0,0,.44.76A.34.34,0,0,0,45.39,31.93Z"/><path class="cls-7" d="M45.47,31.69a.33.33,0,0,1-.08.24h0a.34.34,0,0,1-.25-.05,1,1,0,0,1-.44-.76.37.37,0,0,1,.08-.25h0a.42.42,0,0,1,.25.06A1,1,0,0,1,45.47,31.69Z"/><path class="cls-5" d="M45.23,32.55c0,.07-.11.09-.2,0a.49.49,0,0,1-.22-.38c0-.1,0-.16.13-.16a.3.3,0,0,0,0,.1.49.49,0,0,0,.22.38Z"/><path class="cls-7" d="M45.25,32.46a.2.2,0,0,1,0,.09l-.09,0a.49.49,0,0,1-.22-.38.3.3,0,0,1,0-.1l.09,0A.49.49,0,0,1,45.25,32.46Z"/><path class="cls-5" d="M44.81,30.41a.49.49,0,0,0,.22.38c.09.05.17,0,.2,0l-.09,0a.42.42,0,0,1-.19-.24l-.14-.1Z"/><path class="cls-7" d="M45.14,30.72l.09,0h0a2.37,2.37,0,0,0-.28-.27A.42.42,0,0,0,45.14,30.72Z"/><path class="cls-5" d="M44.45,31.2c0,.07-.11.09-.2,0a.49.49,0,0,1-.22-.38c0-.1,0-.16.13-.16a.29.29,0,0,0,0,.09.49.49,0,0,0,.22.38A.16.16,0,0,0,44.45,31.2Z"/><path class="cls-7" d="M44.47,31.11a.2.2,0,0,1,0,.09.16.16,0,0,1-.09,0,.49.49,0,0,1-.22-.38.29.29,0,0,1,0-.09.16.16,0,0,1,.09,0A.49.49,0,0,1,44.47,31.11Z"/><path class="cls-5" d="M45.7,31.7a.3.3,0,0,1,0-.1c-.08,0-.13.06-.13.16a.49.49,0,0,0,.22.38h0a.86.86,0,0,0,0-.16A.52.52,0,0,1,45.7,31.7Z"/><path class="cls-7" d="M45.7,31.7a.52.52,0,0,0,.12.29,1.86,1.86,0,0,0-.1-.39h0A.3.3,0,0,0,45.7,31.7Z"/><path class="cls-5" d="M44.32,30.57c.09.15.23.23.31.18a.12.12,0,0,0,0-.05.41.41,0,0,1-.29-.5h-.07C44.24,30.26,44.24,30.42,44.32,30.57Z"/><path class="cls-7" d="M44.43,30.51a.36.36,0,0,0,.25.19.37.37,0,0,0,0-.31.4.4,0,0,0-.17-.17l-.07,0A.36.36,0,0,0,44.43,30.51Z"/><path class="cls-5" d="M45.78,32.61a.1.1,0,0,1,0,0c-.09.05-.23,0-.31-.18s-.09-.31,0-.36h.06a.37.37,0,0,0,0,.31A.36.36,0,0,0,45.78,32.61Z"/><path class="cls-7" d="M45.78,32.61a.36.36,0,0,1-.24-.19.37.37,0,0,1,0-.31.41.41,0,0,1,.29.5Z"/><path class="cls-5" d="M45.64,31.39a2.13,2.13,0,0,0-.27-.46.44.44,0,0,0,.27.46Z"/><path class="cls-5" d="M44.68,32a.12.12,0,0,1,0,.05c-.08,0-.22,0-.31-.18s-.08-.3,0-.35a.08.08,0,0,1,.07,0,.36.36,0,0,0,0,.31A.34.34,0,0,0,44.68,32Z"/><path class="cls-7" d="M44.68,32a.34.34,0,0,1-.25-.19.17.17,0,1,1,.2-.12A.37.37,0,0,1,44.68,32Z"/><path class="cls-8" d="M45.49,31.7a1,1,0,0,0-.45-.78.29.29,0,0,0-.32,0l-.1.05.65,1.1.09-.06A.3.3,0,0,0,45.49,31.7Z"/><path class="cls-9" d="M45.39,31.75c0,.29-.2.4-.45.26a1,1,0,0,1-.45-.78c0-.29.2-.4.45-.26A1,1,0,0,1,45.39,31.75Z"/><path class="cls-8" d="M45.24,31.7a.7.7,0,0,0-.33-.57.22.22,0,0,0-.23,0l-.07,0,.47.8.07,0A.23.23,0,0,0,45.24,31.7Z"/><path class="cls-10" d="M45.17,31.74c0,.21-.14.29-.32.19a.71.71,0,0,1-.33-.57c0-.21.14-.3.33-.19A.72.72,0,0,1,45.17,31.74Z"/><path class="cls-2" d="M49,29.26,45.9,30.88l-.17.2.32.65.07,1.07-.22.43.05.22,3.12-1.81h0a.83.83,0,0,0,.34-.69v-.52A2.58,2.58,0,0,0,49,29.26Z"/><polygon class="cls-2" points="16.71 14.27 18 13.53 18.53 14.06 17.87 14.55 17.06 14.38 16.71 14.27"/><path class="cls-3" d="M45.89,31.07a3.91,3.91,0,0,0-1.16-1.23L17.92,14.36a1.23,1.23,0,0,0-1.16-.11.78.78,0,0,0-.38.72v.52a2.6,2.6,0,0,0,.38,1.17l3.1,4.68a3.25,3.25,0,0,0,.9.88L41.9,34.43a1.24,1.24,0,0,0,.89.15l3.1-1.11a.76.76,0,0,0,.39-.71v-.53A2.43,2.43,0,0,0,45.89,31.07ZM46,32.39a.78.78,0,0,1-.39.72l-2.89,1a1.23,1.23,0,0,1-.89-.15L20.87,21.92A3.23,3.23,0,0,1,20,21l-2.9-4.38a2.58,2.58,0,0,1-.39-1.16v-.17a.8.8,0,0,1,.39-.72h.05a.85.85,0,0,1,.77.12L44.76,30.23a2.51,2.51,0,0,1,.77.76l0,.07A2.46,2.46,0,0,1,46,32.23Z"/><polygon class="cls-11" points="44.24 26.23 33.07 22.88 21.4 15.85 16.1 9.99 19.23 8.18 47.36 24.43 46.33 26.06 44.24 26.23"/><polygon class="cls-12" points="49.82 28.72 46.69 30.52 44.47 29.34 44.24 26.23 47.36 24.43 49.82 28.72"/><polygon class="cls-6" points="46.69 31.48 39.98 28.37 22.28 18.14 15.82 12.7 16.1 9.99 44.24 26.23 46.69 30.52 46.69 31.48"/><polygon class="cls-13" points="49.82 29.68 46.69 31.48 46.69 30.52 49.82 28.72 49.82 29.68"/><polygon class="cls-14" points="32.99 32.32 24.96 29.62 13.3 22.59 5.78 16.61 16.4 10.47 43.61 26.18 42.2 29.33 32.99 32.32"/><polygon class="cls-12" points="46.26 30.63 43.35 32.69 37.82 35.83 35.63 36.77 33.41 35.58 32.99 32.32 43.61 26.18 46.26 30.63"/><polygon class="cls-13" points="46.26 31.25 35.63 37.38 35.63 36.77 46.26 30.63 46.26 31.25"/><polygon class="cls-6" points="43.42 31.21 43.01 31.29 41.32 28.33 41.73 28.25 43.42 31.21"/><polygon class="cls-14" points="43.88 27.01 43.33 27.9 41.73 28.25 41.32 28.33 43.47 27.09 43.88 27.01"/><polygon class="cls-11" points="45.57 29.97 43.42 31.21 41.73 28.25 43.88 27.01 45.57 29.97"/><polygon class="cls-6" points="41.02 32.6 40.61 32.67 38.92 29.72 39.33 29.64 41.02 32.6"/><polygon class="cls-14" points="41.48 28.4 40.92 29.28 39.33 29.64 38.92 29.72 41.07 28.48 41.48 28.4"/><polygon class="cls-11" points="43.17 31.36 41.02 32.6 39.33 29.64 41.48 28.4 43.17 31.36"/><polygon class="cls-6" points="38.62 33.98 38.21 34.06 36.52 31.11 36.93 31.03 38.62 33.98"/><polygon class="cls-14" points="39.08 29.79 38.52 30.67 36.93 31.03 36.52 31.11 38.67 29.86 39.08 29.79"/><polygon class="cls-11" points="40.77 32.74 38.62 33.98 36.93 31.03 39.08 29.79 40.77 32.74"/><polygon class="cls-6" points="36.22 35.37 35.81 35.45 34.12 32.49 34.53 32.41 36.22 35.37"/><polygon class="cls-14" points="36.68 31.17 36.12 32.05 34.53 32.41 34.12 32.49 36.27 31.25 36.68 31.17"/><polygon class="cls-11" points="38.37 34.13 36.22 35.37 34.53 32.41 36.68 31.17 38.37 34.13"/><polygon class="cls-11" points="9.96 16.93 8.13 15.87 11.87 13.71 13.7 14.77 9.96 16.93"/><polygon class="cls-13" points="9.96 17.28 9.96 16.93 13.7 14.77 13.7 15.12 9.96 17.28"/><polygon class="cls-6" points="9.96 16.93 8.13 15.87 8.13 16.22 9.96 17.28 9.96 16.93"/><polygon class="cls-14" points="28.86 22.47 23.23 25.31 10.75 18.1 20.91 12.24 33.38 19.44 28.86 22.47"/><polygon class="cls-13" points="33.38 20.28 23.23 26.14 22.94 25.69 23.23 25.31 33.38 19.44 33.38 20.28"/><polygon class="cls-6" points="23.23 26.14 10.75 18.94 10.75 18.1 23.23 25.31 23.23 26.14"/><polygon class="cls-2" points="31.37 41.32 29.1 42.12 7.17 29.49 3.4 24 3.24 23.34 3.24 22.43 3.89 22.07 5.15 22.22 32.24 38.28 32.82 39.4 32.8 40.75 31.37 41.32"/><path class="cls-3" d="M7.78,23.35a2.71,2.71,0,0,0-1.21-2.1.85.85,0,0,0-.86-.08l-.86.49,1.73,3,.86-.5A.86.86,0,0,0,7.78,23.35Z"/><path class="cls-4" d="M6.93,23.84c0,.77-.55,1.08-1.21.7a2.69,2.69,0,0,1-1.21-2.1c0-.77.54-1.09,1.21-.7A2.71,2.71,0,0,1,6.93,23.84Z"/><path class="cls-5" d="M6.62,24.37a.68.68,0,0,1-.9,0,2.41,2.41,0,0,1-1.1-1.89c0-.44.19-.71.48-.77a.88.88,0,0,0-.19.6A2.43,2.43,0,0,0,6,24.24.89.89,0,0,0,6.62,24.37Z"/><path class="cls-2" d="M6.81,23.77a.88.88,0,0,1-.19.6h0A.89.89,0,0,1,6,24.24a2.43,2.43,0,0,1-1.09-1.9.88.88,0,0,1,.19-.6h0a.89.89,0,0,1,.62.13A2.43,2.43,0,0,1,6.81,23.77Z"/><path class="cls-3" d="M6.67,24a2.69,2.69,0,0,0-1.21-2.1.85.85,0,0,0-.86-.08l-.86.49,1.73,3,.86-.5A.86.86,0,0,0,6.67,24Z"/><path class="cls-4" d="M5.82,24.48c0,.77-.54,1.08-1.21.7a2.69,2.69,0,0,1-1.21-2.1c0-.77.54-1.08,1.21-.7A2.69,2.69,0,0,1,5.82,24.48Z"/><path class="cls-5" d="M5.52,25a.69.69,0,0,1-.91,0,2.43,2.43,0,0,1-1.1-1.89c0-.44.19-.71.48-.77a.88.88,0,0,0-.19.6,2.42,2.42,0,0,0,1.1,1.9A.88.88,0,0,0,5.52,25Z"/><path class="cls-6" d="M5.71,24.41a.88.88,0,0,1-.19.6h0a.88.88,0,0,1-.62-.13A2.42,2.42,0,0,1,3.8,23a.88.88,0,0,1,.19-.6H4a.88.88,0,0,1,.62.13A2.42,2.42,0,0,1,5.71,24.41Z"/><path class="cls-5" d="M5.25,24.11c-.07.08-.2.09-.35,0a1,1,0,0,1-.44-.76c0-.17.07-.28.19-.31a.36.36,0,0,0-.08.25,1,1,0,0,0,.44.75A.34.34,0,0,0,5.25,24.11Z"/><path class="cls-7" d="M5.33,23.86a.36.36,0,0,1-.07.25h0A.34.34,0,0,1,5,24.05a1,1,0,0,1-.44-.75.36.36,0,0,1,.08-.25h0a.37.37,0,0,1,.25.06A1,1,0,0,1,5.33,23.86Z"/><path class="cls-5" d="M5.1,24.73a.13.13,0,0,1-.2,0,.49.49,0,0,1-.22-.38c0-.11.05-.16.13-.16a.13.13,0,0,0,0,.09A.49.49,0,0,0,5,24.7.16.16,0,0,0,5.1,24.73Z"/><path class="cls-7" d="M5.12,24.64a.2.2,0,0,1,0,.09.16.16,0,0,1-.09,0,.49.49,0,0,1-.22-.38.13.13,0,0,1,0-.09.19.19,0,0,1,.09,0A.49.49,0,0,1,5.12,24.64Z"/><path class="cls-5" d="M4.68,22.58A.49.49,0,0,0,4.9,23c.09.06.16,0,.2,0a.16.16,0,0,1-.09,0,.41.41,0,0,1-.19-.25l-.14-.09Z"/><path class="cls-7" d="M5,22.9a.16.16,0,0,0,.09,0h0a3.7,3.7,0,0,0-.28-.28A.41.41,0,0,0,5,22.9Z"/><path class="cls-5" d="M4.32,23.38c0,.07-.11.09-.2,0A.49.49,0,0,1,3.9,23c0-.11.05-.17.13-.16A.2.2,0,0,0,4,23a.49.49,0,0,0,.22.38A.16.16,0,0,0,4.32,23.38Z"/><path class="cls-7" d="M4.34,23.29a.24.24,0,0,1,0,.09.16.16,0,0,1-.09,0A.49.49,0,0,1,4,23a.2.2,0,0,1,0-.09l.09,0A.49.49,0,0,1,4.34,23.29Z"/><path class="cls-5" d="M5.57,23.87a.24.24,0,0,1,0-.09c-.08,0-.13,0-.13.16a.5.5,0,0,0,.22.38h0c0-.06,0-.11,0-.17A.47.47,0,0,1,5.57,23.87Z"/><path class="cls-7" d="M5.57,23.87a.47.47,0,0,0,.12.29,3.06,3.06,0,0,0-.1-.38h0A.24.24,0,0,0,5.57,23.87Z"/><path class="cls-5" d="M4.19,22.75c.09.14.22.22.31.17a.1.1,0,0,0,0,0,.38.38,0,0,1-.25-.2.34.34,0,0,1,0-.3h0l0,0C4.11,22.44,4.11,22.6,4.19,22.75Z"/><path class="cls-7" d="M4.3,22.68a.38.38,0,0,0,.25.2.36.36,0,0,0,0-.31.39.39,0,0,0-.18-.18H4.26A.34.34,0,0,0,4.3,22.68Z"/><path class="cls-5" d="M5.65,24.79l-.05.05c-.08.05-.22,0-.31-.18s-.08-.31,0-.36a.08.08,0,0,1,.07,0,.32.32,0,0,0,0,.3A.35.35,0,0,0,5.65,24.79Z"/><path class="cls-7" d="M5.65,24.79a.35.35,0,0,1-.24-.2.32.32,0,0,1,0-.3.31.31,0,0,1,.24.19A.36.36,0,0,1,5.65,24.79Z"/><path class="cls-5" d="M5.51,23.57a3.47,3.47,0,0,0-.27-.46.4.4,0,0,0,0,.27A.39.39,0,0,0,5.51,23.57Z"/><path class="cls-5" d="M4.55,24.15a.12.12,0,0,1,0,.05c-.09.05-.22,0-.31-.18s-.08-.31,0-.36h.07a.36.36,0,0,0,0,.31A.39.39,0,0,0,4.55,24.15Z"/><path class="cls-7" d="M4.55,24.15A.39.39,0,0,1,4.3,24a.36.36,0,0,1,0-.31c.08,0,.17.08.24.19A.37.37,0,0,1,4.55,24.15Z"/><path class="cls-8" d="M5.35,23.87a1,1,0,0,0-.45-.78.31.31,0,0,0-.32,0l-.09.06.64,1.1.1-.06A.32.32,0,0,0,5.35,23.87Z"/><path class="cls-9" d="M5.26,23.93c0,.28-.2.4-.45.26a1,1,0,0,1-.45-.79c0-.28.2-.4.45-.25A1,1,0,0,1,5.26,23.93Z"/><path class="cls-8" d="M5.11,23.87a.74.74,0,0,0-.33-.57.24.24,0,0,0-.23,0l-.07,0,.47.8.07,0A.22.22,0,0,0,5.11,23.87Z"/><path class="cls-10" d="M5,23.91c0,.21-.15.3-.33.19a.73.73,0,0,1-.33-.57c0-.21.15-.29.33-.19A.74.74,0,0,1,5,23.91Z"/><path class="cls-9" d="M33.4,36.79a2.65,2.65,0,0,0,1.2,2.08c.67.39,1.21.08,1.21-.69a2.67,2.67,0,0,0-1.21-2.09C33.94,35.71,33.4,36,33.4,36.79Z"/><path class="cls-6" d="M33.51,36.85a2.4,2.4,0,0,0,1.09,1.89c.6.35,1.09.07,1.09-.63a2.43,2.43,0,0,0-1.09-1.89C34,35.88,33.51,36.16,33.51,36.85Z"/><path class="cls-7" d="M34.16,37.23a1,1,0,0,0,.44.76c.24.14.44,0,.44-.26A1,1,0,0,0,34.6,37C34.36,36.84,34.16,37,34.16,37.23Z"/><path class="cls-7" d="M34.38,38.25a.49.49,0,0,0,.22.38c.12.07.22,0,.22-.12a.49.49,0,0,0-.22-.38C34.48,38.06,34.38,38.11,34.38,38.25Z"/><path class="cls-7" d="M34.38,36.46a.49.49,0,0,0,.22.38c.12.07.22,0,.22-.13a.49.49,0,0,0-.22-.38C34.48,36.26,34.38,36.32,34.38,36.46Z"/><path class="cls-7" d="M35.38,38.18c.12.07.22,0,.22-.12a.49.49,0,0,0-.22-.38c-.12-.07-.22,0-.22.13A.49.49,0,0,0,35.38,38.18Z"/><path class="cls-7" d="M33.82,37.29c.13.07.22,0,.22-.13a.46.46,0,0,0-.22-.38c-.12-.07-.21,0-.21.13A.48.48,0,0,0,33.82,37.29Z"/><path class="cls-7" d="M35.3,37.43c.09,0,.09-.21,0-.35s-.22-.23-.3-.18-.09.21,0,.36S35.22,37.48,35.3,37.43Z"/><path class="cls-7" d="M34.21,38.07c.08,0,.08-.21,0-.36s-.23-.23-.31-.18-.09.21,0,.36S34.12,38.12,34.21,38.07Z"/><path class="cls-7" d="M34.21,36.44c-.09-.15-.23-.22-.31-.18s-.09.21,0,.36.22.23.31.18S34.29,36.59,34.21,36.44Z"/><path class="cls-7" d="M35.3,38.35c-.08-.15-.22-.23-.3-.18s-.09.21,0,.35.22.23.3.18S35.39,38.49,35.3,38.35Z"/><path class="cls-9" d="M9,22.67c0,.77-.54,1.08-1.21.7a2.68,2.68,0,0,1-1.2-2.09c0-.77.54-1.08,1.2-.7A2.67,2.67,0,0,1,9,22.67Z"/><path class="cls-6" d="M8.83,22.61c0,.69-.48,1-1.09.63a2.43,2.43,0,0,1-1.09-1.89c0-.7.49-1,1.09-.63A2.37,2.37,0,0,1,8.83,22.61Z"/><path class="cls-7" d="M8.18,22.23c0,.28-.2.39-.44.25a1,1,0,0,1-.43-.76c0-.27.19-.39.43-.25A1,1,0,0,1,8.18,22.23Z"/><path class="cls-7" d="M8,23c0,.14-.1.19-.22.13a.48.48,0,0,1-.21-.38c0-.14.09-.2.21-.13A.49.49,0,0,1,8,23Z"/><path class="cls-7" d="M8,21.21c0,.13-.1.19-.22.12A.52.52,0,0,1,7.52,21c0-.14.1-.19.22-.12A.49.49,0,0,1,8,21.21Z"/><path class="cls-7" d="M7,21.78a.49.49,0,0,1-.22-.38c0-.14.1-.19.22-.12a.46.46,0,0,1,.21.37C7.18,21.79,7.09,21.85,7,21.78Z"/><path class="cls-7" d="M8.52,22.68a.49.49,0,0,1-.22-.38c0-.14.1-.2.22-.13a.49.49,0,0,1,.22.38C8.74,22.69,8.64,22.75,8.52,22.68Z"/><path class="cls-7" d="M7,21.11C7,21,7,20.81,7,20.76s.22,0,.31.18.08.3,0,.35S7.12,21.26,7,21.11Z"/><path class="cls-7" d="M8.14,23c-.09-.15-.09-.31,0-.36s.22,0,.31.18.08.31,0,.35S8.22,23.16,8.14,23Z"/><path class="cls-7" d="M8.14,21.39c.08-.05.22,0,.31.18s.08.31,0,.36-.23,0-.31-.18S8.05,21.44,8.14,21.39Z"/><path class="cls-7" d="M7,22c.08-.05.22,0,.31.17s.08.31,0,.36-.23,0-.31-.18S7,22.08,7,22Z"/><path class="cls-3" d="M12.83,26.77a4.27,4.27,0,0,0-1.94-3.35,1.37,1.37,0,0,0-1.37-.14l-1.38.8,2.77,4.73,1.38-.8A1.4,1.4,0,0,0,12.83,26.77Z"/><path class="cls-4" d="M11.47,27.56c0,1.24-.87,1.74-1.94,1.12a4.29,4.29,0,0,1-1.94-3.36c0-1.24.87-1.74,1.94-1.12A4.29,4.29,0,0,1,11.47,27.56Z"/><path class="cls-2" d="M11.29,27.45c0,1.12-.79,1.58-1.76,1a3.87,3.87,0,0,1-1.75-3c0-1.12.78-1.58,1.75-1A3.88,3.88,0,0,1,11.29,27.45Z"/><path class="cls-3" d="M11.07,27.79a4.29,4.29,0,0,0-1.94-3.36,1.34,1.34,0,0,0-1.37-.13l-1.38.8,2.78,4.72,1.37-.8A1.38,1.38,0,0,0,11.07,27.79Z"/><path class="cls-4" d="M9.71,28.58c0,1.23-.87,1.73-1.94,1.12a4.3,4.3,0,0,1-1.94-3.36c0-1.24.87-1.74,1.94-1.12A4.29,4.29,0,0,1,9.71,28.58Z"/><path class="cls-5" d="M9.22,29.43a1.1,1.1,0,0,1-1.45.05,3.87,3.87,0,0,1-1.75-3c0-.69.3-1.13.76-1.23a1.44,1.44,0,0,0-.3,1,3.87,3.87,0,0,0,1.75,3A1.38,1.38,0,0,0,9.22,29.43Z"/><path class="cls-6" d="M9.53,28.47a1.41,1.41,0,0,1-.31,1h0a1.38,1.38,0,0,1-1-.22,3.87,3.87,0,0,1-1.75-3,1.44,1.44,0,0,1,.3-1h0a1.44,1.44,0,0,1,1,.22A3.88,3.88,0,0,1,9.53,28.47Z"/><path class="cls-5" d="M8.8,28a.44.44,0,0,1-.57,0,1.56,1.56,0,0,1-.7-1.22c0-.27.12-.45.3-.49a.57.57,0,0,0-.13.39,1.57,1.57,0,0,0,.71,1.22A.6.6,0,0,0,8.8,28Z"/><path class="cls-7" d="M8.93,27.59a.58.58,0,0,1-.13.4h0a.6.6,0,0,1-.39-.09,1.57,1.57,0,0,1-.71-1.22.57.57,0,0,1,.13-.39h0a.57.57,0,0,1,.4.09A1.54,1.54,0,0,1,8.93,27.59Z"/><path class="cls-5" d="M8.55,29c-.05.11-.18.14-.32.06a.81.81,0,0,1-.35-.61c0-.17.08-.26.21-.25a.33.33,0,0,0,0,.15.75.75,0,0,0,.35.6A.3.3,0,0,0,8.55,29Z"/><path class="cls-7" d="M8.58,28.83a.33.33,0,0,1,0,.15.3.3,0,0,1-.14-.05.75.75,0,0,1-.35-.6.33.33,0,0,1,0-.15.3.3,0,0,1,.14.05A.77.77,0,0,1,8.58,28.83Z"/><path class="cls-5" d="M7.88,25.54a.78.78,0,0,0,.35.61c.14.08.27.06.32,0a.48.48,0,0,1-.14-.05.76.76,0,0,1-.31-.39l-.22-.16Z"/><path class="cls-7" d="M8.41,26.05a.48.48,0,0,0,.14.05h0a3,3,0,0,0-.45-.43A.76.76,0,0,0,8.41,26.05Z"/><path class="cls-5" d="M7.3,26.82c0,.11-.18.13-.32.05a.78.78,0,0,1-.35-.61c0-.16.08-.25.21-.24a.26.26,0,0,0,0,.14.75.75,0,0,0,.35.61A.48.48,0,0,0,7.3,26.82Z"/><path class="cls-7" d="M7.33,26.67a.33.33,0,0,1,0,.15.48.48,0,0,1-.14-.05.75.75,0,0,1-.35-.61.26.26,0,0,1,0-.14.27.27,0,0,1,.14,0A.79.79,0,0,1,7.33,26.67Z"/><path class="cls-5" d="M9.31,27.6a.32.32,0,0,1,0-.14c-.13,0-.21.08-.21.25a.77.77,0,0,0,.35.6l0,0a1.22,1.22,0,0,0,0-.26A.77.77,0,0,1,9.31,27.6Z"/><path class="cls-7" d="M9.31,27.6a.77.77,0,0,0,.18.47,3.39,3.39,0,0,0-.15-.61h0A.32.32,0,0,0,9.31,27.6Z"/><path class="cls-5" d="M7.1,25.8c.14.24.36.37.5.29A.27.27,0,0,0,7.67,26a.57.57,0,0,1-.39-.31.57.57,0,0,1-.08-.49h0a.11.11,0,0,0-.08,0C7,25.31,7,25.57,7.1,25.8Z"/><path class="cls-7" d="M7.28,25.7a.57.57,0,0,0,.39.31.59.59,0,0,0-.07-.5.67.67,0,0,0-.29-.27l-.11,0A.57.57,0,0,0,7.28,25.7Z"/><path class="cls-5" d="M9.43,29.07a.18.18,0,0,1-.07.08c-.14.08-.36,0-.49-.29s-.14-.49,0-.57a.12.12,0,0,1,.1,0,.57.57,0,0,0,.07.49A.59.59,0,0,0,9.43,29.07Z"/><path class="cls-7" d="M9.43,29.07A.59.59,0,0,1,9,28.76.57.57,0,0,1,9,28.27a.52.52,0,0,1,.39.31A.53.53,0,0,1,9.43,29.07Z"/><path class="cls-5" d="M9.21,27.12a4.93,4.93,0,0,0-.43-.74.54.54,0,0,0,.09.44A.6.6,0,0,0,9.21,27.12Z"/><path class="cls-5" d="M7.67,28.05a.27.27,0,0,1-.07.08c-.14.08-.36-.05-.5-.29s-.14-.49,0-.57a.12.12,0,0,1,.1,0,.58.58,0,0,0,.08.49A.57.57,0,0,0,7.67,28.05Z"/><path class="cls-7" d="M7.67,28.05a.57.57,0,0,1-.39-.31.58.58,0,0,1-.08-.49.55.55,0,0,1,.4.3A.59.59,0,0,1,7.67,28.05Z"/><path class="cls-8" d="M9,27.61a1.59,1.59,0,0,0-.72-1.25.48.48,0,0,0-.51-.05l-.16.09,1,1.76.15-.09A.53.53,0,0,0,9,27.61Z"/><path class="cls-9" d="M8.81,27.69c0,.46-.32.65-.72.42a1.59,1.59,0,0,1-.72-1.25c0-.46.32-.65.72-.42A1.59,1.59,0,0,1,8.81,27.69Z"/><path class="cls-8" d="M8.57,27.6a1.17,1.17,0,0,0-.52-.91.38.38,0,0,0-.38,0l-.11.06L8.31,28l.12-.07A.38.38,0,0,0,8.57,27.6Z"/><path class="cls-10" d="M8.46,27.67c0,.33-.23.47-.52.3a1.12,1.12,0,0,1-.53-.91c0-.33.23-.47.53-.3A1.15,1.15,0,0,1,8.46,27.67Z"/><path class="cls-3" d="M16.94,29.15A4.29,4.29,0,0,0,15,25.79a1.37,1.37,0,0,0-1.37-.14l-1.38.8L15,31.18l1.38-.8A1.38,1.38,0,0,0,16.94,29.15Z"/><path class="cls-4" d="M15.58,29.93c0,1.24-.87,1.74-1.94,1.12a4.29,4.29,0,0,1-1.94-3.36c0-1.23.87-1.73,1.94-1.12A4.3,4.3,0,0,1,15.58,29.93Z"/><path class="cls-2" d="M15.4,29.83c0,1.12-.79,1.57-1.76,1a3.87,3.87,0,0,1-1.75-3c0-1.12.78-1.57,1.75-1A3.88,3.88,0,0,1,15.4,29.83Z"/><path class="cls-3" d="M15.18,30.16a4.3,4.3,0,0,0-1.94-3.36,1.36,1.36,0,0,0-1.37-.13l-1.38.8,2.78,4.72,1.37-.79A1.4,1.4,0,0,0,15.18,30.16Z"/><path class="cls-4" d="M13.82,31c0,1.23-.87,1.74-1.94,1.12a4.29,4.29,0,0,1-1.94-3.36c0-1.24.87-1.74,1.94-1.12A4.29,4.29,0,0,1,13.82,31Z"/><path class="cls-5" d="M13.33,31.81c-.31.35-.84.39-1.45,0a3.85,3.85,0,0,1-1.75-3c0-.7.3-1.14.76-1.24a1.46,1.46,0,0,0-.31,1,3.88,3.88,0,0,0,1.76,3A1.44,1.44,0,0,0,13.33,31.81Z"/><path class="cls-6" d="M13.64,30.84a1.46,1.46,0,0,1-.31,1h0a1.44,1.44,0,0,1-1-.22,3.88,3.88,0,0,1-1.76-3,1.46,1.46,0,0,1,.31-1h0a1.44,1.44,0,0,1,1,.22A3.88,3.88,0,0,1,13.64,30.84Z"/><path class="cls-5" d="M12.91,30.36a.44.44,0,0,1-.57,0,1.54,1.54,0,0,1-.7-1.21c0-.28.12-.46.3-.5a.57.57,0,0,0-.13.39,1.57,1.57,0,0,0,.71,1.22A.6.6,0,0,0,12.91,30.36Z"/><path class="cls-7" d="M13,30a.57.57,0,0,1-.13.39h0a.6.6,0,0,1-.39-.09,1.57,1.57,0,0,1-.71-1.22.57.57,0,0,1,.13-.39h0a.57.57,0,0,1,.4.09A1.54,1.54,0,0,1,13,30Z"/><path class="cls-5" d="M12.66,31.35c-.05.11-.18.14-.32.06A.79.79,0,0,1,12,30.8c0-.16.08-.26.21-.25a.33.33,0,0,0,0,.15.78.78,0,0,0,.35.61A.27.27,0,0,0,12.66,31.35Z"/><path class="cls-7" d="M12.69,31.21a.32.32,0,0,1,0,.14.27.27,0,0,1-.14,0,.78.78,0,0,1-.35-.61.33.33,0,0,1,0-.15.3.3,0,0,1,.14.05A.78.78,0,0,1,12.69,31.21Z"/><path class="cls-5" d="M12,27.92a.77.77,0,0,0,.35.6c.14.09.27.06.32-.05a.3.3,0,0,1-.14,0,.76.76,0,0,1-.31-.39L12,27.87Z"/><path class="cls-7" d="M12.52,28.42a.3.3,0,0,0,.14,0h0a3.11,3.11,0,0,0-.45-.44A.76.76,0,0,0,12.52,28.42Z"/><path class="cls-5" d="M11.41,29.19c-.05.11-.18.14-.32,0a.77.77,0,0,1-.35-.6c0-.17.08-.26.21-.25a.32.32,0,0,0,0,.14.75.75,0,0,0,.35.61A.3.3,0,0,0,11.41,29.19Z"/><path class="cls-7" d="M11.44,29a.33.33,0,0,1,0,.15.3.3,0,0,1-.14-.05.75.75,0,0,1-.35-.61.32.32,0,0,1,0-.14.43.43,0,0,1,.14,0A.81.81,0,0,1,11.44,29Z"/><path class="cls-5" d="M13.41,30a.57.57,0,0,1,0-.15c-.12,0-.2.08-.2.25a.81.81,0,0,0,.35.61l0,0a2.48,2.48,0,0,0,0-.27A.77.77,0,0,1,13.41,30Z"/><path class="cls-7" d="M13.41,30a.77.77,0,0,0,.19.46,3.39,3.39,0,0,0-.15-.61h0A.57.57,0,0,0,13.41,30Z"/><path class="cls-5" d="M11.21,28.17c.14.24.36.37.5.29a.19.19,0,0,0,.07-.08.54.54,0,0,1-.39-.31.57.57,0,0,1-.08-.49h0l-.08,0C11.07,27.68,11.07,27.94,11.21,28.17Z"/><path class="cls-7" d="M11.39,28.07a.54.54,0,0,0,.39.31.61.61,0,0,0-.07-.49.64.64,0,0,0-.29-.28l-.11,0A.57.57,0,0,0,11.39,28.07Z"/><path class="cls-5" d="M13.54,31.44a.14.14,0,0,1-.07.08c-.14.08-.36-.05-.49-.29s-.14-.49,0-.57a.16.16,0,0,1,.1,0,.57.57,0,0,0,.07.49A.59.59,0,0,0,13.54,31.44Z"/><path class="cls-7" d="M13.54,31.44a.59.59,0,0,1-.39-.31.57.57,0,0,1-.07-.49.57.57,0,0,1,.39.31A.53.53,0,0,1,13.54,31.44Z"/><path class="cls-5" d="M13.32,29.49a4.93,4.93,0,0,0-.43-.74.54.54,0,0,0,.09.44A.6.6,0,0,0,13.32,29.49Z"/><path class="cls-5" d="M11.78,30.42a.19.19,0,0,1-.07.08c-.14.08-.36-.05-.5-.29s-.14-.49,0-.57a.18.18,0,0,1,.1,0,.69.69,0,0,0,.47.8Z"/><path class="cls-7" d="M11.78,30.42a.69.69,0,0,1-.47-.8.57.57,0,0,1,.4.31A.61.61,0,0,1,11.78,30.42Z"/><path class="cls-8" d="M13.07,30a1.59,1.59,0,0,0-.72-1.25.48.48,0,0,0-.51-.05l-.16.09,1,1.76.15-.09A.53.53,0,0,0,13.07,30Z"/><path class="cls-9" d="M12.92,30.06c0,.46-.32.65-.72.42a1.59,1.59,0,0,1-.72-1.25c0-.46.32-.65.72-.42A1.59,1.59,0,0,1,12.92,30.06Z"/><path class="cls-8" d="M12.68,30a1.14,1.14,0,0,0-.52-.91.36.36,0,0,0-.38,0l-.11.07.75,1.28.12-.07A.36.36,0,0,0,12.68,30Z"/><path class="cls-10" d="M12.57,30c0,.34-.23.47-.53.31a1.17,1.17,0,0,1-.52-.92c0-.33.23-.47.52-.3A1.15,1.15,0,0,1,12.57,30Z"/><path class="cls-3" d="M21.05,31.52a4.29,4.29,0,0,0-1.94-3.36A1.34,1.34,0,0,0,17.74,28l-1.38.8,2.77,4.72,1.38-.8A1.38,1.38,0,0,0,21.05,31.52Z"/><path class="cls-4" d="M19.69,32.31c0,1.23-.87,1.73-1.94,1.11a4.27,4.27,0,0,1-1.94-3.35c0-1.24.87-1.74,1.94-1.12A4.29,4.29,0,0,1,19.69,32.31Z"/><path class="cls-2" d="M19.5,32.2c0,1.12-.78,1.57-1.75,1a3.87,3.87,0,0,1-1.75-3c0-1.12.78-1.57,1.75-1A3.87,3.87,0,0,1,19.5,32.2Z"/><path class="cls-3" d="M19.29,32.54a4.29,4.29,0,0,0-1.94-3.36A1.37,1.37,0,0,0,16,29l-1.38.8,2.78,4.73,1.37-.8A1.38,1.38,0,0,0,19.29,32.54Z"/><path class="cls-4" d="M17.93,33.32c0,1.24-.87,1.74-1.94,1.12a4.29,4.29,0,0,1-1.94-3.36c0-1.23.87-1.74,1.94-1.12A4.29,4.29,0,0,1,17.93,33.32Z"/><path class="cls-5" d="M17.44,34.18a1.11,1.11,0,0,1-1.45,0,3.88,3.88,0,0,1-1.76-3c0-.69.31-1.13.77-1.23a1.41,1.41,0,0,0-.31,1,3.88,3.88,0,0,0,1.76,3A1.44,1.44,0,0,0,17.44,34.18Z"/><path class="cls-6" d="M17.75,33.22a1.43,1.43,0,0,1-.31,1h0a1.44,1.44,0,0,1-1-.22,3.88,3.88,0,0,1-1.76-3A1.41,1.41,0,0,1,15,30h0a1.42,1.42,0,0,1,1,.21A3.9,3.9,0,0,1,17.75,33.22Z"/><path class="cls-5" d="M17,32.73c-.12.14-.33.15-.57,0a1.52,1.52,0,0,1-.7-1.21c0-.28.12-.45.3-.49a.54.54,0,0,0-.13.39,1.55,1.55,0,0,0,.71,1.21A.55.55,0,0,0,17,32.73Z"/><path class="cls-7" d="M17.15,32.34a.57.57,0,0,1-.13.39h0a.55.55,0,0,1-.39-.09,1.55,1.55,0,0,1-.71-1.21.54.54,0,0,1,.13-.39h0a.56.56,0,0,1,.4.08A1.56,1.56,0,0,1,17.15,32.34Z"/><path class="cls-5" d="M16.77,33.73c-.05.11-.18.13-.32.05a.78.78,0,0,1-.35-.61c0-.16.08-.25.2-.24a.46.46,0,0,0,0,.14.77.77,0,0,0,.35.61A.48.48,0,0,0,16.77,33.73Z"/><path class="cls-7" d="M16.8,33.58a.33.33,0,0,1,0,.15.48.48,0,0,1-.14,0,.77.77,0,0,1-.35-.61.46.46,0,0,1,0-.14.28.28,0,0,1,.15,0A.79.79,0,0,1,16.8,33.58Z"/><path class="cls-5" d="M16.1,30.29a.81.81,0,0,0,.35.61c.14.08.27.05.32-.06a.3.3,0,0,1-.14-.05.72.72,0,0,1-.31-.39,1.07,1.07,0,0,0-.22-.15Z"/><path class="cls-7" d="M16.63,30.79a.3.3,0,0,0,.14.05h0a3.73,3.73,0,0,0-.45-.44A.72.72,0,0,0,16.63,30.79Z"/><path class="cls-5" d="M15.52,31.56c0,.11-.18.14-.32.06a.79.79,0,0,1-.35-.61c0-.17.08-.26.21-.25a.33.33,0,0,0,0,.15.78.78,0,0,0,.35.61A.43.43,0,0,0,15.52,31.56Z"/><path class="cls-7" d="M15.55,31.41a.33.33,0,0,1,0,.15.43.43,0,0,1-.14,0,.78.78,0,0,1-.35-.61.33.33,0,0,1,0-.15.3.3,0,0,1,.14,0A.77.77,0,0,1,15.55,31.41Z"/><path class="cls-5" d="M17.52,32.35a.33.33,0,0,1,0-.15c-.12,0-.2.09-.2.25a.78.78,0,0,0,.35.61l0,0a2.3,2.3,0,0,0,0-.26A.8.8,0,0,1,17.52,32.35Z"/><path class="cls-7" d="M17.52,32.35a.8.8,0,0,0,.19.47,3.5,3.5,0,0,0-.15-.62h0A.33.33,0,0,0,17.52,32.35Z"/><path class="cls-5" d="M15.32,30.55c.13.23.36.36.49.28s.06,0,.08-.08a.52.52,0,0,1-.39-.31.56.56,0,0,1-.08-.48h0l-.08,0C15.18,30.05,15.18,30.31,15.32,30.55Z"/><path class="cls-7" d="M15.5,30.44a.52.52,0,0,0,.39.31.58.58,0,0,0-.08-.49.68.68,0,0,0-.28-.28l-.11,0A.56.56,0,0,0,15.5,30.44Z"/><path class="cls-5" d="M17.65,33.81a.14.14,0,0,1-.07.08c-.14.08-.36,0-.5-.28s-.13-.5,0-.58l.11,0a.57.57,0,0,0,.07.49A.53.53,0,0,0,17.65,33.81Z"/><path class="cls-7" d="M17.65,33.81a.53.53,0,0,1-.39-.31.57.57,0,0,1-.07-.49.59.59,0,0,1,.39.31A.54.54,0,0,1,17.65,33.81Z"/><path class="cls-5" d="M17.43,31.87a4.33,4.33,0,0,0-.44-.75.7.7,0,0,0,.44.75Z"/><path class="cls-5" d="M15.89,32.79s0,.07-.08.08-.36,0-.49-.28-.14-.5,0-.58l.1,0a.56.56,0,0,0,.08.5A.52.52,0,0,0,15.89,32.79Z"/><path class="cls-7" d="M15.89,32.79a.52.52,0,0,1-.39-.3.56.56,0,0,1-.08-.5.57.57,0,0,1,.39.31A.58.58,0,0,1,15.89,32.79Z"/><path class="cls-8" d="M17.18,32.35a1.59,1.59,0,0,0-.72-1.25.53.53,0,0,0-.51-.05l-.16.09,1,1.76.15-.09A.52.52,0,0,0,17.18,32.35Z"/><path class="cls-9" d="M17,32.44c0,.46-.32.64-.72.41a1.59,1.59,0,0,1-.72-1.25c0-.46.32-.64.72-.41A1.59,1.59,0,0,1,17,32.44Z"/><path class="cls-8" d="M16.79,32.35a1.15,1.15,0,0,0-.52-.91.38.38,0,0,0-.38,0l-.11.07.75,1.28.12-.06A.39.39,0,0,0,16.79,32.35Z"/><path class="cls-10" d="M16.68,32.41c0,.34-.24.48-.52.31a1.15,1.15,0,0,1-.53-.91c0-.34.23-.48.53-.31A1.2,1.2,0,0,1,16.68,32.41Z"/><path class="cls-3" d="M25.16,33.89a4.3,4.3,0,0,0-1.94-3.36,1.36,1.36,0,0,0-1.37-.13l-1.38.8,2.77,4.72,1.38-.79A1.4,1.4,0,0,0,25.16,33.89Z"/><path class="cls-4" d="M23.8,34.68c0,1.23-.87,1.74-1.94,1.12a4.29,4.29,0,0,1-1.94-3.36c0-1.24.87-1.74,1.94-1.12A4.29,4.29,0,0,1,23.8,34.68Z"/><path class="cls-2" d="M23.61,34.57c0,1.12-.78,1.57-1.75,1a3.9,3.9,0,0,1-1.76-3c0-1.12.79-1.58,1.76-1A3.87,3.87,0,0,1,23.61,34.57Z"/><path class="cls-3" d="M23.4,34.91a4.29,4.29,0,0,0-1.94-3.36,1.34,1.34,0,0,0-1.37-.13l-1.38.79,2.77,4.73,1.38-.8A1.38,1.38,0,0,0,23.4,34.91Z"/><path class="cls-4" d="M22,35.69c0,1.24-.87,1.74-1.94,1.12a4.29,4.29,0,0,1-1.94-3.36c0-1.23.87-1.73,1.94-1.11A4.27,4.27,0,0,1,22,35.69Z"/><path class="cls-5" d="M21.55,36.55a1.11,1.11,0,0,1-1.45.05,3.87,3.87,0,0,1-1.75-3c0-.69.3-1.13.76-1.23a1.41,1.41,0,0,0-.31,1,3.88,3.88,0,0,0,1.76,3A1.44,1.44,0,0,0,21.55,36.55Z"/><path class="cls-6" d="M21.85,35.59a1.41,1.41,0,0,1-.3,1h0a1.44,1.44,0,0,1-1-.22,3.88,3.88,0,0,1-1.76-3,1.41,1.41,0,0,1,.31-1h0a1.44,1.44,0,0,1,1,.22A3.87,3.87,0,0,1,21.85,35.59Z"/><path class="cls-5" d="M21.13,35.1c-.12.14-.33.15-.57,0a1.56,1.56,0,0,1-.7-1.22c0-.28.12-.45.3-.49a.55.55,0,0,0-.13.39A1.53,1.53,0,0,0,20.74,35,.5.5,0,0,0,21.13,35.1Z"/><path class="cls-7" d="M21.26,34.71a.55.55,0,0,1-.13.39h0a.5.5,0,0,1-.39-.09A1.53,1.53,0,0,1,20,33.8a.55.55,0,0,1,.13-.39h0a.53.53,0,0,1,.4.09A1.52,1.52,0,0,1,21.26,34.71Z"/><path class="cls-5" d="M20.88,36.1c-.05.11-.18.14-.32,0a.77.77,0,0,1-.35-.6c0-.17.08-.26.2-.25a.32.32,0,0,0,0,.14.75.75,0,0,0,.35.61A.3.3,0,0,0,20.88,36.1Z"/><path class="cls-7" d="M20.91,36a.33.33,0,0,1,0,.15.3.3,0,0,1-.14-.05.75.75,0,0,1-.35-.61.32.32,0,0,1,0-.14.28.28,0,0,1,.15,0A.81.81,0,0,1,20.91,36Z"/><path class="cls-5" d="M20.21,32.66a.78.78,0,0,0,.35.61c.14.08.27,0,.32-.06a.27.27,0,0,1-.14,0,.74.74,0,0,1-.31-.4l-.22-.15Z"/><path class="cls-7" d="M20.74,33.17a.27.27,0,0,0,.14,0h0a3.73,3.73,0,0,0-.45-.44A.74.74,0,0,0,20.74,33.17Z"/><path class="cls-5" d="M19.63,33.93c-.05.11-.18.14-.32.06a.78.78,0,0,1-.35-.61c0-.16.08-.26.21-.25a.33.33,0,0,0,0,.15.77.77,0,0,0,.35.61A.27.27,0,0,0,19.63,33.93Z"/><path class="cls-7" d="M19.66,33.79a.26.26,0,0,1,0,.14.27.27,0,0,1-.14,0,.77.77,0,0,1-.35-.61.33.33,0,0,1,0-.15.3.3,0,0,1,.14,0A.78.78,0,0,1,19.66,33.79Z"/><path class="cls-5" d="M21.63,34.72a.29.29,0,0,1,0-.14c-.12,0-.2.08-.2.25a.77.77,0,0,0,.35.6l0,0a1.22,1.22,0,0,0,0-.26A.78.78,0,0,1,21.63,34.72Z"/><path class="cls-7" d="M21.63,34.72a.78.78,0,0,0,.19.47,3.39,3.39,0,0,0-.15-.61h0A.29.29,0,0,0,21.63,34.72Z"/><path class="cls-5" d="M19.43,32.92c.13.24.36.36.49.29a.2.2,0,0,0,.08-.08.67.67,0,0,1-.47-.8h0s-.06,0-.08,0S19.29,32.68,19.43,32.92Z"/><path class="cls-7" d="M19.6,32.82a.6.6,0,0,0,.4.31.6.6,0,0,0-.08-.5.68.68,0,0,0-.28-.28l-.11,0A.6.6,0,0,0,19.6,32.82Z"/><path class="cls-5" d="M21.76,36.19a.18.18,0,0,1-.07.08c-.14.08-.36-.05-.5-.29s-.13-.49,0-.57a.23.23,0,0,1,.11,0,.68.68,0,0,0,.46.81Z"/><path class="cls-7" d="M21.76,36.19a.68.68,0,0,1-.46-.81.59.59,0,0,1,.39.31A.56.56,0,0,1,21.76,36.19Z"/><path class="cls-5" d="M21.53,34.24a4.15,4.15,0,0,0-.42-.74.58.58,0,0,0,.08.44A.67.67,0,0,0,21.53,34.24Z"/><path class="cls-5" d="M20,35.17a.2.2,0,0,1-.08.08c-.13.08-.36,0-.49-.29s-.14-.49,0-.57a.12.12,0,0,1,.1,0,.67.67,0,0,0,.47.8Z"/><path class="cls-7" d="M20,35.17a.67.67,0,0,1-.47-.8.52.52,0,0,1,.39.3A.6.6,0,0,1,20,35.17Z"/><path class="cls-8" d="M21.29,34.72a1.61,1.61,0,0,0-.72-1.25.53.53,0,0,0-.51,0l-.16.09,1,1.76.15-.09A.51.51,0,0,0,21.29,34.72Z"/><path class="cls-9" d="M21.14,34.81c0,.46-.32.65-.72.42A1.59,1.59,0,0,1,19.7,34c0-.46.32-.65.72-.42A1.59,1.59,0,0,1,21.14,34.81Z"/><path class="cls-8" d="M20.9,34.72a1.17,1.17,0,0,0-.52-.91.41.41,0,0,0-.38,0l-.11.07.75,1.29.12-.07A.38.38,0,0,0,20.9,34.72Z"/><path class="cls-10" d="M20.79,34.79c0,.33-.23.47-.53.3a1.17,1.17,0,0,1-.52-.91c0-.34.23-.47.52-.3A1.12,1.12,0,0,1,20.79,34.79Z"/><path class="cls-3" d="M29.27,36.26a4.27,4.27,0,0,0-1.94-3.35A1.37,1.37,0,0,0,26,32.77l-1.39.8,2.78,4.73,1.38-.8A1.4,1.4,0,0,0,29.27,36.26Z"/><path class="cls-4" d="M27.91,37.05c0,1.24-.87,1.74-1.94,1.12A4.29,4.29,0,0,1,24,34.81c0-1.23.87-1.74,1.94-1.12A4.29,4.29,0,0,1,27.91,37.05Z"/><path class="cls-2" d="M27.72,36.94c0,1.12-.78,1.58-1.75,1a3.88,3.88,0,0,1-1.76-3c0-1.12.79-1.57,1.76-1A3.89,3.89,0,0,1,27.72,36.94Z"/><path class="cls-3" d="M27.51,37.28a4.29,4.29,0,0,0-1.94-3.36,1.34,1.34,0,0,0-1.37-.13l-1.38.8,2.77,4.72L27,38.52A1.4,1.4,0,0,0,27.51,37.28Z"/><path class="cls-4" d="M26.15,38.07c0,1.23-.87,1.73-1.94,1.11a4.27,4.27,0,0,1-1.94-3.35c0-1.24.87-1.74,1.94-1.12A4.29,4.29,0,0,1,26.15,38.07Z"/><path class="cls-5" d="M25.66,38.92a1.1,1.1,0,0,1-1.45,0,3.88,3.88,0,0,1-1.76-3c0-.69.31-1.13.77-1.23a1.44,1.44,0,0,0-.31,1,3.88,3.88,0,0,0,1.76,3A1.42,1.42,0,0,0,25.66,38.92Z"/><path class="cls-6" d="M26,38a1.41,1.41,0,0,1-.3,1h0a1.42,1.42,0,0,1-1-.21,3.88,3.88,0,0,1-1.76-3,1.44,1.44,0,0,1,.31-1h0a1.44,1.44,0,0,1,1,.22A3.87,3.87,0,0,1,26,38Z"/><path class="cls-5" d="M25.24,37.48a.44.44,0,0,1-.57,0,1.56,1.56,0,0,1-.7-1.22c0-.27.12-.45.3-.49a.57.57,0,0,0-.13.39,1.57,1.57,0,0,0,.71,1.22A.6.6,0,0,0,25.24,37.48Z"/><path class="cls-7" d="M25.37,37.08a.58.58,0,0,1-.13.4h0a.6.6,0,0,1-.39-.09,1.57,1.57,0,0,1-.71-1.22.57.57,0,0,1,.13-.39h0a.58.58,0,0,1,.4.09A1.54,1.54,0,0,1,25.37,37.08Z"/><path class="cls-5" d="M25,38.47a.21.21,0,0,1-.32.06.77.77,0,0,1-.35-.61c0-.17.08-.26.21-.25a.24.24,0,0,0,0,.15.76.76,0,0,0,.36.6A.3.3,0,0,0,25,38.47Z"/><path class="cls-7" d="M25,38.32a.33.33,0,0,1,0,.15.3.3,0,0,1-.14,0,.76.76,0,0,1-.36-.6.24.24,0,0,1,0-.15.3.3,0,0,1,.14,0A.77.77,0,0,1,25,38.32Z"/><path class="cls-5" d="M24.32,35a.75.75,0,0,0,.35.61c.14.09.26.06.32,0a.3.3,0,0,1-.14-.05.76.76,0,0,1-.31-.39L24.32,35Z"/><path class="cls-7" d="M24.85,35.54a.3.3,0,0,0,.14.05h0a3,3,0,0,0-.45-.43A.76.76,0,0,0,24.85,35.54Z"/><path class="cls-5" d="M23.74,36.31c-.06.11-.18.14-.32,0a.77.77,0,0,1-.35-.6c0-.17.08-.26.21-.26a.33.33,0,0,0,0,.15.76.76,0,0,0,.36.61A.48.48,0,0,0,23.74,36.31Z"/><path class="cls-7" d="M23.77,36.16a.33.33,0,0,1,0,.15.48.48,0,0,1-.14-.05.76.76,0,0,1-.36-.61.33.33,0,0,1,0-.15.48.48,0,0,1,.14,0A.79.79,0,0,1,23.77,36.16Z"/><path class="cls-5" d="M25.74,37.1a.33.33,0,0,1,0-.15c-.12,0-.2.08-.2.25a.78.78,0,0,0,.35.61l0,0a2.48,2.48,0,0,0,0-.27A.77.77,0,0,1,25.74,37.1Z"/><path class="cls-7" d="M25.74,37.1a.77.77,0,0,0,.19.46,3.39,3.39,0,0,0-.15-.61h0A.33.33,0,0,0,25.74,37.1Z"/><path class="cls-5" d="M23.54,35.29c.13.24.36.37.49.29a.2.2,0,0,0,.08-.08.6.6,0,0,1-.4-.31.57.57,0,0,1-.07-.49h0a.11.11,0,0,0-.08,0C23.4,34.8,23.4,35.05,23.54,35.29Z"/><path class="cls-7" d="M23.71,35.19a.6.6,0,0,0,.4.31A.57.57,0,0,0,24,35a.58.58,0,0,0-.28-.28l-.11,0A.57.57,0,0,0,23.71,35.19Z"/><path class="cls-5" d="M25.87,38.56a.18.18,0,0,1-.07.08c-.14.08-.36,0-.5-.29s-.13-.49,0-.57a.15.15,0,0,1,.11,0,.57.57,0,0,0,.07.49A.59.59,0,0,0,25.87,38.56Z"/><path class="cls-7" d="M25.87,38.56a.59.59,0,0,1-.39-.31.57.57,0,0,1-.07-.49.67.67,0,0,1,.46.8Z"/><path class="cls-5" d="M25.65,36.61a4.93,4.93,0,0,0-.43-.74.57.57,0,0,0,.08.44A.65.65,0,0,0,25.65,36.61Z"/><path class="cls-5" d="M24.11,37.54a.2.2,0,0,1-.08.08c-.13.08-.36,0-.49-.29s-.14-.49,0-.57a.12.12,0,0,1,.1,0,.57.57,0,0,0,.07.49A.6.6,0,0,0,24.11,37.54Z"/><path class="cls-7" d="M24.11,37.54a.6.6,0,0,1-.4-.31.57.57,0,0,1-.07-.49.52.52,0,0,1,.39.31A.57.57,0,0,1,24.11,37.54Z"/><path class="cls-8" d="M25.4,37.1a1.59,1.59,0,0,0-.72-1.25.48.48,0,0,0-.51-.05l-.16.09,1,1.76.15-.09A.53.53,0,0,0,25.4,37.1Z"/><path class="cls-9" d="M25.25,37.18c0,.46-.32.65-.72.42a1.59,1.59,0,0,1-.72-1.25c0-.46.32-.65.72-.42A1.59,1.59,0,0,1,25.25,37.18Z"/><path class="cls-8" d="M25,37.1a1.15,1.15,0,0,0-.53-.92.36.36,0,0,0-.37,0l-.12.06.76,1.29.12-.07A.37.37,0,0,0,25,37.1Z"/><path class="cls-10" d="M24.9,37.16c0,.34-.23.47-.53.3a1.14,1.14,0,0,1-.52-.91c0-.33.23-.47.52-.3A1.14,1.14,0,0,1,24.9,37.16Z"/><path class="cls-3" d="M33.38,38.64a4.29,4.29,0,0,0-1.94-3.36,1.36,1.36,0,0,0-1.38-.13l-1.38.79,2.78,4.73,1.38-.8A1.38,1.38,0,0,0,33.38,38.64Z"/><path class="cls-4" d="M32,39.42c0,1.24-.87,1.74-1.94,1.12a4.29,4.29,0,0,1-1.94-3.36c0-1.23.87-1.73,1.94-1.11A4.27,4.27,0,0,1,32,39.42Z"/><path class="cls-2" d="M31.83,39.32c0,1.12-.78,1.57-1.75,1a3.88,3.88,0,0,1-1.76-3c0-1.12.79-1.57,1.76-1A3.87,3.87,0,0,1,31.83,39.32Z"/><path class="cls-3" d="M31.62,39.65a4.3,4.3,0,0,0-1.94-3.36,1.39,1.39,0,0,0-1.37-.13l-1.39.8,2.78,4.73,1.38-.8A1.4,1.4,0,0,0,31.62,39.65Z"/><path class="cls-4" d="M30.26,40.44c0,1.24-.87,1.74-1.94,1.12a4.29,4.29,0,0,1-1.94-3.36c0-1.24.87-1.74,1.94-1.12A4.29,4.29,0,0,1,30.26,40.44Z"/><path class="cls-5" d="M29.77,41.3a1.12,1.12,0,0,1-1.45.05,3.88,3.88,0,0,1-1.76-3c0-.7.31-1.14.77-1.23A1.41,1.41,0,0,0,27,38a3.88,3.88,0,0,0,1.76,3A1.44,1.44,0,0,0,29.77,41.3Z"/><path class="cls-6" d="M30.07,40.33a1.46,1.46,0,0,1-.3,1h0a1.44,1.44,0,0,1-1-.22A3.88,3.88,0,0,1,27,38a1.41,1.41,0,0,1,.31-1h0a1.44,1.44,0,0,1,1,.22A3.87,3.87,0,0,1,30.07,40.33Z"/><path class="cls-5" d="M29.35,39.85a.44.44,0,0,1-.57,0,1.54,1.54,0,0,1-.7-1.21c0-.28.12-.46.3-.5a.57.57,0,0,0-.13.39A1.55,1.55,0,0,0,29,39.76.6.6,0,0,0,29.35,39.85Z"/><path class="cls-7" d="M29.48,39.46a.57.57,0,0,1-.13.39h0a.6.6,0,0,1-.39-.09,1.55,1.55,0,0,1-.71-1.22.57.57,0,0,1,.13-.39h0a.64.64,0,0,1,.4.09A1.54,1.54,0,0,1,29.48,39.46Z"/><path class="cls-5" d="M29.1,40.84c-.05.11-.18.14-.32.06a.75.75,0,0,1-.35-.61c0-.16.08-.26.2-.25a.33.33,0,0,0,0,.15.79.79,0,0,0,.36.61A.27.27,0,0,0,29.1,40.84Z"/><path class="cls-7" d="M29.13,40.7a.26.26,0,0,1,0,.14.27.27,0,0,1-.14,0,.79.79,0,0,1-.36-.61.33.33,0,0,1,0-.15.3.3,0,0,1,.15.05A.78.78,0,0,1,29.13,40.7Z"/><path class="cls-5" d="M28.43,37.41a.75.75,0,0,0,.35.6c.14.09.27.06.32,0a.3.3,0,0,1-.14-.05.76.76,0,0,1-.31-.39l-.22-.16Z"/><path class="cls-7" d="M29,37.91a.3.3,0,0,0,.14.05h0a3.11,3.11,0,0,0-.45-.44A.76.76,0,0,0,29,37.91Z"/><path class="cls-5" d="M27.85,38.68c-.05.11-.18.14-.32,0a.75.75,0,0,1-.35-.6c0-.17.08-.26.21-.25a.33.33,0,0,0,0,.14.76.76,0,0,0,.36.61A.3.3,0,0,0,27.85,38.68Z"/><path class="cls-7" d="M27.88,38.53a.33.33,0,0,1,0,.15.3.3,0,0,1-.14,0,.76.76,0,0,1-.36-.61.33.33,0,0,1,0-.14.3.3,0,0,1,.14,0A.77.77,0,0,1,27.88,38.53Z"/><path class="cls-5" d="M29.85,39.47a.33.33,0,0,1,0-.15c-.12,0-.2.09-.2.25a.77.77,0,0,0,.35.61l0,0a2.48,2.48,0,0,0,0-.27A.77.77,0,0,1,29.85,39.47Z"/><path class="cls-7" d="M29.85,39.47a.77.77,0,0,0,.19.46,3.61,3.61,0,0,0-.15-.61h0A.33.33,0,0,0,29.85,39.47Z"/><path class="cls-5" d="M27.65,37.66c.13.24.36.37.49.29a.2.2,0,0,0,.08-.08.55.55,0,0,1-.4-.31.57.57,0,0,1-.07-.49h0l-.08,0C27.51,37.17,27.51,37.43,27.65,37.66Z"/><path class="cls-7" d="M27.82,37.56a.55.55,0,0,0,.4.31.58.58,0,0,0-.08-.49.63.63,0,0,0-.28-.28l-.11,0A.57.57,0,0,0,27.82,37.56Z"/><path class="cls-5" d="M30,40.93a.14.14,0,0,1-.07.08c-.14.08-.36,0-.5-.28s-.13-.5,0-.58a.22.22,0,0,1,.11,0,.53.53,0,0,0,.07.49A.56.56,0,0,0,30,40.93Z"/><path class="cls-7" d="M30,40.93a.56.56,0,0,1-.39-.31.53.53,0,0,1-.07-.49.59.59,0,0,1,.39.31A.54.54,0,0,1,30,40.93Z"/><path class="cls-5" d="M29.75,39a3.66,3.66,0,0,0-.43-.74.71.71,0,0,0,.43.74Z"/><path class="cls-5" d="M28.22,39.91a.2.2,0,0,1-.08.08c-.13.08-.36-.05-.49-.28s-.14-.5,0-.58a.16.16,0,0,1,.1,0,.57.57,0,0,0,.07.49A.57.57,0,0,0,28.22,39.91Z"/><path class="cls-7" d="M28.22,39.91a.57.57,0,0,1-.4-.31.57.57,0,0,1-.07-.49.57.57,0,0,1,.39.31A.58.58,0,0,1,28.22,39.91Z"/><path class="cls-8" d="M29.51,39.47a1.59,1.59,0,0,0-.72-1.25.48.48,0,0,0-.51,0l-.16.09,1,1.76.15-.09A.53.53,0,0,0,29.51,39.47Z"/><path class="cls-9" d="M29.36,39.55c0,.46-.32.65-.72.42a1.59,1.59,0,0,1-.72-1.25c0-.46.32-.65.72-.42A1.59,1.59,0,0,1,29.36,39.55Z"/><path class="cls-8" d="M29.12,39.47a1.15,1.15,0,0,0-.53-.91.34.34,0,0,0-.37,0l-.12.07.76,1.28L29,39.8A.36.36,0,0,0,29.12,39.47Z"/><path class="cls-10" d="M29,39.53c0,.34-.24.47-.53.31a1.17,1.17,0,0,1-.52-.92c0-.33.23-.47.52-.3A1.18,1.18,0,0,1,29,39.53Z"/><path class="cls-3" d="M34.63,38.84a2.69,2.69,0,0,0-1.21-2.1.85.85,0,0,0-.86-.08l-.86.5,1.73,3,.86-.5A.86.86,0,0,0,34.63,38.84Z"/><path class="cls-4" d="M33.78,39.33c0,.77-.54,1.09-1.21.7a2.69,2.69,0,0,1-1.21-2.1c0-.77.54-1.08,1.21-.7A2.69,2.69,0,0,1,33.78,39.33Z"/><path class="cls-5" d="M33.47,39.87c-.19.22-.52.24-.9,0a2.42,2.42,0,0,1-1.1-1.9c0-.43.19-.71.48-.77a.88.88,0,0,0-.19.6,2.42,2.42,0,0,0,1.1,1.9A.93.93,0,0,0,33.47,39.87Z"/><path class="cls-2" d="M33.66,39.26a1,1,0,0,1-.18.61h0a.93.93,0,0,1-.61-.14,2.42,2.42,0,0,1-1.1-1.9.88.88,0,0,1,.19-.6h0a.84.84,0,0,1,.62.14A2.41,2.41,0,0,1,33.66,39.26Z"/><path class="cls-3" d="M33.52,39.48a2.69,2.69,0,0,0-1.21-2.1.84.84,0,0,0-.85-.08l-.87.5,1.74,3,.86-.5A.88.88,0,0,0,33.52,39.48Z"/><path class="cls-4" d="M32.67,40c0,.77-.54,1.09-1.21.7a2.67,2.67,0,0,1-1.21-2.1c0-.77.54-1.08,1.21-.7A2.69,2.69,0,0,1,32.67,40Z"/><path class="cls-5" d="M32.37,40.51a.71.71,0,0,1-.91,0,2.43,2.43,0,0,1-1.09-1.9c0-.43.19-.71.47-.77a.88.88,0,0,0-.19.6,2.42,2.42,0,0,0,1.1,1.9A1,1,0,0,0,32.37,40.51Z"/><path class="cls-6" d="M32.56,39.9a.91.91,0,0,1-.19.61h0a1,1,0,0,1-.62-.14,2.42,2.42,0,0,1-1.1-1.9.88.88,0,0,1,.19-.6h0a.84.84,0,0,1,.62.14A2.41,2.41,0,0,1,32.56,39.9Z"/><path class="cls-5" d="M32.11,39.6c-.08.09-.21.1-.36,0a1,1,0,0,1-.44-.76.29.29,0,0,1,.19-.31.37.37,0,0,0-.08.25,1,1,0,0,0,.44.76A.34.34,0,0,0,32.11,39.6Z"/><path class="cls-7" d="M32.19,39.36a.33.33,0,0,1-.08.24h0a.34.34,0,0,1-.25-.05,1,1,0,0,1-.44-.76.37.37,0,0,1,.08-.25h0a.42.42,0,0,1,.25.06A1,1,0,0,1,32.19,39.36Z"/><path class="cls-5" d="M32,40.22c0,.07-.11.09-.2,0a.49.49,0,0,1-.22-.38c0-.1,0-.16.13-.16a.3.3,0,0,0,0,.1.49.49,0,0,0,.22.37A.16.16,0,0,0,32,40.22Z"/><path class="cls-7" d="M32,40.13a.2.2,0,0,1,0,.09.16.16,0,0,1-.09,0,.49.49,0,0,1-.22-.37.3.3,0,0,1,0-.1.16.16,0,0,1,.09,0A.49.49,0,0,1,32,40.13Z"/><path class="cls-5" d="M31.53,38.08a.49.49,0,0,0,.22.38c.09,0,.17,0,.2,0l-.09,0a.42.42,0,0,1-.19-.24l-.14-.1Z"/><path class="cls-7" d="M31.86,38.39l.09,0h0a2.37,2.37,0,0,0-.28-.27A.42.42,0,0,0,31.86,38.39Z"/><path class="cls-5" d="M31.17,38.87c0,.07-.11.09-.2,0a.49.49,0,0,1-.22-.38c0-.11.05-.16.13-.16a.29.29,0,0,0,0,.09.49.49,0,0,0,.22.38Z"/><path class="cls-7" d="M31.19,38.78a.2.2,0,0,1,0,.09l-.09,0a.49.49,0,0,1-.22-.38.29.29,0,0,1,0-.09l.09,0A.49.49,0,0,1,31.19,38.78Z"/><path class="cls-5" d="M32.42,39.36a.29.29,0,0,1,0-.09c-.08,0-.13.06-.13.16a.49.49,0,0,0,.22.38h0s0-.11,0-.16A.52.52,0,0,1,32.42,39.36Z"/><path class="cls-7" d="M32.42,39.36a.52.52,0,0,0,.12.3,1.86,1.86,0,0,0-.1-.39h0A.29.29,0,0,0,32.42,39.36Z"/><path class="cls-5" d="M31,38.24c.09.15.23.23.31.18a.12.12,0,0,0,0-.05.38.38,0,0,1-.25-.2.34.34,0,0,1,0-.3H31C31,37.93,31,38.09,31,38.24Z"/><path class="cls-7" d="M31.15,38.17a.38.38,0,0,0,.25.2.37.37,0,0,0,0-.31.35.35,0,0,0-.17-.17l-.07,0A.34.34,0,0,0,31.15,38.17Z"/><path class="cls-5" d="M32.5,40.28a.1.1,0,0,1,0,0c-.09.05-.23,0-.31-.18s-.09-.31,0-.36h.06a.34.34,0,0,0,0,.31A.36.36,0,0,0,32.5,40.28Z"/><path class="cls-7" d="M32.5,40.28a.36.36,0,0,1-.24-.19.34.34,0,0,1,0-.31.41.41,0,0,1,.29.5Z"/><path class="cls-5" d="M32.36,39.06a2.64,2.64,0,0,0-.27-.46.39.39,0,0,0,.06.28A.36.36,0,0,0,32.36,39.06Z"/><path class="cls-5" d="M31.4,39.64l0,0c-.08.05-.22,0-.31-.18s-.08-.31,0-.35a.1.1,0,0,1,.07,0,.41.41,0,0,0,.29.5Z"/><path class="cls-7" d="M31.4,39.64a.41.41,0,0,1-.29-.5.36.36,0,0,1,.24.19A.37.37,0,0,1,31.4,39.64Z"/><path class="cls-8" d="M32.21,39.37a1,1,0,0,0-.45-.78.32.32,0,0,0-.32,0l-.1.06.65,1.1.09-.06A.32.32,0,0,0,32.21,39.37Z"/><path class="cls-9" d="M32.11,39.42c0,.29-.2.4-.45.26a1,1,0,0,1-.45-.78c0-.29.21-.41.45-.26A1,1,0,0,1,32.11,39.42Z"/><path class="cls-8" d="M32,39.36a.71.71,0,0,0-.32-.56.24.24,0,0,0-.24,0l-.07,0,.47.8.07,0Q32,39.53,32,39.36Z"/><path class="cls-10" d="M31.89,39.4c0,.22-.14.3-.32.2a.71.71,0,0,1-.33-.57c0-.21.14-.3.33-.19A.7.7,0,0,1,31.89,39.4Z"/><path class="cls-2" d="M35.74,36.93l-3.12,1.62-.17.2.32.65.07,1.07-.22.43.05.22,3.12-1.81h0a.83.83,0,0,0,.34-.69V38.1A2.58,2.58,0,0,0,35.74,36.93Z"/><polygon class="cls-2" points="3.43 21.94 4.72 21.2 5.25 21.73 4.59 22.22 3.78 22.05 3.43 21.94"/><path class="cls-3" d="M32.61,38.73a3.93,3.93,0,0,0-1.16-1.22L4.64,22a1.23,1.23,0,0,0-1.16-.11.78.78,0,0,0-.39.71v.53a2.62,2.62,0,0,0,.39,1.17L6.58,29a3.37,3.37,0,0,0,.89.88L28.62,42.1a1.24,1.24,0,0,0,.89.15l3.1-1.11a.77.77,0,0,0,.39-.72V39.9A2.5,2.5,0,0,0,32.61,38.73Zm.07,1.33a.78.78,0,0,1-.39.72l-2.89,1a1.23,1.23,0,0,1-.89-.15L7.59,29.59a3.23,3.23,0,0,1-.89-.88L3.8,24.33a2.58,2.58,0,0,1-.39-1.17V23a.8.8,0,0,1,.39-.72l.05,0a.88.88,0,0,1,.77.13L31.48,37.9a2.51,2.51,0,0,1,.77.76l0,.07a2.46,2.46,0,0,1,.39,1.17Z"/><polygon class="cls-11" points="30.96 33.9 19.79 30.55 8.13 23.52 2.82 17.66 5.95 15.85 34.08 32.09 33.04 33.73 30.96 33.9"/><polygon class="cls-12" points="36.54 36.39 33.41 38.19 31.19 37 30.96 33.9 34.08 32.09 36.54 36.39"/><polygon class="cls-6" points="33.41 39.15 26.7 36.04 9 25.82 2.54 20.37 2.82 17.66 30.96 33.9 33.41 38.19 33.41 39.15"/><polygon class="cls-13" points="36.54 37.35 33.41 39.15 33.41 38.19 36.54 36.39 36.54 37.35"/><polygon class="cls-5" points="6.39 21.41 6.11 21.57 6.11 23.34 6.39 23.18 6.39 21.41"/><polygon class="cls-7" points="6.11 21.57 3.99 20.34 3.99 21.56 6.11 23.34 6.11 21.57"/><polygon class="cls-11" points="6.11 21.57 3.99 20.34 4.27 20.18 6.39 21.41 6.11 21.57"/><polygon class="cls-5" points="8.7 22.74 8.42 22.9 8.42 25.27 8.7 25.11 8.7 22.74"/><polygon class="cls-7" points="8.42 22.9 6.46 21.77 6.46 23.63 8.42 25.27 8.42 22.9"/><polygon class="cls-11" points="8.42 22.9 6.46 21.77 6.74 21.61 8.7 22.74 8.42 22.9"/><polygon class="cls-7" points="11.42 24.64 8.8 23.12 8.8 25.49 11.42 27.01 11.42 24.64"/><polygon class="cls-5" points="11.7 24.47 11.42 24.64 11.42 27.01 11.7 26.85 11.7 24.47"/><polygon class="cls-11" points="11.42 24.64 8.8 23.12 9.08 22.96 11.7 24.47 11.42 24.64"/><polygon class="cls-7" points="14.43 26.37 11.8 24.86 11.8 27.23 14.43 28.74 14.43 26.37"/><polygon class="cls-5" points="14.71 26.21 14.43 26.37 14.43 28.74 14.71 28.58 14.71 26.21"/><polygon class="cls-11" points="14.43 26.37 11.8 24.86 12.08 24.69 14.71 26.21 14.43 26.37"/><polygon class="cls-7" points="17.43 28.11 14.81 26.59 14.81 28.96 17.43 30.48 17.43 28.11"/><polygon class="cls-5" points="17.72 27.95 17.43 28.11 17.43 30.48 17.72 30.32 17.72 27.95"/><polygon class="cls-11" points="17.43 28.11 14.81 26.59 15.09 26.43 17.72 27.95 17.43 28.11"/><polygon class="cls-7" points="20.44 29.84 17.82 28.33 17.82 30.7 20.44 32.22 20.44 29.84"/><polygon class="cls-5" points="20.72 29.68 20.44 29.84 20.44 32.22 20.72 32.05 20.72 29.68"/><polygon class="cls-11" points="20.44 29.84 17.82 28.33 18.09 28.16 20.72 29.68 20.44 29.84"/><polygon class="cls-7" points="23.45 31.58 20.82 30.06 20.82 32.43 23.45 33.95 23.45 31.58"/><polygon class="cls-5" points="23.73 31.42 23.45 31.58 23.45 33.95 23.73 33.79 23.73 31.42"/><polygon class="cls-11" points="23.45 31.58 20.82 30.06 21.1 29.9 23.73 31.42 23.45 31.58"/><polygon class="cls-7" points="26.45 33.31 23.83 31.8 23.83 34.17 26.45 35.69 26.45 33.31"/><polygon class="cls-5" points="26.73 33.15 26.45 33.31 26.45 35.69 26.73 35.52 26.73 33.15"/><polygon class="cls-11" points="26.45 33.31 23.83 31.8 24.11 31.64 26.73 33.15 26.45 33.31"/><polygon class="cls-5" points="30.4 36.25 30.21 36.87 30.46 37.71 30.74 37.54 30.74 36.26 30.4 36.25"/><polygon class="cls-7" points="27.84 34.11 26.87 33.56 26.87 35.93 27.84 36.48 30.46 37.71 30.46 36.42 27.84 34.11"/><polygon class="cls-11" points="27.84 34.11 26.87 33.56 27.15 33.39 28.12 33.95 27.84 34.11"/><polygon class="cls-12" points="30.46 36.42 27.84 34.11 28.12 33.95 30.74 36.26 30.46 36.42"/><polygon class="cls-7" points="29.17 10.34 22.61 8.99 29.16 19.17 30.25 18.55 29.17 10.34"/><polygon class="cls-6" points="28.09 10.96 21.52 9.62 21.52 14.76 29.16 19.17 28.09 10.96"/><polygon class="cls-15" points="28.22 18.63 21.19 22.69 20.61 18.78 27.64 14.72 28.22 18.63"/><polygon class="cls-7" points="21.71 14.64 15.15 13.3 21.7 23.48 22.79 22.85 21.71 14.64"/><polygon class="cls-6" points="20.62 15.27 14.06 13.92 14.06 19.07 21.7 23.48 20.62 15.27"/><polygon class="cls-5" points="19.27 16.47 15.58 15.71 14.96 16.06 19.26 21.44 19.88 21.09 19.27 16.47"/><polygon class="cls-7" points="18.66 16.82 14.96 16.06 14.96 18.96 19.26 21.44 18.66 16.82"/><polygon class="cls-11" points="28.15 26.39 30.27 25.16 27.98 23.83 25.85 25.06 28.15 26.39"/><polygon class="cls-6" points="28.15 26.68 28.15 26.39 25.85 25.06 25.85 25.36 28.15 26.68"/><polygon class="cls-13" points="28.15 26.39 30.27 25.16 30.27 25.45 28.15 26.68 28.15 26.39"/><polygon class="cls-1" points="22.35 28.93 2.82 17.66 5.95 15.85 6.51 16.18 8.23 15.19 8.98 14.1 19.23 8.18 38.76 19.46 29.58 24.76 29.33 24.61 27.2 25.84 27.2 26.13 22.35 28.93"/><path class="cls-8" d="M22.76,19.66a.17.17,0,0,1-.09-.32l1.7-1a.18.18,0,0,1,.24.06.19.19,0,0,1-.07.24l-1.69,1A.15.15,0,0,1,22.76,19.66Z"/><path class="cls-8" d="M18,18.69a.16.16,0,0,1-.15-.09.18.18,0,0,1,.06-.24l1.69-1a.18.18,0,0,1,.24.06.18.18,0,0,1-.06.24l-1.7,1A.13.13,0,0,1,18,18.69Z"/><path class="cls-8" d="M13.28,17.74a.16.16,0,0,1-.15-.09.18.18,0,0,1,.06-.24l1.69-1a.18.18,0,0,1,.18.31l-1.7,1A.11.11,0,0,1,13.28,17.74Z"/><path class="cls-8" d="M8.5,16.76a.17.17,0,0,1-.09-.32l1.7-1a.18.18,0,0,1,.24.06.18.18,0,0,1-.07.24l-1.69,1Z"/><path class="cls-8" d="M36.4,11.79a.21.21,0,0,1-.16-.08.19.19,0,0,1,.07-.24l1.69-1a.49.49,0,0,0,.24-.31.54.54,0,0,0-.06-.39L34.73,4.14a1.68,1.68,0,0,0-.93-.65L33,3.34a.27.27,0,0,0-.27.05.29.29,0,0,0,0,.27L33.92,8.6a1.15,1.15,0,0,1-.52,1.21l-1.69,1a.18.18,0,0,1-.24-.06.18.18,0,0,1,.06-.24l1.7-1a.82.82,0,0,0,.36-.83l-1.2-4.94a.63.63,0,0,1,.13-.59A.61.61,0,0,1,33.11,3l.76.15A2,2,0,0,1,35,4l3.45,5.65a.87.87,0,0,1,.1.65.86.86,0,0,1-.4.53l-1.7,1Z"/><path class="cls-8" d="M26.9,9.87a.16.16,0,0,1-.15-.09.17.17,0,0,1,.07-.24l1.69-1a.52.52,0,0,0,.24-.32.5.5,0,0,0-.06-.38L25.24,2.22a1.63,1.63,0,0,0-.93-.65l-.76-.16a.32.32,0,0,0-.27.05.29.29,0,0,0,0,.28l1.19,4.94a1.15,1.15,0,0,1-.52,1.21l-1.7,1A.16.16,0,0,1,22,8.8.17.17,0,0,1,22,8.57l1.7-1a.81.81,0,0,0,.35-.83L22.9,1.82a.62.62,0,0,1,.13-.6.63.63,0,0,1,.59-.15l.76.16A2,2,0,0,1,25.54,2L29,7.69a.79.79,0,0,1,.1.65.85.85,0,0,1-.4.53L27,9.85Z"/><polygon class="cls-11" points="24.23 19.59 13.54 16.95 6.35 14.95 21.55 6.18 39.19 9.76 24.23 19.59"/><polygon class="cls-6" points="24.23 19.59 6.59 16 6.35 14.95 23.99 18.54 24.23 19.59"/><polygon class="cls-5" points="39.43 10.82 24.23 19.59 23.99 18.54 39.19 9.76 39.43 10.82"/><polygon class="cls-10" points="36.2 11.49 26.48 8.73 18.18 6.37 20.65 4.95 38.3 8.54 36.2 11.49"/><polygon class="cls-9" points="36.2 11.49 18.56 7.9 18.18 6.37 35.83 9.96 36.2 11.49"/><polygon class="cls-8" points="38.67 10.06 36.2 11.49 35.83 9.96 38.3 8.54 38.67 10.06"/><polygon class="cls-3" points="17.3 7.17 15.65 4.78 15.81 4.6 19.91 5.44 19.75 5.62 18.22 5.49 17.46 6.99 17.3 7.17"/><polygon class="cls-8" points="15.85 6.88 15.65 4.78 19.75 5.62 18.06 5.67 17.3 7.17 15.85 6.88"/><polygon class="cls-3" points="18.58 0.88 16.13 2.43 16.21 2.66 20.31 3.49 20.23 3.27 18.77 2.78 18.66 1.1 18.58 0.88"/><polygon class="cls-8" points="17.14 0.58 16.13 2.43 20.23 3.27 18.7 2.55 18.58 0.88 17.14 0.58"/><path class="cls-8" d="M14.72,5l.59-3.15-2.73-.13h0a.59.59,0,0,0-.53.24,1.87,1.87,0,0,0-.33,1.66A.6.6,0,0,0,12.1,4h0Z"/><path class="cls-7" d="M14.72,5a.83.83,0,0,1-.54-.58,2.52,2.52,0,0,1,.46-2.23.8.8,0,0,1,.67-.34L36,6,35.4,9.19Z"/><path class="cls-6" d="M21.71,5.92a2.53,2.53,0,0,1,.45-2.22.82.82,0,0,1,.69-.34h0l-.7-.14a.76.76,0,0,0-.67.33A2.48,2.48,0,0,0,21,5.78a.78.78,0,0,0,.53.58l.67.15A.83.83,0,0,1,21.71,5.92Z"/><path class="cls-6" d="M24.1,6.41a2.48,2.48,0,0,1,.45-2.23.8.8,0,0,1,.69-.33h0l-.7-.15a.81.81,0,0,0-.68.34,2.53,2.53,0,0,0-.45,2.22.79.79,0,0,0,.54.58l.66.15A.8.8,0,0,1,24.1,6.41Z"/><path class="cls-16" d="M35.45,9.19c.68.12,4.84.76,7.51-.1-2.15-1.86-6.31-2.9-6.9-3a.76.76,0,0,0-.79.31,2.48,2.48,0,0,0-.45,2.23C35,9,35.18,9.18,35.45,9.19Z"/><polygon class="cls-3" points="12.99 6.29 12.91 6.07 13.54 5.78 14.99 4.43 17.52 5.16 19.09 5.27 19.17 5.5 17.03 5.46 14.44 6.59 12.99 6.29"/><polygon class="cls-8" points="12.91 6.07 14.99 4.43 19.09 5.27 16.95 5.24 14.36 6.36 12.91 6.07"/><polygon class="cls-3" points="14.27 0 14.11 0.18 14.58 0.69 15.39 2.49 18 2.81 19.49 3.33 19.65 3.15 17.67 2.34 15.72 0.29 14.27 0"/><polygon class="cls-8" points="14.11 0.18 15.39 2.49 19.49 3.33 17.51 2.52 15.56 0.47 14.11 0.18"/><polygon class="cls-10" points="34.06 12.72 24.12 9.07 15.55 5.62 16.5 5.07 34.14 8.66 34.06 12.72"/><polygon class="cls-9" points="34.06 12.72 16.42 9.14 15.55 5.62 33.19 9.21 34.06 12.72"/><polygon class="cls-8" points="35 12.18 34.06 12.72 33.19 9.21 34.14 8.66 35 12.18"/><polygon class="cls-10" points="30.38 14.85 20.66 12.09 12.36 9.73 14.83 8.31 32.47 11.9 30.38 14.85"/><polygon class="cls-9" points="30.38 14.85 12.74 11.26 12.36 9.73 30 13.32 30.38 14.85"/><polygon class="cls-8" points="32.85 13.42 30.38 14.85 30 13.32 32.47 11.9 32.85 13.42"/><polygon class="cls-3" points="11.48 10.53 9.83 8.14 9.99 7.96 14.09 8.8 13.93 8.98 12.4 8.85 11.63 10.35 11.48 10.53"/><polygon class="cls-8" points="10.03 10.24 9.83 8.14 13.93 8.98 12.24 9.03 11.48 10.53 10.03 10.24"/><polygon class="cls-3" points="12.76 4.24 10.31 5.79 10.38 6.02 14.48 6.86 14.41 6.63 12.95 6.14 12.83 4.46 12.76 4.24"/><polygon class="cls-8" points="11.31 3.94 10.31 5.79 14.41 6.63 12.87 5.92 12.76 4.24 11.31 3.94"/><path class="cls-8" d="M8.9,8.33l.59-3.14L6.76,5.05h0a.61.61,0,0,0-.53.25A1.86,1.86,0,0,0,5.89,7a.63.63,0,0,0,.39.43h0Z"/><path class="cls-7" d="M8.9,8.33a.79.79,0,0,1-.54-.58,2.54,2.54,0,0,1,.45-2.23.77.77,0,0,1,.68-.33l20.64,4.2-.55,3.16Z"/><path class="cls-6" d="M15.89,9.29a2.51,2.51,0,0,1,.45-2.23A.85.85,0,0,1,17,6.72h0l-.7-.14a.8.8,0,0,0-.67.33,2.52,2.52,0,0,0-.46,2.23.79.79,0,0,0,.54.58l.66.15A.84.84,0,0,1,15.89,9.29Z"/><path class="cls-6" d="M18.27,9.77a2.54,2.54,0,0,1,.45-2.23.85.85,0,0,1,.69-.33h0l-.69-.15A.81.81,0,0,0,18,7.4a2.51,2.51,0,0,0-.45,2.23.82.82,0,0,0,.53.58l.67.14A.81.81,0,0,1,18.27,9.77Z"/><path class="cls-16" d="M29.63,12.55c.68.12,4.84.76,7.51-.1-2.15-1.86-6.32-2.9-6.9-3a.78.78,0,0,0-.8.31A2.55,2.55,0,0,0,29,12C29.12,12.34,29.36,12.54,29.63,12.55Z"/><polygon class="cls-3" points="7.17 9.65 7.09 9.43 7.72 9.14 9.17 7.8 11.7 8.52 13.27 8.63 13.35 8.86 11.21 8.82 8.61 9.95 7.17 9.65"/><polygon class="cls-8" points="7.09 9.43 9.17 7.8 13.27 8.63 11.13 8.6 8.54 9.72 7.09 9.43"/><polygon class="cls-3" points="8.45 3.36 8.29 3.54 8.76 4.05 9.56 5.85 12.18 6.17 13.66 6.69 13.82 6.51 11.84 5.71 9.89 3.65 8.45 3.36"/><polygon class="cls-8" points="8.29 3.54 9.56 5.85 13.66 6.69 11.69 5.88 9.73 3.83 8.29 3.54"/><polygon class="cls-10" points="28.2 16.11 18.26 12.45 9.7 9 10.64 8.46 28.28 12.04 28.2 16.11"/><polygon class="cls-9" points="28.2 16.11 10.56 12.52 9.7 9 27.34 12.59 28.2 16.11"/><polygon class="cls-8" points="29.15 15.56 28.2 16.11 27.34 12.59 28.28 12.04 29.15 15.56"/><polygon class="cls-10" points="24.56 18.21 14.84 15.45 6.54 13.1 9.01 11.67 26.65 15.26 24.56 18.21"/><polygon class="cls-9" points="24.56 18.21 6.92 14.62 6.54 13.1 24.18 16.68 24.56 18.21"/><polygon class="cls-8" points="27.03 16.79 24.56 18.21 24.18 16.68 26.65 15.26 27.03 16.79"/><polygon class="cls-3" points="5.65 13.89 4.01 11.5 4.17 11.32 8.27 12.16 8.11 12.34 6.58 12.22 5.81 13.71 5.65 13.89"/><polygon class="cls-8" points="4.21 13.6 4.01 11.5 8.11 12.34 6.42 12.39 5.65 13.89 4.21 13.6"/><polygon class="cls-3" points="6.93 7.6 4.49 9.16 4.56 9.38 8.66 10.22 8.59 9.99 7.13 9.5 7.01 7.83 6.93 7.6"/><polygon class="cls-8" points="5.49 7.3 4.49 9.16 8.59 9.99 7.05 9.28 6.93 7.6 5.49 7.3"/><path class="cls-8" d="M3.07,11.69l.6-3.14L.93,8.41h0a.63.63,0,0,0-.52.25,1.86,1.86,0,0,0-.34,1.66.59.59,0,0,0,.39.43h0Z"/><path class="cls-7" d="M3.07,11.69a.8.8,0,0,1-.53-.58A2.54,2.54,0,0,1,3,8.88a.82.82,0,0,1,.68-.33l20.64,4.2-.56,3.16Z"/><path class="cls-6" d="M10.07,12.65a2.48,2.48,0,0,1,.45-2.23.81.81,0,0,1,.69-.33h0l-.7-.14a.81.81,0,0,0-.68.34,2.52,2.52,0,0,0-.45,2.22.79.79,0,0,0,.54.58l.66.15A.82.82,0,0,1,10.07,12.65Z"/><path class="cls-6" d="M12.45,13.13a2.55,2.55,0,0,1,.45-2.23.85.85,0,0,1,.69-.33h0l-.69-.14a.77.77,0,0,0-.68.33A2.48,2.48,0,0,0,11.77,13a.8.8,0,0,0,.53.58l.67.14A.79.79,0,0,1,12.45,13.13Z"/><path class="cls-16" d="M23.81,15.91c.68.12,4.84.76,7.51-.1-2.15-1.86-6.32-2.9-6.9-3a.74.74,0,0,0-.8.31,2.53,2.53,0,0,0-.45,2.22C23.3,15.7,23.54,15.91,23.81,15.91Z"/><polygon class="cls-3" points="1.35 13.02 1.27 12.79 1.9 12.5 3.35 11.16 5.88 11.88 7.45 11.99 7.52 12.22 5.39 12.19 2.79 13.31 1.35 13.02"/><polygon class="cls-8" points="1.27 12.79 3.35 11.16 7.45 11.99 5.31 11.96 2.71 13.08 1.27 12.79"/><polygon class="cls-3" points="2.63 6.72 2.47 6.9 2.93 7.41 3.74 9.21 6.36 9.54 7.84 10.05 8 9.87 6.02 9.07 4.07 7.02 2.63 6.72"/><polygon class="cls-8" points="2.47 6.9 3.74 9.21 7.84 10.05 5.86 9.25 3.91 7.2 2.47 6.9"/><path class="cls-8" d="M22.41,19.76a.9.9,0,0,1-.76-.42L18.2,13.69a1.58,1.58,0,0,0-.93-.65l-.76-.16a.24.24,0,0,0-.31.33l1.19,4.94a.36.36,0,0,0,.19.25.34.34,0,0,0,.32,0,.18.18,0,0,1,.24.07.17.17,0,0,1-.07.23.67.67,0,0,1-1-.43l-1.19-4.94a.62.62,0,0,1,.13-.6.63.63,0,0,1,.59-.15l.76.16a2,2,0,0,1,1.16.81L22,19.15a.53.53,0,0,0,.72.19.17.17,0,1,1,.18.3A.88.88,0,0,1,22.41,19.76Z"/><path class="cls-8" d="M12.92,17.83a.88.88,0,0,1-.75-.42L8.72,11.76a1.71,1.71,0,0,0-.93-.65L7,11a.35.35,0,0,0-.28.05.32.32,0,0,0,0,.28l1.2,4.94a.33.33,0,0,0,.19.25.35.35,0,0,0,.31,0,.18.18,0,0,1,.24.06.18.18,0,0,1-.06.24.67.67,0,0,1-1-.44L6.38,11.36a.65.65,0,0,1,.12-.6.68.68,0,0,1,.6-.15l.76.16A2,2,0,0,1,9,11.58l3.45,5.65a.53.53,0,0,0,.73.18.17.17,0,0,1,.24.07.17.17,0,0,1-.07.23A.86.86,0,0,1,12.92,17.83Z"/><path class="cls-13" d="M32,26.08a1.1,1.1,0,0,0-1,0l-2.41,1.39-.51,0v.19h0a.33.33,0,0,0,.2.27l1.95,1.13a1.1,1.1,0,0,0,1,0l2.71-1.57a.35.35,0,0,0,.21-.29v-.19l-.42,0Z"/><path class="cls-11" d="M33.93,26.77,32,25.65a1.1,1.1,0,0,0-1,0l-2.71,1.56a.31.31,0,0,0,0,.58l1.95,1.13a1.1,1.1,0,0,0,1,0l2.71-1.57A.31.31,0,0,0,33.93,26.77Z"/><path class="cls-13" d="M33.58,26.84l-1.7-1a1,1,0,0,0-.88,0l-2.36,1.37a.29.29,0,0,0-.18.3.37.37,0,0,1,.18-.2L31,26a1,1,0,0,1,.88,0l1.7,1a.3.3,0,0,1,.17.2C33.78,27,33.72,26.93,33.58,26.84Z"/><path class="cls-14" d="M33.58,27l-1.7-1A1,1,0,0,0,31,26l-2.36,1.36a.37.37,0,0,0-.18.2.34.34,0,0,0,.18.2l1.7,1a1,1,0,0,0,.87,0l2.37-1.36a.31.31,0,0,0,.17-.2A.3.3,0,0,0,33.58,27Z"/><polygon class="cls-13" points="31.62 27.99 31.84 28.12 32.54 27.71 32.33 27.58 31.62 27.99"/><polygon class="cls-11" points="36.43 23.49 37.18 23.05 35.65 22.17 34.89 22.6 36.43 23.49"/><polygon class="cls-6" points="36.43 24.03 36.43 23.49 34.89 22.6 34.89 23.14 36.43 24.03"/><polygon class="cls-13" points="36.43 23.49 37.18 23.05 37.18 23.59 36.43 24.03 36.43 23.49"/><polygon class="cls-11" points="35.52 24.01 36.27 23.58 34.74 22.69 33.99 23.13 35.52 24.01"/><polygon class="cls-6" points="35.52 24.55 35.52 24.01 33.99 23.13 33.99 23.67 35.52 24.55"/><polygon class="cls-13" points="35.52 24.01 36.27 23.58 36.27 24.12 35.52 24.55 35.52 24.01"/><polygon class="cls-11" points="34.61 24.54 35.37 24.1 33.83 23.22 33.08 23.65 34.61 24.54"/><polygon class="cls-6" points="34.61 25.08 34.61 24.54 33.08 23.65 33.08 24.19 34.61 25.08"/><polygon class="cls-13" points="34.61 24.54 35.37 24.1 35.37 24.64 34.61 25.08 34.61 24.54"/><polygon class="cls-11" points="33.71 25.06 34.46 24.63 32.92 23.74 32.17 24.18 33.71 25.06"/><polygon class="cls-6" points="33.71 25.6 33.71 25.06 32.17 24.18 32.17 24.71 33.71 25.6"/><polygon class="cls-13" points="33.71 25.06 34.46 24.63 34.46 25.17 33.71 25.6 33.71 25.06"/><polygon class="cls-11" points="38.23 24.53 38.98 24.09 37.44 23.21 36.69 23.64 38.23 24.53"/><polygon class="cls-6" points="38.23 25.07 38.23 24.53 36.69 23.64 36.69 24.18 38.23 25.07"/><polygon class="cls-13" points="38.23 24.53 38.98 24.09 38.98 24.63 38.23 25.07 38.23 24.53"/><polygon class="cls-11" points="37.32 25.05 38.07 24.62 36.54 23.73 35.78 24.16 37.32 25.05"/><polygon class="cls-6" points="37.32 25.59 37.32 25.05 35.78 24.16 35.78 24.7 37.32 25.59"/><polygon class="cls-13" points="37.32 25.05 38.07 24.62 38.07 25.16 37.32 25.59 37.32 25.05"/><polygon class="cls-11" points="36.41 25.58 37.16 25.14 35.63 24.25 34.88 24.69 36.41 25.58"/><polygon class="cls-6" points="36.41 26.11 36.41 25.58 34.88 24.69 34.88 25.23 36.41 26.11"/><polygon class="cls-13" points="36.41 25.58 37.16 25.14 37.16 25.68 36.41 26.11 36.41 25.58"/><polygon class="cls-11" points="35.5 26.1 36.26 25.66 34.72 24.78 33.97 25.21 35.5 26.1"/><polygon class="cls-6" points="35.5 26.64 35.5 26.1 33.97 25.21 33.97 25.75 35.5 26.64"/><polygon class="cls-13" points="35.5 26.1 36.26 25.66 36.26 26.2 35.5 26.64 35.5 26.1"/><polygon class="cls-11" points="34 30.87 35.12 30.22 32.83 28.89 31.7 29.54 34 30.87"/><polygon class="cls-6" points="34 31.16 34 30.87 31.7 29.54 31.7 29.84 34 31.16"/><polygon class="cls-13" points="34 30.87 35.12 30.22 35.12 30.51 34 31.16 34 30.87"/><polygon class="cls-11" points="35.72 29.88 36.84 29.23 34.55 27.9 33.42 28.55 35.72 29.88"/><polygon class="cls-6" points="35.72 30.17 35.72 29.88 33.42 28.55 33.42 28.84 35.72 30.17"/><polygon class="cls-13" points="35.72 29.88 36.84 29.23 36.84 29.52 35.72 30.17 35.72 29.88"/><polygon class="cls-11" points="37.44 28.88 38.56 28.23 36.27 26.91 35.14 27.56 37.44 28.88"/><polygon class="cls-6" points="37.44 29.18 37.44 28.88 35.14 27.56 35.14 27.85 37.44 29.18"/><polygon class="cls-13" points="37.44 28.88 38.56 28.23 38.56 28.53 37.44 29.18 37.44 28.88"/><polygon class="cls-11" points="39.16 27.89 40.29 27.24 37.99 25.91 36.87 26.56 39.16 27.89"/><polygon class="cls-6" points="39.16 28.18 39.16 27.89 36.87 26.56 36.87 26.86 39.16 28.18"/><polygon class="cls-13" points="39.16 27.89 40.29 27.24 40.29 27.53 39.16 28.18 39.16 27.89"/><polygon class="cls-11" points="40.88 26.89 42.01 26.25 39.71 24.92 38.58 25.57 40.88 26.89"/><polygon class="cls-6" points="40.88 27.19 40.88 26.89 38.58 25.57 38.58 25.86 40.88 27.19"/><polygon class="cls-13" points="40.88 26.89 42.01 26.25 42.01 26.54 40.88 27.19 40.88 26.89"/><polygon class="cls-6" points="31.44 32.65 31.65 32.77 31.65 31.74 31.44 31.61 31.44 32.65"/><polygon class="cls-17" points="31.44 31.61 31.65 31.74 32.22 31.41 32.01 31.28 31.44 31.61"/><polygon class="cls-13" points="31.65 32.77 32.22 32.44 32.22 31.41 31.65 31.74 31.65 32.77"/><path class="cls-6" d="M32,30a1,1,0,1,0,1,1A1,1,0,0,0,32,30Z"/><path class="cls-13" d="M32.63,30.43a1.76,1.76,0,0,0-.79,1.37c0,.51.35.71.79.46a1.74,1.74,0,0,0,.79-1.37C33.42,30.39,33.07,30.18,32.63,30.43Z"/><path class="cls-11" d="M32.88,30.2a.56.56,0,0,0-.56.06,1.75,1.75,0,0,0-.79,1.37.54.54,0,0,0,.26.52h0l.28.16a.56.56,0,0,1-.23-.51,1.76,1.76,0,0,1,.79-1.37.58.58,0,0,1,.53-.06l-.28-.17Z"/><path class="cls-6" d="M33.06,30.56a.49.49,0,0,1,.14.38,1.39,1.39,0,0,1-.63,1.1.46.46,0,0,1-.43.05.41.41,0,0,0,.49,0A1.39,1.39,0,0,0,33.26,31,.44.44,0,0,0,33.06,30.56Z"/><path class="cls-18" d="M32.63,30.62A1.39,1.39,0,0,0,32,31.71a.46.46,0,0,0,.14.38.46.46,0,0,0,.43-.05,1.39,1.39,0,0,0,.63-1.1.49.49,0,0,0-.14-.38A.47.47,0,0,0,32.63,30.62Z"/><polygon class="cls-6" points="44.74 24.97 44.95 25.09 44.95 24.06 44.74 23.93 44.74 24.97"/><polygon class="cls-17" points="44.74 23.93 44.95 24.06 45.52 23.73 45.31 23.6 44.74 23.93"/><polygon class="cls-13" points="44.95 25.09 45.52 24.76 45.52 23.73 44.95 24.06 44.95 25.09"/><path class="cls-6" d="M45.3,22.27a1,1,0,1,0,1,1A1,1,0,0,0,45.3,22.27Z"/><path class="cls-13" d="M45.93,22.75a1.76,1.76,0,0,0-.79,1.37c0,.51.35.71.79.46a1.73,1.73,0,0,0,.79-1.37C46.72,22.71,46.37,22.5,45.93,22.75Z"/><path class="cls-11" d="M46.18,22.52a.56.56,0,0,0-.56.06A1.75,1.75,0,0,0,44.83,24a.54.54,0,0,0,.26.52h0l.28.16a.56.56,0,0,1-.23-.51,1.76,1.76,0,0,1,.79-1.37.6.6,0,0,1,.54-.06l-.29-.17Z"/><path class="cls-6" d="M46.36,22.88a.49.49,0,0,1,.14.38,1.39,1.39,0,0,1-.63,1.1.46.46,0,0,1-.43.05.41.41,0,0,0,.49,0,1.39,1.39,0,0,0,.63-1.09A.43.43,0,0,0,46.36,22.88Z"/><path class="cls-18" d="M45.93,22.94A1.39,1.39,0,0,0,45.3,24a.5.5,0,0,0,.14.38.46.46,0,0,0,.43-.05,1.39,1.39,0,0,0,.63-1.1.49.49,0,0,0-.14-.38A.47.47,0,0,0,45.93,22.94Z"/></g></g></svg>