<svg xmlns="http://www.w3.org/2000/svg" viewBox="0 0 52.19 40.72"><defs><style>.cls-1,.cls-3{fill:#121214;}.cls-1{opacity:0.3;}.cls-2{fill:#535359;}.cls-4{fill:#303033;}.cls-5{fill:#939598;}.cls-6{fill:#a7a9ac;}.cls-7{fill:#5d6e52;}.cls-8{fill:#4e5c44;}.cls-9{fill:#7b916d;}.cls-10{fill:#9cb88a;}.cls-11{fill:#ffec7a;}.cls-12{fill:#8aa37b;}.cls-13{opacity:0.1;}.cls-14{fill:#36402f;}.cls-15{fill:#575757;}.cls-16{fill:gray;}.cls-17{fill:#383838;}.cls-18{fill:#666;}.cls-19{fill:#adadad;}.cls-20{fill:#050505;}.cls-21{fill:#295e87;}.cls-22{fill:#798f6c;}.cls-23{fill:#abc997;}.cls-24{fill:#788f69;}.cls-25{fill:#003552;}</style></defs><g id="Слой_2" data-name="Слой 2"><g id="Layer_1" data-name="Layer 1"><polygon class="cls-1" points="0 21.57 33.24 40.72 51.67 30.15 18.43 11 0 21.57"/><polygon class="cls-2" points="36.89 22.52 37.22 22.13 36.75 22.37 36.89 22.52"/><polygon class="cls-2" points="36.49 23.79 36.82 23.41 36.35 23.65 36.49 23.79"/><polygon class="cls-2" points="36.62 25.46 36.95 25.07 36.48 25.31 36.62 25.46"/><polygon class="cls-2" points="38.87 29.42 39.25 29.2 38.73 29.28 38.87 29.42"/><polygon class="cls-2" points="40.23 30.35 40.61 30.13 40.02 30.08 40.23 30.35"/><polygon class="cls-2" points="41.55 30.63 42.27 30.23 41.33 30.37 41.55 30.63"/><path class="cls-3" d="M45.72,25.36h.16l-.29-.94-.15,0a6.88,6.88,0,0,0-.32-.74l.11-.07-.51-.89-.12.06a6.26,6.26,0,0,0-.49-.66l.06-.13-.68-.72-.06.13a5,5,0,0,0-.57-.46v-.17l-.73-.42v.17a3,3,0,0,0-.59-.21l0-.18-.68-.07.06.19a1.58,1.58,0,0,0-.49.1l-.1-.18-.52.3.11.18a1.55,1.55,0,0,0-.33.39l-.34-.15-1.57.95.94.05c0,.18.2.07.18.29l-.18.08L39,23l.16.09a5,5,0,0,0,.12.74l-.15,0,.28.95h.16a6.88,6.88,0,0,0,.32.74l-.12.07.52.9.12-.07c.16.23.32.45.49.65l-.06.15.67.71.07-.15c.19.16.37.32.56.45v.21l.6.45.14-.24c.19.08-.27.41-.08.46l-.48,1.05,1.54-.68.26-.57a1.86,1.86,0,0,0,.48-.1l.13.22.52-.3-.13-.22a1.64,1.64,0,0,0,.32-.37l.17.18.28-.63-.17-.17a3.43,3.43,0,0,0,.11-.59L46,27v-.84l-.17-.1A6.17,6.17,0,0,0,45.72,25.36Z"/><polygon class="cls-4" points="37.63 21.65 37.74 21.83 40.38 20.34 40.28 20.16 37.63 21.65"/><polygon class="cls-4" points="42.47 30 42.6 30.23 45.25 28.73 45.12 28.51 42.47 30"/><path class="cls-4" d="M43.07,26.85h.16L43,25.92l-.15,0c-.1-.25-.2-.5-.32-.74l.11-.06-.52-.9-.11.06c-.16-.23-.32-.45-.49-.66l.06-.13-.68-.72-.06.13a6.15,6.15,0,0,0-.58-.46v-.17l-.73-.43V22a2.91,2.91,0,0,0-.58-.21l-.06-.18-.67-.07,0,.19a1.52,1.52,0,0,0-.48.1l-.11-.18-.52.3.11.18a1.79,1.79,0,0,0-.33.39l-.14-.15-.27.62.14.15a2.67,2.67,0,0,0-.11.6l-.16-.09v.85l.16.09c0,.24.07.49.12.74l-.15,0,.29,1h.15a7,7,0,0,0,.33.74l-.12.07.51.9.13-.08a6.26,6.26,0,0,0,.49.66l-.07.15.68.71.07-.15a5.81,5.81,0,0,0,.56.45v.21l.73.42v-.21a3.91,3.91,0,0,0,.57.2l.07.23.68.06-.07-.23a1.79,1.79,0,0,0,.47-.1l.13.22.52-.29L42.47,30a2,2,0,0,0,.33-.37l.16.17.28-.62L43.07,29a2.68,2.68,0,0,0,.12-.59l.17.1v-.84l-.17-.1A4.63,4.63,0,0,0,43.07,26.85Z"/><path class="cls-3" d="M40.25,28.36a4.81,4.81,0,0,1-2.19-3.78,1.68,1.68,0,0,1,.46-1.29,1.42,1.42,0,0,0-.86,1.51,4.85,4.85,0,0,0,2.19,3.79,1.43,1.43,0,0,0,1.72,0A1.68,1.68,0,0,1,40.25,28.36Z"/><path class="cls-5" d="M39.85,23.54a1.7,1.7,0,0,0-1.33-.25,1.68,1.68,0,0,0-.46,1.29,4.81,4.81,0,0,0,2.19,3.78,1.68,1.68,0,0,0,1.32.25A1.67,1.67,0,0,0,42,27.33,4.82,4.82,0,0,0,39.85,23.54Z"/><path class="cls-2" d="M40.15,27a2.23,2.23,0,0,1-1-1.76.91.91,0,0,1,.09-.43.66.66,0,0,0-.4.7,2.28,2.28,0,0,0,1,1.76c.41.23.77.16.93-.16A.76.76,0,0,1,40.15,27Z"/><path class="cls-6" d="M39.85,24.89a.74.74,0,0,0-.62-.11.91.91,0,0,0-.09.43,2.23,2.23,0,0,0,1,1.76.76.76,0,0,0,.63.11,1.06,1.06,0,0,0,.09-.43A2.24,2.24,0,0,0,39.85,24.89Z"/><polygon class="cls-2" points="42.95 25.92 43.23 26.86 45.88 25.37 45.59 24.43 42.95 25.92"/><polygon class="cls-2" points="43.36 28.52 46.01 27.03 46.01 26.19 43.36 27.68 43.36 28.52"/><polygon class="cls-2" points="42.96 29.8 45.61 28.32 45.89 27.69 43.24 29.18 42.96 29.8"/><polygon class="cls-2" points="42.07 24.2 42.59 25.1 45.23 23.61 44.72 22.71 42.07 24.2"/><polygon class="cls-2" points="40.85 22.75 41.52 23.46 44.17 21.98 43.49 21.27 40.85 22.75"/><polygon class="cls-2" points="39.48 21.82 40.21 22.25 42.86 20.76 42.13 20.34 39.48 21.82"/><polygon class="cls-2" points="38.17 21.54 38.84 21.61 41.49 20.12 40.81 20.05 38.17 21.54"/><polygon class="cls-4" points="41.47 23.59 44.11 22.11 44.17 21.98 41.52 23.46 41.47 23.59"/><polygon class="cls-4" points="42.8 25.9 42.95 25.92 45.59 24.43 45.44 24.41 42.8 25.9"/><polygon class="cls-4" points="43.19 27.58 43.36 27.68 46.01 26.19 45.84 26.09 43.19 27.58"/><polygon class="cls-4" points="43.08 29.01 43.24 29.18 45.89 27.69 45.72 27.52 43.08 29.01"/><polygon class="cls-4" points="40.21 22.42 42.86 20.93 42.86 20.76 40.21 22.25 40.21 22.42"/><polygon class="cls-4" points="38.84 21.61 38.9 21.79 41.54 20.3 41.49 20.12 38.84 21.61"/><polygon points="4.06 16.39 33.14 33.18 33.14 29.47 4.06 12.68 4.06 16.39"/><polygon points="4.06 17.22 6.35 15.9 6.35 14.55 4.06 15.88 4.06 17.22"/><polygon points="24.53 29 26.82 27.68 26.82 26.34 24.53 27.66 24.53 29"/><polygon class="cls-2" points="24.7 29.6 25.03 29.21 24.57 29.45 24.7 29.6"/><polygon class="cls-2" points="24.3 30.88 24.63 30.49 24.16 30.73 24.3 30.88"/><polygon class="cls-2" points="24.43 32.54 24.76 32.15 24.3 32.39 24.43 32.54"/><polygon class="cls-2" points="26.68 36.5 27.06 36.28 26.54 36.36 26.68 36.5"/><polygon class="cls-2" points="28.04 37.43 28.42 37.21 27.83 37.17 28.04 37.43"/><polygon class="cls-2" points="29.36 37.72 30.08 37.31 29.14 37.45 29.36 37.72"/><path class="cls-3" d="M33.53,32.44h.16l-.28-.94-.16,0a7.87,7.87,0,0,0-.32-.74l.12-.06-.52-.9-.11.06a8.16,8.16,0,0,0-.5-.66l.06-.13-.68-.71-.05.12a6.15,6.15,0,0,0-.58-.46v-.17l-.73-.42v.17a2.94,2.94,0,0,0-.59-.2l-.05-.19-.68-.07.06.19a1.58,1.58,0,0,0-.49.1l-.1-.18-.52.3.11.18a1.55,1.55,0,0,0-.33.39L27,28l-1.57.95.94.05c-.05.18.21.07.19.29l-.19.08.43.76.16.09a5,5,0,0,0,.12.74l-.15,0,.28,1h.16a6.88,6.88,0,0,0,.32.74l-.12.07.52.9.13-.07a6.42,6.42,0,0,0,.48.65l-.06.15.67.71.07-.15a5.92,5.92,0,0,0,.57.45v.21l.59.45.14-.24c.2.09-.27.42-.08.46l-.48,1.05,1.54-.68.27-.57a1.52,1.52,0,0,0,.47-.1l.13.23.52-.3-.13-.23a1.64,1.64,0,0,0,.32-.37l.17.18.28-.63-.17-.17a4.56,4.56,0,0,0,.12-.58l.17.09v-.84l-.17-.1A6.52,6.52,0,0,0,33.53,32.44Z"/><polygon class="cls-4" points="25.44 28.73 25.55 28.91 28.19 27.42 28.09 27.24 25.44 28.73"/><polygon class="cls-4" points="30.28 37.08 30.41 37.31 33.06 35.82 32.93 35.59 30.28 37.08"/><path class="cls-4" d="M30.89,33.93H31L30.76,33l-.15,0a7.87,7.87,0,0,0-.32-.74l.11-.06-.52-.9-.11.06a8.05,8.05,0,0,0-.49-.66l.06-.13-.68-.72L28.6,30A6,6,0,0,0,28,29.5v-.17l-.74-.43v.18a2.35,2.35,0,0,0-.58-.2l-.06-.19L26,28.62l.05.19a1.86,1.86,0,0,0-.48.1l-.11-.18-.51.3.1.18a2.12,2.12,0,0,0-.33.39l-.13-.15-.28.62.14.15a3.56,3.56,0,0,0-.11.6l-.16-.09v.85l.17.09a6.62,6.62,0,0,0,.11.74l-.14,0,.28,1h.15a8.15,8.15,0,0,0,.33.75l-.12.06.52.9.12-.07a6.5,6.5,0,0,0,.49.65l-.07.15.68.71.07-.15a5.81,5.81,0,0,0,.56.45V37l.73.42v-.21a3.63,3.63,0,0,0,.58.2l.06.23.68.07-.07-.24a1.7,1.7,0,0,0,.47-.1l.13.23.52-.3-.13-.23a1.71,1.71,0,0,0,.33-.37l.16.18.28-.63-.16-.17A3.26,3.26,0,0,0,31,35.5l.17.11v-.85l-.17-.1A6.13,6.13,0,0,0,30.89,33.93Z"/><path class="cls-3" d="M28.06,35.44a4.81,4.81,0,0,1-2.19-3.78,1.68,1.68,0,0,1,.46-1.29c-.52.16-.85.69-.85,1.51a4.82,4.82,0,0,0,2.18,3.79,1.43,1.43,0,0,0,1.72,0A1.65,1.65,0,0,1,28.06,35.44Z"/><path class="cls-5" d="M27.66,30.62a1.7,1.7,0,0,0-1.33-.25,1.68,1.68,0,0,0-.46,1.29,4.81,4.81,0,0,0,2.19,3.78,1.65,1.65,0,0,0,1.32.25,1.67,1.67,0,0,0,.47-1.28A4.83,4.83,0,0,0,27.66,30.62Z"/><path class="cls-2" d="M28,34.05a2.22,2.22,0,0,1-1-1.76.91.91,0,0,1,.09-.43.66.66,0,0,0-.4.7,2.26,2.26,0,0,0,1,1.76c.41.24.77.16.93-.15A.78.78,0,0,1,28,34.05Z"/><path class="cls-6" d="M27.66,32a.77.77,0,0,0-.62-.11.91.91,0,0,0-.09.43,2.22,2.22,0,0,0,1,1.76.78.78,0,0,0,.62.12,1,1,0,0,0,.09-.44A2.24,2.24,0,0,0,27.66,32Z"/><polygon class="cls-2" points="30.76 33 31.04 33.94 33.69 32.45 33.41 31.51 30.76 33"/><polygon class="cls-2" points="31.17 35.6 33.82 34.12 33.82 33.27 31.17 34.76 31.17 35.6"/><polygon class="cls-2" points="30.77 36.89 33.42 35.4 33.7 34.77 31.05 36.26 30.77 36.89"/><polygon class="cls-2" points="29.88 31.28 30.4 32.18 33.05 30.69 32.53 29.79 29.88 31.28"/><polygon class="cls-2" points="28.66 29.84 29.34 30.55 31.98 29.06 31.3 28.35 28.66 29.84"/><polygon class="cls-2" points="27.29 28.9 28.03 29.33 30.67 27.84 29.94 27.42 27.29 28.9"/><polygon class="cls-2" points="25.98 28.62 26.65 28.69 29.3 27.2 28.62 27.13 25.98 28.62"/><polygon class="cls-4" points="29.28 30.68 31.92 29.19 31.98 29.06 29.34 30.55 29.28 30.68"/><polygon class="cls-4" points="30.61 32.98 30.76 33 33.41 31.51 33.25 31.5 30.61 32.98"/><polygon class="cls-4" points="31 34.66 31.17 34.76 33.82 33.27 33.65 33.17 31 34.66"/><polygon class="cls-4" points="30.89 36.09 31.05 36.26 33.7 34.77 33.53 34.6 30.89 36.09"/><polygon class="cls-4" points="28.03 29.5 30.67 28.01 30.67 27.84 28.03 29.33 28.03 29.5"/><polygon class="cls-4" points="26.65 28.69 26.71 28.88 29.35 27.39 29.3 27.2 26.65 28.69"/><polygon class="cls-2" points="5.81 18.69 6.14 18.31 5.68 18.55 5.81 18.69"/><polygon class="cls-2" points="5.41 19.97 5.74 19.59 5.28 19.83 5.41 19.97"/><polygon class="cls-2" points="5.54 21.63 5.87 21.25 5.41 21.49 5.54 21.63"/><polygon class="cls-2" points="7.79 25.6 8.17 25.38 7.66 25.46 7.79 25.6"/><polygon class="cls-2" points="9.16 26.53 9.54 26.31 8.94 26.26 9.16 26.53"/><polygon class="cls-2" points="10.47 26.81 11.2 26.4 10.26 26.55 10.47 26.81"/><path class="cls-3" d="M14.64,21.53l.16,0-.28-.94-.15,0c-.1-.25-.21-.5-.33-.74l.12-.07-.52-.89-.11.06a8.33,8.33,0,0,0-.5-.67l.06-.13-.67-.71-.06.13a5.75,5.75,0,0,0-.57-.46v-.18l-.74-.42v.17a4,4,0,0,0-.58-.2l-.06-.19-.68-.06.06.19a2,2,0,0,0-.49.09l-.1-.17-.52.3.11.18a1.74,1.74,0,0,0-.33.38l-.33-.14L6.56,18l.94.05c-.06.19.2.08.18.3l-.18.08.42.75.16.1A6.17,6.17,0,0,0,8.2,20H8.05l.29.94.15,0a6.88,6.88,0,0,0,.32.74l-.11.07.51.89.13-.07a6.26,6.26,0,0,0,.49.66l-.07.15.68.71.07-.15c.18.16.37.31.56.45v.2l.59.45.14-.24c.2.09-.27.42-.08.46l-.48,1.06,1.54-.69.27-.57a1.86,1.86,0,0,0,.47-.09l.13.22.52-.3L14,24.69a1.7,1.7,0,0,0,.32-.38l.17.18.28-.62-.17-.17a3.62,3.62,0,0,0,.12-.59l.17.1v-.85l-.17-.09A5,5,0,0,0,14.64,21.53Z"/><polygon class="cls-4" points="6.56 17.83 6.66 18 9.3 16.51 9.2 16.34 6.56 17.83"/><polygon class="cls-4" points="11.39 26.18 11.52 26.4 14.17 24.91 14.04 24.69 11.39 26.18"/><path class="cls-4" d="M12,23l.15,0-.28-.95h-.15a6.88,6.88,0,0,0-.32-.74l.11-.07-.52-.9-.11.07a8.22,8.22,0,0,0-.49-.67l.06-.13-.68-.71-.06.13a4.1,4.1,0,0,0-.57-.46v-.17L8.41,18v.17a3.16,3.16,0,0,0-.59-.2l-.06-.19-.67-.06,0,.19a1.86,1.86,0,0,0-.48.09l-.1-.17-.52.3.1.18a2,2,0,0,0-.33.38l-.13-.14-.28.62.14.15a3.38,3.38,0,0,0-.11.6l-.15-.09v.84l.16.1a6.13,6.13,0,0,0,.11.73H5.41l.28.94.15,0c.1.25.21.5.33.74l-.12.07.52.89.12-.07c.16.23.32.45.49.66l-.07.15.68.71.07-.15c.18.16.37.31.56.45v.2l.74.43v-.21a3.18,3.18,0,0,0,.57.19l.07.23.67.07-.07-.24a1.86,1.86,0,0,0,.48-.09l.12.22.52-.3-.13-.22a1.65,1.65,0,0,0,.33-.37l.16.17.28-.62L12,25.18a3.32,3.32,0,0,0,.11-.58l.18.1v-.84l-.18-.1A6.29,6.29,0,0,0,12,23Z"/><path class="cls-3" d="M9.17,24.54A4.83,4.83,0,0,1,7,20.75a1.67,1.67,0,0,1,.47-1.28c-.53.16-.86.69-.86,1.51a4.83,4.83,0,0,0,2.18,3.78,1.43,1.43,0,0,0,1.73,0A1.7,1.7,0,0,1,9.17,24.54Z"/><path class="cls-5" d="M8.77,19.72a1.69,1.69,0,0,0-1.32-.25A1.67,1.67,0,0,0,7,20.75a4.83,4.83,0,0,0,2.19,3.79,1.7,1.7,0,0,0,1.33.25A1.68,1.68,0,0,0,11,23.5,4.81,4.81,0,0,0,8.77,19.72Z"/><path class="cls-2" d="M9.08,23.15a2.26,2.26,0,0,1-1-1.76A1,1,0,0,1,8.15,21a.66.66,0,0,0-.39.7,2.23,2.23,0,0,0,1,1.76c.41.24.77.17.93-.15A.77.77,0,0,1,9.08,23.15Z"/><path class="cls-6" d="M8.77,21.07A.78.78,0,0,0,8.15,21a1,1,0,0,0-.09.44,2.26,2.26,0,0,0,1,1.76.77.77,0,0,0,.62.11.91.91,0,0,0,.09-.43A2.22,2.22,0,0,0,8.77,21.07Z"/><polygon class="cls-2" points="11.87 22.09 12.15 23.04 14.8 21.55 14.52 20.61 11.87 22.09"/><polygon class="cls-2" points="12.29 24.7 14.93 23.21 14.93 22.36 12.29 23.86 12.29 24.7"/><polygon class="cls-2" points="11.88 25.98 14.53 24.49 14.81 23.87 12.16 25.36 11.88 25.98"/><polygon class="cls-2" points="10.99 20.37 11.51 21.27 14.16 19.78 13.64 18.89 10.99 20.37"/><polygon class="cls-2" points="9.77 18.93 10.45 19.64 13.09 18.16 12.42 17.44 9.77 18.93"/><polygon class="cls-2" points="8.41 18 9.14 18.43 11.79 16.93 11.05 16.51 8.41 18"/><polygon class="cls-2" points="7.09 17.72 7.76 17.78 10.41 16.29 9.73 16.23 7.09 17.72"/><polygon class="cls-4" points="10.39 19.77 13.03 18.28 13.09 18.16 10.45 19.64 10.39 19.77"/><polygon class="cls-4" points="11.72 22.08 11.87 22.09 14.52 20.61 14.37 20.59 11.72 22.08"/><polygon class="cls-4" points="12.11 23.75 12.29 23.86 14.93 22.36 14.76 22.27 12.11 23.75"/><polygon class="cls-4" points="12 25.18 12.16 25.36 14.81 23.87 14.64 23.7 12 25.18"/><polygon class="cls-4" points="9.14 18.6 11.79 17.11 11.79 16.93 9.14 18.43 9.14 18.6"/><polygon class="cls-4" points="7.76 17.78 7.82 17.97 10.47 16.48 10.41 16.29 7.76 17.78"/><polygon class="cls-7" points="36.96 30.45 33.75 32.37 36.96 35.39 50.91 27.34 50.91 22.4 36.96 30.45"/><path class="cls-8" d="M49.7,23.64a2.16,2.16,0,0,0-1,1.7c0,.62.44.87,1,.56a2.16,2.16,0,0,0,1-1.7C50.68,23.58,50.24,23.32,49.7,23.64Z"/><path class="cls-9" d="M50.22,23.47a.68.68,0,0,0-.69.07,2.16,2.16,0,0,0-1,1.7.67.67,0,0,0,.32.65L49,26a.69.69,0,0,1-.28-.63,2.16,2.16,0,0,1,1-1.7.71.71,0,0,1,.66-.09l-.14-.08Z"/><path class="cls-10" d="M50.23,23.8a.59.59,0,0,1,.18.47,1.72,1.72,0,0,1-.79,1.36.58.58,0,0,1-.53.06.53.53,0,0,0,.61,0,1.71,1.71,0,0,0,.78-1.35A.54.54,0,0,0,50.23,23.8Z"/><path class="cls-11" d="M49.7,23.87a1.72,1.72,0,0,0-.78,1.35.58.58,0,0,0,.17.47.58.58,0,0,0,.53-.06,1.72,1.72,0,0,0,.79-1.36.59.59,0,0,0-.18-.47A.56.56,0,0,0,49.7,23.87Z"/><path class="cls-8" d="M38.62,30a2.16,2.16,0,0,0-1,1.69c0,.63.44.88,1,.57a2.16,2.16,0,0,0,1-1.7C39.6,30,39.16,29.72,38.62,30Z"/><path class="cls-9" d="M39.14,29.87a.68.68,0,0,0-.69.07,2.16,2.16,0,0,0-1,1.7.67.67,0,0,0,.32.65l.13.08a.72.72,0,0,1-.28-.64,2.16,2.16,0,0,1,1-1.69.71.71,0,0,1,.66-.09l-.14-.08Z"/><path class="cls-10" d="M39.15,30.2a.59.59,0,0,1,.18.47A1.71,1.71,0,0,1,38.54,32a.56.56,0,0,1-.53.07.53.53,0,0,0,.61,0,1.72,1.72,0,0,0,.78-1.35A.53.53,0,0,0,39.15,30.2Z"/><path class="cls-11" d="M38.62,30.26a1.76,1.76,0,0,0-.78,1.36.58.58,0,0,0,.17.47.56.56,0,0,0,.53-.07,1.71,1.71,0,0,0,.79-1.35.59.59,0,0,0-.18-.47A.58.58,0,0,0,38.62,30.26Z"/><polygon class="cls-12" points="23.77 0 9.82 8.05 7.96 10.03 2.09 9.38 16.03 1.33 23.77 0"/><polygon class="cls-9" points="36.96 30.45 26.96 22.7 23.62 16.93 20.15 14.01 9.82 8.05 2.09 9.38 2.09 14.8 4.03 17.16 5.87 18.21 6.83 15.51 11.71 18.33 12.67 22.14 24.79 29.14 25.1 28.38 27.15 26.86 30.75 29.6 31.99 31.54 31.99 33.3 32.63 33.67 36.96 35.39 36.96 30.45"/><path class="cls-7" d="M12.29,15.47h0v-4l-4.39-1v4h0a.31.31,0,0,0,.16.21l2.53,1.46a.81.81,0,0,0,.74,0l.8-.46a.26.26,0,0,0,.16-.21Z"/><path class="cls-13" d="M11.33,11.24v4.9l.8-.46a.26.26,0,0,0,.16-.21h0v-4Z"/><path class="cls-10" d="M11.33,12.13a.87.87,0,0,1-.74,0L8.06,10.66c-.21-.12-.21-.31,0-.43l.8-.46a.87.87,0,0,1,.74,0l2.53,1.46c.21.12.21.32,0,.43Z"/><path class="cls-14" d="M8.3,14a.24.24,0,0,0,.08.09.12.12,0,0,0,.08,0l.42-.24h0L9,13.85a.59.59,0,0,0,.17.15l.51.3a.41.41,0,0,0,.17,0l.48.84a.38.38,0,0,0,.09.09h0a.18.18,0,0,0,0-.15l-.49-.85a.29.29,0,0,0,0-.17v-.58a.65.65,0,0,0,0-.19l.5-.29s0-.11,0-.19-.11-.11-.15-.1h0L9.82,13l-.07.05a.75.75,0,0,0-.19-.17l-.51-.29a.29.29,0,0,0-.19,0l-.48-.83a.2.2,0,0,0-.11-.1.17.17,0,0,0,0,.15l.5.85a.33.33,0,0,0,0,.15v.59a.51.51,0,0,0,0,.2l-.5.29C8.25,13.88,8.25,14,8.3,14ZM8.92,13c0-.07,0-.11.08-.1s.07-.06.13,0l.51.3a.29.29,0,0,1,.14.24V14c0,.06,0,.1-.09.09s-.07.06-.13,0l-.51-.3a.3.3,0,0,1-.13-.23Z"/><path class="cls-10" d="M8.88,13.9a.8.8,0,0,0,.17.15l.51.29a.41.41,0,0,0,.17.05l.49.85a.15.15,0,0,0,.08.08s.06,0,.08,0,0,0,0,0h0a.38.38,0,0,1-.09-.09l-.48-.84a.41.41,0,0,1-.17,0L9.13,14A.59.59,0,0,1,9,13.85Z"/><path class="cls-10" d="M8.22,14.08s.06.08.09.09a.08.08,0,0,0,.08,0l.07,0a.12.12,0,0,1-.08,0A.24.24,0,0,1,8.3,14c-.05-.08-.05-.16,0-.19l.5-.29a.51.51,0,0,1,0-.2v-.59a.33.33,0,0,1,0-.15l-.5-.85a.17.17,0,0,1,0-.15h0c-.05,0-.05.11,0,.19l.49.86a.32.32,0,0,0,0,.14v.59a.52.52,0,0,0,0,.21l-.5.28S8.18,14,8.22,14.08Z"/><path class="cls-10" d="M8.94,12.88s0,0,.11,0l.51.29a.3.3,0,0,1,.14.24V14a.12.12,0,0,1,0,.09A.12.12,0,0,0,9.78,14v-.59a.29.29,0,0,0-.14-.24l-.51-.3A.13.13,0,0,0,8.94,12.88Z"/><path class="cls-15" d="M11.65,11.22h0a.39.39,0,0,0-.14-.15.85.85,0,0,0-.73,0,.32.32,0,0,0-.14.15h0v.33a.27.27,0,0,0,.15.21.79.79,0,0,0,.73,0,.27.27,0,0,0,.15-.21Z"/><path class="cls-16" d="M11.5,11.44a.85.85,0,0,1-.73,0,.23.23,0,0,1,0-.43.85.85,0,0,1,.73,0A.23.23,0,0,1,11.5,11.44Z"/><path class="cls-17" d="M11.55,11.25a.26.26,0,0,0-.12-.14.68.68,0,0,0-.59,0,.22.22,0,0,0-.12.14.21.21,0,0,1,.12-.2.68.68,0,0,1,.59,0A.21.21,0,0,1,11.55,11.25Z"/><path class="cls-15" d="M11.55,11.25a.26.26,0,0,1-.12.14.62.62,0,0,1-.59,0,.22.22,0,0,1-.12-.14.22.22,0,0,1,.12-.14.68.68,0,0,1,.59,0A.26.26,0,0,1,11.55,11.25Z"/><polygon class="cls-18" points="2.9 15.28 3.54 14.91 3.54 13.05 2.41 13.08 2.9 15.28"/><polygon class="cls-19" points="2.09 11.47 0.81 12.21 2.9 13.41 3.54 13.05 2.09 12.21 2.09 11.47"/><polygon class="cls-16" points="0.81 14.07 2.9 15.28 2.9 13.41 0.81 12.21 0.81 14.07"/><path class="cls-8" d="M15.71,16.71c-.07,0-.13,0-.13.07h0a.32.32,0,0,0,.13.23l.44.25c.08.05.14,0,.14-.07h0a.29.29,0,0,0-.14-.23Z"/><path class="cls-8" d="M21.16,19.85c-.07,0-.13,0-.13.08h0a.29.29,0,0,0,.13.22l.44.26c.08,0,.14,0,.14-.08h0a.29.29,0,0,0-.14-.23Z"/><path class="cls-8" d="M24,18.05a3.13,3.13,0,0,0-.87-.9L21.1,16c-.33-.19-.6,0-.6.34V24.1a1.32,1.32,0,0,0,.6,1L23,26.19a.88.88,0,0,0,.85.07l1.53-1a1,1,0,0,0,.35-.79V21.39a2.83,2.83,0,0,0-.37-1.19Zm1.41,6.28a.84.84,0,0,1-.28.64l-1.53,1a.77.77,0,0,1-.67-.05L21.1,24.84a.77.77,0,0,1-.35-.6V16.46c0-.22.16-.31.35-.2l2,1.18a2.54,2.54,0,0,1,.7.72l1.28,2.15a2.2,2.2,0,0,1,.3.94Z"/><polygon class="cls-18" points="15.33 13.55 18.7 17.74 19.07 17.53 19.07 15.29 15.7 13.34 15.33 13.55"/><polygon class="cls-17" points="15.33 15.8 18.7 17.74 18.7 15.5 15.33 13.55 15.33 15.8"/><polygon class="cls-20" points="16 14.4 15.71 14.23 15.71 15.56 18.28 17.05 18.28 16.71 16 15.39 16 14.4"/><polygon class="cls-21" points="16 15.39 18.28 16.71 18.28 15.72 16 14.4 16 15.39"/><polygon class="cls-18" points="20.9 16.61 20.53 16.82 23.24 20.37 24.93 22.41 25.3 22.2 25.3 21.02 23.62 18.18 20.9 16.61"/><polygon class="cls-17" points="20.53 16.82 20.53 18.6 22.87 20.58 23.42 21.54 24.93 22.41 24.93 21.24 23.25 18.39 20.53 16.82"/><polygon class="cls-20" points="23.27 20.21 21.08 18.26 21.08 17.45 20.78 17.28 20.78 18.43 22.97 20.39 23.52 21.33 24.54 21.91 24.54 21.57 23.82 21.16 23.27 20.21"/><polygon class="cls-21" points="21.08 17.45 21.08 18.26 23.27 20.21 23.82 21.16 24.54 21.57 24.54 21.16 22.9 18.5 21.08 17.45"/><path class="cls-8" d="M19.19,14.9l-3.62-2.09c-.32-.18-.57,0-.57.33v7.78a1.24,1.24,0,0,0,.57,1L19.19,24c.31.18.56,0,.56-.33V15.88A1.25,1.25,0,0,0,19.19,14.9Zm.31,8.62c0,.2-.14.28-.31.18l-3.62-2.09a.69.69,0,0,1-.32-.55V13.28c0-.2.14-.28.32-.18l3.62,2.09a.69.69,0,0,1,.31.54Z"/><polygon class="cls-16" points="34.49 32.77 34.49 34.8 37.19 36.35 37.19 34.33 34.49 32.77"/><polygon class="cls-19" points="50.9 25.49 36.96 33.54 35.06 32.44 34.49 32.77 37.19 34.33 52.2 25.66 50.91 24.74 50.9 25.49"/><polygon class="cls-18" points="37.19 34.33 37.19 36.35 52.19 27.69 52.2 25.66 37.19 34.33"/><polygon class="cls-18" points="6.42 14.63 5.67 15.06 4.95 17.29 5.11 18.65 5.87 18.21 6.67 15.96 11.08 18.49 12.81 23.1 13.57 22.66 12.03 17.86 6.42 14.63"/><polygon class="cls-17" points="5.67 15.06 4.19 17.73 4.81 18.47 5.11 18.65 6.08 15.95 10.96 18.76 11.92 22.58 12.81 23.1 11.28 18.3 5.67 15.06"/><polygon class="cls-18" points="26.8 25.82 26.05 26.25 24.19 28.16 24.04 29.57 24.79 29.14 25.1 28.38 26.8 27.12 30.05 29.68 31.45 31.89 31.73 34.01 32.48 33.58 32.48 31.57 30.97 29.06 26.8 25.82"/><polygon class="cls-17" points="26.05 26.25 23.66 27.91 23.2 29.09 24.04 29.57 24.35 28.81 26.4 27.29 30 30.03 31.24 31.98 31.24 33.73 31.73 34.01 31.73 32 30.22 29.5 26.05 26.25"/><polygon class="cls-10" points="9.82 8.05 20.15 14.01 29.36 11.27 34.09 5.96 23.77 0 9.82 8.05"/><path class="cls-22" d="M27.53,3.59,24.94,2.1a1.48,1.48,0,0,0-1.33,0L20,4.18a.51.51,0,0,0-.27.3.56.56,0,0,0,.27.31L22.6,6.28a1.48,1.48,0,0,0,1.33,0l3.6-2.07a.56.56,0,0,0,.27-.31A.56.56,0,0,0,27.53,3.59Z"/><path class="cls-7" d="M19.06,5.45a1.67,1.67,0,0,0-1.48,0L14,7.5l-.74,0v.66h0a.52.52,0,0,0,.3.39l2.86,1.65a1.61,1.61,0,0,0,1.48,0l4-2.29a.52.52,0,0,0,.3-.43V6.88l-.62,0Z"/><path class="cls-23" d="M21.92,6.47,19.06,4.82a1.61,1.61,0,0,0-1.48,0l-4,2.29a.45.45,0,0,0,0,.85l2.86,1.66a1.67,1.67,0,0,0,1.48,0l4-2.3A.45.45,0,0,0,21.92,6.47Z"/><path class="cls-7" d="M21.4,6.57,18.9,5.13a1.44,1.44,0,0,0-1.28,0l-3.47,2c-.21.12-.3.28-.26.44a.48.48,0,0,1,.26-.29l3.47-2a1.44,1.44,0,0,1,1.28,0l2.5,1.44a.49.49,0,0,1,.26.3A.42.42,0,0,0,21.4,6.57Z"/><path class="cls-10" d="M21.4,6.72,18.9,5.28a1.44,1.44,0,0,0-1.28,0l-3.47,2a.48.48,0,0,0-.26.29.52.52,0,0,0,.26.3l2.49,1.44a1.46,1.46,0,0,0,1.29,0l3.47-2A.5.5,0,0,0,21.66,7,.49.49,0,0,0,21.4,6.72Z"/><polygon class="cls-7" points="18.4 8.25 18.73 8.44 19.75 7.84 19.43 7.66 18.4 8.25"/><polygon class="cls-10" points="26.96 22.7 36.96 30.45 50.9 22.4 40.9 14.65 36.03 19.89 26.96 22.7"/><polygon class="cls-22" points="32.89 14.65 37.59 8.86 34.12 5.94 29.36 11.27 29.86 13.54 32.89 14.65"/><polygon class="cls-12" points="29.36 11.27 20.15 14.01 23.62 16.93 32.69 14.13 29.36 11.27"/><polygon class="cls-8" points="36.03 19.89 40.9 14.65 37.56 8.88 32.69 14.13 33.04 16.26 36.03 19.89"/><polygon class="cls-7" points="32.69 14.13 23.62 16.93 26.96 22.7 36.03 19.89 32.69 14.13"/><polygon class="cls-24" points="39.93 14.67 36.28 18.59 35.88 17.9 39.25 14.28 37.15 10.66 37.42 10.36 39.93 14.67"/><polygon class="cls-25" points="39.25 14.28 35.88 17.9 33.78 14.28 37.15 10.66 39.25 14.28"/><polygon class="cls-24" points="34.67 19.52 27.89 21.62 27.59 21.11 33.99 19.13 31.79 15.33 32.17 15.21 34.67 19.52"/><polygon class="cls-25" points="33.99 19.13 27.59 21.11 25.39 17.3 31.79 15.33 33.99 19.13"/><polygon class="cls-18" points="32.71 16.13 25.93 18.23 25.72 17.87 32.13 15.89 32.71 16.13"/><polygon class="cls-15" points="37.95 11.28 34.32 15.22 34.12 14.86 37.47 11.23 37.95 11.28"/><polygon class="cls-15" points="38.45 12.13 34.82 16.07 34.61 15.72 37.97 12.08 38.45 12.13"/><polygon class="cls-15" points="38.94 12.98 35.31 16.93 35.11 16.57 38.46 12.93 38.94 12.98"/><polygon class="cls-15" points="39.44 13.84 35.81 17.78 35.6 17.42 38.96 13.78 39.44 13.84"/><polygon class="cls-18" points="33.2 16.96 26.41 19.06 26.2 18.7 32.61 16.73 33.2 16.96"/><polygon class="cls-18" points="33.68 17.8 26.89 19.9 26.69 19.54 33.09 17.57 33.68 17.8"/><polygon class="cls-18" points="34.16 18.64 27.38 20.73 27.17 20.38 33.58 18.4 34.16 18.64"/><polygon class="cls-9" points="29.91 6.84 30.15 6.98 30.15 5.83 29.91 5.69 29.91 6.84"/><polygon class="cls-2" points="29.91 5.69 30.15 5.83 30.79 5.46 30.55 5.32 29.91 5.69"/><polygon class="cls-7" points="30.15 6.98 30.79 6.61 30.79 5.46 30.15 5.83 30.15 6.98"/><path class="cls-9" d="M30.54,3.83a1.1,1.1,0,1,0,1.1,1.1A1.1,1.1,0,0,0,30.54,3.83Z"/><path class="cls-7" d="M31.25,4.37a2,2,0,0,0-.89,1.53c0,.56.4.79.89.51a2,2,0,0,0,.88-1.53C32.13,4.31,31.73,4.09,31.25,4.37Z"/><path class="cls-10" d="M31.52,4.1a.62.62,0,0,0-.62.07A2,2,0,0,0,30,5.7a.62.62,0,0,0,.28.59h0l.32.18a.62.62,0,0,1-.26-.57,2,2,0,0,1,.89-1.53.63.63,0,0,1,.59-.08l-.31-.18Z"/><path class="cls-9" d="M31.72,4.51a.52.52,0,0,1,.16.43,1.54,1.54,0,0,1-.7,1.22.51.51,0,0,1-.48.06.46.46,0,0,0,.55,0A1.54,1.54,0,0,0,32,5,.49.49,0,0,0,31.72,4.51Z"/><path class="cls-11" d="M31.25,4.57a1.59,1.59,0,0,0-.71,1.23.53.53,0,0,0,.16.42.51.51,0,0,0,.48-.06,1.54,1.54,0,0,0,.7-1.22.52.52,0,0,0-.16-.43A.52.52,0,0,0,31.25,4.57Z"/><polygon class="cls-9" points="21.03 11.97 21.27 12.11 21.27 10.95 21.03 10.82 21.03 11.97"/><polygon class="cls-2" points="21.03 10.82 21.27 10.95 21.91 10.58 21.67 10.45 21.03 10.82"/><polygon class="cls-7" points="21.27 12.11 21.91 11.74 21.91 10.58 21.27 10.95 21.27 12.11"/><path class="cls-9" d="M21.66,9a1.1,1.1,0,1,0,1.1,1.09A1.09,1.09,0,0,0,21.66,9Z"/><path class="cls-7" d="M22.37,9.5A1.94,1.94,0,0,0,21.48,11c0,.56.4.79.89.51A2,2,0,0,0,23.25,10C23.25,9.44,22.85,9.21,22.37,9.5Z"/><path class="cls-10" d="M22.65,9.23A.64.64,0,0,0,22,9.3a1.93,1.93,0,0,0-.88,1.53.63.63,0,0,0,.28.59h0l.32.18a.63.63,0,0,1-.26-.57,1.94,1.94,0,0,1,.89-1.53A.6.6,0,0,1,23,9.42l-.31-.19Z"/><path class="cls-9" d="M22.85,9.64a.53.53,0,0,1,.16.42,1.57,1.57,0,0,1-.71,1.23.53.53,0,0,1-.48.06.46.46,0,0,0,.55,0,1.54,1.54,0,0,0,.7-1.22A.48.48,0,0,0,22.85,9.64Z"/><path class="cls-11" d="M22.37,9.7a1.57,1.57,0,0,0-.71,1.22.54.54,0,0,0,.16.43.53.53,0,0,0,.48-.06A1.57,1.57,0,0,0,23,10.06a.53.53,0,0,0-.16-.42A.51.51,0,0,0,22.37,9.7Z"/><polygon class="cls-7" points="48.36 23.55 40.42 28.14 40.42 32.07 48.36 27.48 48.36 23.55"/><polygon class="cls-23" points="40.42 28.14 26.96 22.7 36.03 19.89 40.9 14.65 48.36 23.55 40.42 28.14"/><polygon class="cls-9" points="39.96 28.72 26.96 22.7 40.42 28.14 39.96 28.72"/><polygon class="cls-9" points="40.42 32.07 39.96 31.8 39.96 28.37 40.42 28.14 40.42 32.07"/><path class="cls-9" d="M41.77,28.29v2.13a.51.51,0,0,1-.23.4c-.1.06-.19,0-.22-.07l.07,0a.54.54,0,0,0,.23-.4V28.2s0-.05,0-.07S41.77,28.17,41.77,28.29Z"/><path class="cls-17" d="M41.62,28.2v2.13a.54.54,0,0,1-.23.4l-.07,0s0,0,0-.07V28.55a.52.52,0,0,1,.23-.39s0,0,.07,0S41.62,28.17,41.62,28.2Z"/><path class="cls-9" d="M42.72,27.74v2.13a.49.49,0,0,1-.23.4c-.1.06-.19,0-.22-.06l.07,0a.53.53,0,0,0,.22-.4v-2.2C42.65,27.56,42.72,27.62,42.72,27.74Z"/><path class="cls-17" d="M42.56,27.65v2.13a.53.53,0,0,1-.22.4l-.07,0a.17.17,0,0,1,0-.07V28a.49.49,0,0,1,.23-.4l.07,0Z"/><path class="cls-9" d="M43.67,27.19v2.13a.49.49,0,0,1-.23.4c-.1.06-.19,0-.22-.06l.06,0a.49.49,0,0,0,.23-.4V27.11a.22.22,0,0,0,0-.08C43.6,27,43.67,27.07,43.67,27.19Z"/><path class="cls-17" d="M43.51,27.11v2.12a.49.49,0,0,1-.23.4l-.06,0a.17.17,0,0,1,0-.07V27.46a.49.49,0,0,1,.23-.4l.06,0A.22.22,0,0,1,43.51,27.11Z"/><path class="cls-9" d="M44.62,26.65v2.13a.49.49,0,0,1-.23.39c-.1.06-.19,0-.22-.06a.09.09,0,0,0,.06,0,.49.49,0,0,0,.23-.39V26.56a.15.15,0,0,0,0-.07C44.55,26.46,44.62,26.53,44.62,26.65Z"/><path class="cls-17" d="M44.46,26.56v2.13a.49.49,0,0,1-.23.39.09.09,0,0,1-.06,0,.15.15,0,0,1,0-.07V26.91a.51.51,0,0,1,.23-.4l.06,0A.15.15,0,0,1,44.46,26.56Z"/><path class="cls-9" d="M45.57,26.1v2.13a.52.52,0,0,1-.23.39.13.13,0,0,1-.22-.06l.06,0a.52.52,0,0,0,.23-.4V26a.15.15,0,0,0,0-.07C45.5,25.92,45.57,26,45.57,26.1Z"/><path class="cls-17" d="M45.41,26v2.13a.52.52,0,0,1-.23.4l-.06,0a.15.15,0,0,1,0-.07V26.36a.49.49,0,0,1,.23-.39.09.09,0,0,1,.06,0A.15.15,0,0,1,45.41,26Z"/><path class="cls-9" d="M46.52,25.55v2.13a.54.54,0,0,1-.23.4c-.1.06-.19,0-.22-.07l.06,0a.51.51,0,0,0,.23-.4V25.46a.15.15,0,0,0,0-.07C46.45,25.37,46.52,25.43,46.52,25.55Z"/><path class="cls-17" d="M46.36,25.46v2.13a.51.51,0,0,1-.23.4l-.06,0a.15.15,0,0,1,0-.07V25.81a.49.49,0,0,1,.23-.39s0,0,.06,0A.15.15,0,0,1,46.36,25.46Z"/><path class="cls-9" d="M47.47,25v2.13a.52.52,0,0,1-.23.4c-.11.06-.19,0-.22-.06l.06,0a.49.49,0,0,0,.23-.4V24.91a.17.17,0,0,0,0-.07C47.4,24.82,47.47,24.88,47.47,25Z"/><path class="cls-17" d="M47.31,24.91V27a.49.49,0,0,1-.23.4l-.06,0a.17.17,0,0,1,0-.07V25.27a.49.49,0,0,1,.23-.4l.06,0A.17.17,0,0,1,47.31,24.91Z"/></g></g></svg>