<svg xmlns="http://www.w3.org/2000/svg" xmlns:xlink="http://www.w3.org/1999/xlink" viewBox="0 0 63.2 45.29"><defs><style>.cls-1{isolation:isolate;}.cls-2{fill:url(#linear-gradient);}.cls-3{fill:#5a552d;}.cls-10,.cls-4{opacity:0.5;}.cls-31,.cls-4{mix-blend-mode:multiply;}.cls-5{fill:#777248;}.cls-6{fill:#262729;}.cls-7{fill:#6a6d6d;}.cls-8{fill:#9ca2a2;}.cls-9{fill:#8a9293;}.cls-33,.cls-9{opacity:0.9;}.cls-10{fill:#e1e6e6;}.cls-11{fill:#2b2927;}.cls-12{fill:url(#linear-gradient-2);}.cls-13{fill:#e0e5e5;}.cls-14{fill:#c5cbcb;}.cls-15{fill:url(#linear-gradient-3);}.cls-16{fill:#929696;}.cls-17{fill:#aaafaf;}.cls-18{fill:url(#linear-gradient-4);}.cls-19{fill:#686239;}.cls-20{fill:url(#linear-gradient-5);}.cls-21{fill:#908b68;}.cls-22{fill:#625e3a;}.cls-23{fill:#313337;}.cls-24{fill:#827f5e;}.cls-25{fill:#9d976c;}.cls-26{fill:#b1aa7b;}.cls-27{fill:url(#linear-gradient-6);}.cls-28{fill:url(#linear-gradient-7);}.cls-29{fill:url(#linear-gradient-8);}.cls-30{opacity:0.7;fill:url(#linear-gradient-9);}.cls-31{fill:#5c5734;opacity:0.3;}.cls-32{fill:url(#linear-gradient-10);}.cls-33{mix-blend-mode:screen;fill:url(#linear-gradient-11);}.cls-34{fill:#726c43;}.cls-35{fill:url(#linear-gradient-12);}.cls-36{fill:url(#linear-gradient-13);}.cls-37{opacity:0.4;fill:url(#linear-gradient-14);}.cls-38{fill:#2c2e31;}.cls-39{fill:#45474d;}</style><linearGradient id="linear-gradient" x1="41.83" y1="24.64" x2="40.6" y2="26.76" gradientUnits="userSpaceOnUse"><stop offset="0" stop-color="#938e6a"/><stop offset="0.51" stop-color="#7e7956"/><stop offset="1" stop-color="#6e6a48"/></linearGradient><linearGradient id="linear-gradient-2" x1="27.21" y1="38.18" x2="28.52" y2="40.45" gradientUnits="userSpaceOnUse"><stop offset="0" stop-color="#494644"/><stop offset="0.08" stop-color="#4f4c4a"/><stop offset="0.31" stop-color="#5d5957"/><stop offset="0.5" stop-color="#625e5c"/><stop offset="0.92" stop-color="#4e4a48"/><stop offset="1" stop-color="#494644"/></linearGradient><linearGradient id="linear-gradient-3" x1="45.78" y1="41.93" x2="47.09" y2="44.2" xlink:href="#linear-gradient-2"/><linearGradient id="linear-gradient-4" x1="44.58" y1="42.62" x2="45.9" y2="44.9" xlink:href="#linear-gradient-2"/><linearGradient id="linear-gradient-5" x1="4.65" y1="12.57" x2="3.32" y2="8.37" gradientUnits="userSpaceOnUse"><stop offset="0" stop-color="#a39d72"/><stop offset="0.49" stop-color="#9a9469"/><stop offset="1" stop-color="#8b855b"/></linearGradient><linearGradient id="linear-gradient-6" x1="12.87" y1="9.81" x2="20.68" y2="23.34" xlink:href="#linear-gradient-5"/><linearGradient id="linear-gradient-7" x1="7.27" y1="13.96" x2="23.08" y2="23.09" gradientUnits="userSpaceOnUse"><stop offset="0" stop-color="#716b42"/><stop offset="0.43" stop-color="#6d683f"/><stop offset="0.81" stop-color="#625d35"/><stop offset="1" stop-color="#5a552d"/></linearGradient><linearGradient id="linear-gradient-8" x1="40.28" y1="24.3" x2="32.43" y2="37.89" gradientUnits="userSpaceOnUse"><stop offset="0" stop-color="#a39d72"/><stop offset="0.21" stop-color="#9a9469"/><stop offset="0.57" stop-color="#817b52"/><stop offset="1" stop-color="#5a552d"/></linearGradient><linearGradient id="linear-gradient-9" x1="38.52" y1="25.44" x2="32.86" y2="39.91" gradientUnits="userSpaceOnUse"><stop offset="0" stop-color="#5a552d"/><stop offset="1" stop-color="#4c4619"/></linearGradient><linearGradient id="linear-gradient-10" x1="35.82" y1="30.8" x2="43.32" y2="27.55" gradientUnits="userSpaceOnUse"><stop offset="0" stop-color="#1c1c1b"/><stop offset="0.77" stop-color="#252524"/><stop offset="1" stop-color="#292927"/></linearGradient><linearGradient id="linear-gradient-11" x1="35.83" y1="30.8" x2="43.32" y2="27.56" xlink:href="#linear-gradient-10"/><linearGradient id="linear-gradient-12" x1="25.19" y1="34.24" x2="23.97" y2="36.36" xlink:href="#linear-gradient-8"/><linearGradient id="linear-gradient-13" x1="35.28" y1="21.64" x2="31.57" y2="28.07" gradientUnits="userSpaceOnUse"><stop offset="0" stop-color="#a39d72"/><stop offset="0.44" stop-color="#9a9469"/><stop offset="1" stop-color="#878158"/></linearGradient><linearGradient id="linear-gradient-14" x1="38" y1="24.77" x2="36.68" y2="24.77" xlink:href="#linear-gradient-9"/></defs><g class="cls-1"><g id="Слой_2" data-name="Слой 2"><g id="Layer_1" data-name="Layer 1"><g id="_2" data-name="2"><g class="cls-1"><path class="cls-2" d="M40,23.61a.6.6,0,0,0-.61.06,1.88,1.88,0,0,0-.86,1.48.59.59,0,0,0,.25.56L43,28.14a.59.59,0,0,1-.25-.55,1.89,1.89,0,0,1,.86-1.49.6.6,0,0,1,.61-.06Z"/><path class="cls-3" d="M43.61,26.1a1.89,1.89,0,0,0-.86,1.49c0,.55.39.77.86.49a1.88,1.88,0,0,0,.86-1.48C44.47,26.05,44.08,25.83,43.61,26.1Z"/></g><g class="cls-4"><path class="cls-3" d="M44.23,26.58c.08,0,.14,0,.14.08a.3.3,0,0,1-.13.23c-.08,0-.14,0-.14-.08A.3.3,0,0,1,44.23,26.58Z"/><path class="cls-3" d="M44.06,27.19a.1.1,0,0,1,.09,0c.05,0,.05.13,0,.22a.45.45,0,0,1-.09.1.12.12,0,0,1-.1,0c-.05,0-.05-.13,0-.22A.32.32,0,0,1,44.06,27.19Z"/><path class="cls-3" d="M43.62,26.82c.13-.07.23,0,.23.14a.53.53,0,0,1-.23.41c-.14.07-.24,0-.24-.14A.51.51,0,0,1,43.62,26.82Z"/><path class="cls-3" d="M43.62,27.65c.07,0,.13,0,.13.08a.29.29,0,0,1-.13.23c-.08,0-.14,0-.14-.08A.3.3,0,0,1,43.62,27.65Z"/><path class="cls-3" d="M43.18,26.69a.1.1,0,0,1,.09,0s0,.13,0,.22a.29.29,0,0,1-.09.1.12.12,0,0,1-.1,0s0-.13,0-.22A.32.32,0,0,1,43.18,26.69Z"/><path class="cls-3" d="M43.18,27.7s.07,0,.09,0,.06.12,0,.21a.25.25,0,0,1-.09.11.12.12,0,0,1-.1,0s0-.13,0-.22A.24.24,0,0,1,43.18,27.7Z"/><path class="cls-3" d="M43.13,27.38a.3.3,0,0,1-.13.23c-.08,0-.14,0-.14-.08A.3.3,0,0,1,43,27.3C43.07,27.26,43.13,27.29,43.13,27.38Z"/><path class="cls-3" d="M43.61,26.54c-.07,0-.13,0-.13-.08a.29.29,0,0,1,.13-.23c.08,0,.14,0,.14.08A.3.3,0,0,1,43.61,26.54Z"/><path class="cls-3" d="M44.05,26.49s-.07,0-.09,0-.05-.13,0-.22a.29.29,0,0,1,.09-.1.12.12,0,0,1,.1,0c.05,0,.05.13,0,.22A.24.24,0,0,1,44.05,26.49Z"/></g><g class="cls-1"><path class="cls-5" d="M42.43,27.25a.33.33,0,0,0-.06-.08A8.59,8.59,0,0,0,40.68,26a4.77,4.77,0,0,0-1.74-.76l-3.63,2.13a4.57,4.57,0,0,1,1.74.76,8.59,8.59,0,0,1,1.69,1.18.33.33,0,0,1,.06.08.06.06,0,0,1,0,0l0,0,3.63-2.12s0,0,0,0S42.43,27.27,42.43,27.25Z"/><path class="cls-6" d="M37.05,28.12c-1-.56-1.76-.89-1.76-.74a5.57,5.57,0,0,0,1.76,1.3c1,.56,1.76.89,1.76.74A5.57,5.57,0,0,0,37.05,28.12Z"/></g><path class="cls-7" d="M31.63,37.31l-4,2.32v-.22l4.25-4.91a.19.19,0,0,0,0-.26.18.18,0,0,0-.26,0l-4.3,5a.17.17,0,0,0,0,.12V40a.19.19,0,0,0,.09.16l.09,0,.09,0,4.3-2.49a.18.18,0,0,0,.06-.24A.17.17,0,0,0,31.63,37.31Z"/><path class="cls-8" d="M27.29,38.9c-.36-.21-.65,0-.65.37a1.43,1.43,0,0,0,.65,1.12c.35.21.64,0,.65-.37A1.43,1.43,0,0,0,27.29,38.9Z"/><path class="cls-9" d="M27.29,39.07A.39.39,0,0,0,27,39a.37.37,0,0,0-.1.29,1.07,1.07,0,0,0,.49.86.41.41,0,0,0,.31.06.4.4,0,0,0,.1-.29A1.1,1.1,0,0,0,27.29,39.07Z"/><path class="cls-10" d="M27.38,40.16a1.07,1.07,0,0,1-.49-.86A.37.37,0,0,1,27,39a.33.33,0,0,0-.2.35,1.1,1.1,0,0,0,.5.86.31.31,0,0,0,.4,0A.41.41,0,0,1,27.38,40.16Z"/><path class="cls-11" d="M27.29,38.58a2,2,0,0,1,.93,1.61c0,.59-.42.83-.93.53a2,2,0,0,1-.93-1.61C26.36,38.52,26.78,38.28,27.29,38.58Zm0,1.79c.34.2.63,0,.63-.36a1.37,1.37,0,0,0-.63-1.08c-.34-.2-.62,0-.63.36a1.38,1.38,0,0,0,.63,1.08Z"/><path class="cls-12" d="M28.55,39.2a2.06,2.06,0,0,0-.36-.56,1.69,1.69,0,0,0-.41-.35.64.64,0,0,0-.66-.06l-.49.28a.65.65,0,0,1,.66.07,1.46,1.46,0,0,1,.41.34,2.12,2.12,0,0,1,.36.57,1.78,1.78,0,0,1,.16.7.63.63,0,0,1-.27.59l.49-.28a.64.64,0,0,0,.27-.6A1.86,1.86,0,0,0,28.55,39.2Z"/><g class="cls-1"><path class="cls-13" d="M27.52,39.55a.64.64,0,0,0-.08-.14l-.1-.08a.16.16,0,0,0-.16,0l-.07,0s.09,0,.16,0l.1.08a.64.64,0,0,1,.08.14.38.38,0,0,1,0,.17.18.18,0,0,1-.06.15l.07,0a.18.18,0,0,0,.06-.15A.38.38,0,0,0,27.52,39.55Z"/><path class="cls-14" d="M27.27,39.37c-.13-.07-.23,0-.23.13a.49.49,0,0,0,.23.39c.12.07.22,0,.22-.13A.51.51,0,0,0,27.27,39.37Z"/></g><path class="cls-8" d="M45.86,42.65c-.36-.21-.65,0-.65.37a1.43,1.43,0,0,0,.65,1.12c.36.21.65,0,.65-.37A1.43,1.43,0,0,0,45.86,42.65Z"/><path class="cls-9" d="M45.86,42.82a.39.39,0,0,0-.3-.06.4.4,0,0,0-.1.29,1.08,1.08,0,0,0,.5.86.39.39,0,0,0,.3.06.4.4,0,0,0,.1-.29A1.1,1.1,0,0,0,45.86,42.82Z"/><path class="cls-10" d="M46,43.91a1.08,1.08,0,0,1-.5-.86.4.4,0,0,1,.1-.29.33.33,0,0,0-.2.35,1.1,1.1,0,0,0,.5.86.31.31,0,0,0,.4,0A.39.39,0,0,1,46,43.91Z"/><path class="cls-11" d="M45.87,42.33a2,2,0,0,1,.92,1.61c0,.59-.42.83-.93.53a2.07,2.07,0,0,1-.93-1.61C44.93,42.27,45.35,42,45.87,42.33Zm0,1.79c.35.2.63,0,.63-.36a1.37,1.37,0,0,0-.63-1.08c-.34-.2-.62,0-.62.36a1.4,1.4,0,0,0,.62,1.08Z"/><path class="cls-15" d="M47.12,43a2.06,2.06,0,0,0-.36-.56,1.86,1.86,0,0,0-.4-.35.66.66,0,0,0-.67-.06l-.49.28a.67.67,0,0,1,.67.07,1.58,1.58,0,0,1,.4.34,2.12,2.12,0,0,1,.36.57,1.49,1.49,0,0,1,.16.7.63.63,0,0,1-.27.59l.49-.28a.64.64,0,0,0,.27-.6A1.65,1.65,0,0,0,47.12,43Z"/><g class="cls-1"><path class="cls-13" d="M46.1,43.3,46,43.16a.39.39,0,0,0-.1-.08.16.16,0,0,0-.16,0l-.07,0a.14.14,0,0,1,.16,0,.39.39,0,0,1,.1.08.67.67,0,0,1,.09.14.59.59,0,0,1,0,.17.18.18,0,0,1-.07.15l.07,0a.18.18,0,0,0,.07-.15A.59.59,0,0,0,46.1,43.3Z"/><path class="cls-14" d="M45.84,43.12a.14.14,0,0,0-.23.13.49.49,0,0,0,.23.39c.12.07.23,0,.23-.13A.49.49,0,0,0,45.84,43.12Z"/></g><g class="cls-1"><path class="cls-16" d="M46,41.43l-.14,2.35a.33.33,0,0,1-.14.28l.52-.3a.33.33,0,0,0,.14-.28l.14-2.34Z"/><polygon class="cls-17" points="45.25 40.42 44.74 40.72 45.98 41.44 46.5 41.13 45.25 40.42"/><path class="cls-7" d="M44.74,40.72l.15,3,.47.27c.25.15.47,0,.48-.24L46,41.43Z"/></g><path class="cls-8" d="M44.67,43.34c-.36-.21-.65,0-.65.37a1.4,1.4,0,0,0,.64,1.12c.36.21.65,0,.65-.37A1.45,1.45,0,0,0,44.67,43.34Z"/><path class="cls-9" d="M44.67,43.51a.41.41,0,0,0-.31-.06.4.4,0,0,0-.1.29,1.1,1.1,0,0,0,.5.87.38.38,0,0,0,.3,0,.36.36,0,0,0,.11-.28A1.13,1.13,0,0,0,44.67,43.51Z"/><path class="cls-10" d="M44.76,44.61a1.1,1.1,0,0,1-.5-.87.38.38,0,0,1,.1-.28c-.12,0-.2.15-.2.34a1.13,1.13,0,0,0,.5.86c.17.1.31.09.4,0A.38.38,0,0,1,44.76,44.61Z"/><path class="cls-11" d="M44.67,43a2.06,2.06,0,0,1,.93,1.61c0,.59-.42.83-.94.53a2.07,2.07,0,0,1-.93-1.61C43.74,43,44.15,42.72,44.67,43Zm0,1.79c.35.2.63,0,.63-.36a1.38,1.38,0,0,0-.62-1.08c-.35-.2-.63,0-.63.36a1.4,1.4,0,0,0,.62,1.08Z"/><path class="cls-18" d="M45.93,43.64a2.33,2.33,0,0,0-.36-.56,2.18,2.18,0,0,0-.41-.35.65.65,0,0,0-.66-.06L44,43a.65.65,0,0,1,.66.07,1.61,1.61,0,0,1,.41.34,2.39,2.39,0,0,1,.36.57,1.78,1.78,0,0,1,.16.7.65.65,0,0,1-.27.59l.49-.28a.67.67,0,0,0,.27-.6A1.86,1.86,0,0,0,45.93,43.64Z"/><g class="cls-1"><path class="cls-13" d="M44.9,44a.42.42,0,0,0-.09-.14.39.39,0,0,0-.1-.08.14.14,0,0,0-.16,0l-.07,0a.16.16,0,0,1,.16,0,.28.28,0,0,1,.1.09.45.45,0,0,1,.13.3.18.18,0,0,1-.07.15l.07,0a.18.18,0,0,0,.07-.15A.38.38,0,0,0,44.9,44Z"/><path class="cls-14" d="M44.64,43.81c-.12-.07-.22,0-.22.13a.49.49,0,0,0,.22.39c.13.07.23,0,.23-.13A.49.49,0,0,0,44.64,43.81Z"/></g><g class="cls-1"><polygon class="cls-19" points="3.36 13.64 5.88 15.1 3.56 15.72 2.52 15.12 3.36 13.64"/></g><g class="cls-1"><path class="cls-20" d="M5.45,11.83a3.4,3.4,0,0,1-.86-.72,4.53,4.53,0,0,1-.76-1.2,3.49,3.49,0,0,1-.34-1.47,1.4,1.4,0,0,1,.57-1.27l-2,1.17A1.37,1.37,0,0,0,1.48,9.6a3.87,3.87,0,0,0,.34,1.48,4.64,4.64,0,0,0,.76,1.19,3.45,3.45,0,0,0,.86.73,1.42,1.42,0,0,0,1.4.14l2-1.17A1.37,1.37,0,0,1,5.45,11.83Z"/><g class="cls-1"><polygon class="cls-5" points="5.31 10.23 5.31 12.01 5.49 11.9 5.5 10.12 5.31 10.23"/><path class="cls-21" d="M5.08,9.07l-.18.11a.26.26,0,0,1,.2,0l.18-.11A.27.27,0,0,0,5.08,9.07Z"/><path class="cls-21" d="M5.75,9.52a1.06,1.06,0,0,0-.17-.26.6.6,0,0,0-.08-.08l-.18.11.07.07a1.11,1.11,0,0,1,.17.27.71.71,0,0,1,.08.31.28.28,0,0,1-.13.27l.19-.11a.28.28,0,0,0,.12-.26A1,1,0,0,0,5.75,9.52Z"/><polygon class="cls-5" points="5.32 7.5 5.32 9.29 5.5 9.18 5.5 7.39 5.32 7.5"/><path class="cls-22" d="M5.32,9.29V7.5l-.11-.08-.11,0V9.16c-.19-.05-.32.06-.33.28a.92.92,0,0,0,.33.66v1.79L5.2,12l.11,0V10.23c.19,0,.33-.06.33-.29A1,1,0,0,0,5.32,9.29Z"/></g><path class="cls-23" d="M3.67,7.68A3.26,3.26,0,0,1,4.21,8.8a4.16,4.16,0,0,1,.26,1l0,0a.52.52,0,0,1,.22.29.29.29,0,0,1,0,.31,5.41,5.41,0,0,1,.43,1c.22.62.32,1.13.23,1.13h0a3.44,3.44,0,0,1-.54-1.13,4.53,4.53,0,0,1-.26-1l0,0a.58.58,0,0,1-.23-.29c0-.14,0-.26,0-.31a4.83,4.83,0,0,1-.44-1c-.22-.63-.32-1.13-.22-1.14Z"/><g class="cls-1"><path class="cls-23" d="M5.32,9.71a.78.78,0,0,0-.1-.15l-.12-.1a.2.2,0,0,0-.18,0l-.58.34a.17.17,0,0,1,.18,0,.34.34,0,0,1,.12.09.86.86,0,0,1,.1.16.48.48,0,0,1,0,.2.17.17,0,0,1-.07.16l.58-.33a.21.21,0,0,0,.07-.17A.79.79,0,0,0,5.32,9.71Z"/><path class="cls-6" d="M4.52,9.8c-.14-.08-.25,0-.25.15a.56.56,0,0,0,.25.44c.15.09.26,0,.26-.14A.55.55,0,0,0,4.52,9.8Z"/></g><path class="cls-23" d="M3.25,7.92a3.46,3.46,0,0,1,.54,1.13,4.53,4.53,0,0,1,.26,1h0a.61.61,0,0,1,.24.3c.05.14,0,.26,0,.31a5.91,5.91,0,0,1,.45,1c.21.62.31,1.13.21,1.13h0a3.46,3.46,0,0,1-.54-1.12,4.16,4.16,0,0,1-.26-1l0,0a.58.58,0,0,1-.23-.29c0-.14,0-.26,0-.31a5.57,5.57,0,0,1-.43-1c-.22-.63-.32-1.14-.23-1.13Z"/><path class="cls-24" d="M4.44,10.35A.37.37,0,1,1,4.08,10,.36.36,0,0,1,4.44,10.35Z"/><g class="cls-1"><path class="cls-23" d="M4.71,10.06a.49.49,0,0,0-.1-.15.35.35,0,0,0-.11-.1.2.2,0,0,0-.18,0L3.91,10a.17.17,0,0,1,.18,0,.47.47,0,0,1,.12.09.86.86,0,0,1,.1.16.65.65,0,0,1,0,.2.19.19,0,0,1-.07.16l.4-.24a.16.16,0,0,0,.08-.16A.53.53,0,0,0,4.71,10.06Z"/><path class="cls-6" d="M4.09,10.05c-.14-.08-.26,0-.26.15a.57.57,0,0,0,.26.44c.14.09.26,0,.26-.14A.55.55,0,0,0,4.09,10.05Z"/></g><g class="cls-1"><path class="cls-23" d="M4.28,10.31a.54.54,0,0,0-.1-.16.48.48,0,0,0-.11-.09.17.17,0,0,0-.18,0l-.58.34a.15.15,0,0,1,.18,0,.31.31,0,0,1,.11.09.54.54,0,0,1,.1.16.45.45,0,0,1,0,.19.18.18,0,0,1-.08.17l.58-.34a.16.16,0,0,0,.08-.16A.53.53,0,0,0,4.28,10.31Z"/><path class="cls-6" d="M3.49,10.4c-.14-.09-.26,0-.26.15a.57.57,0,0,0,.26.44c.14.08.26,0,.26-.15A.57.57,0,0,0,3.49,10.4Z"/></g><polygon class="cls-25" points="2.83 5.79 1.58 6.52 4.78 8.37 6.04 7.64 2.83 5.79"/><polygon class="cls-26" points="6.04 7.64 4.78 8.37 6.94 12.15 8.94 10.99 6.04 7.64"/><polygon class="cls-27" points="8.94 10.99 6.94 12.15 22.7 22.05 26.09 20.09 8.94 10.99"/><g class="cls-1"><polygon class="cls-5" points="3.58 11.23 3.57 13.01 3.76 12.9 3.76 11.12 3.58 11.23"/><path class="cls-21" d="M3.35,10.07l-.19.11a.27.27,0,0,1,.2,0l.19-.11A.26.26,0,0,0,3.35,10.07Z"/><path class="cls-5" d="M4,10.53a1,1,0,0,0-.17-.27l-.07-.08-.19.11.08.08a.9.9,0,0,1,.17.26.73.73,0,0,1,.07.31q0,.21-.12.27L4,11.1a.28.28,0,0,0,.12-.26A.71.71,0,0,0,4,10.53Z"/><polygon class="cls-5" points="3.59 8.5 3.58 10.29 3.77 10.18 3.77 8.39 3.59 8.5"/><path class="cls-3" d="M3.58,10.29V8.5l-.11-.07-.11,0v1.78c-.18-.05-.32.06-.32.29a1,1,0,0,0,.32.65v1.79l.1.07.11,0V11.23c.18,0,.32-.06.32-.29A.92.92,0,0,0,3.58,10.29Z"/></g><path class="cls-28" d="M6.94,12.15,4.78,8.37,1.58,6.52l-1,1.6a3.44,3.44,0,0,0,.71,3.09l2,2.63,2.57,1.49L7,15,22.06,26.64l.64-4.58ZM3.44,13a4.33,4.33,0,0,1-2-3.4c0-1.25.89-1.75,2-1.12a4.32,4.32,0,0,1,2,3.39C5.41,13.12,4.53,13.63,3.44,13Z"/></g><path class="cls-29" d="M47,33.19l-2.65-4.36L44.29,28c-.18-.88-2.6-2.9-3.72-3.71-7.59-4.39-11-4.62-14.32-5.1a2.27,2.27,0,0,0-1.5.29l-1.31.76a2.73,2.73,0,0,0-1.37,2.37v4c5.85,9.48,5.51,8.86,17.24,15.17,2.65,1.54,7.71,2.26,10.08.36C51.35,40.39,50.86,36.1,47,33.19Z"/><path class="cls-30" d="M49.38,42.16a2.5,2.5,0,0,0,.32-.33l.11-.16c0-.07.11-.15.15-.22s.08-.16.12-.23l.09-.19a2.49,2.49,0,0,0,.11-.29.74.74,0,0,0,0-.14,2.22,2.22,0,0,0,.09-.37s0,0,0-.07a5.26,5.26,0,0,0,0-1.49c0,1.79-1.88,3-3.67,3.13-2.63.22-6.06-1.88-7.63-5.85,1.76-1.52,5.42-4.75,5.48-6.64l-.29-.48L44.29,28a1.46,1.46,0,0,0-.11-.28c-.06,1.63-4.34,3-6.52,2.19-3.55-1.55-15.29-7.76-15.32-8.47a2.58,2.58,0,0,0-.2.55.06.06,0,0,1,0,0,2.78,2.78,0,0,0-.06.58v4a65.08,65.08,0,0,0,4.58,6.89,15.71,15.71,0,0,0,1.84,1.89,27.39,27.39,0,0,0,4.66,3.07l1.47.81,1.69.91,3,1.6c.16.1.34.19.52.28a11.81,11.81,0,0,0,1.19.49,13.59,13.59,0,0,0,4.14.73,6.69,6.69,0,0,0,4.23-1.14Z"/><path class="cls-31" d="M49.53,41.28c-1.93,1.72-6.71,1.55-10-.36L37.82,40c-.41-2.51-1.59-9.82-1.59-9.82s0,0,0,0l-4-2.36s0,0,0,0a.08.08,0,0,0,0,.05L32.39,37c-2.14-1.2-4.08-2.34-5.58-3.3L27,34c2.9,1.83,12.15,6.86,12.43,7a12.24,12.24,0,0,0,6,1.56,6.41,6.41,0,0,0,4.17-1.21,4.1,4.1,0,0,0,.77-.92c0-.12.05-.24.07-.36A3.68,3.68,0,0,1,49.53,41.28ZM34.32,38.1l-1.84-1-.23-9.15,3.88,2.3c.08.44,1.2,7.31,1.59,9.72Z"/><path class="cls-32" d="M32,32.34l-3.44-2c-.48-.27-1.89-5.46-.34-4.56l3.54,2.07Zm15,.85-2.66-4.37s0,.71-1.42,1.39a7.7,7.7,0,0,1-6.16.26l1.1,5c4.75,2.11,9.35-.88,9.17-2.28Zm-11.26-3-3.26-1.91.23,4.46h0l3.57,2.06Z"/><path class="cls-33" d="M32,32l0,.37-3.44-2c-.43-.25-1.62-4.47-.71-4.65-.4.91.57,4.21.95,4.43Zm.94.54h0l-.21-4.09-.26-.15.23,4.46h0l3.57,2.06,0-.38Zm5.14,2.77-1-4.71-.31-.1,1.1,5c4.75,2.11,9.35-.88,9.17-2.28h0C46.58,34.79,42.67,37.23,38.1,35.28Z"/><g class="cls-1"><polygon class="cls-26" points="1.86 1.3 2.25 1.07 5.61 7.9 5.21 8.13 1.86 1.3"/><polygon class="cls-25" points="0 0.23 0.4 0 2.25 1.07 1.86 1.3 0 0.23"/><polygon class="cls-34" points="1.86 1.3 5.21 8.13 2.07 6.31 0 0.23 1.86 1.3"/></g><g class="cls-1"><path class="cls-5" d="M31.07,33.81,31,33.73a8.59,8.59,0,0,0-1.69-1.18,4.7,4.7,0,0,0-1.74-.76L24,33.91a4.62,4.62,0,0,1,1.74.77,9.14,9.14,0,0,1,1.69,1.17.35.35,0,0,1,.06.09,0,0,0,0,1,0,0s0,0,0,0l3.63-2.12,0,0A.06.06,0,0,0,31.07,33.81Z"/><path class="cls-6" d="M25.69,34.68c-1-.57-1.76-.89-1.76-.74a5.57,5.57,0,0,0,1.76,1.3c1,.56,1.76.89,1.76.73A5.79,5.79,0,0,0,25.69,34.68Z"/></g><g class="cls-1"><path class="cls-35" d="M23.4,33.21a.6.6,0,0,0-.61.06,1.89,1.89,0,0,0-.86,1.49.61.61,0,0,0,.25.55l4.18,2.44a.62.62,0,0,1-.25-.56A1.9,1.9,0,0,1,27,35.71a.6.6,0,0,1,.61-.06Z"/><path class="cls-3" d="M27,35.71a1.9,1.9,0,0,0-.86,1.48c0,.55.39.77.87.5a1.88,1.88,0,0,0,.85-1.49C27.83,35.65,27.45,35.43,27,35.71Z"/></g><g class="cls-4"><path class="cls-3" d="M27.6,36.19c.07,0,.13,0,.13.07a.32.32,0,0,1-.13.24c-.07,0-.13,0-.14-.08A.3.3,0,0,1,27.6,36.19Z"/><path class="cls-3" d="M27.42,36.8s.07,0,.09,0,.06.12,0,.21a.31.31,0,0,1-.1.1s-.07,0-.09,0-.06-.12,0-.21A.24.24,0,0,1,27.42,36.8Z"/><path class="cls-3" d="M27,36.43c.13-.08.24,0,.24.13A.52.52,0,0,1,27,37c-.13.08-.24,0-.24-.13A.52.52,0,0,1,27,36.43Z"/><path class="cls-3" d="M27,37.26c.08,0,.13,0,.14.07a.3.3,0,0,1-.14.24c-.07,0-.13,0-.13-.08A.29.29,0,0,1,27,37.26Z"/><path class="cls-3" d="M26.54,36.29a.12.12,0,0,1,.1,0c.05,0,.05.13,0,.22a.24.24,0,0,1-.1.1.09.09,0,0,1-.1,0c-.05,0-.05-.12,0-.21A.27.27,0,0,1,26.54,36.29Z"/><path class="cls-3" d="M26.54,37.3a.12.12,0,0,1,.1,0c.05,0,.05.13,0,.22a.32.32,0,0,1-.1.1s-.07,0-.09,0-.06-.13,0-.22A.29.29,0,0,1,26.54,37.3Z"/><path class="cls-3" d="M26.49,37a.3.3,0,0,1-.13.23.08.08,0,0,1-.14-.07.3.3,0,0,1,.14-.24C26.43,36.86,26.49,36.9,26.49,37Z"/><path class="cls-3" d="M27,36.14c-.08,0-.14,0-.14-.07a.3.3,0,0,1,.14-.24c.07,0,.13,0,.13.08A.29.29,0,0,1,27,36.14Z"/><path class="cls-3" d="M27.42,36.1a.12.12,0,0,1-.1,0c-.05,0-.05-.13,0-.22a.24.24,0,0,1,.1-.1s.07,0,.09,0,0,.13,0,.22A.29.29,0,0,1,27.42,36.1Z"/></g><path class="cls-36" d="M36.85,27.72c1.11.48,4.22-.54,4.34-1.77,0-.14,0-.38,0-.56A.59.59,0,0,0,41,25c-2.22-2-9.61-5.06-11.72-4.86-1.08.1-2.47,1.08-2.49,1.58v.51C27.32,22.6,36,27.34,36.85,27.72Z"/><path class="cls-37" d="M36.85,27.72c1.11.48,4.22-.54,4.34-1.77,0-.14,0-.38,0-.56-.53,1-2.27,1.72-3.51,1.77a2.2,2.2,0,0,1-.91-.17,90.43,90.43,0,0,1-10-5.3v.51C27.32,22.6,36,27.34,36.85,27.72Z"/><g class="cls-1"><g class="cls-1"><path class="cls-6" d="M35.51,23.54v.2a.27.27,0,0,1,0,.12.92.92,0,0,1-.93.31.85.85,0,0,1-.35-.12.37.37,0,0,1-.22-.31v-.2a.39.39,0,0,0,.22.31,1,1,0,0,0,.35.11c.41.07.83-.07.93-.31a.26.26,0,0,0,0-.11Z"/></g><path class="cls-23" d="M35.28,23.22c.19.11.28.27.2.43S35,24,34.55,24a1,1,0,0,1-.35-.11c-.19-.11-.27-.27-.2-.43a.9.9,0,0,1,.94-.31A1,1,0,0,1,35.28,23.22Z"/></g><g class="cls-1"><g class="cls-1"><path class="cls-38" d="M35.27,22.17v1.31a.1.1,0,0,1,0,.07.6.6,0,0,1-.64.22.52.52,0,0,1-.24-.08.25.25,0,0,1-.16-.21V22.16a.25.25,0,0,0,.16.22.52.52,0,0,0,.24.08c.28,0,.57-.05.64-.22a.1.1,0,0,0,0-.07Z"/></g><path class="cls-39" d="M35.12,22a.22.22,0,0,1,.13.29c-.07.17-.36.26-.64.22a.52.52,0,0,1-.24-.08c-.13-.07-.19-.18-.14-.29a.64.64,0,0,1,.65-.22A.62.62,0,0,1,35.12,22Z"/></g><polygon class="cls-38" points="39.91 20.05 38.48 20.05 38.15 20.25 37.67 19.97 37.67 20.07 38.15 20.35 38.48 20.15 39.91 20.16 63.2 6.63 63.2 6.53 39.91 20.05"/><polygon class="cls-39" points="63.2 6.53 39.91 20.05 38.48 20.05 38.15 20.25 37.67 19.97 62 5.84 63.2 6.53"/><polygon class="cls-38" points="6.87 6.07 6.87 6.17 31.36 20.31 31.84 20.03 31.84 19.93 31.36 20.21 6.87 6.07"/><polygon class="cls-39" points="31.5 18.92 31.5 19.74 31.84 19.93 31.36 20.21 6.87 6.07 8.06 5.38 31.5 18.92"/><g class="cls-1"><polygon class="cls-38" points="33.98 20.87 33.98 21.27 33.8 21.37 33.8 20.97 33.98 20.87"/><polygon class="cls-6" points="35.7 20.99 35.7 21.39 35.52 21.28 35.52 20.88 35.7 20.99"/><polygon class="cls-6" points="33.24 21.3 33.24 21.7 31.15 20.49 31.15 20.09 33.24 21.3"/><polygon class="cls-38" points="33.42 21.19 33.42 21.59 33.24 21.7 33.24 21.3 33.42 21.19"/><polygon class="cls-38" points="38.35 20.1 38.35 20.5 36.27 21.71 36.27 21.31 38.35 20.1"/><polygon class="cls-6" points="36.27 21.31 36.27 21.71 36.09 21.61 36.09 21.21 36.27 21.31"/><polygon class="cls-6" points="34.19 21.64 34.18 22.04 33.42 21.59 33.42 21.19 34.19 21.64"/><polygon class="cls-38" points="36.09 21.21 36.09 21.61 35.31 22.06 35.31 21.66 36.09 21.21"/><g class="cls-1"><path class="cls-6" d="M34.16,21.85v.4a.29.29,0,0,1,0-.09v-.4a.29.29,0,0,0,0,.09Z"/></g><path class="cls-6" d="M35.34,21.76v.4a.23.23,0,0,1,0,.11v-.4a.23.23,0,0,0,0-.11Z"/><path class="cls-6" d="M34.92,22.09v.4a.86.86,0,0,1-.39,0v-.4a1,1,0,0,0,.39,0Z"/><polygon class="cls-38" points="34.53 22.08 34.53 22.48 33.79 22.92 33.79 22.52 34.53 22.08"/><polygon class="cls-6" points="35.69 22.53 35.69 22.93 34.92 22.49 34.92 22.09 35.69 22.53"/><polygon class="cls-6" points="37.6 23.84 37.6 24.24 35.51 23.04 35.51 22.63 37.6 23.84"/><polygon class="cls-38" points="38.34 23.41 38.34 23.81 37.6 24.24 37.6 23.84 38.34 23.41"/><polygon class="cls-38" points="33.97 22.62 33.97 23.02 31.89 24.23 31.89 23.83 33.97 22.62"/><path class="cls-23" d="M38.35,20.1l-2.08,1.21-.18-.1-.78.45a.2.2,0,0,1,0,.21l.76.44.18-.11,2.09,1.21-.74.43-2.09-1.21.18-.1-.77-.44a1,1,0,0,1-.39,0l-.74.44.18.1-2.08,1.21-.75-.43,2.08-1.21.18.1.76-.44a.22.22,0,0,1,0-.21l-.76-.45-.18.11-2.09-1.21.74-.43L34,20.87l-.17.1.78.45a1.28,1.28,0,0,1,.34,0L35.7,21l-.18-.11,2.08-1.21Z"/><polygon class="cls-6" points="31.89 23.83 31.89 24.23 31.14 23.8 31.14 23.4 31.89 23.83"/></g><polygon class="cls-38" points="6.22 37.38 6.22 37.48 7.41 38.17 31.74 24.05 31.74 23.95 7.41 38.07 6.22 37.38"/><polygon class="cls-39" points="31.74 23.95 7.41 38.07 6.22 37.38 29.5 23.86 30.93 23.86 31.26 23.67 31.74 23.95"/><path class="cls-38" d="M37.78,23.94l.33.19v.1L37.78,24Zm.33,1v.1L61.53,38.58l1.19-.69v-.1l-1.19.69Z"/><polygon class="cls-39" points="62.72 37.79 61.53 38.48 38.11 24.96 38.11 24.13 37.78 23.94 38.26 23.66 62.72 37.79"/><g class="cls-1"><g class="cls-1"><path class="cls-38" d="M35.27,21.6v.14a.13.13,0,0,1,0,.08.61.61,0,0,1-.64.21.52.52,0,0,1-.24-.08.25.25,0,0,1-.16-.21v-.15a.27.27,0,0,0,.16.22.52.52,0,0,0,.24.08c.28,0,.57-.05.64-.22a.1.1,0,0,0,0-.07Z"/></g><path class="cls-39" d="M35.12,21.38a.22.22,0,0,1,.13.29c-.07.17-.36.26-.64.22a.52.52,0,0,1-.24-.08c-.13-.07-.19-.18-.14-.29a.64.64,0,0,1,.65-.22A.62.62,0,0,1,35.12,21.38Z"/></g></g></g></g></g></svg>