<svg xmlns="http://www.w3.org/2000/svg" viewBox="0 0 55.85 54.19"><defs><style>.cls-1{fill:#306947;}.cls-2{fill:#558569;}.cls-3{fill:#929e77;}.cls-4{fill:#572b26;}.cls-5{fill:#bdcc9a;}.cls-6{fill:#0d0d0d;}.cls-28,.cls-6{opacity:0.3;}.cls-7{fill:gray;}.cls-8{fill:#383838;}.cls-9{fill:#3e855b;}.cls-10{fill:#c7a496;}.cls-11{fill:#798f5c;}.cls-12{fill:#414d31;}.cls-13{fill:#f0c6b4;}.cls-14{fill:#fff;}.cls-15{fill:#e0d7b4;}.cls-16{fill:#ff8530;}.cls-17{fill:#ffc654;}.cls-18{fill:#575757;}.cls-19{fill:#466e57;}.cls-20{fill:#83a866;}.cls-21{fill:#85413a;}.cls-22{fill:#214730;}.cls-23{fill:#050505;}.cls-24{fill:#666;}.cls-25{fill:#9bb876;}.cls-26{fill:#6e8254;}.cls-27{fill:#517fa2;}.cls-29{fill:#78a68a;}.cls-30{fill:#576642;}.cls-31{fill:#a15e57;}.cls-32{fill:#adadad;}.cls-33{fill:#ff836f;}.cls-34{fill:#eb5c44;}.cls-35{fill:#dae5f8;}.cls-36{fill:red;}.cls-37{fill:#0000c9;}</style></defs><g id="Слой_2" data-name="Слой 2"><g id="Layer_1" data-name="Layer 1"><path class="cls-1" d="M31.38,9.32a4.63,4.63,0,0,0-2.57.86A11.41,11.41,0,0,0,28.23,13c.06.78,1.1,1,1.1,1l1.59-1.3L32,10.1S31.75,9.45,31.38,9.32Z"/><path class="cls-2" d="M37.24,5.05c-1-.31-6.16,1.24-6.71,2.31a29.47,29.47,0,0,0-1.45,7.3c.17,2.05,2.89,2.59,2.89,2.59l4.16-3.43,2.71-6.77S38.22,5.36,37.24,5.05Z"/><path d="M33.81,8.17l.21.51,1.19-.79s-.15-.3-.19-.41S33.77,8.08,33.81,8.17Z"/><path class="cls-3" d="M39.56,2a.93.93,0,0,0-.92-.27l-8,2.77L32,8.07l7.92-2.75h0a.93.93,0,0,0,.55-.78A2.94,2.94,0,0,0,39.56,2Z"/><path class="cls-4" d="M33,4.3A1,1,0,0,0,32,4l-.25.1a1,1,0,0,1,.85.29A3,3,0,0,1,33.51,7a1,1,0,0,1-.54.77l.31-.11h0a1,1,0,0,0,.54-.78A2.94,2.94,0,0,0,33,4.3Z"/><path class="cls-4" d="M38.72,2.29A.92.92,0,0,0,37.8,2l-.25.09a1,1,0,0,1,.84.3A2.91,2.91,0,0,1,39.27,5a.91.91,0,0,1-.53.77l.31-.11h0a.93.93,0,0,0,.55-.78A3,3,0,0,0,38.72,2.29Z"/><path class="cls-5" d="M31.67,4.75c-.64-.56-1.3-.33-1.46.51a3,3,0,0,0,.88,2.53c.64.56,1.3.33,1.46-.51A3,3,0,0,0,31.67,4.75Z"/><path class="cls-3" d="M31.44,6c-.12-.11-.25-.07-.28.09a.58.58,0,0,0,.17.48c.12.1.24.06.27-.1A.54.54,0,0,0,31.44,6Z"/><path class="cls-3" d="M31.62,5.22a.62.62,0,0,0-.83-.09.79.79,0,0,0-.25.47,2,2,0,0,0,.6,1.72.91.91,0,0,0,.4.21c.33.06.6-.17.68-.59A2,2,0,0,0,31.62,5.22Zm-.06,2.15a.77.77,0,0,1-.32-.17,1.84,1.84,0,0,1-.54-1.57.65.65,0,0,1,.19-.38.37.37,0,0,1,.31-.08.77.77,0,0,1,.32.17,1.84,1.84,0,0,1,.54,1.57C32,7.24,31.81,7.42,31.56,7.37Z"/><path class="cls-6" d="M46.89,33.62c-.62,1.51-5.88.74-11.73-1.7s-10.09-5.64-9.46-7.13,5.87-.74,11.73,1.7S47.52,32.13,46.89,33.62Z"/><path class="cls-1" d="M41.83,18.58a1,1,0,0,1,.3.86l-.74.06-.55-1.2S41.75,18.54,41.83,18.58Z"/><path class="cls-7" d="M27.48,20.53c-.29-.41-1.19-.25-1.46.34a2.82,2.82,0,0,0-.14,1.35,9.75,9.75,0,0,0,0,2.28,1.45,1.45,0,0,0,.71,1.12c.87.48,1.75,0,1.79-.4a.51.51,0,0,0,0-.1c-.54.28-1.29.34-1.51.06C25.67,23.72,26.5,20.77,27.48,20.53Z"/><path class="cls-8" d="M29.58,22.67s-1.64-1.57-1.93-2-1.19-.25-1.45.34a2.59,2.59,0,0,0-.14,1.35,7,7,0,0,0,0,2,1.51,1.51,0,0,0,.71,1.13A1.11,1.11,0,0,0,28.38,25a2.87,2.87,0,0,0-.27-1.08l.53.52Z"/><path class="cls-9" d="M34.14,20.79,31.38,22a22.11,22.11,0,0,0,.19,2.42c-.41-.56-1.08-2.24-2.24-1.71a2.21,2.21,0,0,0-.57,3c1.95,2,3.23,3.88,4,4s1.59-.21,1.76-.69A53.7,53.7,0,0,0,36,22.31Z"/><path class="cls-1" d="M31.39,22.44c.24,1.47,3.5,1.62,4.56.4.11-.25-2.54-.75-2.54-.75S31.31,22.21,31.39,22.44Z"/><path class="cls-7" d="M46.36,33.08c.13.24-.06.67-.11.77-.14.26-.81.45-1.61,0s-1-.91-1.62-1.2c-.54-.14-1.65-.38-1.67-.89s.61-1,.84-1.71C43.2,32.52,46.23,32.83,46.36,33.08Z"/><path class="cls-8" d="M44.62,28.16s-.77,2.15-.58,2.59a31.36,31.36,0,0,0,2.35,2.15c.14.25,0,.67-.1.77-.14.26-.81.46-1.61,0s-1-.9-1.62-1.2c-.54-.14-1.65-.38-1.67-.88a7,7,0,0,1,.5-1.88,9.69,9.69,0,0,0,.28-2Z"/><path class="cls-9" d="M37,21.08c1.63,1.33,5,3.22,5.51,3.6-.19.49-.93,2.43-.38,3.52.44.87,2.62,1.15,3.12.11A22.91,22.91,0,0,0,46.37,24c.07-.42-.88-1.12-1.53-1.86a28.19,28.19,0,0,0-3.2-3.52L39.21,18l-4.94.24S34.75,22.49,37,21.08Z"/><path class="cls-1" d="M36.85,21.17l.14-.09a11.51,11.51,0,0,1,.23-1.47,4.73,4.73,0,0,0,2.49,2.33s.45-2.48,1.93-3.34A23.82,23.82,0,0,0,39,17.76l-2.71,1.68-.37,1.09Z"/><path class="cls-9" d="M39.06,16.58c-.76.16-6.54.54-7,.7-1.15.37-.6,3.71-.87,4.22-.11.61.11,1.66,2.13,1.81A6.62,6.62,0,0,0,37,22.37a8.09,8.09,0,0,1,.24-3.8,4.18,4.18,0,0,0,2.31,3c.63-2.52,1.92-3,2.32-3C40.52,17.58,40.05,16.59,39.06,16.58Z"/><path class="cls-1" d="M40.44,6.44a2.66,2.66,0,0,1,1.32,1.65c.31,1.17.23,1.71.4,2.35s.42,1.38.76,2.4c1,1.5,1.79,2.92,1.79,2.92s.23.73-.75,1.24a1.34,1.34,0,0,1-1.33.07l-1.22-4.16-1.83-1-.31-4.74Z"/><polygon class="cls-9" points="35.64 7.33 35.15 7.62 35.01 8.32 33.8 8.55 32.89 9.25 33.32 14.38 36.03 14.82 39.68 10.54 39.63 8.19 37.61 7.16 35.64 7.33"/><rect class="cls-10" x="36.2" y="6.33" width="1.19" height="1.63"/><path class="cls-1" d="M36.23,6.24c.15.2,0,.54.62,1.16a2.67,2.67,0,0,0,2.34.71c0,.15-.13.13-.26.78-.08.46-1.35.75-2.26-.1-.42-.4-1.2-.88-1-1.58,0-.13.19-.18.29-.33S36.12,6.1,36.23,6.24Z"/><path class="cls-11" d="M33.8,8.55a5.14,5.14,0,0,1,1.35-.93c1.73.45,2.38,2.93,2.38,2.93l1.19-.1.61-.92a3.39,3.39,0,0,0-1.15-2.45,6.25,6.25,0,0,1,.88-.64,4.16,4.16,0,0,1,1.74,4.08,29.49,29.49,0,0,1-1.61,6c-.55,1.28-2.47,2.25-4.33,2.42-2.73.25-3.23-1.13-3.23-2,0-.2.76-3.53.76-3.53s1.6,1,2.38.31C37.06,12.49,35.72,8.32,33.8,8.55Z"/><path class="cls-12" d="M39.24,6.89c-.27,0-.69,0-.6.19,1.73,1.68,1.77,4.67,1.74,5.69a4,4,0,0,0,.24-1A5.68,5.68,0,0,0,39.24,6.89Z"/><path class="cls-12" d="M34.15,15.05l0,.65a7.93,7.93,0,0,0,5.73-1.26,1.81,1.81,0,0,0,.25-.84A8.31,8.31,0,0,1,34.15,15.05Z"/><path class="cls-12" d="M34.13,8.23s2.79.62,2.39,4.13c-.36,2.62-3.65,2.87-3.65,2.87l-.14.66s4.09.08,4.5-3.57a4.11,4.11,0,0,0-2.37-4.55C34.67,7.77,34.13,8.11,34.13,8.23Z"/><path class="cls-13" d="M38.39,2.62c-2.92-.15-2.08,3-2.08,3-.17,1.11,1,1.42,1,1.42s-.23,1,1.69,1.72c.64.25,1.3,0,1.36-.55A11.7,11.7,0,0,0,40.7,5.7C40.66,5.44,41.06,2.76,38.39,2.62Z"/><polygon class="cls-10" points="40.36 7.65 39.57 8.1 40.34 7.85 40.36 7.65"/><path class="cls-14" d="M40.53,7.8l-.05.11,1,.34h0a.14.14,0,0,0,0-.09s0,0,0,0h0Z"/><path class="cls-15" d="M40.55,7.82a.14.14,0,0,1,0,.09s-.05,0-.05,0a.08.08,0,0,1,0-.09S40.54,7.79,40.55,7.82Z"/><path class="cls-16" d="M40.26,7.71l-.11.06.33.14h0a.14.14,0,0,0,0-.09s0,0,0,0h0Z"/><path class="cls-17" d="M40.55,7.82a.14.14,0,0,1,0,.09h0a.08.08,0,0,0,0-.08s0,0,0,0h0S40.54,7.81,40.55,7.82Z"/><path class="cls-18" d="M37.29,7.26,36.91,7c-.47-.25-.73-.44-.73-1.38h.29c0,.81.19.91.58,1.12l.18.1Z"/><path class="cls-18" d="M38.69,8.65c-.46-.24-1.14-.75-1.14-1.25V5.81l-.39-.13V7.47c0,.48.57.78.85.94A1.57,1.57,0,0,0,38.69,8.65Z"/><path class="cls-2" d="M35.58,4.46a2.52,2.52,0,0,1,2.74-3,2.9,2.9,0,0,1,3,3c.06.76-.85,1.31-2.91,1.34a6.53,6.53,0,0,1-1.65,0A1.53,1.53,0,0,1,35.58,4.46Z"/><path class="cls-2" d="M35.57,4.24a3.12,3.12,0,0,0-.2.87c0,.67.81,1.18,1.53,1.16s.93-.34,1.6-.45C38.1,5.62,36.16,5.89,35.57,4.24Z"/><path class="cls-2" d="M41.27,4.49c.07.26.44.85-.38,1.32-1.43.83-2.81,0-3.22.28-.06-.41,2.06-.38,2.73-.68S41.17,4.5,41.27,4.49Z"/><path class="cls-19" d="M38.5,5.82c2.9,0,2.78-1.2,2.77-1.22S41.23,5.73,38.5,5.82Z"/><path class="cls-20" d="M35.6,4.05h0A3.46,3.46,0,0,1,37.31,1.6h0s0,0,0,0A3.43,3.43,0,0,0,35.62,4Z"/><path class="cls-20" d="M35.83,4.36h0a0,0,0,0,1,0,0A4.38,4.38,0,0,1,38,1.47s0,0,0,0,0,0,0,0a4.32,4.32,0,0,0-2.19,2.85A0,0,0,0,1,35.83,4.36Z"/><path class="cls-20" d="M36.28,4.68h0a4.78,4.78,0,0,1,2.32-3.18h0a0,0,0,0,1,0,0,4.68,4.68,0,0,0-2.3,3.15Z"/><path class="cls-20" d="M36.68,5h0s0,0,0,0a6.73,6.73,0,0,1,2.26-3.4s0,0,0,0,0,0,0,0a6.79,6.79,0,0,0-2.26,3.39Z"/><path class="cls-20" d="M37.2,5.1h0A14.74,14.74,0,0,1,39.26,1.6h0v0A14,14,0,0,0,37.21,5.1Z"/><path class="cls-20" d="M37.78,5.22h0s0,0,0,0,1-2,1.81-3.48h0s0,0,0,0c-.84,1.51-1.81,3.47-1.81,3.49Z"/><path class="cls-20" d="M38.37,5.36h0s0,0,0,0A16.05,16.05,0,0,0,39.91,1.9s0,0,0,0,0,0,0,0a15.4,15.4,0,0,1-1.55,3.46Z"/><path class="cls-20" d="M39,5.39h0s0,0,0,0a6.72,6.72,0,0,0,1.27-3.2h0A6.75,6.75,0,0,1,39,5.39Z"/><path class="cls-20" d="M39.69,5.33h0v0a3.82,3.82,0,0,0,.93-2.78h0a3.87,3.87,0,0,1-.93,2.8Z"/><path class="cls-20" d="M40.36,5.22h0s0,0,0,0a2.42,2.42,0,0,0,.59-2.11s0,0,0,0h0a2.4,2.4,0,0,1-.6,2.14Z"/><path class="cls-20" d="M41,4.66h0s0,0,0,0a3.48,3.48,0,0,0-1-2.73s0,0,0,0,0,0,0,0A3.55,3.55,0,0,1,41,4.65Z"/><path class="cls-20" d="M40.71,4.91a0,0,0,0,1,0,0,4.37,4.37,0,0,0-1.41-3.27s0,0,0,0,0,0,0,0a4.44,4.44,0,0,1,1.42,3.29,0,0,0,0,1,0,0Z"/><path class="cls-20" d="M40.21,5.1h0A4.78,4.78,0,0,0,38.75,1.5h0s0,0,0,0a4.76,4.76,0,0,1,1.45,3.6Z"/><path class="cls-20" d="M39.76,5.27l0,0a6.78,6.78,0,0,0-1.33-3.77s0,0,0,0h0a6.89,6.89,0,0,1,1.34,3.79v0Z"/><path class="cls-20" d="M39.22,5.3h0a15.74,15.74,0,0,0-1.15-3.81s0,0,0,0h0a16.38,16.38,0,0,1,1.15,3.81v0Z"/><path class="cls-20" d="M38.63,5.27h0s-.47-2.08-.88-3.75c0,0,0,0,0,0h0c.4,1.67.88,3.73.88,3.76h0Z"/><path class="cls-20" d="M38,5.26h0a13.73,13.73,0,0,1-.63-3.67s0,0,0,0,0,0,0,0A13.54,13.54,0,0,0,38,5.24v0Z"/><path class="cls-20" d="M37.4,5.14h0a6.39,6.39,0,0,1-.45-3.4s0,0,0,0a0,0,0,0,1,0,0,6.13,6.13,0,0,0,.45,3.39v0Z"/><path class="cls-20" d="M36.74,4.91h0A3.67,3.67,0,0,1,36.5,2s0,0,0,0,0,0,0,0a3.66,3.66,0,0,0,.22,2.92v0Z"/><path class="cls-20" d="M36.12,4.64h0A2.36,2.36,0,0,1,36,2.41s0,0,0,0,0,0,0,0a2.34,2.34,0,0,0,.07,2.2h0Z"/><path class="cls-20" d="M37.55,6.15l0,0s0-.17,0-.32a1.23,1.23,0,0,0,.08-.36h0a1,1,0,0,1-.08.37c0,.13-.07.25,0,.29s.07,0,.15,0h0s0,0,0,0Z"/><path class="cls-20" d="M38.13,6.07c-.08,0-.13,0-.15-.05s0-.12.09-.21a1.24,1.24,0,0,0,.16-.3l0,0s0,0,0,0a1,1,0,0,1-.16.31C38,5.9,38,6,38,6s.05,0,.12,0,0,0,0,0S38.14,6.07,38.13,6.07Z"/><path class="cls-20" d="M38.66,6.15h0a.1.1,0,0,1-.06-.05s0-.12.13-.21.19-.22.18-.33h0a.59.59,0,0,1-.19.34c-.07.08-.13.15-.12.19s0,0,0,0v0A0,0,0,0,1,38.66,6.15Z"/><path class="cls-20" d="M38.77,6.17h0v0a.09.09,0,0,0,.06,0s0-.11,0-.19a.7.7,0,0,1-.09-.33h0s0,0,0,0a.85.85,0,0,0,.09.31.31.31,0,0,1,.05.21.09.09,0,0,1-.07.06Z"/><path class="cls-20" d="M39.5,6.21h0v0c.09-.08,0-.17-.07-.3a.62.62,0,0,1-.16-.35h0s0,0,0,0,.08.22.15.32.18.24.06.34Z"/><path class="cls-20" d="M40.19,6.12h0v0A.19.19,0,0,0,40.26,6c0-.07-.09-.15-.18-.23s-.22-.19-.22-.31a0,0,0,0,1,0,0v0c0,.11.1.2.21.29s.18.17.18.25a.17.17,0,0,1-.08.13Z"/><path class="cls-20" d="M40.7,5.93h0v0q.08-.11.06-.15s-.06-.06-.12-.08a.5.5,0,0,1-.35-.39v0h0a.46.46,0,0,0,.32.37c.08,0,.13,0,.15.1s0,.1-.07.17Z"/><path class="cls-20" d="M41.21,5.57h0a0,0,0,0,1,0,0c.09-.12.13-.2.11-.23s-.09-.05-.17-.05-.33,0-.4-.2c0,0,0,0,0,0h0c.06.16.23.17.37.18s.17,0,.2.06,0,.13-.12.27Z"/><path class="cls-20" d="M39.33,6.21h0s-.06,0-.06,0,0-.13.1-.22a.74.74,0,0,0,.18-.39l0,0s0,0,0,0a.74.74,0,0,1-.19.41c-.06.08-.11.15-.1.19a.07.07,0,0,0,.05,0h0Z"/><path class="cls-20" d="M40,6.16h0a.51.51,0,0,1,.07-.4.7.7,0,0,0,.09-.32h0a.71.71,0,0,1-.1.33.49.49,0,0,0-.06.39h0Z"/><path class="cls-20" d="M40.5,6h0s0,0,0,0c.21-.26.18-.33.13-.45a.73.73,0,0,1-.06-.35s0,0,0,0a0,0,0,0,1,0,0,.53.53,0,0,0,.06.34c.05.12.08.2-.14.48Z"/><path class="cls-20" d="M41,5.73h0s0,0,0,0c.23-.23.16-.31.07-.41A.46.46,0,0,1,40.94,5h0a.43.43,0,0,0,.14.33c.09.1.18.2-.07.45Z"/><path class="cls-20" d="M41.41,5.08h0a0,0,0,0,1,0,0c0-.09,0-.12,0-.13s-.07,0-.12,0-.14.07-.19,0-.06-.11,0-.27a0,0,0,0,1,0,0v0q0,.2,0,.24s.11,0,.16,0,.12-.06.16,0,0,.07,0,.16Z"/><path class="cls-20" d="M41.38,5.29h0v0c.08-.17,0-.2-.07-.25s-.24-.14-.15-.49h0v0c-.08.33,0,.39.15.45s.16.1.07.29Z"/><path class="cls-20" d="M37.15,6.27a.08.08,0,0,1-.06,0c-.05,0,0-.19.06-.37a1.37,1.37,0,0,0,.11-.47h0a1.33,1.33,0,0,1-.1.48c-.06.15-.11.3-.07.34s.06,0,.12,0,0,0,0,0h0Z"/><path class="cls-20" d="M36.81,6.29c-.08,0-.13,0-.16,0s0-.18.07-.32a1.12,1.12,0,0,0,.15-.6,0,0,0,0,1,0,0s0,0,0,0a1.23,1.23,0,0,1-.15.61c-.06.13-.11.24-.08.29s.07,0,.15,0h0s0,0,0,0Z"/><path class="cls-20" d="M36.45,6.24h0c-.14,0-.21-.08-.23-.13s0-.13.1-.22a1,1,0,0,0,.24-.71s0,0,0,0v0a1,1,0,0,1-.24.73c-.06.08-.11.14-.1.19s.08.08.21.11,0,0,0,0Z"/><path class="cls-20" d="M36,6.07h0q-.15-.09-.15-.18c0-.1.08-.19.19-.29a.78.78,0,0,0,.32-.54h0a.83.83,0,0,1-.33.56c-.11.1-.2.18-.19.26S35.92,6,36,6v0Z"/><path class="cls-20" d="M35.58,5.71h0a.26.26,0,0,1-.1-.2c0-.1.1-.17.22-.25a.8.8,0,0,0,.37-.47h0a0,0,0,0,1,0,0,.85.85,0,0,1-.39.49c-.11.08-.2.15-.21.23a.24.24,0,0,0,.1.18v0Z"/><path class="cls-20" d="M35.37,5.16h0c0-.1,0-.14.08-.19a.85.85,0,0,0,.34-.58s0,0,0,0h0a.9.9,0,0,1-.35.6c-.07,0-.1.08-.08.16s0,0,0,0Z"/><path class="cls-20" d="M35.42,5.42h0c0-.08,0-.16.06-.27a1.17,1.17,0,0,0,.13-.87s0,0,0,0h0a1.14,1.14,0,0,1-.13.88c0,.11-.09.18,0,.25v0Z"/><path class="cls-20" d="M35.72,5.86h0c-.12-.15-.07-.26,0-.41a1.46,1.46,0,0,0,.12-.82h0s0,0,0,0a1.34,1.34,0,0,1-.12.83c-.06.15-.11.25,0,.38v0Z"/><path class="cls-20" d="M36.12,6.12h0a.32.32,0,0,1,0-.36,1.35,1.35,0,0,0,0-.83h0a1.39,1.39,0,0,1,0,.84c0,.13-.07.21,0,.34s0,0,0,0Z"/><path class="cls-20" d="M36.57,6.26h0c-.18-.08-.18-.19-.18-.4a2.93,2.93,0,0,0-.08-.74h0a3.49,3.49,0,0,1,.08.74c0,.22,0,.31.15.38h0Z"/><path class="cls-20" d="M37,6.29h0c-.18-.08-.19-.1-.21-.33s-.05-.35-.13-.72h0s0,0,0,0a6,6,0,0,1,.13.73c0,.22,0,.23.2.31a0,0,0,0,1,0,0Z"/><path class="cls-20" d="M37.4,6.21h0c-.19,0-.21-.12-.25-.39s0-.31-.11-.52v0h0c0,.22.08.39.1.52s.06.37.23.37v0Z"/><path class="cls-20" d="M37.73,6.07l-.09,0s-.07-.13-.1-.27a3.3,3.3,0,0,0-.15-.54,0,0,0,0,1,0,0s0,0,0,0a3.55,3.55,0,0,1,.16.54c0,.14,0,.22.09.25s.08,0,.15,0h0v0Z"/><path class="cls-20" d="M38.37,6.11h0c-.22,0-.23-.15-.26-.34A1.42,1.42,0,0,0,38,5.28s0,0,0,0h0a1.41,1.41,0,0,1,.14.5c0,.19,0,.3.24.31h0A0,0,0,0,1,38.37,6.11Z"/><path class="cls-21" d="M35.55,4.2a1.3,1.3,0,0,0,.28.73c0,.16.47.36.91.58A7.53,7.53,0,0,0,38,5.6c3.15.32,3.31-1.14,3.31-1.16a1.1,1.1,0,0,0-.06-.55S41,5.44,37.9,5.08a6.69,6.69,0,0,1-1.14,0c-.32-.1-.93-.47-.93-.67a1,1,0,0,1-.25-.7A1.5,1.5,0,0,0,35.55,4.2Z"/><path class="cls-1" d="M34.84,15.63s0-2.8.1-4S34.61,9.2,33.31,9.2c-1.48,0-1.65,1.56-1.62,2.57s.14,5.19.25,6.21,1.89,1.32,2.45,1.21Z"/><path class="cls-22" d="M34.84,15.63s-1.94,1.13-2,2.34A9.38,9.38,0,0,1,34.84,15.63Z"/><path class="cls-23" d="M44.38,15.76a.61.61,0,0,1,.52-.38c.27-.09.67-.59.84-.37s-.22.62-.25.77.14.59.16,1c0,.13-.89-.12-.89-.12Z"/><polygon class="cls-12" points="40.42 13.55 39.62 13.09 38.66 14.51 39.12 15.78 39.6 15.51 40.32 14.25 40.42 14.32 40.42 13.55"/><polygon class="cls-11" points="39.94 13.83 39.14 13.36 38.18 14.79 39.12 15.78 39.84 14.53 39.94 14.59 39.94 13.83"/><path class="cls-12" d="M42.88,15.36,41.64,15a20.8,20.8,0,0,0,.83,3.7,7,7,0,0,1,.86.23l.29-.17A18.57,18.57,0,0,1,42.88,15.36Z"/><path class="cls-11" d="M42.58,15.53l-1.23-.41a20.8,20.8,0,0,0,.83,3.7l1.15.06A17.8,17.8,0,0,1,42.58,15.53Z"/><path class="cls-23" d="M40.42,13.55v.77l1.22.59v-.66Zm1.14,1c0,.11-.08.17-.18.12l-.66-.32a.35.35,0,0,1-.18-.29v-.19c0-.12.08-.16.18-.11l.66.38a.4.4,0,0,1,.18.31Z"/><polygon class="cls-23" points="40.52 14.13 40.55 14.3 41.2 14.63 41.22 14.75 41.03 15.06 40 14.55 40.01 13.87 40.38 14.01 40.52 14.13"/><path class="cls-8" d="M40.66,14.57l0,0a1.13,1.13,0,0,1-.07-.39l0-.05,0,0,.14.07A.51.51,0,0,0,40.66,14.57Z"/><path class="cls-24" d="M40.61,14.6h0a.94.94,0,0,1-.1-.43l.14.07A.51.51,0,0,0,40.61,14.6Z"/><polygon class="cls-23" points="35.44 12.19 34.84 12.53 34.77 12.17 34.77 10.39 34.84 10.15 35.44 9.81 35.44 12.19"/><polygon class="cls-24" points="34.7 9.25 34.74 9.43 34.84 9.33 35.32 9.06 35.18 8.97 34.7 9.25"/><polygon class="cls-25" points="38.38 11.38 36.3 10.75 34.84 9.33 35.32 9.06 38.86 11.1 38.38 11.38"/><polygon class="cls-26" points="35.52 12.8 34.94 12.47 34.94 10.44 38 12.21 35.52 12.8"/><polygon class="cls-11" points="38.38 12.54 34.84 10.5 34.84 9.33 38.38 11.38 38.38 12.54"/><polygon class="cls-8" points="34.7 12.45 34.84 12.53 34.84 9.33 34.7 9.25 34.7 12.45"/><polygon class="cls-18" points="38.78 11.61 38.63 11.77 38.38 11.38 38.86 11.1 39.26 11.33 38.78 11.61"/><polygon class="cls-8" points="38.78 12.77 38.38 12.54 38.38 11.38 38.78 11.61 38.95 12.23 38.78 12.77"/><path class="cls-8" d="M39.94,13.83v.76l1.22.6.12-.34-.12-.32L41,14.27l-.78-.43Zm1.14,1c0,.11-.08.17-.18.12l-.66-.32a.35.35,0,0,1-.18-.29v-.2c0-.11.08-.16.18-.1l.66.38a.4.4,0,0,1,.18.31Z"/><polygon class="cls-18" points="42.73 13.56 42.5 13.61 39.06 11.7 38.78 11.28 39.26 11 43.21 13.28 42.73 13.56"/><polygon class="cls-23" points="42.98 15.36 42.5 15.63 42.35 15.26 42.5 14.87 42.59 14.57 42.98 14.39 42.98 15.36"/><polygon class="cls-8" points="42.73 14.72 42.5 14.87 42.5 15.3 39.14 13.36 38.78 12.77 38.78 11.28 42.73 13.56 42.73 14.72"/><polygon class="cls-8" points="42.5 15.63 41.16 15.19 41.16 14.53 41.98 14.77 42.5 15.3 42.5 15.63"/><path class="cls-18" d="M42.43,14a.1.1,0,0,1-.16,0l-1.05-.6a.4.4,0,0,1-.18-.31h0a.12.12,0,0,1,.1-.13.24.24,0,0,0,0,.09h0a.4.4,0,0,0,.18.31l1.05.6A.12.12,0,0,0,42.43,14Z"/><path class="cls-23" d="M42.45,14h0a.15.15,0,0,1,0,.08.12.12,0,0,1-.08,0l-1.05-.6a.4.4,0,0,1-.18-.31h0a.24.24,0,0,1,0-.09l.08,0,1.05.6A.44.44,0,0,1,42.45,14Z"/><polygon class="cls-23" points="42.01 12.27 41.53 12.55 41.53 12.87 42.01 12.59 42.01 12.27"/><polygon class="cls-24" points="42.01 12.27 40.81 11.58 40.33 11.85 41.53 12.55 42.01 12.27"/><polygon class="cls-8" points="41.53 12.55 40.33 11.85 40.33 12.17 41.53 12.87 41.53 12.55"/><polygon class="cls-24" points="39.54 11.06 39.31 10.93 38.83 11.21 39.06 11.34 39.54 11.06"/><polygon class="cls-8" points="39.06 11.34 38.83 11.21 38.83 11.31 39.06 11.44 39.06 11.34"/><polygon class="cls-23" points="39.54 11.16 39.06 11.44 39.06 11.34 39.54 11.06 39.54 11.16"/><polygon class="cls-24" points="39.99 11.32 39.76 11.19 39.28 11.46 39.51 11.6 39.99 11.32"/><polygon class="cls-8" points="39.51 11.6 39.28 11.46 39.28 11.56 39.51 11.7 39.51 11.6"/><polygon class="cls-23" points="39.99 11.42 39.51 11.7 39.51 11.6 39.99 11.32 39.99 11.42"/><polygon class="cls-24" points="40.44 11.58 40.21 11.45 39.73 11.72 39.96 11.86 40.44 11.58"/><polygon class="cls-8" points="39.96 11.86 39.73 11.72 39.73 11.82 39.96 11.96 39.96 11.86"/><polygon class="cls-23" points="40.44 11.68 39.96 11.96 39.96 11.86 40.44 11.58 40.44 11.68"/><polygon class="cls-24" points="42.62 12.84 42.39 12.7 41.91 12.98 42.14 13.11 42.62 12.84"/><polygon class="cls-8" points="42.14 13.11 41.91 12.98 41.91 13.08 42.14 13.21 42.14 13.11"/><polygon class="cls-23" points="42.62 12.94 42.14 13.21 42.14 13.11 42.62 12.84 42.62 12.94"/><polygon class="cls-24" points="43.06 13.1 42.84 12.96 42.35 13.24 42.59 13.37 43.06 13.1"/><polygon class="cls-8" points="42.59 13.37 42.35 13.24 42.35 13.34 42.59 13.47 42.59 13.37"/><polygon class="cls-23" points="43.06 13.19 42.59 13.47 42.59 13.37 43.06 13.1 43.06 13.19"/><polygon class="cls-12" points="46.68 16.67 46.2 16.95 46.1 16.75 46.2 16.63 46.68 16.35 46.68 16.67"/><polygon class="cls-11" points="46.2 16.95 45.2 16.37 43.59 16.42 43.32 15.06 44.05 15.35 45.85 16.39 46.2 16.73 46.2 16.95"/><polygon class="cls-23" points="48.28 16.67 48.06 16.94 47.98 16.71 48.06 16.38 48.28 16.39 48.28 16.67"/><polygon class="cls-24" points="48.06 16.38 46.32 15.56 43.21 13.58 43.43 13.59 48.28 16.39 48.06 16.38"/><polygon class="cls-23" points="48.06 16.94 43.21 14.14 43.21 13.58 48.06 16.38 48.06 16.94"/><polygon class="cls-18" points="48.06 17.24 42.73 13.56 42.85 13.36 43.21 13.28 48.06 16.08 48.06 17.24"/><polygon class="cls-23" points="48.06 17.24 47.58 17.52 47.58 16.36 48.06 16.08 48.06 17.24"/><polygon class="cls-8" points="47.58 17.52 42.73 14.72 42.55 14.13 42.73 13.56 47.58 16.36 47.58 17.52"/><polygon class="cls-23" points="47.58 17.22 47.35 17.21 47.35 16.92 47.58 16.66 47.58 17.22"/><polygon class="cls-24" points="47.35 16.92 45.62 15.97 42.51 14.12 42.73 13.86 47.58 16.66 47.35 16.92"/><polygon class="cls-18" points="47.35 17.21 42.51 14.41 42.51 14.12 47.35 16.92 47.35 17.21"/><polygon class="cls-24" points="43.51 13.35 43.28 13.22 42.8 13.5 43.03 13.63 43.51 13.35"/><polygon class="cls-8" points="43.03 13.63 42.8 13.5 42.8 13.6 43.03 13.73 43.03 13.63"/><polygon class="cls-23" points="43.51 13.45 43.03 13.73 43.03 13.63 43.51 13.35 43.51 13.45"/><polygon class="cls-24" points="43.96 13.61 43.73 13.48 43.25 13.76 43.48 13.89 43.96 13.61"/><polygon class="cls-8" points="43.48 13.89 43.25 13.76 43.25 13.86 43.48 13.99 43.48 13.89"/><polygon class="cls-23" points="43.96 13.71 43.48 13.99 43.48 13.89 43.96 13.61 43.96 13.71"/><polygon class="cls-24" points="44.41 13.87 44.18 13.74 43.7 14.02 43.93 14.15 44.41 13.87"/><polygon class="cls-8" points="43.93 14.15 43.7 14.02 43.7 14.12 43.93 14.25 43.93 14.15"/><polygon class="cls-23" points="44.41 13.97 43.93 14.25 43.93 14.15 44.41 13.87 44.41 13.97"/><polygon class="cls-24" points="44.86 14.13 44.63 14 44.15 14.28 44.38 14.41 44.86 14.13"/><polygon class="cls-8" points="44.38 14.41 44.15 14.28 44.15 14.37 44.38 14.51 44.38 14.41"/><polygon class="cls-23" points="44.86 14.23 44.38 14.51 44.38 14.41 44.86 14.13 44.86 14.23"/><polygon class="cls-24" points="45.31 14.39 45.08 14.26 44.59 14.53 44.83 14.67 45.31 14.39"/><polygon class="cls-8" points="44.83 14.67 44.59 14.53 44.59 14.63 44.83 14.77 44.83 14.67"/><polygon class="cls-23" points="45.31 14.49 44.83 14.77 44.83 14.67 45.31 14.39 45.31 14.49"/><polygon class="cls-24" points="45.75 14.65 45.52 14.52 45.04 14.79 45.27 14.93 45.75 14.65"/><polygon class="cls-8" points="45.27 14.93 45.04 14.79 45.04 14.89 45.27 15.02 45.27 14.93"/><polygon class="cls-23" points="45.75 14.75 45.27 15.02 45.27 14.93 45.75 14.65 45.75 14.75"/><polygon class="cls-24" points="46.2 14.91 45.97 14.77 45.49 15.05 45.72 15.18 46.2 14.91"/><polygon class="cls-8" points="45.72 15.18 45.49 15.05 45.49 15.15 45.72 15.28 45.72 15.18"/><polygon class="cls-23" points="46.2 15.01 45.72 15.28 45.72 15.18 46.2 14.91 46.2 15.01"/><polygon class="cls-24" points="46.65 15.17 46.42 15.03 45.94 15.31 46.17 15.44 46.65 15.17"/><polygon class="cls-8" points="46.17 15.44 45.94 15.31 45.94 15.41 46.17 15.54 46.17 15.44"/><polygon class="cls-23" points="46.65 15.27 46.17 15.54 46.17 15.44 46.65 15.17 46.65 15.27"/><polygon class="cls-24" points="47.1 15.43 46.87 15.29 46.39 15.57 46.62 15.7 47.1 15.43"/><polygon class="cls-8" points="46.62 15.7 46.39 15.57 46.39 15.67 46.62 15.8 46.62 15.7"/><polygon class="cls-23" points="47.1 15.52 46.62 15.8 46.62 15.7 47.1 15.43 47.1 15.52"/><polygon class="cls-24" points="47.55 15.68 47.32 15.55 46.84 15.83 47.07 15.96 47.55 15.68"/><polygon class="cls-8" points="47.07 15.96 46.84 15.83 46.84 15.93 47.07 16.06 47.07 15.96"/><polygon class="cls-23" points="47.55 15.78 47.07 16.06 47.07 15.96 47.55 15.68 47.55 15.78"/><path class="cls-8" d="M47.75,15.29h0a.17.17,0,0,1-.09.14s-.08,0-.08,0h0l0,.11h.1l.11-.07,0-.12,0,0h0Z"/><path class="cls-23" d="M47.81,15.32h0a.2.2,0,0,1-.08.14s-.08,0-.08-.05h0l-.07.36.07.42.19-.1v-.78Z"/><polygon class="cls-8" points="47.63 16.2 47.47 16.11 47.57 15.39 47.63 15.42 47.63 16.2"/><polygon class="cls-24" points="47.63 15.42 47.57 15.39 47.58 15.38 47.65 15.42 47.63 15.42"/><polygon class="cls-24" points="47.81 15.32 47.74 15.29 47.76 15.28 47.82 15.32 47.81 15.32"/><path class="cls-8" d="M48.66,17.49l.18-.31-.91-.53a.1.1,0,0,0-.09,0,.29.29,0,0,0-.13.22.11.11,0,0,0,0,.09h0Z"/><path class="cls-23" d="M48.56,17.44l.18-.32L48.59,17a.1.1,0,0,0-.09,0,.29.29,0,0,0-.13.23.09.09,0,0,0,0,.08h0Z"/><path class="cls-23" d="M48.87,17.26a.29.29,0,0,1-.13.22c-.07,0-.13,0-.13-.08a.29.29,0,0,1,.13-.22C48.81,17.14,48.87,17.17,48.87,17.26Z"/><path class="cls-8" d="M50.15,18.45l.26-.46-1.63-.94a.12.12,0,0,0-.13,0,.42.42,0,0,0-.19.32.12.12,0,0,0,.06.12h0Z"/><path class="cls-18" d="M50.46,18.11a.42.42,0,0,1-.19.32.12.12,0,0,1-.19-.11.42.42,0,0,1,.19-.32A.12.12,0,0,1,50.46,18.11Z"/><path d="M50.36,18.16a.2.2,0,0,1-.09.16.06.06,0,0,1-.09-.05.2.2,0,0,1,.09-.16S50.36,18.1,50.36,18.16Z"/><path class="cls-8" d="M40.91,10.66l-.31.55-.54-.31h0s-.06-.07-.06-.14a.51.51,0,0,1,.22-.39.16.16,0,0,1,.16,0h0Z"/><path class="cls-23" d="M40.76,10.68a.49.49,0,0,0-.23.39c0,.14.1.2.23.13a.52.52,0,0,0,.22-.39C41,10.67,40.88,10.61,40.76,10.68Z"/><path class="cls-8" d="M41,10.86l.06-.13-.15-.09h0l-.07,0a.17.17,0,0,0-.11,0,.49.49,0,0,0-.23.4V12l.14.08.12-.72.2.39S41,11,41,10.86Z"/><path class="cls-23" d="M41.16,10.9c0-.12-.06-.19-.15-.19l-.12,0a.54.54,0,0,0-.23.4v.92l.5-.28Z"/><path class="cls-8" d="M41.61,11.06l-.32.55-.54-.31h0s-.06-.07-.06-.14a.49.49,0,0,1,.22-.39.16.16,0,0,1,.16,0h0Z"/><path class="cls-23" d="M41.45,11.08a.49.49,0,0,0-.22.39c0,.14.1.2.22.13a.52.52,0,0,0,.22-.39C41.67,11.07,41.57,11,41.45,11.08Z"/><path class="cls-8" d="M41.7,11.25l.06-.13L41.62,11h0l-.08,0a.25.25,0,0,0-.11,0,.49.49,0,0,0-.23.4v.92l.15.09.11-.73.24.42Z"/><path class="cls-23" d="M41.84,11.29c0-.11-.06-.19-.15-.19a.23.23,0,0,0-.11,0,.51.51,0,0,0-.23.4v.93l.49-.29Z"/><path class="cls-8" d="M42.28,11.46,42,12l-.54-.31h0a.15.15,0,0,1-.07-.14.49.49,0,0,1,.23-.39.16.16,0,0,1,.16,0h0Z"/><path class="cls-23" d="M42.13,11.47a.49.49,0,0,0-.23.39c0,.14.1.2.23.13a.52.52,0,0,0,.22-.39C42.35,11.46,42.25,11.4,42.13,11.47Z"/><path class="cls-8" d="M42.31,11.6a.47.47,0,0,1-.2.36L42,12a.09.09,0,0,1-.09-.08l0,0a.46.46,0,0,0,.2-.36v0h0C42.28,11.47,42.31,11.52,42.31,11.6Z"/><path class="cls-27" d="M42.18,11.52a.46.46,0,0,1-.2.36l0,0v0a.46.46,0,0,1,.2-.36l0,0Z"/><path class="cls-23" d="M39.14,13.36l-.08.12L40,14l.42.13.45.26s-.09.35-.17.37h-.4a5.37,5.37,0,0,1-.49.79,1.43,1.43,0,0,1-.73.23c-.25,0-.93-.53-.93-.53a4.21,4.21,0,0,1-.65-1.21,4.58,4.58,0,0,1,1-.69A1.19,1.19,0,0,1,39.14,13.36Z"/><path class="cls-1" d="M37.46,14.09a6,6,0,0,0-.74.54l1,1.41s.41-.38.67-.67S37.74,14,37.46,14.09Z"/><path class="cls-22" d="M36.85,14.52c-.3.05.95,1.43,1.07,1.31A1.15,1.15,0,0,0,36.85,14.52Z"/><path class="cls-1" d="M34.39,19.19a11.75,11.75,0,0,0,3.45-2.86,1.21,1.21,0,0,0-.14-1.14,1.82,1.82,0,0,0-1.23-.75c-.51,0-1.63,1.19-1.63,1.19l-1,1.89Z"/><path class="cls-23" d="M43.57,16.23a.79.79,0,0,0-.2.66,1.84,1.84,0,0,0,1.58.36c.38-.06.79-.36.68-.51-.47-.62-.35-1.1-.87-1A2.14,2.14,0,0,0,43.57,16.23Z"/><path class="cls-1" d="M31.57,24.46s.15,3.2.81,4C32,26.77,31.57,24.46,31.57,24.46Z"/><path class="cls-23" d="M28.11,23.92a3.19,3.19,0,0,1-.9-.85A1.12,1.12,0,0,0,28.11,23.92Z"/><path class="cls-1" d="M42.5,24.68a.74.74,0,0,0,1.12.23C42.7,24.92,42.5,24.68,42.5,24.68Z"/><path class="cls-28" d="M55.85,53.75,45.78,47.94h0s.11-.5-.21-.68-.47.06-.7.17L39.8,44.49c.85-.53,2.1-1.34,3-2.07a4.24,4.24,0,0,0,.76.1,4.19,4.19,0,0,1,.13.56c0,.17.18.28.4.34a18.93,18.93,0,0,0,.72,1.8c.33.6.71,1.31,1.55,1a1.19,1.19,0,0,0,.66-1.28,16.81,16.81,0,0,0-.32-2.11.33.33,0,0,0,.11-.33c-.19-.6,0-1.51-.24-1.47s-.12.07-.17.14c-.06-.4-.13-.85-.2-1.19-.13-.69-.6-3.26-3.55-2.78h0a3.31,3.31,0,0,0-1.2-.12,6.22,6.22,0,0,0-1.13.18,3.77,3.77,0,0,0-.19-.41,4.31,4.31,0,0,0-.26.55,16.27,16.27,0,0,1-3.21,1,1,1,0,0,0-.25-.54c-.47-.5-1.81-2.25-3-2.25h0c-.89-.89-2.84-2.08-3.55-2.67S25.91,31.16,25,30.64a1.52,1.52,0,0,0-1.63.11l-.12-.06s1.56-.63,1.56-1.18a1.13,1.13,0,0,0-.67-.93,1.69,1.69,0,0,0-1.33-.21,14.7,14.7,0,0,0-2.74,1.22A.87.87,0,0,0,20,31.16h0a.58.58,0,0,0,.15.11c.44.23,2.46,1.12,2.46,1.12h0a1.48,1.48,0,0,0,.94,1.17,17.5,17.5,0,0,0,4,1.28,10.94,10.94,0,0,1,1.36,1.77l.77,1.24a41.9,41.9,0,0,1-8-.62,8.84,8.84,0,0,0-2.39-2.43,1.76,1.76,0,0,0-1.71-.12,4.21,4.21,0,0,1-.72-.88,1.12,1.12,0,0,0-.3-1,.8.8,0,0,0-.22-.23c-.54-.4-1.36-.11-1.81-.07a9.72,9.72,0,0,0-2.1.35,1.83,1.83,0,0,0-1.49,2,.54.54,0,0,0,.22.41c.16.32.63.4,1.32.16A7.68,7.68,0,0,1,15,35.12a4.53,4.53,0,0,1,1.23.82,1,1,0,0,0,.29,1.2c1.39,1.06,2.23,1.81,3.05,2.56S25.91,42,27.7,42.55h0a1.11,1.11,0,0,0,.25.65c.37.33,1.09,0,2.63.27,1.33.21,1.9.7,2.39.45a.88.88,0,0,0,.22.1c.51.13,2,.45,2.78.63.05.22.1.44.14.64a.25.25,0,0,0-.18-.06c-.21.05.27.83.32,1.46a.33.33,0,0,0,.19.26s.42,1.68.53,2.08,1.61,1,2.64.67,4.1-1.05,4.1-1.05a3.59,3.59,0,0,0,.86.26c.59,0,.86-.09,1-.22l9.52,5.5Zm-12.6-6.3c-1.2.69-3.68-.13-4-.15,0-.23-.06-.57-.08-.77a.46.46,0,0,0,.23-.44A6,6,0,0,1,39.24,45l4.06,2.34A.18.18,0,0,1,43.25,47.45Z"/><path class="cls-10" d="M46.69,42.09a16.27,16.27,0,0,1,.36,2.27l-1.72.6-.74-2.65A11,11,0,0,1,46.69,42.09Z"/><path class="cls-1" d="M42.68,36.62c3-.47,3.42,2.1,3.55,2.78s.29,1.79.35,2.11c.14.72-2.7,1.37-2.83.66-.09-.46-.41-1.71-.41-1.71S43.89,38,42.68,36.62Z"/><path class="cls-29" d="M43.72,42.51c-.11-.71-.42-1.26-.3-1.35s.45.42,1.75.11,1.17-.78,1.43-.82,0,.87.24,1.47C47.07,42.71,43.85,43.34,43.72,42.51Z"/><path class="cls-12" d="M24.64,28.83a1.37,1.37,0,0,0-1.82-1A14.63,14.63,0,0,0,20.08,29,.86.86,0,0,0,20,30.58C19.73,29.3,24,27.13,24.64,28.83Z"/><path class="cls-26" d="M23.65,30.32l-.39-.21s1.56-.63,1.56-1.17a1.36,1.36,0,0,0-1.82-1,14.7,14.7,0,0,0-2.74,1.22.87.87,0,0,0-.15,1.57c.44.22,2.46,1.11,2.46,1.11l1.26-.61Z"/><polygon class="cls-9" points="35.79 43.83 38.63 44.02 41.73 42.41 42.43 40.98 42.67 38.89 40.51 38.11 38.77 39.45 36.44 39.98 34.86 41.15 35.03 43.35 35.79 43.83"/><path class="cls-1" d="M39.76,39.6a1.1,1.1,0,0,0,.33,1.09,1.31,1.31,0,0,0,1.48.4L41,39.78Z"/><path class="cls-9" d="M29.81,37.49a19.24,19.24,0,0,0-2.26-3.23,18.53,18.53,0,0,1-4-1.28,1.41,1.41,0,0,1-.71-2.13A1.62,1.62,0,0,1,25,30.06c.9.53,4,1.7,4.81,2.33a39.16,39.16,0,0,1,3.73,2.86c.79.9-1,1.88-1,1.88Z"/><path class="cls-1" d="M28.91,36l.9,1.47s.63-.29.42-.69C29.74,37.23,28.91,36,28.91,36Z"/><path class="cls-12" d="M11.69,34.77c-.45,0-.71-.17-.74-.52a1.83,1.83,0,0,1,1.49-2,8.91,8.91,0,0,1,2.1-.34c.45-.05,1.27-.34,1.81.06a.85.85,0,0,1,.34.61C11.62,32.68,11.87,34.76,11.69,34.77Z"/><path class="cls-26" d="M16.48,35.61A6.53,6.53,0,0,0,15,34.54a7.69,7.69,0,0,0-2.48.28c-.84.28-1.34.1-1.37-.39a1.8,1.8,0,0,1,1.48-2,9.17,9.17,0,0,1,2.11-.35c.44-.05,1.26-.33,1.81.07a1.07,1.07,0,0,1,.35,1,7.3,7.3,0,0,0,1.18,1.33l-.45.9Z"/><path class="cls-9" d="M28.24,42.13s-7.87-2.25-8.7-3-1.66-1.5-3.05-2.57c-.45-.35-.69-1.12.34-2a2,2,0,0,1,2.47-.36,9,9,0,0,1,2.39,2.43,49.66,49.66,0,0,0,8.66.65c.64.09-.36,2.79-.36,2.79Z"/><path class="cls-1" d="M27.7,42s-.6-.76,0-2.55a3.48,3.48,0,0,1,2.06-2.1Z"/><path class="cls-1" d="M33.37,35.06c-2.06,0-3.52,2.21-3.52,2.21l2.41-.67S34.2,35.17,33.37,35.06Z"/><path class="cls-9" d="M36.69,37.86a1,1,0,0,0-.25-.55c-.47-.5-1.81-2.24-3-2.25s-4.42,2.83-5,3.77c-1,1.49-.77,3.49-.41,3.8s1.09,0,2.63.26c1.38.22,1.94.74,2.44.42C34,42.73,36.69,37.86,36.69,37.86Z"/><path class="cls-11" d="M44.17,38.56a2.3,2.3,0,0,0-2.69-2.05c-1.89.13-2.09.79-4.79,1.35-.44.09-3.42,1.74-4,2.78s-.23,2.63.49,2.81l3.36.75.42-.73s-1,.14-1.25-1.16a1.36,1.36,0,0,1,.72-1.81,1.55,1.55,0,0,1,2.31.63,2,2,0,0,1-.65,2.09l.72,1.29s4.11-2.43,5.08-3.65A3.08,3.08,0,0,0,44.17,38.56ZM41.67,42a7,7,0,0,1-1.8-.25A3,3,0,0,0,39,39.6l.83-.82,2.38,1.48A3,3,0,0,1,41.67,42Z"/><path class="cls-30" d="M35.08,41.59a1.2,1.2,0,0,0-.07.27A2.79,2.79,0,0,0,35.52,44a3.48,3.48,0,0,1-.51-.12,2.88,2.88,0,0,1-.48-2.14,1.58,1.58,0,0,1,.06-.23Z"/><path class="cls-30" d="M33.78,41.3c0,.11-.05.21-.06.27a2.7,2.7,0,0,0,.5,2.11,2.11,2.11,0,0,1-.51-.11,2.88,2.88,0,0,1-.47-2.14,1.58,1.58,0,0,1,.06-.23Z"/><path class="cls-13" d="M44.33,41.59c.51.09,1.5,1,2.67,2.57a1.23,1.23,0,0,1-.61,1.48c-.84.32-1.22-.4-1.55-1s-1.06-2.86-1.13-2.84A2.58,2.58,0,0,1,44.33,41.59Z"/><path class="cls-13" d="M39.1,45.8s.09.58.11.93a22.83,22.83,0,0,0,3.47-1.39l.57-.09.65.55-.44.82a24.81,24.81,0,0,1-3.85,2.5c-1,.29-2.54-.26-2.64-.67s-.53-2.08-.53-2.08l1.68-1Z"/><polygon class="cls-8" points="39.99 43.46 39.72 43.31 39.72 40.98 40.58 40.79 39.99 43.46"/><polygon class="cls-24" points="40.58 40.79 39.99 41.13 39.72 40.98 40.31 40.64 40.58 40.79"/><polygon class="cls-23" points="40.58 43.13 39.99 43.46 39.99 41.13 40.58 40.79 40.58 43.13"/><path class="cls-4" d="M44.81,44.31l-.61,2,.35,1.07.5-.29a8.14,8.14,0,0,1,.26-1.44V44Z"/><polygon class="cls-4" points="41.79 43.5 40.91 42.99 40.91 41.33 40.18 41.54 40.15 43.32 41.36 44 42.72 43.94 43.02 43.38 41.79 43.5"/><polygon class="cls-31" points="45.31 44.02 44.15 43.35 43.81 42.75 40.54 40.86 40.04 41.15 40.29 41.42 43.02 43.12 44.5 44.51 44.81 44.31 45.31 44.02"/><path class="cls-21" d="M44.81,44.31l-1.16-.67-.34-.6L40,41.15v2.23l1.39.81L43,44l1.11.64c0,.86-.27.94-.4,2.19l.86.5a8.14,8.14,0,0,1,.26-1.44l.08-1Zm-2.29-.64-1.23.12-.88-.51V41.62l2.11,1.22Z"/><path class="cls-23" d="M41.8,42.25c-.07-.34.73-.81.92-.83a3.15,3.15,0,0,1,1,0,2.46,2.46,0,0,1,1.19.89s.09.45-.29.54a1.15,1.15,0,0,1-.7-.08,5.08,5.08,0,0,1-.77,0C42.81,42.81,41.89,42.72,41.8,42.25Z"/><path class="cls-23" d="M45.31,44.9v.74l.84.48v-.73Zm.63,1-.41-.24a.5.5,0,0,1-.16-.4c0-.17.07-.27.16-.22l.41.24a.5.5,0,0,1,.16.4C46.1,45.88,46,46,45.94,45.93Z"/><polygon class="cls-23" points="44.91 45.93 45.57 46.34 45.63 46.3 45.63 45.77 45.42 45.64 45.35 45.49 44.88 45.27 44.84 45.54 44.85 45.86 44.91 45.93"/><path class="cls-8" d="M45.43,45.82l-.07,0a1.25,1.25,0,0,1-.08-.49l-.07-.07.06,0,.18.1A.63.63,0,0,0,45.43,45.82Z"/><path class="cls-24" d="M45.36,45.85h0a1.31,1.31,0,0,1-.12-.55l.17.1A.68.68,0,0,0,45.36,45.85Z"/><path class="cls-18" d="M44.81,45.19v.74l.84.48v-.73l-.32-.43Zm.63,1L45,46a.53.53,0,0,1-.15-.4c0-.17.07-.27.15-.22l.42.24a.53.53,0,0,1,.16.4C45.6,46.17,45.52,46.26,45.44,46.21Z"/><polygon class="cls-23" points="46.75 47.24 47.25 46.95 47.25 46.02 46.15 45.39 45.65 45.68 46.75 47.24"/><polygon class="cls-8" points="45.65 46.82 46.75 47.24 46.75 46.31 45.65 45.68 45.65 46.82"/><path class="cls-23" d="M46,46.73s-.05,0-.09,0a.27.27,0,0,1-.11-.18v-.81h0v.79a.22.22,0,0,0,.11.17A.07.07,0,0,0,46,46.73Z"/><path class="cls-24" d="M46,45.86v.82s0,0,0,0h0a.07.07,0,0,1-.06,0,.22.22,0,0,1-.11-.17v-.79Z"/><path class="cls-23" d="M46.28,46.86s-.05,0-.09,0a.22.22,0,0,1-.11-.17v-.76h0v.73a.25.25,0,0,0,.11.18Z"/><path class="cls-24" d="M46.29,46.05v.76a.07.07,0,0,1,0,0h-.06a.25.25,0,0,1-.11-.18v-.73Z"/><path class="cls-23" d="M46.61,47a.07.07,0,0,1-.09,0,.23.23,0,0,1-.11-.18v-.7h0v.68a.23.23,0,0,0,.1.17Z"/><path class="cls-24" d="M46.62,46.24V47a.09.09,0,0,1,0,0l-.07,0a.23.23,0,0,1-.1-.17v-.68Z"/><path class="cls-23" d="M49.48,51.39h.42v.11h0a.09.09,0,0,1-.06.08.32.32,0,0,1-.3,0,.09.09,0,0,1-.06-.08h0Z"/><path class="cls-18" d="M49.54,51.48a.39.39,0,0,0,.3,0c.08,0,.08-.13,0-.17a.32.32,0,0,0-.3,0C49.46,51.35,49.46,51.43,49.54,51.48Z"/><path class="cls-8" d="M49.69,51.45h0a.1.1,0,0,1-.08-.11L50,48.06a.1.1,0,0,1,.11-.08.09.09,0,0,1,.08.11l-.43,3.28A.11.11,0,0,1,49.69,51.45Z"/><path class="cls-8" d="M50,49h0a.16.16,0,0,1-.14-.18l.14-1a.14.14,0,0,1,.17-.13.16.16,0,0,1,.14.17l-.13,1A.16.16,0,0,1,50,49Z"/><path class="cls-8" d="M50.82,48.57a.16.16,0,0,1-.16-.13l-.1-.68a.15.15,0,0,1,.13-.18.15.15,0,0,1,.18.13l.11.68a.16.16,0,0,1-.14.18Z"/><path class="cls-23" d="M50.94,50.55h.42v.11h0s0,.06-.07.09a.37.37,0,0,1-.29,0,.12.12,0,0,1-.06-.09h0Z"/><path class="cls-18" d="M51,50.64a.3.3,0,0,0,.29,0c.09,0,.09-.13,0-.17a.3.3,0,0,0-.29,0C50.91,50.51,50.91,50.59,51,50.64Z"/><path class="cls-8" d="M51.15,50.61a.1.1,0,0,1-.1-.08l-.43-2.78a.1.1,0,1,1,.19,0l.43,2.78a.1.1,0,0,1-.08.11Z"/><path class="cls-23" d="M50.89,47.65h-.13a.42.42,0,0,0-.33,0l-.45.26-.11,0v.15h0s0,.08.09.11a.4.4,0,0,0,.38,0l.48-.28a.1.1,0,0,0,.07-.1h0Z"/><path class="cls-8" d="M50.43,47.52l-.49.28c-.1.06-.09.16,0,.22a.4.4,0,0,0,.38,0l.48-.28c.1-.06.1-.15,0-.22A.42.42,0,0,0,50.43,47.52Z"/><polygon class="cls-18" points="47.83 46.19 47.83 45.51 44.81 43.76 44.81 45.19 46.75 46.31 46.75 46.55 50.24 47.99 50.24 47.59 47.83 46.19"/><polygon class="cls-32" points="47.83 45.51 44.81 43.76 45.31 43.47 48.33 45.22 47.83 45.51"/><polygon class="cls-18" points="46.73 45.48 46.73 45.58 45.65 44.96 45.65 44.61 45.73 44.66 45.73 44.91 46.73 45.48"/><polygon class="cls-23" points="46.73 45.23 46.73 45.48 45.73 44.91 45.73 44.66 46.73 45.23"/><polygon class="cls-24" points="48.33 45.9 47.83 46.19 47.83 45.51 48.33 45.22 48.33 45.9"/><polygon class="cls-24" points="50.75 47.7 50.24 47.99 50.24 47.59 50.75 47.3 50.75 47.7"/><polygon class="cls-32" points="50.24 47.59 47.83 46.19 48.33 45.9 50.75 47.3 50.24 47.59"/><polygon class="cls-18" points="48.13 44.92 46.3 43.87 45.99 44.05 47.81 45.39 48.13 44.92"/><polygon class="cls-8" points="47.81 45.1 45.99 44.05 45.99 44.33 47.81 45.39 47.81 45.1"/><polygon class="cls-23" points="48.13 45.21 47.81 45.39 47.81 45.1 48.13 44.92 48.13 45.21"/><path class="cls-8" d="M51.06,47.1l-.25.42L48,45.89a.14.14,0,0,1-.06-.12.39.39,0,0,1,.18-.3s.09,0,.12,0h0Z"/><path class="cls-23" d="M50.93,47l-.25.43-.2-.12a.13.13,0,0,1,0-.11.36.36,0,0,1,.17-.3.14.14,0,0,1,.12,0h0Z"/><path class="cls-23" d="M50.93,47.51a.4.4,0,0,0,.17-.3c0-.12-.08-.16-.17-.11a.4.4,0,0,0-.18.31C50.75,47.52,50.83,47.56,50.93,47.51Z"/><path class="cls-8" d="M55.49,49.53l-.36.62-4.51-2.61a.17.17,0,0,1-.07-.16.56.56,0,0,1,.25-.44.18.18,0,0,1,.17,0h0Z"/><path class="cls-18" d="M55.3,50.12a.54.54,0,0,0,.25-.43c0-.16-.11-.23-.25-.15a.56.56,0,0,0-.25.44C55.05,50.14,55.16,50.2,55.3,50.12Z"/><path d="M55.3,50a.29.29,0,0,0,.13-.22c0-.08-.06-.11-.13-.07a.3.3,0,0,0-.12.21C55.18,50,55.24,50,55.3,50Z"/><path class="cls-8" d="M45.41,42.44l-.57,1-1-.56h0a.28.28,0,0,1-.11-.26.9.9,0,0,1,.4-.7.29.29,0,0,1,.28,0h0Z"/><path class="cls-23" d="M45.13,42.47a.88.88,0,0,0-.41.7c0,.25.18.36.41.23a.9.9,0,0,0,.4-.7C45.53,42.44,45.35,42.34,45.13,42.47Z"/><polygon class="cls-23" points="44.88 43.44 45.44 42.46 46.02 42.94 45.58 43.7 44.88 43.44"/><path class="cls-23" d="M45.78,43.67a.69.69,0,0,0,.31-.54c0-.2-.14-.28-.31-.18a.68.68,0,0,0-.32.54C45.46,43.69,45.6,43.77,45.78,43.67Z"/><path class="cls-8" d="M46.73,43.37l-.43.73-.72-.42h0a.19.19,0,0,1-.09-.19.65.65,0,0,1,.3-.52A.2.2,0,0,1,46,43h0Z"/><path class="cls-23" d="M46.51,43.39a.67.67,0,0,0-.3.52c0,.19.14.27.3.17a.66.66,0,0,0,.31-.52C46.82,43.37,46.68,43.29,46.51,43.39Z"/><path class="cls-8" d="M46.87,43.63l.08-.18-.19-.12h0a.19.19,0,0,0-.1,0,.32.32,0,0,0-.16,0,.69.69,0,0,0-.31.54v.5l.2.12.16-.23.32-.18Z"/><path class="cls-23" d="M47.07,43.68a.23.23,0,0,0-.21-.26.37.37,0,0,0-.16,0,.69.69,0,0,0-.31.54v.5l.68-.39Z"/><path class="cls-8" d="M47.66,43.91l-.42.73-.73-.41h0a.24.24,0,0,1-.09-.2.66.66,0,0,1,.31-.52.18.18,0,0,1,.21,0h0Z"/><path class="cls-23" d="M47.45,43.93a.65.65,0,0,0-.3.52c0,.19.13.27.3.18a.68.68,0,0,0,.3-.53C47.75,43.91,47.62,43.83,47.45,43.93Z"/><path class="cls-8" d="M47.78,44.16l.09-.18-.19-.11h0a.2.2,0,0,0-.11,0,.31.31,0,0,0-.15,0,.71.71,0,0,0-.31.55v.49l.2.12.16-.23.31-.18Z"/><path class="cls-23" d="M48,44.21a.22.22,0,0,0-.21-.25.34.34,0,0,0-.16,0,.69.69,0,0,0-.31.54V45l.68-.39Z"/><path class="cls-8" d="M48.58,44.43l-.43.74-.72-.42h0a.2.2,0,0,1-.09-.19.65.65,0,0,1,.3-.52.21.21,0,0,1,.21,0h0Z"/><path class="cls-23" d="M48.37,44.46a.66.66,0,0,0-.31.52c0,.19.14.27.31.17a.67.67,0,0,0,.3-.52C48.67,44.44,48.53,44.36,48.37,44.46Z"/><path class="cls-18" d="M48.34,44.43A.69.69,0,0,0,48,45c0,.2.14.28.31.18a.68.68,0,0,0,.32-.54C48.66,44.41,48.52,44.33,48.34,44.43Z"/><polygon class="cls-18" points="49.25 44.66 48.68 45.64 48.1 45.16 48.54 44.4 49.25 44.66"/><path class="cls-8" d="M50.25,45.23l-.57,1-1-.56h0a.28.28,0,0,1-.12-.26.9.9,0,0,1,.4-.7.31.31,0,0,1,.29,0h0Z"/><path class="cls-23" d="M50,45.26a.9.9,0,0,0-.4.7c0,.26.18.36.4.23a.88.88,0,0,0,.41-.7C50.37,45.24,50.19,45.13,50,45.26Z"/><path class="cls-8" d="M50.33,45.49a.83.83,0,0,1-.39.67.33.33,0,0,1-.16.05.19.19,0,0,1-.16-.1l.14,0a.85.85,0,0,0,.39-.67.33.33,0,0,0,0-.15h0C50.26,45.24,50.33,45.34,50.33,45.49Z"/><path class="cls-27" d="M50.15,45.39a.85.85,0,0,1-.39.67l-.14,0a.61.61,0,0,1,0-.15.85.85,0,0,1,.38-.67.48.48,0,0,1,.14,0A.33.33,0,0,1,50.15,45.39Z"/><path class="cls-23" d="M47,43.62h.3v.12h0a.07.07,0,0,1,0,.06.28.28,0,0,1-.22,0,.07.07,0,0,1,0-.06h0Z"/><path class="cls-18" d="M47,43.68a.28.28,0,0,0,.22,0c.06,0,.06-.09,0-.13a.28.28,0,0,0-.22,0C47,43.59,47,43.64,47,43.68Z"/><path class="cls-23" d="M46.8,44.45l-.15-.26.1-.06h0a.06.06,0,0,1,.07,0,.21.21,0,0,1,.11.19.09.09,0,0,1,0,.07h0Z"/><path class="cls-18" d="M46.83,44.38a.21.21,0,0,0-.1-.18c-.06,0-.11,0-.11.06a.25.25,0,0,0,.11.19C46.79,44.48,46.83,44.45,46.83,44.38Z"/><path class="cls-18" d="M50.23,44.31v0l-.09,0a.29.29,0,0,0-.28,0,.9.9,0,0,0-.4.7.27.27,0,0,0,.11.25h0l.09.06,0,0a.38.38,0,0,0,.18-.06.9.9,0,0,0,.4-.7A.38.38,0,0,0,50.23,44.31Z"/><path class="cls-23" d="M50,44.32a.9.9,0,0,0-.4.7c0,.26.18.36.4.23a.86.86,0,0,0,.41-.69C50.37,44.3,50.19,44.2,50,44.32Z"/><path class="cls-23" d="M44.09,44.68a1.1,1.1,0,0,1,0,.24,4.44,4.44,0,0,0,.7.46,2.61,2.61,0,0,0,.41.09l.23.13a.52.52,0,0,1,.13.54.49.49,0,0,1-.16,0,3.33,3.33,0,0,1-.18.73c-.13.15-.39.25-1,.25-.26,0-.74-.51-.74-.51a1.24,1.24,0,0,0-.78-1.28,2.08,2.08,0,0,1,.71-.5A4,4,0,0,1,44.09,44.68Z"/><path class="cls-13" d="M43.9,46.62v-.54a.39.39,0,0,0-.19-.31c-.1-.06-.19,0-.19.1v.53a.42.42,0,0,0,.19.31C43.82,46.77,43.9,46.73,43.9,46.62Z"/><path class="cls-13" d="M44.36,45.93s0,.07-.08,0a.18.18,0,0,1-.08-.14.05.05,0,0,1,.08,0A.18.18,0,0,1,44.36,45.93Z"/><path class="cls-13" d="M44.4,46.32a.05.05,0,0,1-.08,0,.2.2,0,0,1-.09-.15s0-.07.09,0A.2.2,0,0,1,44.4,46.32Z"/><path class="cls-13" d="M44.3,46.64c0,.06,0,.08-.08,0a.17.17,0,0,1-.08-.14c0-.06,0-.08.08,0A.16.16,0,0,1,44.3,46.64Z"/><path class="cls-13" d="M44.18,46.94a0,0,0,0,1-.08,0,.16.16,0,0,1-.08-.14c0-.06,0-.08.08-.05A.2.2,0,0,1,44.18,46.94Z"/><path class="cls-1" d="M36.83,40.43c-1.56.3-1.14,2.24-1,2.92s.39,1.78.45,2.09c.14.73,3,.29,2.88-.43-.09-.45-.25-1.74-.25-1.74S39.18,40,36.83,40.43Z"/><path class="cls-29" d="M39.36,45.51c-.16-.69-.07-1.33-.22-1.37s-.26.57-1.59.76-1.37-.3-1.62-.24.27.83.32,1.45C36.31,46.93,39.54,46.33,39.36,45.51Z"/><path class="cls-13" d="M41,41a5,5,0,0,0,2.76,1,.9.9,0,0,0,.82-.8,7.82,7.82,0,0,0-.82-2.59S41,40.93,41,41Z"/><path class="cls-24" d="M44,40.05l-.08.37a.16.16,0,0,0,.07.17s.1-.05.12-.13l.08-.37c0-.08,0-.15-.07-.16S44,40,44,40.05Z"/><path class="cls-24" d="M42.89,41.26l-.35.13c-.08,0-.13.09-.11.14a.13.13,0,0,0,.17,0l.36-.13c.07,0,.12-.09.1-.14S43,41.23,42.89,41.26Z"/><path class="cls-24" d="M44.23,40.3l-.06.27c0,.06,0,.11,0,.12s.08,0,.09-.09l0-.27c0-.06,0-.11,0-.12S44.24,40.24,44.23,40.3Z"/><path class="cls-24" d="M43.12,41.51l-.25.1a.1.1,0,0,0-.08.11s.07,0,.13,0l.26-.1a.1.1,0,0,0,.07-.11A.1.1,0,0,0,43.12,41.51Z"/><path class="cls-22" d="M38.82,37.49s1.15,1,1.37.24S38.82,37.49,38.82,37.49Z"/><path class="cls-1" d="M40.16,36.27s-.78,1.3,0,1.39S40.16,36.27,40.16,36.27Z"/><path class="cls-2" d="M43.84,38.91a2.34,2.34,0,0,1-.74,1.69,2,2,0,0,1-1.59.53A2.65,2.65,0,0,1,40,40.25,2.27,2.27,0,0,1,40,37.16c1.18-1.14,2.67-.15,3.15.41A2.47,2.47,0,0,1,43.84,38.91Z"/><path class="cls-29" d="M41.53,38.78c-.31-.29-.61.57.83.79.48.08.27.57-.22.63s.54,1.13.85.33.34-.53.4-.25a2.21,2.21,0,0,0,.45-1.37c-.06,0-.17-.43-.31-.25-.38.51-1-.22-1-.22Z"/><path class="cls-1" d="M40.54,37.78c.18-.08-.42-.59-.48-.25s-.24.72-.23.31c0-.64-.63.37-.23,1.32s.56,1,.5.6,0-.54.34-.39.49-.07.21-.65S40.3,37.9,40.54,37.78Z"/><path class="cls-22" d="M41.32,36.83a1.24,1.24,0,0,0-1.11.43c-.24.4.4.17.28.49-.05.12-.89.09-.79,1.14.07.85.57.27.42-.17-.06-.2,0-.61.39-.61a2,2,0,0,0,.78-.14s-.09.05.36.37.31-.49.32-.68.56.34.45-.13-.72-.7-.72-.7Z"/><path class="cls-29" d="M40.72,40.11s-.94-.54-.85-1.1.16.18.34.22.11-.3.23-.43.19.38.78.65.89.11.69.5-.77-.13-.78.28Z"/><path class="cls-1" d="M42.94,38.12a1.22,1.22,0,0,0-.7-.31c-.31,0-.06.67-.28.63s-1-1.29-.93-.68.57,1.44,1,1.44.42-.59.66-.4-.11.76.27.63.42-1.33.24-1.38Z"/><path class="cls-22" d="M40.44,40.61a.67.67,0,0,1,.65-.69c.65,0,.15.54.52.57s1.06-.25.89.49a1.65,1.65,0,0,1-1.1.13A2,2,0,0,1,40.44,40.61Z"/><path class="cls-29" d="M41,36.65s.71.43.61.66.52.36.57.19.47.72.77.82.5-.32.46-.41A2.76,2.76,0,0,0,41,36.65Z"/><path class="cls-18" d="M44.53,41v0l-.08,0a.31.31,0,0,0-.29,0,.9.9,0,0,0-.4.7.27.27,0,0,0,.11.25h0L44,42v0a.35.35,0,0,0,.18-.06.86.86,0,0,0,.41-.69A.33.33,0,0,0,44.53,41Z"/><path class="cls-23" d="M44.27,41a.86.86,0,0,0-.41.69c0,.26.18.36.41.24a.91.91,0,0,0,.4-.7C44.67,41,44.49,40.91,44.27,41Z"/><path class="cls-10" d="M39.21,46.73a4.19,4.19,0,0,0-1.33,1.65S38.17,46.8,39.21,46.73Z"/><polygon class="cls-12" points="23.26 30.11 21.99 29.44 23.22 29.82 23.26 30.11"/><path class="cls-1" d="M6.89,13a4.63,4.63,0,0,0-2.57.86,11.9,11.9,0,0,0-.58,2.78c.06.78,1.1,1,1.1,1l1.6-1.3,1-2.56S7.26,13.14,6.89,13Z"/><path class="cls-2" d="M12.75,8.74C11.77,8.43,6.59,10,6,11.05a30,30,0,0,0-1.45,7.3c.18,2,2.89,2.59,2.89,2.59l4.16-3.43,2.71-6.77S13.73,9.05,12.75,8.74Z"/><path d="M9.08,12l.22.51,1.18-.78-.18-.41C10.25,11.18,9.05,11.89,9.08,12Z"/><path class="cls-3" d="M15.07,5.7a.93.93,0,0,0-.92-.27l-8,2.77,1.29,3.56L15.4,9h0A.93.93,0,0,0,16,8.23,3,3,0,0,0,15.07,5.7Z"/><path class="cls-4" d="M8.47,8a1,1,0,0,0-.92-.27l-.26.1a1,1,0,0,1,.85.29A3,3,0,0,1,9,10.65a1,1,0,0,1-.54.77l.32-.11h0a1,1,0,0,0,.55-.78A3,3,0,0,0,8.47,8Z"/><path class="cls-4" d="M14.23,6a.92.92,0,0,0-.92-.26l-.25.09a1,1,0,0,1,.85.3,3,3,0,0,1,.88,2.53.94.94,0,0,1-.54.77l.31-.11h0a.93.93,0,0,0,.55-.78A3,3,0,0,0,14.23,6Z"/><path class="cls-5" d="M7.18,8.44c-.64-.56-1.3-.33-1.46.51a3,3,0,0,0,.88,2.53c.65.56,1.3.33,1.46-.51A2.92,2.92,0,0,0,7.18,8.44Z"/><path class="cls-3" d="M7,9.68c-.12-.11-.25-.07-.28.09a.58.58,0,0,0,.17.48c.12.1.24.06.27-.1A.55.55,0,0,0,7,9.68Z"/><path class="cls-3" d="M7.13,8.91a.62.62,0,0,0-.83-.09.79.79,0,0,0-.25.47A2,2,0,0,0,6.65,11a.91.91,0,0,0,.4.21c.33.06.6-.17.68-.59A2,2,0,0,0,7.13,8.91Zm0,2.15a.75.75,0,0,1-.33-.17,1.84,1.84,0,0,1-.54-1.57.65.65,0,0,1,.19-.38.38.38,0,0,1,.31-.08A.77.77,0,0,1,7,9a1.84,1.84,0,0,1,.54,1.57C7.51,10.93,7.32,11.11,7.08,11.06Z"/><path class="cls-21" d="M6.68,14.88,8,15.26,7.1,18.65a.35.35,0,0,1-.28.22,1.12,1.12,0,0,1-1-.26.34.34,0,0,1-.12-.33h0Z"/><path class="cls-18" d="M7.91,15a1.09,1.09,0,0,0-1-.27c-.31.08-.37.33-.15.56a1.11,1.11,0,0,0,1,.26C8.07,15.42,8.14,15.18,7.91,15Z"/><path class="cls-8" d="M3.21,25.63l2.26.64,0,.09a.58.58,0,0,1-.46.38,1.87,1.87,0,0,1-1.6-.44.61.61,0,0,1-.2-.55Z"/><path class="cls-18" d="M5.26,25.74a1.87,1.87,0,0,0-1.6-.44c-.51.13-.63.55-.26.92a1.85,1.85,0,0,0,1.6.45C5.51,26.53,5.63,26.12,5.26,25.74Z"/><path class="cls-8" d="M5.18,26.19l.51-3.34-.91-.25L3.5,25.73h0a.4.4,0,0,0,.14.43,1.37,1.37,0,0,0,1.19.33A.42.42,0,0,0,5.18,26.19Z"/><path class="cls-23" d="M4.8,22.88a.85.85,0,0,0,.73.2A.3.3,0,0,0,5.67,23l0-.17-.91-.25-.06.15A.26.26,0,0,0,4.8,22.88Z"/><path class="cls-8" d="M4.8,22.32l1,.29-.06.21a.25.25,0,0,1-.21.17.83.83,0,0,1-.72-.2.27.27,0,0,1-.1-.25h0Z"/><path class="cls-18" d="M5.72,22.37a.82.82,0,0,0-.72-.2c-.23.06-.29.25-.12.42a.85.85,0,0,0,.73.2C5.84,22.73,5.89,22.55,5.72,22.37Z"/><path class="cls-21" d="M5.63,19.53l.92.25-.79,2.81a.23.23,0,0,1-.18.16.77.77,0,0,1-.65-.18.24.24,0,0,1-.08-.22h0Z"/><path class="cls-8" d="M5.44,20.22a.25.25,0,0,0,.08.23.77.77,0,0,0,.65.18.26.26,0,0,0,.18-.15l.06-.22a.22.22,0,0,1-.18.15.71.71,0,0,1-.65-.18A.23.23,0,0,1,5.5,20Z"/><path class="cls-21" d="M6.46,19.57a.77.77,0,0,0-.65-.18c-.2.06-.25.22-.1.37a.74.74,0,0,0,.65.19A.21.21,0,0,0,6.46,19.57Z"/><path class="cls-8" d="M6.76,14.63,8.11,15,8,15.28a.34.34,0,0,1-.27.23,1.09,1.09,0,0,1-1-.27.34.34,0,0,1-.12-.33h0Z"/><path class="cls-18" d="M8,14.69a1.11,1.11,0,0,0-1-.26c-.3.08-.37.32-.15.55a1.09,1.09,0,0,0,1,.27C8.14,15.17,8.21,14.92,8,14.69Z"/><path class="cls-4" d="M7.56,13.47l0-.05a.16.16,0,0,0-.13-.06l-.08,0L6.23,12.3s-.07-.05-.1,0l-.29.08.14.25-.05.19a.35.35,0,0,0,.08.31l.56.57.4,1,.29-.08Zm-.47.72v0l0,0Z"/><path class="cls-21" d="M7,14.63l0-.05a.48.48,0,0,1-.12-.31l-1.08-1.1a.35.35,0,0,1-.08-.31l.12-.44a.1.1,0,0,1,.18,0L7,13.48c.05-.06.13-.05.2,0l0,.05Z"/><path class="cls-8" d="M7.53,12.26l1.14.32L8,15a.29.29,0,0,1-.24.19A.92.92,0,0,1,7,14.94a.32.32,0,0,1-.1-.28h0Z"/><path class="cls-18" d="M8.56,12.31a.91.91,0,0,0-.81-.22c-.26.07-.32.28-.13.47a.92.92,0,0,0,.81.22C8.69,12.72,8.75,12.51,8.56,12.31Z"/><path class="cls-4" d="M7.46,9.69l-.81-.82a.1.1,0,0,0-.1,0l-.28.08.14.25,0,.2a.33.33,0,0,0,.07.3l.29.29.26.48.29-.08Z"/><path class="cls-21" d="M7,10.43l-.84-.69a.37.37,0,0,1-.08-.3L6.19,9c0-.1.1-.12.17-.05l.8.82Z"/><polygon class="cls-18" points="8.29 11.38 8 11.46 7.96 10.9 7.16 9.77 7.46 9.69 8.18 10.43 8.21 9.89 8.5 9.81 8.67 9.99 8.29 11.38"/><path class="cls-18" d="M8.46,9.85l-.06.06-.16,0-.35-.44-.15.57-.16,0v0l.14-.58.07-.06.16,0a.21.21,0,0,1,.11,0Z"/><path class="cls-7" d="M8.21,9.89v0l-.37-.38-.06,0a.06.06,0,0,0,0,.05l-.16.56L7.51,10l.14-.51a.22.22,0,0,1,0-.08l0,0a.16.16,0,0,1,.14.05l.39.4Z"/><path class="cls-8" d="M7.9,9.83l-.07,0a1.23,1.23,0,0,0,.28.39v.1l.07,0,.05-.19A.62.62,0,0,1,7.9,9.83Z"/><path class="cls-24" d="M7.83,9.85v0a1.26,1.26,0,0,0,.29.46l.05-.19A.68.68,0,0,1,7.83,9.85Z"/><polygon class="cls-7" points="8 11.46 6.98 10.43 7.16 9.77 8 10.62 8.21 9.89 8.38 10.07 8 11.46"/><path class="cls-8" d="M9,7.49l.85.24L8.53,12.52a.24.24,0,0,1-.18.15.7.7,0,0,1-.6-.17.24.24,0,0,1-.08-.21h0Z"/><path class="cls-18" d="M9.78,7.53a.69.69,0,0,0-.6-.16c-.2,0-.24.2-.1.35a.69.69,0,0,0,.6.16C9.88,7.83,9.92,7.68,9.78,7.53Z"/><path d="M9.6,7.58a.32.32,0,0,0-.29-.08c-.1,0-.12.1-.05.17a.32.32,0,0,0,.29.08C9.65,7.73,9.67,7.65,9.6,7.58Z"/><path class="cls-32" d="M9.13,6.71l1,.29-.24.84c0,.08-.09.14-.21.17A.82.82,0,0,1,9,7.81a.25.25,0,0,1-.1-.25h0Z"/><path class="cls-7" d="M10.06,6.76a.84.84,0,0,0-.73-.2c-.23.06-.28.25-.11.42a.77.77,0,0,0,.72.2C10.18,7.12,10.23,6.94,10.06,6.76Z"/><polygon class="cls-7" points="10.49 3.8 9.54 3.83 9.13 6.71 9.6 7.01 10.16 7 11.29 4.31 10.49 3.8"/><path class="cls-32" d="M11.29,4.31a.45.45,0,0,0,0-.11l.24-2.92-.29-.2-.35,0L9.6,3.72a.31.31,0,0,0,0,.1h0a.44.44,0,0,0,.15.43,1.39,1.39,0,0,0,1.23.34.45.45,0,0,0,.36-.28Z"/><path class="cls-7" d="M11.07.5l.63.18-.16.59a.18.18,0,0,1-.13.11A.52.52,0,0,1,11,1.26a.17.17,0,0,1-.06-.16h0Z"/><path class="cls-32" d="M11.64.53a.49.49,0,0,0-.45-.12c-.14,0-.18.15-.07.26a.52.52,0,0,0,.45.12C11.71.75,11.75.64,11.64.53Z"/><path class="cls-33" d="M11.27.08l.47.13-.12.44a.11.11,0,0,1-.1.08.37.37,0,0,1-.33-.09.11.11,0,0,1,0-.11h0Z"/><path class="cls-34" d="M11.7.1A.37.37,0,0,0,11.37,0c-.11,0-.14.11-.06.19a.37.37,0,0,0,.33.09C11.75.27,11.78.18,11.7.1Z"/><polygon class="cls-21" points="7.08 18.7 6.54 19.8 5.63 19.54 5.73 18.33 7.08 18.7"/><path class="cls-6" d="M20.18,44.78c-.62,1.5-5.63.84-11.19-1.48S-.56,37.89.06,36.39s5.64-.83,11.2,1.48S20.81,43.28,20.18,44.78Z"/><path class="cls-7" d="M20,43.75c.18.21.08.67.05.78-.08.28-.69.61-1.57.34s-1.15-.68-1.84-.84-1.69,0-1.81-.52.39-1.11.46-1.85C16.76,43.85,19.79,43.54,20,43.75Z"/><path class="cls-8" d="M17,39.27A9.51,9.51,0,0,0,17.22,42c.28.39,2.57,1.4,2.75,1.61s.08.67.05.78c-.08.28-.69.61-1.57.34s-1.15-.68-1.84-.84-1.69,0-1.81-.52a7.07,7.07,0,0,1,.1-1.94,9.57,9.57,0,0,0-.14-2Z"/><path class="cls-9" d="M10.45,24.85c1.07,3,3.68,7.68,3.8,8.66.1.57-.58,4.3,0,5.6.4.89,2.71.89,3.21-.15.37-.77-.19-3.64,0-5.87a35.6,35.6,0,0,0-2.17-9.17L13.1,21.35,10.77,23S10.58,24.39,10.45,24.85Z"/><path class="cls-1" d="M11.18,26.65v-.32l.57-4.53,1.08-.35s2.5,2.6,2.54,2.72C15.54,25.57,11.18,26.65,11.18,26.65Z"/><path class="cls-7" d="M3.9,37.9a.63.63,0,0,1-.42.54,1.64,1.64,0,0,1-2.19-1,10.23,10.23,0,0,1-.78-2.15c-.13-.43-.59-1.41-.29-2,.18-.37.67-.39,1.08-.46C-.18,33.37,2.52,39.52,3.9,37.9Z"/><path class="cls-8" d="M3.71,33.82s-.65.47-.68.93a6.25,6.25,0,0,0,.78,2c.43.77.25,1.3-.22,1.46a1.64,1.64,0,0,1-2.19-1,9,9,0,0,1-.72-2.07c-.13-.43-.59-1.41-.29-2,.18-.37.67-.38,1.08-.45A2.85,2.85,0,0,0,2.55,32l1,.81Z"/><path class="cls-9" d="M10,23.83,5.93,25.44s-.43,1.95-1.16,4.27A15.9,15.9,0,0,1,3.06,31,1.8,1.8,0,0,0,3,33.42c.77.92,1.58.66,2.35.07,1.22-.79,1.41-.76,2-1.56a26.84,26.84,0,0,0,3.15-5.79Z"/><path class="cls-1" d="M5.81,26c0,1.48,3,2.07,4.29,1.05C10.24,26.78,7.78,26,7.78,26S5.77,25.71,5.81,26Z"/><path class="cls-1" d="M15.71,10.27A2.66,2.66,0,0,1,17,11.92c.3,1.17.22,1.71.4,2.35s.42,1.38.75,2.4c1,1.5,1.79,2.92,1.79,2.92s.23.73-.74,1.24a1.33,1.33,0,0,1-1.33.07l-1.22-4.16-1.84-1L14.55,11Z"/><polygon class="cls-9" points="10.91 11.16 10.42 11.45 10.28 12.15 9.08 12.38 8.16 13.08 8.59 18.21 11.31 18.65 14.95 14.38 14.91 12.02 12.88 10.99 10.91 11.16"/><rect class="cls-10" x="11.47" y="10.16" width="1.19" height="1.63"/><path class="cls-1" d="M11.5,10.07c.16.2,0,.54.62,1.16a2.68,2.68,0,0,0,2.34.71,5,5,0,0,0-.25.78c-.09.46-1.36.75-2.27-.1-.42-.4-1.2-.88-1-1.58,0-.13.19-.18.29-.33S11.39,9.93,11.5,10.07Z"/><path class="cls-9" d="M14.05,20.49c-.76.16-6.11.35-6.54.5-1.25.16-1.28,3.4-1.87,4.35-.11.61.8,1.66,2.82,1.82a6.73,6.73,0,0,0,3.61-.94,7.92,7.92,0,0,1,.24-3.8,17.3,17.3,0,0,0,.61,3.27c1.7-.67,2.74-1.37,2.5-2C14.72,22.11,15,20.92,14.05,20.49Z"/><path class="cls-11" d="M9.08,12.38a5,5,0,0,1,1.34-.93c1.73.45,2.38,2.93,2.38,2.93l1.2-.1.6-.92a3.39,3.39,0,0,0-1.15-2.45,6.89,6.89,0,0,1,.88-.64,4.16,4.16,0,0,1,1.74,4.08,29.49,29.49,0,0,1-1.61,6c-.54,1.28-2.46,2.24-4.33,2.42-2.72.25-3.22-1.13-3.22-2,0-.2.76-3.53.76-3.53s1.59,1,2.37.31C12.34,16.32,11,12.15,9.08,12.38Z"/><path class="cls-12" d="M14.51,10.72c-.26-.05-.69,0-.6.19,1.73,1.68,1.78,4.67,1.74,5.69a4,4,0,0,0,.24-1A5.66,5.66,0,0,0,14.51,10.72Z"/><path class="cls-12" d="M9.42,18.88l0,.65a7.92,7.92,0,0,0,5.73-1.26,1.7,1.7,0,0,0,.25-.84A8.27,8.27,0,0,1,9.42,18.88Z"/><path class="cls-12" d="M9.4,12.06s2.79.62,2.4,4.13c-.36,2.62-3.66,2.87-3.66,2.87L8,19.72s4.09.08,4.5-3.57a4.12,4.12,0,0,0-2.36-4.55C9.94,11.6,9.4,11.94,9.4,12.06Z"/><path class="cls-21" d="M8.87,11.31a3.83,3.83,0,0,1,2.54,4.29c-.38,3.66-5,2.92-5,2.92l-.18.54s5.25,1.16,5.81-3.39a4.23,4.23,0,0,0-3.05-5Z"/><rect class="cls-23" x="6.4" y="18.62" width="1.01" height="0.37" transform="translate(-13.07 20.33) rotate(-74.2)"/><path class="cls-13" d="M13.67,6.45c-2.93-.15-2.08,3-2.08,3-.18,1.11,1,1.42,1,1.42s-.22,1,1.69,1.72a1,1,0,0,0,1.37-.55A11.68,11.68,0,0,0,16,9.53C15.94,9.27,16.34,6.59,13.67,6.45Z"/><path class="cls-18" d="M12.56,11.09l-.38-.23c-.47-.25-.73-.44-.73-1.38h.3c0,.81.19.91.57,1.12l.19.1Z"/><path class="cls-18" d="M14,12.48c-.45-.24-1.13-.75-1.13-1.25V9.64l-.39-.13V11.3c0,.48.58.78.85.94A1.57,1.57,0,0,0,14,12.48Z"/><path class="cls-2" d="M10.86,8.29a2.5,2.5,0,0,1,2.73-3,2.88,2.88,0,0,1,2.95,3c.06.76-.85,1.31-2.91,1.34a6.45,6.45,0,0,1-1.64,0A1.51,1.51,0,0,1,10.86,8.29Z"/><path class="cls-2" d="M10.84,8.07a4,4,0,0,0-.2.87c0,.67.81,1.18,1.54,1.16s.93-.34,1.59-.45C13.37,9.45,11.43,9.72,10.84,8.07Z"/><path class="cls-2" d="M16.54,8.32a.9.9,0,0,1-.38,1.32c-1.43.83-2.8,0-3.22.28-.06-.41,2.07-.38,2.73-.68S16.44,8.33,16.54,8.32Z"/><path class="cls-19" d="M13.77,9.65c2.91,0,2.78-1.2,2.78-1.22S16.51,9.56,13.77,9.65Z"/><path class="cls-20" d="M10.88,7.88h0a3.49,3.49,0,0,1,1.72-2.44h0v0a3.42,3.42,0,0,0-1.71,2.42Z"/><path class="cls-20" d="M11.1,8.19h0A4.33,4.33,0,0,1,13.3,5.31h0a0,0,0,0,1,0,0,4.36,4.36,0,0,0-2.2,2.85Z"/><path class="cls-20" d="M11.55,8.5h0s0,0,0,0a4.74,4.74,0,0,1,2.31-3.18s0,0,0,0,0,0,0,0a4.74,4.74,0,0,0-2.31,3.15Z"/><path class="cls-20" d="M12,8.78h0v0a6.78,6.78,0,0,1,2.27-3.4s0,0,0,0v0A6.74,6.74,0,0,0,12,8.77Z"/><path class="cls-20" d="M12.47,8.93h0a14.2,14.2,0,0,1,2.07-3.49h0s0,0,0,0a14.58,14.58,0,0,0-2.07,3.48Z"/><path class="cls-20" d="M13.05,9.05h0a0,0,0,0,1,0,0s1-2,1.81-3.48h0v0C14,7.07,13.07,9,13.06,9.05Z"/><path class="cls-20" d="M13.65,9.19h0s0,0,0,0a15.72,15.72,0,0,0,1.54-3.44s0,0,0,0,0,0,0,0a16.44,16.44,0,0,1-1.55,3.46Z"/><path class="cls-20" d="M14.28,9.22h0v0A6.68,6.68,0,0,0,15.55,6h0a6.82,6.82,0,0,1-1.29,3.22Z"/><path class="cls-20" d="M15,9.16h0s0,0,0,0a3.88,3.88,0,0,0,.92-2.78h0s0,0,0,0A3.92,3.92,0,0,1,15,9.16Z"/><path class="cls-20" d="M15.63,9.05h0V9a2.39,2.39,0,0,0,.59-2.11h0s0,0,0,0A2.43,2.43,0,0,1,15.64,9Z"/><path class="cls-20" d="M16.28,8.49h0a0,0,0,0,1,0,0,3.44,3.44,0,0,0-1-2.73s0,0,0,0h0a3.48,3.48,0,0,1,1,2.76Z"/><path class="cls-20" d="M16,8.74s0,0,0,0a4.4,4.4,0,0,0-1.42-3.27s0,0,0,0h0A4.4,4.4,0,0,1,16,8.73Z"/><path class="cls-20" d="M15.48,8.93h0A4.76,4.76,0,0,0,14,5.34s0,0,0,0,0,0,0,0a4.8,4.8,0,0,1,1.45,3.6Z"/><path class="cls-20" d="M15,9.1s0,0,0,0a6.92,6.92,0,0,0-1.34-3.77v0h0A6.76,6.76,0,0,1,15,9.08s0,0,0,0Z"/><path class="cls-20" d="M14.5,9.13l0,0a15.62,15.62,0,0,0-1.14-3.8s0,0,0,0h0a15.86,15.86,0,0,1,1.15,3.81v0Z"/><path class="cls-20" d="M13.91,9.1h0S13.42,7,13,5.34v0l0,0c.41,1.66.88,3.72.88,3.75Z"/><path class="cls-20" d="M13.3,9.09h0a14.18,14.18,0,0,1-.63-3.67v0a0,0,0,0,1,0,0,13.71,13.71,0,0,0,.63,3.66s0,0,0,0Z"/><path class="cls-20" d="M12.67,9h0a6.18,6.18,0,0,1-.45-3.4h0A6.18,6.18,0,0,0,12.68,9V9Z"/><path class="cls-20" d="M12,8.74h0a3.77,3.77,0,0,1-.23-2.94h0v0A3.76,3.76,0,0,0,12,8.72s0,0,0,0Z"/><path class="cls-20" d="M11.39,8.47h0a2.37,2.37,0,0,1-.07-2.22h0v0a2.35,2.35,0,0,0,.06,2.2h0Z"/><path class="cls-20" d="M12.83,10l-.06,0c0-.05,0-.17,0-.32a1,1,0,0,0,.08-.36h0a1.3,1.3,0,0,1-.08.37c0,.13-.08.25,0,.29s.07,0,.15,0h0s0,0,0,0Z"/><path class="cls-20" d="M13.4,9.9c-.08,0-.13,0-.14-.05s0-.12.09-.21a1.68,1.68,0,0,0,.15-.3s0,0,0,0h0a1,1,0,0,1-.16.31c-.06.08-.11.16-.09.19s.05,0,.13,0v0Z"/><path class="cls-20" d="M13.93,10h0s-.06,0-.06-.05,0-.12.12-.21.19-.22.19-.33h0c0,.12-.1.24-.19.34s-.13.15-.12.19l0,0h0Z"/><path class="cls-20" d="M14.05,10h0v0a.09.09,0,0,0,.06,0s0-.11,0-.19A.85.85,0,0,1,14,9.41h0v0a.68.68,0,0,0,.08.31c0,.08.08.16.06.21a.12.12,0,0,1-.08.06Z"/><path class="cls-20" d="M14.78,10.05h0s0,0,0,0,0-.17-.07-.31a.56.56,0,0,1-.15-.34h0s0,0,0,0a.63.63,0,0,0,.15.32c.1.12.18.24.07.34Z"/><path class="cls-20" d="M15.47,10h0s0,0,0,0,.07-.07.07-.11-.08-.15-.18-.23-.22-.19-.21-.31v0s0,0,0,0,.11.2.21.29.19.17.18.25a.15.15,0,0,1-.08.13Z"/><path class="cls-20" d="M16,9.76h0s0,0,0,0,.06-.12,0-.15-.06-.06-.12-.08a.48.48,0,0,1-.34-.39s0,0,0,0h0a.47.47,0,0,0,.33.37c.07,0,.13,0,.14.1a.25.25,0,0,1-.06.18Z"/><path class="cls-20" d="M16.48,9.4h0v0c.1-.12.13-.2.12-.24s-.09,0-.18,0-.33,0-.39-.2a0,0,0,0,1,0,0h0c.06.16.24.17.38.18s.17,0,.19.06,0,.13-.12.27Z"/><path class="cls-20" d="M14.61,10h0a.1.1,0,0,1-.06,0c0-.06,0-.13.1-.22a.68.68,0,0,0,.19-.39s0,0,0,0,0,0,0,0a.73.73,0,0,1-.18.4c-.07.09-.12.16-.11.2a.07.07,0,0,0,0,0h0Z"/><path class="cls-20" d="M15.24,10h0a.51.51,0,0,1,.07-.4.71.71,0,0,0,.1-.32h0a.85.85,0,0,1-.09.33.49.49,0,0,0-.07.39Z"/><path class="cls-20" d="M15.77,9.84h0v0c.22-.26.19-.33.14-.45A.55.55,0,0,1,15.84,9h0a.71.71,0,0,0,.06.34c.05.12.09.2-.14.48Z"/><path class="cls-20" d="M16.3,9.56h0v0c.23-.23.17-.31.07-.42a.42.42,0,0,1-.14-.34h0a.43.43,0,0,0,.14.33c.1.1.18.2-.07.45Z"/><path class="cls-20" d="M16.69,8.91h0s0,0,0,0,0-.12,0-.13-.07,0-.12,0-.14.07-.19,0-.06-.11,0-.26l0,0v0c0,.13,0,.22,0,.24s.1,0,.16,0,.12-.06.15,0,0,.07,0,.16Z"/><path class="cls-20" d="M16.65,9.12h0s0,0,0,0c.08-.17,0-.2-.06-.25s-.24-.14-.16-.49h0c-.08.33,0,.39.14.45s.17.1.08.29Z"/><path class="cls-20" d="M12.42,10.1l-.05,0c-.06-.05,0-.19.06-.37a1.32,1.32,0,0,0,.1-.47h0a1.27,1.27,0,0,1-.11.47c0,.16-.11.31-.07.35s.06,0,.13,0h0s0,0,0,0Z"/><path class="cls-20" d="M12.08,10.12c-.08,0-.13,0-.15,0s0-.18.07-.32a1.33,1.33,0,0,0,.15-.6h0a1.13,1.13,0,0,1-.15.61c-.06.13-.11.24-.07.29s.06,0,.14,0h0v0Z"/><path class="cls-20" d="M11.73,10.07h0c-.14,0-.21-.08-.23-.13s0-.13.1-.22A1,1,0,0,0,11.83,9V9l0,0a1,1,0,0,1-.25.73c-.06.08-.11.14-.09.19s.08.08.21.12h0Z"/><path class="cls-20" d="M11.28,9.9h0a.3.3,0,0,1-.15-.18c0-.1.08-.19.19-.29a.71.71,0,0,0,.32-.54h0a.8.8,0,0,1-.33.56c-.1.1-.19.18-.18.26s0,.11.14.16v0Z"/><path class="cls-20" d="M10.85,9.54h0a.29.29,0,0,1-.1-.2c0-.1.11-.17.22-.25a.82.82,0,0,0,.38-.47h0A.8.8,0,0,1,11,9.1c-.11.08-.21.15-.21.23a.2.2,0,0,0,.09.18s0,0,0,0Z"/><path class="cls-20" d="M10.64,9h0c0-.11,0-.14.09-.19a.89.89,0,0,0,.33-.58s0,0,0,0a0,0,0,0,1,0,0,.86.86,0,0,1-.35.6c-.06,0-.1.08-.07.16V9Z"/><path class="cls-20" d="M10.69,9.25h0c0-.08,0-.16.05-.27a1.12,1.12,0,0,0,.13-.87h0s0,0,0,0a1.18,1.18,0,0,1-.13.88c-.06.11-.1.18-.06.25v0Z"/><path class="cls-20" d="M11,9.69h0c-.11-.15-.07-.26,0-.41a1.31,1.31,0,0,0,.12-.82h0s0,0,0,0a1.5,1.5,0,0,1-.12.83c-.07.15-.11.25,0,.38s0,0,0,0Z"/><path class="cls-20" d="M11.4,10h0a.29.29,0,0,1,0-.36,1.46,1.46,0,0,0,0-.83h0s0,0,0,0a1.45,1.45,0,0,1,0,.84c0,.13-.07.21,0,.34v0Z"/><path class="cls-20" d="M11.84,10.09h0c-.17-.08-.17-.18-.17-.4A4.33,4.33,0,0,0,11.59,9h0a2.93,2.93,0,0,1,.08.74c0,.22,0,.31.16.38,0,0,0,0,0,0Z"/><path class="cls-20" d="M12.26,10.12h0c-.18-.08-.18-.1-.21-.33a6,6,0,0,0-.13-.72h0a5.41,5.41,0,0,1,.12.73c0,.22,0,.23.2.31,0,0,0,0,0,0Z"/><path class="cls-20" d="M12.68,10h0c-.2,0-.22-.12-.26-.39s-.05-.31-.1-.52c0,0,0,0,0,0h0a4.12,4.12,0,0,1,.1.52c.05.28.06.37.24.38h0Z"/><path class="cls-20" d="M13,9.9l-.09,0c-.06,0-.08-.13-.11-.27a2.52,2.52,0,0,0-.15-.54s0,0,0,0h0a2.67,2.67,0,0,1,.16.54c0,.14,0,.22.09.25s.08,0,.16,0h0s0,0,0,0Z"/><path class="cls-20" d="M13.65,9.94h0c-.22,0-.24-.15-.27-.34a1.42,1.42,0,0,0-.14-.49h0a1.46,1.46,0,0,1,.15.5c0,.19,0,.3.24.31h0Z"/><path class="cls-21" d="M10.84,8c0,.06,0,1.16,2.39,1.4,3.15.32,3.31-1.14,3.32-1.16a1.2,1.2,0,0,0-.06-.54s-.17,1.54-3.32,1.18c-2.1-.23-2.31-1.39-2.31-1.4A1.36,1.36,0,0,0,10.84,8Z"/><path class="cls-1" d="M10.12,19.46s0-2.8.1-4S9.89,13,8.59,13C7.1,13,6.93,14.59,7,15.6s.14,5.19.26,6.21S9.1,23.13,9.67,23Z"/><path class="cls-22" d="M10.12,19.46s-1.94,1.13-2,2.34A9.56,9.56,0,0,1,10.12,19.46Z"/><path class="cls-23" d="M19.65,19.59s.17-.39.52-.38.68-.59.85-.37-.23.62-.25.77.13.59.15,1c0,.13-.89-.12-.89-.12Z"/><polygon class="cls-12" points="15.7 17.38 14.9 16.92 13.94 18.34 14.39 19.61 14.87 19.34 15.59 18.08 15.7 18.15 15.7 17.38"/><polygon class="cls-11" points="15.21 17.66 14.41 17.2 13.46 18.62 14.39 19.61 15.11 18.36 15.21 18.43 15.21 17.66"/><path class="cls-12" d="M18.15,19.19l-1.23-.41a20.8,20.8,0,0,0,.83,3.7,7.29,7.29,0,0,1,.85.23l.3-.17A17.8,17.8,0,0,1,18.15,19.19Z"/><path class="cls-11" d="M17.86,19.36,16.62,19a20.8,20.8,0,0,0,.83,3.7l1.15.06A18.57,18.57,0,0,1,17.86,19.36Z"/><path class="cls-23" d="M15.69,17.38v.77l1.23.59v-.66Zm1.14,1c0,.11-.08.17-.18.12L16,18.19a.35.35,0,0,1-.18-.29v-.19A.11.11,0,0,1,16,17.6l.66.38a.4.4,0,0,1,.18.31Z"/><polygon class="cls-23" points="15.79 17.96 15.82 18.13 16.48 18.45 16.49 18.58 16.3 18.89 15.27 18.39 15.29 17.7 15.66 17.84 15.79 17.96"/><path class="cls-8" d="M15.93,18.4l0,0a1,1,0,0,1-.06-.39L15.77,18l.05,0L16,18A.54.54,0,0,0,15.93,18.4Z"/><path class="cls-24" d="M15.88,18.43h0a.86.86,0,0,1-.09-.43l.13.07A.58.58,0,0,0,15.88,18.43Z"/><polygon class="cls-23" points="10.71 16.02 10.12 16.36 10.04 16 10.04 14.22 10.12 13.98 10.71 13.64 10.71 16.02"/><polygon class="cls-24" points="9.97 13.08 10.01 13.26 10.12 13.16 10.6 12.89 10.45 12.8 9.97 13.08"/><polygon class="cls-25" points="13.66 15.21 11.57 14.58 10.12 13.16 10.6 12.89 14.14 14.93 13.66 15.21"/><polygon class="cls-26" points="10.79 16.64 10.21 16.3 10.21 14.27 13.28 16.04 10.79 16.64"/><polygon class="cls-11" points="13.66 16.37 10.12 14.33 10.12 13.16 13.66 15.21 13.66 16.37"/><polygon class="cls-8" points="9.97 16.27 10.12 16.36 10.12 13.16 9.97 13.08 9.97 16.27"/><polygon class="cls-18" points="14.05 15.44 13.9 15.6 13.66 15.21 14.14 14.93 14.53 15.16 14.05 15.44"/><polygon class="cls-8" points="14.05 16.6 13.66 16.37 13.66 15.21 14.05 15.44 14.22 16.06 14.05 16.6"/><path class="cls-8" d="M15.21,17.66v.76l1.22.6.12-.34-.12-.32-.14-.26-.78-.43Zm1.14,1a.12.12,0,0,1-.18.12l-.66-.32a.35.35,0,0,1-.18-.29V18c0-.11.08-.16.18-.1l.66.38a.4.4,0,0,1,.18.31Z"/><polygon class="cls-18" points="18 17.39 17.78 17.44 14.34 15.53 14.05 15.11 14.53 14.83 18.48 17.11 18 17.39"/><polygon class="cls-23" points="18.26 19.19 17.78 19.46 17.63 19.09 17.77 18.7 17.86 18.4 18.25 18.22 18.26 19.19"/><polygon class="cls-8" points="18 18.55 17.77 18.7 17.78 19.14 14.41 17.2 14.05 16.6 14.05 15.11 18 17.39 18 18.55"/><polygon class="cls-8" points="17.78 19.46 16.43 19.02 16.43 18.36 17.25 18.6 17.78 19.14 17.78 19.46"/><path class="cls-18" d="M17.7,17.87c0,.05-.09.06-.16,0l-1-.61a.4.4,0,0,1-.18-.31h0a.12.12,0,0,1,.09-.13.24.24,0,0,0,0,.09h0a.44.44,0,0,0,.18.32l1.05.6A.13.13,0,0,0,17.7,17.87Z"/><path class="cls-23" d="M17.72,17.78h0a.15.15,0,0,1,0,.08.13.13,0,0,1-.08,0l-1.05-.6a.44.44,0,0,1-.18-.32h0a.24.24,0,0,1,0-.09.16.16,0,0,1,.09,0l1,.6A.4.4,0,0,1,17.72,17.78Z"/><polygon class="cls-23" points="17.29 16.1 16.81 16.38 16.81 16.7 17.29 16.42 17.29 16.1"/><polygon class="cls-24" points="17.29 16.1 16.08 15.41 15.6 15.69 16.81 16.38 17.29 16.1"/><polygon class="cls-8" points="16.81 16.38 15.6 15.69 15.6 16 16.81 16.7 16.81 16.38"/><polygon class="cls-24" points="14.81 14.89 14.59 14.76 14.11 15.04 14.34 15.17 14.81 14.89"/><polygon class="cls-8" points="14.34 15.17 14.11 15.04 14.11 15.14 14.34 15.27 14.34 15.17"/><polygon class="cls-23" points="14.81 14.99 14.34 15.27 14.34 15.17 14.81 14.89 14.81 14.99"/><polygon class="cls-24" points="15.26 15.15 15.03 15.02 14.55 15.29 14.78 15.43 15.26 15.15"/><polygon class="cls-8" points="14.78 15.43 14.55 15.29 14.55 15.39 14.78 15.53 14.78 15.43"/><polygon class="cls-23" points="15.26 15.25 14.78 15.53 14.78 15.43 15.26 15.15 15.26 15.25"/><polygon class="cls-24" points="15.71 15.41 15.48 15.28 15 15.55 15.23 15.69 15.71 15.41"/><polygon class="cls-8" points="15.23 15.69 15 15.55 15 15.65 15.23 15.79 15.23 15.69"/><polygon class="cls-23" points="15.71 15.51 15.23 15.79 15.23 15.69 15.71 15.41 15.71 15.51"/><polygon class="cls-24" points="17.89 16.67 17.66 16.53 17.18 16.81 17.41 16.94 17.89 16.67"/><polygon class="cls-8" points="17.41 16.94 17.18 16.81 17.18 16.91 17.41 17.04 17.41 16.94"/><polygon class="cls-23" points="17.89 16.77 17.41 17.04 17.41 16.94 17.89 16.67 17.89 16.77"/><polygon class="cls-24" points="18.34 16.93 18.11 16.79 17.63 17.07 17.86 17.2 18.34 16.93"/><polygon class="cls-8" points="17.86 17.2 17.63 17.07 17.63 17.17 17.86 17.3 17.86 17.2"/><polygon class="cls-23" points="18.34 17.02 17.86 17.3 17.86 17.2 18.34 16.93 18.34 17.02"/><polygon class="cls-12" points="21.96 20.5 21.48 20.78 21.37 20.58 21.48 20.46 21.96 20.18 21.96 20.5"/><polygon class="cls-11" points="21.48 20.78 20.48 20.2 18.86 20.25 18.59 18.89 19.33 19.18 21.12 20.22 21.48 20.55 21.48 20.78"/><polygon class="cls-23" points="23.55 20.5 23.33 20.77 23.26 20.54 23.33 20.21 23.55 20.22 23.55 20.5"/><polygon class="cls-24" points="23.33 20.21 21.59 19.39 18.48 17.41 18.71 17.42 23.55 20.22 23.33 20.21"/><polygon class="cls-23" points="23.33 20.77 18.48 17.97 18.48 17.41 23.33 20.21 23.33 20.77"/><polygon class="cls-18" points="23.33 21.07 18 17.39 18.12 17.19 18.48 17.11 23.33 19.91 23.33 21.07"/><polygon class="cls-23" points="23.33 21.07 22.85 21.35 22.85 20.18 23.33 19.91 23.33 21.07"/><polygon class="cls-8" points="22.85 21.35 18 18.55 17.83 17.96 18 17.39 22.85 20.18 22.85 21.35"/><polygon class="cls-23" points="22.85 21.05 22.63 21.04 22.63 20.75 22.85 20.49 22.85 21.05"/><polygon class="cls-24" points="22.63 20.75 20.89 19.8 17.78 17.95 18 17.69 22.85 20.49 22.63 20.75"/><polygon class="cls-18" points="22.63 21.04 17.78 18.24 17.78 17.95 22.63 20.75 22.63 21.04"/><polygon class="cls-24" points="18.79 17.18 18.56 17.05 18.08 17.33 18.31 17.46 18.79 17.18"/><polygon class="cls-8" points="18.31 17.46 18.08 17.33 18.08 17.43 18.31 17.56 18.31 17.46"/><polygon class="cls-23" points="18.79 17.28 18.31 17.56 18.31 17.46 18.79 17.18 18.79 17.28"/><polygon class="cls-24" points="19.23 17.44 19 17.31 18.52 17.59 18.75 17.72 19.23 17.44"/><polygon class="cls-8" points="18.75 17.72 18.52 17.59 18.52 17.69 18.75 17.82 18.75 17.72"/><polygon class="cls-23" points="19.23 17.54 18.75 17.82 18.75 17.72 19.23 17.44 19.23 17.54"/><polygon class="cls-24" points="19.68 17.7 19.45 17.57 18.97 17.85 19.2 17.98 19.68 17.7"/><polygon class="cls-8" points="19.2 17.98 18.97 17.85 18.97 17.95 19.2 18.08 19.2 17.98"/><polygon class="cls-23" points="19.68 17.8 19.2 18.08 19.2 17.98 19.68 17.7 19.68 17.8"/><polygon class="cls-24" points="20.13 17.96 19.9 17.83 19.42 18.11 19.65 18.24 20.13 17.96"/><polygon class="cls-8" points="19.65 18.24 19.42 18.11 19.42 18.2 19.65 18.34 19.65 18.24"/><polygon class="cls-23" points="20.13 18.06 19.65 18.34 19.65 18.24 20.13 17.96 20.13 18.06"/><polygon class="cls-24" points="20.58 18.22 20.35 18.09 19.87 18.36 20.1 18.5 20.58 18.22"/><polygon class="cls-8" points="20.1 18.5 19.87 18.36 19.87 18.46 20.1 18.6 20.1 18.5"/><polygon class="cls-23" points="20.58 18.32 20.1 18.6 20.1 18.5 20.58 18.22 20.58 18.32"/><polygon class="cls-24" points="21.03 18.48 20.8 18.35 20.32 18.62 20.55 18.75 21.03 18.48"/><polygon class="cls-8" points="20.55 18.75 20.32 18.62 20.32 18.72 20.55 18.86 20.55 18.75"/><polygon class="cls-23" points="21.03 18.58 20.55 18.86 20.55 18.75 21.03 18.48 21.03 18.58"/><polygon class="cls-24" points="21.48 18.74 21.25 18.6 20.77 18.88 21 19.01 21.48 18.74"/><polygon class="cls-8" points="21 19.01 20.77 18.88 20.77 18.98 21 19.11 21 19.01"/><polygon class="cls-23" points="21.48 18.84 21 19.11 21 19.01 21.48 18.74 21.48 18.84"/><polygon class="cls-24" points="21.92 19 21.69 18.86 21.21 19.14 21.44 19.27 21.92 19"/><polygon class="cls-8" points="21.44 19.27 21.21 19.14 21.21 19.24 21.44 19.37 21.44 19.27"/><polygon class="cls-23" points="21.92 19.09 21.44 19.37 21.44 19.27 21.92 19 21.92 19.09"/><polygon class="cls-24" points="22.37 19.25 22.14 19.12 21.66 19.4 21.89 19.53 22.37 19.25"/><polygon class="cls-8" points="21.89 19.53 21.66 19.4 21.66 19.5 21.89 19.63 21.89 19.53"/><polygon class="cls-23" points="22.37 19.35 21.89 19.63 21.89 19.53 22.37 19.25 22.37 19.35"/><polygon class="cls-24" points="22.82 19.51 22.59 19.38 22.11 19.66 22.34 19.79 22.82 19.51"/><polygon class="cls-8" points="22.34 19.79 22.11 19.66 22.11 19.76 22.34 19.89 22.34 19.79"/><polygon class="cls-23" points="22.82 19.61 22.34 19.89 22.34 19.79 22.82 19.51 22.82 19.61"/><path class="cls-8" d="M23,19.12h0a.18.18,0,0,1-.08.14c-.05,0-.08,0-.08-.05h0v.11H23l.1-.07,0-.12,0,0h0Z"/><path class="cls-23" d="M23.08,19.15h0a.2.2,0,0,1-.08.14c-.05,0-.08,0-.08-.05h0l-.07.36.07.42.18-.1v-.78Z"/><polygon class="cls-8" points="22.91 20.04 22.74 19.94 22.85 19.22 22.91 19.25 22.91 20.04"/><polygon class="cls-24" points="22.91 19.25 22.85 19.22 22.86 19.21 22.92 19.25 22.91 19.25"/><polygon class="cls-24" points="23.08 19.15 23.02 19.12 23.03 19.11 23.09 19.15 23.08 19.15"/><path class="cls-8" d="M23.93,21.32l.18-.31-.9-.53a.1.1,0,0,0-.09,0,.26.26,0,0,0-.13.22.11.11,0,0,0,0,.09h0Z"/><path class="cls-23" d="M23.83,21.27,24,21l-.15-.09a.1.1,0,0,0-.09,0,.26.26,0,0,0-.13.23s0,.07,0,.08h0Z"/><path class="cls-23" d="M24.14,21.09a.27.27,0,0,1-.12.22c-.08,0-.13,0-.13-.07A.26.26,0,0,1,24,21C24.09,21,24.14,21,24.14,21.09Z"/><path class="cls-8" d="M25.42,22.28l.26-.46-1.62-.94a.14.14,0,0,0-.14,0,.42.42,0,0,0-.18.32.14.14,0,0,0,.05.12h0Z"/><path class="cls-18" d="M25.73,21.94a.39.39,0,0,1-.19.32c-.1.06-.18,0-.18-.11a.41.41,0,0,1,.18-.32C25.65,21.77,25.73,21.82,25.73,21.94Z"/><path d="M25.64,22a.19.19,0,0,1-.1.16.06.06,0,0,1-.09,0,.2.2,0,0,1,.09-.16C25.6,21.91,25.64,21.93,25.64,22Z"/><path class="cls-8" d="M16.19,14.49l-.32.55-.54-.31h0s-.06-.07-.06-.14a.49.49,0,0,1,.22-.39.16.16,0,0,1,.16,0h0Z"/><path class="cls-23" d="M16,14.51a.51.51,0,0,0-.22.39c0,.14.1.2.22.13a.52.52,0,0,0,.22-.39C16.25,14.5,16.15,14.44,16,14.51Z"/><path class="cls-8" d="M16.29,14.69l.07-.13-.15-.09h0l-.08,0a.19.19,0,0,0-.11,0,.49.49,0,0,0-.23.4v.92l.15.08.12-.72.19.39S16.29,14.8,16.29,14.69Z"/><path class="cls-23" d="M16.44,14.73c0-.12-.06-.19-.16-.19l-.11,0a.51.51,0,0,0-.23.4v.92l.5-.28Z"/><path class="cls-8" d="M16.88,14.89l-.31.55L16,15.13h0A.15.15,0,0,1,16,15a.48.48,0,0,1,.23-.39.14.14,0,0,1,.15,0h0Z"/><path class="cls-23" d="M16.72,14.91a.49.49,0,0,0-.22.39c0,.14.1.2.22.13A.51.51,0,0,0,17,15C17,14.9,16.85,14.84,16.72,14.91Z"/><path class="cls-8" d="M17,15.08,17,15l-.15-.09h0l-.08,0a.3.3,0,0,0-.11,0,.49.49,0,0,0-.23.4v.92l.15.09.12-.72L17,16Z"/><path class="cls-23" d="M17.12,15.12c0-.11-.06-.19-.16-.19a.19.19,0,0,0-.11,0,.49.49,0,0,0-.23.39v.93l.5-.29Z"/><path class="cls-8" d="M17.56,15.29l-.32.54-.54-.31h0s-.06-.07-.06-.14a.51.51,0,0,1,.22-.39A.19.19,0,0,1,17,15h0Z"/><path class="cls-23" d="M17.4,15.3a.51.51,0,0,0-.22.39c0,.14.1.2.22.13a.51.51,0,0,0,.22-.39C17.62,15.29,17.52,15.23,17.4,15.3Z"/><path class="cls-8" d="M17.59,15.43a.49.49,0,0,1-.21.36l-.08,0a.09.09,0,0,1-.09-.08l0,0a.47.47,0,0,0,.21-.36.08.08,0,0,0,0,0h.05C17.56,15.3,17.59,15.35,17.59,15.43Z"/><path class="cls-27" d="M17.46,15.35a.47.47,0,0,1-.21.36l0,0v0a.46.46,0,0,1,.21-.36l0,0A.08.08,0,0,1,17.46,15.35Z"/><path class="cls-23" d="M14.42,17.19l-.09.12,1,.56.42.13.45.26s-.09.35-.17.36a3.19,3.19,0,0,1-.4,0,6.19,6.19,0,0,1-.48.79,1.5,1.5,0,0,1-.73.23c-.26,0-.93-.53-.93-.53a4.4,4.4,0,0,1-.66-1.21,4.34,4.34,0,0,1,1-.69A1.19,1.19,0,0,1,14.42,17.19Z"/><path class="cls-1" d="M12.73,17.92a6,6,0,0,0-.74.54l1,1.41s.41-.38.66-.67S13,17.78,12.73,17.92Z"/><path class="cls-22" d="M12.12,18.36c-.29,0,1,1.42,1.07,1.3S13,18.34,12.12,18.36Z"/><path class="cls-1" d="M9.67,23a11.75,11.75,0,0,0,3.45-2.86A1.21,1.21,0,0,0,13,19a1.84,1.84,0,0,0-1.23-.75c-.51-.05-1.63,1.19-1.63,1.19l-1,1.89Z"/><path class="cls-23" d="M18.85,20.06a.79.79,0,0,0-.21.66,1.84,1.84,0,0,0,1.58.36c.38-.07.8-.36.69-.51-.48-.62-.35-1.1-.88-1.05A2.1,2.1,0,0,0,18.85,20.06Z"/><polygon class="cls-23" points="8.98 11.54 8.75 11.47 9.02 10.5 9.26 10.57 8.98 11.54"/><rect class="cls-35" x="7.76" y="15.1" width="1.21" height="0.43"/><rect class="cls-36" x="7.76" y="15.96" width="1.21" height="0.43"/><rect class="cls-37" x="7.76" y="15.53" width="1.21" height="0.43"/><rect class="cls-35" x="32.39" y="11.01" width="1.21" height="0.43"/><rect class="cls-36" x="32.39" y="11.86" width="1.21" height="0.43"/><rect class="cls-37" x="32.39" y="11.44" width="1.21" height="0.43"/><rect class="cls-35" x="36.56" y="41.89" width="1.21" height="0.43" transform="translate(-6.13 6.34) rotate(-9.01)"/><rect class="cls-36" x="36.7" y="42.73" width="1.21" height="0.43" transform="translate(-6.26 6.37) rotate(-9.01)"/><rect class="cls-37" x="36.63" y="42.3" width="1.21" height="0.43" transform="translate(-6.2 6.36) rotate(-9.01)"/></g></g></svg>