<svg xmlns="http://www.w3.org/2000/svg" viewBox="0 0 59.03 26.24"><defs><style>.cls-1,.cls-14{fill:#45523d;}.cls-1,.cls-13,.cls-2,.cls-4,.cls-6,.cls-7,.cls-8,.cls-9{fill-rule:evenodd;}.cls-12,.cls-2,.cls-3{opacity:0.3;}.cls-10,.cls-4{fill:#383838;}.cls-5{fill:#050505;}.cls-6{fill:#7a7f7c;}.cls-7{fill:#7b916d;}.cls-8{fill:#abc997;}.cls-11,.cls-9{fill:#9cb88a;}</style></defs><g id="Слой_2" data-name="Слой 2"><g id="Layer_1" data-name="Layer 1"><polygon class="cls-1" points="18.22 5.05 18.38 5.95 7.17 7.41 7.16 6.59 18.22 5.05"/><polygon class="cls-2" points="18.33 5.66 18.38 5.95 7.38 7.38 7.38 7.18 18.33 5.66"/><path class="cls-2" d="M37.48,10.08H56.92c.41,0,.74.17.74.37h0c0,.21-.33.37-.74.37H37.48c-.4,0-.73-.16-.73-.37h0C36.75,10.25,37.08,10.08,37.48,10.08Z"/><rect class="cls-3" x="4.98" y="7.41" width="25.81" height="2.95"/><rect class="cls-3" x="44.15" y="3.42" width="3.47" height="7.18"/><rect class="cls-3" x="20.32" y="7.49" width="19.38" height="4.31"/><path class="cls-4" d="M55.68,23.25,49.34,26H16.44L7.23,21C5.21,19.93,6,16.85,9.5,17l45.14,1.37A2.58,2.58,0,0,1,55.68,23.25Z"/><path class="cls-5" d="M49.38,26.24l-33,0-9.21-5A2.12,2.12,0,0,1,6,18.79c.24-.93,1.25-2,3.32-2h.18l45.13,1.37a2.79,2.79,0,0,1,2.7,2.31,2.62,2.62,0,0,1-1.58,3Zm-32.89-.39H49.3l6.3-2.78A2.23,2.23,0,0,0,57,20.51a2.41,2.41,0,0,0-2.33-2L9.49,17.15c-1.94-.07-2.89.91-3.1,1.74a1.73,1.73,0,0,0,.93,2Z"/><path class="cls-6" d="M14,23.78l-.55.37.68.38v-.67a.1.1,0,0,0,0-.09A.12.12,0,0,0,14,23.78Z"/><path class="cls-6" d="M15.18,24.41l-.56.38.68.37,0-.67a.09.09,0,0,0-.05-.08A.08.08,0,0,0,15.18,24.41Z"/><path class="cls-6" d="M12.87,23.15l-.56.37.68.37,0-.67a.1.1,0,0,0,0-.08A.08.08,0,0,0,12.87,23.15Z"/><path class="cls-6" d="M11.72,22.51l-.56.37.68.38v-.67s0-.07,0-.08A.07.07,0,0,0,11.72,22.51Z"/><path class="cls-6" d="M10.56,21.88l-.56.37.68.37,0-.67a.1.1,0,0,0,0-.08A.08.08,0,0,0,10.56,21.88Z"/><path class="cls-6" d="M9.41,21.24l-.56.37.68.38v-.67s0-.07,0-.08A.07.07,0,0,0,9.41,21.24Z"/><path class="cls-6" d="M8.25,20.61,7.69,21l.68.37,0-.67a.1.1,0,0,0-.05-.08A.1.1,0,0,0,8.25,20.61Z"/><path class="cls-6" d="M7.1,20l-.56.37.68.38v-.67s0-.07,0-.08A.07.07,0,0,0,7.1,20Z"/><path class="cls-6" d="M54.78,22.74l-.05.67.71-.32-.52-.42a.1.1,0,0,0-.09,0A.08.08,0,0,0,54.78,22.74Z"/><path class="cls-6" d="M53.57,23.27l0,.67.71-.32-.53-.41a.08.08,0,0,0-.09,0A.09.09,0,0,0,53.57,23.27Z"/><path class="cls-6" d="M52.36,23.8l0,.67.71-.31-.52-.42a.08.08,0,0,0-.09,0A.12.12,0,0,0,52.36,23.8Z"/><path class="cls-6" d="M51.16,24.33l0,.67.71-.31-.53-.42a.1.1,0,0,0-.09,0A.1.1,0,0,0,51.16,24.33Z"/><path class="cls-6" d="M50,24.86l0,.67.71-.31-.52-.42a.08.08,0,0,0-.09,0S50,24.83,50,24.86Z"/><path class="cls-6" d="M48.75,25.19l-.31.59h.78l-.31-.59a.09.09,0,0,0-.08-.05A.1.1,0,0,0,48.75,25.19Z"/><path class="cls-6" d="M47.44,25.19l-.31.59h.77l-.31-.59a.08.08,0,0,0-.08-.05A.08.08,0,0,0,47.44,25.19Z"/><path class="cls-6" d="M46.12,25.19l-.31.59h.78l-.31-.59a.1.1,0,0,0-.08-.05A.08.08,0,0,0,46.12,25.19Z"/><path class="cls-6" d="M44.8,25.19l-.31.59h.78L45,25.19a.09.09,0,0,0-.16,0Z"/><path class="cls-6" d="M43.48,25.19l-.31.59H44l-.31-.59a.09.09,0,0,0-.08-.05A.1.1,0,0,0,43.48,25.19Z"/><path class="cls-6" d="M42.17,25.19l-.31.59h.77l-.31-.59a.08.08,0,0,0-.08-.05A.08.08,0,0,0,42.17,25.19Z"/><path class="cls-6" d="M40.85,25.19l-.31.59h.77l-.3-.59a.1.1,0,0,0-.08-.05A.08.08,0,0,0,40.85,25.19Z"/><path class="cls-6" d="M39.53,25.19l-.31.59H40l-.31-.59a.09.09,0,0,0-.16,0Z"/><path class="cls-6" d="M38.21,25.19l-.31.59h.78l-.31-.59a.09.09,0,0,0-.08-.05A.1.1,0,0,0,38.21,25.19Z"/><path class="cls-6" d="M36.9,25.19l-.31.59h.77l-.31-.59a.08.08,0,0,0-.08-.05A.08.08,0,0,0,36.9,25.19Z"/><path class="cls-6" d="M35.58,25.19l-.31.59H36l-.3-.59a.1.1,0,0,0-.08-.05A.08.08,0,0,0,35.58,25.19Z"/><path class="cls-6" d="M34.26,25.19l-.31.59h.78l-.31-.59a.09.09,0,0,0-.16,0Z"/><path class="cls-6" d="M32.94,25.19l-.31.59h.78l-.31-.59a.09.09,0,0,0-.08-.05A.1.1,0,0,0,32.94,25.19Z"/><path class="cls-6" d="M31.63,25.19l-.31.59h.77l-.31-.59a.08.08,0,0,0-.08-.05A.08.08,0,0,0,31.63,25.19Z"/><path class="cls-6" d="M30.31,25.19l-.31.59h.77l-.31-.59a.08.08,0,0,0-.07-.05A.08.08,0,0,0,30.31,25.19Z"/><path class="cls-6" d="M29,25.19l-.31.59h.78l-.31-.59a.09.09,0,0,0-.16,0Z"/><path class="cls-6" d="M27.67,25.19l-.31.59h.78l-.31-.59a.09.09,0,0,0-.16,0Z"/><path class="cls-6" d="M26.36,25.19l-.31.59h.77l-.31-.59a.08.08,0,0,0-.08-.05A.08.08,0,0,0,26.36,25.19Z"/><path class="cls-6" d="M25,25.19l-.31.59h.77l-.31-.59a.08.08,0,0,0-.07-.05A.08.08,0,0,0,25,25.19Z"/><path class="cls-6" d="M23.72,25.19l-.31.59h.78l-.31-.59a.1.1,0,0,0-.08-.05A.09.09,0,0,0,23.72,25.19Z"/><path class="cls-6" d="M22.4,25.19l-.31.59h.78l-.31-.59a.09.09,0,0,0-.16,0Z"/><path class="cls-6" d="M21.09,25.19l-.31.59h.77l-.31-.59a.08.08,0,0,0-.08-.05A.08.08,0,0,0,21.09,25.19Z"/><path class="cls-6" d="M19.77,25.19l-.31.59h.77l-.31-.59a.08.08,0,0,0-.07-.05A.08.08,0,0,0,19.77,25.19Z"/><path class="cls-6" d="M18.45,25.19l-.31.59h.78l-.31-.59a.1.1,0,0,0-.08-.05A.09.09,0,0,0,18.45,25.19Z"/><path class="cls-6" d="M17.13,25.19l-.31.59h.78l-.31-.59a.09.09,0,0,0-.16,0Z"/><path class="cls-7" d="M54.23,18.51a1.43,1.43,0,0,0-.27.09.68.68,0,0,1-.26.72.7.7,0,0,1-.77,0,2,2,0,0,0-.17.23.68.68,0,0,1,.21.74.7.7,0,0,1-.61.47v.29a.7.7,0,0,1,.61.47.68.68,0,0,1-.21.74,2,2,0,0,0,.17.23.68.68,0,0,1,.76,0,.7.7,0,0,1,.27.73l.27.08a.69.69,0,0,1,1.28,0l.27-.08a.69.69,0,0,1,1-.76A1.84,1.84,0,0,0,57,22.3a.69.69,0,0,1,.4-1.22v-.29a.7.7,0,0,1-.61-.47.68.68,0,0,1,.21-.74,2,2,0,0,0-.17-.23.7.7,0,0,1-.77,0,.68.68,0,0,1-.26-.72,1.43,1.43,0,0,0-.27-.09.69.69,0,0,1-1.28,0Z"/><path class="cls-8" d="M54.25,18.91l-.07,0a.1.1,0,0,0-.06.11.56.56,0,0,1-.24.53.56.56,0,0,1-.58.06.11.11,0,0,0-.12,0l0,.06a.08.08,0,0,0,0,.12.6.6,0,0,1,.12.58.62.62,0,0,1-.44.39s-.07,0-.08.09V21a.12.12,0,0,0,.08.1.58.58,0,0,1,.44.39.61.61,0,0,1-.12.57.08.08,0,0,0,0,.12l0,.06a.11.11,0,0,0,.12,0,.58.58,0,0,1,.58.06.6.6,0,0,1,.24.53.1.1,0,0,0,.06.11l.07,0a.1.1,0,0,0,.11-.05.59.59,0,0,1,.51-.29.61.61,0,0,1,.51.29.1.1,0,0,0,.11.05l.07,0a.1.1,0,0,0,.06-.11.58.58,0,0,1,.82-.59.1.1,0,0,0,.12,0l0-.06a.08.08,0,0,0,0-.12.59.59,0,0,1-.12-.57.58.58,0,0,1,.44-.39A.12.12,0,0,0,57,21V20.9a.11.11,0,0,0-.08-.09.62.62,0,0,1-.44-.39.6.6,0,0,1,.12-.58.08.08,0,0,0,0-.12l0-.06a.11.11,0,0,0-.12,0,.56.56,0,0,1-.58-.06.56.56,0,0,1-.24-.53.1.1,0,0,0-.06-.11l-.07,0a.1.1,0,0,0-.11.05.59.59,0,0,1-1,0A.1.1,0,0,0,54.25,18.91Z"/><path class="cls-2" d="M54.62,22l-.09-.61a2.11,2.11,0,0,1,.36,0,1.58,1.58,0,0,1,.32,0l-.07.6a.18.18,0,0,0,.08.18.18.18,0,0,0,.2,0,1.31,1.31,0,0,0,.68-.69.18.18,0,0,0,0-.2.18.18,0,0,0-.18-.08l-.59.07a1.66,1.66,0,0,1,0-.32,2.3,2.3,0,0,1,0-.37l.58.1a.19.19,0,0,0,.19-.08.18.18,0,0,0,0-.2,1.43,1.43,0,0,0-.67-.68.2.2,0,0,0-.2,0,.2.2,0,0,0-.08.19l.06.56a1.62,1.62,0,0,1-.32,0,2.14,2.14,0,0,1-.36,0l.09-.58a.21.21,0,0,0-.28-.21,1.35,1.35,0,0,0-.7.69.18.18,0,0,0,0,.2.19.19,0,0,0,.19.08l.58-.1a2.3,2.3,0,0,1,0,.37,1.66,1.66,0,0,1,0,.32l-.59-.07a.18.18,0,0,0-.18.08.2.2,0,0,0,0,.2,1.33,1.33,0,0,0,.71.71.24.24,0,0,0,.2,0A.2.2,0,0,0,54.62,22Z"/><path class="cls-1" d="M54.87,20.3a.64.64,0,0,0-.63.64.63.63,0,0,0,1.26,0A.64.64,0,0,0,54.87,20.3Z"/><path class="cls-7" d="M54.87,20.54a.4.4,0,1,0,.39.4A.39.39,0,0,0,54.87,20.54Z"/><path class="cls-6" d="M16.45,25.2l-.41.27.5.27v-.49a.05.05,0,0,0,0-.05A0,0,0,0,0,16.45,25.2Z"/><path class="cls-7" d="M18,21.92a2.05,2.05,0,1,0,.88,2.77A2,2,0,0,0,18,21.92Z"/><path class="cls-4" d="M17.84,22.16a1.79,1.79,0,1,0,.77,2.41A1.79,1.79,0,0,0,17.84,22.16Z"/><path class="cls-8" d="M17.46,23.88l-.32.32L18,25.26a1.83,1.83,0,0,0,.51-.49Z"/><path class="cls-8" d="M17,24.22,16.63,24l-.74,1.12a1.69,1.69,0,0,0,.31.21,1.66,1.66,0,0,0,.31.12Z"/><path class="cls-8" d="M16.58,23.91l.08-.45-1.31-.36a1.88,1.88,0,0,0-.12.7Z"/><path class="cls-8" d="M16.73,23.39l.45-.07L17.12,22a1.86,1.86,0,0,0-.7.1Z"/><path class="cls-8" d="M17.28,23.37l.2.41,1.27-.48a1.81,1.81,0,0,0-.31-.64Z"/><path class="cls-1" d="M17.34,23.13a.7.7,0,0,0-.94.3.7.7,0,1,0,.94-.3Z"/><path class="cls-7" d="M17.22,23.37a.43.43,0,1,0,.18.58A.43.43,0,0,0,17.22,23.37Z"/><path class="cls-7" d="M17.83,23.29a.11.11,0,0,0-.14.05.11.11,0,1,0,.19.1A.11.11,0,0,0,17.83,23.29Z"/><path class="cls-7" d="M17.68,24.27a.13.13,0,0,0-.15.05.12.12,0,0,0,0,.15.11.11,0,1,0,.1-.2Z"/><path class="cls-7" d="M16.66,24.42a.1.1,0,0,0-.14,0,.11.11,0,0,0,0,.15.11.11,0,0,0,.15-.05A.1.1,0,0,0,16.66,24.42Z"/><path class="cls-7" d="M16.21,23.51a.13.13,0,0,0-.15,0,.12.12,0,0,0,.05.15.11.11,0,0,0,.1-.2Z"/><path class="cls-7" d="M17,22.8a.1.1,0,0,0-.14,0,.11.11,0,0,0,0,.15.11.11,0,0,0,.15,0A.1.1,0,0,0,17,22.8Z"/><path class="cls-7" d="M58.37,13H40.79a.33.33,0,0,1-.33-.32l0-1.14a.32.32,0,0,0-.33-.32H12.33a.32.32,0,0,0-.28.14L8.23,17.16l49.88.2.92-1-.33-3A.33.33,0,0,0,58.37,13Z"/><path class="cls-7" d="M8,17.61a1.77,1.77,0,1,0,1.78,1.77A1.77,1.77,0,0,0,8,17.61Z"/><path class="cls-8" d="M8,17.91a1.47,1.47,0,1,0,1.48,1.47A1.47,1.47,0,0,0,8,17.91Z"/><path class="cls-2" d="M7.79,20.41l-.1-.62a2.17,2.17,0,0,1,.36,0,1.77,1.77,0,0,1,.33,0l-.08.6a.21.21,0,0,0,.08.19.21.21,0,0,0,.2,0,1.38,1.38,0,0,0,.69-.7.18.18,0,0,0,0-.2.21.21,0,0,0-.18-.08l-.59.08a1.77,1.77,0,0,1,0-.33,2.17,2.17,0,0,1,0-.36l.59.09A.2.2,0,0,0,9.24,19a.22.22,0,0,0,0-.21,1.29,1.29,0,0,0-.67-.67.18.18,0,0,0-.2,0,.18.18,0,0,0-.08.18l.07.56a1.76,1.76,0,0,1-.33,0,2.17,2.17,0,0,1-.36,0l.09-.57a.21.21,0,0,0-.08-.19.18.18,0,0,0-.2,0,1.28,1.28,0,0,0-.69.68.18.18,0,0,0,0,.21.19.19,0,0,0,.19.07L7.6,19a2.17,2.17,0,0,1,0,.36,1.76,1.76,0,0,1,0,.33L7,19.63a.2.2,0,0,0-.2.28,1.33,1.33,0,0,0,.71.71.21.21,0,0,0,.28-.21Z"/><path class="cls-1" d="M8,18.6a.78.78,0,1,0,.78.78A.78.78,0,0,0,8,18.6Z"/><path class="cls-7" d="M8,18.78a.6.6,0,1,0,.6.6A.6.6,0,0,0,8,18.78Z"/><path class="cls-1" d="M56.7,14.4H51.27a.25.25,0,0,1-.23-.27v-.05h5.9v.05A.26.26,0,0,1,56.7,14.4Z"/><path class="cls-9" d="M56.8,14H51.18a.26.26,0,0,0-.24.27v0H57v0A.26.26,0,0,0,56.8,14Z"/><path class="cls-1" d="M56.7,14.83H51.27a.25.25,0,0,1-.23-.27v-.05h5.9v.05A.26.26,0,0,1,56.7,14.83Z"/><path class="cls-1" d="M56.7,15.26H51.27A.25.25,0,0,1,51,15v-.05h5.9V15A.26.26,0,0,1,56.7,15.26Z"/><path class="cls-1" d="M56.7,15.68H51.27a.25.25,0,0,1-.23-.26v-.05h5.9v.05A.25.25,0,0,1,56.7,15.68Z"/><path class="cls-1" d="M56.7,16.11H51.27a.25.25,0,0,1-.23-.27v-.05h5.9v.05A.26.26,0,0,1,56.7,16.11Z"/><path class="cls-9" d="M56.8,14.38H51.18a.25.25,0,0,0-.24.26v0H57v0A.25.25,0,0,0,56.8,14.38Z"/><path class="cls-9" d="M56.8,14.8H51.18a.26.26,0,0,0-.24.27v0H57v0A.26.26,0,0,0,56.8,14.8Z"/><path class="cls-9" d="M56.8,15.23H51.18a.26.26,0,0,0-.24.27v.05H57V15.5A.26.26,0,0,0,56.8,15.23Z"/><path class="cls-9" d="M56.8,15.66H51.18a.26.26,0,0,0-.24.27V16H57v-.05A.26.26,0,0,0,56.8,15.66Z"/><path class="cls-9" d="M6.77,17l-1.1.59,5.43,1.54,46.79-.2c0-1.24-1.74-2.05-2.83-2C39,16.93,22.87,16.86,6.77,17Z"/><path class="cls-9" d="M6.6,17.81l4.5,1.28,46.79-.2a1.07,1.07,0,0,0,0-.25,3.15,3.15,0,0,0-2.52-1.1c-16.09,0-32.19-.08-48.28,0Z"/><path class="cls-6" d="M21.81,25.2l-.41.27.5.27v-.49a.05.05,0,0,0,0-.05S21.83,25.18,21.81,25.2Z"/><path class="cls-7" d="M23.33,21.92a2.06,2.06,0,1,0,.88,2.77A2.06,2.06,0,0,0,23.33,21.92Z"/><path class="cls-4" d="M23.2,22.16A1.79,1.79,0,1,0,24,24.57,1.79,1.79,0,0,0,23.2,22.16Z"/><path class="cls-8" d="M22.83,23.88l-.33.32.84,1.06a1.83,1.83,0,0,0,.51-.49Z"/><path class="cls-8" d="M22.4,24.22,22,24l-.74,1.12a1.69,1.69,0,0,0,.31.21,2,2,0,0,0,.31.12Z"/><path class="cls-8" d="M22,23.91l.07-.45-1.31-.36a2.1,2.1,0,0,0-.12.7Z"/><path class="cls-8" d="M22.09,23.39l.46-.07L22.49,22a1.83,1.83,0,0,0-.7.1Z"/><path class="cls-8" d="M22.64,23.37l.2.41,1.27-.48a2,2,0,0,0-.3-.64Z"/><path class="cls-1" d="M22.7,23.13a.7.7,0,0,0-.94.3.7.7,0,1,0,1.24.64A.7.7,0,0,0,22.7,23.13Z"/><path class="cls-7" d="M22.58,23.37a.43.43,0,1,0-.4.76.42.42,0,0,0,.58-.18A.43.43,0,0,0,22.58,23.37Z"/><path class="cls-7" d="M23.19,23.29a.11.11,0,0,0-.14.05.11.11,0,1,0,.19.1A.11.11,0,0,0,23.19,23.29Z"/><path class="cls-7" d="M23,24.27a.11.11,0,1,0,.05.15A.13.13,0,0,0,23,24.27Z"/><path class="cls-7" d="M22,24.42a.1.1,0,0,0-.14,0,.11.11,0,0,0,0,.15.11.11,0,0,0,.15-.05A.1.1,0,0,0,22,24.42Z"/><path class="cls-7" d="M21.57,23.51a.11.11,0,1,0,.05.15A.13.13,0,0,0,21.57,23.51Z"/><path class="cls-7" d="M22.32,22.8a.11.11,0,0,0-.15,0,.11.11,0,0,0,0,.15.1.1,0,0,0,.14,0A.1.1,0,0,0,22.32,22.8Z"/><path class="cls-6" d="M27.17,25.2l-.41.27.5.27v-.49a.05.05,0,0,0,0-.05A0,0,0,0,0,27.17,25.2Z"/><path class="cls-7" d="M28.69,21.92a2.06,2.06,0,1,0,.88,2.77A2.06,2.06,0,0,0,28.69,21.92Z"/><path class="cls-4" d="M28.57,22.16a1.79,1.79,0,1,0,.76,2.41A1.79,1.79,0,0,0,28.57,22.16Z"/><path class="cls-8" d="M28.19,23.88l-.33.32.85,1.06a1.79,1.79,0,0,0,.5-.49Z"/><path class="cls-8" d="M27.76,24.22,27.35,24l-.74,1.12a2.11,2.11,0,0,0,.31.21,2,2,0,0,0,.31.12Z"/><path class="cls-8" d="M27.31,23.91l.07-.45-1.3-.36a1.7,1.7,0,0,0-.12.7Z"/><path class="cls-8" d="M27.46,23.39l.45-.07L27.85,22a1.83,1.83,0,0,0-.7.1Z"/><path class="cls-8" d="M28,23.37l.2.41,1.28-.48a2,2,0,0,0-.31-.64Z"/><path class="cls-1" d="M28.06,23.13a.68.68,0,0,0-.93.3.69.69,0,1,0,.93-.3Z"/><path class="cls-7" d="M27.94,23.37a.43.43,0,1,0,.19.58A.43.43,0,0,0,27.94,23.37Z"/><path class="cls-7" d="M28.56,23.29a.12.12,0,0,0-.15.05.11.11,0,0,0,.05.15.1.1,0,0,0,.14,0A.11.11,0,0,0,28.56,23.29Z"/><path class="cls-7" d="M28.4,24.27a.11.11,0,0,0-.14.05.11.11,0,0,0,0,.15.12.12,0,0,0,.15,0A.11.11,0,0,0,28.4,24.27Z"/><path class="cls-7" d="M27.39,24.42a.11.11,0,0,0-.15,0,.11.11,0,0,0,.05.15.1.1,0,0,0,.14-.05A.1.1,0,0,0,27.39,24.42Z"/><path class="cls-7" d="M26.93,23.51a.11.11,0,0,0-.14,0,.11.11,0,0,0,0,.15.12.12,0,0,0,.15-.05A.11.11,0,0,0,26.93,23.51Z"/><path class="cls-7" d="M27.68,22.8a.11.11,0,0,0-.15,0,.11.11,0,0,0,0,.15.1.1,0,0,0,.14,0A.1.1,0,0,0,27.68,22.8Z"/><path class="cls-6" d="M32.53,25.2l-.4.27.49.27v-.49a.05.05,0,0,0,0-.05A0,0,0,0,0,32.53,25.2Z"/><path class="cls-7" d="M34.05,21.92a2.06,2.06,0,1,0,.88,2.77A2.06,2.06,0,0,0,34.05,21.92Z"/><path class="cls-4" d="M33.93,22.16a1.79,1.79,0,1,0,.77,2.41A1.79,1.79,0,0,0,33.93,22.16Z"/><path class="cls-8" d="M33.55,23.88l-.33.32.85,1.06a2,2,0,0,0,.51-.49Z"/><path class="cls-8" d="M33.12,24.22l-.4-.21L32,25.13a2.11,2.11,0,0,0,.31.21l.31.12Z"/><path class="cls-8" d="M32.67,23.91l.07-.45-1.3-.36a1.7,1.7,0,0,0-.12.7Z"/><path class="cls-8" d="M32.82,23.39l.45-.07L33.21,22a1.83,1.83,0,0,0-.7.1Z"/><path class="cls-8" d="M33.36,23.37l.21.41,1.27-.48a2,2,0,0,0-.31-.64Z"/><path class="cls-1" d="M33.43,23.13a.7.7,0,1,0,.29.94A.69.69,0,0,0,33.43,23.13Z"/><path class="cls-7" d="M33.3,23.37a.43.43,0,1,0,.19.58A.43.43,0,0,0,33.3,23.37Z"/><path class="cls-7" d="M33.92,23.29a.12.12,0,0,0-.15.05.11.11,0,0,0,0,.15.1.1,0,0,0,.14,0A.11.11,0,0,0,33.92,23.29Z"/><path class="cls-7" d="M33.76,24.27a.11.11,0,0,0-.14.05.11.11,0,0,0,0,.15.12.12,0,0,0,.15,0A.11.11,0,0,0,33.76,24.27Z"/><path class="cls-7" d="M32.75,24.42a.11.11,0,0,0-.15,0,.11.11,0,0,0,0,.15.1.1,0,0,0,.14-.05A.1.1,0,0,0,32.75,24.42Z"/><path class="cls-7" d="M32.29,23.51a.11.11,0,0,0-.14,0,.11.11,0,0,0,0,.15.12.12,0,0,0,.15-.05A.11.11,0,0,0,32.29,23.51Z"/><path class="cls-7" d="M33,22.8a.11.11,0,1,0-.1.19.11.11,0,0,0,.15,0A.11.11,0,0,0,33,22.8Z"/><path class="cls-6" d="M37.89,25.2l-.4.27.49.27,0-.49a.07.07,0,0,0,0-.05S37.92,25.18,37.89,25.2Z"/><path class="cls-7" d="M39.41,21.92a2.05,2.05,0,1,0,.88,2.77A2.06,2.06,0,0,0,39.41,21.92Z"/><path class="cls-4" d="M39.29,22.16a1.79,1.79,0,1,0,.77,2.41A1.79,1.79,0,0,0,39.29,22.16Z"/><path class="cls-8" d="M38.91,23.88l-.32.32.84,1.06a1.83,1.83,0,0,0,.51-.49Z"/><path class="cls-8" d="M38.48,24.22l-.4-.21-.75,1.12a1.77,1.77,0,0,0,.32.21,1.66,1.66,0,0,0,.31.12Z"/><path class="cls-8" d="M38,23.91l.08-.45L36.8,23.1a1.7,1.7,0,0,0-.12.7Z"/><path class="cls-8" d="M38.18,23.39l.45-.07L38.57,22a1.83,1.83,0,0,0-.7.1Z"/><path class="cls-8" d="M38.72,23.37l.21.41,1.27-.48a1.81,1.81,0,0,0-.31-.64Z"/><path class="cls-1" d="M38.79,23.13a.7.7,0,0,0-.64,1.24.7.7,0,1,0,.64-1.24Z"/><path class="cls-7" d="M38.67,23.37a.42.42,0,0,0-.58.18.43.43,0,1,0,.58-.18Z"/><path class="cls-7" d="M39.28,23.29a.11.11,0,0,0-.1.2.12.12,0,0,0,.15,0A.13.13,0,0,0,39.28,23.29Z"/><path class="cls-7" d="M39.13,24.27a.12.12,0,0,0-.15.05.11.11,0,0,0,.05.15.11.11,0,0,0,.14,0A.11.11,0,0,0,39.13,24.27Z"/><path class="cls-7" d="M38.11,24.42a.11.11,0,0,0-.15,0,.12.12,0,0,0,0,.15.11.11,0,0,0,.15-.05A.11.11,0,0,0,38.11,24.42Z"/><path class="cls-7" d="M37.66,23.51a.12.12,0,0,0-.15,0,.11.11,0,0,0,.05.15.11.11,0,0,0,.14-.05A.11.11,0,0,0,37.66,23.51Z"/><path class="cls-7" d="M38.4,22.8a.11.11,0,0,0-.15,0,.12.12,0,0,0,0,.15.11.11,0,0,0,.15,0A.1.1,0,0,0,38.4,22.8Z"/><path class="cls-6" d="M43.26,25.2l-.41.27.5.27v-.49a.05.05,0,0,0,0-.05A0,0,0,0,0,43.26,25.2Z"/><path class="cls-7" d="M44.77,21.92a2.05,2.05,0,1,0,.88,2.77A2,2,0,0,0,44.77,21.92Z"/><path class="cls-4" d="M44.65,22.16a1.79,1.79,0,1,0,.77,2.41A1.79,1.79,0,0,0,44.65,22.16Z"/><path class="cls-8" d="M44.27,23.88,44,24.2l.84,1.06a1.83,1.83,0,0,0,.51-.49Z"/><path class="cls-8" d="M43.85,24.22,43.44,24l-.74,1.12a1.69,1.69,0,0,0,.31.21,1.66,1.66,0,0,0,.31.12Z"/><path class="cls-8" d="M43.39,23.91l.08-.45-1.31-.36a1.88,1.88,0,0,0-.12.7Z"/><path class="cls-8" d="M43.54,23.39l.45-.07L43.93,22a1.86,1.86,0,0,0-.7.1Z"/><path class="cls-8" d="M44.09,23.37l.2.41,1.27-.48a1.81,1.81,0,0,0-.31-.64Z"/><path class="cls-1" d="M44.15,23.13a.7.7,0,0,0-.94.3.7.7,0,1,0,.94-.3Z"/><path class="cls-7" d="M44,23.37a.43.43,0,1,0,.18.58A.43.43,0,0,0,44,23.37Z"/><path class="cls-7" d="M44.64,23.29a.11.11,0,0,0-.14.05.11.11,0,1,0,.19.1A.11.11,0,0,0,44.64,23.29Z"/><path class="cls-7" d="M44.49,24.27a.12.12,0,0,0-.15.05.12.12,0,0,0,0,.15.11.11,0,0,0,.14,0A.11.11,0,0,0,44.49,24.27Z"/><path class="cls-7" d="M43.47,24.42a.1.1,0,0,0-.14,0,.11.11,0,0,0,0,.15.11.11,0,0,0,.15-.05A.11.11,0,0,0,43.47,24.42Z"/><path class="cls-7" d="M43,23.51a.12.12,0,0,0-.15,0,.12.12,0,0,0,.05.15.11.11,0,0,0,.14-.05A.11.11,0,0,0,43,23.51Z"/><path class="cls-7" d="M43.76,22.8a.1.1,0,0,0-.14,0,.11.11,0,0,0,0,.15.11.11,0,0,0,.15,0A.1.1,0,0,0,43.76,22.8Z"/><path class="cls-6" d="M48.62,25.2l-.41.27.5.27v-.49a.05.05,0,0,0,0-.05S48.64,25.18,48.62,25.2Z"/><path class="cls-7" d="M50.14,21.92A2.06,2.06,0,1,0,51,24.69,2.06,2.06,0,0,0,50.14,21.92Z"/><path class="cls-4" d="M50,22.16a1.79,1.79,0,1,0,.77,2.41A1.79,1.79,0,0,0,50,22.16Z"/><path class="cls-8" d="M49.64,23.88l-.33.32.84,1.06a1.83,1.83,0,0,0,.51-.49Z"/><path class="cls-8" d="M49.21,24.22,48.8,24l-.74,1.12a1.69,1.69,0,0,0,.31.21,2,2,0,0,0,.31.12Z"/><path class="cls-8" d="M48.76,23.91l.07-.45-1.31-.36a2.1,2.1,0,0,0-.12.7Z"/><path class="cls-8" d="M48.9,23.39l.45-.07L49.29,22a1.81,1.81,0,0,0-.69.1Z"/><path class="cls-8" d="M49.45,23.37l.2.41,1.27-.48a1.81,1.81,0,0,0-.31-.64Z"/><path class="cls-1" d="M49.51,23.13a.7.7,0,0,0-.94.3.7.7,0,1,0,1.24.64A.7.7,0,0,0,49.51,23.13Z"/><path class="cls-7" d="M49.39,23.37a.43.43,0,1,0-.4.76.42.42,0,0,0,.58-.18A.43.43,0,0,0,49.39,23.37Z"/><path class="cls-7" d="M50,23.29a.11.11,0,0,0-.14.05.11.11,0,1,0,.19.1A.11.11,0,0,0,50,23.29Z"/><path class="cls-7" d="M49.85,24.27a.11.11,0,1,0,0,.15A.13.13,0,0,0,49.85,24.27Z"/><path class="cls-7" d="M48.83,24.42a.1.1,0,0,0-.14,0,.11.11,0,0,0,0,.15.11.11,0,0,0,.15-.05A.1.1,0,0,0,48.83,24.42Z"/><path class="cls-7" d="M48.38,23.51a.11.11,0,1,0,0,.15A.13.13,0,0,0,48.38,23.51Z"/><path class="cls-7" d="M49.12,22.8a.1.1,0,0,0-.14,0A.11.11,0,0,0,49,23a.1.1,0,0,0,.14,0A.1.1,0,0,0,49.12,22.8Z"/><path class="cls-9" d="M45.69,3.11h-10L29.83,5a.22.22,0,0,0-.16.22v5.19a.22.22,0,0,0,.22.23h15.8a.22.22,0,0,0,.22-.23v-7A.22.22,0,0,0,45.69,3.11Z"/><path class="cls-9" d="M29.92,10.61H45.69a.22.22,0,0,0,.22-.23V3.46h-10L30.08,5.32a.21.21,0,0,0-.16.21Z"/><path class="cls-9" d="M55.71,3.86,53,3.12H46.6a.23.23,0,0,0-.23.23v7a.23.23,0,0,0,.23.23H57.45a.23.23,0,0,0,.18-.09.24.24,0,0,0,0-.2L55.86,4A.21.21,0,0,0,55.71,3.86Z"/><path class="cls-9" d="M46.72,10.61H57.45a.23.23,0,0,0,.18-.09.24.24,0,0,0,0-.2L55.89,4.1l-2.5-.7H46.94a.22.22,0,0,0-.22.22Z"/><path class="cls-7" d="M55.71,3.86,53,3.12h-.15l.67,7.5h3.89a.23.23,0,0,0,.18-.09.24.24,0,0,0,0-.2L55.86,4A.21.21,0,0,0,55.71,3.86Z"/><path class="cls-7" d="M29.36,10.61H21.3a.22.22,0,0,1-.21-.23v-3a.22.22,0,0,1,.21-.22h8.06a.21.21,0,0,1,.2.22v3A.22.22,0,0,1,29.36,10.61Z"/><path class="cls-10" d="M28.31,10h-6a.41.41,0,0,1-.43-.38V8.17a.41.41,0,0,1,.43-.39h6a.41.41,0,0,1,.43.39V9.64A.41.41,0,0,1,28.31,10Zm-6-2a.21.21,0,0,0-.23.18V9.64a.21.21,0,0,0,.23.18h6a.21.21,0,0,0,.23-.18V8.17A.21.21,0,0,0,28.31,8Z"/><path class="cls-11" d="M28.4,10.12h-6A.41.41,0,0,1,22,9.74V8.27a.41.41,0,0,1,.43-.39h6a.41.41,0,0,1,.43.39V9.74A.41.41,0,0,1,28.4,10.12Zm-6-2a.22.22,0,0,0-.23.19V9.74a.22.22,0,0,0,.23.18h6a.22.22,0,0,0,.23-.18V8.27a.22.22,0,0,0-.23-.19Z"/><path class="cls-7" d="M20.78,10.61H12.72a.22.22,0,0,1-.21-.23v-3a.22.22,0,0,1,.21-.22h8.06a.22.22,0,0,1,.21.22v3A.22.22,0,0,1,20.78,10.61Z"/><path class="cls-7" d="M12.2,10.61H4.14a.22.22,0,0,1-.2-.23v-3a.21.21,0,0,1,.2-.22H12.2a.22.22,0,0,1,.21.22v3A.22.22,0,0,1,12.2,10.61Z"/><path class="cls-10" d="M19.73,10h-6a.41.41,0,0,1-.43-.38V8.17a.41.41,0,0,1,.43-.39h6a.41.41,0,0,1,.43.39V9.64A.41.41,0,0,1,19.73,10Zm-6-2a.21.21,0,0,0-.23.18V9.64a.21.21,0,0,0,.23.18h6A.21.21,0,0,0,20,9.64V8.17A.21.21,0,0,0,19.73,8Z"/><path class="cls-10" d="M11.15,10h-6a.41.41,0,0,1-.43-.38V8.17a.41.41,0,0,1,.43-.39h6a.41.41,0,0,1,.43.39V9.64A.41.41,0,0,1,11.15,10Zm-6-2A.21.21,0,0,0,5,8.17V9.64a.21.21,0,0,0,.23.18h6a.21.21,0,0,0,.23-.18V8.17A.21.21,0,0,0,11.15,8Z"/><path class="cls-11" d="M19.82,10.12h-6a.41.41,0,0,1-.43-.38V8.27a.41.41,0,0,1,.43-.39h6a.41.41,0,0,1,.43.39V9.74A.41.41,0,0,1,19.82,10.12Zm-6-2a.22.22,0,0,0-.23.19V9.74a.22.22,0,0,0,.23.18h6a.21.21,0,0,0,.23-.18V8.27a.21.21,0,0,0-.23-.19Z"/><path class="cls-11" d="M11.24,10.12H5.29a.42.42,0,0,1-.44-.38V8.27a.42.42,0,0,1,.44-.39h6a.41.41,0,0,1,.43.39V9.74A.41.41,0,0,1,11.24,10.12Zm-5.95-2a.22.22,0,0,0-.24.19V9.74c0,.09.11.18.24.18h6a.21.21,0,0,0,.23-.18V8.27a.21.21,0,0,0-.23-.19Z"/><polygon class="cls-7" points="2.03 2.39 2.96 4.97 1.45 5.18 1.08 2.52 2.03 2.39"/><polygon class="cls-1" points="3.03 9.64 3.23 6.91 1.71 7.12 2.08 9.77 3.03 9.64"/><rect class="cls-11" x="-0.02" y="2.88" width="35.37" height="2.08" transform="translate(-0.37 2.44) rotate(-7.83)"/><g class="cls-12"><polygon class="cls-13" points="35.27 1.49 35.32 2.54 0.28 7.36 0.27 6.46 35.27 1.49"/></g><polygon class="cls-7" points="35.25 1.42 35.26 2.1 0.22 6.92 0.21 6.24 35.25 1.42"/><polygon class="cls-2" points="3.79 6.43 1.9 6.69 1.52 6.01 3.41 5.75 3.79 6.43"/><polygon class="cls-2" points="28.88 2.98 18.98 4.34 18.64 3.72 28.54 2.37 28.88 2.98"/><polygon class="cls-9" points="42.15 0.55 38.74 1.55 35.34 2.56 35.19 1.51 35.05 0.46 38.6 0.51 42.15 0.55"/><polygon class="cls-7" points="26.32 0 28.16 1.43 18.36 2.77 18.14 1.13 26.32 0"/><polygon class="cls-1" points="27.06 5.36 28.45 3.49 18.65 4.84 18.88 6.48 27.06 5.36"/><polygon class="cls-11" points="18.66 3.86 18.63 3.58 28.52 2.23 28.55 2.5 18.66 3.86"/><polygon class="cls-11" points="1.59 6.16 1.55 5.88 3.38 5.63 3.42 5.91 1.59 6.16"/><path class="cls-11" d="M39.31,16.17H31.16a.42.42,0,0,1-.44-.38v-3.5a.42.42,0,0,1,.44-.38h8.15a.42.42,0,0,1,.44.38v3.5A.42.42,0,0,1,39.31,16.17Zm-8.15-4.06c-.13,0-.24.09-.24.18v3.5c0,.09.11.18.24.18h8.15a.21.21,0,0,0,.23-.18v-3.5a.21.21,0,0,0-.23-.18Z"/><path class="cls-10" d="M39.31,16.17H31.05a.42.42,0,0,1-.44-.39V12.2a.42.42,0,0,1,.44-.39h8.26a.42.42,0,0,1,.44.39v3.58A.42.42,0,0,1,39.31,16.17ZM31.05,12a.21.21,0,0,0-.23.19v3.58a.21.21,0,0,0,.23.19h8.26a.21.21,0,0,0,.23-.19V12.2a.21.21,0,0,0-.23-.19Z"/><path class="cls-11" d="M29.62,14h-4a.41.41,0,0,1-.43-.39V12.29a.41.41,0,0,1,.43-.38h4a.42.42,0,0,1,.44.38v1.36A.42.42,0,0,1,29.62,14Zm-4-1.93a.22.22,0,0,0-.23.18v1.36a.21.21,0,0,0,.23.18h4c.13,0,.24-.08.24-.18V12.29c0-.09-.11-.18-.24-.18Z"/><path class="cls-10" d="M29.62,14H25.49a.42.42,0,0,1-.44-.39V12.2a.42.42,0,0,1,.44-.39h4.13a.42.42,0,0,1,.44.39v1.45A.42.42,0,0,1,29.62,14Zm-4.13-2a.21.21,0,0,0-.23.19v1.45a.21.21,0,0,0,.23.18h4.13c.13,0,.24-.08.24-.18V12.2a.22.22,0,0,0-.24-.19Z"/><path class="cls-11" d="M24.23,14h-4a.41.41,0,0,1-.43-.39V12.29a.41.41,0,0,1,.43-.38h4a.41.41,0,0,1,.43.38v1.36A.41.41,0,0,1,24.23,14Zm-4-1.93a.21.21,0,0,0-.23.18v1.36a.21.21,0,0,0,.23.18h4a.21.21,0,0,0,.23-.18V12.29a.21.21,0,0,0-.23-.18Z"/><path class="cls-10" d="M24.22,14H20.1a.42.42,0,0,1-.44-.39V12.2a.42.42,0,0,1,.44-.39h4.12a.42.42,0,0,1,.44.39v1.45A.42.42,0,0,1,24.22,14ZM20.1,12a.22.22,0,0,0-.24.19v1.45c0,.1.11.18.24.18h4.12c.13,0,.24-.08.24-.18V12.2a.22.22,0,0,0-.24-.19Z"/><path class="cls-11" d="M29.62,16.09H20.2a.41.41,0,0,1-.43-.38V14.64a.41.41,0,0,1,.43-.38h9.42a.41.41,0,0,1,.43.38v1.07A.41.41,0,0,1,29.62,16.09ZM20.2,14.46a.21.21,0,0,0-.23.18v1.07a.21.21,0,0,0,.23.18h9.42a.21.21,0,0,0,.23-.18V14.64a.21.21,0,0,0-.23-.18Z"/><path class="cls-10" d="M29.62,16.09H20.1a.42.42,0,0,1-.44-.39V14.55a.42.42,0,0,1,.44-.39h9.52a.41.41,0,0,1,.43.39V15.7A.41.41,0,0,1,29.62,16.09ZM20.1,14.36a.22.22,0,0,0-.24.19V15.7a.22.22,0,0,0,.24.19h9.52a.22.22,0,0,0,.23-.19V14.55a.22.22,0,0,0-.23-.19Z"/><path class="cls-11" d="M18.69,16.17H10.54a.54.54,0,0,1-.43-.22.21.21,0,0,1,0-.22l2.39-3.55c.08-.12.17-.27.38-.27h5.8a.42.42,0,0,1,.44.38v3.5A.42.42,0,0,1,18.69,16.17Zm-5.8-4.06c-.09,0-.14.06-.21.18l0,.06-2.35,3.49s.12.13.25.13h8.15c.13,0,.24-.09.24-.18v-3.5c0-.09-.11-.18-.24-.18Z"/><path class="cls-10" d="M18.69,16.17H10.43a.52.52,0,0,1-.43-.23.24.24,0,0,1,0-.22l2.39-3.63c.08-.12.17-.28.39-.28h5.9a.42.42,0,0,1,.44.39v3.58A.42.42,0,0,1,18.69,16.17ZM12.79,12c-.1,0-.14.07-.22.19l0,.06-2.36,3.57s0,0,0,0a.34.34,0,0,0,.23.1h8.26a.22.22,0,0,0,.24-.19V12.2a.22.22,0,0,0-.24-.19Z"/><polygon class="cls-9" points="35.08 0.79 35.12 0.98 0.05 5.83 0.04 5.61 35.08 0.79"/><rect class="cls-14" x="19.61" y="1.93" width="0.16" height="0.63" transform="translate(-0.12 2.88) rotate(-8.35)"/><rect class="cls-14" x="25.37" y="1.1" width="0.16" height="0.63" transform="translate(0.07 3.73) rotate(-8.39)"/><rect class="cls-3" x="20.13" y="4.62" width="0.16" height="0.63" transform="translate(-0.5 3) rotate(-8.4)"/><rect class="cls-3" x="25.89" y="3.79" width="0.16" height="0.63" transform="translate(-0.32 3.84) rotate(-8.4)"/><polygon class="cls-2" points="4.35 4.3 4.82 7.2 9.16 7.2 7.4 3.72 4.35 4.3"/><polygon class="cls-7" points="4.35 4.3 4.79 7.01 9.07 7.01 7.4 3.72 4.35 4.3"/><rect class="cls-14" x="40.81" y="15.45" width="9.01" height="0.71"/><rect class="cls-11" x="40.81" y="13.49" width="9.01" height="0.3"/><path class="cls-14" d="M44.41,4.94V4.48h0a.52.52,0,0,0-.1-.31h0A.38.38,0,0,0,44,4H42.41a.38.38,0,0,0-.28.14h0a.52.52,0,0,0-.1.31h0v.46h.2V4.48h0a.32.32,0,0,1,.06-.18h0a.19.19,0,0,1,.13-.07H44a.15.15,0,0,1,.12.07h0a.26.26,0,0,1,.06.18h0v.46Z"/><path class="cls-1" d="M41.55,14.94a.2.2,0,0,0,.19-.19.19.19,0,0,0-.19-.19.18.18,0,0,0-.19.19A.19.19,0,0,0,41.55,14.94Z"/><path class="cls-9" d="M41.49,14.87a.19.19,0,0,0,.19-.19.2.2,0,0,0-.19-.19.19.19,0,0,0-.19.19A.18.18,0,0,0,41.49,14.87Z"/><path class="cls-1" d="M49.17,14.94a.19.19,0,0,0,.19-.19.18.18,0,0,0-.19-.19.19.19,0,0,0-.19.19A.2.2,0,0,0,49.17,14.94Z"/><path class="cls-9" d="M49.12,14.87a.19.19,0,0,0,.19-.19.2.2,0,0,0-.19-.19.19.19,0,0,0-.19.19A.18.18,0,0,0,49.12,14.87Z"/><polygon class="cls-4" points="49.82 13.49 49.82 16.16 50.49 15.59 49.82 13.49"/><rect class="cls-10" x="31.99" y="15.75" width="0.45" height="0.66" rx="0.19"/><rect class="cls-10" x="37.86" y="15.75" width="0.45" height="0.66" rx="0.19"/><rect class="cls-10" x="28.65" y="15.75" width="0.45" height="0.66" rx="0.19"/><rect class="cls-10" x="20.77" y="15.75" width="0.45" height="0.66" rx="0.19"/><rect class="cls-10" x="17.57" y="15.75" width="0.45" height="0.66" rx="0.19"/><rect class="cls-10" x="11.42" y="15.75" width="0.45" height="0.66" rx="0.19"/><rect class="cls-10" x="20.5" y="13.49" width="0.45" height="0.66" rx="0.19"/><rect class="cls-10" x="23.61" y="13.49" width="0.45" height="0.66" rx="0.19"/><rect class="cls-10" x="25.88" y="13.49" width="0.45" height="0.66" rx="0.19"/><rect class="cls-10" x="29" y="13.49" width="0.45" height="0.66" rx="0.19"/><path class="cls-1" d="M47.42,8.19A.2.2,0,0,0,47.61,8a.19.19,0,0,0-.19-.19.18.18,0,0,0-.19.19A.19.19,0,0,0,47.42,8.19Z"/><path class="cls-9" d="M47.36,8.12a.18.18,0,0,0,.19-.19.19.19,0,0,0-.19-.19.2.2,0,0,0-.19.19A.19.19,0,0,0,47.36,8.12Z"/><path class="cls-1" d="M47.42,6.8a.19.19,0,0,0,.19-.19.2.2,0,0,0-.19-.19.19.19,0,0,0-.19.19A.18.18,0,0,0,47.42,6.8Z"/><path class="cls-9" d="M47.36,6.74a.19.19,0,0,0,.19-.19.18.18,0,0,0-.19-.19.19.19,0,0,0-.19.19A.2.2,0,0,0,47.36,6.74Z"/><path class="cls-1" d="M47.42,6a.19.19,0,0,0,.19-.19.2.2,0,0,0-.19-.19.19.19,0,0,0-.19.19A.18.18,0,0,0,47.42,6Z"/><path class="cls-9" d="M47.36,6a.19.19,0,0,0,.19-.19.19.19,0,0,0-.19-.2.2.2,0,0,0-.19.2A.2.2,0,0,0,47.36,6Z"/><path class="cls-1" d="M30.77,6.4A.19.19,0,0,0,31,6.21.18.18,0,0,0,30.77,6a.19.19,0,0,0-.19.19A.2.2,0,0,0,30.77,6.4Z"/><path class="cls-9" d="M30.72,6.33a.19.19,0,0,0,.19-.19A.2.2,0,0,0,30.72,6a.19.19,0,0,0-.19.19A.18.18,0,0,0,30.72,6.33Z"/></g></g></svg>