<svg xmlns="http://www.w3.org/2000/svg" viewBox="0 0 48.08 45.79"><defs><style>.cls-1,.cls-17{opacity:0.3;}.cls-2{fill:#050505;}.cls-3{fill:#383838;}.cls-4{fill:#575757;}.cls-5{fill:#54634a;}.cls-6{fill:#7b916d;}.cls-7{fill:#687a5c;}.cls-8{fill:#666;}.cls-9{fill:gray;}.cls-10{fill:#adadad;}.cls-11{fill:#9cb88a;}.cls-12{fill:#5d6e52;}.cls-13{fill:#abc997;}.cls-14{fill:#8aa37b;}.cls-15{fill:#4e5c45;}.cls-16{fill:#45523d;}.cls-17,.cls-18{fill:#121214;}.cls-19{fill:#517fa2;}.cls-20{fill:#fff;}.cls-21{fill:#ffec7a;}.cls-22{fill:#003552;}</style></defs><g id="Слой_2" data-name="Слой 2"><g id="Layer_1" data-name="Layer 1"><polygon class="cls-1" points="29.65 45.79 1.49 29.53 18.36 19.79 46.52 36.05 29.65 45.79"/><polygon class="cls-2" points="41.97 35.6 39.79 36.38 18.71 24.24 15.09 18.96 14.93 18.32 14.93 17.44 15.55 17.1 16.77 17.24 42.82 32.68 43.37 33.76 43.35 35.06 41.97 35.6"/><path class="cls-3" d="M19.29,18.33a2.57,2.57,0,0,0-1.16-2,.8.8,0,0,0-.82-.08l-.83.48,1.66,2.84.83-.48A.83.83,0,0,0,19.29,18.33Z"/><path class="cls-4" d="M18.48,18.8c0,.74-.52,1-1.17.67a2.57,2.57,0,0,1-1.16-2c0-.74.52-1,1.16-.67A2.55,2.55,0,0,1,18.48,18.8Z"/><path class="cls-5" d="M18.18,19.31c-.19.21-.5.24-.87,0a2.32,2.32,0,0,1-1-1.82c0-.42.18-.68.46-.74a.82.82,0,0,0-.19.58,2.33,2.33,0,0,0,1.06,1.82A.8.8,0,0,0,18.18,19.31Z"/><path class="cls-2" d="M18.37,18.73a.82.82,0,0,1-.19.58h0a.8.8,0,0,1-.59-.13,2.33,2.33,0,0,1-1.06-1.82.82.82,0,0,1,.19-.58h0a.8.8,0,0,1,.59.13A2.31,2.31,0,0,1,18.37,18.73Z"/><path class="cls-3" d="M18.23,18.94a2.57,2.57,0,0,0-1.16-2,.8.8,0,0,0-.83-.08l-.83.47,1.67,2.84.83-.48A.82.82,0,0,0,18.23,18.94Z"/><path class="cls-4" d="M17.41,19.41c0,.75-.52,1.05-1.16.68a2.6,2.6,0,0,1-1.16-2c0-.74.52-1,1.16-.67A2.57,2.57,0,0,1,17.41,19.41Z"/><path class="cls-5" d="M17.12,19.93a.67.67,0,0,1-.87,0,2.35,2.35,0,0,1-1.05-1.83c0-.41.18-.68.45-.74a.89.89,0,0,0-.18.58,2.33,2.33,0,0,0,1.06,1.83A.91.91,0,0,0,17.12,19.93Z"/><path class="cls-6" d="M17.3,19.35a.84.84,0,0,1-.18.58h0a.91.91,0,0,1-.59-.13A2.33,2.33,0,0,1,15.47,18a.89.89,0,0,1,.18-.58h0a.94.94,0,0,1,.6.13A2.35,2.35,0,0,1,17.3,19.35Z"/><path class="cls-5" d="M16.87,19.06a.27.27,0,0,1-.34,0,.93.93,0,0,1-.43-.73.28.28,0,0,1,.19-.3.33.33,0,0,0-.08.24,1,1,0,0,0,.42.73A.37.37,0,0,0,16.87,19.06Z"/><path class="cls-7" d="M17,18.82a.33.33,0,0,1-.08.24h0a.37.37,0,0,1-.24,0,1,1,0,0,1-.42-.73.33.33,0,0,1,.08-.24h0a.38.38,0,0,1,.24.05A1,1,0,0,1,17,18.82Z"/><path class="cls-5" d="M16.72,19.66a.13.13,0,0,1-.19,0,.47.47,0,0,1-.22-.37.14.14,0,0,1,.13-.15.29.29,0,0,0,0,.09.49.49,0,0,0,.21.37Z"/><path class="cls-7" d="M16.74,19.57a.29.29,0,0,1,0,.09l-.09,0a.49.49,0,0,1-.21-.37.29.29,0,0,1,0-.09l.09,0A.49.49,0,0,1,16.74,19.57Z"/><path class="cls-5" d="M16.31,17.59a.47.47,0,0,0,.22.37.12.12,0,0,0,.19,0,.15.15,0,0,1-.09,0,.44.44,0,0,1-.18-.24l-.13-.09Z"/><path class="cls-7" d="M16.63,17.9a.15.15,0,0,0,.09,0h0l-.27-.26A.44.44,0,0,0,16.63,17.9Z"/><path class="cls-5" d="M16,18.36a.13.13,0,0,1-.19,0,.47.47,0,0,1-.22-.36c0-.1.06-.16.13-.15a.19.19,0,0,0,0,.08.49.49,0,0,0,.21.37A.16.16,0,0,0,16,18.36Z"/><path class="cls-7" d="M16,18.27a.29.29,0,0,1,0,.09.16.16,0,0,1-.09,0,.49.49,0,0,1-.21-.37.19.19,0,0,1,0-.08l.09,0A.51.51,0,0,1,16,18.27Z"/><path class="cls-5" d="M17.17,18.83a.29.29,0,0,1,0-.09.13.13,0,0,0-.13.15.49.49,0,0,0,.21.37h0a.88.88,0,0,0,0-.16A.52.52,0,0,1,17.17,18.83Z"/><path class="cls-7" d="M17.17,18.83a.52.52,0,0,0,.11.28,1.81,1.81,0,0,0-.09-.37h0A.29.29,0,0,0,17.17,18.83Z"/><path class="cls-5" d="M15.85,17.75c.08.14.21.22.29.17l.05-.05a.33.33,0,0,1-.24-.18.34.34,0,0,1,0-.3h-.06C15.76,17.45,15.76,17.61,15.85,17.75Z"/><path class="cls-7" d="M16,17.69a.33.33,0,0,0,.24.18.33.33,0,0,0-.05-.29.35.35,0,0,0-.17-.17l-.06,0A.34.34,0,0,0,16,17.69Z"/><path class="cls-5" d="M17.25,19.71l-.05.05c-.08,0-.21,0-.29-.17s-.09-.3,0-.35H17a.32.32,0,0,0,0,.29A.38.38,0,0,0,17.25,19.71Z"/><path class="cls-7" d="M17.25,19.71a.38.38,0,0,1-.24-.19.32.32,0,0,1,0-.29.3.3,0,0,1,.23.18A.35.35,0,0,1,17.25,19.71Z"/><path class="cls-5" d="M17.11,18.54a2.51,2.51,0,0,0-.26-.45.36.36,0,0,0,.06.27A.34.34,0,0,0,17.11,18.54Z"/><path class="cls-5" d="M16.19,19.1a.1.1,0,0,1-.05,0c-.08.05-.21,0-.29-.17s-.09-.29,0-.34a.07.07,0,0,1,.06,0,.32.32,0,0,0,0,.29A.38.38,0,0,0,16.19,19.1Z"/><path class="cls-7" d="M16.19,19.1a.38.38,0,0,1-.24-.19.32.32,0,0,1,0-.29.3.3,0,0,1,.23.18A.35.35,0,0,1,16.19,19.1Z"/><path class="cls-8" d="M17,18.83a1,1,0,0,0-.43-.75.32.32,0,0,0-.31,0l-.09.05.62,1.06.09-.05A.3.3,0,0,0,17,18.83Z"/><path class="cls-9" d="M16.88,18.88c0,.28-.2.39-.44.25a1,1,0,0,1-.43-.75c0-.27.19-.39.43-.25A1,1,0,0,1,16.88,18.88Z"/><path class="cls-8" d="M16.73,18.83a.69.69,0,0,0-.32-.55.22.22,0,0,0-.22,0l-.07,0,.45.77.07,0A.2.2,0,0,0,16.73,18.83Z"/><path class="cls-10" d="M16.66,18.87c0,.2-.14.28-.31.18A.68.68,0,0,1,16,18.5c0-.2.14-.28.32-.18A.71.71,0,0,1,16.66,18.87Z"/><path class="cls-9" d="M43.92,31.25a2.53,2.53,0,0,0,1.16,2c.64.37,1.16.07,1.16-.66a2.57,2.57,0,0,0-1.16-2C44.44,30.21,43.92,30.51,43.92,31.25Z"/><path class="cls-6" d="M44,31.31a2.33,2.33,0,0,0,1,1.82c.58.33,1.05.06,1.05-.61a2.3,2.3,0,0,0-1.05-1.81C44.5,30.37,44,30.64,44,31.31Z"/><path class="cls-7" d="M44.66,31.67a.93.93,0,0,0,.42.73c.23.13.42,0,.42-.24a.94.94,0,0,0-.42-.73C44.85,31.3,44.66,31.41,44.66,31.67Z"/><path class="cls-7" d="M44.87,32.66a.49.49,0,0,0,.21.36c.12.07.21,0,.21-.12a.44.44,0,0,0-.21-.36C45,32.47,44.87,32.52,44.87,32.66Z"/><path class="cls-7" d="M44.87,30.93a.49.49,0,0,0,.21.37c.12.06.21,0,.21-.12a.46.46,0,0,0-.21-.37C45,30.74,44.87,30.8,44.87,30.93Z"/><path class="cls-7" d="M45.83,32.59c.12.07.21,0,.21-.12a.43.43,0,0,0-.21-.36c-.12-.07-.21,0-.21.12A.46.46,0,0,0,45.83,32.59Z"/><path class="cls-7" d="M44.34,31.73c.11.06.21,0,.21-.12a.49.49,0,0,0-.21-.37c-.12-.06-.21,0-.21.12A.46.46,0,0,0,44.34,31.73Z"/><path class="cls-7" d="M45.76,31.87c.08-.05.08-.2,0-.34s-.22-.22-.3-.18-.08.21,0,.35S45.68,31.92,45.76,31.87Z"/><path class="cls-7" d="M44.7,32.48c.08,0,.08-.2,0-.34s-.21-.22-.29-.18-.09.21,0,.35S44.62,32.53,44.7,32.48Z"/><path class="cls-7" d="M44.7,30.92c-.08-.15-.21-.22-.29-.18s-.09.21,0,.35.21.22.29.17S44.78,31.06,44.7,30.92Z"/><path class="cls-7" d="M45.76,32.75c-.08-.15-.22-.22-.3-.18s-.08.2,0,.35.22.21.3.17S45.84,32.89,45.76,32.75Z"/><path class="cls-9" d="M20.42,17.68c0,.74-.52,1-1.16.67a2.57,2.57,0,0,1-1.16-2c0-.74.52-1,1.16-.67A2.57,2.57,0,0,1,20.42,17.68Z"/><path class="cls-6" d="M20.31,17.61c0,.67-.47.94-1,.61a2.32,2.32,0,0,1-1.05-1.82c0-.67.47-.94,1.05-.6A2.31,2.31,0,0,1,20.31,17.61Z"/><path class="cls-7" d="M19.68,17.25c0,.27-.19.38-.42.24a.93.93,0,0,1-.42-.72c0-.27.19-.38.42-.25A.94.94,0,0,1,19.68,17.25Z"/><path class="cls-7" d="M19.47,18c0,.14-.09.19-.21.12a.47.47,0,0,1-.21-.36c0-.13.1-.19.21-.12A.46.46,0,0,1,19.47,18Z"/><path class="cls-7" d="M19.47,16.27c0,.13-.09.19-.21.12a.49.49,0,0,1-.21-.36c0-.14.1-.19.21-.13A.46.46,0,0,1,19.47,16.27Z"/><path class="cls-7" d="M18.52,16.82a.46.46,0,0,1-.21-.36c0-.14.09-.19.21-.12a.44.44,0,0,1,.2.36C18.72,16.83,18.63,16.89,18.52,16.82Z"/><path class="cls-7" d="M20,17.68a.46.46,0,0,1-.21-.36c0-.14.09-.19.21-.12a.47.47,0,0,1,.21.36C20.22,17.69,20.12,17.75,20,17.68Z"/><path class="cls-7" d="M18.59,16.18c-.09-.14-.09-.3,0-.34s.21,0,.29.17.08.29,0,.34S18.67,16.32,18.59,16.18Z"/><path class="cls-7" d="M19.64,18c-.08-.14-.08-.3,0-.34s.22,0,.3.17.08.29,0,.34S19.72,18.15,19.64,18Z"/><path class="cls-7" d="M19.64,16.45c.08-.05.22,0,.3.17s.08.29,0,.34-.22,0-.3-.17S19.56,16.49,19.64,16.45Z"/><path class="cls-7" d="M18.59,17.06c.08,0,.21,0,.29.17s.08.29,0,.34-.21,0-.29-.17S18.5,17.1,18.59,17.06Z"/><path class="cls-3" d="M24.15,21.62a4.12,4.12,0,0,0-1.86-3.23A1.32,1.32,0,0,0,21,18.26L19.64,19l2.67,4.54,1.32-.76A1.33,1.33,0,0,0,24.15,21.62Z"/><path class="cls-4" d="M22.84,22.38c0,1.18-.83,1.67-1.86,1.07a4.11,4.11,0,0,1-1.86-3.23c0-1.18.83-1.67,1.86-1.07A4.11,4.11,0,0,1,22.84,22.38Z"/><path class="cls-2" d="M22.67,22.27c0,1.08-.76,1.52-1.69,1a3.75,3.75,0,0,1-1.69-2.92c0-1.08.76-1.52,1.69-1A3.75,3.75,0,0,1,22.67,22.27Z"/><path class="cls-3" d="M22.46,22.6a4.14,4.14,0,0,0-1.86-3.23,1.3,1.3,0,0,0-1.32-.13L18,20l2.67,4.54,1.32-.77A1.32,1.32,0,0,0,22.46,22.6Z"/><path class="cls-4" d="M21.15,23.35c0,1.19-.83,1.67-1.86,1.08a4.13,4.13,0,0,1-1.87-3.23c0-1.19.84-1.67,1.87-1.08A4.12,4.12,0,0,1,21.15,23.35Z"/><path class="cls-5" d="M20.68,24.18c-.3.34-.81.38-1.39,0A3.71,3.71,0,0,1,17.6,21.3c0-.66.29-1.09.73-1.18a1.38,1.38,0,0,0-.29.93A3.75,3.75,0,0,0,19.73,24,1.36,1.36,0,0,0,20.68,24.18Z"/><path class="cls-6" d="M21,23.25a1.35,1.35,0,0,1-.3.93h0a1.36,1.36,0,0,1-.95-.21A3.75,3.75,0,0,1,18,21.05a1.38,1.38,0,0,1,.29-.93h0a1.32,1.32,0,0,1,.95.21A3.73,3.73,0,0,1,21,23.25Z"/><path class="cls-5" d="M20.28,22.78c-.12.14-.32.15-.55,0a1.5,1.5,0,0,1-.67-1.17c0-.27.11-.44.29-.47a.52.52,0,0,0-.13.37,1.5,1.5,0,0,0,.68,1.17A.51.51,0,0,0,20.28,22.78Z"/><path class="cls-7" d="M20.4,22.41a.51.51,0,0,1-.12.37h0a.51.51,0,0,1-.38-.08,1.5,1.5,0,0,1-.68-1.17.52.52,0,0,1,.13-.37h0a.51.51,0,0,1,.38.08A1.49,1.49,0,0,1,20.4,22.41Z"/><path class="cls-5" d="M20,23.74c-.05.11-.17.14-.31.06a.75.75,0,0,1-.34-.59c0-.16.08-.25.2-.24a.32.32,0,0,0,0,.14.75.75,0,0,0,.34.59A.27.27,0,0,0,20,23.74Z"/><path class="cls-7" d="M20.07,23.6a.29.29,0,0,1,0,.14.27.27,0,0,1-.14,0,.75.75,0,0,1-.34-.59.32.32,0,0,1,0-.14.3.3,0,0,1,.14.05A.73.73,0,0,1,20.07,23.6Z"/><path class="cls-5" d="M19.39,20.44a.74.74,0,0,0,.34.58c.14.08.26.05.31-.05a.3.3,0,0,1-.14,0,.73.73,0,0,1-.3-.38,1.1,1.1,0,0,0-.21-.14Z"/><path class="cls-7" d="M19.9,20.92A.3.3,0,0,0,20,21h0a3.57,3.57,0,0,0-.44-.43A.73.73,0,0,0,19.9,20.92Z"/><path class="cls-5" d="M18.84,21.66c-.06.11-.17.13-.31.06a.75.75,0,0,1-.34-.59c0-.16.08-.25.2-.24a.32.32,0,0,0,0,.14.75.75,0,0,0,.34.59A.37.37,0,0,0,18.84,21.66Z"/><path class="cls-7" d="M18.87,21.52a.29.29,0,0,1,0,.14.37.37,0,0,1-.14,0,.75.75,0,0,1-.34-.59.32.32,0,0,1,0-.14.3.3,0,0,1,.14.05A.75.75,0,0,1,18.87,21.52Z"/><path class="cls-5" d="M20.76,22.42a.29.29,0,0,1,0-.14c-.11,0-.2.08-.2.24a.74.74,0,0,0,.34.58l0,0a1.07,1.07,0,0,0,0-.25A.8.8,0,0,1,20.76,22.42Z"/><path class="cls-7" d="M20.76,22.42a.8.8,0,0,0,.18.45,2.41,2.41,0,0,0-.14-.59h0A.29.29,0,0,0,20.76,22.42Z"/><path class="cls-5" d="M18.64,20.69c.13.22.35.35.48.27a.19.19,0,0,0,.07-.08.52.52,0,0,1-.38-.29.56.56,0,0,1-.07-.47h0l-.08,0C18.51,20.21,18.51,20.46,18.64,20.69Z"/><path class="cls-7" d="M18.81,20.59a.52.52,0,0,0,.38.29.56.56,0,0,0-.07-.47.77.77,0,0,0-.27-.27l-.11,0A.56.56,0,0,0,18.81,20.59Z"/><path class="cls-5" d="M20.89,23.83a.16.16,0,0,1-.07.07c-.13.08-.35,0-.48-.27s-.13-.48,0-.55a.12.12,0,0,1,.1,0,.65.65,0,0,0,.45.77Z"/><path class="cls-7" d="M20.89,23.83a.65.65,0,0,1-.45-.77.52.52,0,0,1,.38.29A.58.58,0,0,1,20.89,23.83Z"/><path class="cls-5" d="M20.67,22a3.85,3.85,0,0,0-.41-.71.55.55,0,0,0,.08.43A.61.61,0,0,0,20.67,22Z"/><path class="cls-5" d="M19.19,22.85l-.07.07c-.13.08-.35,0-.48-.27s-.13-.48,0-.55a.12.12,0,0,1,.1,0,.56.56,0,0,0,.07.47A.54.54,0,0,0,19.19,22.85Z"/><path class="cls-7" d="M19.19,22.85a.54.54,0,0,1-.38-.3.56.56,0,0,1-.07-.47.52.52,0,0,1,.38.29A.58.58,0,0,1,19.19,22.85Z"/><path class="cls-8" d="M20.43,22.42a1.54,1.54,0,0,0-.69-1.2.5.5,0,0,0-.49,0l-.15.09,1,1.69.15-.09A.48.48,0,0,0,20.43,22.42Z"/><path class="cls-9" d="M20.29,22.5c0,.44-.31.62-.69.4a1.52,1.52,0,0,1-.7-1.2c0-.44.31-.62.7-.4A1.54,1.54,0,0,1,20.29,22.5Z"/><path class="cls-8" d="M20.06,22.42a1.13,1.13,0,0,0-.51-.88.33.33,0,0,0-.35,0l-.12.06.73,1.24.11-.07A.34.34,0,0,0,20.06,22.42Z"/><path class="cls-10" d="M20,22.48c0,.32-.22.45-.5.29a1.11,1.11,0,0,1-.51-.87c0-.33.23-.46.51-.3A1.13,1.13,0,0,1,20,22.48Z"/><path class="cls-3" d="M28.1,23.9a4.12,4.12,0,0,0-1.86-3.23,1.34,1.34,0,0,0-1.32-.13l-1.33.77,2.67,4.55,1.32-.77A1.33,1.33,0,0,0,28.1,23.9Z"/><path class="cls-4" d="M26.79,24.66c0,1.19-.83,1.67-1.86,1.07a4.11,4.11,0,0,1-1.86-3.22c0-1.19.83-1.68,1.86-1.08A4.11,4.11,0,0,1,26.79,24.66Z"/><path class="cls-2" d="M26.62,24.56c0,1.07-.76,1.51-1.69,1a3.75,3.75,0,0,1-1.69-2.92c0-1.08.76-1.52,1.69-1A3.75,3.75,0,0,1,26.62,24.56Z"/><path class="cls-3" d="M26.41,24.88a4.11,4.11,0,0,0-1.86-3.23,1.3,1.3,0,0,0-1.32-.13l-1.33.77,2.67,4.54,1.32-.76A1.35,1.35,0,0,0,26.41,24.88Z"/><path class="cls-4" d="M25.1,25.63c0,1.19-.83,1.67-1.86,1.08a4.11,4.11,0,0,1-1.86-3.23c0-1.19.83-1.67,1.86-1.08A4.14,4.14,0,0,1,25.1,25.63Z"/><path class="cls-5" d="M24.63,26.46a1.06,1.06,0,0,1-1.39.05,3.75,3.75,0,0,1-1.69-2.93c0-.66.29-1.08.73-1.18a1.4,1.4,0,0,0-.29.93,3.75,3.75,0,0,0,1.69,2.92A1.36,1.36,0,0,0,24.63,26.46Z"/><path class="cls-6" d="M24.93,25.53a1.35,1.35,0,0,1-.3.93h0a1.36,1.36,0,0,1-.95-.21A3.75,3.75,0,0,1,22,23.33a1.4,1.4,0,0,1,.29-.93h0a1.36,1.36,0,0,1,.95.21A3.75,3.75,0,0,1,24.93,25.53Z"/><path class="cls-5" d="M24.23,25.07c-.12.13-.32.14-.55,0A1.5,1.5,0,0,1,23,23.91c0-.27.11-.43.29-.47a.51.51,0,0,0-.12.37A1.49,1.49,0,0,0,23.85,25,.57.57,0,0,0,24.23,25.07Z"/><path class="cls-7" d="M24.36,24.69a.54.54,0,0,1-.13.38h0a.57.57,0,0,1-.38-.09,1.49,1.49,0,0,1-.67-1.17.51.51,0,0,1,.12-.37h0a.51.51,0,0,1,.38.08A1.51,1.51,0,0,1,24.36,24.69Z"/><path class="cls-5" d="M24,26c0,.11-.17.14-.31.06a.75.75,0,0,1-.34-.59c0-.16.08-.24.2-.24a.32.32,0,0,0,0,.14.75.75,0,0,0,.34.59A.27.27,0,0,0,24,26Z"/><path class="cls-7" d="M24,25.88A.26.26,0,0,1,24,26a.27.27,0,0,1-.14,0,.75.75,0,0,1-.34-.59.32.32,0,0,1,0-.14.3.3,0,0,1,.14.05A.74.74,0,0,1,24,25.88Z"/><path class="cls-5" d="M23.34,22.72a.74.74,0,0,0,.34.58c.14.08.26.06.31-.05a.43.43,0,0,1-.14,0,.81.81,0,0,1-.3-.38,1,1,0,0,0-.2-.15S23.34,22.7,23.34,22.72Z"/><path class="cls-7" d="M23.85,23.21a.43.43,0,0,0,.14,0h0a2.89,2.89,0,0,0-.44-.42A.81.81,0,0,0,23.85,23.21Z"/><path class="cls-5" d="M22.79,23.94c-.05.11-.17.14-.31.06a.75.75,0,0,1-.34-.59c0-.16.08-.25.2-.24a.32.32,0,0,0,0,.14.75.75,0,0,0,.34.59A.27.27,0,0,0,22.79,23.94Z"/><path class="cls-7" d="M22.82,23.8a.29.29,0,0,1,0,.14.27.27,0,0,1-.14,0,.75.75,0,0,1-.34-.59.32.32,0,0,1,0-.14.3.3,0,0,1,.14,0A.73.73,0,0,1,22.82,23.8Z"/><path class="cls-5" d="M24.71,24.7a.29.29,0,0,1,0-.14c-.11,0-.2.08-.2.24a.77.77,0,0,0,.34.58l0,0a2.11,2.11,0,0,0,0-.25A.75.75,0,0,1,24.71,24.7Z"/><path class="cls-7" d="M24.71,24.7a.75.75,0,0,0,.19.45,3.19,3.19,0,0,0-.15-.59h0A.29.29,0,0,0,24.71,24.7Z"/><path class="cls-5" d="M22.59,23c.13.22.35.35.48.27a.16.16,0,0,0,.07-.07.55.55,0,0,1-.38-.3.56.56,0,0,1-.07-.47h0a.12.12,0,0,0-.08,0C22.46,22.49,22.46,22.74,22.59,23Z"/><path class="cls-7" d="M22.76,22.87a.55.55,0,0,0,.38.3.58.58,0,0,0-.07-.48.7.7,0,0,0-.27-.27l-.11,0A.56.56,0,0,0,22.76,22.87Z"/><path class="cls-5" d="M24.84,26.11a.16.16,0,0,1-.07.07c-.13.08-.35,0-.48-.27s-.13-.48,0-.55a.12.12,0,0,1,.1,0,.56.56,0,0,0,.07.47A.54.54,0,0,0,24.84,26.11Z"/><path class="cls-7" d="M24.84,26.11a.54.54,0,0,1-.38-.3.56.56,0,0,1-.07-.47.52.52,0,0,1,.38.29A.58.58,0,0,1,24.84,26.11Z"/><path class="cls-5" d="M24.62,24.24a3.63,3.63,0,0,0-.41-.72.55.55,0,0,0,.08.43A.63.63,0,0,0,24.62,24.24Z"/><path class="cls-5" d="M23.14,25.13a.16.16,0,0,1-.07.07c-.13.08-.35,0-.48-.27s-.13-.48,0-.55a.12.12,0,0,1,.1,0,.56.56,0,0,0,.07.47A.55.55,0,0,0,23.14,25.13Z"/><path class="cls-7" d="M23.14,25.13a.55.55,0,0,1-.38-.3.56.56,0,0,1-.07-.47.52.52,0,0,1,.38.29A.58.58,0,0,1,23.14,25.13Z"/><path class="cls-8" d="M24.38,24.7a1.54,1.54,0,0,0-.69-1.2.5.5,0,0,0-.49-.05l-.15.09,1,1.69.15-.09A.48.48,0,0,0,24.38,24.7Z"/><path class="cls-9" d="M24.24,24.78c0,.45-.31.62-.69.4a1.55,1.55,0,0,1-.7-1.2c0-.44.32-.62.7-.4A1.54,1.54,0,0,1,24.24,24.78Z"/><path class="cls-8" d="M24,24.7a1.13,1.13,0,0,0-.51-.88.35.35,0,0,0-.35,0l-.12.06.73,1.24.11-.07A.34.34,0,0,0,24,24.7Z"/><path class="cls-10" d="M23.9,24.76c0,.33-.22.46-.5.29a1.11,1.11,0,0,1-.51-.87c0-.32.23-.46.51-.29A1.1,1.1,0,0,1,23.9,24.76Z"/><path class="cls-3" d="M32.05,26.18A4.12,4.12,0,0,0,30.19,23a1.34,1.34,0,0,0-1.32-.13l-1.33.77,2.67,4.55,1.33-.77A1.32,1.32,0,0,0,32.05,26.18Z"/><path class="cls-4" d="M30.75,26.94c0,1.19-.84,1.67-1.87,1.07A4.11,4.11,0,0,1,27,24.79c0-1.19.83-1.67,1.86-1.08A4.12,4.12,0,0,1,30.75,26.94Z"/><path class="cls-2" d="M30.57,26.84c0,1.07-.76,1.51-1.69,1a3.75,3.75,0,0,1-1.69-2.92c0-1.08.76-1.51,1.69-1A3.75,3.75,0,0,1,30.57,26.84Z"/><path class="cls-3" d="M30.36,27.16a4.12,4.12,0,0,0-1.86-3.23,1.32,1.32,0,0,0-1.32-.13l-1.33.77,2.67,4.54,1.32-.76A1.34,1.34,0,0,0,30.36,27.16Z"/><path class="cls-4" d="M29.05,27.91c0,1.19-.83,1.68-1.86,1.08a4.11,4.11,0,0,1-1.86-3.23c0-1.19.83-1.67,1.86-1.07A4.11,4.11,0,0,1,29.05,27.91Z"/><path class="cls-5" d="M28.58,28.74a1.06,1.06,0,0,1-1.39.05,3.75,3.75,0,0,1-1.69-2.93c0-.66.29-1.08.74-1.18a1.35,1.35,0,0,0-.3.93,3.75,3.75,0,0,0,1.69,2.92A1.37,1.37,0,0,0,28.58,28.74Z"/><path class="cls-6" d="M28.88,27.81a1.4,1.4,0,0,1-.29.93h0a1.37,1.37,0,0,1-.95-.21,3.75,3.75,0,0,1-1.69-2.92,1.35,1.35,0,0,1,.3-.93h0a1.36,1.36,0,0,1,1,.21A3.75,3.75,0,0,1,28.88,27.81Z"/><path class="cls-5" d="M28.18,27.35c-.12.13-.32.14-.55,0A1.5,1.5,0,0,1,27,26.19c0-.26.11-.43.29-.47a.51.51,0,0,0-.12.37,1.49,1.49,0,0,0,.67,1.17A.59.59,0,0,0,28.18,27.35Z"/><path class="cls-7" d="M28.31,27a.54.54,0,0,1-.13.38h0a.59.59,0,0,1-.38-.09,1.49,1.49,0,0,1-.67-1.17.51.51,0,0,1,.12-.37h0a.51.51,0,0,1,.38.08A1.51,1.51,0,0,1,28.31,27Z"/><path class="cls-5" d="M27.94,28.3c-.05.11-.17.14-.31.06a.77.77,0,0,1-.34-.59.21.21,0,0,1,.2-.24.33.33,0,0,0,0,.15.77.77,0,0,0,.34.58A.27.27,0,0,0,27.94,28.3Z"/><path class="cls-7" d="M28,28.16a.26.26,0,0,1,0,.14.27.27,0,0,1-.14,0,.77.77,0,0,1-.34-.58.33.33,0,0,1,0-.15.39.39,0,0,1,.14,0A.74.74,0,0,1,28,28.16Z"/><path class="cls-5" d="M27.29,25a.75.75,0,0,0,.34.58c.14.08.26.06.31,0a.27.27,0,0,1-.14,0,.74.74,0,0,1-.29-.38A1.37,1.37,0,0,0,27.3,25S27.29,25,27.29,25Z"/><path class="cls-7" d="M27.8,25.49a.27.27,0,0,0,.14,0h0a2.83,2.83,0,0,0-.43-.42A.74.74,0,0,0,27.8,25.49Z"/><path class="cls-5" d="M26.74,26.22c0,.11-.17.14-.31.06a.75.75,0,0,1-.34-.59c0-.16.09-.24.2-.24a.32.32,0,0,0,0,.14.75.75,0,0,0,.34.59A.27.27,0,0,0,26.74,26.22Z"/><path class="cls-7" d="M26.77,26.08a.26.26,0,0,1,0,.14.27.27,0,0,1-.14,0,.75.75,0,0,1-.34-.59.32.32,0,0,1,0-.14.27.27,0,0,1,.14.05A.74.74,0,0,1,26.77,26.08Z"/><path class="cls-5" d="M28.67,27a.59.59,0,0,1,0-.14c-.11,0-.19.08-.19.24a.73.73,0,0,0,.33.58l0,0a2.29,2.29,0,0,0,0-.25A.73.73,0,0,1,28.67,27Z"/><path class="cls-7" d="M28.67,27a.73.73,0,0,0,.18.45,3.19,3.19,0,0,0-.15-.59h0A.59.59,0,0,0,28.67,27Z"/><path class="cls-5" d="M26.54,25.25c.14.23.35.35.48.27a.12.12,0,0,0,.07-.07.57.57,0,0,1-.38-.3.56.56,0,0,1-.07-.47h0a.13.13,0,0,0-.08,0C26.41,24.77,26.41,25,26.54,25.25Z"/><path class="cls-7" d="M26.71,25.15a.57.57,0,0,0,.38.3A.55.55,0,0,0,27,25a.64.64,0,0,0-.27-.27l-.11,0A.56.56,0,0,0,26.71,25.15Z"/><path class="cls-5" d="M28.79,28.39a.27.27,0,0,1-.07.08c-.13.07-.35,0-.48-.28s-.13-.47,0-.55a.12.12,0,0,1,.1,0,.56.56,0,0,0,.07.47A.54.54,0,0,0,28.79,28.39Z"/><path class="cls-7" d="M28.79,28.39a.54.54,0,0,1-.38-.3.56.56,0,0,1-.07-.47.52.52,0,0,1,.38.29A.58.58,0,0,1,28.79,28.39Z"/><path class="cls-5" d="M28.57,26.52a3.94,3.94,0,0,0-.41-.72.6.6,0,0,0,.08.43A.63.63,0,0,0,28.57,26.52Z"/><path class="cls-5" d="M27.09,27.41a.18.18,0,0,1-.07.08c-.13.07-.34,0-.48-.28s-.13-.48,0-.55a.14.14,0,0,1,.11,0,.52.52,0,0,0,.06.47A.57.57,0,0,0,27.09,27.41Z"/><path class="cls-7" d="M27.09,27.41a.57.57,0,0,1-.38-.3.52.52,0,0,1-.06-.47.52.52,0,0,1,.37.29A.55.55,0,0,1,27.09,27.41Z"/><path class="cls-8" d="M28.33,27a1.54,1.54,0,0,0-.69-1.2.5.5,0,0,0-.49-.05l-.15.09,1,1.69.14-.09A.48.48,0,0,0,28.33,27Z"/><path class="cls-9" d="M28.19,27.06c0,.45-.31.63-.69.4a1.52,1.52,0,0,1-.69-1.2c0-.44.31-.62.69-.4A1.54,1.54,0,0,1,28.19,27.06Z"/><path class="cls-8" d="M28,27a1.13,1.13,0,0,0-.5-.87.35.35,0,0,0-.36,0l-.12.06.73,1.24.11-.07A.34.34,0,0,0,28,27Z"/><path class="cls-10" d="M27.85,27c0,.33-.22.46-.5.3a1.15,1.15,0,0,1-.51-.88c0-.32.23-.45.51-.29A1.1,1.1,0,0,1,27.85,27Z"/><path class="cls-3" d="M36,28.46a4.11,4.11,0,0,0-1.86-3.22,1.29,1.29,0,0,0-1.32-.13l-1.33.76,2.67,4.55,1.33-.77A1.32,1.32,0,0,0,36,28.46Z"/><path class="cls-4" d="M34.7,29.22c0,1.19-.84,1.67-1.87,1.08A4.12,4.12,0,0,1,31,27.07c0-1.19.83-1.67,1.86-1.08A4.13,4.13,0,0,1,34.7,29.22Z"/><path class="cls-2" d="M34.52,29.12c0,1.07-.76,1.51-1.69,1a3.73,3.73,0,0,1-1.68-2.92c0-1.08.75-1.51,1.68-1A3.71,3.71,0,0,1,34.52,29.12Z"/><path class="cls-3" d="M34.31,29.44a4.12,4.12,0,0,0-1.86-3.23,1.32,1.32,0,0,0-1.32-.13l-1.33.77,2.67,4.54,1.33-.76A1.35,1.35,0,0,0,34.31,29.44Z"/><path class="cls-4" d="M33,30.2c0,1.18-.84,1.67-1.87,1.07A4.11,4.11,0,0,1,29.28,28c0-1.18.83-1.67,1.86-1.07A4.12,4.12,0,0,1,33,30.2Z"/><path class="cls-5" d="M32.54,31a1.08,1.08,0,0,1-1.4.05,3.75,3.75,0,0,1-1.69-2.92c0-.67.29-1.09.74-1.19a1.35,1.35,0,0,0-.29.93,3.73,3.73,0,0,0,1.68,2.92A1.39,1.39,0,0,0,32.54,31Z"/><path class="cls-6" d="M32.83,30.09a1.4,1.4,0,0,1-.29.93h0a1.39,1.39,0,0,1-1-.21,3.73,3.73,0,0,1-1.68-2.92,1.35,1.35,0,0,1,.29-.93h0a1.36,1.36,0,0,1,.95.21A3.75,3.75,0,0,1,32.83,30.09Z"/><path class="cls-5" d="M32.13,29.63c-.12.13-.32.14-.55,0a1.49,1.49,0,0,1-.67-1.17c0-.26.11-.43.29-.47a.51.51,0,0,0-.12.37,1.49,1.49,0,0,0,.67,1.17A.59.59,0,0,0,32.13,29.63Z"/><path class="cls-7" d="M32.26,29.25a.53.53,0,0,1-.13.38h0a.59.59,0,0,1-.38-.09,1.49,1.49,0,0,1-.67-1.17A.51.51,0,0,1,31.2,28h0a.56.56,0,0,1,.38.08A1.49,1.49,0,0,1,32.26,29.25Z"/><path class="cls-5" d="M31.89,30.59c-.05.1-.17.13-.31.05a.76.76,0,0,1-.33-.59c0-.15.08-.24.19-.23a.42.42,0,0,0,0,.14.77.77,0,0,0,.34.58A.48.48,0,0,0,31.89,30.59Z"/><path class="cls-7" d="M31.92,30.44a.33.33,0,0,1,0,.15.48.48,0,0,1-.14-.05.77.77,0,0,1-.34-.58.42.42,0,0,1,0-.14.25.25,0,0,1,.14,0A.74.74,0,0,1,31.92,30.44Z"/><path class="cls-5" d="M31.25,27.28a.76.76,0,0,0,.33.59c.14.08.26.05.31-.06a.27.27,0,0,1-.14,0,.74.74,0,0,1-.29-.38,1.37,1.37,0,0,0-.21-.15Z"/><path class="cls-7" d="M31.75,27.77a.27.27,0,0,0,.14,0h0a2.83,2.83,0,0,0-.43-.42A.74.74,0,0,0,31.75,27.77Z"/><path class="cls-5" d="M30.69,28.5c-.05.11-.17.14-.31.06A.75.75,0,0,1,30,28a.21.21,0,0,1,.2-.24.58.58,0,0,0,0,.14.77.77,0,0,0,.34.59A.27.27,0,0,0,30.69,28.5Z"/><path class="cls-7" d="M30.72,28.36a.26.26,0,0,1,0,.14.27.27,0,0,1-.14,0,.77.77,0,0,1-.34-.59.58.58,0,0,1,0-.14.39.39,0,0,1,.14.05A.74.74,0,0,1,30.72,28.36Z"/><path class="cls-5" d="M32.62,29.26a.32.32,0,0,1,0-.14c-.12,0-.2.08-.2.24a.73.73,0,0,0,.33.58l0,0a2.29,2.29,0,0,0,0-.25A.73.73,0,0,1,32.62,29.26Z"/><path class="cls-7" d="M32.62,29.26a.73.73,0,0,0,.18.45,3.41,3.41,0,0,0-.15-.59h0A.32.32,0,0,0,32.62,29.26Z"/><path class="cls-5" d="M30.5,27.53c.13.23.34.35.47.27a.12.12,0,0,0,.07-.07.54.54,0,0,1-.37-.3.53.53,0,0,1-.08-.47h0a.11.11,0,0,0-.08,0C30.36,27.05,30.36,27.3,30.5,27.53Z"/><path class="cls-7" d="M30.67,27.43a.54.54,0,0,0,.37.3.55.55,0,0,0-.07-.48A.64.64,0,0,0,30.7,27l-.11,0A.53.53,0,0,0,30.67,27.43Z"/><path class="cls-5" d="M32.74,30.67a.27.27,0,0,1-.07.08c-.13.07-.34-.05-.48-.28s-.13-.47,0-.55a.18.18,0,0,1,.1,0,.56.56,0,0,0,.07.47A.57.57,0,0,0,32.74,30.67Z"/><path class="cls-7" d="M32.74,30.67a.57.57,0,0,1-.38-.3.56.56,0,0,1-.07-.47.51.51,0,0,1,.38.3A.52.52,0,0,1,32.74,30.67Z"/><path class="cls-5" d="M32.52,28.8a3.94,3.94,0,0,0-.41-.72.58.58,0,0,0,.08.43A.63.63,0,0,0,32.52,28.8Z"/><path class="cls-5" d="M31,29.69a.18.18,0,0,1-.07.08c-.13.07-.34-.05-.47-.28s-.14-.47,0-.55a.16.16,0,0,1,.1,0,.49.49,0,0,0,.07.47A.54.54,0,0,0,31,29.69Z"/><path class="cls-7" d="M31,29.69a.54.54,0,0,1-.37-.3.49.49,0,0,1-.07-.47.52.52,0,0,1,.37.29A.55.55,0,0,1,31,29.69Z"/><path class="cls-8" d="M32.28,29.26a1.54,1.54,0,0,0-.69-1.2.47.47,0,0,0-.49,0L31,28.1l1,1.69.14-.08A.51.51,0,0,0,32.28,29.26Z"/><path class="cls-9" d="M32.14,29.35c0,.44-.31.62-.69.4a1.56,1.56,0,0,1-.69-1.21c0-.44.31-.62.69-.4A1.56,1.56,0,0,1,32.14,29.35Z"/><path class="cls-8" d="M31.91,29.26a1.1,1.1,0,0,0-.5-.87.37.37,0,0,0-.36,0l-.11.07.72,1.23.11-.07A.34.34,0,0,0,31.91,29.26Z"/><path class="cls-10" d="M31.81,29.32c0,.33-.23.46-.51.3a1.13,1.13,0,0,1-.51-.88c0-.32.23-.45.51-.29A1.11,1.11,0,0,1,31.81,29.32Z"/><path class="cls-3" d="M40,30.75a4.11,4.11,0,0,0-1.86-3.23,1.29,1.29,0,0,0-1.32-.13l-1.33.76,2.67,4.55,1.33-.77A1.32,1.32,0,0,0,40,30.75Z"/><path class="cls-4" d="M38.65,31.5c0,1.19-.84,1.67-1.87,1.08a4.12,4.12,0,0,1-1.86-3.23c0-1.19.83-1.67,1.86-1.08A4.13,4.13,0,0,1,38.65,31.5Z"/><path class="cls-2" d="M38.47,31.4c0,1.07-.75,1.51-1.69,1a3.72,3.72,0,0,1-1.68-2.92c0-1.08.75-1.51,1.68-1A3.69,3.69,0,0,1,38.47,31.4Z"/><path class="cls-3" d="M38.26,31.72a4.12,4.12,0,0,0-1.86-3.23,1.34,1.34,0,0,0-1.32-.13l-1.33.77,2.67,4.55,1.33-.77A1.32,1.32,0,0,0,38.26,31.72Z"/><path class="cls-4" d="M37,32.48c0,1.19-.84,1.67-1.87,1.07a4.11,4.11,0,0,1-1.86-3.23c0-1.18.83-1.67,1.86-1.07A4.12,4.12,0,0,1,37,32.48Z"/><path class="cls-5" d="M36.49,33.3a1.08,1.08,0,0,1-1.4.05,3.75,3.75,0,0,1-1.69-2.92c0-.67.3-1.09.74-1.19a1.35,1.35,0,0,0-.29.93,3.72,3.72,0,0,0,1.68,2.92A1.35,1.35,0,0,0,36.49,33.3Z"/><path class="cls-6" d="M36.78,32.38a1.37,1.37,0,0,1-.29.92h0a1.35,1.35,0,0,1-1-.21,3.72,3.72,0,0,1-1.68-2.92,1.35,1.35,0,0,1,.29-.93h0a1.36,1.36,0,0,1,1,.21A3.75,3.75,0,0,1,36.78,32.38Z"/><path class="cls-5" d="M36.08,31.91c-.12.13-.32.14-.55,0a1.49,1.49,0,0,1-.67-1.17c0-.26.11-.43.29-.47a.52.52,0,0,0-.12.38,1.47,1.47,0,0,0,.67,1.16A.54.54,0,0,0,36.08,31.91Z"/><path class="cls-7" d="M36.21,31.53a.57.57,0,0,1-.12.38h0a.54.54,0,0,1-.38-.09A1.47,1.47,0,0,1,35,30.66a.52.52,0,0,1,.12-.38h0a.56.56,0,0,1,.38.08A1.49,1.49,0,0,1,36.21,31.53Z"/><path class="cls-5" d="M35.84,32.87c-.05.1-.17.13-.31.05a.76.76,0,0,1-.33-.58c0-.16.08-.25.2-.24a.26.26,0,0,0,0,.14.76.76,0,0,0,.33.58A.3.3,0,0,0,35.84,32.87Z"/><path class="cls-7" d="M35.87,32.73a.32.32,0,0,1,0,.14.3.3,0,0,1-.14,0,.76.76,0,0,1-.33-.58.26.26,0,0,1,0-.14.24.24,0,0,1,.13,0A.75.75,0,0,1,35.87,32.73Z"/><path class="cls-5" d="M35.2,29.56a.76.76,0,0,0,.33.59c.14.08.26.05.31-.06a.27.27,0,0,1-.14,0,.79.79,0,0,1-.29-.38l-.21-.15Z"/><path class="cls-7" d="M35.7,30.05a.27.27,0,0,0,.14,0h0a2.83,2.83,0,0,0-.43-.42A.79.79,0,0,0,35.7,30.05Z"/><path class="cls-5" d="M34.64,30.79c0,.1-.17.13-.31.05a.77.77,0,0,1-.34-.58c0-.16.09-.25.21-.24a.26.26,0,0,0,0,.14.77.77,0,0,0,.34.58A.48.48,0,0,0,34.64,30.79Z"/><path class="cls-7" d="M34.67,30.64a.33.33,0,0,1,0,.15.48.48,0,0,1-.14-.05.77.77,0,0,1-.34-.58.26.26,0,0,1,0-.14.24.24,0,0,1,.13,0A.74.74,0,0,1,34.67,30.64Z"/><path class="cls-5" d="M36.57,31.54a.32.32,0,0,1,0-.14c-.12,0-.2.08-.2.24a.76.76,0,0,0,.33.59l0,0a2.28,2.28,0,0,0,0-.26A.73.73,0,0,1,36.57,31.54Z"/><path class="cls-7" d="M36.57,31.54a.73.73,0,0,0,.18.45,3.41,3.41,0,0,0-.15-.59h0A.32.32,0,0,0,36.57,31.54Z"/><path class="cls-5" d="M34.45,29.81c.13.23.34.35.47.27A.12.12,0,0,0,35,30a.54.54,0,0,1-.37-.3.52.52,0,0,1-.07-.47h0a.11.11,0,0,0-.08,0C34.31,29.34,34.31,29.58,34.45,29.81Z"/><path class="cls-7" d="M34.62,29.71A.54.54,0,0,0,35,30a.52.52,0,0,0-.07-.48.61.61,0,0,0-.27-.26l-.1,0A.52.52,0,0,0,34.62,29.71Z"/><path class="cls-5" d="M36.69,33a.18.18,0,0,1-.07.08c-.13.07-.34-.05-.47-.28s-.14-.47,0-.55a.13.13,0,0,1,.09,0,.53.53,0,0,0,.08.47A.54.54,0,0,0,36.69,33Z"/><path class="cls-7" d="M36.69,33a.54.54,0,0,1-.37-.3.53.53,0,0,1-.08-.47.54.54,0,0,1,.38.3A.52.52,0,0,1,36.69,33Z"/><path class="cls-5" d="M36.47,31.08a4.3,4.3,0,0,0-.41-.72.59.59,0,0,0,.09.43A.59.59,0,0,0,36.47,31.08Z"/><path class="cls-5" d="M35,32a.18.18,0,0,1-.07.08c-.13.07-.34,0-.47-.28s-.14-.47,0-.55a.16.16,0,0,1,.1,0,.49.49,0,0,0,.07.47A.54.54,0,0,0,35,32Z"/><path class="cls-7" d="M35,32a.54.54,0,0,1-.37-.3.49.49,0,0,1-.07-.47.54.54,0,0,1,.37.3A.49.49,0,0,1,35,32Z"/><path class="cls-8" d="M36.24,31.55a1.54,1.54,0,0,0-.7-1.21.47.47,0,0,0-.49,0l-.15.08,1,1.69L36,32A.5.5,0,0,0,36.24,31.55Z"/><path class="cls-9" d="M36.1,31.63c0,.44-.32.62-.7.4a1.54,1.54,0,0,1-.69-1.2c0-.45.31-.63.69-.4A1.53,1.53,0,0,1,36.1,31.63Z"/><path class="cls-8" d="M35.86,31.54a1.1,1.1,0,0,0-.5-.87.37.37,0,0,0-.36,0l-.11.07.72,1.23.11-.06A.37.37,0,0,0,35.86,31.54Z"/><path class="cls-10" d="M35.76,31.61c0,.32-.23.45-.51.29a1.13,1.13,0,0,1-.51-.88c0-.32.23-.45.51-.29A1.11,1.11,0,0,1,35.76,31.61Z"/><path class="cls-3" d="M43.91,33A4.12,4.12,0,0,0,42,29.8a1.29,1.29,0,0,0-1.32-.13l-1.33.77L42.07,35l1.32-.77A1.32,1.32,0,0,0,43.91,33Z"/><path class="cls-4" d="M42.6,33.78c0,1.19-.84,1.67-1.87,1.08a4.15,4.15,0,0,1-1.86-3.23c0-1.19.84-1.67,1.87-1.08A4.15,4.15,0,0,1,42.6,33.78Z"/><path class="cls-2" d="M42.42,33.68c0,1.08-.75,1.51-1.68,1a3.69,3.69,0,0,1-1.69-2.92c0-1.07.75-1.51,1.69-1A3.72,3.72,0,0,1,42.42,33.68Z"/><path class="cls-3" d="M42.21,34a4.12,4.12,0,0,0-1.86-3.23A1.31,1.31,0,0,0,39,30.65l-1.33.76L40.37,36l1.33-.77A1.32,1.32,0,0,0,42.21,34Z"/><path class="cls-4" d="M40.91,34.76c0,1.19-.84,1.67-1.87,1.07a4.11,4.11,0,0,1-1.86-3.22c0-1.19.83-1.67,1.86-1.08A4.12,4.12,0,0,1,40.91,34.76Z"/><path class="cls-5" d="M40.44,35.58a1.08,1.08,0,0,1-1.4.05,3.73,3.73,0,0,1-1.68-2.92c0-.67.29-1.09.73-1.19a1.4,1.4,0,0,0-.29.93,3.72,3.72,0,0,0,1.68,2.92A1.35,1.35,0,0,0,40.44,35.58Z"/><path class="cls-6" d="M40.73,34.66a1.37,1.37,0,0,1-.29.92h0a1.35,1.35,0,0,1-1-.21,3.72,3.72,0,0,1-1.68-2.92,1.4,1.4,0,0,1,.29-.93h0a1.42,1.42,0,0,1,.95.21A3.75,3.75,0,0,1,40.73,34.66Z"/><path class="cls-5" d="M40,34.19a.43.43,0,0,1-.55,0A1.46,1.46,0,0,1,38.81,33a.43.43,0,0,1,.29-.47.52.52,0,0,0-.12.38,1.49,1.49,0,0,0,.68,1.17A.56.56,0,0,0,40,34.19Z"/><path class="cls-7" d="M40.16,33.81a.57.57,0,0,1-.12.38h0a.56.56,0,0,1-.38-.08A1.49,1.49,0,0,1,39,32.94a.52.52,0,0,1,.12-.38h0a.56.56,0,0,1,.39.09A1.47,1.47,0,0,1,40.16,33.81Z"/><path class="cls-5" d="M39.79,35.15c0,.1-.17.13-.3.05a.74.74,0,0,1-.34-.58c0-.16.08-.25.2-.24a.26.26,0,0,0,0,.14.74.74,0,0,0,.34.58A.27.27,0,0,0,39.79,35.15Z"/><path class="cls-7" d="M39.82,35a.32.32,0,0,1,0,.14.27.27,0,0,1-.13,0,.74.74,0,0,1-.34-.58.26.26,0,0,1,0-.14.3.3,0,0,1,.14,0A.76.76,0,0,1,39.82,35Z"/><path class="cls-5" d="M39.15,31.84a.75.75,0,0,0,.34.59c.13.08.25,0,.3-.06a.22.22,0,0,1-.13,0,.77.77,0,0,1-.3-.38l-.21-.15Z"/><path class="cls-7" d="M39.66,32.33a.22.22,0,0,0,.13,0h0a3.41,3.41,0,0,0-.43-.42A.77.77,0,0,0,39.66,32.33Z"/><path class="cls-5" d="M38.59,33.07c-.05.1-.17.13-.31,0a.76.76,0,0,1-.33-.58c0-.16.08-.25.2-.24a.26.26,0,0,0,0,.14.76.76,0,0,0,.33.58A.48.48,0,0,0,38.59,33.07Z"/><path class="cls-7" d="M38.62,32.93a.32.32,0,0,1,0,.14.48.48,0,0,1-.14,0,.76.76,0,0,1-.33-.58.26.26,0,0,1,0-.14.24.24,0,0,1,.13,0A.75.75,0,0,1,38.62,32.93Z"/><path class="cls-5" d="M40.52,33.82a.32.32,0,0,1,0-.14c-.12,0-.2.08-.2.24a.75.75,0,0,0,.34.59l0,0a2.28,2.28,0,0,0,0-.26A.71.71,0,0,1,40.52,33.82Z"/><path class="cls-7" d="M40.52,33.82a.71.71,0,0,0,.18.45,3.41,3.41,0,0,0-.15-.59h0A.32.32,0,0,0,40.52,33.82Z"/><path class="cls-5" d="M38.4,32.09c.13.23.34.35.47.28a.18.18,0,0,0,.07-.08.54.54,0,0,1-.37-.3.52.52,0,0,1-.07-.47h0l-.08,0C38.27,31.62,38.27,31.86,38.4,32.09Z"/><path class="cls-7" d="M38.57,32a.54.54,0,0,0,.37.3.49.49,0,0,0-.07-.47.58.58,0,0,0-.27-.27l-.1,0A.52.52,0,0,0,38.57,32Z"/><path class="cls-5" d="M40.64,35.23a.14.14,0,0,1-.07.08c-.13.08-.34-.05-.47-.28s-.14-.47,0-.55l.1,0a.49.49,0,0,0,.07.47A.54.54,0,0,0,40.64,35.23Z"/><path class="cls-7" d="M40.64,35.23a.54.54,0,0,1-.37-.3.49.49,0,0,1-.07-.47.54.54,0,0,1,.37.3A.52.52,0,0,1,40.64,35.23Z"/><path class="cls-5" d="M40.42,33.36a4.3,4.3,0,0,0-.41-.72.59.59,0,0,0,.09.43A.55.55,0,0,0,40.42,33.36Z"/><path class="cls-5" d="M38.94,34.25a.14.14,0,0,1-.07.08c-.13.07-.34,0-.47-.28s-.13-.47,0-.55a.16.16,0,0,1,.1,0,.52.52,0,0,0,.07.47A.51.51,0,0,0,38.94,34.25Z"/><path class="cls-7" d="M38.94,34.25a.51.51,0,0,1-.37-.3.52.52,0,0,1-.07-.47.54.54,0,0,1,.37.3A.49.49,0,0,1,38.94,34.25Z"/><path class="cls-8" d="M40.19,33.83a1.51,1.51,0,0,0-.7-1.2.45.45,0,0,0-.49-.05l-.15.08,1,1.69.14-.08A.5.5,0,0,0,40.19,33.83Z"/><path class="cls-9" d="M40.05,33.91c0,.44-.31.62-.7.4a1.54,1.54,0,0,1-.69-1.2c0-.45.31-.63.69-.4A1.52,1.52,0,0,1,40.05,33.91Z"/><path class="cls-8" d="M39.81,33.82a1.1,1.1,0,0,0-.5-.87.37.37,0,0,0-.36,0l-.11.07.72,1.23.11-.06A.37.37,0,0,0,39.81,33.82Z"/><path class="cls-10" d="M39.71,33.89c0,.32-.23.45-.51.29a1.11,1.11,0,0,1-.51-.88c0-.32.23-.45.51-.29A1.11,1.11,0,0,1,39.71,33.89Z"/><path class="cls-3" d="M45.11,33.22a2.6,2.6,0,0,0-1.16-2,.85.85,0,0,0-.83-.08l-.83.48L44,34.44l.83-.48A.82.82,0,0,0,45.11,33.22Z"/><path class="cls-4" d="M44.29,33.69c0,.74-.52,1.05-1.16.67a2.58,2.58,0,0,1-1.17-2c0-.74.53-1,1.17-.67A2.57,2.57,0,0,1,44.29,33.69Z"/><path class="cls-5" d="M44,34.21a.67.67,0,0,1-.87,0,2.35,2.35,0,0,1-1.05-1.83c0-.41.18-.68.45-.74a.89.89,0,0,0-.18.58,2.35,2.35,0,0,0,1,1.83A1,1,0,0,0,44,34.21Z"/><path class="cls-2" d="M44.18,33.63a.84.84,0,0,1-.18.58h0a1,1,0,0,1-.6-.13,2.35,2.35,0,0,1-1-1.83.89.89,0,0,1,.18-.58h0a.94.94,0,0,1,.6.13A2.35,2.35,0,0,1,44.18,33.63Z"/><path class="cls-3" d="M44.05,33.84a2.55,2.55,0,0,0-1.17-2,.8.8,0,0,0-.82-.08l-.83.48,1.67,2.84.82-.48A.83.83,0,0,0,44.05,33.84Z"/><path class="cls-4" d="M43.23,34.31c0,.74-.52,1-1.16.67a2.55,2.55,0,0,1-1.17-2c0-.74.52-1,1.17-.67A2.59,2.59,0,0,1,43.23,34.31Z"/><path class="cls-5" d="M42.94,34.82c-.19.22-.51.24-.87,0A2.3,2.3,0,0,1,41,33c0-.42.18-.68.46-.74a.87.87,0,0,0-.18.58,2.32,2.32,0,0,0,1.05,1.82A.83.83,0,0,0,42.94,34.82Z"/><path class="cls-6" d="M43.12,34.24a.87.87,0,0,1-.18.58h0a.83.83,0,0,1-.6-.13,2.32,2.32,0,0,1-1.05-1.82.87.87,0,0,1,.18-.58h0a.84.84,0,0,1,.6.13A2.33,2.33,0,0,1,43.12,34.24Z"/><path class="cls-5" d="M42.69,34a.28.28,0,0,1-.35,0,.93.93,0,0,1-.42-.73c0-.16.07-.27.18-.29a.32.32,0,0,0-.07.23.93.93,0,0,0,.42.73A.32.32,0,0,0,42.69,34Z"/><path class="cls-7" d="M42.76,33.72a.37.37,0,0,1-.07.23h0a.32.32,0,0,1-.24-.05.93.93,0,0,1-.42-.73.32.32,0,0,1,.07-.23h0a.32.32,0,0,1,.24.05A.93.93,0,0,1,42.76,33.72Z"/><path class="cls-5" d="M42.53,34.55c0,.07-.1.08-.19,0a.48.48,0,0,1-.21-.37c0-.1,0-.15.13-.15s0,0,0,.09a.44.44,0,0,0,.21.36Z"/><path class="cls-7" d="M42.55,34.46s0,.07,0,.09l-.08,0a.44.44,0,0,1-.21-.36s0-.07,0-.09l.08,0A.46.46,0,0,1,42.55,34.46Z"/><path class="cls-5" d="M42.13,32.49a.44.44,0,0,0,.21.36c.09,0,.16,0,.19,0l-.08,0a.47.47,0,0,1-.19-.24l-.13-.09Z"/><path class="cls-7" d="M42.45,32.79l.08,0h0a1.72,1.72,0,0,0-.27-.27A.47.47,0,0,0,42.45,32.79Z"/><path class="cls-5" d="M41.78,33.25c0,.07-.1.09-.19,0a.51.51,0,0,1-.21-.37c0-.1,0-.15.13-.15s0,0,0,.09a.44.44,0,0,0,.21.36Z"/><path class="cls-7" d="M41.8,33.16s0,.07,0,.09l-.08,0a.44.44,0,0,1-.21-.36s0-.07,0-.09l.08,0A.46.46,0,0,1,41.8,33.16Z"/><path class="cls-5" d="M43,33.73a.22.22,0,0,1,0-.09c-.07,0-.12,0-.12.15a.49.49,0,0,0,.21.36h0s0-.1,0-.15A.45.45,0,0,1,43,33.73Z"/><path class="cls-7" d="M43,33.73a.45.45,0,0,0,.11.28,2.22,2.22,0,0,0-.09-.37h0A.22.22,0,0,0,43,33.73Z"/><path class="cls-5" d="M41.66,32.64c.08.15.22.22.3.17l0,0a.43.43,0,0,1-.28-.48h-.06C41.58,32.35,41.58,32.5,41.66,32.64Z"/><path class="cls-7" d="M41.77,32.58a.36.36,0,0,0,.23.19.34.34,0,0,0,0-.3.46.46,0,0,0-.17-.17h-.07A.36.36,0,0,0,41.77,32.58Z"/><path class="cls-5" d="M43.06,34.6a.1.1,0,0,1,0,0c-.08.05-.22,0-.3-.17s-.08-.3,0-.34l.07,0a.34.34,0,0,0,0,.3A.32.32,0,0,0,43.06,34.6Z"/><path class="cls-7" d="M43.06,34.6a.32.32,0,0,1-.23-.18.34.34,0,0,1,0-.3.36.36,0,0,1,.23.19A.32.32,0,0,1,43.06,34.6Z"/><path class="cls-5" d="M42.93,33.44a2.51,2.51,0,0,0-.26-.45.37.37,0,0,0,0,.26A.41.41,0,0,0,42.93,33.44Z"/><path class="cls-5" d="M42,34a.1.1,0,0,1,0,0c-.08.05-.22,0-.3-.17s-.08-.3,0-.35h.07a.31.31,0,0,0,0,.3A.32.32,0,0,0,42,34Z"/><path class="cls-7" d="M42,34a.32.32,0,0,1-.23-.18.31.31,0,0,1,0-.3.34.34,0,0,1,.23.19A.32.32,0,0,1,42,34Z"/><path class="cls-8" d="M42.78,33.73a.93.93,0,0,0-.43-.75A.3.3,0,0,0,42,33L42,33l.62,1.06.09-.06A.3.3,0,0,0,42.78,33.73Z"/><path class="cls-9" d="M42.69,33.78c0,.27-.19.39-.43.25a1,1,0,0,1-.43-.75c0-.28.19-.39.43-.25A1,1,0,0,1,42.69,33.78Z"/><path class="cls-8" d="M42.55,33.73a.68.68,0,0,0-.32-.55c-.09,0-.17-.06-.22,0l-.07,0,.45.77.07,0A.25.25,0,0,0,42.55,33.73Z"/><path class="cls-10" d="M42.48,33.76c0,.21-.14.29-.32.19a.71.71,0,0,1-.31-.55c0-.2.14-.28.31-.18A.68.68,0,0,1,42.48,33.76Z"/><path class="cls-2" d="M46.18,31.38l-3,1.56-.16.2.3.62.07,1-.21.42,0,.21,3-1.73h0a.79.79,0,0,0,.32-.66v-.5A2.55,2.55,0,0,0,46.18,31.38Z"/><polygon class="cls-2" points="15.12 16.97 16.36 16.26 16.87 16.78 16.23 17.24 15.45 17.08 15.12 16.97"/><path class="cls-3" d="M43.17,33.12a3.72,3.72,0,0,0-1.11-1.18S16.28,17.06,16.28,17.06A1.17,1.17,0,0,0,15.17,17a.74.74,0,0,0-.38.69v.5a2.45,2.45,0,0,0,.38,1.13l3,4.5a3.27,3.27,0,0,0,.85.85L39.33,36.36a1.25,1.25,0,0,0,.86.14l3-1.07a.74.74,0,0,0,.38-.69v-.5A2.41,2.41,0,0,0,43.17,33.12Zm.07,1.27a.77.77,0,0,1-.38.7l-2.78,1a1.25,1.25,0,0,1-.86-.14L19.11,24.33a3.27,3.27,0,0,1-.85-.85l-2.79-4.21a2.47,2.47,0,0,1-.37-1.12V18a.75.75,0,0,1,.37-.69h0a.83.83,0,0,1,.74.12l25.82,14.9a2.54,2.54,0,0,1,.74.74l0,.06a2.41,2.41,0,0,1,.38,1.13Z"/><polygon class="cls-11" points="45.07 31.6 30.84 25.25 19.63 18.49 14.53 13.97 17.53 12.23 48.08 29.87 46.44 31.61 45.07 31.6"/><polygon class="cls-6" points="43.94 33.52 37.49 30.53 20.47 20.7 14.26 15.46 14.53 13.97 38.56 27.84 45.07 31.6 43.94 33.52"/><polygon class="cls-12" points="46.95 31.79 43.94 33.52 45.07 31.6 48.08 29.87 46.95 31.79"/><polygon class="cls-13" points="34.18 37.9 20.21 31.25 8.99 24.49 4.58 20.36 14.79 14.47 44.47 31.6 42.2 33.82 34.18 37.9"/><polygon class="cls-12" points="43.52 33.3 33.31 39.19 34.26 37.5 44.47 31.6 43.52 33.3"/><polygon class="cls-13" points="23.74 24.25 18.32 26.97 6.32 20.05 16.09 14.41 28.08 21.34 23.74 24.25"/><polygon class="cls-12" points="28.08 22.14 18.32 27.78 18.04 27.34 18.32 26.97 28.08 21.34 28.08 22.14"/><polygon class="cls-6" points="18.32 27.78 6.32 20.85 6.32 20.05 18.32 26.97 18.32 27.78"/><polygon class="cls-2" points="29.2 42.98 27.03 43.75 5.95 31.61 2.32 26.33 2.16 25.7 2.16 24.81 2.79 24.47 4 24.61 30.05 40.05 30.6 41.14 30.58 42.43 29.2 42.98"/><path class="cls-3" d="M6.53,25.7a2.6,2.6,0,0,0-1.17-2,.83.83,0,0,0-.82-.08l-.83.48,1.67,2.84.82-.48A.83.83,0,0,0,6.53,25.7Z"/><path class="cls-4" d="M5.71,26.17c0,.74-.52,1-1.17.67a2.57,2.57,0,0,1-1.16-2c0-.75.52-1,1.16-.68A2.58,2.58,0,0,1,5.71,26.17Z"/><path class="cls-5" d="M5.42,26.69c-.19.21-.51.23-.88,0a2.32,2.32,0,0,1-1-1.82c0-.42.18-.68.46-.74a.84.84,0,0,0-.18.58,2.32,2.32,0,0,0,1.05,1.82A.89.89,0,0,0,5.42,26.69Z"/><path class="cls-2" d="M5.6,26.11a.84.84,0,0,1-.18.57h0a.89.89,0,0,1-.6-.14,2.32,2.32,0,0,1-1.05-1.82A.84.84,0,0,1,4,24.15H4a.8.8,0,0,1,.59.13A2.32,2.32,0,0,1,5.6,26.11Z"/><path class="cls-3" d="M5.46,26.31a2.57,2.57,0,0,0-1.16-2,.82.82,0,0,0-.83-.08l-.83.48,1.67,2.84.83-.48A.84.84,0,0,0,5.46,26.31Z"/><path class="cls-4" d="M4.65,26.79c0,.74-.53,1-1.17.67a2.59,2.59,0,0,1-1.16-2c0-.74.52-1,1.16-.67A2.58,2.58,0,0,1,4.65,26.79Z"/><path class="cls-5" d="M4.35,27.3a.67.67,0,0,1-.87,0,2.33,2.33,0,0,1-1-1.82c0-.42.18-.68.46-.74a.82.82,0,0,0-.19.58,2.34,2.34,0,0,0,1.06,1.82A.8.8,0,0,0,4.35,27.3Z"/><path class="cls-6" d="M4.54,26.72a.82.82,0,0,1-.19.58h0a.8.8,0,0,1-.59-.13A2.34,2.34,0,0,1,2.7,25.35a.82.82,0,0,1,.19-.58h0a.8.8,0,0,1,.59.13A2.33,2.33,0,0,1,4.54,26.72Z"/><path class="cls-5" d="M4.1,26.43a.26.26,0,0,1-.34,0,.9.9,0,0,1-.42-.73c0-.17.07-.27.18-.3a.36.36,0,0,0-.08.24.94.94,0,0,0,.42.73A.32.32,0,0,0,4.1,26.43Z"/><path class="cls-7" d="M4.18,26.2a.32.32,0,0,1-.08.23h0a.32.32,0,0,1-.24-.05.94.94,0,0,1-.42-.73.36.36,0,0,1,.08-.24h0a.39.39,0,0,1,.24.06A.93.93,0,0,1,4.18,26.2Z"/><path class="cls-5" d="M4,27c0,.07-.11.08-.19,0a.44.44,0,0,1-.21-.36c0-.1.05-.16.12-.15a.2.2,0,0,0,0,.09.49.49,0,0,0,.21.36A.19.19,0,0,0,4,27Z"/><path class="cls-7" d="M4,26.94A.2.2,0,0,1,4,27a.19.19,0,0,1-.09,0,.49.49,0,0,1-.21-.36.2.2,0,0,1,0-.09.16.16,0,0,1,.09,0A.47.47,0,0,1,4,26.94Z"/><path class="cls-5" d="M3.55,25a.46.46,0,0,0,.21.36.13.13,0,0,0,.19,0,.16.16,0,0,1-.09,0A.44.44,0,0,1,3.68,25l-.13-.09Z"/><path class="cls-7" d="M3.86,25.27a.16.16,0,0,0,.09,0H4A2.29,2.29,0,0,0,3.68,25,.44.44,0,0,0,3.86,25.27Z"/><path class="cls-5" d="M3.2,25.73c0,.07-.11.08-.19,0a.44.44,0,0,1-.21-.36c0-.1.05-.16.12-.15a.2.2,0,0,0,0,.09.47.47,0,0,0,.21.36A.16.16,0,0,0,3.2,25.73Z"/><path class="cls-7" d="M3.22,25.64a.2.2,0,0,1,0,.09.16.16,0,0,1-.09,0,.47.47,0,0,1-.21-.36.2.2,0,0,1,0-.09.16.16,0,0,1,.09,0A.47.47,0,0,1,3.22,25.64Z"/><path class="cls-5" d="M4.4,26.2a.29.29,0,0,1,0-.09c-.07,0-.12.06-.12.16a.46.46,0,0,0,.21.36h0c0-.05,0-.1,0-.16A.44.44,0,0,1,4.4,26.2Z"/><path class="cls-7" d="M4.4,26.2a.44.44,0,0,0,.12.28,1.61,1.61,0,0,0-.1-.36h0A.29.29,0,0,0,4.4,26.2Z"/><path class="cls-5" d="M3.08,25.12c.08.14.21.22.3.17a.08.08,0,0,0,0,0,.38.38,0,0,1-.24-.19.35.35,0,0,1,0-.29h0l0,0C3,24.82,3,25,3.08,25.12Z"/><path class="cls-7" d="M3.18,25.06a.38.38,0,0,0,.24.19.37.37,0,0,0,0-.3.46.46,0,0,0-.17-.17H3.14A.35.35,0,0,0,3.18,25.06Z"/><path class="cls-5" d="M4.48,27.08a.1.1,0,0,1,0,.05c-.09.05-.22,0-.3-.17s-.08-.3,0-.35H4.2a.35.35,0,0,0,0,.3A.3.3,0,0,0,4.48,27.08Z"/><path class="cls-7" d="M4.48,27.08a.3.3,0,0,1-.23-.18.35.35,0,0,1,0-.3.38.38,0,0,1,.24.19A.35.35,0,0,1,4.48,27.08Z"/><path class="cls-5" d="M4.34,25.91a2.76,2.76,0,0,0-.25-.44.32.32,0,0,0,0,.26A.34.34,0,0,0,4.34,25.91Z"/><path class="cls-5" d="M3.42,26.47a.1.1,0,0,1,0,.05c-.09.05-.22,0-.3-.17s-.08-.3,0-.35h.06a.35.35,0,0,0,0,.29C3.25,26.39,3.34,26.47,3.42,26.47Z"/><path class="cls-7" d="M3.42,26.47c-.08,0-.17-.08-.24-.19a.35.35,0,0,1,0-.29.33.33,0,0,1,.24.18A.37.37,0,0,1,3.42,26.47Z"/><path class="cls-8" d="M4.2,26.2a1,1,0,0,0-.44-.75.33.33,0,0,0-.3,0l-.1.06L4,26.53l.1-.05A.32.32,0,0,0,4.2,26.2Z"/><path class="cls-9" d="M4.11,26.26a.27.27,0,0,1-.43.25,1,1,0,0,1-.44-.75c0-.28.2-.39.44-.25A1,1,0,0,1,4.11,26.26Z"/><path class="cls-8" d="M4,26.2a.69.69,0,0,0-.31-.54.25.25,0,0,0-.23,0l-.07,0,.46.78.07-.05A.22.22,0,0,0,4,26.2Z"/><path class="cls-10" d="M3.9,26.24c0,.2-.15.29-.32.18a.7.7,0,0,1-.32-.54c0-.2.15-.29.32-.19A.74.74,0,0,1,3.9,26.24Z"/><path class="cls-9" d="M31.16,38.62a2.58,2.58,0,0,0,1.15,2c.64.37,1.16.07,1.16-.67a2.57,2.57,0,0,0-1.16-2C31.68,37.58,31.16,37.88,31.16,38.62Z"/><path class="cls-6" d="M31.27,38.68a2.33,2.33,0,0,0,1,1.82c.58.34,1,.06,1-.6a2.32,2.32,0,0,0-1-1.82C31.74,37.74,31.27,38,31.27,38.68Z"/><path class="cls-7" d="M31.9,39.05a.92.92,0,0,0,.41.72c.24.14.42,0,.42-.24a.92.92,0,0,0-.42-.73C32.08,38.67,31.9,38.78,31.9,39.05Z"/><path class="cls-7" d="M32.11,40a.46.46,0,0,0,.2.36c.12.07.21,0,.21-.12a.46.46,0,0,0-.21-.36C32.2,39.84,32.11,39.9,32.11,40Z"/><path class="cls-7" d="M32.11,38.31a.47.47,0,0,0,.2.36c.12.07.21,0,.21-.12a.46.46,0,0,0-.21-.37C32.2,38.12,32.11,38.17,32.11,38.31Z"/><path class="cls-7" d="M33.06,40c.12.07.21,0,.21-.12a.46.46,0,0,0-.21-.36c-.11-.07-.21,0-.21.12A.47.47,0,0,0,33.06,40Z"/><path class="cls-7" d="M31.57,39.1c.11.07.21,0,.21-.12a.47.47,0,0,0-.21-.36c-.12-.07-.21,0-.21.12A.46.46,0,0,0,31.57,39.1Z"/><path class="cls-7" d="M33,39.24c.08-.05.08-.2,0-.34s-.21-.22-.29-.17-.09.2,0,.34S32.91,39.29,33,39.24Z"/><path class="cls-7" d="M31.94,39.85c.08-.05.08-.2,0-.34s-.22-.22-.3-.17-.08.2,0,.34S31.85,39.9,31.94,39.85Z"/><path class="cls-7" d="M31.94,38.29c-.09-.14-.22-.22-.3-.17s-.08.2,0,.34.21.22.3.17S32,38.43,31.94,38.29Z"/><path class="cls-7" d="M33,40.12c-.08-.14-.21-.22-.29-.17s-.09.2,0,.34.21.22.29.17S33.07,40.26,33,40.12Z"/><path class="cls-9" d="M7.65,25.05c0,.74-.52,1-1.16.67a2.57,2.57,0,0,1-1.16-2c0-.74.52-1,1.16-.67A2.57,2.57,0,0,1,7.65,25.05Z"/><path class="cls-6" d="M7.54,25c0,.67-.47.94-1,.6a2.31,2.31,0,0,1-1-1.81c0-.67.47-.94,1-.61A2.32,2.32,0,0,1,7.54,25Z"/><path class="cls-7" d="M6.91,24.62c0,.27-.18.38-.42.25a.94.94,0,0,1-.42-.73c0-.27.19-.38.42-.24A.9.9,0,0,1,6.91,24.62Z"/><path class="cls-7" d="M6.7,25.36c0,.14-.09.19-.21.13a.49.49,0,0,1-.21-.37c0-.13.1-.19.21-.12A.46.46,0,0,1,6.7,25.36Z"/><path class="cls-7" d="M6.7,23.64c0,.13-.09.19-.21.12a.49.49,0,0,1-.21-.36c0-.14.1-.19.21-.12A.44.44,0,0,1,6.7,23.64Z"/><path class="cls-7" d="M5.75,24.19a.44.44,0,0,1-.21-.36c0-.13.09-.19.21-.12a.49.49,0,0,1,.21.36C6,24.2,5.86,24.26,5.75,24.19Z"/><path class="cls-7" d="M7.24,25.05A.43.43,0,0,1,7,24.69c0-.13.09-.19.21-.12a.46.46,0,0,1,.21.36C7.45,25.07,7.36,25.12,7.24,25.05Z"/><path class="cls-7" d="M5.82,23.55c-.08-.14-.08-.29,0-.34s.21,0,.29.17.09.3,0,.34S5.9,23.69,5.82,23.55Z"/><path class="cls-7" d="M6.87,25.38c-.08-.14-.08-.29,0-.34s.22,0,.3.17.08.3,0,.34S7,25.52,6.87,25.38Z"/><path class="cls-7" d="M6.87,23.82c.09-.05.22,0,.3.17s.08.3,0,.34-.21,0-.3-.17S6.79,23.87,6.87,23.82Z"/><path class="cls-7" d="M5.82,24.43c.08-.05.21,0,.29.17s.09.3,0,.34-.21,0-.29-.17S5.74,24.48,5.82,24.43Z"/><path class="cls-3" d="M11.38,29a4.11,4.11,0,0,0-1.86-3.22,1.29,1.29,0,0,0-1.32-.13l-1.33.76L9.54,31l1.33-.77A1.32,1.32,0,0,0,11.38,29Z"/><path class="cls-4" d="M10.08,29.75c0,1.19-.84,1.67-1.87,1.08A4.12,4.12,0,0,1,6.35,27.6c0-1.19.83-1.67,1.86-1.08A4.13,4.13,0,0,1,10.08,29.75Z"/><path class="cls-2" d="M9.9,29.65c0,1.07-.76,1.51-1.69,1A3.73,3.73,0,0,1,6.52,27.7c0-1.08.76-1.51,1.69-1A3.75,3.75,0,0,1,9.9,29.65Z"/><path class="cls-3" d="M9.69,30a4.12,4.12,0,0,0-1.86-3.23,1.32,1.32,0,0,0-1.32-.13l-1.33.77,2.67,4.54,1.32-.76A1.33,1.33,0,0,0,9.69,30Z"/><path class="cls-4" d="M8.38,30.73c0,1.18-.83,1.67-1.86,1.07a4.11,4.11,0,0,1-1.86-3.23c0-1.19.83-1.67,1.86-1.07A4.11,4.11,0,0,1,8.38,30.73Z"/><path class="cls-5" d="M7.91,31.55a1.06,1.06,0,0,1-1.39.05,3.75,3.75,0,0,1-1.69-2.92c0-.67.29-1.09.74-1.19a1.35,1.35,0,0,0-.3.93A3.75,3.75,0,0,0,7,31.34,1.37,1.37,0,0,0,7.91,31.55Z"/><path class="cls-6" d="M8.21,30.62a1.4,1.4,0,0,1-.29.93h0a1.37,1.37,0,0,1-1-.21,3.75,3.75,0,0,1-1.69-2.92,1.35,1.35,0,0,1,.3-.93h0a1.36,1.36,0,0,1,.95.21A3.75,3.75,0,0,1,8.21,30.62Z"/><path class="cls-5" d="M7.51,30.16c-.12.13-.32.14-.55,0A1.49,1.49,0,0,1,6.29,29c0-.26.11-.43.29-.47a.51.51,0,0,0-.12.37,1.47,1.47,0,0,0,.67,1.17A.59.59,0,0,0,7.51,30.16Z"/><path class="cls-7" d="M7.64,29.78a.53.53,0,0,1-.13.38h0a.59.59,0,0,1-.38-.09,1.47,1.47,0,0,1-.67-1.17.51.51,0,0,1,.12-.37h0a.56.56,0,0,1,.38.08A1.51,1.51,0,0,1,7.64,29.78Z"/><path class="cls-5" d="M7.27,31.11c0,.11-.17.14-.31.06a.77.77,0,0,1-.34-.59c0-.15.09-.24.2-.23a.26.26,0,0,0,0,.14.77.77,0,0,0,.34.58A.27.27,0,0,0,7.27,31.11Z"/><path class="cls-7" d="M7.3,31a.26.26,0,0,1,0,.14.27.27,0,0,1-.14,0,.77.77,0,0,1-.34-.58.26.26,0,0,1,0-.14.25.25,0,0,1,.14,0A.74.74,0,0,1,7.3,31Z"/><path class="cls-5" d="M6.62,27.81A.77.77,0,0,0,7,28.4c.14.08.26.05.31-.06a.27.27,0,0,1-.14,0,.74.74,0,0,1-.29-.38c-.07-.06-.14-.1-.21-.15S6.62,27.8,6.62,27.81Z"/><path class="cls-7" d="M7.13,28.3a.27.27,0,0,0,.14,0h0a3.39,3.39,0,0,0-.43-.42A.74.74,0,0,0,7.13,28.3Z"/><path class="cls-5" d="M6.07,29c-.05.11-.17.14-.31.06a.75.75,0,0,1-.34-.59c0-.16.08-.24.2-.24a.32.32,0,0,0,0,.14.75.75,0,0,0,.34.59A.27.27,0,0,0,6.07,29Z"/><path class="cls-7" d="M6.1,28.89a.26.26,0,0,1,0,.14.27.27,0,0,1-.14,0,.75.75,0,0,1-.34-.59.32.32,0,0,1,0-.14.48.48,0,0,1,.14,0A.74.74,0,0,1,6.1,28.89Z"/><path class="cls-5" d="M8,29.79a.59.59,0,0,1,0-.14c-.11,0-.19.08-.19.24a.76.76,0,0,0,.33.59h0a2.29,2.29,0,0,0,0-.25A.73.73,0,0,1,8,29.79Z"/><path class="cls-7" d="M8,29.79a.73.73,0,0,0,.18.45A3.41,3.41,0,0,0,8,29.65H8A.59.59,0,0,0,8,29.79Z"/><path class="cls-5" d="M5.87,28.06c.14.23.35.35.48.27a.12.12,0,0,0,.07-.07A.57.57,0,0,1,6,28,.56.56,0,0,1,6,27.49H6a.13.13,0,0,0-.08,0C5.74,27.58,5.74,27.83,5.87,28.06Z"/><path class="cls-7" d="M6,28a.57.57,0,0,0,.38.3.55.55,0,0,0-.07-.48.64.64,0,0,0-.27-.27l-.11,0A.56.56,0,0,0,6,28Z"/><path class="cls-5" d="M8.12,31.2a.27.27,0,0,1-.07.08c-.13.07-.35-.05-.48-.28s-.13-.47,0-.55a.18.18,0,0,1,.1,0,.56.56,0,0,0,.07.47A.54.54,0,0,0,8.12,31.2Z"/><path class="cls-7" d="M8.12,31.2a.54.54,0,0,1-.38-.3.56.56,0,0,1-.07-.47.54.54,0,0,1,.38.3A.52.52,0,0,1,8.12,31.2Z"/><path class="cls-5" d="M7.9,29.33a4.3,4.3,0,0,0-.41-.72.59.59,0,0,0,.08.43A.63.63,0,0,0,7.9,29.33Z"/><path class="cls-5" d="M6.42,30.22a.18.18,0,0,1-.07.08c-.13.07-.34-.05-.48-.28s-.13-.47,0-.55a.14.14,0,0,1,.11,0,.52.52,0,0,0,.06.47A.57.57,0,0,0,6.42,30.22Z"/><path class="cls-7" d="M6.42,30.22a.57.57,0,0,1-.38-.3A.52.52,0,0,1,6,29.45a.64.64,0,0,1,.44.77Z"/><path class="cls-8" d="M7.66,29.79A1.54,1.54,0,0,0,7,28.59a.5.5,0,0,0-.49-.05l-.15.09,1,1.69.14-.08A.51.51,0,0,0,7.66,29.79Z"/><path class="cls-9" d="M7.52,29.88c0,.44-.31.62-.69.4a1.56,1.56,0,0,1-.69-1.21c0-.44.31-.62.69-.4A1.56,1.56,0,0,1,7.52,29.88Z"/><path class="cls-8" d="M7.29,29.79a1.1,1.1,0,0,0-.5-.87.37.37,0,0,0-.36,0L6.31,29,7,30.18l.11-.07A.34.34,0,0,0,7.29,29.79Z"/><path class="cls-10" d="M7.18,29.85c0,.33-.22.46-.5.3a1.15,1.15,0,0,1-.51-.88c0-.32.23-.45.51-.29A1.1,1.1,0,0,1,7.18,29.85Z"/><path class="cls-3" d="M15.33,31.28a4.11,4.11,0,0,0-1.86-3.23,1.29,1.29,0,0,0-1.32-.13l-1.33.76,2.67,4.55,1.33-.77A1.32,1.32,0,0,0,15.33,31.28Z"/><path class="cls-4" d="M14,32c0,1.19-.84,1.67-1.87,1.08a4.12,4.12,0,0,1-1.86-3.23c0-1.19.83-1.67,1.86-1.08A4.13,4.13,0,0,1,14,32Z"/><path class="cls-2" d="M13.85,31.93c0,1.07-.76,1.51-1.69,1A3.72,3.72,0,0,1,10.48,30c0-1.08.75-1.51,1.68-1A3.71,3.71,0,0,1,13.85,31.93Z"/><path class="cls-3" d="M13.64,32.25A4.12,4.12,0,0,0,11.78,29a1.34,1.34,0,0,0-1.32-.13l-1.33.77,2.67,4.55,1.33-.77A1.32,1.32,0,0,0,13.64,32.25Z"/><path class="cls-4" d="M12.34,33c0,1.19-.84,1.67-1.87,1.07a4.11,4.11,0,0,1-1.86-3.23c0-1.18.83-1.67,1.86-1.07A4.12,4.12,0,0,1,12.34,33Z"/><path class="cls-5" d="M11.87,33.83a1.08,1.08,0,0,1-1.4.05A3.75,3.75,0,0,1,8.78,31c0-.67.29-1.09.74-1.19a1.35,1.35,0,0,0-.29.93,3.72,3.72,0,0,0,1.68,2.92A1.34,1.34,0,0,0,11.87,33.83Z"/><path class="cls-6" d="M12.16,32.91a1.37,1.37,0,0,1-.29.92h0a1.34,1.34,0,0,1-1-.21A3.72,3.72,0,0,1,9.23,30.7a1.35,1.35,0,0,1,.29-.93h0a1.36,1.36,0,0,1,1,.21A3.75,3.75,0,0,1,12.16,32.91Z"/><path class="cls-5" d="M11.46,32.44c-.12.13-.32.14-.55,0a1.49,1.49,0,0,1-.67-1.17c0-.26.11-.43.29-.47a.52.52,0,0,0-.12.38,1.47,1.47,0,0,0,.67,1.16A.53.53,0,0,0,11.46,32.44Z"/><path class="cls-7" d="M11.59,32.06a.53.53,0,0,1-.13.38h0a.53.53,0,0,1-.38-.09,1.47,1.47,0,0,1-.67-1.16.52.52,0,0,1,.12-.38h0a.56.56,0,0,1,.38.08A1.49,1.49,0,0,1,11.59,32.06Z"/><path class="cls-5" d="M11.22,33.4c-.05.1-.17.13-.31.05a.76.76,0,0,1-.33-.58c0-.16.08-.25.19-.24a.46.46,0,0,0,0,.14.76.76,0,0,0,.33.58A.48.48,0,0,0,11.22,33.4Z"/><path class="cls-7" d="M11.25,33.25a.33.33,0,0,1,0,.15.48.48,0,0,1-.14,0,.76.76,0,0,1-.33-.58.46.46,0,0,1,0-.14.25.25,0,0,1,.14,0A.74.74,0,0,1,11.25,33.25Z"/><path class="cls-5" d="M10.58,30.09a.76.76,0,0,0,.33.59c.14.08.26.05.31-.06a.27.27,0,0,1-.14,0,.74.74,0,0,1-.29-.38l-.21-.15Z"/><path class="cls-7" d="M11.08,30.58a.27.27,0,0,0,.14,0h0a2.83,2.83,0,0,0-.43-.42A.74.74,0,0,0,11.08,30.58Z"/><path class="cls-5" d="M10,31.32c0,.1-.17.13-.31.05a.74.74,0,0,1-.34-.58c0-.16.09-.25.2-.25a.57.57,0,0,0,0,.15.77.77,0,0,0,.34.58A.48.48,0,0,0,10,31.32Z"/><path class="cls-7" d="M10.05,31.17a.33.33,0,0,1,0,.15.48.48,0,0,1-.14-.05.77.77,0,0,1-.34-.58.57.57,0,0,1,0-.15.39.39,0,0,1,.14.05A.74.74,0,0,1,10.05,31.17Z"/><path class="cls-5" d="M12,32.07a.32.32,0,0,1,0-.14c-.12,0-.2.08-.2.24a.76.76,0,0,0,.33.59.05.05,0,0,1,0,0,2.28,2.28,0,0,0,0-.26A.73.73,0,0,1,12,32.07Z"/><path class="cls-7" d="M12,32.07a.73.73,0,0,0,.18.45,3.41,3.41,0,0,0-.15-.59h0A.32.32,0,0,0,12,32.07Z"/><path class="cls-5" d="M9.83,30.34c.13.23.34.35.47.27a.12.12,0,0,0,.07-.07.54.54,0,0,1-.37-.3.53.53,0,0,1-.08-.47h0a.11.11,0,0,0-.08,0C9.69,29.86,9.69,30.11,9.83,30.34Z"/><path class="cls-7" d="M10,30.24a.54.54,0,0,0,.37.3.55.55,0,0,0-.07-.48A.61.61,0,0,0,10,29.8l-.11,0A.53.53,0,0,0,10,30.24Z"/><path class="cls-5" d="M12.07,33.48a.27.27,0,0,1-.07.08c-.13.07-.34-.05-.48-.28s-.13-.47,0-.55a.18.18,0,0,1,.1,0,.56.56,0,0,0,.07.47A.57.57,0,0,0,12.07,33.48Z"/><path class="cls-7" d="M12.07,33.48a.57.57,0,0,1-.38-.3.56.56,0,0,1-.07-.47A.54.54,0,0,1,12,33,.52.52,0,0,1,12.07,33.48Z"/><path class="cls-5" d="M11.85,31.61a4.3,4.3,0,0,0-.41-.72.58.58,0,0,0,.08.43A.63.63,0,0,0,11.85,31.61Z"/><path class="cls-5" d="M10.37,32.5a.18.18,0,0,1-.07.08c-.13.07-.34,0-.47-.28s-.14-.47,0-.55a.15.15,0,0,1,.1,0,.49.49,0,0,0,.07.47A.54.54,0,0,0,10.37,32.5Z"/><path class="cls-7" d="M10.37,32.5a.54.54,0,0,1-.37-.3.49.49,0,0,1-.07-.47.54.54,0,0,1,.37.3A.52.52,0,0,1,10.37,32.5Z"/><path class="cls-8" d="M11.62,32.08a1.55,1.55,0,0,0-.7-1.21.47.47,0,0,0-.49,0l-.15.08,1,1.69.14-.08A.5.5,0,0,0,11.62,32.08Z"/><path class="cls-9" d="M11.47,32.16c0,.44-.31.62-.69.4a1.54,1.54,0,0,1-.69-1.2c0-.45.31-.63.69-.4A1.52,1.52,0,0,1,11.47,32.16Z"/><path class="cls-8" d="M11.24,32.07a1.1,1.1,0,0,0-.5-.87.37.37,0,0,0-.36,0l-.11.07L11,32.46l.11-.06A.37.37,0,0,0,11.24,32.07Z"/><path class="cls-10" d="M11.14,32.14c0,.32-.23.45-.51.29a1.13,1.13,0,0,1-.51-.88c0-.32.23-.45.51-.29A1.11,1.11,0,0,1,11.14,32.14Z"/><path class="cls-3" d="M19.29,33.56a4.12,4.12,0,0,0-1.87-3.23,1.29,1.29,0,0,0-1.32-.13L14.77,31l2.67,4.54,1.33-.77A1.32,1.32,0,0,0,19.29,33.56Z"/><path class="cls-4" d="M18,34.31c0,1.19-.84,1.67-1.87,1.08a4.12,4.12,0,0,1-1.86-3.23c0-1.19.83-1.67,1.86-1.08A4.13,4.13,0,0,1,18,34.31Z"/><path class="cls-2" d="M17.8,34.21c0,1.08-.75,1.51-1.69,1a3.7,3.7,0,0,1-1.68-2.92c0-1.08.75-1.51,1.68-1A3.69,3.69,0,0,1,17.8,34.21Z"/><path class="cls-3" d="M17.59,34.53a4.12,4.12,0,0,0-1.86-3.23,1.31,1.31,0,0,0-1.32-.12l-1.33.76,2.67,4.55,1.33-.77A1.32,1.32,0,0,0,17.59,34.53Z"/><path class="cls-4" d="M16.29,35.29c0,1.19-.84,1.67-1.87,1.07a4.11,4.11,0,0,1-1.86-3.22c0-1.19.83-1.67,1.86-1.08A4.12,4.12,0,0,1,16.29,35.29Z"/><path class="cls-5" d="M15.82,36.11a1.08,1.08,0,0,1-1.4,0,3.75,3.75,0,0,1-1.69-2.92c0-.67.3-1.09.74-1.19a1.35,1.35,0,0,0-.29.93,3.72,3.72,0,0,0,1.68,2.92A1.35,1.35,0,0,0,15.82,36.11Z"/><path class="cls-6" d="M16.11,35.19a1.37,1.37,0,0,1-.29.92h0a1.35,1.35,0,0,1-1-.21A3.72,3.72,0,0,1,13.18,33a1.35,1.35,0,0,1,.29-.93h0a1.42,1.42,0,0,1,.95.21A3.75,3.75,0,0,1,16.11,35.19Z"/><path class="cls-5" d="M15.41,34.72a.42.42,0,0,1-.55,0,1.49,1.49,0,0,1-.67-1.17c0-.26.11-.43.29-.47a.52.52,0,0,0-.12.38A1.5,1.5,0,0,0,15,34.64.58.58,0,0,0,15.41,34.72Z"/><path class="cls-7" d="M15.54,34.34a.57.57,0,0,1-.12.38h0a.58.58,0,0,1-.38-.08,1.5,1.5,0,0,1-.67-1.17.52.52,0,0,1,.12-.38h0a.52.52,0,0,1,.38.09A1.45,1.45,0,0,1,15.54,34.34Z"/><path class="cls-5" d="M15.17,35.68c-.05.1-.17.13-.31,0a.76.76,0,0,1-.33-.58c0-.16.08-.25.2-.24a.26.26,0,0,0,0,.14.76.76,0,0,0,.33.58A.3.3,0,0,0,15.17,35.68Z"/><path class="cls-7" d="M15.2,35.54a.32.32,0,0,1,0,.14.3.3,0,0,1-.14,0,.76.76,0,0,1-.33-.58.26.26,0,0,1,0-.14.24.24,0,0,1,.13,0A.75.75,0,0,1,15.2,35.54Z"/><path class="cls-5" d="M14.53,32.37a.76.76,0,0,0,.33.59c.14.08.26,0,.31-.06a.27.27,0,0,1-.14,0,.75.75,0,0,1-.29-.38l-.21-.15Z"/><path class="cls-7" d="M15,32.86a.27.27,0,0,0,.14,0h0a3.41,3.41,0,0,0-.43-.42A.75.75,0,0,0,15,32.86Z"/><path class="cls-5" d="M14,33.6c-.05.1-.17.13-.31,0a.77.77,0,0,1-.34-.58c0-.16.09-.25.2-.24a.42.42,0,0,0,0,.14.77.77,0,0,0,.34.58A.48.48,0,0,0,14,33.6Z"/><path class="cls-7" d="M14,33.46a.32.32,0,0,1,0,.14.48.48,0,0,1-.14-.05.77.77,0,0,1-.34-.58.42.42,0,0,1,0-.14.25.25,0,0,1,.14,0A.75.75,0,0,1,14,33.46Z"/><path class="cls-5" d="M15.9,34.35a.32.32,0,0,1,0-.14c-.12,0-.2.08-.2.24a.76.76,0,0,0,.33.59l0,0a2.28,2.28,0,0,0,0-.26A.71.71,0,0,1,15.9,34.35Z"/><path class="cls-7" d="M15.9,34.35a.71.71,0,0,0,.18.45,3.41,3.41,0,0,0-.15-.59h0A.32.32,0,0,0,15.9,34.35Z"/><path class="cls-5" d="M13.78,32.62c.13.23.34.35.47.28a.18.18,0,0,0,.07-.08.54.54,0,0,1-.37-.3.52.52,0,0,1-.07-.47h0l-.08,0C13.64,32.15,13.64,32.39,13.78,32.62Z"/><path class="cls-7" d="M14,32.52a.54.54,0,0,0,.37.3.52.52,0,0,0-.07-.47.58.58,0,0,0-.27-.27l-.1,0A.52.52,0,0,0,14,32.52Z"/><path class="cls-5" d="M16,35.76a.14.14,0,0,1-.07.08c-.13.08-.34-.05-.48-.28s-.13-.47,0-.55l.11,0a.49.49,0,0,0,.07.47A.54.54,0,0,0,16,35.76Z"/><path class="cls-7" d="M16,35.76a.54.54,0,0,1-.37-.3.49.49,0,0,1-.07-.47.54.54,0,0,1,.37.3A.52.52,0,0,1,16,35.76Z"/><path class="cls-5" d="M15.8,33.89a4.3,4.3,0,0,0-.41-.72.64.64,0,0,0,.08.43A.59.59,0,0,0,15.8,33.89Z"/><path class="cls-5" d="M14.32,34.78a.14.14,0,0,1-.07.08c-.13.07-.34,0-.47-.28s-.14-.47,0-.55a.16.16,0,0,1,.1,0,.49.49,0,0,0,.07.47A.51.51,0,0,0,14.32,34.78Z"/><path class="cls-7" d="M14.32,34.78a.51.51,0,0,1-.37-.3.49.49,0,0,1-.07-.47.54.54,0,0,1,.37.3A.52.52,0,0,1,14.32,34.78Z"/><path class="cls-8" d="M15.57,34.36a1.54,1.54,0,0,0-.7-1.21.47.47,0,0,0-.49,0l-.15.08,1,1.69.14-.08A.5.5,0,0,0,15.57,34.36Z"/><path class="cls-9" d="M15.43,34.44c0,.44-.32.62-.7.4a1.54,1.54,0,0,1-.69-1.2c0-.45.31-.63.69-.4A1.55,1.55,0,0,1,15.43,34.44Z"/><path class="cls-8" d="M15.19,34.35a1.1,1.1,0,0,0-.5-.87.37.37,0,0,0-.36,0l-.11.07.72,1.23.11-.06A.37.37,0,0,0,15.19,34.35Z"/><path class="cls-10" d="M15.09,34.42c0,.32-.23.45-.51.29a1.13,1.13,0,0,1-.51-.88c0-.32.23-.45.51-.29A1.11,1.11,0,0,1,15.09,34.42Z"/><path class="cls-3" d="M23.24,35.84a4.12,4.12,0,0,0-1.87-3.23,1.29,1.29,0,0,0-1.32-.13l-1.33.77,2.68,4.54L22.72,37A1.32,1.32,0,0,0,23.24,35.84Z"/><path class="cls-4" d="M21.93,36.59c0,1.19-.84,1.67-1.87,1.08a4.15,4.15,0,0,1-1.86-3.23c0-1.19.84-1.67,1.86-1.08A4.13,4.13,0,0,1,21.93,36.59Z"/><path class="cls-2" d="M21.75,36.49c0,1.08-.75,1.51-1.69,1a3.7,3.7,0,0,1-1.68-2.92c0-1.07.75-1.51,1.68-1A3.72,3.72,0,0,1,21.75,36.49Z"/><path class="cls-3" d="M21.55,36.81a4.12,4.12,0,0,0-1.87-3.22,1.29,1.29,0,0,0-1.32-.13L17,34.22l2.67,4.55L21,38A1.33,1.33,0,0,0,21.55,36.81Z"/><path class="cls-4" d="M20.24,37.57c0,1.19-.84,1.67-1.87,1.08a4.12,4.12,0,0,1-1.86-3.23c0-1.19.83-1.67,1.86-1.08A4.13,4.13,0,0,1,20.24,37.57Z"/><path class="cls-5" d="M19.77,38.39a1.06,1.06,0,0,1-1.4,0,3.73,3.73,0,0,1-1.68-2.92c0-.67.29-1.09.73-1.19a1.36,1.36,0,0,0-.29.93,3.7,3.7,0,0,0,1.68,2.92A1.35,1.35,0,0,0,19.77,38.39Z"/><path class="cls-6" d="M20.06,37.47a1.37,1.37,0,0,1-.29.92h0a1.35,1.35,0,0,1-1-.21,3.7,3.7,0,0,1-1.68-2.92,1.36,1.36,0,0,1,.29-.93h0a1.42,1.42,0,0,1,.95.21A3.72,3.72,0,0,1,20.06,37.47Z"/><path class="cls-5" d="M19.37,37a.43.43,0,0,1-.55,0,1.49,1.49,0,0,1-.68-1.17c0-.27.12-.44.29-.48a.52.52,0,0,0-.12.38A1.49,1.49,0,0,0,19,36.92.56.56,0,0,0,19.37,37Z"/><path class="cls-7" d="M19.49,36.63a.56.56,0,0,1-.12.37h0a.56.56,0,0,1-.38-.08,1.49,1.49,0,0,1-.68-1.17.52.52,0,0,1,.12-.38h0a.56.56,0,0,1,.39.09A1.49,1.49,0,0,1,19.49,36.63Z"/><path class="cls-5" d="M19.12,38c-.05.1-.17.13-.3,0a.74.74,0,0,1-.34-.58c0-.16.08-.25.2-.24a.26.26,0,0,0,0,.14.73.73,0,0,0,.34.58A.27.27,0,0,0,19.12,38Z"/><path class="cls-7" d="M19.15,37.82a.32.32,0,0,1,0,.14.27.27,0,0,1-.13-.05.73.73,0,0,1-.34-.58.26.26,0,0,1,0-.14.3.3,0,0,1,.14,0A.76.76,0,0,1,19.15,37.82Z"/><path class="cls-5" d="M18.48,34.65a.75.75,0,0,0,.34.59c.13.08.25,0,.3-.06a.22.22,0,0,1-.13,0,.73.73,0,0,1-.3-.38l-.21-.15Z"/><path class="cls-7" d="M19,35.14a.22.22,0,0,0,.13,0h0a3.41,3.41,0,0,0-.43-.42A.73.73,0,0,0,19,35.14Z"/><path class="cls-5" d="M17.92,35.88c-.05.1-.17.13-.31,0a.76.76,0,0,1-.33-.58c0-.16.08-.25.2-.24a.26.26,0,0,0,0,.14.74.74,0,0,0,.33.58A.3.3,0,0,0,17.92,35.88Z"/><path class="cls-7" d="M18,35.74a.32.32,0,0,1,0,.14.3.3,0,0,1-.14-.05.74.74,0,0,1-.33-.58.26.26,0,0,1,0-.14.24.24,0,0,1,.13,0A.75.75,0,0,1,18,35.74Z"/><path class="cls-5" d="M19.85,36.64a.33.33,0,0,1,0-.15c-.12,0-.2.09-.2.24a.75.75,0,0,0,.34.59l0,0,0-.26A.69.69,0,0,1,19.85,36.64Z"/><path class="cls-7" d="M19.85,36.64a.69.69,0,0,0,.18.44,3.1,3.1,0,0,0-.15-.58h0A.33.33,0,0,0,19.85,36.64Z"/><path class="cls-5" d="M17.73,34.9c.13.23.34.35.47.28a.18.18,0,0,0,.07-.08.54.54,0,0,1-.37-.3.52.52,0,0,1-.07-.47h0l-.08,0C17.6,34.43,17.6,34.67,17.73,34.9Z"/><path class="cls-7" d="M17.9,34.8a.54.54,0,0,0,.37.3.49.49,0,0,0-.07-.47.58.58,0,0,0-.27-.27l-.1,0A.52.52,0,0,0,17.9,34.8Z"/><path class="cls-5" d="M20,38a.14.14,0,0,1-.07.08c-.13.08-.34,0-.47-.28s-.14-.47,0-.55l.1,0a.52.52,0,0,0,.07.48A.52.52,0,0,0,20,38Z"/><path class="cls-7" d="M20,38a.52.52,0,0,1-.37-.29.52.52,0,0,1-.07-.48.54.54,0,0,1,.37.3A.52.52,0,0,1,20,38Z"/><path class="cls-5" d="M19.75,36.17a3.85,3.85,0,0,0-.41-.71.58.58,0,0,0,.09.42A.55.55,0,0,0,19.75,36.17Z"/><path class="cls-5" d="M18.27,37.06a.14.14,0,0,1-.07.08c-.13.08-.34,0-.47-.28s-.13-.47,0-.55l.1,0a.55.55,0,0,0,.07.48A.52.52,0,0,0,18.27,37.06Z"/><path class="cls-7" d="M18.27,37.06a.52.52,0,0,1-.37-.29.55.55,0,0,1-.07-.48.54.54,0,0,1,.37.3A.49.49,0,0,1,18.27,37.06Z"/><path class="cls-8" d="M19.52,36.64a1.52,1.52,0,0,0-.7-1.2.47.47,0,0,0-.49,0l-.15.08,1,1.69.14-.08A.5.5,0,0,0,19.52,36.64Z"/><path class="cls-9" d="M19.38,36.72c0,.44-.31.62-.7.4a1.54,1.54,0,0,1-.69-1.2c0-.44.31-.62.69-.4A1.52,1.52,0,0,1,19.38,36.72Z"/><path class="cls-8" d="M19.14,36.64a1.1,1.1,0,0,0-.5-.88.37.37,0,0,0-.36,0l-.11.07L18.89,37,19,37A.36.36,0,0,0,19.14,36.64Z"/><path class="cls-10" d="M19,36.7c0,.32-.23.45-.51.29a1.1,1.1,0,0,1-.5-.88c0-.32.22-.45.5-.29A1.13,1.13,0,0,1,19,36.7Z"/><path class="cls-3" d="M27.19,38.12a4.12,4.12,0,0,0-1.87-3.23A1.29,1.29,0,0,0,24,34.76l-1.32.77,2.67,4.54,1.32-.76A1.34,1.34,0,0,0,27.19,38.12Z"/><path class="cls-4" d="M25.88,38.87c0,1.19-.83,1.67-1.86,1.08a4.12,4.12,0,0,1-1.87-3.23c0-1.19.84-1.67,1.87-1.07A4.09,4.09,0,0,1,25.88,38.87Z"/><path class="cls-2" d="M25.7,38.77c0,1.08-.75,1.51-1.68,1a3.72,3.72,0,0,1-1.69-2.93c0-1.07.75-1.51,1.69-1A3.73,3.73,0,0,1,25.7,38.77Z"/><path class="cls-3" d="M25.5,39.1a4.12,4.12,0,0,0-1.87-3.23,1.29,1.29,0,0,0-1.32-.13L21,36.5l2.68,4.55L25,40.28A1.32,1.32,0,0,0,25.5,39.1Z"/><path class="cls-4" d="M24.19,39.85c0,1.19-.84,1.67-1.87,1.08a4.12,4.12,0,0,1-1.86-3.23c0-1.19.83-1.67,1.86-1.08A4.13,4.13,0,0,1,24.19,39.85Z"/><path class="cls-5" d="M23.72,40.68a1.08,1.08,0,0,1-1.4,0,3.7,3.7,0,0,1-1.68-2.92c0-.67.29-1.09.73-1.18a1.37,1.37,0,0,0-.29.92,3.72,3.72,0,0,0,1.69,2.93A1.42,1.42,0,0,0,23.72,40.68Z"/><path class="cls-6" d="M24,39.75a1.37,1.37,0,0,1-.29.92h0a1.42,1.42,0,0,1-.95-.21,3.72,3.72,0,0,1-1.69-2.93,1.37,1.37,0,0,1,.29-.92h0a1.31,1.31,0,0,1,.95.21A3.69,3.69,0,0,1,24,39.75Z"/><path class="cls-5" d="M23.32,39.28a.43.43,0,0,1-.55,0,1.49,1.49,0,0,1-.68-1.17c0-.27.12-.44.29-.48a.59.59,0,0,0-.12.38,1.49,1.49,0,0,0,.68,1.17A.51.51,0,0,0,23.32,39.28Z"/><path class="cls-7" d="M23.44,38.91a.56.56,0,0,1-.12.37h0a.51.51,0,0,1-.38-.08A1.49,1.49,0,0,1,22.26,38a.59.59,0,0,1,.12-.38h0a.61.61,0,0,1,.39.09A1.49,1.49,0,0,1,23.44,38.91Z"/><path class="cls-5" d="M23.07,40.24c-.05.11-.17.13-.3,0a.73.73,0,0,1-.34-.58c0-.16.08-.25.2-.24a.29.29,0,0,0,0,.14.71.71,0,0,0,.34.58A.27.27,0,0,0,23.07,40.24Z"/><path class="cls-7" d="M23.1,40.1a.32.32,0,0,1,0,.14.27.27,0,0,1-.13-.05.71.71,0,0,1-.34-.58.29.29,0,0,1,0-.14.27.27,0,0,1,.14,0A.76.76,0,0,1,23.1,40.1Z"/><path class="cls-5" d="M22.43,36.93a.75.75,0,0,0,.34.59c.13.08.25,0,.3-.05a.43.43,0,0,1-.13,0,.73.73,0,0,1-.3-.38l-.21-.15Z"/><path class="cls-7" d="M22.94,37.42a.43.43,0,0,0,.13,0h0a3.41,3.41,0,0,0-.43-.42A.73.73,0,0,0,22.94,37.42Z"/><path class="cls-5" d="M21.87,38.16c-.05.11-.17.13-.3.05a.73.73,0,0,1-.34-.58c0-.16.08-.25.2-.24a.29.29,0,0,0,0,.14.73.73,0,0,0,.33.58A.3.3,0,0,0,21.87,38.16Z"/><path class="cls-7" d="M21.9,38a.32.32,0,0,1,0,.14.3.3,0,0,1-.14,0,.73.73,0,0,1-.33-.58.29.29,0,0,1,0-.14.43.43,0,0,1,.14,0A.76.76,0,0,1,21.9,38Z"/><path class="cls-5" d="M23.8,38.92a.26.26,0,0,1,0-.14c-.12,0-.2.08-.2.24a.74.74,0,0,0,.34.58l0,0,0-.25A.73.73,0,0,1,23.8,38.92Z"/><path class="cls-7" d="M23.8,38.92a.73.73,0,0,0,.18.45,3,3,0,0,0-.15-.59h0A.26.26,0,0,0,23.8,38.92Z"/><path class="cls-5" d="M21.68,37.18c.13.23.34.36.48.28a.16.16,0,0,0,.06-.08.51.51,0,0,1-.37-.3.5.5,0,0,1-.07-.46h0l-.08,0C21.55,36.71,21.55,37,21.68,37.18Z"/><path class="cls-7" d="M21.85,37.08a.51.51,0,0,0,.37.3.52.52,0,0,0-.06-.47.65.65,0,0,0-.28-.27l-.1,0A.5.5,0,0,0,21.85,37.08Z"/><path class="cls-5" d="M23.92,40.32a.14.14,0,0,1-.07.08c-.13.08-.34,0-.47-.27s-.14-.48,0-.56l.1,0a.52.52,0,0,0,.07.48A.52.52,0,0,0,23.92,40.32Z"/><path class="cls-7" d="M23.92,40.32a.52.52,0,0,1-.37-.29.52.52,0,0,1-.07-.48.54.54,0,0,1,.37.3A.5.5,0,0,1,23.92,40.32Z"/><path class="cls-5" d="M23.7,38.45a3.85,3.85,0,0,0-.41-.71.7.7,0,0,0,.41.71Z"/><path class="cls-5" d="M22.22,39.34a.12.12,0,0,1-.06.08c-.14.08-.35-.05-.48-.27s-.13-.48,0-.56l.1,0a.55.55,0,0,0,.07.48A.52.52,0,0,0,22.22,39.34Z"/><path class="cls-7" d="M22.22,39.34a.52.52,0,0,1-.37-.29.55.55,0,0,1-.07-.48.57.57,0,0,1,.38.3A.52.52,0,0,1,22.22,39.34Z"/><path class="cls-8" d="M23.47,38.92a1.52,1.52,0,0,0-.7-1.2.49.49,0,0,0-.49,0l-.15.08,1,1.7.15-.09A.51.51,0,0,0,23.47,38.92Z"/><path class="cls-9" d="M23.33,39c0,.44-.31.62-.7.4a1.54,1.54,0,0,1-.69-1.2c0-.44.31-.62.69-.4A1.52,1.52,0,0,1,23.33,39Z"/><path class="cls-8" d="M23.1,38.92a1.11,1.11,0,0,0-.51-.88.34.34,0,0,0-.36,0l-.11.06.72,1.23.11-.06A.37.37,0,0,0,23.1,38.92Z"/><path class="cls-10" d="M23,39c0,.32-.23.45-.51.29a1.1,1.1,0,0,1-.5-.88c0-.32.22-.45.5-.29A1.13,1.13,0,0,1,23,39Z"/><path class="cls-3" d="M31.14,40.4a4.13,4.13,0,0,0-1.87-3.23A1.32,1.32,0,0,0,28,37l-1.32.77,2.67,4.54,1.32-.76A1.34,1.34,0,0,0,31.14,40.4Z"/><path class="cls-4" d="M29.83,41.15c0,1.19-.83,1.68-1.86,1.08A4.12,4.12,0,0,1,26.1,39c0-1.19.84-1.67,1.87-1.07A4.11,4.11,0,0,1,29.83,41.15Z"/><path class="cls-2" d="M29.65,41.05c0,1.08-.75,1.51-1.68,1a3.72,3.72,0,0,1-1.69-2.93c0-1.07.75-1.51,1.69-1A3.73,3.73,0,0,1,29.65,41.05Z"/><path class="cls-3" d="M29.45,41.38a4.12,4.12,0,0,0-1.87-3.23A1.29,1.29,0,0,0,26.26,38l-1.33.77,2.68,4.54,1.32-.77A1.32,1.32,0,0,0,29.45,41.38Z"/><path class="cls-4" d="M28.14,42.13c0,1.19-.84,1.67-1.86,1.08A4.13,4.13,0,0,1,24.41,40c0-1.19.84-1.67,1.87-1.08A4.15,4.15,0,0,1,28.14,42.13Z"/><path class="cls-5" d="M27.67,43c-.3.34-.81.38-1.39,0a3.69,3.69,0,0,1-1.69-2.92c0-.67.29-1.09.73-1.18a1.37,1.37,0,0,0-.29.92,3.72,3.72,0,0,0,1.69,2.93A1.42,1.42,0,0,0,27.67,43Z"/><path class="cls-6" d="M28,42a1.4,1.4,0,0,1-.29.93h0a1.42,1.42,0,0,1-1-.21A3.72,3.72,0,0,1,25,39.82a1.37,1.37,0,0,1,.29-.92h0a1.35,1.35,0,0,1,1,.21A3.72,3.72,0,0,1,28,42Z"/><path class="cls-5" d="M27.27,41.56a.43.43,0,0,1-.55,0A1.49,1.49,0,0,1,26,40.41c0-.27.12-.44.29-.48a.59.59,0,0,0-.12.38,1.49,1.49,0,0,0,.68,1.17A.51.51,0,0,0,27.27,41.56Z"/><path class="cls-7" d="M27.39,41.19a.51.51,0,0,1-.12.37h0a.51.51,0,0,1-.38-.08,1.49,1.49,0,0,1-.68-1.17.59.59,0,0,1,.12-.38h0a.61.61,0,0,1,.39.09A1.49,1.49,0,0,1,27.39,41.19Z"/><path class="cls-5" d="M27,42.52a.21.21,0,0,1-.31.06.76.76,0,0,1-.34-.59c0-.16.08-.25.2-.24a.29.29,0,0,0,0,.14.75.75,0,0,0,.34.59A.37.37,0,0,0,27,42.52Z"/><path class="cls-7" d="M27.05,42.38a.52.52,0,0,1,0,.14.37.37,0,0,1-.14,0,.75.75,0,0,1-.34-.59.29.29,0,0,1,0-.14.43.43,0,0,1,.14,0A.76.76,0,0,1,27.05,42.38Z"/><path class="cls-5" d="M26.38,39.22a.74.74,0,0,0,.34.58.21.21,0,0,0,.31,0,.27.27,0,0,1-.14,0,.73.73,0,0,1-.3-.38l-.21-.15Z"/><path class="cls-7" d="M26.89,39.7a.27.27,0,0,0,.14,0h0a4.44,4.44,0,0,0-.44-.43A.73.73,0,0,0,26.89,39.7Z"/><path class="cls-5" d="M25.82,40.44c-.05.11-.17.13-.3.05a.73.73,0,0,1-.34-.58c0-.16.08-.25.2-.24a.29.29,0,0,0,0,.14.75.75,0,0,0,.34.59A.38.38,0,0,0,25.82,40.44Z"/><path class="cls-7" d="M25.85,40.3a.32.32,0,0,1,0,.14.38.38,0,0,1-.13,0,.75.75,0,0,1-.34-.59.29.29,0,0,1,0-.14.43.43,0,0,1,.14,0A.76.76,0,0,1,25.85,40.3Z"/><path class="cls-5" d="M27.75,41.2a.26.26,0,0,1,0-.14c-.12,0-.2.08-.2.24a.74.74,0,0,0,.34.58l0,0,0-.25A.73.73,0,0,1,27.75,41.2Z"/><path class="cls-7" d="M27.75,41.2a.73.73,0,0,0,.18.45,3,3,0,0,0-.15-.59h0A.26.26,0,0,0,27.75,41.2Z"/><path class="cls-5" d="M25.63,39.46c.13.23.34.36.48.28a.19.19,0,0,0,.07-.08.52.52,0,0,1-.38-.29.53.53,0,0,1-.07-.47h0l-.08,0C25.5,39,25.5,39.24,25.63,39.46Z"/><path class="cls-7" d="M25.8,39.37a.52.52,0,0,0,.38.29.56.56,0,0,0-.07-.47.71.71,0,0,0-.28-.27l-.1,0A.53.53,0,0,0,25.8,39.37Z"/><path class="cls-5" d="M27.87,42.6a.12.12,0,0,1-.06.08c-.14.08-.35,0-.48-.27s-.13-.48,0-.56l.1,0a.54.54,0,0,0,.07.48A.52.52,0,0,0,27.87,42.6Z"/><path class="cls-7" d="M27.87,42.6a.52.52,0,0,1-.37-.29.54.54,0,0,1-.07-.48.61.61,0,0,1,.38.3A.52.52,0,0,1,27.87,42.6Z"/><path class="cls-5" d="M27.66,40.73a4.57,4.57,0,0,0-.42-.71.58.58,0,0,0,.09.42A.56.56,0,0,0,27.66,40.73Z"/><path class="cls-5" d="M26.18,41.62a.19.19,0,0,1-.07.08c-.14.08-.35-.05-.48-.27s-.13-.48,0-.56l.1,0a.54.54,0,0,0,.07.48A.52.52,0,0,0,26.18,41.62Z"/><path class="cls-7" d="M26.18,41.62a.52.52,0,0,1-.38-.29.54.54,0,0,1-.07-.48.57.57,0,0,1,.38.3A.56.56,0,0,1,26.18,41.62Z"/><path class="cls-8" d="M27.42,41.2a1.52,1.52,0,0,0-.7-1.2.49.49,0,0,0-.49,0l-.14.09,1,1.69.15-.09A.49.49,0,0,0,27.42,41.2Z"/><path class="cls-9" d="M27.28,41.28c0,.44-.31.62-.7.4a1.54,1.54,0,0,1-.69-1.2c0-.44.31-.62.69-.4A1.52,1.52,0,0,1,27.28,41.28Z"/><path class="cls-8" d="M27.05,41.2a1.13,1.13,0,0,0-.51-.88.34.34,0,0,0-.36,0l-.11.06.73,1.24.11-.07A.37.37,0,0,0,27.05,41.2Z"/><path class="cls-10" d="M26.94,41.26c0,.32-.23.45-.51.29a1.1,1.1,0,0,1-.5-.87c0-.33.22-.46.5-.3A1.13,1.13,0,0,1,26.94,41.26Z"/><path class="cls-3" d="M32.34,40.59a2.57,2.57,0,0,0-1.16-2,.82.82,0,0,0-.83-.08l-.83.48,1.67,2.83.83-.48A.82.82,0,0,0,32.34,40.59Z"/><path class="cls-4" d="M31.52,41.07c0,.74-.52,1-1.16.67a2.59,2.59,0,0,1-1.16-2c0-.74.52-1,1.16-.67A2.57,2.57,0,0,1,31.52,41.07Z"/><path class="cls-5" d="M31.23,41.58a.67.67,0,0,1-.87,0,2.32,2.32,0,0,1-1.05-1.82c0-.42.18-.68.46-.74a.81.81,0,0,0-.19.58,2.31,2.31,0,0,0,1.06,1.82A.8.8,0,0,0,31.23,41.58Z"/><path class="cls-2" d="M31.41,41a.84.84,0,0,1-.18.58h0a.8.8,0,0,1-.59-.13,2.31,2.31,0,0,1-1.06-1.82.81.81,0,0,1,.19-.58h0a.81.81,0,0,1,.59.13A2.32,2.32,0,0,1,31.41,41Z"/><path class="cls-3" d="M31.28,41.21a2.58,2.58,0,0,0-1.17-2,.83.83,0,0,0-.82-.08l-.83.48,1.67,2.84L31,42A.84.84,0,0,0,31.28,41.21Z"/><path class="cls-4" d="M30.46,41.68c0,.74-.52,1-1.16.67a2.58,2.58,0,0,1-1.17-2c0-.74.53-1.05,1.17-.67A2.57,2.57,0,0,1,30.46,41.68Z"/><path class="cls-5" d="M30.17,42.2a.67.67,0,0,1-.87,0,2.36,2.36,0,0,1-1.06-1.83.68.68,0,0,1,.46-.74.89.89,0,0,0-.18.58,2.35,2.35,0,0,0,1.05,1.83A.94.94,0,0,0,30.17,42.2Z"/><path class="cls-6" d="M30.35,41.62a.89.89,0,0,1-.18.58h0a.94.94,0,0,1-.6-.13,2.35,2.35,0,0,1-1.05-1.83.89.89,0,0,1,.18-.58h0a.94.94,0,0,1,.6.13A2.35,2.35,0,0,1,30.35,41.62Z"/><path class="cls-5" d="M29.92,41.33a.28.28,0,0,1-.35,0,1,1,0,0,1-.42-.73c0-.17.07-.28.18-.3a.37.37,0,0,0-.07.23.93.93,0,0,0,.42.73A.33.33,0,0,0,29.92,41.33Z"/><path class="cls-7" d="M30,41.09a.33.33,0,0,1-.07.24h0a.33.33,0,0,1-.24-.06.93.93,0,0,1-.42-.73.37.37,0,0,1,.07-.23h0a.32.32,0,0,1,.24,0A.92.92,0,0,1,30,41.09Z"/><path class="cls-5" d="M29.77,41.92a.13.13,0,0,1-.2,0,.49.49,0,0,1-.21-.37c0-.1.05-.15.13-.15a.29.29,0,0,0,0,.09.46.46,0,0,0,.21.37A.15.15,0,0,0,29.77,41.92Z"/><path class="cls-7" d="M29.78,41.84a.19.19,0,0,1,0,.08.15.15,0,0,1-.09,0,.46.46,0,0,1-.21-.37.29.29,0,0,1,0-.09l.08,0A.46.46,0,0,1,29.78,41.84Z"/><path class="cls-5" d="M29.36,39.86a.49.49,0,0,0,.21.37.13.13,0,0,0,.2,0l-.09,0a.51.51,0,0,1-.19-.24.38.38,0,0,0-.13-.09Z"/><path class="cls-7" d="M29.68,40.17l.09,0h0a2.27,2.27,0,0,0-.28-.26A.51.51,0,0,0,29.68,40.17Z"/><path class="cls-5" d="M29,40.63a.14.14,0,0,1-.2,0,.49.49,0,0,1-.21-.37c0-.1.05-.15.13-.15a.29.29,0,0,0,0,.09.46.46,0,0,0,.21.37Z"/><path class="cls-7" d="M29,40.54a.28.28,0,0,1,0,.09l-.09,0a.46.46,0,0,1-.21-.37.29.29,0,0,1,0-.09l.08,0A.46.46,0,0,1,29,40.54Z"/><path class="cls-5" d="M30.22,41.1a.2.2,0,0,1,0-.09c-.08,0-.13.05-.13.15a.51.51,0,0,0,.21.37h0a.78.78,0,0,0,0-.16A.52.52,0,0,1,30.22,41.1Z"/><path class="cls-7" d="M30.22,41.1a.52.52,0,0,0,.11.28,2.49,2.49,0,0,0-.09-.37h0A.2.2,0,0,0,30.22,41.1Z"/><path class="cls-5" d="M28.89,40c.09.14.22.22.3.17l0,0A.31.31,0,0,1,29,40a.32.32,0,0,1,0-.29h-.07C28.81,39.72,28.81,39.87,28.89,40Z"/><path class="cls-7" d="M29,40a.31.31,0,0,0,.24.19.35.35,0,0,0,0-.3.33.33,0,0,0-.17-.16l-.06,0A.32.32,0,0,0,29,40Z"/><path class="cls-5" d="M30.3,42l-.05.05c-.08,0-.21,0-.29-.18s-.09-.29,0-.34a.06.06,0,0,1,.06,0,.32.32,0,0,0,0,.29A.36.36,0,0,0,30.3,42Z"/><path class="cls-7" d="M30.3,42a.36.36,0,0,1-.24-.19.32.32,0,0,1,0-.29.3.3,0,0,1,.23.18A.35.35,0,0,1,30.3,42Z"/><path class="cls-5" d="M30.16,40.81a2.51,2.51,0,0,0-.26-.45.36.36,0,0,0,.06.27A.38.38,0,0,0,30.16,40.81Z"/><path class="cls-5" d="M29.24,41.37a.1.1,0,0,1,0,0c-.08.05-.21,0-.3-.17s-.08-.3,0-.34l.07,0a.34.34,0,0,0,0,.3A.36.36,0,0,0,29.24,41.37Z"/><path class="cls-7" d="M29.24,41.37a.36.36,0,0,1-.24-.19.34.34,0,0,1,0-.3.36.36,0,0,1,.23.19A.35.35,0,0,1,29.24,41.37Z"/><path class="cls-8" d="M30,41.1a1,1,0,0,0-.43-.75.3.3,0,0,0-.31,0l-.09,0,.62,1.06.09,0A.31.31,0,0,0,30,41.1Z"/><path class="cls-9" d="M29.92,41.15c0,.28-.19.39-.43.25a1,1,0,0,1-.43-.75c0-.28.19-.39.43-.25A1,1,0,0,1,29.92,41.15Z"/><path class="cls-8" d="M29.78,41.1a.69.69,0,0,0-.32-.55.22.22,0,0,0-.22,0l-.07,0,.45.77.07,0A.2.2,0,0,0,29.78,41.1Z"/><path class="cls-10" d="M29.71,41.14c0,.2-.14.28-.31.18a.69.69,0,0,1-.32-.55c0-.2.14-.28.32-.18A.71.71,0,0,1,29.71,41.14Z"/><path class="cls-2" d="M33.41,38.76l-3,1.55-.16.2.3.62.07,1-.21.42,0,.2,3-1.73h0a.82.82,0,0,0,.32-.67v-.5A2.47,2.47,0,0,0,33.41,38.76Z"/><polygon class="cls-2" points="2.35 24.35 3.59 23.63 4.1 24.15 3.46 24.61 2.69 24.45 2.35 24.35"/><path class="cls-3" d="M30.4,40.49a3.73,3.73,0,0,0-1.11-1.17L3.51,24.44a1.19,1.19,0,0,0-1.11-.12A.76.76,0,0,0,2,25v.51a2.41,2.41,0,0,0,.38,1.12l3,4.51a3.1,3.1,0,0,0,.86.84L26.57,43.73a1.17,1.17,0,0,0,.85.14l3-1.06a.76.76,0,0,0,.38-.69v-.51A2.41,2.41,0,0,0,30.4,40.49Zm.07,1.28a.76.76,0,0,1-.38.69l-2.78,1a1.17,1.17,0,0,1-.85-.14L6.35,31.7a3,3,0,0,1-.86-.85l-2.78-4.2a2.45,2.45,0,0,1-.38-1.13v-.16a.76.76,0,0,1,.38-.69h0a.83.83,0,0,1,.74.12L29.31,39.69a2.44,2.44,0,0,1,.74.73l0,.07a2.38,2.38,0,0,1,.38,1.12Z"/><polygon class="cls-11" points="32.3 38.98 18.07 32.62 6.86 25.86 1.76 21.34 4.76 19.61 35.31 37.24 33.67 38.98 32.3 38.98"/><polygon class="cls-6" points="31.17 40.9 24.72 37.9 7.7 28.07 1.49 22.84 1.76 21.34 25.79 35.21 32.3 38.98 31.17 40.9"/><polygon class="cls-12" points="34.18 39.16 31.17 40.9 32.3 38.98 35.31 37.24 34.18 39.16"/><polygon class="cls-5" points="5.2 23.84 4.92 23.99 4.92 25.7 5.2 25.54 5.2 23.84"/><polygon class="cls-7" points="4.92 23.99 2.88 22.81 2.88 23.98 4.92 25.7 4.92 23.99"/><polygon class="cls-11" points="4.92 23.99 2.88 22.81 3.15 22.66 5.2 23.84 4.92 23.99"/><polygon class="cls-5" points="7.41 25.11 7.14 25.27 7.14 27.55 7.41 27.39 7.41 25.11"/><polygon class="cls-7" points="7.14 25.27 5.26 24.18 5.26 25.97 7.14 27.55 7.14 25.27"/><polygon class="cls-11" points="7.14 25.27 5.26 24.18 5.53 24.03 7.41 25.11 7.14 25.27"/><polygon class="cls-7" points="10.03 26.94 7.51 25.48 7.51 27.76 10.03 29.22 10.03 26.94"/><polygon class="cls-5" points="10.3 26.78 10.03 26.94 10.03 29.22 10.3 29.06 10.3 26.78"/><polygon class="cls-11" points="10.03 26.94 7.51 25.48 7.78 25.32 10.3 26.78 10.03 26.94"/><polygon class="cls-7" points="12.92 28.61 10.4 27.15 10.4 29.43 12.92 30.89 12.92 28.61"/><polygon class="cls-5" points="13.19 28.45 12.92 28.61 12.92 30.89 13.19 30.73 13.19 28.45"/><polygon class="cls-11" points="12.92 28.61 10.4 27.15 10.67 26.99 13.19 28.45 12.92 28.61"/><polygon class="cls-7" points="15.81 30.28 13.29 28.82 13.29 31.1 15.81 32.56 15.81 30.28"/><polygon class="cls-5" points="16.08 30.12 15.81 30.28 15.81 32.56 16.08 32.4 16.08 30.12"/><polygon class="cls-11" points="15.81 30.28 13.29 28.82 13.56 28.66 16.08 30.12 15.81 30.28"/><polygon class="cls-7" points="18.7 31.95 16.18 30.49 16.18 32.77 18.7 34.23 18.7 31.95"/><polygon class="cls-5" points="18.97 31.79 18.7 31.95 18.7 34.23 18.97 34.07 18.97 31.79"/><polygon class="cls-11" points="18.7 31.95 16.18 30.49 16.45 30.33 18.97 31.79 18.7 31.95"/><polygon class="cls-7" points="21.59 33.61 19.07 32.16 19.07 34.44 21.59 35.89 21.59 33.61"/><polygon class="cls-5" points="21.86 33.46 21.59 33.61 21.59 35.89 21.86 35.74 21.86 33.46"/><polygon class="cls-11" points="21.59 33.61 19.07 32.16 19.34 32 21.86 33.46 21.59 33.61"/><polygon class="cls-7" points="24.48 35.28 21.96 33.82 21.96 36.1 24.48 37.56 24.48 35.28"/><polygon class="cls-5" points="24.75 35.13 24.48 35.28 24.48 37.56 24.75 37.41 24.75 35.13"/><polygon class="cls-11" points="24.48 35.28 21.96 33.82 22.23 33.67 24.75 35.13 24.48 35.28"/><polygon class="cls-5" points="28.28 38.1 28.09 38.7 28.33 39.5 28.6 39.35 28.61 38.11 28.28 38.1"/><polygon class="cls-7" points="25.81 36.05 24.88 35.51 24.88 37.79 25.81 38.33 28.33 39.5 28.33 38.27 25.81 36.05"/><polygon class="cls-11" points="25.81 36.05 24.88 35.51 25.15 35.36 26.08 35.89 25.81 36.05"/><polygon class="cls-14" points="28.33 38.27 25.81 36.05 26.08 35.89 28.61 38.11 28.33 38.27"/><polygon class="cls-7" points="24.03 12.58 17.72 11.29 24.02 21.08 25.07 20.47 24.03 12.58"/><polygon class="cls-6" points="22.99 13.19 16.68 11.89 16.68 16.84 24.02 21.08 22.99 13.19"/><polygon class="cls-15" points="23.12 20.56 16.36 24.46 15.8 20.7 22.56 16.8 23.12 20.56"/><polygon class="cls-7" points="16.86 16.72 10.55 15.43 16.85 25.22 17.89 24.61 16.86 16.72"/><polygon class="cls-6" points="15.82 17.33 9.5 16.03 9.5 20.98 16.85 25.22 15.82 17.33"/><polygon class="cls-5" points="14.51 18.48 10.96 17.75 10.38 18.09 14.51 23.25 15.1 22.92 14.51 18.48"/><polygon class="cls-7" points="13.93 18.82 10.38 18.09 10.38 20.87 14.51 23.25 13.93 18.82"/><polygon class="cls-1" points="18.77 31.16 1.76 21.34 4.76 19.61 5.33 19.93 6.98 18.98 7.68 17.92 17.53 12.23 34.54 22.05 18.77 31.16"/><polygon class="cls-11" points="18 13.22 7.62 13.69 0 8.44 14.61 0 31.57 3.45 18 13.22"/><polygon class="cls-6" points="19.28 21.48 2.32 18.03 0 8.44 16.96 11.88 19.28 21.48"/><polygon class="cls-5" points="33.89 13.04 19.28 21.48 16.96 11.88 31.57 3.45 33.89 13.04"/><polygon class="cls-16" points="33.45 12.85 19.54 20.88 19.42 20.37 32.7 12.7 30.7 4.4 31.31 4.05 33.45 12.85"/><polygon class="cls-12" points="32.7 12.7 19.42 20.37 17.41 12.08 30.7 4.4 32.7 12.7"/><polygon class="cls-15" points="31.46 12.92 26.22 15.94 26.19 15.8 31.29 12.86 29.55 5.63 29.68 5.56 31.46 12.92"/><polygon class="cls-7" points="31.29 12.86 26.19 15.8 24.44 8.58 29.55 5.63 31.29 12.86"/><path class="cls-15" d="M26.41,9.15a.92.92,0,0,1-.83,1h-.09a1,1,0,0,0,.69-1,.94.94,0,0,0-.66-1h.14A.92.92,0,0,1,26.41,9.15Z"/><path class="cls-3" d="M26.18,9.15a1,1,0,0,1-.69,1,1,1,0,0,1-.66-1,1,1,0,0,1,.69-1A.94.94,0,0,1,26.18,9.15Z"/><path class="cls-15" d="M28.05,8.2a.91.91,0,0,1-.83,1h-.09a1,1,0,0,0,.7-1,1,1,0,0,0-.66-1h.14A.91.91,0,0,1,28.05,8.2Z"/><path class="cls-3" d="M27.83,8.2a1,1,0,0,1-.7,1,1,1,0,0,1-.65-1,1,1,0,0,1,.69-1A1,1,0,0,1,27.83,8.2Z"/><path class="cls-15" d="M29.7,7.25a.92.92,0,0,1-.83,1h-.09a1,1,0,0,0,.69-1,1,1,0,0,0-.66-1H29A.93.93,0,0,1,29.7,7.25Z"/><path class="cls-3" d="M29.47,7.25a1,1,0,0,1-.69,1,1,1,0,0,1-.66-1,1,1,0,0,1,.69-1A1,1,0,0,1,29.47,7.25Z"/><path class="cls-15" d="M27,11.68a.92.92,0,0,1-.83,1H26.1a1,1,0,0,0,.69-1,1,1,0,0,0-.65-1h.13A.93.93,0,0,1,27,11.68Z"/><path class="cls-3" d="M26.79,11.68a1,1,0,0,1-.69,1,1,1,0,0,1-.66-1,1,1,0,0,1,.7-1A1,1,0,0,1,26.79,11.68Z"/><path class="cls-15" d="M28.66,10.74a.91.91,0,0,1-.83,1h-.08a1,1,0,0,0,.69-1,1,1,0,0,0-.66-1l.14,0A.92.92,0,0,1,28.66,10.74Z"/><path class="cls-3" d="M28.44,10.74a1,1,0,0,1-.69,1,.94.94,0,0,1-.66-1,1,1,0,0,1,.69-1A1,1,0,0,1,28.44,10.74Z"/><path class="cls-15" d="M30.31,9.79a.93.93,0,0,1-.83,1h-.09a1,1,0,0,0,.69-1,1,1,0,0,0-.66-1,.33.33,0,0,1,.14,0A.92.92,0,0,1,30.31,9.79Z"/><path class="cls-3" d="M30.08,9.79a1,1,0,0,1-.69,1,1,1,0,0,1-.66-1,1,1,0,0,1,.69-1A1,1,0,0,1,30.08,9.79Z"/><path class="cls-15" d="M27.63,14.22a.91.91,0,0,1-.83,1h-.09a1,1,0,0,0,.69-1,.93.93,0,0,0-.66-1h.14A.92.92,0,0,1,27.63,14.22Z"/><path class="cls-3" d="M27.4,14.22a1,1,0,0,1-.69,1,1,1,0,0,1-.66-1,1,1,0,0,1,.69-1A.93.93,0,0,1,27.4,14.22Z"/><path class="cls-15" d="M29.27,13.27a.91.91,0,0,1-.83,1h-.09a1,1,0,0,0,.7-1,1,1,0,0,0-.66-1h.14A.92.92,0,0,1,29.27,13.27Z"/><path class="cls-3" d="M29.05,13.27a1,1,0,0,1-.7,1,1,1,0,0,1-.65-1,1,1,0,0,1,.69-1A1,1,0,0,1,29.05,13.27Z"/><path class="cls-15" d="M30.92,12.32a.94.94,0,0,1-.83,1H30a1,1,0,0,0,.69-1,1,1,0,0,0-.66-1h.14A.93.93,0,0,1,30.92,12.32Z"/><path class="cls-3" d="M30.69,12.32a1,1,0,0,1-.69,1,1,1,0,0,1-.66-1,1,1,0,0,1,.69-1A1,1,0,0,1,30.69,12.32Z"/><polygon class="cls-15" points="25.54 16.34 20.3 19.36 20.27 19.22 25.37 16.27 23.62 9.05 23.76 8.97 25.54 16.34"/><polygon class="cls-7" points="25.37 16.27 20.27 19.22 18.52 12 23.62 9.05 25.37 16.27"/><path class="cls-15" d="M20.49,12.56c0,.56-.4,1-.83,1h-.09a1,1,0,0,0,.69-1,1,1,0,0,0-.66-1h.14A.93.93,0,0,1,20.49,12.56Z"/><path class="cls-3" d="M20.26,12.56a1,1,0,0,1-.69,1,1,1,0,0,1-.66-1,1,1,0,0,1,.69-1A1,1,0,0,1,20.26,12.56Z"/><path class="cls-15" d="M22.13,11.62a.92.92,0,0,1-.83,1h-.09a1,1,0,0,0,.69-1,1,1,0,0,0-.66-1h.14A.91.91,0,0,1,22.13,11.62Z"/><path class="cls-3" d="M21.9,11.62a1,1,0,0,1-.69,1,1,1,0,0,1-.66-1,1,1,0,0,1,.69-1A1,1,0,0,1,21.9,11.62Z"/><path class="cls-15" d="M23.77,10.67a.91.91,0,0,1-.83,1h-.09a1,1,0,0,0,.7-1,1,1,0,0,0-.66-1H23A.91.91,0,0,1,23.77,10.67Z"/><path class="cls-3" d="M23.55,10.67a1,1,0,0,1-.7,1,1,1,0,0,1-.65-1,1,1,0,0,1,.69-1A1,1,0,0,1,23.55,10.67Z"/><path class="cls-15" d="M21.1,15.1a.92.92,0,0,1-.83,1h-.09a1,1,0,0,0,.69-1,.94.94,0,0,0-.66-1h.14A.92.92,0,0,1,21.1,15.1Z"/><path class="cls-3" d="M20.87,15.1a1,1,0,0,1-.69,1,1,1,0,0,1-.66-1,1,1,0,0,1,.69-1A.94.94,0,0,1,20.87,15.1Z"/><path class="cls-15" d="M22.74,14.15a.91.91,0,0,1-.83,1h-.09a1,1,0,0,0,.69-1,.94.94,0,0,0-.65-1H22A.93.93,0,0,1,22.74,14.15Z"/><path class="cls-3" d="M22.51,14.15a1,1,0,0,1-.69,1,1,1,0,0,1-.65-1,1,1,0,0,1,.69-1A.94.94,0,0,1,22.51,14.15Z"/><path class="cls-15" d="M24.38,13.2a.92.92,0,0,1-.83,1h-.08a1,1,0,0,0,.69-1,1,1,0,0,0-.66-1h.14A.92.92,0,0,1,24.38,13.2Z"/><path class="cls-3" d="M24.16,13.2a1,1,0,0,1-.69,1,1,1,0,0,1-.66-1,1,1,0,0,1,.69-1A1,1,0,0,1,24.16,13.2Z"/><path class="cls-15" d="M21.71,17.64a.93.93,0,0,1-.83,1h-.09a1,1,0,0,0,.69-1,1,1,0,0,0-.66-1,.33.33,0,0,1,.14,0A.91.91,0,0,1,21.71,17.64Z"/><path class="cls-3" d="M21.48,17.64a1,1,0,0,1-.69,1,1.07,1.07,0,0,1,0-2A1,1,0,0,1,21.48,17.64Z"/><path class="cls-15" d="M23.35,16.69a.91.91,0,0,1-.83,1h-.09a1,1,0,0,0,.69-1,.94.94,0,0,0-.65-1,.32.32,0,0,1,.14,0A.92.92,0,0,1,23.35,16.69Z"/><path class="cls-3" d="M23.12,16.69a1,1,0,0,1-.69,1,.94.94,0,0,1-.65-1,1,1,0,0,1,.69-1A.94.94,0,0,1,23.12,16.69Z"/><path class="cls-15" d="M25,15.74a.91.91,0,0,1-.83,1h-.08a1,1,0,0,0,.69-1,1,1,0,0,0-.66-1h.14A.91.91,0,0,1,25,15.74Z"/><path class="cls-3" d="M24.77,15.74a1,1,0,0,1-.69,1,1,1,0,0,1-.66-1,1,1,0,0,1,.69-1A1,1,0,0,1,24.77,15.74Z"/><polygon class="cls-11" points="39.31 20.57 24.7 29.01 22.91 29.14 19.37 25.93 33.98 17.49 39.31 20.57"/><polygon class="cls-6" points="24.7 33.89 19.37 30.81 19.37 25.93 24.7 29.01 25.25 30.73 24.7 33.89"/><polygon class="cls-11" points="23.43 29.43 19.85 27.36 20.15 27.19 23.74 29.26 23.43 29.43"/><polygon class="cls-5" points="23.43 32.74 23.43 29.43 23.74 29.26 23.74 32.56 23.43 32.74"/><polygon class="cls-7" points="23.43 29.43 19.85 27.36 19.85 30.67 23.43 32.74 23.43 29.43"/><polygon class="cls-11" points="23.92 25.42 21.51 24.03 26.41 21.2 28.81 22.59 23.92 25.42"/><polygon class="cls-12" points="23.92 27.63 23.92 25.42 28.81 22.59 28.81 24.81 23.92 27.63"/><polygon class="cls-6" points="23.92 25.42 21.51 24.03 21.51 26.25 23.92 27.63 23.92 25.42"/><polygon class="cls-13" points="45.49 19.33 30.88 27.76 26.12 27.77 24.7 24.2 39.31 15.76 45.49 19.33"/><polygon class="cls-11" points="32.1 26.15 34.45 24.8 29.66 22.03 27.32 23.38 32.1 26.15"/><polygon class="cls-6" points="32.1 26.29 32.1 26.15 27.32 23.38 27.32 23.53 32.1 26.29"/><polygon class="cls-12" points="32.1 26.15 34.45 24.8 34.45 24.94 32.1 26.29 32.1 26.15"/><polygon class="cls-11" points="36.35 23.69 38.7 22.34 33.91 19.58 31.57 20.93 36.35 23.69"/><polygon class="cls-6" points="36.35 23.84 36.35 23.69 31.57 20.93 31.57 21.08 36.35 23.84"/><polygon class="cls-12" points="36.35 23.69 38.7 22.34 38.7 22.49 36.35 23.84 36.35 23.69"/><polygon class="cls-11" points="40.6 21.24 42.94 19.89 38.16 17.13 35.81 18.48 40.6 21.24"/><polygon class="cls-6" points="40.6 21.39 40.6 21.24 35.81 18.48 35.81 18.62 40.6 21.39"/><polygon class="cls-12" points="40.6 21.24 42.94 19.89 42.94 20.03 40.6 21.39 40.6 21.24"/><path class="cls-17" d="M39.42,16.38a.47.47,0,0,0-.43,0,.13.13,0,0,0,0,.25.54.54,0,0,0,.43,0A.13.13,0,0,0,39.42,16.38Z"/><path class="cls-3" d="M39,16.49a.09.09,0,0,0,.06.08.3.3,0,0,0,.29,0,.1.1,0,0,0,0-.08V16H39Z"/><path class="cls-4" d="M39.35,15.9a.37.37,0,0,0-.29,0c-.08,0-.08.12,0,.17a.37.37,0,0,0,.29,0A.1.1,0,0,0,39.35,15.9Z"/><path class="cls-3" d="M39.13,16s0,0,0,0a.11.11,0,0,0,.11,0s0,0,0,0V9h-.15Z"/><path class="cls-18" d="M39.26,9a.11.11,0,0,0-.11,0s0,0,0,.06a.11.11,0,0,0,.11,0S39.29,9,39.26,9Z"/><path class="cls-8" d="M39.34,9a.13.13,0,0,1-.14.13A.14.14,0,0,1,39.06,9a.14.14,0,0,1,.14-.14A.14.14,0,0,1,39.34,9Z"/><polygon class="cls-13" points="47.51 27.68 32.9 36.11 32.66 36.35 32.41 35.83 47.02 27.39 47.51 27.68"/><polygon class="cls-6" points="32.41 35.83 32.41 34.46 30.88 27.76 24.7 24.2 24.7 33.89 32.9 38.63 32.9 36.11 32.41 35.83"/><polygon class="cls-15" points="31.27 32 26.92 29.48 26.92 26.2 27.16 26.34 27.16 29.35 31.2 31.68 31.27 32"/><polygon class="cls-19" points="31.2 31.68 27.16 29.35 27.16 26.34 30.41 28.22 31.2 31.68"/><polygon class="cls-7" points="28.76 35.21 26.77 34.06 26.77 31.27 30.41 33.37 30.41 34.66 28.76 35.21"/><polygon class="cls-5" points="30.78 33.16 30.41 33.37 30.41 34.66 30.78 34.45 30.78 33.16"/><polygon class="cls-11" points="30.41 33.37 26.77 31.27 27.14 31.06 30.78 33.16 30.41 33.37"/><polygon class="cls-12" points="47.02 27.39 32.41 35.83 32.41 34.46 35.55 31.51 47.02 26.03 47.02 27.39"/><polygon class="cls-12" points="47.51 30.2 32.9 38.63 32.9 36.11 47.51 27.68 47.51 30.2"/><polygon class="cls-15" points="37.09 35.98 37.43 35.39 37.39 35.31 36.89 35.62 36.89 35.98 37.09 35.98"/><polygon class="cls-12" points="37.37 35.42 37.37 35.42 36.79 36.42 36.93 36.34 37.51 35.34 37.44 35.31 37.37 35.42"/><polygon class="cls-20" points="36.1 36.3 36.22 36.37 36.53 36.19 36.42 36.12 36.1 36.3"/><path class="cls-12" d="M36.41,35.39a.54.54,0,0,0-.54.54.55.55,0,0,0,.54.54.54.54,0,0,0,.54-.54A.54.54,0,0,0,36.41,35.39Z"/><path class="cls-6" d="M36.76,35.65a1,1,0,0,0-.43.76c0,.27.19.39.43.25a1,1,0,0,0,.44-.76C37.2,35.62,37,35.51,36.76,35.65Z"/><path class="cls-11" d="M36.9,35.52a.32.32,0,0,0-.31,0,1,1,0,0,0-.43.76.31.31,0,0,0,.14.29h0l.15.09a.31.31,0,0,1-.12-.28,1,1,0,0,1,.43-.76.34.34,0,0,1,.3,0l-.16-.09Z"/><path class="cls-11" d="M37.08,35.93a.77.77,0,0,1-.35.6.24.24,0,0,1-.24,0,.22.22,0,0,0,.27,0,.81.81,0,0,0,.35-.61.25.25,0,0,0-.11-.23A.26.26,0,0,1,37.08,35.93Z"/><path class="cls-21" d="M36.76,35.75a.77.77,0,0,0-.35.6.26.26,0,0,0,.08.21.24.24,0,0,0,.24,0,.77.77,0,0,0,.35-.6.26.26,0,0,0-.08-.21A.27.27,0,0,0,36.76,35.75Z"/><polygon class="cls-20" points="35.18 36.83 35.3 36.9 35.62 36.72 35.5 36.65 35.18 36.83"/><path class="cls-12" d="M35.49,35.92a.54.54,0,1,0,.54.54A.54.54,0,0,0,35.49,35.92Z"/><path class="cls-6" d="M35.84,36.18a1,1,0,0,0-.43.76c0,.27.19.39.43.25a1,1,0,0,0,.44-.76A.27.27,0,0,0,35.84,36.18Z"/><path class="cls-11" d="M36,36.05a.32.32,0,0,0-.31,0,1,1,0,0,0-.43.76.3.3,0,0,0,.14.29h0l.15.09a.31.31,0,0,1-.12-.28,1,1,0,0,1,.43-.76.37.37,0,0,1,.3,0L36,36.05Z"/><path class="cls-11" d="M36.16,36.46a.76.76,0,0,1-.35.6.28.28,0,0,1-.24,0,.24.24,0,0,0,.27,0,.77.77,0,0,0,.35-.6.25.25,0,0,0-.11-.24A.27.27,0,0,1,36.16,36.46Z"/><path class="cls-21" d="M35.84,36.28a.78.78,0,0,0-.35.61.29.29,0,0,0,.08.21.28.28,0,0,0,.24,0,.76.76,0,0,0,.35-.6.27.27,0,0,0-.08-.21A.27.27,0,0,0,35.84,36.28Z"/><polygon class="cls-20" points="34.26 37.36 34.38 37.43 34.69 37.25 34.58 37.18 34.26 37.36"/><path class="cls-12" d="M34.57,36.45a.54.54,0,1,0,.54.54A.54.54,0,0,0,34.57,36.45Z"/><path class="cls-6" d="M34.92,36.71a1,1,0,0,0-.44.76c0,.28.2.39.44.25a1,1,0,0,0,.44-.76A.27.27,0,0,0,34.92,36.71Z"/><path class="cls-11" d="M35.06,36.58a.33.33,0,0,0-.31,0,.94.94,0,0,0-.44.75.29.29,0,0,0,.15.29h0l.15.09a.3.3,0,0,1-.13-.28,1,1,0,0,1,.44-.76.31.31,0,0,1,.29,0l-.15-.1Z"/><path class="cls-11" d="M35.24,37a.78.78,0,0,1-.35.61.27.27,0,0,1-.24,0,.24.24,0,0,0,.27,0,.77.77,0,0,0,.35-.6.25.25,0,0,0-.11-.23A.25.25,0,0,1,35.24,37Z"/><path class="cls-21" d="M34.92,36.82a.77.77,0,0,0-.35.6.19.19,0,0,0,.32.18.78.78,0,0,0,.35-.61.25.25,0,0,0-.08-.2A.24.24,0,0,0,34.92,36.82Z"/><polygon class="cls-6" points="33.95 38.06 33.57 37.84 33.57 36.34 34.53 36.9 34.59 37.04 33.95 38.06"/><polygon class="cls-12" points="37.51 35.34 37.51 35.18 34.53 36.9 34.53 37.06 33.95 38.06 34.09 37.98 34.67 36.98 37.51 35.34"/><polygon class="cls-13" points="37.51 35.18 34.53 36.9 33.57 36.34 36.54 34.63 37.51 35.18"/><polygon class="cls-15" points="47.39 30.04 47.73 29.44 47.69 29.36 47.19 29.67 47.19 30.04 47.39 30.04"/><polygon class="cls-12" points="47.67 29.47 47.67 29.47 47.09 30.48 47.23 30.4 47.81 29.39 47.74 29.36 47.67 29.47"/><polygon class="cls-20" points="46.4 30.35 46.52 30.42 46.84 30.24 46.72 30.17 46.4 30.35"/><path class="cls-12" d="M46.71,29.44a.54.54,0,1,0,.55.54A.54.54,0,0,0,46.71,29.44Z"/><path class="cls-6" d="M47.06,29.7a1,1,0,0,0-.43.76c0,.28.19.39.43.25A1,1,0,0,0,47.5,30,.27.27,0,0,0,47.06,29.7Z"/><path class="cls-11" d="M47.2,29.57a.35.35,0,0,0-.31,0,1,1,0,0,0-.43.76.29.29,0,0,0,.14.29h0l.15.09a.3.3,0,0,1-.12-.28,1,1,0,0,1,.43-.76.33.33,0,0,1,.3,0l-.16-.1Z"/><path class="cls-11" d="M47.38,30a.78.78,0,0,1-.35.61.27.27,0,0,1-.24,0,.24.24,0,0,0,.27,0,.75.75,0,0,0,.35-.6.25.25,0,0,0-.11-.24A.29.29,0,0,1,47.38,30Z"/><path class="cls-21" d="M47.06,29.8a.81.81,0,0,0-.35.61.27.27,0,0,0,.08.21.27.27,0,0,0,.24,0,.78.78,0,0,0,.35-.61.29.29,0,0,0-.08-.21A.27.27,0,0,0,47.06,29.8Z"/><polygon class="cls-20" points="45.48 30.89 45.6 30.95 45.91 30.77 45.8 30.7 45.48 30.89"/><path class="cls-12" d="M45.79,30a.54.54,0,1,0,.54.54A.54.54,0,0,0,45.79,30Z"/><path class="cls-6" d="M46.14,30.24a.93.93,0,0,0-.43.75c0,.28.19.39.43.25a1,1,0,0,0,.44-.75C46.58,30.21,46.38,30.1,46.14,30.24Z"/><path class="cls-11" d="M46.28,30.11a.3.3,0,0,0-.31,0,1,1,0,0,0-.43.75.29.29,0,0,0,.14.29h0l.15.09a.3.3,0,0,1-.12-.28.93.93,0,0,1,.43-.75.31.31,0,0,1,.3,0l-.16-.09Z"/><path class="cls-11" d="M46.46,30.52a.77.77,0,0,1-.35.6.27.27,0,0,1-.24,0,.24.24,0,0,0,.27,0,.77.77,0,0,0,.35-.6c0-.12,0-.2-.11-.23A.26.26,0,0,1,46.46,30.52Z"/><path class="cls-21" d="M46.14,30.34a.77.77,0,0,0-.35.6.26.26,0,0,0,.08.21.27.27,0,0,0,.24,0,.77.77,0,0,0,.35-.6.26.26,0,0,0-.08-.21A.24.24,0,0,0,46.14,30.34Z"/><polygon class="cls-20" points="44.56 31.42 44.68 31.48 44.99 31.3 44.88 31.23 44.56 31.42"/><path class="cls-12" d="M44.87,30.5a.54.54,0,1,0,.54.54A.54.54,0,0,0,44.87,30.5Z"/><path class="cls-6" d="M45.22,30.77a.94.94,0,0,0-.44.75c0,.28.2.39.44.25a1,1,0,0,0,.44-.75C45.66,30.74,45.46,30.63,45.22,30.77Z"/><path class="cls-11" d="M45.36,30.64a.3.3,0,0,0-.31,0,1,1,0,0,0-.44.75.29.29,0,0,0,.15.29h0l.15.09a.29.29,0,0,1-.13-.28.94.94,0,0,1,.44-.75.29.29,0,0,1,.29,0l-.15-.09Z"/><path class="cls-11" d="M45.54,31.05a.77.77,0,0,1-.35.6.27.27,0,0,1-.24,0,.24.24,0,0,0,.27,0,.77.77,0,0,0,.35-.6c0-.12,0-.2-.11-.23A.26.26,0,0,1,45.54,31.05Z"/><path class="cls-21" d="M45.22,30.87a.77.77,0,0,0-.35.6.26.26,0,0,0,.08.21.27.27,0,0,0,.24,0,.77.77,0,0,0,.35-.6.26.26,0,0,0-.08-.21A.27.27,0,0,0,45.22,30.87Z"/><polygon class="cls-6" points="44.25 32.12 43.87 31.89 43.87 30.4 44.83 30.95 44.89 31.09 44.25 32.12"/><polygon class="cls-12" points="47.81 29.39 47.81 29.23 44.83 30.95 44.83 31.11 44.25 32.12 44.39 32.03 44.97 31.03 47.81 29.39"/><polygon class="cls-13" points="47.81 29.23 44.83 30.95 43.87 30.4 46.84 28.68 47.81 29.23"/><polygon class="cls-14" points="47.02 26.03 32.41 34.46 30.88 27.76 45.49 19.33 47.02 26.03"/><polygon class="cls-13" points="46.33 24.51 40.63 27.95 40.21 27.31 45.7 24.14 46.33 24.51"/><polygon class="cls-22" points="45.7 24.14 40.21 27.31 39.39 23.75 44.88 20.58 45.7 24.14"/><polygon class="cls-19" points="45.13 23.64 42.37 22.04 44.49 20.81 45.13 23.64"/><polygon class="cls-6" points="46.33 24.51 45.7 24.14 44.88 20.58 45.52 20.58 46.46 24.36 46.33 24.51"/><path class="cls-11" d="M45.4,21.31a.11.11,0,0,0,0-.07.25.25,0,0,0-.11-.18h-.07l-5.58,3.23.14.26Z"/><path class="cls-12" d="M39.84,24.47a.22.22,0,0,0-.11-.18s-.1,0-.1.06a.25.25,0,0,0,.11.18A.06.06,0,0,0,39.84,24.47Z"/><path class="cls-11" d="M45.53,21.88s0,0,0-.07a.27.27,0,0,0-.1-.18h-.07L39.8,24.85l.14.26Z"/><path class="cls-12" d="M40,25a.21.21,0,0,0-.1-.18c-.06,0-.1,0-.1.06a.21.21,0,0,0,.1.18C39.93,25.13,40,25.1,40,25Z"/><path class="cls-11" d="M45.67,22.45a.1.1,0,0,0,0-.07.19.19,0,0,0-.1-.17.06.06,0,0,0-.07,0l-5.58,3.22.14.26Z"/><path class="cls-12" d="M40.11,25.61a.22.22,0,0,0-.11-.18.06.06,0,0,0-.1.06.22.22,0,0,0,.11.18C40.06,25.7,40.11,25.68,40.11,25.61Z"/><path class="cls-11" d="M45.8,23a.06.06,0,0,0,0-.06.24.24,0,0,0-.1-.18.06.06,0,0,0-.07,0L40.07,26l.14.26Z"/><path class="cls-12" d="M40.24,26.18a.24.24,0,0,0-.1-.18c-.06,0-.1,0-.1.06a.21.21,0,0,0,.1.18C40.2,26.27,40.24,26.25,40.24,26.18Z"/><path class="cls-11" d="M45.94,23.59a.09.09,0,0,0,0-.06.22.22,0,0,0-.11-.18.06.06,0,0,0-.07,0l-5.58,3.23.13.25Z"/><path class="cls-12" d="M40.38,26.75a.25.25,0,0,0-.11-.18.06.06,0,0,0-.1.06.22.22,0,0,0,.11.18S40.38,26.82,40.38,26.75Z"/><path class="cls-11" d="M46.07,24.17a.09.09,0,0,0,0-.07.24.24,0,0,0-.1-.18s0,0-.07,0l-5.59,3.23.14.25Z"/><path class="cls-12" d="M40.51,27.32a.21.21,0,0,0-.1-.17c-.06,0-.1,0-.1.06a.21.21,0,0,0,.1.17C40.47,27.42,40.51,27.39,40.51,27.32Z"/><polygon class="cls-13" points="45.61 20.36 44.59 21.08 41.22 23.04 39.53 23.87 39.14 23.64 45.22 20.13 45.61 20.36"/><polygon class="cls-6" points="40.51 28.13 40.11 27.9 39.14 23.64 39.53 23.87 39.82 24.6 40.55 27.83 40.51 28.13"/><path class="cls-12" d="M45.46,20.7l.87,3.81-5.67,3.27L39.79,24l5.67-3.28Zm.15-.34-6.08,3.51,1,4.26,6.07-3.51-1-4.26Z"/><polygon class="cls-13" points="38.6 28.97 32.9 32.41 32.48 31.77 37.97 28.6 38.6 28.97"/><polygon class="cls-22" points="37.97 28.6 32.48 31.77 31.67 28.21 37.16 25.04 37.97 28.6"/><polygon class="cls-6" points="38.6 28.97 37.97 28.6 37.16 25.04 37.8 25.04 38.73 28.82 38.6 28.97"/><path class="cls-11" d="M37.67,25.77a.08.08,0,0,0,0-.07.27.27,0,0,0-.1-.18h-.07l-5.59,3.23.14.26Z"/><path class="cls-12" d="M32.11,28.93a.21.21,0,0,0-.1-.18c-.06,0-.11,0-.1.06A.24.24,0,0,0,32,29C32.07,29,32.11,29,32.11,28.93Z"/><path class="cls-11" d="M37.8,26.34s0,0,0-.07a.21.21,0,0,0-.1-.17.06.06,0,0,0-.07,0l-5.59,3.22.14.26Z"/><path class="cls-12" d="M32.25,29.5a.22.22,0,0,0-.11-.18s-.1,0-.1.06a.24.24,0,0,0,.1.18C32.2,29.59,32.25,29.57,32.25,29.5Z"/><path class="cls-11" d="M37.94,26.91a.06.06,0,0,0,0-.06.24.24,0,0,0-.1-.18.06.06,0,0,0-.07,0l-5.59,3.22.14.26Z"/><path class="cls-12" d="M32.38,30.07a.25.25,0,0,0-.1-.18c-.06,0-.1,0-.1.06a.21.21,0,0,0,.1.18S32.38,30.14,32.38,30.07Z"/><path class="cls-11" d="M38.07,27.48a.06.06,0,0,0,0-.06.21.21,0,0,0-.1-.18.06.06,0,0,0-.07,0l-5.59,3.22.14.26Z"/><path class="cls-12" d="M32.52,30.64a.25.25,0,0,0-.11-.18.06.06,0,0,0-.1.06.24.24,0,0,0,.1.18C32.47,30.73,32.52,30.71,32.52,30.64Z"/><path class="cls-11" d="M38.21,28.05a.06.06,0,0,0,0-.06.22.22,0,0,0-.11-.18,0,0,0,0,0-.06,0L32.48,31l.14.25Z"/><path class="cls-12" d="M32.65,31.21a.27.27,0,0,0-.1-.18c-.06,0-.11,0-.11.06a.25.25,0,0,0,.11.18C32.61,31.31,32.65,31.28,32.65,31.21Z"/><path class="cls-11" d="M38.34,28.63a.09.09,0,0,0,0-.07.21.21,0,0,0-.1-.18s-.05,0-.07,0L32.61,31.6l.14.25Z"/><path class="cls-12" d="M32.79,31.79a.22.22,0,0,0-.11-.18s-.1,0-.1.06a.23.23,0,0,0,.1.17C32.74,31.88,32.79,31.85,32.79,31.79Z"/><polygon class="cls-13" points="37.88 24.82 36.86 25.54 33.49 27.5 31.81 28.33 31.41 28.1 37.49 24.59 37.88 24.82"/><polygon class="cls-6" points="32.78 32.59 32.39 32.36 31.41 28.1 31.81 28.33 32.09 29.06 32.82 32.29 32.78 32.59"/><path class="cls-12" d="M37.73,25.16,38.6,29l-5.67,3.27-.87-3.8,5.67-3.28Zm.16-.34-6.08,3.51,1,4.26,6.08-3.51-1-4.26Z"/></g></g></svg>