<svg xmlns="http://www.w3.org/2000/svg" viewBox="0 0 65.85 30.73"><defs><style>.cls-1,.cls-2{fill:#97a8c2;}.cls-1,.cls-10,.cls-12,.cls-19,.cls-20,.cls-21,.cls-3,.cls-4,.cls-5,.cls-6,.cls-7,.cls-9{fill-rule:evenodd;}.cls-11,.cls-3{fill:#c9d1da;}.cls-14,.cls-4{fill:#e4e6ea;}.cls-15,.cls-5{fill:#5c749a;}.cls-6,.cls-8{fill:#a92930;}.cls-7{fill:#d9252c;}.cls-9{fill:#bbc4d4;}.cls-10,.cls-16{fill:#e5e8ec;}.cls-12{fill:#fff;}.cls-13{fill:#9badc4;}.cls-17,.cls-21{fill:#231f20;}.cls-18,.cls-19{fill:#ed1c24;}.cls-20{fill:#6c8cc7;}</style></defs><g id="Слой_2" data-name="Слой 2"><g id="Layer_1" data-name="Layer 1"><polygon class="cls-1" points="64.95 19.55 63.7 21.41 63.7 21.4 63.61 21.36 64.97 19.35 64.95 19.55"/><rect class="cls-2" x="65.48" y="15.62" width="0.14" height="0.35"/><rect class="cls-2" x="64.47" y="15.74" width="1.15" height="0.1"/><rect class="cls-2" x="64.83" y="16.22" width="0.15" height="0.1"/><rect class="cls-2" x="64.49" y="15.62" width="0.14" height="0.35"/><rect class="cls-2" x="64.97" y="15.74" width="0.14" height="5.39"/><polygon class="cls-3" points="5.14 17.9 24.75 17.9 23.79 19.97 3.72 19.91 5.14 17.9"/><polygon class="cls-4" points="24.62 18.18 4.94 18.18 5.14 17.9 24.75 17.9 24.62 18.18"/><path class="cls-5" d="M1.46,24.31h.46l-.09,3.45H1.46a1,1,0,0,1-1-1V25.28A1,1,0,0,1,1.46,24.31Z"/><path class="cls-1" d="M1.68,24.81l-.08,3H1.46a1,1,0,0,1-1-1v-1a1,1,0,0,1,1-1Z"/><path class="cls-6" d="M2.37,26.34l0,1.42H1.46a1,1,0,0,1-1-1v-.46Z"/><path class="cls-7" d="M.49,26.84v-.5H1.64l0,1H1.27A.9.9,0,0,1,.49,26.84Z"/><path class="cls-5" d="M.07,24.87H.58a.91.91,0,0,0-.09.41V26.8a1,1,0,0,0,.09.41H.07Z"/><path class="cls-1" d="M.36,25.53V26.8a1.14,1.14,0,0,0,.07.41H.07V25.53Z"/><path class="cls-6" d="M.49,26.34v.46a1,1,0,0,0,.09.41H.07v-.87Z"/><rect class="cls-8" x="0.07" y="26.34" width="0.42" height="0.44"/><rect class="cls-2" x="42.5" y="18.01" width="0.2" height="1.77" transform="translate(23.31 61.32) rotate(-89.47)"/><path class="cls-9" d="M42.27,16.82l-.8,0a.45.45,0,0,1,.14-.36C41.88,16.51,42.25,16.61,42.27,16.82Z"/><path class="cls-10" d="M41.51,16.69l1.16,0A1.89,1.89,0,0,1,44,17.78v.55a.52.52,0,0,1-.49.51l-2,0a.5.5,0,0,1-.51-.49l0-1.2A.48.48,0,0,1,41.51,16.69Z"/><path class="cls-9" d="M43.58,18.83h0l-2,0a.5.5,0,0,1-.51-.49l0-1.2a.46.46,0,0,1,.09-.3h0l1.16,0A1.9,1.9,0,0,1,43.68,18v.55A.45.45,0,0,1,43.58,18.83Z"/><path class="cls-3" d="M41.46,16.88l.86,0A1.9,1.9,0,0,1,43.68,18v.55a1,1,0,0,1,0,.17l-1.69,0a.5.5,0,0,1-.51-.48l0-1.2A.32.32,0,0,1,41.46,16.88Z"/><path class="cls-3" d="M43.79,17.34l.85,0v.44H44a1,1,0,0,0-.25-.43Z"/><rect class="cls-2" x="44.64" y="17.4" width="2.51" height="0.23" transform="translate(-0.38 1.02) rotate(-1.27)"/><path class="cls-2" d="M41.41,18.57a.19.19,0,0,1-.2-.19l0-.9a.2.2,0,0,1,.06-.15.17.17,0,0,1,.14-.06h.32a.2.2,0,0,1,.21.2l0,.9a.22.22,0,0,1-.2.21Zm.31-1.14h-.33l0,0,0,.9s0,0,0,0v0h.33a0,0,0,0,0,0,0l0-.91A0,0,0,0,0,41.72,17.43Z"/><path class="cls-2" d="M42.36,18.55a.2.2,0,0,1-.2-.19l0-.9a.2.2,0,0,1,.06-.15.18.18,0,0,1,.14-.06h.32a.2.2,0,0,1,.21.2l0,.9a.2.2,0,0,1-.06.14.21.21,0,0,1-.14.07Zm.31-1.14h-.35v0l0,.9a0,0,0,0,0,0,0v0h.33a0,0,0,0,0,0,0l0-.9A0,0,0,0,0,42.67,17.41Z"/><path class="cls-5" d="M21.35,8.71h0a.32.32,0,0,1,.15,0V10s-.07,0-.15,0h0c-.08,0-.15,0-.15,0V8.73A.32.32,0,0,1,21.35,8.71Z"/><polygon class="cls-5" points="24.03 13.16 36.66 13.16 36.66 15.17 37.46 20.15 22.99 20.15 24.03 13.16"/><polygon class="cls-1" points="24.75 13.16 36.66 13.16 36.66 15.17 37.46 20.15 23.71 20.15 24.75 13.16"/><path class="cls-3" d="M36.66,15.16h0l.8,5H35.82c-1.77-.3-3.08-1.28-3.08-2.45C32.74,16.35,34.47,15.24,36.66,15.16Z"/><path class="cls-10" d="M36.7,15.42l.76,4.73h-.59c-1.59-.36-2.74-1.29-2.74-2.39S35.19,15.8,36.7,15.42Z"/><rect class="cls-2" x="32.43" y="17.31" width="6.26" height="3.1"/><rect class="cls-11" x="37.61" y="17.31" width="1.08" height="3.1"/><path class="cls-3" d="M32,13.36a1.17,1.17,0,1,0-1.17-1.17A1.17,1.17,0,0,0,32,13.36Z"/><path class="cls-10" d="M32.13,11a1.18,1.18,0,0,1,1.08,1.07,1,1,0,0,1-1,.9,1,1,0,0,1-.09-2Z"/><path class="cls-12" d="M32.07,11.12a.8.8,0,0,1,.84.61.68.68,0,1,1-.84-.61Z"/><rect class="cls-13" x="30.82" y="12.57" width="2.52" height="0.6"/><rect class="cls-14" x="30.82" y="12.57" width="2.52" height="0.18"/><rect class="cls-15" x="30.82" y="12.74" width="0.73" height="0.42"/><path class="cls-3" d="M26.58,9.63a1.17,1.17,0,1,0,0-2.34,1.17,1.17,0,1,0,0,2.34Z"/><path class="cls-10" d="M26.68,7.3a1.17,1.17,0,0,1,1.07,1.07,1,1,0,0,1-2-.09A1,1,0,0,1,26.68,7.3Z"/><path class="cls-12" d="M26.61,7.39a.81.81,0,0,1,.85.61.7.7,0,0,1-.57.73.69.69,0,0,1-.28-1.34Z"/><rect class="cls-13" x="25.37" y="8.84" width="2.52" height="0.6"/><rect class="cls-14" x="25.37" y="8.84" width="2.52" height="0.18"/><rect class="cls-15" x="25.37" y="9.01" width="0.73" height="0.42"/><path class="cls-15" d="M24.2,12.69l-1.3-2.34-.19.3V7.31h-.2l.2-.26V5.81h-.17l.17-.25V1.74l1.06,2.61H24l-.15.22.35.85h.27l-.18.23.52,1.27H25l-.13.22,1.22,3ZM23.14,10l1.12,2,1.41-1.88-1-2.53Zm0-2.65v2l1.22-2Zm.21-.39h1.07L24,6Zm-.21-1.11v.73l.56-.73Zm.18-.39h.49L23.6,5Z"/><polygon class="cls-1" points="33.28 13.16 37.24 13.16 36.66 15.14 33.28 15.14 33.28 13.16"/><polygon class="cls-5" points="24.51 10.28 28.72 10.28 29.33 13.16 24.12 13.16 24.51 10.28"/><polygon class="cls-1" points="25.12 10.28 28.72 10.28 29.33 13.16 24.73 13.16 25.12 10.28"/><polygon class="cls-10" points="27.02 10.28 28.72 10.28 29.33 13.16 26.72 13.16 27.02 10.28"/><path class="cls-3" d="M27,10.28h1.7L29,11.57a2.92,2.92,0,0,0-2-.77Z"/><rect class="cls-14" x="20.84" y="9.95" width="8.4" height="0.37"/><path class="cls-5" d="M24.5,10.32h4.23l.14.69c-.6-.42-2.41-.43-4.41-.38Z"/><rect class="cls-2" x="24.72" y="9.43" width="3.8" height="0.52"/><rect class="cls-15" x="33.55" y="13.52" width="0.8" height="1.27"/><polygon class="cls-5" points="34.8 13.52 35.83 13.52 35.6 14.79 34.8 14.79 34.8 13.52"/><polygon class="cls-5" points="36.33 13.52 37.14 13.52 36.76 14.79 35.99 14.79 36.33 13.52"/><rect class="cls-14" x="32.41" y="17.31" width="6.28" height="0.19"/><rect class="cls-15" x="32.41" y="17.5" width="6.28" height="0.19"/><path class="cls-16" d="M26.39,16.25l.16,0a.4.4,0,0,1,.38.21,1.45,1.45,0,0,1,.12.68v.16a1.19,1.19,0,0,1-.14.64.56.56,0,0,1-.51.21h0v-.39h0a.16.16,0,0,0,.16-.08.64.64,0,0,0,.05-.3v-.28a.92.92,0,0,0-.05-.35.14.14,0,0,0-.14-.11h0v-.37Zm0-1.17h0a.57.57,0,0,1,.45.17,1.06,1.06,0,0,1,.14.59V16h-.43v-.06a1.37,1.37,0,0,0,0-.36.13.13,0,0,0-.14-.09Zm-.21,1.29a.37.37,0,0,1,.21-.12v.37a.34.34,0,0,0-.14.05.19.19,0,0,0-.07.11v.54a.78.78,0,0,0,.05.32.15.15,0,0,0,.16.1v.39a.57.57,0,0,1-.59-.35,1.76,1.76,0,0,1-.07-.57V16c0-.43.1-.7.29-.81a.7.7,0,0,1,.37-.09v.4h0a.15.15,0,0,0-.16.09,1.1,1.1,0,0,0,0,.38Z"/><path class="cls-16" d="M27.6,18.1V15.68a.38.38,0,0,1-.16.11.78.78,0,0,1-.21,0v-.34a.53.53,0,0,0,.28-.12.6.6,0,0,0,.19-.25h.36v3Z"/><path class="cls-16" d="M29.11,18.13c-.4,0-.59-.2-.59-.61v-.38h.42v.33a.32.32,0,0,0,.08.26l.1,0h0q.15,0,.15-.3v-.76a.49.49,0,0,0,0-.24c0-.06-.06-.08-.13-.08s-.18.09-.18.29l-.39,0V15.12h1.1v.4H29v.61a.2.2,0,0,1,.12-.1.39.39,0,0,1,.18,0,.36.36,0,0,1,.37.23,2.07,2.07,0,0,1,.1.73,3.67,3.67,0,0,1,0,.69.61.61,0,0,1-.1.29A.5.5,0,0,1,29.11,18.13Z"/><rect class="cls-14" x="24.72" y="9.43" width="3.8" height="0.14"/><rect class="cls-15" x="24.72" y="9.57" width="1.58" height="0.38"/><rect class="cls-14" x="23.98" y="13.12" width="13.3" height="0.14"/><polygon class="cls-5" points="24.74 13.26 37.14 13.26 37.14 13.4 24.71 13.4 24.74 13.26"/><rect class="cls-15" x="24.88" y="10.93" width="0.53" height="0.91"/><rect class="cls-2" x="21.09" y="5.45" width="4.48" height="0.18"/><rect class="cls-2" x="21.68" y="1.27" width="0.15" height="4.18"/><path class="cls-5" d="M21.78,0h0c.09,0,.15,0,.15,0V1.25s-.06,0-.15,0h0c-.08,0-.14,0-.14,0V0S21.7,0,21.78,0Z"/><rect class="cls-2" x="22.5" y="1.16" width="0.13" height="0.32"/><rect class="cls-2" x="21.74" y="1.27" width="0.83" height="0.09"/><rect class="cls-2" x="22.14" y="2.2" width="0.13" height="0.32"/><rect class="cls-2" x="21.74" y="2.31" width="0.46" height="0.09"/><path class="cls-5" d="M24.6,4.22h0a.27.27,0,0,1,.15,0V5.47a.27.27,0,0,1-.15,0h0a.27.27,0,0,1-.15,0V4.25A.27.27,0,0,1,24.6,4.22Z"/><rect class="cls-2" x="20.84" y="10.06" width="8.4" height="0.27"/><path class="cls-4" d="M39.93,19h5.33a.32.32,0,0,1,.28.34V21a.32.32,0,0,1-.28.34H39.93a.32.32,0,0,1-.28-.34V19.33A.32.32,0,0,1,39.93,19Z"/><path class="cls-3" d="M45,21.29H39.93a.32.32,0,0,1-.28-.34V19.33a.38.38,0,0,1,.05-.19h5.09a.31.31,0,0,1,.28.33V21.1A.41.41,0,0,1,45,21.29Z"/><path class="cls-5" d="M.73,22.4,37,22.34l28.85-1.15a37,37,0,0,1-7.44,5.15h-57l-.74-2L0,24.38Z"/><path class="cls-1" d="M1,24.42H36.82l29-3.23a37,37,0,0,1-7.44,5.15H1.68Z"/><polygon class="cls-5" points="0.75 22.34 37 22.34 65.1 21.22 39.18 23.17 0.45 23.17 0.75 22.34"/><path class="cls-5" d="M63,23.51a38.9,38.9,0,0,1-4.57,2.83h-8C54.87,25.54,59.54,24.41,63,23.51Z"/><polygon class="cls-4" points="1.61 20.07 26.76 20.02 33.63 19.71 34.72 19.19 65.85 21.2 36.64 23.77 0.18 23.77 1.61 20.07"/><path class="cls-5" d="M35.93,22a.34.34,0,0,0,.34-.33.34.34,0,0,0-.67,0A.33.33,0,0,0,35.93,22Z"/><path class="cls-6" d="M9,26.34c.06.31.68,2.85,1,2.87l36.28.23c2.25,0,6.3-.15,8.28-1.1s2.62-1.33,3.92-2Z"/><path class="cls-7" d="M52.43,29a8.83,8.83,0,0,0,2.06-.62c2-1,2.62-1.33,3.92-2H1.68l.48,1.73Z"/><path class="cls-6" d="M1.94,27.3c.23.83.54,1.87.73,1.88l43.54.26c2.25,0,6.3-.15,8.28-1.1s2.62-1.33,3.92-2h-8a53.09,53.09,0,0,1-8.81,1Z"/><polygon class="cls-3" points="33.92 19.57 60.97 21.17 62.38 20.91 34.72 19.19 33.92 19.57"/><path class="cls-17" d="M62.42,21l-13.14-.8V18.66h.26v0l2.32.14v0l.26,0v0l2.31.14v0l.26,0v0l2.32.14v0h.26v0l2.32.15v0h.25v0l2.32.14v0l.26,0Zm-2.58-.32,2.32.14v-.2l-2.32-.14Zm-2.57-.16,2.32.14v-.19l-2.32-.15Zm-2.58-.16,2.32.14V20.3l-2.32-.14Zm5.15,0,2.32.14v-.33L59.84,20Zm-7.72-.12,2.31.15v-.2L52.12,20Zm5.15,0,2.32.14V20l-2.32-.14ZM49.54,20l2.32.14V20l-2.32-.14ZM54.69,20l2.32.14V19.8l-2.32-.14Zm-2.57-.16,2.31.14v-.32l-2.31-.15Zm7.72,0,2.32.14v-.31l-2.32-.14Zm-10.3-.13,2.32.14v-.33l-2.32-.14Zm7.73,0,2.32.14v-.31l-2.32-.14Zm-2.58-.16,2.32.15v-.31l-2.32-.15Zm-2.57-.15,2.31.14v-.31L52.12,19Zm-2.58-.16,2.32.14V19l-2.32-.14Z"/><path class="cls-17" d="M49.54,20.21l-.18,0L47,20.05h-.15l-2.52-.16h-.08l-9.5-.58,0-.17,1.67.11V19l-1.74-.11v-.16l1.73.1v-.33l-1.83-.11v-.16l1.82.11v-.31L34.5,18v-.17l1.9.12v0h.25v0l2.32.15v0h.26v0l2.32.14v0l.26,0v0l2.31.14v0l.26,0v0l2.32.14v0H47v0l2.32.15v0h.25ZM47,19.88l2.32.14v-.19L47,19.68Zm-2.58-.16,2.32.14v-.19l-2.32-.14Zm-2.57-.15,2.31.14v-.2l-2.31-.14ZM47,19.52l2.32.14v-.33L47,19.19Zm-7.73-.11,2.32.14v-.2l-2.32-.14Zm5.15-.05,2.32.14v-.33L44.39,19Zm-7.73-.11,2.32.14V19.2l-2.32-.14Zm5.16-.05,2.31.14V19l-2.31-.15Zm-2.58-.15,2.32.14v-.33l-2.32-.14ZM47,19l2.32.14v-.31L47,18.71Zm-10.31-.13L39,19V18.7l-2.32-.14Zm7.73,0,2.32.15V18.7l-2.32-.15Zm-2.57-.15,2.31.14v-.31l-2.31-.14Zm-2.58-.16,2.32.14v-.31l-2.32-.14Zm-2.58-.16,2.32.14v-.31l-2.32-.14Z"/><path class="cls-5" d="M33.37,22a.33.33,0,0,0,.33-.33.33.33,0,0,0-.66,0A.33.33,0,0,0,33.37,22Z"/><path class="cls-5" d="M30.81,22a.33.33,0,0,0,.33-.33.33.33,0,0,0-.66,0A.33.33,0,0,0,30.81,22Z"/><path class="cls-5" d="M28.25,22a.33.33,0,0,0,.33-.33.33.33,0,0,0-.33-.33.32.32,0,0,0-.33.33A.33.33,0,0,0,28.25,22Z"/><path class="cls-5" d="M25.68,22a.34.34,0,0,0,.34-.33.34.34,0,0,0-.67,0A.33.33,0,0,0,25.68,22Z"/><polygon class="cls-6" points="4.53 27.32 3.71 28.28 4.92 28.34 6.13 27.32 4.53 27.32"/><rect class="cls-18" x="2.93" y="29.15" width="3.61" height="0.51" transform="translate(-2.89 0.61) rotate(-5.68)"/><polygon class="cls-19" points="4.53 27.32 3.82 29.24 6 29.03 8.45 27.32 4.53 27.32"/><path class="cls-19" d="M2.41,29.5l13.72-1.37a.15.15,0,0,1,.16.13h0a.15.15,0,0,1-.13.16L2.43,29.78a.15.15,0,0,1-.16-.12h0A.15.15,0,0,1,2.41,29.5Z"/><path class="cls-20" d="M3.16,29.64l-.37-.28-.15-.89A1,1,0,0,1,3.16,29.64Z"/><path class="cls-20" d="M3.14,29.47l-.3.35,0,.91A1,1,0,0,0,3.14,29.47Z"/><polygon class="cls-19" points="42.47 27.17 40.19 30.33 36.28 30.33 37.82 27.16 42.47 27.17"/><path class="cls-5" d="M22.08,19.45a.46.46,0,1,0-.45-.45A.45.45,0,0,0,22.08,19.45Z"/><path class="cls-5" d="M16,19.45a.46.46,0,1,0-.46-.45A.46.46,0,0,0,16,19.45Z"/><path class="cls-5" d="M10,19.45A.46.46,0,1,0,9.5,19,.45.45,0,0,0,10,19.45Z"/><path class="cls-21" d="M11.24,20Zm.1,0h0Zm.08-1.6h0Zm2.89,0h0Zm3,0h0Zm3,0h0Zm3,0h0ZM11.42,19h0Zm2.89,0h0Zm3,0h0Zm3,0h0Zm3,0h0Zm-11.78.6h0Zm2.89,0h0Zm3,0h0Zm3,0h0Zm3,0h0Zm-9-1.21h.11V20H14.2V18.36Zm-3,0h.1V20h-.1V18.36Zm5.93,0h.1V20h-.1V18.36Zm3,0h.11V20h-.11V18.36Zm3,0h.1V20h-.1V18.36Z"/><path class="cls-17" d="M23.29,20.08H11.15v-1.8h.27v0h2.7v0h.27v0h2.69v0h.28v0h2.69v0h.27v0H23v0h.27Zm-3-.16H23v-.27h-2.7Zm-3,0h2.69v-.27H17.36Zm-3,0h2.69v-.27H14.39Zm-3,0h2.7v-.27h-2.7Zm8.9-.44H23v-.43h-2.7Zm-3,0h2.69v-.43H17.36Zm-3,0h2.69v-.43H14.39Zm-3,0h2.7v-.43h-2.7Zm8.9-.59H23v-.41h-2.7Zm-3,0h2.69v-.41H17.36Zm-3,0h2.69v-.41H14.39Zm-3,0h2.7v-.41h-2.7Z"/><rect class="cls-2" x="9.25" y="15.37" width="2.11" height="1.9"/><rect class="cls-15" x="5.69" y="17.18" width="7.88" height="0.62"/><rect class="cls-2" x="9.62" y="13.09" width="1.63" height="4.54" transform="translate(-7.22 21.14) rotate(-73.91)"/><rect class="cls-15" x="9.75" y="13.26" width="1.52" height="4.37" transform="translate(-7.24 21.26) rotate(-73.9)"/><rect class="cls-15" x="7.13" y="14.1" width="1.31" height="0.99" transform="translate(-8.4 18.03) rotate(-73.89)"/><rect class="cls-2" x="7.21" y="16.33" width="1.66" height="0.86"/><rect class="cls-2" x="7.8" y="13.9" width="0.21" height="0.77" transform="translate(-8.02 17.92) rotate(-73.9)"/><rect class="cls-2" x="7.71" y="14.22" width="0.21" height="0.77" transform="translate(-8.39 18.06) rotate(-73.88)"/><rect class="cls-2" x="7.62" y="14.55" width="0.21" height="0.76" transform="translate(-8.76 18.2) rotate(-73.88)"/></g></g></svg>