<svg xmlns="http://www.w3.org/2000/svg" viewBox="0 0 62.72 47.11"><defs><style>.cls-1,.cls-17{opacity:0.3;}.cls-2{fill:#050505;}.cls-3{fill:#383838;}.cls-4{fill:#575757;}.cls-5{fill:#54634a;}.cls-6{fill:#7b916d;}.cls-7{fill:#687a5c;}.cls-8{fill:#666;}.cls-9{fill:gray;}.cls-10{fill:#adadad;}.cls-11{fill:#9cb88a;}.cls-12{fill:#8aa37b;}.cls-13{fill:#5d6e52;}.cls-14{fill:#abc997;}.cls-15{fill:#4e5c45;}.cls-16{fill:#36402f;}.cls-17,.cls-18{fill:#121214;}.cls-19{fill:#6fad88;}.cls-20{fill:#4b6957;}.cls-21{fill:#466954;}.cls-22{fill:#548568;}.cls-23{fill:#0c0c0d;}.cls-24{fill:#939598;}.cls-25{fill:#bcbec0;}.cls-26{fill:#303033;}.cls-27{fill:#517fa2;}</style></defs><g id="Слой_2" data-name="Слой 2"><g id="Layer_1" data-name="Layer 1"><polygon class="cls-1" points="36.85 47.1 0 25.83 22.07 13.08 58.93 34.36 36.85 47.1"/><polygon class="cls-2" points="52.98 33.78 50.13 34.79 22.54 18.9 17.79 11.99 17.59 11.16 17.59 10.01 18.4 9.56 20 9.74 54.08 29.95 54.81 31.37 54.78 33.07 52.98 33.78"/><path class="cls-3" d="M23.3,11.17a3.36,3.36,0,0,0-1.53-2.64,1.06,1.06,0,0,0-1.08-.11l-1.08.63,2.18,3.71,1.08-.62A1.08,1.08,0,0,0,23.3,11.17Z"/><path class="cls-4" d="M22.23,11.78c0,1-.68,1.37-1.53.88A3.36,3.36,0,0,1,19.18,10c0-1,.68-1.36,1.53-.88A3.38,3.38,0,0,1,22.23,11.78Z"/><path class="cls-5" d="M21.84,12.46a.87.87,0,0,1-1.14,0,3,3,0,0,1-1.37-2.38c0-.55.23-.89.59-1a1.11,1.11,0,0,0-.23.76,3,3,0,0,0,1.38,2.39A1.17,1.17,0,0,0,21.84,12.46Z"/><path class="cls-2" d="M22.08,11.7a1.13,1.13,0,0,1-.23.76h0a1.17,1.17,0,0,1-.77-.17A3,3,0,0,1,19.69,9.9a1.11,1.11,0,0,1,.23-.76h0a1.05,1.05,0,0,1,.77.17A3,3,0,0,1,22.08,11.7Z"/><path class="cls-3" d="M21.91,12a3.39,3.39,0,0,0-1.53-2.64,1.08,1.08,0,0,0-1.08-.1l-1.08.62,2.18,3.72,1.08-.63A1.09,1.09,0,0,0,21.91,12Z"/><path class="cls-4" d="M20.84,12.59c0,1-.69,1.36-1.53.88a3.38,3.38,0,0,1-1.52-2.64c0-1,.68-1.37,1.52-.88A3.39,3.39,0,0,1,20.84,12.59Z"/><path class="cls-5" d="M20.45,13.26c-.24.28-.66.31-1.14,0a3.06,3.06,0,0,1-1.38-2.39c0-.54.24-.89.6-1a1.08,1.08,0,0,0-.23.75,3,3,0,0,0,1.37,2.39A1.09,1.09,0,0,0,20.45,13.26Z"/><path class="cls-6" d="M20.69,12.51a1.1,1.1,0,0,1-.24.75h0a1.09,1.09,0,0,1-.78-.17A3,3,0,0,1,18.3,10.7a1.08,1.08,0,0,1,.23-.75h0a1.14,1.14,0,0,1,.78.18A3,3,0,0,1,20.69,12.51Z"/><path class="cls-5" d="M20.12,12.12c-.09.11-.26.12-.45,0a1.25,1.25,0,0,1-.55-1c0-.22.1-.36.24-.39a.46.46,0,0,0-.1.31,1.25,1.25,0,0,0,.55,1A.47.47,0,0,0,20.12,12.12Z"/><path class="cls-7" d="M20.23,11.82a.43.43,0,0,1-.1.3h0a.47.47,0,0,1-.31-.06,1.25,1.25,0,0,1-.55-1,.46.46,0,0,1,.1-.31h0a.42.42,0,0,1,.31.07A1.23,1.23,0,0,1,20.23,11.82Z"/><path class="cls-5" d="M19.93,12.91c-.05.08-.14.11-.26,0a.61.61,0,0,1-.27-.48c0-.13.06-.2.16-.19a.36.36,0,0,0,0,.11.61.61,0,0,0,.27.48Z"/><path class="cls-7" d="M20,12.79a.37.37,0,0,1,0,.12l-.12,0a.61.61,0,0,1-.27-.48.36.36,0,0,1,0-.11.23.23,0,0,1,.11,0A.6.6,0,0,1,20,12.79Z"/><path class="cls-5" d="M19.4,10.21a.59.59,0,0,0,.27.47c.12.07.21.05.26,0a.19.19,0,0,1-.12,0,.64.64,0,0,1-.24-.31l-.17-.12Z"/><path class="cls-7" d="M19.81,10.6a.19.19,0,0,0,.12,0h0a2.38,2.38,0,0,0-.36-.35A.64.64,0,0,0,19.81,10.6Z"/><path class="cls-5" d="M18.94,11.21c0,.08-.13.11-.25,0a.61.61,0,0,1-.27-.48c0-.13.06-.2.16-.19a.2.2,0,0,0,0,.11.61.61,0,0,0,.27.48Z"/><path class="cls-7" d="M19,11.09a.21.21,0,0,1,0,.12l-.11,0a.61.61,0,0,1-.27-.48.2.2,0,0,1,0-.11.23.23,0,0,1,.11,0A.61.61,0,0,1,19,11.09Z"/><path class="cls-5" d="M20.52,11.83a.37.37,0,0,1,0-.12c-.09,0-.16.07-.16.2a.59.59,0,0,0,.28.47l0,0c0-.07,0-.14,0-.21A.58.58,0,0,1,20.52,11.83Z"/><path class="cls-7" d="M20.52,11.83a.58.58,0,0,0,.15.36,4.21,4.21,0,0,0-.12-.48h0A.37.37,0,0,0,20.52,11.83Z"/><path class="cls-5" d="M18.79,10.41c.1.19.28.29.39.22a.1.1,0,0,0,.05-.06.42.42,0,0,1-.3-.24.41.41,0,0,1-.06-.39h0l-.06,0C18.68,10,18.68,10.22,18.79,10.41Z"/><path class="cls-7" d="M18.93,10.33a.42.42,0,0,0,.3.24.44.44,0,0,0-.05-.39A.6.6,0,0,0,19,10l-.08,0A.41.41,0,0,0,18.93,10.33Z"/><path class="cls-5" d="M20.62,13l-.06.06c-.1.06-.28,0-.39-.23s-.1-.38,0-.45a.14.14,0,0,1,.09,0,.42.42,0,0,0,0,.38A.47.47,0,0,0,20.62,13Z"/><path class="cls-7" d="M20.62,13a.47.47,0,0,1-.31-.25.42.42,0,0,1,0-.38.4.4,0,0,1,.3.24A.41.41,0,0,1,20.62,13Z"/><path class="cls-5" d="M20.44,11.45a2.66,2.66,0,0,0-.34-.59.54.54,0,0,0,.07.35A.54.54,0,0,0,20.44,11.45Z"/><path class="cls-5" d="M19.23,12.17a.18.18,0,0,1-.05.07c-.11.06-.29,0-.39-.23s-.11-.39,0-.45l.08,0a.41.41,0,0,0,.06.39A.4.4,0,0,0,19.23,12.17Z"/><path class="cls-7" d="M19.23,12.17a.4.4,0,0,1-.3-.24.41.41,0,0,1-.06-.39.47.47,0,0,1,.31.25A.42.42,0,0,1,19.23,12.17Z"/><path class="cls-8" d="M20.25,11.83a1.26,1.26,0,0,0-.57-1,.37.37,0,0,0-.4,0l-.12.07L20,12.26l.12-.07A.4.4,0,0,0,20.25,11.83Z"/><path class="cls-9" d="M20.13,11.89c0,.37-.25.51-.56.33a1.24,1.24,0,0,1-.57-1c0-.36.25-.51.57-.33A1.25,1.25,0,0,1,20.13,11.89Z"/><path class="cls-8" d="M19.94,11.83a.9.9,0,0,0-.41-.72.28.28,0,0,0-.29,0l-.09.05.59,1,.09-.05A.3.3,0,0,0,19.94,11.83Z"/><path class="cls-10" d="M19.86,11.88c0,.26-.19.37-.42.23A.9.9,0,0,1,19,11.4c0-.27.18-.37.41-.24A.91.91,0,0,1,19.86,11.88Z"/><path class="cls-9" d="M55.53,28.08a3.34,3.34,0,0,0,1.52,2.62c.84.49,1.52.09,1.52-.87a3.35,3.35,0,0,0-1.52-2.63C56.21,26.72,55.53,27.11,55.53,28.08Z"/><path class="cls-6" d="M55.68,28.16a3,3,0,0,0,1.37,2.38c.76.44,1.37.08,1.37-.8a3,3,0,0,0-1.37-2.37C56.29,26.93,55.68,27.28,55.68,28.16Z"/><path class="cls-7" d="M56.5,28.63a1.25,1.25,0,0,0,.55,1c.3.17.55,0,.55-.32a1.21,1.21,0,0,0-.55-.95C56.75,28.14,56.5,28.28,56.5,28.63Z"/><path class="cls-7" d="M56.78,29.92a.61.61,0,0,0,.27.48c.15.08.27,0,.27-.16a.61.61,0,0,0-.27-.48C56.9,29.68,56.78,29.75,56.78,29.92Z"/><path class="cls-7" d="M56.78,27.66a.61.61,0,0,0,.27.48c.15.09.27,0,.27-.16a.59.59,0,0,0-.27-.47C56.9,27.42,56.78,27.49,56.78,27.66Z"/><path class="cls-7" d="M58,29.83c.15.09.27,0,.27-.15A.61.61,0,0,0,58,29.2c-.15-.09-.28,0-.28.16A.6.6,0,0,0,58,29.83Z"/><path class="cls-7" d="M56.07,28.7c.15.09.28,0,.28-.15a.62.62,0,0,0-.28-.48c-.15-.09-.27,0-.27.16A.59.59,0,0,0,56.07,28.7Z"/><path class="cls-7" d="M57.94,28.89c.1-.06.1-.26,0-.45s-.29-.29-.39-.22-.11.26,0,.44S57.83,29,57.94,28.89Z"/><path class="cls-7" d="M56.55,29.69c.11-.06.11-.27,0-.45s-.28-.29-.39-.23-.1.27,0,.45S56.45,29.75,56.55,29.69Z"/><path class="cls-7" d="M56.55,27.64c-.1-.18-.28-.28-.39-.22s-.1.26,0,.45.29.28.39.22S56.66,27.83,56.55,27.64Z"/><path class="cls-7" d="M57.94,30c-.11-.19-.29-.29-.39-.23s-.11.27,0,.45.28.29.39.22S58,30.22,57.94,30Z"/><path class="cls-9" d="M24.77,10.32c0,1-.68,1.36-1.51.87a3.34,3.34,0,0,1-1.52-2.62c0-1,.68-1.36,1.52-.88A3.36,3.36,0,0,1,24.77,10.32Z"/><path class="cls-6" d="M24.63,10.23c0,.88-.62,1.23-1.37.8a3.05,3.05,0,0,1-1.38-2.38c0-.88.62-1.23,1.38-.79A3,3,0,0,1,24.63,10.23Z"/><path class="cls-7" d="M23.81,9.76c0,.35-.25.49-.55.31a1.19,1.19,0,0,1-.55-1c0-.35.24-.49.55-.31A1.21,1.21,0,0,1,23.81,9.76Z"/><path class="cls-7" d="M23.53,10.73c0,.17-.12.24-.27.16a.6.6,0,0,1-.28-.48c0-.17.12-.25.28-.16A.61.61,0,0,1,23.53,10.73Z"/><path class="cls-7" d="M23.53,8.47c0,.18-.12.25-.27.16A.6.6,0,0,1,23,8.15c0-.17.12-.24.28-.15A.59.59,0,0,1,23.53,8.47Z"/><path class="cls-7" d="M22.28,9.19A.6.6,0,0,1,22,8.72c0-.18.13-.25.28-.16a.61.61,0,0,1,.27.48C22.55,9.21,22.43,9.28,22.28,9.19Z"/><path class="cls-7" d="M24.23,10.32A.61.61,0,0,1,24,9.85c0-.18.12-.25.27-.16a.62.62,0,0,1,.28.47C24.51,10.34,24.38,10.41,24.23,10.32Z"/><path class="cls-7" d="M22.37,8.36c-.11-.19-.11-.39,0-.45s.28,0,.39.22.11.39,0,.45S22.48,8.54,22.37,8.36Z"/><path class="cls-7" d="M23.75,10.75c-.1-.19-.1-.39,0-.45s.28,0,.39.23.11.38,0,.44S23.86,10.94,23.75,10.75Z"/><path class="cls-7" d="M23.75,8.71c.11-.07.28,0,.39.22s.11.39,0,.45-.28,0-.39-.23S23.65,8.77,23.75,8.71Z"/><path class="cls-7" d="M22.37,9.5c.11-.06.28,0,.39.23s.11.38,0,.45-.28,0-.39-.23S22.26,9.57,22.37,9.5Z"/><path class="cls-3" d="M29.65,15.48a5.41,5.41,0,0,0-2.43-4.23,1.73,1.73,0,0,0-1.73-.17l-1.74,1L27.25,18,29,17A1.72,1.72,0,0,0,29.65,15.48Z"/><path class="cls-4" d="M27.94,16.47c0,1.55-1.09,2.18-2.44,1.4a5.4,5.4,0,0,1-2.44-4.22c0-1.56,1.1-2.19,2.44-1.41A5.39,5.39,0,0,1,27.94,16.47Z"/><path class="cls-2" d="M27.71,16.33c0,1.41-1,2-2.21,1.28a4.91,4.91,0,0,1-2.2-3.83c0-1.41,1-2,2.2-1.27A4.86,4.86,0,0,1,27.71,16.33Z"/><path class="cls-3" d="M27.44,16.76A5.39,5.39,0,0,0,25,12.53a1.71,1.71,0,0,0-1.73-.17l-1.73,1L25,19.31l1.73-1A1.74,1.74,0,0,0,27.44,16.76Z"/><path class="cls-4" d="M25.73,17.74c0,1.56-1.09,2.19-2.44,1.41a5.37,5.37,0,0,1-2.44-4.22c0-1.56,1.09-2.19,2.44-1.41A5.39,5.39,0,0,1,25.73,17.74Z"/><path class="cls-5" d="M25.12,18.82a1.39,1.39,0,0,1-1.83.06,4.86,4.86,0,0,1-2.21-3.82c0-.87.38-1.42,1-1.55a1.79,1.79,0,0,0-.38,1.21,4.9,4.9,0,0,0,2.21,3.83A1.74,1.74,0,0,0,25.12,18.82Z"/><path class="cls-6" d="M25.5,17.61a1.79,1.79,0,0,1-.38,1.21h0a1.74,1.74,0,0,1-1.25-.27,4.9,4.9,0,0,1-2.21-3.83A1.79,1.79,0,0,1,22,13.51h0a1.75,1.75,0,0,1,1.25.28A4.86,4.86,0,0,1,25.5,17.61Z"/><path class="cls-5" d="M24.59,17a.56.56,0,0,1-.72,0A2,2,0,0,1,23,15.49c0-.35.16-.57.39-.62a.7.7,0,0,0-.16.49,2,2,0,0,0,.88,1.53A.71.71,0,0,0,24.59,17Z"/><path class="cls-7" d="M24.75,16.51a.7.7,0,0,1-.16.49h0a.71.71,0,0,1-.5-.11,2,2,0,0,1-.88-1.53.7.7,0,0,1,.16-.49h0a.71.71,0,0,1,.5.11A2,2,0,0,1,24.75,16.51Z"/><path class="cls-5" d="M24.27,18.25c-.07.14-.22.18-.4.07a1,1,0,0,1-.44-.76c0-.21.1-.32.26-.31a.32.32,0,0,0,0,.18,1,1,0,0,0,.44.76A.38.38,0,0,0,24.27,18.25Z"/><path class="cls-7" d="M24.31,18.07a.32.32,0,0,1,0,.18.38.38,0,0,1-.18-.06,1,1,0,0,1-.44-.76.32.32,0,0,1,0-.18.49.49,0,0,1,.18.05A1,1,0,0,1,24.31,18.07Z"/><path class="cls-5" d="M23.43,13.93a1,1,0,0,0,.44.76c.18.11.33.07.4-.07a.49.49,0,0,1-.18,0,1,1,0,0,1-.39-.5l-.27-.2Z"/><path class="cls-7" d="M24.09,14.57a.49.49,0,0,0,.18,0h0a4.22,4.22,0,0,0-.57-.55A1,1,0,0,0,24.09,14.57Z"/><path class="cls-5" d="M22.7,15.53c-.07.14-.22.18-.4.07a1,1,0,0,1-.45-.76c0-.21.11-.33.27-.32a.36.36,0,0,0,0,.19,1,1,0,0,0,.44.76A.32.32,0,0,0,22.7,15.53Z"/><path class="cls-7" d="M22.74,15.35a.48.48,0,0,1,0,.18.32.32,0,0,1-.18-.06,1,1,0,0,1-.44-.76.36.36,0,0,1,0-.19.54.54,0,0,1,.18.06A1,1,0,0,1,22.74,15.35Z"/><path class="cls-5" d="M25.22,16.52a.34.34,0,0,1,0-.18c-.15,0-.26.1-.26.31a1,1,0,0,0,.44.77l0,0a1.84,1.84,0,0,0,0-.33A1,1,0,0,1,25.22,16.52Z"/><path class="cls-7" d="M25.22,16.52a1,1,0,0,0,.24.59,5.09,5.09,0,0,0-.19-.77h0A.34.34,0,0,0,25.22,16.52Z"/><path class="cls-5" d="M22.44,14.25c.18.3.46.46.63.36a.18.18,0,0,0,.09-.1.66.66,0,0,1-.49-.39.67.67,0,0,1-.09-.61h0a.22.22,0,0,0-.11,0C22.27,13.63,22.27,14,22.44,14.25Z"/><path class="cls-7" d="M22.67,14.12a.66.66,0,0,0,.49.39.73.73,0,0,0-.09-.62.86.86,0,0,0-.36-.35l-.13,0A.67.67,0,0,0,22.67,14.12Z"/><path class="cls-5" d="M25.38,18.36a.18.18,0,0,1-.09.1c-.17.1-.45-.06-.62-.36s-.18-.62,0-.72a.28.28,0,0,1,.13,0,.73.73,0,0,0,.09.62A.68.68,0,0,0,25.38,18.36Z"/><path class="cls-7" d="M25.38,18.36a.68.68,0,0,1-.49-.39.73.73,0,0,1-.09-.62.71.71,0,0,1,.49.39A.67.67,0,0,1,25.38,18.36Z"/><path class="cls-5" d="M25.1,15.91a5.77,5.77,0,0,0-.54-.93.76.76,0,0,0,.11.56A.71.71,0,0,0,25.1,15.91Z"/><path class="cls-5" d="M23.16,17.08a.18.18,0,0,1-.09.1c-.17.1-.45-.06-.63-.36s-.17-.62,0-.72a.32.32,0,0,1,.14,0,.66.66,0,0,0,.09.62A.71.71,0,0,0,23.16,17.08Z"/><path class="cls-7" d="M23.16,17.08a.71.71,0,0,1-.49-.39.66.66,0,0,1-.09-.62.71.71,0,0,1,.49.39A.73.73,0,0,1,23.16,17.08Z"/><path class="cls-8" d="M24.79,16.53A2,2,0,0,0,23.88,15a.63.63,0,0,0-.64-.06L23,15l1.3,2.22.2-.12A.65.65,0,0,0,24.79,16.53Z"/><path class="cls-9" d="M24.6,16.63c0,.58-.4.82-.9.53a2,2,0,0,1-.91-1.58c0-.58.4-.81.91-.52A2,2,0,0,1,24.6,16.63Z"/><path class="cls-8" d="M24.3,16.52a1.47,1.47,0,0,0-.66-1.14.46.46,0,0,0-.47-.05l-.15.09L24,17l.15-.08A.5.5,0,0,0,24.3,16.52Z"/><path class="cls-10" d="M24.16,16.6c0,.43-.3.6-.66.39a1.49,1.49,0,0,1-.67-1.15c0-.42.3-.59.67-.38A1.47,1.47,0,0,1,24.16,16.6Z"/><path class="cls-3" d="M34.83,18.46a5.41,5.41,0,0,0-2.44-4.22,1.71,1.71,0,0,0-1.73-.17l-1.74,1L32.42,21l1.73-1A1.75,1.75,0,0,0,34.83,18.46Z"/><path class="cls-4" d="M33.11,19.45c0,1.56-1.09,2.19-2.43,1.41a5.4,5.4,0,0,1-2.45-4.23c0-1.55,1.1-2.18,2.45-1.4A5.39,5.39,0,0,1,33.11,19.45Z"/><path class="cls-2" d="M32.88,19.32c0,1.41-1,2-2.2,1.27a4.86,4.86,0,0,1-2.21-3.82c0-1.41,1-2,2.21-1.28A4.91,4.91,0,0,1,32.88,19.32Z"/><path class="cls-3" d="M32.61,19.74a5.37,5.37,0,0,0-2.44-4.22,1.69,1.69,0,0,0-1.72-.17l-1.74,1L30.2,22.3l1.73-1A1.72,1.72,0,0,0,32.61,19.74Z"/><path class="cls-4" d="M30.9,20.73c0,1.55-1.09,2.19-2.44,1.41A5.39,5.39,0,0,1,26,17.91c0-1.55,1.09-2.18,2.44-1.41A5.39,5.39,0,0,1,30.9,20.73Z"/><path class="cls-5" d="M30.29,21.81a1.4,1.4,0,0,1-1.83.06,4.88,4.88,0,0,1-2.21-3.82c0-.88.38-1.43,1-1.55a1.79,1.79,0,0,0-.38,1.21A4.86,4.86,0,0,0,29,21.53,1.81,1.81,0,0,0,30.29,21.81Z"/><path class="cls-6" d="M30.67,20.6a1.79,1.79,0,0,1-.38,1.21h0A1.81,1.81,0,0,1,29,21.53a4.86,4.86,0,0,1-2.21-3.82,1.79,1.79,0,0,1,.38-1.21h0a1.74,1.74,0,0,1,1.25.27A4.88,4.88,0,0,1,30.67,20.6Z"/><path class="cls-5" d="M29.76,20A.55.55,0,0,1,29,20a1.93,1.93,0,0,1-.88-1.53c0-.34.15-.57.38-.62a.73.73,0,0,0-.16.5,2,2,0,0,0,.88,1.53A.76.76,0,0,0,29.76,20Z"/><path class="cls-7" d="M29.92,19.49a.73.73,0,0,1-.16.5h0a.76.76,0,0,1-.5-.11,2,2,0,0,1-.88-1.53.73.73,0,0,1,.16-.5h0A.76.76,0,0,1,29,18,2,2,0,0,1,29.92,19.49Z"/><path class="cls-5" d="M29.44,21.24c-.07.14-.22.17-.4.07a1,1,0,0,1-.44-.77c0-.2.1-.32.26-.31a.36.36,0,0,0,0,.19,1,1,0,0,0,.44.76A.38.38,0,0,0,29.44,21.24Z"/><path class="cls-7" d="M29.48,21.05a.36.36,0,0,1,0,.19.38.38,0,0,1-.18-.06,1,1,0,0,1-.44-.76.36.36,0,0,1,0-.19.38.38,0,0,1,.18.06A1,1,0,0,1,29.48,21.05Z"/><path class="cls-5" d="M28.6,16.91a1,1,0,0,0,.44.77c.18.1.33.07.4-.07a.38.38,0,0,1-.18-.06,1,1,0,0,1-.39-.49,2.34,2.34,0,0,0-.27-.2Z"/><path class="cls-7" d="M29.26,17.55a.38.38,0,0,0,.18.06h0a3.69,3.69,0,0,0-.57-.55A1,1,0,0,0,29.26,17.55Z"/><path class="cls-5" d="M27.87,18.52c-.07.13-.22.17-.4.07a1,1,0,0,1-.45-.77c0-.21.11-.32.27-.31a.34.34,0,0,0,0,.18,1,1,0,0,0,.44.77Z"/><path class="cls-7" d="M27.91,18.33a.38.38,0,0,1,0,.19l-.18-.06a1,1,0,0,1-.44-.77.34.34,0,0,1,0-.18.38.38,0,0,1,.18.06A1,1,0,0,1,27.91,18.33Z"/><path class="cls-5" d="M30.39,19.51a.36.36,0,0,1,0-.19c-.15,0-.26.11-.26.32a1,1,0,0,0,.44.76l.05,0a2,2,0,0,0,0-.34A1,1,0,0,1,30.39,19.51Z"/><path class="cls-7" d="M30.39,19.51a1,1,0,0,0,.24.58,5.76,5.76,0,0,0-.19-.77h0A.36.36,0,0,0,30.39,19.51Z"/><path class="cls-5" d="M27.62,17.24c.17.3.45.46.62.36a.22.22,0,0,0,.09-.1.85.85,0,0,1-.58-1h0a.17.17,0,0,0-.1,0C27.44,16.62,27.44,16.94,27.62,17.24Z"/><path class="cls-7" d="M27.84,17.11a.71.71,0,0,0,.49.39.73.73,0,0,0-.09-.62.86.86,0,0,0-.36-.35.31.31,0,0,0-.13,0A.71.71,0,0,0,27.84,17.11Z"/><path class="cls-5" d="M30.55,21.35a.22.22,0,0,1-.09.1c-.17.1-.45-.06-.62-.36s-.17-.62,0-.72a.28.28,0,0,1,.13,0,.73.73,0,0,0,.09.62A.71.71,0,0,0,30.55,21.35Z"/><path class="cls-7" d="M30.55,21.35a.71.71,0,0,1-.49-.39.73.73,0,0,1-.09-.62.71.71,0,0,1,.49.39A.66.66,0,0,1,30.55,21.35Z"/><path class="cls-5" d="M30.27,18.9a5.46,5.46,0,0,0-.54-.94.76.76,0,0,0,.11.56A.8.8,0,0,0,30.27,18.9Z"/><path class="cls-5" d="M28.33,20.07a.28.28,0,0,1-.09.1c-.17.1-.45-.07-.62-.36s-.18-.63,0-.72a.15.15,0,0,1,.13,0,.67.67,0,0,0,.09.62A.71.71,0,0,0,28.33,20.07Z"/><path class="cls-7" d="M28.33,20.07a.71.71,0,0,1-.49-.39.67.67,0,0,1-.09-.62.68.68,0,0,1,.49.39A.73.73,0,0,1,28.33,20.07Z"/><path class="cls-8" d="M30,19.51a2,2,0,0,0-.91-1.57.64.64,0,0,0-.64-.07l-.2.12,1.3,2.21.2-.11A.67.67,0,0,0,30,19.51Z"/><path class="cls-9" d="M29.77,19.62c0,.58-.4.81-.9.52A2,2,0,0,1,28,18.57c0-.58.4-.82.91-.53A2,2,0,0,1,29.77,19.62Z"/><path class="cls-8" d="M29.47,19.51a1.48,1.48,0,0,0-.66-1.15.46.46,0,0,0-.47-.05l-.15.09L29.14,20l.15-.08A.48.48,0,0,0,29.47,19.51Z"/><path class="cls-10" d="M29.33,19.59c0,.42-.3.59-.66.38A1.44,1.44,0,0,1,28,18.82c0-.42.29-.59.66-.38A1.48,1.48,0,0,1,29.33,19.59Z"/><path class="cls-3" d="M40,21.45a5.42,5.42,0,0,0-2.44-4.23,1.73,1.73,0,0,0-1.73-.17l-1.74,1,3.5,6,1.73-1A1.73,1.73,0,0,0,40,21.45Z"/><path class="cls-4" d="M38.29,22.44c0,1.55-1.1,2.18-2.44,1.41a5.39,5.39,0,0,1-2.44-4.23c0-1.56,1.09-2.19,2.44-1.41A5.42,5.42,0,0,1,38.29,22.44Z"/><path class="cls-2" d="M38.05,22.3c0,1.41-1,2-2.2,1.28a4.9,4.9,0,0,1-2.21-3.83c0-1.4,1-2,2.21-1.27A4.87,4.87,0,0,1,38.05,22.3Z"/><path class="cls-3" d="M37.78,22.73a5.39,5.39,0,0,0-2.44-4.23,1.71,1.71,0,0,0-1.72-.17l-1.74,1,3.49,5.94,1.74-1A1.72,1.72,0,0,0,37.78,22.73Z"/><path class="cls-4" d="M36.07,23.71c0,1.56-1.09,2.19-2.44,1.41a5.37,5.37,0,0,1-2.44-4.22c0-1.56,1.1-2.19,2.44-1.41A5.39,5.39,0,0,1,36.07,23.71Z"/><path class="cls-5" d="M35.46,24.8a1.42,1.42,0,0,1-1.83.06A4.9,4.9,0,0,1,31.42,21c0-.87.38-1.42,1-1.55A1.8,1.8,0,0,0,32,20.7a4.89,4.89,0,0,0,2.21,3.82A1.81,1.81,0,0,0,35.46,24.8Z"/><path class="cls-6" d="M35.84,23.58a1.79,1.79,0,0,1-.38,1.21h0a1.81,1.81,0,0,1-1.25-.28A4.89,4.89,0,0,1,32,20.7a1.8,1.8,0,0,1,.38-1.22h0a1.81,1.81,0,0,1,1.25.28A4.86,4.86,0,0,1,35.84,23.58Z"/><path class="cls-5" d="M34.93,23a.56.56,0,0,1-.72,0,2,2,0,0,1-.88-1.53c0-.35.15-.57.38-.62a.72.72,0,0,0-.16.49,2,2,0,0,0,.88,1.53A.71.71,0,0,0,34.93,23Z"/><path class="cls-7" d="M35.09,22.48a.7.7,0,0,1-.16.49h0a.71.71,0,0,1-.5-.11,2,2,0,0,1-.88-1.53.72.72,0,0,1,.16-.49h0a.71.71,0,0,1,.5.11A2,2,0,0,1,35.09,22.48Z"/><path class="cls-5" d="M34.61,24.22c-.06.14-.22.18-.4.08a1,1,0,0,1-.44-.77c0-.21.1-.32.26-.31a.32.32,0,0,0,0,.18,1,1,0,0,0,.44.77A.49.49,0,0,0,34.61,24.22Z"/><path class="cls-7" d="M34.65,24a.32.32,0,0,1,0,.18.49.49,0,0,1-.18,0A1,1,0,0,1,34,23.4a.32.32,0,0,1,0-.18.45.45,0,0,1,.18.05A1,1,0,0,1,34.65,24Z"/><path class="cls-5" d="M33.77,19.9a1,1,0,0,0,.44.76c.18.11.34.07.4-.07a.49.49,0,0,1-.18-.05A1,1,0,0,1,34,20c-.08-.07-.18-.13-.27-.2Z"/><path class="cls-7" d="M34.43,20.54a.49.49,0,0,0,.18.05h0A3.71,3.71,0,0,0,34,20,1,1,0,0,0,34.43,20.54Z"/><path class="cls-5" d="M33,21.5c-.07.14-.22.18-.4.07a1,1,0,0,1-.44-.76c0-.21.1-.33.26-.32a.36.36,0,0,0,0,.19,1,1,0,0,0,.44.76A.38.38,0,0,0,33,21.5Z"/><path class="cls-7" d="M33.08,21.32a.34.34,0,0,1,0,.18.38.38,0,0,1-.18-.06,1,1,0,0,1-.44-.76.36.36,0,0,1,0-.19l.18.06A1,1,0,0,1,33.08,21.32Z"/><path class="cls-5" d="M35.56,22.49a.48.48,0,0,1,0-.18c-.15,0-.26.1-.26.31a1,1,0,0,0,.44.77l0,0a1.84,1.84,0,0,0,0-.33A1,1,0,0,1,35.56,22.49Z"/><path class="cls-7" d="M35.56,22.49a1,1,0,0,0,.24.59,4.33,4.33,0,0,0-.19-.77h0A.48.48,0,0,0,35.56,22.49Z"/><path class="cls-5" d="M32.79,20.22c.17.3.45.47.62.36a.2.2,0,0,0,.09-.09A.71.71,0,0,1,33,20.1a.73.73,0,0,1-.09-.62h0a.16.16,0,0,0-.1,0C32.61,19.6,32.61,19.93,32.79,20.22Z"/><path class="cls-7" d="M33,20.1a.71.71,0,0,0,.49.39.75.75,0,0,0-.09-.63.92.92,0,0,0-.36-.35l-.13,0A.73.73,0,0,0,33,20.1Z"/><path class="cls-5" d="M35.72,24.33a.24.24,0,0,1-.09.11c-.17.1-.45-.07-.62-.36s-.17-.63,0-.73a.19.19,0,0,1,.13,0,.73.73,0,0,0,.09.62A.67.67,0,0,0,35.72,24.33Z"/><path class="cls-7" d="M35.72,24.33a.67.67,0,0,1-.49-.38.73.73,0,0,1-.09-.62.83.83,0,0,1,.58,1Z"/><path class="cls-5" d="M35.44,21.88A5.77,5.77,0,0,0,34.9,21a.76.76,0,0,0,.11.56A.74.74,0,0,0,35.44,21.88Z"/><path class="cls-5" d="M33.5,23.05a.18.18,0,0,1-.09.1c-.17.1-.45-.06-.62-.36s-.18-.62,0-.72a.28.28,0,0,1,.13,0,.69.69,0,0,0,.09.62A.68.68,0,0,0,33.5,23.05Z"/><path class="cls-7" d="M33.5,23.05a.68.68,0,0,1-.49-.39.69.69,0,0,1-.09-.62.71.71,0,0,1,.49.39A.73.73,0,0,1,33.5,23.05Z"/><path class="cls-8" d="M35.13,22.5a2,2,0,0,0-.91-1.58.63.63,0,0,0-.64-.06l-.2.11,1.31,2.22.19-.12A.63.63,0,0,0,35.13,22.5Z"/><path class="cls-9" d="M35,22.6c0,.58-.41.82-.91.53a2,2,0,0,1-.91-1.58c0-.58.41-.81.91-.52A2,2,0,0,1,35,22.6Z"/><path class="cls-8" d="M34.64,22.49A1.44,1.44,0,0,0,34,21.35a.46.46,0,0,0-.47-.05l-.15.09,1,1.61.15-.08A.5.5,0,0,0,34.64,22.49Z"/><path class="cls-10" d="M34.5,22.58c0,.42-.29.59-.66.38a1.46,1.46,0,0,1-.66-1.15c0-.42.29-.59.66-.38A1.44,1.44,0,0,1,34.5,22.58Z"/><path class="cls-3" d="M45.17,24.43a5.39,5.39,0,0,0-2.44-4.22A1.71,1.71,0,0,0,41,20l-1.74,1L42.76,27l1.73-1A1.75,1.75,0,0,0,45.17,24.43Z"/><path class="cls-4" d="M43.46,25.42c0,1.56-1.1,2.19-2.44,1.41a5.39,5.39,0,0,1-2.44-4.23c0-1.55,1.09-2.18,2.44-1.4A5.4,5.4,0,0,1,43.46,25.42Z"/><path class="cls-2" d="M43.23,25.29c0,1.41-1,2-2.21,1.27a4.86,4.86,0,0,1-2.21-3.82c0-1.41,1-2,2.21-1.28A4.9,4.9,0,0,1,43.23,25.29Z"/><path class="cls-3" d="M43,25.71a5.37,5.37,0,0,0-2.44-4.22,1.69,1.69,0,0,0-1.72-.17l-1.74,1,3.5,5.95,1.73-1A1.71,1.71,0,0,0,43,25.71Z"/><path class="cls-4" d="M41.24,26.7c0,1.56-1.09,2.19-2.44,1.41a5.42,5.42,0,0,1-2.44-4.23c0-1.55,1.1-2.18,2.44-1.4A5.37,5.37,0,0,1,41.24,26.7Z"/><path class="cls-5" d="M40.63,27.78a1.4,1.4,0,0,1-1.83.06A4.88,4.88,0,0,1,36.59,24c0-.88.38-1.43,1-1.55a1.79,1.79,0,0,0-.38,1.21,4.9,4.9,0,0,0,2.21,3.83A1.79,1.79,0,0,0,40.63,27.78Z"/><path class="cls-6" d="M41,26.57a1.79,1.79,0,0,1-.38,1.21h0a1.79,1.79,0,0,1-1.25-.27,4.9,4.9,0,0,1-2.21-3.83,1.79,1.79,0,0,1,.38-1.21h0a1.78,1.78,0,0,1,1.24.27A4.9,4.9,0,0,1,41,26.57Z"/><path class="cls-5" d="M40.1,26a.56.56,0,0,1-.72,0,2,2,0,0,1-.88-1.54.57.57,0,0,1,.38-.62.73.73,0,0,0-.16.5,2,2,0,0,0,.88,1.53A.76.76,0,0,0,40.1,26Z"/><path class="cls-7" d="M40.26,25.46a.73.73,0,0,1-.16.5h0a.76.76,0,0,1-.5-.11,2,2,0,0,1-.88-1.53.73.73,0,0,1,.16-.5h0a.72.72,0,0,1,.5.12A1.93,1.93,0,0,1,40.26,25.46Z"/><path class="cls-5" d="M39.79,27.21c-.07.14-.23.17-.41.07a1,1,0,0,1-.44-.76c0-.21.11-.33.26-.32a.49.49,0,0,0,0,.19,1,1,0,0,0,.44.76A.38.38,0,0,0,39.79,27.21Z"/><path class="cls-7" d="M39.82,27a.5.5,0,0,1,0,.19.38.38,0,0,1-.19-.06,1,1,0,0,1-.44-.76.49.49,0,0,1,0-.19.35.35,0,0,1,.18.06A1,1,0,0,1,39.82,27Z"/><path class="cls-5" d="M38.94,22.88a1,1,0,0,0,.44.77c.18.11.34.07.41-.07a.38.38,0,0,1-.19-.06,1,1,0,0,1-.38-.49,2.43,2.43,0,0,0-.28-.2Z"/><path class="cls-7" d="M39.6,23.52a.38.38,0,0,0,.19.06h0a4.2,4.2,0,0,0-.57-.55A1,1,0,0,0,39.6,23.52Z"/><path class="cls-5" d="M38.21,24.49c-.07.14-.22.17-.4.07a1,1,0,0,1-.44-.77c0-.21.1-.32.26-.31a.34.34,0,0,0,0,.18,1,1,0,0,0,.44.77A.54.54,0,0,0,38.21,24.49Z"/><path class="cls-7" d="M38.25,24.3a.38.38,0,0,1,0,.19.54.54,0,0,1-.18-.06,1,1,0,0,1-.44-.77.34.34,0,0,1,0-.18.35.35,0,0,1,.18.06A1,1,0,0,1,38.25,24.3Z"/><path class="cls-5" d="M40.73,25.48a.53.53,0,0,1,0-.19c-.15,0-.26.11-.26.32a1,1,0,0,0,.44.76l0,0a1.84,1.84,0,0,0,0-.33A1,1,0,0,1,40.73,25.48Z"/><path class="cls-7" d="M40.73,25.48a1,1,0,0,0,.24.59,4.43,4.43,0,0,0-.19-.78h0A.53.53,0,0,0,40.73,25.48Z"/><path class="cls-5" d="M38,23.21c.17.3.45.46.62.36a.22.22,0,0,0,.09-.1.85.85,0,0,1-.58-1h0a.19.19,0,0,0-.1,0C37.79,22.59,37.79,22.91,38,23.21Z"/><path class="cls-7" d="M38.18,23.08a.71.71,0,0,0,.49.39.73.73,0,0,0-.09-.62.84.84,0,0,0-.35-.35l-.14,0A.71.71,0,0,0,38.18,23.08Z"/><path class="cls-5" d="M40.9,27.32a.29.29,0,0,1-.09.1c-.18.1-.46-.06-.63-.36s-.17-.62,0-.72a.28.28,0,0,1,.13,0,.85.85,0,0,0,.59,1Z"/><path class="cls-7" d="M40.9,27.32a.85.85,0,0,1-.59-1,.74.74,0,0,1,.5.39A.73.73,0,0,1,40.9,27.32Z"/><path class="cls-5" d="M40.61,24.87a5.86,5.86,0,0,0-.54-.94.89.89,0,0,0,.54.94Z"/><path class="cls-5" d="M38.67,26a.28.28,0,0,1-.09.1c-.17.1-.45-.06-.62-.36s-.17-.62,0-.72a.15.15,0,0,1,.13,0,.73.73,0,0,0,.09.62A.71.71,0,0,0,38.67,26Z"/><path class="cls-7" d="M38.67,26a.71.71,0,0,1-.49-.39.73.73,0,0,1-.09-.62.71.71,0,0,1,.49.39A.73.73,0,0,1,38.67,26Z"/><path class="cls-8" d="M40.3,25.48a2,2,0,0,0-.91-1.57.61.61,0,0,0-.64-.06l-.2.11,1.31,2.21.19-.11A.67.67,0,0,0,40.3,25.48Z"/><path class="cls-9" d="M40.12,25.59c0,.58-.41.81-.91.52a2,2,0,0,1-.91-1.57c0-.58.41-.81.91-.53A2,2,0,0,1,40.12,25.59Z"/><path class="cls-8" d="M39.81,25.48a1.46,1.46,0,0,0-.66-1.15.48.48,0,0,0-.47,0l-.15.08L39.48,26l.15-.09A.48.48,0,0,0,39.81,25.48Z"/><path class="cls-10" d="M39.67,25.56c0,.42-.29.59-.66.38a1.44,1.44,0,0,1-.66-1.14c0-.43.29-.6.66-.39A1.46,1.46,0,0,1,39.67,25.56Z"/><path class="cls-3" d="M50.34,27.42a5.39,5.39,0,0,0-2.44-4.23A1.73,1.73,0,0,0,46.17,23l-1.74,1L47.93,30l1.73-1A1.73,1.73,0,0,0,50.34,27.42Z"/><path class="cls-4" d="M48.63,28.41c0,1.55-1.1,2.18-2.44,1.41a5.39,5.39,0,0,1-2.44-4.23c0-1.56,1.09-2.19,2.44-1.41A5.39,5.39,0,0,1,48.63,28.41Z"/><path class="cls-2" d="M48.4,28.27c0,1.41-1,2-2.21,1.28A4.9,4.9,0,0,1,44,25.72c0-1.4,1-2,2.21-1.27A4.88,4.88,0,0,1,48.4,28.27Z"/><path class="cls-3" d="M48.13,28.7a5.42,5.42,0,0,0-2.44-4.23A1.73,1.73,0,0,0,44,24.3l-1.74,1,3.5,5.94,1.73-1A1.73,1.73,0,0,0,48.13,28.7Z"/><path class="cls-4" d="M46.41,29.69c0,1.55-1.09,2.18-2.44,1.4a5.4,5.4,0,0,1-2.44-4.22c0-1.56,1.1-2.19,2.44-1.41A5.39,5.39,0,0,1,46.41,29.69Z"/><path class="cls-5" d="M45.8,30.77a1.42,1.42,0,0,1-1.83.06A4.91,4.91,0,0,1,41.77,27c0-.87.37-1.42,1-1.55a1.75,1.75,0,0,0-.39,1.22,4.88,4.88,0,0,0,2.21,3.82A1.81,1.81,0,0,0,45.8,30.77Z"/><path class="cls-6" d="M46.18,29.55a1.77,1.77,0,0,1-.38,1.21h0a1.81,1.81,0,0,1-1.25-.28,4.88,4.88,0,0,1-2.21-3.82,1.75,1.75,0,0,1,.39-1.22h0a1.79,1.79,0,0,1,1.24.28A4.86,4.86,0,0,1,46.18,29.55Z"/><path class="cls-5" d="M45.27,28.94a.56.56,0,0,1-.72,0,2,2,0,0,1-.88-1.53c0-.35.15-.57.38-.62a.72.72,0,0,0-.16.49,1.94,1.94,0,0,0,.89,1.53A.67.67,0,0,0,45.27,28.94Z"/><path class="cls-7" d="M45.43,28.45a.64.64,0,0,1-.16.49h0a.67.67,0,0,1-.49-.11,1.94,1.94,0,0,1-.89-1.53.72.72,0,0,1,.16-.49h0a.7.7,0,0,1,.5.11A2,2,0,0,1,45.43,28.45Z"/><path class="cls-5" d="M45,30.19c-.07.14-.23.18-.41.08a1,1,0,0,1-.44-.77c0-.21.11-.32.26-.31a.48.48,0,0,0,0,.18,1,1,0,0,0,.45.77A.41.41,0,0,0,45,30.19Z"/><path class="cls-7" d="M45,30a.45.45,0,0,1,0,.18.41.41,0,0,1-.18-.05,1,1,0,0,1-.45-.77.48.48,0,0,1,0-.18.32.32,0,0,1,.18.06A1,1,0,0,1,45,30Z"/><path class="cls-5" d="M44.11,25.87a1,1,0,0,0,.44.77c.18.1.34.06.41-.07a.43.43,0,0,1-.18-.06,1,1,0,0,1-.39-.5l-.28-.19Z"/><path class="cls-7" d="M44.78,26.51a.43.43,0,0,0,.18.06h0a4.91,4.91,0,0,0-.57-.55A1,1,0,0,0,44.78,26.51Z"/><path class="cls-5" d="M43.38,27.47c-.06.14-.22.18-.4.07a1,1,0,0,1-.44-.76c0-.21.11-.33.26-.32a.53.53,0,0,0,0,.19,1,1,0,0,0,.44.76A.38.38,0,0,0,43.38,27.47Z"/><path class="cls-7" d="M43.42,27.29a.34.34,0,0,1,0,.18.38.38,0,0,1-.18-.06,1,1,0,0,1-.44-.76.53.53,0,0,1,0-.19.76.76,0,0,1,.18.06A1,1,0,0,1,43.42,27.29Z"/><path class="cls-5" d="M45.91,28.46a.48.48,0,0,1,0-.18c-.15,0-.26.11-.26.31a1,1,0,0,0,.44.77l.06,0c0-.11,0-.22,0-.33A1,1,0,0,1,45.91,28.46Z"/><path class="cls-7" d="M45.91,28.46a1,1,0,0,0,.23.59,4.55,4.55,0,0,0-.19-.77h0A.48.48,0,0,0,45.91,28.46Z"/><path class="cls-5" d="M43.13,26.2c.17.29.45.46.62.35a.2.2,0,0,0,.09-.09.71.71,0,0,1-.49-.39.73.73,0,0,1-.09-.62h0a.18.18,0,0,0-.1,0C43,25.57,43,25.9,43.13,26.2Z"/><path class="cls-7" d="M43.35,26.07a.71.71,0,0,0,.49.39.69.69,0,0,0-.09-.63.9.9,0,0,0-.35-.35l-.14,0A.73.73,0,0,0,43.35,26.07Z"/><path class="cls-5" d="M46.07,30.31a.28.28,0,0,1-.09.1c-.18.1-.46-.07-.63-.36s-.17-.63,0-.73a.19.19,0,0,1,.13,0,.85.85,0,0,0,.59,1Z"/><path class="cls-7" d="M46.07,30.31a.85.85,0,0,1-.59-1,.7.7,0,0,1,.5.39A.73.73,0,0,1,46.07,30.31Z"/><path class="cls-5" d="M45.78,27.86a5.46,5.46,0,0,0-.54-.94.89.89,0,0,0,.54.94Z"/><path class="cls-5" d="M43.84,29a.18.18,0,0,1-.09.1c-.17.1-.45-.06-.62-.36s-.17-.62,0-.72a.28.28,0,0,1,.13,0,.73.73,0,0,0,.09.62A.68.68,0,0,0,43.84,29Z"/><path class="cls-7" d="M43.84,29a.68.68,0,0,1-.49-.39.73.73,0,0,1-.09-.62.71.71,0,0,1,.49.39A.67.67,0,0,1,43.84,29Z"/><path class="cls-8" d="M45.47,28.47a2,2,0,0,0-.91-1.58.66.66,0,0,0-.64-.06l-.19.11L45,29.16l.19-.12A.63.63,0,0,0,45.47,28.47Z"/><path class="cls-9" d="M45.29,28.57c0,.58-.41.82-.91.53a2,2,0,0,1-.91-1.58c0-.57.41-.81.91-.52A2,2,0,0,1,45.29,28.57Z"/><path class="cls-8" d="M45,28.46a1.44,1.44,0,0,0-.66-1.14.46.46,0,0,0-.47-.05l-.14.09L44.65,29l.15-.08A.5.5,0,0,0,45,28.46Z"/><path class="cls-10" d="M44.84,28.55c0,.42-.29.59-.66.38a1.48,1.48,0,0,1-.66-1.15c0-.42.3-.59.66-.38A1.44,1.44,0,0,1,44.84,28.55Z"/><path class="cls-3" d="M55.51,30.41a5.39,5.39,0,0,0-2.44-4.23A1.71,1.71,0,0,0,51.34,26L49.6,27,53.1,33l1.73-1A1.74,1.74,0,0,0,55.51,30.41Z"/><path class="cls-4" d="M53.8,31.39c0,1.56-1.09,2.19-2.44,1.41a5.39,5.39,0,0,1-2.44-4.22c0-1.56,1.09-2.19,2.44-1.41A5.39,5.39,0,0,1,53.8,31.39Z"/><path class="cls-2" d="M53.57,31.26c0,1.41-1,2-2.21,1.27a4.86,4.86,0,0,1-2.21-3.82c0-1.41,1-2,2.21-1.28A4.9,4.9,0,0,1,53.57,31.26Z"/><path class="cls-3" d="M53.3,31.68a5.41,5.41,0,0,0-2.44-4.22,1.71,1.71,0,0,0-1.73-.17l-1.74,1,3.5,6,1.73-1A1.75,1.75,0,0,0,53.3,31.68Z"/><path class="cls-4" d="M51.58,32.67c0,1.56-1.09,2.19-2.43,1.41a5.39,5.39,0,0,1-2.44-4.23c0-1.55,1.09-2.18,2.44-1.4A5.39,5.39,0,0,1,51.58,32.67Z"/><path class="cls-5" d="M51,33.75a1.39,1.39,0,0,1-1.82.06A4.86,4.86,0,0,1,46.94,30c0-.87.38-1.43,1-1.55a1.79,1.79,0,0,0-.39,1.21,4.9,4.9,0,0,0,2.21,3.83A1.81,1.81,0,0,0,51,33.75Z"/><path class="cls-6" d="M51.35,32.54A1.79,1.79,0,0,1,51,33.75h0a1.81,1.81,0,0,1-1.25-.27,4.9,4.9,0,0,1-2.21-3.83,1.79,1.79,0,0,1,.39-1.21h0a1.81,1.81,0,0,1,1.25.27A4.91,4.91,0,0,1,51.35,32.54Z"/><path class="cls-5" d="M50.44,31.93a.56.56,0,0,1-.72,0,2,2,0,0,1-.88-1.53c0-.35.15-.57.38-.62a.69.69,0,0,0-.16.49A2,2,0,0,0,50,31.82.73.73,0,0,0,50.44,31.93Z"/><path class="cls-7" d="M50.61,31.44a.72.72,0,0,1-.16.49h0a.73.73,0,0,1-.49-.11,2,2,0,0,1-.89-1.53.69.69,0,0,1,.16-.49h0a.69.69,0,0,1,.5.11A1.94,1.94,0,0,1,50.61,31.44Z"/><path class="cls-5" d="M50.13,33.18c-.07.14-.23.17-.41.07a1,1,0,0,1-.44-.76c0-.21.11-.33.26-.32a.49.49,0,0,0,0,.19,1,1,0,0,0,.45.76A.32.32,0,0,0,50.13,33.18Z"/><path class="cls-7" d="M50.16,33a.48.48,0,0,1,0,.18.32.32,0,0,1-.18-.06,1,1,0,0,1-.45-.76.49.49,0,0,1,0-.19.32.32,0,0,1,.18.06A1,1,0,0,1,50.16,33Z"/><path class="cls-5" d="M49.28,28.85a1,1,0,0,0,.44.77c.18.11.34.07.41-.07a.32.32,0,0,1-.18-.06,1,1,0,0,1-.39-.49,2.83,2.83,0,0,0-.28-.2Z"/><path class="cls-7" d="M50,29.49a.32.32,0,0,0,.18.06h0a4.2,4.2,0,0,0-.57-.55A1,1,0,0,0,50,29.49Z"/><path class="cls-5" d="M48.55,30.46c-.06.14-.22.17-.4.07a1,1,0,0,1-.44-.77c0-.21.11-.32.26-.31a.48.48,0,0,0,0,.18,1,1,0,0,0,.44.77A.54.54,0,0,0,48.55,30.46Z"/><path class="cls-7" d="M48.59,30.27a.36.36,0,0,1,0,.19.54.54,0,0,1-.18-.06,1,1,0,0,1-.44-.77.48.48,0,0,1,0-.18.32.32,0,0,1,.18.06A1,1,0,0,1,48.59,30.27Z"/><path class="cls-5" d="M51.08,31.45a.54.54,0,0,1,0-.19c-.15,0-.26.11-.26.32a1,1,0,0,0,.44.76l.06,0c0-.11,0-.22,0-.33A1,1,0,0,1,51.08,31.45Z"/><path class="cls-7" d="M51.08,31.45a1,1,0,0,0,.23.59,4.43,4.43,0,0,0-.19-.78h0A.54.54,0,0,0,51.08,31.45Z"/><path class="cls-5" d="M48.3,29.18c.17.3.45.46.62.36a.22.22,0,0,0,.09-.1.85.85,0,0,1-.58-1h0a.19.19,0,0,0-.1,0C48.13,28.56,48.13,28.88,48.3,29.18Z"/><path class="cls-7" d="M48.52,29.05a.71.71,0,0,0,.49.39.67.67,0,0,0-.09-.62.84.84,0,0,0-.35-.35l-.14,0A.71.71,0,0,0,48.52,29.05Z"/><path class="cls-5" d="M51.24,33.29a.22.22,0,0,1-.09.1c-.18.1-.46-.06-.63-.36s-.17-.62,0-.72a.31.31,0,0,1,.13,0,.7.7,0,0,0,.1.62A.69.69,0,0,0,51.24,33.29Z"/><path class="cls-7" d="M51.24,33.29a.69.69,0,0,1-.49-.39.7.7,0,0,1-.1-.62.85.85,0,0,1,.59,1Z"/><path class="cls-5" d="M51,30.84a5.86,5.86,0,0,0-.54-.94.81.81,0,0,0,.11.56A.76.76,0,0,0,51,30.84Z"/><path class="cls-5" d="M49,32a.22.22,0,0,1-.09.1c-.17.1-.45-.06-.62-.36s-.17-.62,0-.72a.19.19,0,0,1,.13,0,.73.73,0,0,0,.09.62A.71.71,0,0,0,49,32Z"/><path class="cls-7" d="M49,32a.71.71,0,0,1-.49-.39.73.73,0,0,1-.09-.62.71.71,0,0,1,.49.39A.66.66,0,0,1,49,32Z"/><path class="cls-8" d="M50.64,31.45a2,2,0,0,0-.91-1.57.61.61,0,0,0-.64-.06l-.19.11,1.3,2.21.19-.11A.64.64,0,0,0,50.64,31.45Z"/><path class="cls-9" d="M50.46,31.56c0,.58-.41.81-.91.52a2,2,0,0,1-.91-1.57c0-.58.41-.81.91-.52A2,2,0,0,1,50.46,31.56Z"/><path class="cls-8" d="M50.15,31.45a1.46,1.46,0,0,0-.66-1.15.48.48,0,0,0-.47,0l-.14.08L49.82,32l.15-.09A.48.48,0,0,0,50.15,31.45Z"/><path class="cls-10" d="M50,31.53c0,.42-.29.59-.66.38a1.47,1.47,0,0,1-.66-1.14c0-.43.3-.6.66-.39A1.46,1.46,0,0,1,50,31.53Z"/><path class="cls-3" d="M57.08,30.66A3.38,3.38,0,0,0,55.56,28a1.08,1.08,0,0,0-1.08-.1l-1.08.62,2.18,3.72,1.08-.63A1.09,1.09,0,0,0,57.08,30.66Z"/><path class="cls-4" d="M56,31.28c0,1-.69,1.36-1.53.88A3.38,3.38,0,0,1,53,29.52c0-1,.68-1.37,1.52-.88A3.37,3.37,0,0,1,56,31.28Z"/><path class="cls-5" d="M55.63,32c-.24.28-.66.31-1.14,0a3.06,3.06,0,0,1-1.38-2.39c0-.54.24-.89.6-1a1.13,1.13,0,0,0-.24.76,3.06,3.06,0,0,0,1.38,2.39A1.14,1.14,0,0,0,55.63,32Z"/><path class="cls-2" d="M55.87,31.19a1.13,1.13,0,0,1-.24.76h0a1.14,1.14,0,0,1-.78-.17,3.06,3.06,0,0,1-1.38-2.39,1.13,1.13,0,0,1,.24-.76h0a1.2,1.2,0,0,1,.78.17A3.06,3.06,0,0,1,55.87,31.19Z"/><path class="cls-3" d="M55.69,31.47a3.35,3.35,0,0,0-1.52-2.64,1.06,1.06,0,0,0-1.08-.11L52,29.35l2.18,3.71,1.08-.62A1.09,1.09,0,0,0,55.69,31.47Z"/><path class="cls-4" d="M54.62,32.08c0,1-.68,1.37-1.52.88a3.35,3.35,0,0,1-1.52-2.64c0-1,.68-1.36,1.52-.88A3.38,3.38,0,0,1,54.62,32.08Z"/><path class="cls-5" d="M54.24,32.76a.87.87,0,0,1-1.14,0,3,3,0,0,1-1.38-2.38c0-.55.24-.89.6-1a1.13,1.13,0,0,0-.24.76,3.06,3.06,0,0,0,1.38,2.39A1.2,1.2,0,0,0,54.24,32.76Z"/><path class="cls-6" d="M54.48,32a1.13,1.13,0,0,1-.24.76h0a1.2,1.2,0,0,1-.78-.17,3.06,3.06,0,0,1-1.38-2.39,1.13,1.13,0,0,1,.24-.76h0a1.09,1.09,0,0,1,.78.17A3.06,3.06,0,0,1,54.48,32Z"/><path class="cls-5" d="M53.91,31.62a.35.35,0,0,1-.45,0,1.23,1.23,0,0,1-.55-1c0-.21.09-.35.24-.38a.43.43,0,0,0-.1.3,1.23,1.23,0,0,0,.55,1A.42.42,0,0,0,53.91,31.62Z"/><path class="cls-7" d="M54,31.31a.41.41,0,0,1-.1.31h0a.42.42,0,0,1-.31-.07,1.23,1.23,0,0,1-.55-1,.43.43,0,0,1,.1-.3h0a.42.42,0,0,1,.31.07A1.19,1.19,0,0,1,54,31.31Z"/><path class="cls-5" d="M53.71,32.4c0,.09-.14.11-.25,0a.59.59,0,0,1-.27-.47c0-.13.06-.21.16-.2a.21.21,0,0,0,0,.12.6.6,0,0,0,.28.47A.19.19,0,0,0,53.71,32.4Z"/><path class="cls-7" d="M53.74,32.29a.2.2,0,0,1,0,.11.19.19,0,0,1-.11,0,.6.6,0,0,1-.28-.47.21.21,0,0,1,0-.12.19.19,0,0,1,.11,0A.62.62,0,0,1,53.74,32.29Z"/><path class="cls-5" d="M53.19,29.7a.61.61,0,0,0,.27.48c.11.06.21,0,.25-.05l-.11,0a.58.58,0,0,1-.24-.31.88.88,0,0,0-.17-.12Z"/><path class="cls-7" d="M53.6,30.1l.11,0h0a2.79,2.79,0,0,0-.35-.34A.58.58,0,0,0,53.6,30.1Z"/><path class="cls-5" d="M52.73,30.7c0,.09-.14.11-.25,0a.6.6,0,0,1-.28-.47c0-.13.07-.21.17-.2a.21.21,0,0,0,0,.12.6.6,0,0,0,.28.47A.19.19,0,0,0,52.73,30.7Z"/><path class="cls-7" d="M52.76,30.59a.2.2,0,0,1,0,.11.19.19,0,0,1-.11,0,.6.6,0,0,1-.28-.47.21.21,0,0,1,0-.12.3.3,0,0,1,.11,0A.61.61,0,0,1,52.76,30.59Z"/><path class="cls-5" d="M54.31,31.32a.22.22,0,0,1,0-.12c-.1,0-.16.07-.16.2a.61.61,0,0,0,.27.48h0a1.38,1.38,0,0,0,0-.2A.68.68,0,0,1,54.31,31.32Z"/><path class="cls-7" d="M54.31,31.32a.68.68,0,0,0,.14.37,2,2,0,0,0-.12-.48h0A.22.22,0,0,0,54.31,31.32Z"/><path class="cls-5" d="M52.57,29.9c.11.19.28.29.39.23l.06-.06a.45.45,0,0,1-.31-.25.46.46,0,0,1-.06-.38h-.08C52.47,29.51,52.47,29.72,52.57,29.9Z"/><path class="cls-7" d="M52.71,29.82a.45.45,0,0,0,.31.25.45.45,0,0,0-.06-.39.47.47,0,0,0-.22-.22l-.09,0A.46.46,0,0,0,52.71,29.82Z"/><path class="cls-5" d="M54.41,32.47s0,.05-.06.06-.28,0-.39-.22-.11-.39,0-.45a.12.12,0,0,1,.08,0,.49.49,0,0,0,.06.39A.46.46,0,0,0,54.41,32.47Z"/><path class="cls-7" d="M54.41,32.47a.46.46,0,0,1-.31-.24.49.49,0,0,1-.06-.39.42.42,0,0,1,.31.24A.49.49,0,0,1,54.41,32.47Z"/><path class="cls-5" d="M54.23,30.94a3.91,3.91,0,0,0-.34-.59.52.52,0,0,0,.07.35A.47.47,0,0,0,54.23,30.94Z"/><path class="cls-5" d="M53,31.67a.09.09,0,0,1-.06.06c-.11.06-.28,0-.39-.22s-.1-.39,0-.45a.15.15,0,0,1,.09,0,.44.44,0,0,0,.05.39A.46.46,0,0,0,53,31.67Z"/><path class="cls-7" d="M53,31.67a.46.46,0,0,1-.31-.24.44.44,0,0,1-.05-.39.42.42,0,0,1,.3.24A.45.45,0,0,1,53,31.67Z"/><path class="cls-8" d="M54,31.32a1.26,1.26,0,0,0-.57-1,.4.4,0,0,0-.4,0l-.12.07.81,1.38.12-.07A.39.39,0,0,0,54,31.32Z"/><path class="cls-9" d="M53.92,31.39c0,.36-.25.51-.57.32a1.25,1.25,0,0,1-.56-1c0-.36.25-.51.56-.32A1.24,1.24,0,0,1,53.92,31.39Z"/><path class="cls-8" d="M53.73,31.32a.93.93,0,0,0-.41-.72.31.31,0,0,0-.29,0l-.1.06.6,1,.09-.06A.28.28,0,0,0,53.73,31.32Z"/><path class="cls-10" d="M53.64,31.37c0,.26-.18.37-.41.24a.9.9,0,0,1-.41-.72c0-.26.18-.37.41-.24A.93.93,0,0,1,53.64,31.37Z"/><path class="cls-2" d="M58.48,28.26l-3.93,2-.2.26.4.81.09,1.35-.29.54.07.28,3.93-2.28h0a1,1,0,0,0,.42-.87v-.66A3.17,3.17,0,0,0,58.48,28.26Z"/><polygon class="cls-2" points="17.83 9.39 19.45 8.46 20.12 9.14 19.28 9.74 18.27 9.53 17.83 9.39"/><path class="cls-3" d="M54.55,30.53A4.86,4.86,0,0,0,53.09,29L19.35,9.51a1.53,1.53,0,0,0-1.45-.14,1,1,0,0,0-.49.9v.66a3.2,3.2,0,0,0,.49,1.47l3.9,5.89a4.06,4.06,0,0,0,1.12,1.11L49.53,34.76a1.56,1.56,0,0,0,1.12.19l3.9-1.39a1,1,0,0,0,.49-.91V32A3.13,3.13,0,0,0,54.55,30.53Zm.08,1.67a1,1,0,0,1-.49.9L50.5,34.4a1.57,1.57,0,0,1-1.12-.19L23.06,19a4.21,4.21,0,0,1-1.12-1.11L18.3,12.4a3.17,3.17,0,0,1-.49-1.46v-.21a1,1,0,0,1,.49-.91l.05,0a1.16,1.16,0,0,1,1,.16L53.12,29.47a3.29,3.29,0,0,1,1,1l0,.09A3.2,3.2,0,0,1,54.63,32Z"/><polygon class="cls-11" points="48.51 23.62 38.41 20.23 23.73 11.38 17.06 5.46 20.99 3.19 52.44 21.35 51.74 23.21 48.51 23.62"/><polygon class="cls-12" points="59.49 27.58 55.56 29.85 52.76 28.35 48.51 23.62 52.44 21.35 59.49 27.58"/><polygon class="cls-6" points="55.56 31.05 47.11 27.13 24.84 14.27 16.71 7.42 17.06 5.46 48.51 23.62 55.56 29.85 55.56 31.05"/><polygon class="cls-13" points="59.49 28.78 55.56 31.05 55.56 29.85 59.49 27.58 59.49 28.78"/><polygon class="cls-11" points="41.92 18.25 36.11 15.51 21.1 6.97 18.74 4.86 21.53 3.25 44.71 16.64 44.4 17.99 41.92 18.25"/><polygon class="cls-12" points="51.43 21.36 48.64 22.97 44.36 20.48 41.92 18.25 44.71 16.64 51.43 21.36"/><polygon class="cls-7" points="48.64 22.97 41.92 18.25 18.74 4.86 18.31 5.75 48.64 23.26 48.64 22.97"/><polygon class="cls-13" points="51.43 21.65 48.64 23.26 48.64 22.97 51.43 21.36 51.43 21.65"/><polygon class="cls-14" points="34.59 31.47 24.5 28.08 9.82 19.23 4.04 13.83 17.4 6.11 47.96 23.75 46.17 27.71 34.59 31.47"/><polygon class="cls-12" points="55 29.98 51.35 32.57 44.39 36.52 41.64 37.7 38.84 36.2 34.59 31.47 47.96 23.75 55 29.98"/><polygon class="cls-6" points="44.36 33.29 41.19 30.49 38.08 32.28 41.25 35.08 44.36 33.29"/><path class="cls-13" d="M48.75,26.43h0a.17.17,0,0,0-.19,0l-6.63,3.82h0l0,0a.08.08,0,0,1,0-.14l6.65-3.84a.18.18,0,0,1,.2,0l0,0A.09.09,0,0,1,48.75,26.43Z"/><path class="cls-15" d="M48.73,26.44,42.1,30.26a.17.17,0,0,1-.19,0l6.63-3.82A.17.17,0,0,1,48.73,26.44Z"/><path class="cls-13" d="M49.17,26.8h0a.21.21,0,0,0-.19,0l-6.62,3.83h0l0,0a.08.08,0,0,1,0-.14L49,26.62a.18.18,0,0,1,.2,0l0,0A.08.08,0,0,1,49.17,26.8Z"/><path class="cls-15" d="M49.15,26.81l-6.63,3.83a.17.17,0,0,1-.18,0L49,26.8A.21.21,0,0,1,49.15,26.81Z"/><path class="cls-13" d="M49.6,27.17l0,0a.19.19,0,0,0-.19,0L42.76,31h0l0,0a.09.09,0,0,1,0-.15L49.39,27a.15.15,0,0,1,.19,0l0,0S49.66,27.14,49.6,27.17Z"/><path class="cls-15" d="M49.58,27.19,43,31a.19.19,0,0,1-.19,0l6.63-3.83A.19.19,0,0,1,49.58,27.19Z"/><path class="cls-13" d="M50,27.55h0a.17.17,0,0,0-.19,0l-6.63,3.82h0l0,0a.08.08,0,0,1,0-.14l6.65-3.84a.2.2,0,0,1,.2,0l0,0C50.09,27.45,50.08,27.51,50,27.55Z"/><path class="cls-15" d="M50,27.56l-6.63,3.83a.19.19,0,0,1-.19,0l6.63-3.82A.17.17,0,0,1,50,27.56Z"/><path class="cls-13" d="M50.45,27.92l0,0a.19.19,0,0,0-.19,0l-6.62,3.83h0l0,0a.09.09,0,0,1,0-.15l6.64-3.84a.18.18,0,0,1,.2,0l0,0A.08.08,0,0,1,50.45,27.92Z"/><path class="cls-15" d="M50.42,27.94,43.8,31.76a.18.18,0,0,1-.19,0l6.62-3.83A.19.19,0,0,1,50.42,27.94Z"/><path class="cls-13" d="M50.87,28.3h0a.17.17,0,0,0-.18,0L44,32.12h0l0,0A.08.08,0,0,1,44,32l6.65-3.84a.17.17,0,0,1,.19,0l0,0A.09.09,0,0,1,50.87,28.3Z"/><path class="cls-15" d="M50.84,28.31l-6.62,3.83a.19.19,0,0,1-.19,0l6.63-3.82A.17.17,0,0,1,50.84,28.31Z"/><path class="cls-13" d="M51.29,28.67h0a.18.18,0,0,0-.19,0l-6.62,3.82h0l0,0a.08.08,0,0,1,0-.14l6.65-3.84a.2.2,0,0,1,.2,0l0,0A.08.08,0,0,1,51.29,28.67Z"/><path class="cls-15" d="M51.27,28.68l-6.63,3.83a.17.17,0,0,1-.18,0l6.62-3.82A.18.18,0,0,1,51.27,28.68Z"/><path class="cls-13" d="M51.72,29l0,0a.19.19,0,0,0-.19,0l-6.62,3.83h0l0,0a.09.09,0,0,1,0-.15l6.64-3.83a.17.17,0,0,1,.2,0l0,0C51.78,29,51.78,29,51.72,29Z"/><path class="cls-15" d="M51.69,29.06l-6.62,3.82a.18.18,0,0,1-.19,0L51.5,29A.19.19,0,0,1,51.69,29.06Z"/><polygon class="cls-13" points="55 30.76 41.64 38.48 41.64 37.7 55 29.98 55 30.76"/><polygon class="cls-11" points="9.56 14.15 7.25 12.82 11.96 10.1 14.27 11.43 9.56 14.15"/><polygon class="cls-13" points="9.56 14.59 9.56 14.15 14.27 11.43 14.27 11.87 9.56 14.59"/><polygon class="cls-6" points="9.56 14.15 7.25 12.82 7.25 13.26 9.56 14.59 9.56 14.15"/><polygon class="cls-1" points="42.38 26.98 42.38 26.98 38.6 24.8 40.75 23.55 39.98 16.61 33.24 13.47 30.07 13.51 20.96 8.99 9.82 15.43 17.65 20.68 17.58 22.51 23.02 26.41 35.04 26.85 37.24 25.58 41.02 27.76 48.07 33.99 49.42 33.21 42.38 26.98"/><polygon class="cls-2" points="36.27 43.43 33.42 44.44 5.83 28.55 1.08 21.64 0.87 20.81 0.87 19.66 1.69 19.21 3.29 19.39 37.37 39.6 38.1 41.02 38.07 42.72 36.27 43.43"/><path class="cls-3" d="M6.59,20.82a3.36,3.36,0,0,0-1.53-2.64A1.06,1.06,0,0,0,4,18.07L2.9,18.7l2.18,3.71,1.08-.63A1,1,0,0,0,6.59,20.82Z"/><path class="cls-4" d="M5.52,21.43c0,1-.68,1.37-1.53.88a3.36,3.36,0,0,1-1.52-2.64c0-1,.68-1.36,1.52-.88A3.36,3.36,0,0,1,5.52,21.43Z"/><path class="cls-5" d="M5.13,22.11a.87.87,0,0,1-1.14,0,3,3,0,0,1-1.37-2.38c0-.55.23-.89.6-1a1.07,1.07,0,0,0-.24.76,3,3,0,0,0,1.38,2.38A1.13,1.13,0,0,0,5.13,22.11Z"/><path class="cls-2" d="M5.37,21.35a1.08,1.08,0,0,1-.23.75h0a1.13,1.13,0,0,1-.77-.18A3,3,0,0,1,3,19.55a1.07,1.07,0,0,1,.24-.76h0A1.05,1.05,0,0,1,4,19,3,3,0,0,1,5.37,21.35Z"/><path class="cls-3" d="M5.2,21.62A3.39,3.39,0,0,0,3.67,19a1.08,1.08,0,0,0-1.08-.1l-1.08.62,2.18,3.72,1.08-.63A1.09,1.09,0,0,0,5.2,21.62Z"/><path class="cls-4" d="M4.13,22.24c0,1-.69,1.36-1.53.88a3.38,3.38,0,0,1-1.52-2.64c0-1,.68-1.37,1.52-.88A3.39,3.39,0,0,1,4.13,22.24Z"/><path class="cls-5" d="M3.74,22.91c-.24.28-.66.31-1.14,0a3.06,3.06,0,0,1-1.38-2.39c0-.54.24-.89.6-1a1.08,1.08,0,0,0-.23.75A3,3,0,0,0,3,22.74,1.05,1.05,0,0,0,3.74,22.91Z"/><path class="cls-6" d="M4,22.16a1.1,1.1,0,0,1-.24.75h0A1.05,1.05,0,0,1,3,22.74a3,3,0,0,1-1.38-2.39,1.08,1.08,0,0,1,.23-.75h0a1.14,1.14,0,0,1,.78.18A3,3,0,0,1,4,22.16Z"/><path class="cls-5" d="M3.41,21.77c-.09.11-.26.12-.44,0a1.2,1.2,0,0,1-.56-1c0-.22.1-.36.24-.39a.46.46,0,0,0-.1.31,1.25,1.25,0,0,0,.55,1A.47.47,0,0,0,3.41,21.77Z"/><path class="cls-7" d="M3.52,21.47a.43.43,0,0,1-.1.3h0a.47.47,0,0,1-.31-.06,1.25,1.25,0,0,1-.55-1,.46.46,0,0,1,.1-.31h0a.45.45,0,0,1,.32.07A1.25,1.25,0,0,1,3.52,21.47Z"/><path class="cls-5" d="M3.22,22.56a.16.16,0,0,1-.25,0,.6.6,0,0,1-.28-.48c0-.13.06-.2.16-.19a.36.36,0,0,0,0,.11.61.61,0,0,0,.27.48Z"/><path class="cls-7" d="M3.24,22.44a.37.37,0,0,1,0,.12l-.12,0A.61.61,0,0,1,2.83,22a.36.36,0,0,1,0-.11A.3.3,0,0,1,3,22,.61.61,0,0,1,3.24,22.44Z"/><path class="cls-5" d="M2.69,19.86a.58.58,0,0,0,.28.47c.11.07.2.05.25,0a.19.19,0,0,1-.12,0,.64.64,0,0,1-.24-.31l-.17-.12Z"/><path class="cls-7" d="M3.1,20.25a.19.19,0,0,0,.12,0h0a2.38,2.38,0,0,0-.36-.35A.64.64,0,0,0,3.1,20.25Z"/><path class="cls-5" d="M2.23,20.86c0,.08-.13.11-.25,0a.61.61,0,0,1-.27-.48c0-.13.06-.2.16-.19a.2.2,0,0,0,0,.11.61.61,0,0,0,.27.48Z"/><path class="cls-7" d="M2.26,20.74a.24.24,0,0,1,0,.12l-.11,0a.61.61,0,0,1-.27-.48.2.2,0,0,1,0-.11l.11,0A.64.64,0,0,1,2.26,20.74Z"/><path class="cls-5" d="M3.81,21.47a.36.36,0,0,1,0-.11c-.09,0-.16.07-.16.2A.59.59,0,0,0,4,22l0,0c0-.07,0-.14,0-.21A.58.58,0,0,1,3.81,21.47Z"/><path class="cls-7" d="M3.81,21.47a.58.58,0,0,0,.15.37,4.21,4.21,0,0,0-.12-.48h0A.36.36,0,0,0,3.81,21.47Z"/><path class="cls-5" d="M2.08,20.06c.1.19.28.29.39.22a.1.1,0,0,0,0-.06A.45.45,0,0,1,2.21,20a.44.44,0,0,1,0-.39h0l-.06,0C2,19.67,2,19.87,2.08,20.06Z"/><path class="cls-7" d="M2.21,20a.45.45,0,0,0,.31.24.44.44,0,0,0,0-.39.68.68,0,0,0-.23-.22l-.08,0A.44.44,0,0,0,2.21,20Z"/><path class="cls-5" d="M3.91,22.63a.17.17,0,0,1-.06.06c-.1.06-.28,0-.39-.23s-.1-.38,0-.45a.14.14,0,0,1,.09,0,.42.42,0,0,0,.05.38A.47.47,0,0,0,3.91,22.63Z"/><path class="cls-7" d="M3.91,22.63a.47.47,0,0,1-.31-.25A.42.42,0,0,1,3.55,22a.4.4,0,0,1,.3.24A.41.41,0,0,1,3.91,22.63Z"/><path class="cls-5" d="M3.73,21.1a2.66,2.66,0,0,0-.34-.59.54.54,0,0,0,.07.35A.54.54,0,0,0,3.73,21.1Z"/><path class="cls-5" d="M2.52,21.82a.18.18,0,0,1,0,.07c-.11.06-.29,0-.39-.23s-.11-.39,0-.45l.08,0a.44.44,0,0,0,0,.39A.42.42,0,0,0,2.52,21.82Z"/><path class="cls-7" d="M2.52,21.82a.42.42,0,0,1-.31-.24.44.44,0,0,1,0-.39.47.47,0,0,1,.31.25A.42.42,0,0,1,2.52,21.82Z"/><path class="cls-8" d="M3.54,21.48a1.3,1.3,0,0,0-.57-1,.39.39,0,0,0-.4,0l-.12.07.81,1.38.12-.07A.4.4,0,0,0,3.54,21.48Z"/><path class="cls-9" d="M3.42,21.54c0,.37-.25.51-.56.33a1.24,1.24,0,0,1-.57-1c0-.36.25-.51.57-.33A1.25,1.25,0,0,1,3.42,21.54Z"/><path class="cls-8" d="M3.23,21.48a.9.9,0,0,0-.41-.72.28.28,0,0,0-.29,0l-.09.05.59,1,.09-.05A.3.3,0,0,0,3.23,21.48Z"/><path class="cls-10" d="M3.15,21.53c0,.26-.19.37-.42.23a.9.9,0,0,1-.41-.71c0-.27.18-.37.41-.24A.91.91,0,0,1,3.15,21.53Z"/><path class="cls-9" d="M38.82,37.73a3.34,3.34,0,0,0,1.52,2.62c.84.49,1.52.09,1.52-.87a3.35,3.35,0,0,0-1.52-2.63C39.5,36.37,38.82,36.76,38.82,37.73Z"/><path class="cls-6" d="M39,37.81a3,3,0,0,0,1.37,2.38c.76.44,1.37.08,1.37-.8A3,3,0,0,0,40.34,37C39.58,36.58,39,36.93,39,37.81Z"/><path class="cls-7" d="M39.79,38.28a1.25,1.25,0,0,0,.55,1c.3.17.55,0,.55-.32a1.21,1.21,0,0,0-.55-1C40,37.79,39.79,37.93,39.79,38.28Z"/><path class="cls-7" d="M40.07,39.57a.61.61,0,0,0,.27.48c.15.08.27,0,.27-.16a.61.61,0,0,0-.27-.48C40.19,39.33,40.07,39.4,40.07,39.57Z"/><path class="cls-7" d="M40.07,37.32a.61.61,0,0,0,.27.47c.15.09.27,0,.27-.16a.59.59,0,0,0-.27-.47C40.19,37.07,40.07,37.14,40.07,37.32Z"/><path class="cls-7" d="M41.32,39.48c.15.09.27,0,.27-.16a.61.61,0,0,0-.27-.47c-.16-.09-.28,0-.28.16A.6.6,0,0,0,41.32,39.48Z"/><path class="cls-7" d="M39.36,38.35c.15.09.28,0,.28-.15a.62.62,0,0,0-.28-.48c-.15-.09-.27,0-.27.16A.59.59,0,0,0,39.36,38.35Z"/><path class="cls-7" d="M41.23,38.54c.1-.06.1-.26,0-.45s-.29-.29-.39-.22-.11.26,0,.44S41.12,38.6,41.23,38.54Z"/><path class="cls-7" d="M39.84,39.34c.11-.07.11-.27,0-.45s-.28-.29-.39-.23-.1.27,0,.45S39.74,39.4,39.84,39.34Z"/><path class="cls-7" d="M39.84,37.29c-.1-.18-.28-.28-.39-.22s-.1.26,0,.45.29.28.39.22S40,37.48,39.84,37.29Z"/><path class="cls-7" d="M41.23,39.69c-.11-.19-.29-.29-.39-.23s-.11.27,0,.45.28.29.39.22S41.33,39.87,41.23,39.69Z"/><path class="cls-9" d="M8.06,20c0,1-.68,1.36-1.51.87A3.35,3.35,0,0,1,5,18.21c0-1,.68-1.35,1.52-.87A3.36,3.36,0,0,1,8.06,20Z"/><path class="cls-6" d="M7.92,19.88c0,.88-.62,1.23-1.37.8A3.05,3.05,0,0,1,5.17,18.3c0-.88.62-1.23,1.38-.79A3,3,0,0,1,7.92,19.88Z"/><path class="cls-7" d="M7.09,19.41c0,.35-.24.49-.54.31A1.19,1.19,0,0,1,6,18.77c0-.35.24-.49.55-.31A1.2,1.2,0,0,1,7.09,19.41Z"/><path class="cls-7" d="M6.82,20.38c0,.17-.12.24-.27.16a.6.6,0,0,1-.28-.48c0-.17.12-.25.28-.16A.61.61,0,0,1,6.82,20.38Z"/><path class="cls-7" d="M6.82,18.12c0,.18-.12.25-.27.16a.6.6,0,0,1-.28-.48c0-.17.12-.24.28-.16A.63.63,0,0,1,6.82,18.12Z"/><path class="cls-7" d="M5.57,18.84a.6.6,0,0,1-.28-.47c0-.18.13-.25.28-.16a.61.61,0,0,1,.27.48C5.84,18.86,5.72,18.93,5.57,18.84Z"/><path class="cls-7" d="M7.52,20a.61.61,0,0,1-.27-.47c0-.18.12-.25.27-.16a.59.59,0,0,1,.28.47C7.8,20,7.68,20.06,7.52,20Z"/><path class="cls-7" d="M5.66,18c-.11-.19-.11-.39,0-.45s.28,0,.39.22.11.39,0,.45S5.77,18.19,5.66,18Z"/><path class="cls-7" d="M7,20.4c-.1-.19-.1-.39,0-.45s.28,0,.39.23.11.38,0,.44S7.15,20.58,7,20.4Z"/><path class="cls-7" d="M7,18.36c.11-.07.28,0,.39.22s.11.39,0,.45S7.15,19,7,18.8,6.94,18.42,7,18.36Z"/><path class="cls-7" d="M5.66,19.15c.11-.06.28,0,.39.23s.11.38,0,.45-.28,0-.39-.23S5.55,19.22,5.66,19.15Z"/><path class="cls-3" d="M12.94,25.13A5.39,5.39,0,0,0,10.5,20.9a1.71,1.71,0,0,0-1.72-.17L7,21.74l3.5,5.94,1.73-1A1.72,1.72,0,0,0,12.94,25.13Z"/><path class="cls-4" d="M11.23,26.12c0,1.55-1.09,2.18-2.44,1.4A5.4,5.4,0,0,1,6.35,23.3c0-1.56,1.1-2.19,2.44-1.41A5.39,5.39,0,0,1,11.23,26.12Z"/><path class="cls-2" d="M11,26c0,1.41-1,2-2.21,1.28a4.91,4.91,0,0,1-2.2-3.83c0-1.41,1-2,2.2-1.27A4.86,4.86,0,0,1,11,26Z"/><path class="cls-3" d="M10.73,26.41a5.39,5.39,0,0,0-2.44-4.23A1.71,1.71,0,0,0,6.56,22L4.83,23,8.32,29l1.73-1A1.74,1.74,0,0,0,10.73,26.41Z"/><path class="cls-4" d="M9,27.39C9,29,7.93,29.58,6.58,28.8a5.39,5.39,0,0,1-2.44-4.22c0-1.56,1.09-2.19,2.44-1.41A5.39,5.39,0,0,1,9,27.39Z"/><path class="cls-5" d="M8.41,28.47a1.39,1.39,0,0,1-1.83.06,4.86,4.86,0,0,1-2.21-3.82c0-.87.38-1.42,1-1.55A1.79,1.79,0,0,0,5,24.37,4.9,4.9,0,0,0,7.16,28.2,1.74,1.74,0,0,0,8.41,28.47Z"/><path class="cls-6" d="M8.79,27.26a1.79,1.79,0,0,1-.38,1.21h0a1.74,1.74,0,0,1-1.25-.27A4.9,4.9,0,0,1,5,24.37a1.79,1.79,0,0,1,.38-1.21h0a1.75,1.75,0,0,1,1.25.28A4.86,4.86,0,0,1,8.79,27.26Z"/><path class="cls-5" d="M7.88,26.65a.56.56,0,0,1-.72,0,2,2,0,0,1-.88-1.53c0-.35.15-.57.38-.62A.7.7,0,0,0,6.5,25a2,2,0,0,0,.88,1.53A.71.71,0,0,0,7.88,26.65Z"/><path class="cls-7" d="M8,26.16a.7.7,0,0,1-.16.49h0a.71.71,0,0,1-.5-.11A2,2,0,0,1,6.5,25a.7.7,0,0,1,.16-.49h0a.71.71,0,0,1,.5.11A2,2,0,0,1,8,26.16Z"/><path class="cls-5" d="M7.56,27.9c-.07.14-.22.18-.4.07a1,1,0,0,1-.44-.76c0-.21.1-.32.26-.31a.32.32,0,0,0,0,.18,1,1,0,0,0,.44.76A.38.38,0,0,0,7.56,27.9Z"/><path class="cls-7" d="M7.6,27.72a.32.32,0,0,1,0,.18.38.38,0,0,1-.18-.06,1,1,0,0,1-.44-.76.32.32,0,0,1,0-.18.49.49,0,0,1,.18.05A1,1,0,0,1,7.6,27.72Z"/><path class="cls-5" d="M6.72,23.58a1,1,0,0,0,.44.76c.18.11.33.07.4-.07a.45.45,0,0,1-.18-.05,1,1,0,0,1-.39-.5l-.27-.2Z"/><path class="cls-7" d="M7.38,24.22a.45.45,0,0,0,.18.05h0A4.22,4.22,0,0,0,7,23.72,1,1,0,0,0,7.38,24.22Z"/><path class="cls-5" d="M6,25.18c-.07.14-.22.17-.4.07a1,1,0,0,1-.45-.76c0-.21.11-.33.27-.32a.36.36,0,0,0,0,.19,1,1,0,0,0,.44.76A.32.32,0,0,0,6,25.18Z"/><path class="cls-7" d="M6,25a.48.48,0,0,1,0,.18.32.32,0,0,1-.18-.06,1,1,0,0,1-.44-.76.36.36,0,0,1,0-.19.54.54,0,0,1,.18.06A1,1,0,0,1,6,25Z"/><path class="cls-5" d="M8.51,26.17a.34.34,0,0,1,0-.18c-.15,0-.26.1-.26.31a1,1,0,0,0,.44.77l0,0a1.84,1.84,0,0,0,0-.33A1,1,0,0,1,8.51,26.17Z"/><path class="cls-7" d="M8.51,26.17a1,1,0,0,0,.24.59A5.09,5.09,0,0,0,8.56,26h0A.34.34,0,0,0,8.51,26.17Z"/><path class="cls-5" d="M5.73,23.9c.18.3.46.46.63.36a.18.18,0,0,0,.09-.1A.66.66,0,0,1,6,23.77a.71.71,0,0,1-.1-.61h0a.22.22,0,0,0-.11,0C5.56,23.28,5.56,23.61,5.73,23.9Z"/><path class="cls-7" d="M6,23.77a.66.66,0,0,0,.49.39.73.73,0,0,0-.09-.62A.86.86,0,0,0,6,23.19l-.14,0A.71.71,0,0,0,6,23.77Z"/><path class="cls-5" d="M8.67,28a.18.18,0,0,1-.09.1c-.17.1-.45-.06-.62-.36s-.18-.62,0-.72a.28.28,0,0,1,.13,0,.73.73,0,0,0,.09.62A.68.68,0,0,0,8.67,28Z"/><path class="cls-7" d="M8.67,28a.68.68,0,0,1-.49-.39A.73.73,0,0,1,8.09,27a.71.71,0,0,1,.49.39A.67.67,0,0,1,8.67,28Z"/><path class="cls-5" d="M8.39,25.56a5.77,5.77,0,0,0-.54-.93.87.87,0,0,0,.54.93Z"/><path class="cls-5" d="M6.45,26.73a.22.22,0,0,1-.09.1c-.17.1-.45-.06-.63-.36s-.17-.62,0-.72a.32.32,0,0,1,.14,0,.66.66,0,0,0,.09.62A.71.71,0,0,0,6.45,26.73Z"/><path class="cls-7" d="M6.45,26.73A.71.71,0,0,1,6,26.34a.66.66,0,0,1-.09-.62.71.71,0,0,1,.49.39A.73.73,0,0,1,6.45,26.73Z"/><path class="cls-8" d="M8.08,26.17a2,2,0,0,0-.91-1.57.63.63,0,0,0-.64-.06l-.2.11,1.3,2.21.2-.11A.67.67,0,0,0,8.08,26.17Z"/><path class="cls-9" d="M7.89,26.28c0,.58-.4.81-.9.53a2,2,0,0,1-.91-1.58c0-.58.4-.81.91-.52A2,2,0,0,1,7.89,26.28Z"/><path class="cls-8" d="M7.59,26.17A1.5,1.5,0,0,0,6.93,25a.48.48,0,0,0-.47,0l-.15.08,1,1.62.15-.09A.47.47,0,0,0,7.59,26.17Z"/><path class="cls-10" d="M7.45,26.25c0,.43-.3.6-.66.39a1.48,1.48,0,0,1-.67-1.15c0-.42.3-.59.67-.38A1.47,1.47,0,0,1,7.45,26.25Z"/><path class="cls-3" d="M18.12,28.11a5.41,5.41,0,0,0-2.44-4.22A1.71,1.71,0,0,0,14,23.72l-1.74,1,3.5,6,1.73-1A1.75,1.75,0,0,0,18.12,28.11Z"/><path class="cls-4" d="M16.4,29.1c0,1.56-1.09,2.19-2.43,1.41a5.39,5.39,0,0,1-2.44-4.23c0-1.55,1.09-2.18,2.44-1.4A5.39,5.39,0,0,1,16.4,29.1Z"/><path class="cls-2" d="M16.17,29c0,1.41-1,2-2.2,1.27a4.86,4.86,0,0,1-2.21-3.82c0-1.41,1-2,2.21-1.28A4.91,4.91,0,0,1,16.17,29Z"/><path class="cls-3" d="M15.9,29.39a5.36,5.36,0,0,0-2.44-4.22A1.69,1.69,0,0,0,11.74,25L10,26,13.49,32l1.73-1A1.72,1.72,0,0,0,15.9,29.39Z"/><path class="cls-4" d="M14.19,30.38c0,1.55-1.09,2.19-2.44,1.41a5.39,5.39,0,0,1-2.44-4.23c0-1.55,1.09-2.18,2.44-1.41A5.39,5.39,0,0,1,14.19,30.38Z"/><path class="cls-5" d="M13.58,31.46a1.4,1.4,0,0,1-1.83.06A4.88,4.88,0,0,1,9.54,27.7c0-.88.38-1.43,1-1.55a1.79,1.79,0,0,0-.38,1.21,4.86,4.86,0,0,0,2.21,3.82A1.81,1.81,0,0,0,13.58,31.46Z"/><path class="cls-6" d="M14,30.25a1.79,1.79,0,0,1-.38,1.21h0a1.81,1.81,0,0,1-1.25-.28,4.86,4.86,0,0,1-2.21-3.82,1.79,1.79,0,0,1,.38-1.21h0a1.74,1.74,0,0,1,1.25.27A4.9,4.9,0,0,1,14,30.25Z"/><path class="cls-5" d="M13.05,29.64a.55.55,0,0,1-.72,0,1.93,1.93,0,0,1-.88-1.53c0-.34.15-.57.38-.62a.73.73,0,0,0-.16.5,2,2,0,0,0,.88,1.53A.76.76,0,0,0,13.05,29.64Z"/><path class="cls-7" d="M13.21,29.14a.73.73,0,0,1-.16.5h0a.76.76,0,0,1-.5-.11A2,2,0,0,1,11.67,28a.73.73,0,0,1,.16-.5h0a.76.76,0,0,1,.5.11A2,2,0,0,1,13.21,29.14Z"/><path class="cls-5" d="M12.73,30.89c-.07.14-.22.17-.4.07a1,1,0,0,1-.44-.77c0-.2.1-.32.26-.31a.36.36,0,0,0,0,.19,1,1,0,0,0,.44.76A.38.38,0,0,0,12.73,30.89Z"/><path class="cls-7" d="M12.77,30.7a.36.36,0,0,1,0,.19.38.38,0,0,1-.18-.06,1,1,0,0,1-.44-.76.36.36,0,0,1,0-.19.38.38,0,0,1,.18.06A1,1,0,0,1,12.77,30.7Z"/><path class="cls-5" d="M11.89,26.56a1,1,0,0,0,.44.77c.18.1.33.07.4-.07a.38.38,0,0,1-.18-.06,1,1,0,0,1-.39-.5l-.27-.19Z"/><path class="cls-7" d="M12.55,27.2a.38.38,0,0,0,.18.06h0a4.3,4.3,0,0,0-.57-.56A1,1,0,0,0,12.55,27.2Z"/><path class="cls-5" d="M11.16,28.17c-.07.13-.22.17-.4.07a1,1,0,0,1-.44-.77c0-.21.1-.32.26-.31a.34.34,0,0,0,0,.18,1,1,0,0,0,.44.77A.76.76,0,0,0,11.16,28.17Z"/><path class="cls-7" d="M11.2,28a.38.38,0,0,1,0,.19.76.76,0,0,1-.18-.06,1,1,0,0,1-.44-.77.34.34,0,0,1,0-.18.38.38,0,0,1,.18.06A1,1,0,0,1,11.2,28Z"/><path class="cls-5" d="M13.68,29.16a.36.36,0,0,1,0-.19c-.15,0-.26.11-.26.32a1,1,0,0,0,.44.76l0,0a2,2,0,0,0,0-.34A1,1,0,0,1,13.68,29.16Z"/><path class="cls-7" d="M13.68,29.16a1,1,0,0,0,.24.58,5.76,5.76,0,0,0-.19-.77h0A.36.36,0,0,0,13.68,29.16Z"/><path class="cls-5" d="M10.91,26.89c.17.3.45.46.62.36a.22.22,0,0,0,.09-.1.85.85,0,0,1-.58-1h0a.17.17,0,0,0-.1,0C10.73,26.27,10.73,26.59,10.91,26.89Z"/><path class="cls-7" d="M11.13,26.76a.71.71,0,0,0,.49.39.73.73,0,0,0-.09-.62.8.8,0,0,0-.36-.35.31.31,0,0,0-.13,0A.71.71,0,0,0,11.13,26.76Z"/><path class="cls-5" d="M13.84,31a.22.22,0,0,1-.09.1c-.17.1-.45-.06-.62-.36s-.17-.62,0-.72a.28.28,0,0,1,.13,0,.73.73,0,0,0,.09.62A.71.71,0,0,0,13.84,31Z"/><path class="cls-7" d="M13.84,31a.71.71,0,0,1-.49-.39.73.73,0,0,1-.09-.62.71.71,0,0,1,.49.39A.66.66,0,0,1,13.84,31Z"/><path class="cls-5" d="M13.56,28.55a5.46,5.46,0,0,0-.54-.94.76.76,0,0,0,.11.56A.77.77,0,0,0,13.56,28.55Z"/><path class="cls-5" d="M11.62,29.72a.28.28,0,0,1-.09.1c-.17.1-.45-.07-.62-.36s-.18-.63,0-.73a.18.18,0,0,1,.13,0,.67.67,0,0,0,.09.62A.71.71,0,0,0,11.62,29.72Z"/><path class="cls-7" d="M11.62,29.72a.71.71,0,0,1-.49-.39.67.67,0,0,1-.09-.62.69.69,0,0,1,.49.38A.75.75,0,0,1,11.62,29.72Z"/><path class="cls-8" d="M13.25,29.16a2,2,0,0,0-.91-1.57.64.64,0,0,0-.64-.07l-.2.12,1.3,2.21.2-.11A.67.67,0,0,0,13.25,29.16Z"/><path class="cls-9" d="M13.06,29.27c0,.58-.4.81-.9.52a2,2,0,0,1-.91-1.57c0-.58.4-.82.91-.53A2,2,0,0,1,13.06,29.27Z"/><path class="cls-8" d="M12.76,29.16A1.48,1.48,0,0,0,12.1,28a.48.48,0,0,0-.47-.05l-.15.09.95,1.61.15-.08A.48.48,0,0,0,12.76,29.16Z"/><path class="cls-10" d="M12.62,29.24c0,.42-.3.59-.66.38a1.44,1.44,0,0,1-.66-1.15c0-.42.29-.59.66-.38A1.48,1.48,0,0,1,12.62,29.24Z"/><path class="cls-3" d="M23.29,31.1a5.42,5.42,0,0,0-2.44-4.23,1.73,1.73,0,0,0-1.73-.17l-1.74,1,3.5,5.94,1.73-1A1.73,1.73,0,0,0,23.29,31.1Z"/><path class="cls-4" d="M21.58,32.09c0,1.55-1.1,2.18-2.44,1.41a5.39,5.39,0,0,1-2.44-4.23c0-1.56,1.09-2.19,2.44-1.41A5.42,5.42,0,0,1,21.58,32.09Z"/><path class="cls-2" d="M21.34,32c0,1.41-1,2-2.2,1.28a4.9,4.9,0,0,1-2.21-3.83c0-1.4,1-2,2.21-1.27A4.85,4.85,0,0,1,21.34,32Z"/><path class="cls-3" d="M21.07,32.38a5.39,5.39,0,0,0-2.44-4.23A1.71,1.71,0,0,0,16.91,28l-1.74,1,3.49,5.94,1.74-1A1.75,1.75,0,0,0,21.07,32.38Z"/><path class="cls-4" d="M19.36,33.37c0,1.55-1.09,2.18-2.44,1.4a5.37,5.37,0,0,1-2.44-4.22c0-1.56,1.09-2.19,2.44-1.41A5.39,5.39,0,0,1,19.36,33.37Z"/><path class="cls-5" d="M18.75,34.44a1.4,1.4,0,0,1-1.83.07,4.9,4.9,0,0,1-2.21-3.83c0-.87.38-1.42,1-1.55a1.79,1.79,0,0,0-.38,1.21,4.9,4.9,0,0,0,2.21,3.83A1.74,1.74,0,0,0,18.75,34.44Z"/><path class="cls-6" d="M19.13,33.23a1.79,1.79,0,0,1-.38,1.21h0a1.74,1.74,0,0,1-1.25-.27,4.9,4.9,0,0,1-2.21-3.83,1.79,1.79,0,0,1,.38-1.21h0a1.81,1.81,0,0,1,1.25.28A4.86,4.86,0,0,1,19.13,33.23Z"/><path class="cls-5" d="M18.22,32.62a.56.56,0,0,1-.72,0,2,2,0,0,1-.88-1.53c0-.35.15-.57.38-.62a.7.7,0,0,0-.16.49,2,2,0,0,0,.88,1.53A.71.71,0,0,0,18.22,32.62Z"/><path class="cls-7" d="M18.38,32.13a.7.7,0,0,1-.16.49h0a.71.71,0,0,1-.5-.11A2,2,0,0,1,16.84,31a.7.7,0,0,1,.16-.49h0a.71.71,0,0,1,.5.11A2,2,0,0,1,18.38,32.13Z"/><path class="cls-5" d="M17.9,33.87c-.06.14-.22.18-.4.07a1,1,0,0,1-.44-.76c0-.21.1-.32.26-.31a.32.32,0,0,0,0,.18,1,1,0,0,0,.44.77A.49.49,0,0,0,17.9,33.87Z"/><path class="cls-7" d="M17.94,33.69a.32.32,0,0,1,0,.18.49.49,0,0,1-.18,0,1,1,0,0,1-.44-.77.32.32,0,0,1,0-.18.45.45,0,0,1,.18.05A1,1,0,0,1,17.94,33.69Z"/><path class="cls-5" d="M17.06,29.55a1,1,0,0,0,.44.76c.18.11.34.07.4-.07a.49.49,0,0,1-.18,0,1,1,0,0,1-.39-.5,2.69,2.69,0,0,0-.27-.2Z"/><path class="cls-7" d="M17.72,30.19a.49.49,0,0,0,.18,0h0a3.71,3.71,0,0,0-.57-.55A1,1,0,0,0,17.72,30.19Z"/><path class="cls-5" d="M16.33,31.15c-.07.14-.22.18-.4.07a1,1,0,0,1-.44-.76c0-.21.1-.33.26-.32a.36.36,0,0,0,0,.19,1,1,0,0,0,.44.76A.35.35,0,0,0,16.33,31.15Z"/><path class="cls-7" d="M16.37,31a.34.34,0,0,1,0,.18.35.35,0,0,1-.18-.06,1,1,0,0,1-.44-.76.36.36,0,0,1,0-.19l.18.06A1,1,0,0,1,16.37,31Z"/><path class="cls-5" d="M18.85,32.14a.48.48,0,0,1,0-.18c-.15,0-.26.1-.26.31a1,1,0,0,0,.44.77l.05,0a1.84,1.84,0,0,0,0-.33A1,1,0,0,1,18.85,32.14Z"/><path class="cls-7" d="M18.85,32.14a1,1,0,0,0,.24.59A4.33,4.33,0,0,0,18.9,32h0A.48.48,0,0,0,18.85,32.14Z"/><path class="cls-5" d="M16.08,29.87c.17.3.45.46.62.36a.2.2,0,0,0,.09-.09.86.86,0,0,1-.58-1h0a.16.16,0,0,0-.1,0C15.9,29.25,15.9,29.58,16.08,29.87Z"/><path class="cls-7" d="M16.3,29.74a.7.7,0,0,0,.49.4.75.75,0,0,0-.09-.63.86.86,0,0,0-.36-.35l-.13,0A.7.7,0,0,0,16.3,29.74Z"/><path class="cls-5" d="M19,34a.18.18,0,0,1-.09.1c-.17.11-.45-.06-.62-.35s-.17-.63,0-.73a.19.19,0,0,1,.13,0,.73.73,0,0,0,.09.62A.68.68,0,0,0,19,34Z"/><path class="cls-7" d="M19,34a.68.68,0,0,1-.49-.38.73.73,0,0,1-.09-.62A.83.83,0,0,1,19,34Z"/><path class="cls-5" d="M18.73,31.53a5.77,5.77,0,0,0-.54-.93.76.76,0,0,0,.11.56A.74.74,0,0,0,18.73,31.53Z"/><path class="cls-5" d="M16.79,32.7a.18.18,0,0,1-.09.1c-.17.1-.45-.06-.62-.36s-.18-.62,0-.72a.28.28,0,0,1,.13,0,.73.73,0,0,0,.09.62A.71.71,0,0,0,16.79,32.7Z"/><path class="cls-7" d="M16.79,32.7a.71.71,0,0,1-.49-.39.73.73,0,0,1-.09-.62.71.71,0,0,1,.49.39A.73.73,0,0,1,16.79,32.7Z"/><path class="cls-8" d="M18.42,32.15a2,2,0,0,0-.91-1.58.63.63,0,0,0-.64-.06l-.2.11L18,32.84l.19-.12A.63.63,0,0,0,18.42,32.15Z"/><path class="cls-9" d="M18.24,32.25c0,.58-.41.82-.91.53a2,2,0,0,1-.91-1.58c0-.58.41-.81.91-.52A2,2,0,0,1,18.24,32.25Z"/><path class="cls-8" d="M17.93,32.14A1.44,1.44,0,0,0,17.27,31,.46.46,0,0,0,16.8,31l-.15.09,1,1.61.15-.08A.5.5,0,0,0,17.93,32.14Z"/><path class="cls-10" d="M17.79,32.22c0,.43-.29.6-.66.39a1.46,1.46,0,0,1-.66-1.15c0-.42.29-.59.66-.38A1.44,1.44,0,0,1,17.79,32.22Z"/><path class="cls-3" d="M28.46,34.08A5.39,5.39,0,0,0,26,29.86a1.71,1.71,0,0,0-1.73-.17l-1.74,1,3.5,5.95,1.73-1A1.75,1.75,0,0,0,28.46,34.08Z"/><path class="cls-4" d="M26.75,35.07c0,1.56-1.1,2.19-2.44,1.41a5.39,5.39,0,0,1-2.44-4.23c0-1.55,1.09-2.18,2.44-1.4A5.4,5.4,0,0,1,26.75,35.07Z"/><path class="cls-2" d="M26.52,34.94c0,1.41-1,2-2.21,1.27a4.86,4.86,0,0,1-2.21-3.82c0-1.41,1-2,2.21-1.28A4.9,4.9,0,0,1,26.52,34.94Z"/><path class="cls-3" d="M26.24,35.36a5.37,5.37,0,0,0-2.44-4.22A1.69,1.69,0,0,0,22.08,31l-1.74,1,3.5,6,1.73-1A1.71,1.71,0,0,0,26.24,35.36Z"/><path class="cls-4" d="M24.53,36.35c0,1.56-1.09,2.19-2.44,1.41a5.42,5.42,0,0,1-2.44-4.23c0-1.55,1.1-2.18,2.44-1.41A5.39,5.39,0,0,1,24.53,36.35Z"/><path class="cls-5" d="M23.92,37.43a1.4,1.4,0,0,1-1.83.06,4.88,4.88,0,0,1-2.21-3.82c0-.88.38-1.43,1-1.55a1.79,1.79,0,0,0-.38,1.21,4.86,4.86,0,0,0,2.21,3.82A1.75,1.75,0,0,0,23.92,37.43Z"/><path class="cls-6" d="M24.3,36.22a1.79,1.79,0,0,1-.38,1.21h0a1.75,1.75,0,0,1-1.25-.28,4.86,4.86,0,0,1-2.21-3.82,1.79,1.79,0,0,1,.38-1.21h0a1.73,1.73,0,0,1,1.24.27A4.9,4.9,0,0,1,24.3,36.22Z"/><path class="cls-5" d="M23.39,35.61c-.15.17-.42.19-.72,0a1.93,1.93,0,0,1-.88-1.53.57.57,0,0,1,.38-.62A.73.73,0,0,0,22,34a2,2,0,0,0,.88,1.53A.76.76,0,0,0,23.39,35.61Z"/><path class="cls-7" d="M23.55,35.12a.72.72,0,0,1-.16.49h0a.76.76,0,0,1-.5-.11A2,2,0,0,1,22,34a.73.73,0,0,1,.16-.5h0a.72.72,0,0,1,.5.12A1.93,1.93,0,0,1,23.55,35.12Z"/><path class="cls-5" d="M23.08,36.86c-.07.14-.23.17-.41.07a1,1,0,0,1-.44-.76c0-.21.11-.33.26-.32a.36.36,0,0,0,0,.19,1,1,0,0,0,.44.76A.38.38,0,0,0,23.08,36.86Z"/><path class="cls-7" d="M23.11,36.67a.5.5,0,0,1,0,.19.38.38,0,0,1-.19-.06,1,1,0,0,1-.44-.76.36.36,0,0,1,0-.19.35.35,0,0,1,.18.06A1,1,0,0,1,23.11,36.67Z"/><path class="cls-5" d="M22.23,32.53a1,1,0,0,0,.44.77c.18.1.34.07.41-.07a.38.38,0,0,1-.19-.06,1.07,1.07,0,0,1-.39-.49,2.69,2.69,0,0,0-.27-.2Z"/><path class="cls-7" d="M22.89,33.17a.38.38,0,0,0,.19.06h0a3.75,3.75,0,0,0-.58-.55A1.07,1.07,0,0,0,22.89,33.17Z"/><path class="cls-5" d="M21.5,34.14c-.07.13-.22.17-.4.07a1,1,0,0,1-.44-.77c0-.21.1-.32.26-.31a.34.34,0,0,0,0,.18,1,1,0,0,0,.44.77Z"/><path class="cls-7" d="M21.54,34a.38.38,0,0,1,0,.19l-.18-.06a1,1,0,0,1-.44-.77.34.34,0,0,1,0-.18.35.35,0,0,1,.18.06A1,1,0,0,1,21.54,34Z"/><path class="cls-5" d="M24,35.13a.53.53,0,0,1,0-.19c-.15,0-.26.11-.26.32a1,1,0,0,0,.44.76l.05,0a1.84,1.84,0,0,0,0-.33A1,1,0,0,1,24,35.13Z"/><path class="cls-7" d="M24,35.13a1,1,0,0,0,.24.59,4.43,4.43,0,0,0-.19-.78h0A.53.53,0,0,0,24,35.13Z"/><path class="cls-5" d="M21.25,32.86c.17.3.45.46.62.36a.22.22,0,0,0,.09-.1.85.85,0,0,1-.58-1h0a.19.19,0,0,0-.1,0C21.07,32.24,21.07,32.56,21.25,32.86Z"/><path class="cls-7" d="M21.47,32.73a.71.71,0,0,0,.49.39.73.73,0,0,0-.09-.62.9.9,0,0,0-.35-.35l-.14,0A.71.71,0,0,0,21.47,32.73Z"/><path class="cls-5" d="M24.19,37a.45.45,0,0,1-.09.1c-.18.1-.46-.06-.63-.36s-.17-.62,0-.72a.28.28,0,0,1,.13,0,.85.85,0,0,0,.59,1Z"/><path class="cls-7" d="M24.19,37a.85.85,0,0,1-.59-1,.74.74,0,0,1,.5.39A.73.73,0,0,1,24.19,37Z"/><path class="cls-5" d="M23.9,34.52a5.46,5.46,0,0,0-.54-.94.89.89,0,0,0,.54.94Z"/><path class="cls-5" d="M22,35.69a.28.28,0,0,1-.09.1c-.17.1-.45-.07-.62-.36s-.18-.63,0-.72a.15.15,0,0,1,.13,0,.73.73,0,0,0,.09.62A.71.71,0,0,0,22,35.69Z"/><path class="cls-7" d="M22,35.69a.71.71,0,0,1-.49-.39.73.73,0,0,1-.09-.62.71.71,0,0,1,.49.39A.73.73,0,0,1,22,35.69Z"/><path class="cls-8" d="M23.59,35.13a2,2,0,0,0-.91-1.57A.61.61,0,0,0,22,33.5l-.2.11,1.31,2.21.19-.11A.67.67,0,0,0,23.59,35.13Z"/><path class="cls-9" d="M23.41,35.24c0,.58-.41.81-.91.52a2,2,0,0,1-.91-1.57c0-.58.41-.82.91-.53A2,2,0,0,1,23.41,35.24Z"/><path class="cls-8" d="M23.1,35.13A1.46,1.46,0,0,0,22.44,34a.48.48,0,0,0-.47,0l-.15.08.95,1.62.15-.09A.48.48,0,0,0,23.1,35.13Z"/><path class="cls-10" d="M23,35.21c0,.42-.29.59-.66.38a1.44,1.44,0,0,1-.66-1.15c0-.42.29-.59.66-.38A1.46,1.46,0,0,1,23,35.21Z"/><path class="cls-3" d="M33.63,37.07a5.39,5.39,0,0,0-2.44-4.23,1.73,1.73,0,0,0-1.73-.17l-1.74,1,3.5,6,1.73-1A1.73,1.73,0,0,0,33.63,37.07Z"/><path class="cls-4" d="M31.92,38.06c0,1.55-1.1,2.18-2.44,1.41A5.39,5.39,0,0,1,27,35.24c0-1.56,1.09-2.19,2.44-1.41A5.42,5.42,0,0,1,31.92,38.06Z"/><path class="cls-2" d="M31.69,37.92c0,1.41-1,2-2.21,1.28a4.9,4.9,0,0,1-2.21-3.83c0-1.4,1-2,2.21-1.27A4.88,4.88,0,0,1,31.69,37.92Z"/><path class="cls-3" d="M31.41,38.35A5.41,5.41,0,0,0,29,34.12,1.73,1.73,0,0,0,27.25,34l-1.74,1L29,40.9l1.73-1A1.72,1.72,0,0,0,31.41,38.35Z"/><path class="cls-4" d="M29.7,39.34c0,1.55-1.09,2.18-2.44,1.4a5.4,5.4,0,0,1-2.44-4.22c0-1.56,1.1-2.19,2.44-1.41A5.39,5.39,0,0,1,29.7,39.34Z"/><path class="cls-5" d="M29.09,40.42a1.42,1.42,0,0,1-1.83.06,4.92,4.92,0,0,1-2.21-3.83c0-.87.39-1.42,1-1.55a1.8,1.8,0,0,0-.38,1.22,4.88,4.88,0,0,0,2.21,3.82A1.81,1.81,0,0,0,29.09,40.42Z"/><path class="cls-6" d="M29.47,39.2a1.79,1.79,0,0,1-.38,1.21h0a1.81,1.81,0,0,1-1.25-.28,4.88,4.88,0,0,1-2.21-3.82A1.8,1.8,0,0,1,26,35.1h0a1.79,1.79,0,0,1,1.24.28A4.86,4.86,0,0,1,29.47,39.2Z"/><path class="cls-5" d="M28.56,38.59a.56.56,0,0,1-.72,0A2,2,0,0,1,27,37.08c0-.35.15-.57.38-.62a.72.72,0,0,0-.16.49,1.94,1.94,0,0,0,.89,1.53A.67.67,0,0,0,28.56,38.59Z"/><path class="cls-7" d="M28.72,38.1a.69.69,0,0,1-.16.49h0a.67.67,0,0,1-.49-.11A1.94,1.94,0,0,1,27.18,37a.72.72,0,0,1,.16-.49h0a.7.7,0,0,1,.5.11A2,2,0,0,1,28.72,38.1Z"/><path class="cls-5" d="M28.25,39.84c-.07.14-.23.18-.41.08a1,1,0,0,1-.44-.77c0-.21.11-.32.26-.31a.48.48,0,0,0,0,.18,1,1,0,0,0,.45.77A.41.41,0,0,0,28.25,39.84Z"/><path class="cls-7" d="M28.28,39.66a.45.45,0,0,1,0,.18.41.41,0,0,1-.18-.05,1,1,0,0,1-.45-.77.48.48,0,0,1,0-.18.32.32,0,0,1,.18.06A1,1,0,0,1,28.28,39.66Z"/><path class="cls-5" d="M27.4,35.52a1,1,0,0,0,.44.77c.18.1.34.06.41-.07a.64.64,0,0,1-.18-.06,1,1,0,0,1-.39-.5l-.28-.19Z"/><path class="cls-7" d="M28.07,36.16a.64.64,0,0,0,.18.06h0a4.91,4.91,0,0,0-.57-.55A1,1,0,0,0,28.07,36.16Z"/><path class="cls-5" d="M26.67,37.12c-.06.14-.22.18-.4.07a1,1,0,0,1-.44-.76c0-.21.11-.33.26-.32a.53.53,0,0,0,0,.19,1,1,0,0,0,.44.76A.38.38,0,0,0,26.67,37.12Z"/><path class="cls-7" d="M26.71,36.94a.34.34,0,0,1,0,.18.38.38,0,0,1-.18-.06,1,1,0,0,1-.44-.76.53.53,0,0,1,0-.19l.18.06A1,1,0,0,1,26.71,36.94Z"/><path class="cls-5" d="M29.19,38.11a.48.48,0,0,1,0-.18c-.15,0-.26.11-.26.31a1,1,0,0,0,.44.77l.06,0c0-.11,0-.22,0-.33A1,1,0,0,1,29.19,38.11Z"/><path class="cls-7" d="M29.19,38.11a1,1,0,0,0,.24.59,4.55,4.55,0,0,0-.19-.77h0A.48.48,0,0,0,29.19,38.11Z"/><path class="cls-5" d="M26.42,35.85c.17.29.45.46.62.35a.2.2,0,0,0,.09-.09.71.71,0,0,1-.49-.39.73.73,0,0,1-.09-.62h0a.18.18,0,0,0-.1,0C26.25,35.22,26.25,35.55,26.42,35.85Z"/><path class="cls-7" d="M26.64,35.72a.71.71,0,0,0,.49.39.69.69,0,0,0-.09-.63.9.9,0,0,0-.35-.35l-.14,0A.73.73,0,0,0,26.64,35.72Z"/><path class="cls-5" d="M29.36,40a.28.28,0,0,1-.09.1c-.18.1-.46-.07-.63-.36s-.17-.63,0-.73a.19.19,0,0,1,.13,0,.85.85,0,0,0,.59,1Z"/><path class="cls-7" d="M29.36,40a.85.85,0,0,1-.59-1,.7.7,0,0,1,.5.39A.73.73,0,0,1,29.36,40Z"/><path class="cls-5" d="M29.07,37.51a5.46,5.46,0,0,0-.54-.94.76.76,0,0,0,.11.56A.8.8,0,0,0,29.07,37.51Z"/><path class="cls-5" d="M27.13,38.67a.18.18,0,0,1-.09.1c-.17.1-.45-.06-.62-.36s-.17-.62,0-.72a.28.28,0,0,1,.13,0,.73.73,0,0,0,.09.62A.68.68,0,0,0,27.13,38.67Z"/><path class="cls-7" d="M27.13,38.67a.68.68,0,0,1-.49-.39.73.73,0,0,1-.09-.62.71.71,0,0,1,.49.39A.67.67,0,0,1,27.13,38.67Z"/><path class="cls-8" d="M28.76,38.12a2,2,0,0,0-.91-1.58.66.66,0,0,0-.64-.06l-.19.11,1.3,2.22.19-.12A.63.63,0,0,0,28.76,38.12Z"/><path class="cls-9" d="M28.58,38.22c0,.58-.41.82-.91.53a2,2,0,0,1-.91-1.58c0-.57.41-.81.91-.52A2,2,0,0,1,28.58,38.22Z"/><path class="cls-8" d="M28.27,38.11A1.44,1.44,0,0,0,27.61,37a.46.46,0,0,0-.47,0L27,37l1,1.61.15-.08A.5.5,0,0,0,28.27,38.11Z"/><path class="cls-10" d="M28.13,38.2c0,.42-.29.59-.66.38a1.48,1.48,0,0,1-.66-1.15c0-.42.3-.59.66-.38A1.44,1.44,0,0,1,28.13,38.2Z"/><path class="cls-3" d="M38.8,40.06a5.39,5.39,0,0,0-2.44-4.23,1.71,1.71,0,0,0-1.73-.17l-1.74,1,3.5,6,1.73-1A1.74,1.74,0,0,0,38.8,40.06Z"/><path class="cls-4" d="M37.09,41c0,1.56-1.09,2.19-2.44,1.41a5.39,5.39,0,0,1-2.44-4.22c0-1.56,1.09-2.19,2.44-1.41A5.39,5.39,0,0,1,37.09,41Z"/><path class="cls-2" d="M36.86,40.91c0,1.41-1,2-2.21,1.27a4.86,4.86,0,0,1-2.21-3.82c0-1.41,1-2,2.21-1.28A4.9,4.9,0,0,1,36.86,40.91Z"/><path class="cls-3" d="M36.59,41.33a5.41,5.41,0,0,0-2.44-4.22,1.71,1.71,0,0,0-1.73-.17l-1.74,1,3.5,6,1.73-1A1.75,1.75,0,0,0,36.59,41.33Z"/><path class="cls-4" d="M34.87,42.32c0,1.56-1.09,2.19-2.43,1.41A5.39,5.39,0,0,1,30,39.5c0-1.55,1.09-2.18,2.44-1.4A5.39,5.39,0,0,1,34.87,42.32Z"/><path class="cls-5" d="M34.26,43.4a1.39,1.39,0,0,1-1.82.06,4.86,4.86,0,0,1-2.21-3.82c0-.87.38-1.43,1-1.55a1.74,1.74,0,0,0-.39,1.21A4.9,4.9,0,0,0,33,43.13,1.8,1.8,0,0,0,34.26,43.4Z"/><path class="cls-6" d="M34.64,42.19a1.79,1.79,0,0,1-.38,1.21h0A1.8,1.8,0,0,1,33,43.13,4.9,4.9,0,0,1,30.8,39.3a1.74,1.74,0,0,1,.39-1.21h0a1.81,1.81,0,0,1,1.25.27A4.91,4.91,0,0,1,34.64,42.19Z"/><path class="cls-5" d="M33.73,41.58a.56.56,0,0,1-.72,0,2,2,0,0,1-.88-1.53c0-.35.15-.57.38-.62a.69.69,0,0,0-.16.49,2,2,0,0,0,.89,1.53A.73.73,0,0,0,33.73,41.58Z"/><path class="cls-7" d="M33.9,41.09a.72.72,0,0,1-.16.49h0a.73.73,0,0,1-.49-.11,2,2,0,0,1-.89-1.53.69.69,0,0,1,.16-.49h0a.65.65,0,0,1,.5.11A1.94,1.94,0,0,1,33.9,41.09Z"/><path class="cls-5" d="M33.42,42.83c-.07.14-.23.17-.41.07a1,1,0,0,1-.44-.76c0-.21.11-.33.26-.32a.49.49,0,0,0,0,.19,1,1,0,0,0,.45.76A.32.32,0,0,0,33.42,42.83Z"/><path class="cls-7" d="M33.45,42.65a.48.48,0,0,1,0,.18.32.32,0,0,1-.18-.06,1,1,0,0,1-.45-.76.49.49,0,0,1,0-.19.32.32,0,0,1,.18.06A1,1,0,0,1,33.45,42.65Z"/><path class="cls-5" d="M32.57,38.5a1,1,0,0,0,.44.77c.18.11.34.07.41-.07a.32.32,0,0,1-.18-.06,1,1,0,0,1-.39-.49,2.83,2.83,0,0,0-.28-.2Z"/><path class="cls-7" d="M33.24,39.14a.32.32,0,0,0,.18.06h0a4.2,4.2,0,0,0-.57-.55A1,1,0,0,0,33.24,39.14Z"/><path class="cls-5" d="M31.84,40.11c-.06.14-.22.17-.4.07a1,1,0,0,1-.44-.77c0-.21.11-.32.26-.31a.48.48,0,0,0,0,.18,1,1,0,0,0,.44.77A.54.54,0,0,0,31.84,40.11Z"/><path class="cls-7" d="M31.88,39.92a.36.36,0,0,1,0,.19.54.54,0,0,1-.18-.06,1,1,0,0,1-.44-.77.48.48,0,0,1,0-.18.32.32,0,0,1,.18.06A1,1,0,0,1,31.88,39.92Z"/><path class="cls-5" d="M34.37,41.1a.54.54,0,0,1,0-.19c-.15,0-.26.11-.26.32a1,1,0,0,0,.44.76l.06,0c0-.11,0-.22,0-.33A1,1,0,0,1,34.37,41.1Z"/><path class="cls-7" d="M34.37,41.1a1,1,0,0,0,.23.59,4.43,4.43,0,0,0-.19-.78h0A.54.54,0,0,0,34.37,41.1Z"/><path class="cls-5" d="M31.59,38.83c.17.3.45.46.62.36a.22.22,0,0,0,.09-.1.85.85,0,0,1-.58-1h0a.19.19,0,0,0-.1,0C31.42,38.21,31.42,38.53,31.59,38.83Z"/><path class="cls-7" d="M31.81,38.7a.71.71,0,0,0,.49.39.67.67,0,0,0-.09-.62.84.84,0,0,0-.35-.35l-.14,0A.71.71,0,0,0,31.81,38.7Z"/><path class="cls-5" d="M34.53,42.94a.22.22,0,0,1-.09.1c-.18.1-.46-.06-.63-.36s-.17-.62,0-.72a.31.31,0,0,1,.13,0,.85.85,0,0,0,.59,1Z"/><path class="cls-7" d="M34.53,42.94a.85.85,0,0,1-.59-1,.85.85,0,0,1,.59,1Z"/><path class="cls-5" d="M34.24,40.49a5.86,5.86,0,0,0-.54-.94.81.81,0,0,0,.11.56A.76.76,0,0,0,34.24,40.49Z"/><path class="cls-5" d="M32.3,41.66a.22.22,0,0,1-.09.1c-.17.1-.45-.06-.62-.36s-.17-.62,0-.72a.15.15,0,0,1,.13,0,.73.73,0,0,0,.09.62A.71.71,0,0,0,32.3,41.66Z"/><path class="cls-7" d="M32.3,41.66a.71.71,0,0,1-.49-.39.73.73,0,0,1-.09-.62.71.71,0,0,1,.49.39A.66.66,0,0,1,32.3,41.66Z"/><path class="cls-8" d="M33.93,41.1A2,2,0,0,0,33,39.53a.61.61,0,0,0-.64-.06l-.19.11,1.3,2.21.19-.11A.67.67,0,0,0,33.93,41.1Z"/><path class="cls-9" d="M33.75,41.21c0,.58-.41.81-.91.52a2,2,0,0,1-.91-1.57c0-.58.41-.81.91-.52A2,2,0,0,1,33.75,41.21Z"/><path class="cls-8" d="M33.44,41.1A1.46,1.46,0,0,0,32.78,40a.48.48,0,0,0-.47,0l-.14.08.94,1.62.15-.09A.48.48,0,0,0,33.44,41.1Z"/><path class="cls-10" d="M33.3,41.18c0,.42-.29.59-.66.38A1.47,1.47,0,0,1,32,40.42c0-.43.3-.6.66-.39A1.46,1.46,0,0,1,33.3,41.18Z"/><path class="cls-3" d="M40.37,40.31a3.38,3.38,0,0,0-1.52-2.64,1.05,1.05,0,0,0-1.08-.1l-1.08.62,2.18,3.72L40,41.28A1.09,1.09,0,0,0,40.37,40.31Z"/><path class="cls-4" d="M39.31,40.93c0,1-.69,1.36-1.53.88a3.38,3.38,0,0,1-1.52-2.64c0-1,.68-1.37,1.52-.88A3.37,3.37,0,0,1,39.31,40.93Z"/><path class="cls-5" d="M38.92,41.6c-.24.28-.66.31-1.14,0a3.06,3.06,0,0,1-1.38-2.39c0-.54.24-.89.6-1a1.13,1.13,0,0,0-.24.76,3.06,3.06,0,0,0,1.38,2.39A1.14,1.14,0,0,0,38.92,41.6Z"/><path class="cls-2" d="M39.16,40.84a1.13,1.13,0,0,1-.24.76h0a1.14,1.14,0,0,1-.78-.17A3.06,3.06,0,0,1,36.76,39a1.13,1.13,0,0,1,.24-.76h0a1.2,1.2,0,0,1,.78.17A3.06,3.06,0,0,1,39.16,40.84Z"/><path class="cls-3" d="M39,41.11a3.35,3.35,0,0,0-1.52-2.63,1.06,1.06,0,0,0-1.08-.11L35.3,39l2.18,3.71,1.08-.62A1.1,1.1,0,0,0,39,41.11Z"/><path class="cls-4" d="M37.91,41.73c0,1-.68,1.37-1.52.88A3.35,3.35,0,0,1,34.87,40c0-1,.68-1.36,1.52-.88A3.38,3.38,0,0,1,37.91,41.73Z"/><path class="cls-5" d="M37.53,42.41a.87.87,0,0,1-1.14,0A3,3,0,0,1,35,40.06c0-.55.24-.89.6-1a1.13,1.13,0,0,0-.24.76,3,3,0,0,0,1.38,2.38A1.15,1.15,0,0,0,37.53,42.41Z"/><path class="cls-6" d="M37.77,41.65a1.13,1.13,0,0,1-.24.76h0a1.15,1.15,0,0,1-.78-.18,3,3,0,0,1-1.38-2.38,1.13,1.13,0,0,1,.24-.76h0a1.09,1.09,0,0,1,.78.17A3.06,3.06,0,0,1,37.77,41.65Z"/><path class="cls-5" d="M37.2,41.27a.35.35,0,0,1-.45,0,1.23,1.23,0,0,1-.55-1c0-.21.09-.35.24-.38a.43.43,0,0,0-.1.3,1.23,1.23,0,0,0,.55,1A.42.42,0,0,0,37.2,41.27Z"/><path class="cls-7" d="M37.3,41a.41.41,0,0,1-.1.31h0a.42.42,0,0,1-.31-.07,1.23,1.23,0,0,1-.55-1,.43.43,0,0,1,.1-.3h0a.42.42,0,0,1,.31.07A1.19,1.19,0,0,1,37.3,41Z"/><path class="cls-5" d="M37,42.05c0,.09-.14.11-.25,0a.59.59,0,0,1-.27-.47c0-.13.06-.21.16-.2a.21.21,0,0,0,0,.12.6.6,0,0,0,.28.47A.19.19,0,0,0,37,42.05Z"/><path class="cls-7" d="M37,41.93a.21.21,0,0,1,0,.12.19.19,0,0,1-.11,0,.6.6,0,0,1-.28-.47.21.21,0,0,1,0-.12.19.19,0,0,1,.11,0A.62.62,0,0,1,37,41.93Z"/><path class="cls-5" d="M36.48,39.35a.61.61,0,0,0,.27.48c.11.06.21,0,.25,0l-.11,0a.62.62,0,0,1-.24-.31.88.88,0,0,0-.17-.12Z"/><path class="cls-7" d="M36.89,39.75l.11,0h0a2.79,2.79,0,0,0-.35-.34A.62.62,0,0,0,36.89,39.75Z"/><path class="cls-5" d="M36,40.35c0,.09-.14.11-.25,0a.6.6,0,0,1-.28-.47c0-.13.07-.21.17-.2a.21.21,0,0,0,0,.12.6.6,0,0,0,.28.47A.19.19,0,0,0,36,40.35Z"/><path class="cls-7" d="M36.05,40.24a.2.2,0,0,1,0,.11.19.19,0,0,1-.11,0,.6.6,0,0,1-.28-.47.21.21,0,0,1,0-.12.3.3,0,0,1,.11,0A.61.61,0,0,1,36.05,40.24Z"/><path class="cls-5" d="M37.6,41a.22.22,0,0,1,0-.12c-.1,0-.16.07-.16.2a.61.61,0,0,0,.27.48h0l0-.2A.68.68,0,0,1,37.6,41Z"/><path class="cls-7" d="M37.6,41a.68.68,0,0,0,.14.37,2.19,2.19,0,0,0-.12-.49h0A.22.22,0,0,0,37.6,41Z"/><path class="cls-5" d="M35.86,39.55c.11.19.28.29.39.23l.06-.06a.45.45,0,0,1-.31-.25.46.46,0,0,1-.06-.38h-.08C35.75,39.16,35.75,39.37,35.86,39.55Z"/><path class="cls-7" d="M36,39.47a.45.45,0,0,0,.31.25.44.44,0,0,0-.06-.39.47.47,0,0,0-.22-.22l-.09,0A.46.46,0,0,0,36,39.47Z"/><path class="cls-5" d="M37.7,42.12s0,.05-.06.06-.28,0-.39-.22-.11-.39,0-.45a.12.12,0,0,1,.08,0,.49.49,0,0,0,.06.39A.46.46,0,0,0,37.7,42.12Z"/><path class="cls-7" d="M37.7,42.12a.46.46,0,0,1-.31-.24.49.49,0,0,1-.06-.39.43.43,0,0,1,.31.24A.49.49,0,0,1,37.7,42.12Z"/><path class="cls-5" d="M37.52,40.59a3.47,3.47,0,0,0-.34-.59.52.52,0,0,0,.07.35A.47.47,0,0,0,37.52,40.59Z"/><path class="cls-5" d="M36.31,41.32a.09.09,0,0,1-.06.06c-.11.06-.28,0-.39-.22s-.11-.39,0-.45a.1.1,0,0,1,.09,0,.44.44,0,0,0,0,.39A.46.46,0,0,0,36.31,41.32Z"/><path class="cls-7" d="M36.31,41.32a.46.46,0,0,1-.31-.24.44.44,0,0,1,0-.39.42.42,0,0,1,.3.24A.45.45,0,0,1,36.31,41.32Z"/><path class="cls-8" d="M37.33,41a1.26,1.26,0,0,0-.57-1,.4.4,0,0,0-.4,0l-.12.07.81,1.38.12-.07A.39.39,0,0,0,37.33,41Z"/><path class="cls-9" d="M37.21,41c0,.36-.25.5-.57.32a1.25,1.25,0,0,1-.56-1c0-.36.25-.51.56-.32A1.24,1.24,0,0,1,37.21,41Z"/><path class="cls-8" d="M37,41a.92.92,0,0,0-.41-.72.33.33,0,0,0-.3,0l-.09.06.6,1,.09-.06A.28.28,0,0,0,37,41Z"/><path class="cls-10" d="M36.93,41c0,.26-.18.37-.41.24a.9.9,0,0,1-.41-.72c0-.26.18-.37.41-.24A.93.93,0,0,1,36.93,41Z"/><path class="cls-2" d="M41.77,37.91l-3.93,2-.2.26L38,41l.09,1.35-.29.54.06.27,3.94-2.27h0a1,1,0,0,0,.42-.87v-.66A3.13,3.13,0,0,0,41.77,37.91Z"/><polygon class="cls-2" points="1.12 19.05 2.75 18.11 3.41 18.79 2.57 19.39 1.56 19.18 1.12 19.05"/><path class="cls-3" d="M37.84,40.18a4.86,4.86,0,0,0-1.46-1.54S2.65,19.17,2.65,19.16A1.55,1.55,0,0,0,1.19,19a1,1,0,0,0-.49.9v.66a3.2,3.2,0,0,0,.49,1.47l3.9,5.89a4.06,4.06,0,0,0,1.12,1.11L32.82,44.41a1.56,1.56,0,0,0,1.12.19l3.9-1.39a1,1,0,0,0,.49-.91v-.66A3.13,3.13,0,0,0,37.84,40.18Zm.08,1.67a1,1,0,0,1-.49.9l-3.64,1.3a1.57,1.57,0,0,1-1.12-.19L6.35,28.67a4.21,4.21,0,0,1-1.12-1.11L1.59,22.05a3.17,3.17,0,0,1-.49-1.46v-.21a1,1,0,0,1,.49-.91l0,0a1.16,1.16,0,0,1,1,.16L36.41,39.12a3.29,3.29,0,0,1,1,1l0,.09a3.2,3.2,0,0,1,.49,1.47Z"/><polygon class="cls-11" points="31.8 33.27 21.7 29.88 7.02 21.03 0.35 15.11 4.28 12.84 35.73 31 35.03 32.86 31.8 33.27"/><polygon class="cls-12" points="42.78 37.23 38.84 39.5 36.05 38 31.8 33.27 35.73 31 42.78 37.23"/><polygon class="cls-6" points="38.84 40.7 30.4 36.78 8.13 23.92 0 17.07 0.35 15.11 31.8 33.27 38.84 39.5 38.84 40.7"/><polygon class="cls-13" points="42.78 38.43 38.84 40.7 38.84 39.5 42.78 37.23 42.78 38.43"/><polygon class="cls-5" points="4.85 18.38 4.49 18.58 4.49 20.81 4.85 20.61 4.85 18.38"/><polygon class="cls-7" points="4.49 18.58 1.82 17.04 1.82 18.57 4.49 20.81 4.49 18.58"/><polygon class="cls-11" points="4.49 18.58 1.82 17.04 2.17 16.83 4.85 18.38 4.49 18.58"/><polygon class="cls-5" points="7.75 20.05 7.39 20.25 7.39 23.24 7.75 23.03 7.75 20.05"/><polygon class="cls-7" points="7.39 20.25 4.93 18.83 4.93 21.18 7.39 23.24 7.39 20.25"/><polygon class="cls-11" points="7.39 20.25 4.93 18.83 5.28 18.63 7.75 20.05 7.39 20.25"/><polygon class="cls-7" points="11.17 22.44 7.87 20.53 7.87 23.51 11.17 25.42 11.17 22.44"/><polygon class="cls-5" points="11.53 22.23 11.17 22.44 11.17 25.42 11.53 25.22 11.53 22.23"/><polygon class="cls-11" points="11.17 22.44 7.87 20.53 8.22 20.33 11.53 22.23 11.17 22.44"/><polygon class="cls-7" points="14.96 24.62 11.65 22.71 11.65 25.7 14.96 27.61 14.96 24.62"/><polygon class="cls-5" points="15.31 24.42 14.96 24.62 14.96 27.61 15.31 27.4 15.31 24.42"/><polygon class="cls-11" points="14.96 24.62 11.65 22.71 12.01 22.51 15.31 24.42 14.96 24.62"/><polygon class="cls-7" points="18.74 26.8 15.44 24.9 15.44 27.88 18.74 29.79 18.74 26.8"/><polygon class="cls-5" points="19.09 26.6 18.74 26.8 18.74 29.79 19.09 29.58 19.09 26.6"/><polygon class="cls-11" points="18.74 26.8 15.44 24.9 15.79 24.69 19.09 26.6 18.74 26.8"/><polygon class="cls-7" points="22.52 28.99 19.22 27.08 19.22 30.07 22.52 31.97 22.52 28.99"/><polygon class="cls-5" points="22.88 28.79 22.52 28.99 22.52 31.97 22.88 31.77 22.88 28.79"/><polygon class="cls-11" points="22.52 28.99 19.22 27.08 19.57 26.88 22.88 28.79 22.52 28.99"/><polygon class="cls-7" points="26.3 31.17 23 29.27 23 32.25 26.3 34.16 26.3 31.17"/><polygon class="cls-5" points="26.66 30.97 26.3 31.17 26.3 34.16 26.66 33.95 26.66 30.97"/><polygon class="cls-11" points="26.3 31.17 23 29.27 23.36 29.06 26.66 30.97 26.3 31.17"/><polygon class="cls-7" points="30.09 33.36 26.78 31.45 26.78 34.43 30.09 36.34 30.09 33.36"/><polygon class="cls-5" points="30.44 33.15 30.09 33.36 30.09 36.34 30.44 36.13 30.44 33.15"/><polygon class="cls-11" points="30.09 33.36 26.78 31.45 27.14 31.25 30.44 33.15 30.09 33.36"/><polygon class="cls-5" points="35.06 37.05 34.82 37.83 35.13 38.88 35.48 38.68 35.48 37.06 35.06 37.05"/><polygon class="cls-7" points="31.82 34.36 30.61 33.66 30.61 36.64 31.82 37.34 35.13 38.88 35.13 37.26 31.82 34.36"/><polygon class="cls-11" points="31.82 34.36 30.61 33.66 30.96 33.45 32.18 34.16 31.82 34.36"/><polygon class="cls-12" points="35.13 37.26 31.82 34.36 32.18 34.16 35.48 37.06 35.13 37.26"/><polygon class="cls-11" points="25.56 27.69 19.75 24.96 4.74 16.41 2.38 14.31 5.17 12.7 28.34 26.08 28.04 27.44 25.56 27.69"/><polygon class="cls-12" points="35.07 30.8 32.28 32.41 28 29.93 25.56 27.69 28.34 26.08 35.07 30.8"/><polygon class="cls-7" points="32.28 32.41 25.56 27.69 2.38 14.31 1.95 15.19 32.28 32.71 32.28 32.41"/><polygon class="cls-13" points="35.07 31.1 32.28 32.71 32.28 32.41 35.07 30.8 35.07 31.1"/><polygon class="cls-11" points="16.43 6.15 14.83 5.22 18.09 3.34 19.69 4.26 16.43 6.15"/><polygon class="cls-13" points="16.43 9.4 16.43 6.15 19.69 4.26 19.69 7.51 16.43 9.4"/><polygon class="cls-6" points="16.43 6.15 14.83 5.22 14.83 8.47 16.43 9.4 16.43 6.15"/><polygon class="cls-5" points="38.13 10.98 37.02 11.62 37.02 14.29 38.13 13.65 38.13 10.98"/><polygon class="cls-16" points="37.95 11.52 37.2 11.95 37.2 13.75 37.95 13.32 37.95 11.52"/><polygon class="cls-6" points="37.02 11.62 33.85 10.03 33.85 12.7 37.02 14.29 37.02 11.62"/><polygon class="cls-12" points="37.02 11.62 33.85 10.03 34.95 9.39 38.13 10.98 37.02 11.62"/><polygon class="cls-13" points="29.21 10.3 28.28 10.84 27.92 8.48 28.89 8.12 29.21 10.3"/><polygon class="cls-12" points="27.95 8.66 28.89 8.12 23.51 5.4 22.57 5.94 26.34 8.49 27.95 8.66"/><polygon class="cls-12" points="41.47 22.52 37.31 17.59 37.74 11.12 40.7 15.57 41.47 22.52"/><polygon class="cls-13" points="41.47 22.52 35.76 25.82 32.61 20.02 38.46 17.3 41.47 22.52"/><polygon class="cls-13" points="18.35 19.64 18.28 21.48 18.66 18.07 18.72 17.02 18.59 15.37 18.28 18 18.35 19.64"/><polygon class="cls-7" points="18.35 19.64 10.52 14.38 11.05 10.3 15.6 12.93 18.59 15.37 18.35 19.64"/><polygon class="cls-13" points="16.45 17.64 15.51 18.18 15.51 15.34 16.78 15.11 16.45 17.64"/><polygon class="cls-11" points="15.84 15.65 16.78 15.11 12.1 11.97 11.16 12.51 14.23 15.48 15.84 15.65"/><polygon class="cls-6" points="15.51 18.18 15.84 15.65 11.16 12.51 10.84 15.04 15.51 18.18"/><polygon class="cls-6" points="23.72 25.37 18.28 21.48 18.52 17.2 22.75 19.43 23.8 22.41 23.72 25.37"/><polygon class="cls-12" points="35.76 25.82 23.72 25.37 22.55 19.89 28.33 17.5 33.26 20.3 35.76 25.82"/><polygon class="cls-11" points="33.09 8.79 29.92 8.83 21.14 4.47 11.05 10.3 18.59 15.37 18.52 17.2 22.55 19.89 33.26 20.3 38.46 17.3 37.74 11.12 33.09 8.79"/><polygon class="cls-14" points="37.35 11.09 32.99 8.91 29.83 8.95 21.15 4.65 11.84 10.03 19.02 14.86 18.95 16.69 22.68 19.18 33.16 19.59 38.02 16.78 37.35 11.09"/><polygon class="cls-12" points="33.16 19.88 22.68 19.47 22.68 19.18 33.16 19.59 33.16 19.88"/><polygon class="cls-13" points="38.02 17.08 33.16 19.88 33.16 19.59 38.02 16.78 38.02 17.08"/><polygon class="cls-6" points="22.68 19.47 18.95 16.98 18.95 16.69 22.68 19.18 22.68 19.47"/><polygon class="cls-6" points="19.02 15.15 11.84 10.33 11.84 10.03 19.02 14.86 19.02 15.15"/><polygon class="cls-11" points="32.77 18.62 31.42 17.84 34.18 16.25 35.53 17.03 32.77 18.62"/><polygon class="cls-13" points="32.77 19.08 32.77 18.62 35.53 17.03 35.53 17.49 32.77 19.08"/><polygon class="cls-6" points="32.77 18.62 31.42 17.84 31.42 18.3 32.77 19.08 32.77 18.62"/><path class="cls-7" d="M34.87,11.51h-.08a1.9,1.9,0,0,0-.91-1,5.3,5.3,0,0,0-4.78,0,1.93,1.93,0,0,0-.91,1h-.08v.18h0a1.68,1.68,0,0,0,1,1.38,5.3,5.3,0,0,0,4.78,0,1.68,1.68,0,0,0,1-1.38Z"/><path class="cls-11" d="M33.88,12.89a5.3,5.3,0,0,1-4.78,0c-1.32-.76-1.32-2,0-2.76a5.3,5.3,0,0,1,4.78,0C35.2,10.89,35.2,12.13,33.88,12.89Z"/><path class="cls-7" d="M34.2,11.37H28.77v.14h0a1.36,1.36,0,0,0,.8,1.11,4.24,4.24,0,0,0,3.83,0,1.36,1.36,0,0,0,.8-1.11h0Z"/><path class="cls-14" d="M33.4,12.47a4.24,4.24,0,0,1-3.83,0,1.17,1.17,0,0,1,0-2.21,4.24,4.24,0,0,1,3.83,0A1.17,1.17,0,0,1,33.4,12.47Z"/><path class="cls-17" d="M35.8,13.69a.93.93,0,0,0-.83,0,.25.25,0,0,0,0,.48.93.93,0,0,0,.83,0C36,14,36,13.83,35.8,13.69Z"/><path class="cls-3" d="M35,13.92a.19.19,0,0,0,.12.15.59.59,0,0,0,.55,0,.19.19,0,0,0,.11-.15v-.4H35Z"/><path class="cls-4" d="M35.66,13.36a.59.59,0,0,0-.55,0,.17.17,0,0,0,0,.32.59.59,0,0,0,.55,0A.17.17,0,0,0,35.66,13.36Z"/><path class="cls-3" d="M35.15,13.5a.13.13,0,0,0,.07.1.38.38,0,0,0,.33,0c.05,0,.07-.06.07-.1V11h-.47Z"/><path class="cls-18" d="M35.55,10.92a.33.33,0,0,0-.33,0c-.1.05-.1.14,0,.19a.32.32,0,0,0,.33,0A.1.1,0,0,0,35.55,10.92Z"/><path class="cls-3" d="M34.55,10.3s0,0,0,.06a.21.21,0,0,0,.19,0s0,0,0,0V9.17h-.27Z"/><path class="cls-2" d="M34.59,9.22a.21.21,0,0,0,.19,0,.06.06,0,0,0,0-.11.21.21,0,0,0-.19,0A.06.06,0,0,0,34.59,9.22Z"/><polygon class="cls-2" points="35.06 9.98 34.72 9.78 34.72 9.92 35.06 10.13 35.06 9.98"/><polygon class="cls-3" points="35.15 9.93 35.06 9.98 35.06 10.13 35.15 10.08 35.15 9.93"/><polygon class="cls-4" points="35.06 9.98 34.72 9.78 34.8 9.73 35.15 9.93 35.06 9.98"/><polygon class="cls-2" points="35.06 10.37 34.72 10.17 34.72 10.31 35.06 10.52 35.06 10.37"/><polygon class="cls-3" points="35.15 10.32 35.06 10.37 35.06 10.52 35.15 10.47 35.15 10.32"/><polygon class="cls-4" points="35.06 10.37 34.72 10.17 34.8 10.12 35.15 10.32 35.06 10.37"/><path class="cls-3" d="M34.12,10.55a.07.07,0,0,0,0,.06.21.21,0,0,0,.19,0l0,0V9.42h-.27Z"/><path class="cls-2" d="M34.16,9.47a.21.21,0,0,0,.19,0,.06.06,0,0,0,0-.11.21.21,0,0,0-.19,0A.06.06,0,0,0,34.16,9.47Z"/><polygon class="cls-2" points="34.63 10.23 34.28 10.03 34.28 10.17 34.63 10.37 34.63 10.23"/><polygon class="cls-3" points="34.72 10.18 34.63 10.23 34.63 10.37 34.72 10.32 34.72 10.18"/><polygon class="cls-4" points="34.63 10.23 34.28 10.03 34.37 9.98 34.72 10.18 34.63 10.23"/><polygon class="cls-2" points="34.63 10.62 34.28 10.42 34.28 10.56 34.63 10.77 34.63 10.62"/><polygon class="cls-3" points="34.72 10.57 34.63 10.62 34.63 10.77 34.72 10.72 34.72 10.57"/><polygon class="cls-4" points="34.63 10.62 34.28 10.42 34.37 10.37 34.72 10.57 34.63 10.62"/><polygon class="cls-19" points="34.6 12.01 35.42 12.5 36.09 12.27 36.42 11.93 35.73 11.36 34.6 12.01"/><polygon class="cls-20" points="34.71 12.02 34.76 12.05 35.04 11.89 35.72 12.28 35.77 12.25 35.04 11.83 34.71 12.02"/><polygon points="34.76 12.05 35.44 12.44 35.72 12.28 35.04 11.89 34.76 12.05"/><polygon class="cls-21" points="35.24 12.77 35.43 13.37 36.96 12.48 36.96 11.61 35.42 12.5 35.24 12.77"/><polygon class="cls-22" points="34.6 12.01 34.6 12.88 35.43 13.37 35.42 12.5 34.6 12.01"/><polygon class="cls-4" points="35.15 9.93 34.63 10.23 34.74 10.51 35.16 10.98 36.51 11.98 37.12 10.91 35.32 9.85 35.15 9.93"/><polygon class="cls-2" points="37.07 11.65 36.51 11.98 36.55 11.23 37.12 10.91 37.07 11.65"/><polygon points="36.22 11.93 36.25 12.02 36.42 11.93 36.44 11.77 36.25 11.83 36.22 11.93"/><polygon class="cls-2" points="35.79 10.07 35.61 10.12 36.25 10.63 36.42 10.54 36.36 10.41 35.79 10.07"/><polygon class="cls-3" points="34.63 10.23 34.63 10.77 34.7 10.91 36.51 11.98 36.55 11.23 34.76 10.18 34.63 10.23"/><polygon class="cls-8" points="35.55 10.97 34.9 10.58 34.9 10.62 35.55 11.01 36.24 11.41 36.26 11.17 35.57 10.77 35.55 10.97"/><polygon points="35.58 10.98 36.23 11.36 36.24 11.18 35.59 10.8 35.58 10.98"/><polygon class="cls-3" points="35.39 11.51 36.25 12.02 36.25 11.83 35.39 11.31 35.39 11.51"/><polygon class="cls-3" points="35.61 10.12 35.52 10.19 36.25 10.63 36.18 10.46 35.61 10.12"/><polygon class="cls-4" points="36.66 11.08 39.68 13.58 39.99 13.4 39.99 12.71 36.97 10.9 36.66 11.08"/><polygon class="cls-3" points="36.66 11.99 39.68 13.58 39.68 12.89 36.66 11.08 36.66 11.99"/><path d="M37.27,11.64a.15.15,0,0,0,.06.11s.07,0,.07,0a.14.14,0,0,0-.07-.11S37.27,11.6,37.27,11.64Z"/><path d="M37.49,11.77a.15.15,0,0,0,.06.11s.06,0,.06,0a.13.13,0,0,0-.06-.11S37.49,11.73,37.49,11.77Z"/><path d="M37.71,11.9a.13.13,0,0,0,.06.1s.07,0,.07,0a.14.14,0,0,0-.07-.11S37.71,11.86,37.71,11.9Z"/><path d="M37.93,12a.15.15,0,0,0,.06.11s.06,0,.06,0A.11.11,0,0,0,38,12S37.93,12,37.93,12Z"/><path d="M38.15,12.15a.15.15,0,0,0,.06.11s.07,0,.07,0a.14.14,0,0,0-.07-.11S38.15,12.11,38.15,12.15Z"/><path d="M38.37,12.27a.14.14,0,0,0,.06.11s.06,0,.06,0a.15.15,0,0,0-.06-.11A0,0,0,0,0,38.37,12.27Z"/><path d="M38.59,12.4a.15.15,0,0,0,.06.11s.06,0,.06,0a.13.13,0,0,0-.06-.11S38.59,12.36,38.59,12.4Z"/><path d="M38.81,12.53a.13.13,0,0,0,.06.11s.06,0,.06,0a.15.15,0,0,0-.06-.11S38.81,12.49,38.81,12.53Z"/><path d="M39,12.66a.13.13,0,0,0,.06.1s.06,0,.06,0a.13.13,0,0,0-.06-.11S39,12.62,39,12.66Z"/><path class="cls-8" d="M39.9,13.06h0a.19.19,0,0,0-.07.13.05.05,0,0,0,0,0h0l1.48.87.1-.18-1.48-.86Z"/><path class="cls-23" d="M41.34,13.92a.17.17,0,0,0-.07.13s0,.06.07,0a.15.15,0,0,0,.07-.12C41.41,13.92,41.38,13.9,41.34,13.92Z"/><path d="M41.32,14s0,0,0,0,0,0,0,0,0,0,0,0A.05.05,0,0,0,41.32,14Z"/><path class="cls-3" d="M41.42,13.85h0a.1.1,0,0,0-.09,0,.29.29,0,0,0-.13.22.1.1,0,0,0,0,.09h0l1.35.78.18-.32-1.35-.78Z"/><path class="cls-2" d="M42.68,14.64a.29.29,0,0,0-.13.22c0,.09.06.12.13.08a.29.29,0,0,0,.13-.23C42.81,14.63,42.75,14.6,42.68,14.64Z"/><path d="M42.69,14.74s0,0,0,.07,0,0,0,0a.12.12,0,0,0,0-.08S42.71,14.73,42.69,14.74Z"/><polygon class="cls-3" points="41.38 13.24 41.38 13.28 41.35 13.26 41.33 13.27 41.33 13.91 41.38 13.94 41.45 13.26 41.41 13.23 41.38 13.24"/><polygon class="cls-2" points="41.43 13.38 41.4 13.39 41.4 13.29 41.38 13.3 41.38 13.94 41.45 13.89 41.45 13.26 41.43 13.27 41.43 13.38"/><polygon class="cls-10" points="39.17 12.59 39.17 13.37 39.27 13.43 39.33 13.4 39.29 13.38 39.29 12.66 39.61 12.47 39.63 12.49 39.63 12.43 39.54 12.38 39.17 12.59"/><polygon class="cls-10" points="36.84 11.2 36.8 12.13 36.91 12.19 36.96 12.16 36.92 12.14 36.97 11.26 37.27 11.08 37.3 11.1 37.3 11.03 37.21 10.98 36.84 11.2"/><path class="cls-24" d="M34.92,12s0,0,0,.07,0,0,0,0l.39.23.06-.11L35,12Z"/><path class="cls-25" d="M35.34,12.21h0a.08.08,0,0,0,0,.07,0,0,0,0,0,0,0s.18.1.21,0S35.34,12.21,35.34,12.21Z"/><path d="M35.28,12.16h0a.13.13,0,0,0-.06.1s0,0,0,0h0v0a.12.12,0,0,1,0-.08h0l0,0v0h0Z"/><path class="cls-26" d="M35.26,12.17a.13.13,0,0,0-.06.1s0,0,0,0h0a0,0,0,0,1,0,0,.08.08,0,0,1,0-.07h.05A0,0,0,0,0,35.26,12.17Z"/><path d="M35,12h0a.12.12,0,0,0,0,.1s0,0,0,0h0v0A.12.12,0,0,1,35,12h0v0h0Z"/><path class="cls-26" d="M35,12a.13.13,0,0,0-.06.1s0,0,0,0h0s0,0,0,0a.1.1,0,0,1,0-.07h0l0,0A0,0,0,0,0,35,12Z"/><path class="cls-24" d="M35,11.86a.1.1,0,0,0,0,.08s0,0,0,0l.39.23.07-.11-.4-.22Z"/><path class="cls-25" d="M35.43,12.08h0a.08.08,0,0,0,0,.07,0,0,0,0,0,0,0s.19.1.21.05S35.43,12.09,35.43,12.08Z"/><path d="M35.36,12h0a.12.12,0,0,0,0,.1,0,0,0,0,0,0,0h0s0,0,0,0a.1.1,0,0,1,.05-.08s0,0,0,0h0v0h0Z"/><path class="cls-26" d="M35.34,12a.12.12,0,0,0-.05.1s0,0,0,0h0a0,0,0,0,1,0,0,.1.1,0,0,1,0-.07h0S35.37,12,35.34,12Z"/><path d="M35.12,11.89h0a.12.12,0,0,0,0,.1s0,0,0,0h0s0,0,0,0a.07.07,0,0,1,0-.07s0,0,0,0h0Z"/><path class="cls-26" d="M35.1,11.9a.12.12,0,0,0-.05.1s0,.05,0,0h0a0,0,0,0,1,0,0,.09.09,0,0,1,0-.07h0S35.13,11.89,35.1,11.9Z"/><path class="cls-24" d="M35.09,11.73a.09.09,0,0,0-.05.07s0,0,0,0l.39.23.06-.11-.39-.23Z"/><path class="cls-25" d="M35.51,12h0a.1.1,0,0,0,0,.08l0,0s.18.09.21,0S35.51,12,35.51,12Z"/><path d="M35.45,11.9h0a.13.13,0,0,0-.06.09.05.05,0,0,0,0,0h0s0,0,0,0a.12.12,0,0,1,0-.08h0Z"/><path class="cls-26" d="M35.42,11.91a.12.12,0,0,0-.05.09s0,.05.05,0h0a0,0,0,0,1,0,0,.08.08,0,0,1,0-.07h0S35.45,11.89,35.42,11.91Z"/><path d="M35.21,11.76h0a.13.13,0,0,0-.06.1l0,0h0s0,0,0,0a.12.12,0,0,1,0-.08h0Z"/><path class="cls-26" d="M35.18,11.77a.12.12,0,0,0,0,.1s0,0,0,0h0a0,0,0,0,1,0,0,.08.08,0,0,1,0-.07h.05A0,0,0,0,0,35.18,11.77Z"/><path class="cls-24" d="M35.18,11.6a.12.12,0,0,0,0,.08,0,0,0,0,0,0,0l.39.22.06-.1-.39-.23Z"/><path class="cls-25" d="M35.6,11.83h0a.1.1,0,0,0,0,.08s0,0,0,0,.18.1.21.05S35.6,11.83,35.6,11.83Z"/><path d="M35.54,11.77h0a.11.11,0,0,0,0,.09s0,0,0,0h0l0,0s0,0,0,0a.09.09,0,0,1,.05-.07s0,0,0,0h0Z"/><path class="cls-26" d="M35.52,11.78a.15.15,0,0,0-.06.1s0,0,0,0l0,0v0a.12.12,0,0,1,0-.08s0,0,0,0h0S35.55,11.77,35.52,11.78Z"/><path d="M35.3,11.63h0a.11.11,0,0,0,0,.09s0,0,0,0h0s0,0,0,0a.09.09,0,0,1,.05-.07h0Z"/><path class="cls-26" d="M35.28,11.65a.11.11,0,0,0-.06.09s0,0,.05,0h0v0a.12.12,0,0,1,0-.08h0S35.31,11.63,35.28,11.65Z"/><path class="cls-24" d="M35.27,11.47a.1.1,0,0,0-.05.08,0,0,0,0,0,0,0l.39.23.06-.1-.39-.23Z"/><path class="cls-25" d="M35.69,11.7h0a.09.09,0,0,0,0,.07s0,0,0,0,.18.1.21,0S35.69,11.7,35.69,11.7Z"/><path d="M35.63,11.64h0a.13.13,0,0,0-.06.1.05.05,0,0,0,0,0h0s0,0,0,0a.08.08,0,0,1,0-.07s0,0,0,0h0Z"/><path class="cls-26" d="M35.6,11.65a.12.12,0,0,0-.05.1s0,.05.05,0h0l0,0a.09.09,0,0,1,0-.08h0A0,0,0,0,0,35.6,11.65Z"/><path d="M35.39,11.5h0a.11.11,0,0,0-.06.09.05.05,0,0,0,0,0h0l0,0s0,0,0,0a.08.08,0,0,1,0-.07h0Z"/><path class="cls-26" d="M35.36,11.52a.11.11,0,0,0,0,.09s0,.05,0,0l0,0a0,0,0,0,1,0,0,.1.1,0,0,1,0-.08h.05S35.39,11.5,35.36,11.52Z"/><path class="cls-24" d="M35.35,11.34a.12.12,0,0,0,0,.08s0,0,0,0l.39.23.06-.11-.39-.22Z"/><path class="cls-25" d="M35.77,11.56h0a.08.08,0,0,0,0,.07s0,0,0,0,.18.1.21.05S35.77,11.57,35.77,11.56Z"/><path d="M35.71,11.51h0a.12.12,0,0,0-.05.1s0,0,0,0h0v0a.12.12,0,0,1,0-.08h0Z"/><path class="cls-26" d="M35.69,11.52a.13.13,0,0,0-.06.1s0,0,0,0h0s0,0,0,0a.1.1,0,0,1,0-.07h.05S35.72,11.51,35.69,11.52Z"/><path d="M35.47,11.37h0a.12.12,0,0,0,0,.1s0,0,0,0h0v0a.08.08,0,0,1,0-.07h0Z"/><path class="cls-26" d="M35.45,11.38a.13.13,0,0,0-.06.1s0,0,0,0h0s0,0,0,0a.1.1,0,0,1,0-.07h0A0,0,0,0,0,35.45,11.38Z"/><path class="cls-24" d="M35.44,11.21a.12.12,0,0,0,0,.08s0,0,0,0l.4.22.06-.1-.4-.23Z"/><path class="cls-25" d="M35.87,11.44h0a.09.09,0,0,0-.05.08,0,0,0,0,0,0,0s.18.1.2.05S35.87,11.44,35.87,11.44Z"/><path d="M35.81,11.38h0a.11.11,0,0,0-.06.09.05.05,0,0,0,0,0h0l0,0s0,0,0,0a.1.1,0,0,1,0-.07h0Z"/><path class="cls-26" d="M35.78,11.4a.11.11,0,0,0-.05.09s0,0,0,0h0l0,0a.1.1,0,0,1,0-.08h.05S35.81,11.38,35.78,11.4Z"/><path d="M35.56,11.24h0a.13.13,0,0,0-.06.09.05.05,0,0,0,0,0h0s0,0,0,0a.1.1,0,0,1,0-.07h0Z"/><path class="cls-26" d="M35.54,11.26a.12.12,0,0,0,0,.09s0,.05,0,0h0l0,0a.1.1,0,0,1,0-.08h.05S35.57,11.24,35.54,11.26Z"/><path class="cls-24" d="M35.52,11.08a.1.1,0,0,0,0,.07s0,0,0,0l.39.23L36,11.3l-.4-.22Z"/><path class="cls-25" d="M36,11.3h0a.08.08,0,0,0,0,.07s0,0,0,0,.19.1.21.05S36,11.3,36,11.3Z"/><path d="M35.88,11.25h0a.12.12,0,0,0-.05.1s0,0,0,0h0s0,0,0,0a.1.1,0,0,1,0-.08h0v0h0Z"/><path class="cls-26" d="M35.86,11.26a.13.13,0,0,0-.06.1,0,0,0,0,0,.05,0h0a0,0,0,0,1,0,0,.08.08,0,0,1,0-.07h0S35.89,11.24,35.86,11.26Z"/><path d="M35.64,11.11h0a.12.12,0,0,0-.05.1s0,0,0,0h0s0,0,0,0a.1.1,0,0,1,0-.08s0,0,0,0h0v0h0Z"/><path class="cls-26" d="M35.62,11.12a.13.13,0,0,0-.06.1s0,0,0,0h0a0,0,0,0,1,0,0,.1.1,0,0,1,0-.07h.05S35.65,11.11,35.62,11.12Z"/><path class="cls-24" d="M35.68,10.9a.12.12,0,0,0,0,.08v0l.4.22.06-.1-.39-.23Z"/><path class="cls-25" d="M36.08,11.13a.1.1,0,0,0,0,.08l0,0a.67.67,0,0,0,.18.07v-.07a.54.54,0,0,0-.13-.1A0,0,0,0,0,36.08,11.13Z"/><path d="M36.05,11.07h0a.11.11,0,0,0-.06.09.05.05,0,0,0,0,0h0s0,0,0,0a.1.1,0,0,1,0-.07h0Z"/><path class="cls-26" d="M36,11.09a.11.11,0,0,0-.05.09s0,.05.05,0h0a0,0,0,0,1,0,0,.09.09,0,0,1,0-.08h0S36.05,11.07,36,11.09Z"/><path d="M35.81,10.93h0a.13.13,0,0,0-.06.09.05.05,0,0,0,0,0h0s0,0,0,0a.1.1,0,0,1,0-.07h0Z"/><path class="cls-26" d="M35.78,11a.11.11,0,0,0-.05.09s0,.05.05,0h0a0,0,0,0,1,0,0,.09.09,0,0,1,0-.08h.05S35.81,10.93,35.78,11Z"/><path class="cls-24" d="M35.61,11a.12.12,0,0,0,0,.08s0,0,0,0l.39.23.07-.1-.4-.23Z"/><path class="cls-25" d="M36,11.18h0a.1.1,0,0,0,0,.07,0,0,0,0,0,0,0s.19.1.21.05S36,11.18,36,11.18Z"/><path d="M36,11.12h0a.12.12,0,0,0,0,.1s0,0,0,0h0s0,0,0,0a.08.08,0,0,1,.05-.07s0,0,0,0h0v0h0Z"/><path class="cls-26" d="M36,11.13a.12.12,0,0,0-.05.1s0,0,.05,0h0s0,0,0,0a.09.09,0,0,1,.05-.07h0S36,11.12,36,11.13Z"/><path d="M35.73,11h0a.14.14,0,0,0,0,.1.05.05,0,0,0,0,0h0s0,0,0,0a.07.07,0,0,1,0-.07s0,0,0,0h0Z"/><path class="cls-26" d="M35.71,11a.12.12,0,0,0-.05.1s0,.05,0,0h0v0a.09.09,0,0,1,0-.08h.05A0,0,0,0,0,35.71,11Z"/><polygon class="cls-3" points="35.77 10.18 36.09 10.36 36.09 9.96 35.77 9.78 35.77 10.18"/><polygon points="36.09 10.36 36.17 10.31 36.17 9.94 36.09 9.98 36.09 10.36"/><path class="cls-4" d="M35.2,9.06h0a.14.14,0,0,0-.12,0,.37.37,0,0,0-.17.29.13.13,0,0,0,0,.1h0l.62.35.25-.4-.63-.36Z"/><path class="cls-2" d="M35.71,9.44a.37.37,0,0,0-.17.29c0,.11.08.15.17.1a.4.4,0,0,0,.17-.3A.1.1,0,0,0,35.71,9.44Z"/><path class="cls-3" d="M35.79,9.52h-.07a.25.25,0,0,0-.1.18.06.06,0,0,0,0,.06h0l.75.43.15-.24-.76-.43Z"/><path class="cls-23" d="M36.48,10a.21.21,0,0,0-.1.17c0,.07,0,.09.1.06a.23.23,0,0,0,.1-.17C36.58,10,36.53,9.93,36.48,10Z"/><path class="cls-4" d="M36.57,9.85h0a.14.14,0,0,0-.12,0,.37.37,0,0,0-.17.29.13.13,0,0,0,0,.1h0l.68.39.25-.41-.69-.4Z"/><path class="cls-2" d="M37.14,10.26a.37.37,0,0,0-.17.29c0,.11.07.15.17.1a.36.36,0,0,0,.16-.29C37.3,10.25,37.23,10.21,37.14,10.26Z"/><path class="cls-4" d="M37.19,10.3a.14.14,0,0,1,0,.06.3.3,0,0,1-.12.21H37s.06,0,.11,0a.26.26,0,0,0,.12-.21A.08.08,0,0,0,37.19,10.3Z"/><path class="cls-27" d="M37.14,10.32a.28.28,0,0,0-.12.21.07.07,0,0,0,0,.05h.06a.3.3,0,0,0,.12-.21.14.14,0,0,0,0-.06Z"/><polygon class="cls-11" points="17.13 11.78 20.82 9.65 17.93 7.98 14.24 10.11 17.13 11.78"/><polygon class="cls-6" points="17.13 12.01 17.13 11.78 14.24 10.11 14.24 10.34 17.13 12.01"/><polygon class="cls-13" points="17.13 11.78 20.82 9.65 20.82 9.88 17.13 12.01 17.13 11.78"/><path class="cls-17" d="M13.5,9.91a.61.61,0,0,0-.56,0c-.16.09-.16.23,0,.32a.61.61,0,0,0,.56,0A.17.17,0,0,0,13.5,9.91Z"/><path class="cls-3" d="M13,10.06a.14.14,0,0,0,.08.11.44.44,0,0,0,.37,0,.12.12,0,0,0,.08-.11V9.39H13Z"/><path class="cls-4" d="M13.4,9.29a.4.4,0,0,0-.37,0c-.1.06-.1.15,0,.21a.4.4,0,0,0,.37,0C13.51,9.44,13.51,9.35,13.4,9.29Z"/><path class="cls-3" d="M13.12,9.39a.05.05,0,0,0,0,0,.17.17,0,0,0,.14,0s0,0,0,0V.27h-.2Z"/><path class="cls-18" d="M13.29.23a.17.17,0,0,0-.14,0s0,.06,0,.09a.17.17,0,0,0,.14,0S13.33.26,13.29.23Z"/><path class="cls-8" d="M13.4.18A.18.18,0,1,1,13.22,0,.18.18,0,0,1,13.4.18Z"/><polygon class="cls-11" points="26.32 14.13 27.27 13.58 25.34 12.47 24.39 13.01 26.32 14.13"/><polygon class="cls-6" points="26.32 14.81 26.32 14.13 24.39 13.01 24.39 13.69 26.32 14.81"/><polygon class="cls-13" points="26.32 14.13 27.27 13.58 27.27 14.26 26.32 14.81 26.32 14.13"/><polygon class="cls-11" points="25.18 14.79 26.13 14.24 24.19 13.13 23.25 13.67 25.18 14.79"/><polygon class="cls-6" points="25.18 15.47 25.18 14.79 23.25 13.67 23.25 14.35 25.18 15.47"/><polygon class="cls-13" points="25.18 14.79 26.13 14.24 26.13 14.92 25.18 15.47 25.18 14.79"/><polygon class="cls-11" points="24.04 15.45 24.98 14.9 23.05 13.79 22.1 14.33 24.04 15.45"/><polygon class="cls-6" points="24.04 16.13 24.04 15.45 22.1 14.33 22.1 15.01 24.04 16.13"/><polygon class="cls-13" points="24.04 15.45 24.98 14.9 24.98 15.58 24.04 16.13 24.04 15.45"/><polygon class="cls-11" points="22.89 16.11 23.84 15.56 21.91 14.45 20.96 14.99 22.89 16.11"/><polygon class="cls-6" points="22.89 16.79 22.89 16.11 20.96 14.99 20.96 15.67 22.89 16.79"/><polygon class="cls-13" points="22.89 16.11 23.84 15.56 23.84 16.24 22.89 16.79 22.89 16.11"/><polygon class="cls-11" points="28.58 15.44 29.53 14.89 27.6 13.77 26.65 14.32 28.58 15.44"/><polygon class="cls-6" points="28.58 16.11 28.58 15.44 26.65 14.32 26.65 15 28.58 16.11"/><polygon class="cls-13" points="28.58 15.44 29.53 14.89 29.53 15.57 28.58 16.11 28.58 15.44"/><polygon class="cls-11" points="27.44 16.09 28.39 15.55 26.45 14.43 25.51 14.98 27.44 16.09"/><polygon class="cls-6" points="27.44 16.77 27.44 16.09 25.51 14.98 25.51 15.66 27.44 16.77"/><polygon class="cls-13" points="27.44 16.09 28.39 15.55 28.39 16.23 27.44 16.77 27.44 16.09"/><polygon class="cls-11" points="26.3 16.75 27.24 16.21 25.31 15.09 24.36 15.64 26.3 16.75"/><polygon class="cls-6" points="26.3 17.43 26.3 16.75 24.36 15.64 24.36 16.32 26.3 17.43"/><polygon class="cls-13" points="26.3 16.75 27.24 16.21 27.24 16.89 26.3 17.43 26.3 16.75"/><polygon class="cls-11" points="25.16 17.41 26.1 16.87 24.17 15.75 23.22 16.3 25.16 17.41"/><polygon class="cls-6" points="25.16 18.09 25.16 17.41 23.22 16.3 23.22 16.98 25.16 18.09"/><polygon class="cls-13" points="25.16 17.41 26.1 16.87 26.1 17.54 25.16 18.09 25.16 17.41"/><polygon class="cls-11" points="22.65 7.76 24.12 6.91 21.12 5.17 19.64 6.03 22.65 7.76"/><polygon class="cls-6" points="22.65 8.82 22.65 7.76 19.64 6.03 19.64 7.08 22.65 8.82"/><polygon class="cls-13" points="22.65 7.76 24.12 6.91 24.12 7.97 22.65 8.82 22.65 7.76"/><polygon class="cls-7" points="40.01 23.51 37.79 24.79 37.53 21.32 40.03 20.21 40.01 23.51"/><polygon class="cls-11" points="40.03 20.21 37.82 21.49 35.1 19.92 37.31 18.64 40.03 20.21"/><polygon class="cls-6" points="37.79 24.79 37.82 21.49 35.1 19.92 37.13 24.41 37.79 24.79"/><path class="cls-11" d="M38.52,23.29a.47.47,0,0,1-.17-.39A1.34,1.34,0,0,1,39,21.83a.43.43,0,0,1,.41-.06l2.71,1.57-.83,1.53Z"/><path class="cls-13" d="M40.73,24.57a.43.43,0,0,1-.18-.39,1.37,1.37,0,0,1,.62-1.07.46.46,0,0,1,.4-.06l.25.15-.89,1.48Z"/><path class="cls-2" d="M41.06,24.46a1.34,1.34,0,0,1,.61-1.06c.34-.2.62,0,.62.35a1.38,1.38,0,0,1-.62,1.07C41.33,25,41.06,24.86,41.06,24.46Z"/><path class="cls-11" d="M40.93,24.93a.57.57,0,0,1-.22-.49,1.7,1.7,0,0,1,.77-1.33A.55.55,0,0,1,42,23l7.2,4.16-1,1.91Z"/><path class="cls-13" d="M47.9,28.59a1.7,1.7,0,0,1,.77-1.33c.43-.25.78,0,.77.44A1.69,1.69,0,0,1,48.67,29C48.25,29.28,47.9,29.08,47.9,28.59Z"/><path class="cls-11" d="M48.27,28.91a.42.42,0,0,1-.17-.39,1.34,1.34,0,0,1,.61-1.06.43.43,0,0,1,.41-.06l13.4,7.74-.83,1.53Z"/><path class="cls-13" d="M61.49,36.26a1.4,1.4,0,0,1,.61-1.07c.34-.19.62,0,.62.36a1.35,1.35,0,0,1-.62,1.06C61.76,36.81,61.49,36.65,61.49,36.26Z"/><path class="cls-2" d="M61.61,36.19a1.1,1.1,0,0,1,.49-.86c.28-.15.5,0,.5.29a1.08,1.08,0,0,1-.5.85C61.83,36.63,61.61,36.5,61.61,36.19Z"/><polygon class="cls-5" points="21.82 20.39 20.72 21.03 20.72 23.7 21.82 23.06 21.82 20.39"/><polygon class="cls-16" points="21.64 20.93 20.9 21.36 20.9 23.16 21.64 22.73 21.64 20.93"/><polygon class="cls-6" points="20.72 21.03 18.08 19.14 18.08 21.81 20.72 23.7 20.72 21.03"/><polygon class="cls-11" points="20.72 21.03 18.08 19.14 19.18 18.5 21.82 20.39 20.72 21.03"/></g></g></svg>