<svg xmlns="http://www.w3.org/2000/svg" viewBox="0 0 63.16 54.14"><defs><style>.cls-1{fill:#383838;}.cls-2{fill:#050505;}.cls-3{fill:#575757;}.cls-4,.cls-6{fill:#121214;}.cls-4{opacity:0.3;}.cls-5{fill:#535359;}.cls-7{fill:#303033;}.cls-8{fill:#939598;}.cls-9{fill:#a7a9ac;}.cls-10{fill:gray;}.cls-11{opacity:0.1;}.cls-12{fill:#6a9176;}.cls-13{fill:#4a6653;}.cls-14{fill:#34473a;}.cls-15{fill:#9cb88a;}.cls-16{fill:#36402f;}.cls-17{fill:#7b916d;}.cls-18{fill:#666;}.cls-19{fill:#5d6e52;}.cls-20{fill:#9c251f;}.cls-21{fill:#00537d;}.cls-22{fill:#003552;}.cls-23{fill:#295e87;}.cls-24{fill:#687a5c;}.cls-25{fill:#8aa37b;}.cls-26{fill:#abc997;}.cls-27{fill:#4e5c44;}.cls-28{fill:#ffec7a;}</style></defs><g id="Слой_2" data-name="Слой 2"><g id="Layer_1" data-name="Layer 1"><polygon class="cls-1" points="3.56 22.48 2.82 22.05 2.82 19.97 15.35 13.59 3.56 22.48"/><polygon class="cls-2" points="16.61 14.95 3.56 22.48 3.56 20.4 16.61 12.87 16.61 14.95"/><polygon class="cls-3" points="16.61 12.87 3.56 20.4 2.82 19.97 15.86 12.44 16.61 12.87"/><polygon class="cls-4" points="2.15 27.37 48.58 54.14 62.9 45.92 16.47 19.15 2.15 27.37"/><polygon class="cls-5" points="6.28 23.49 6.62 23.1 6.14 23.34 6.28 23.49"/><polygon class="cls-5" points="5.87 24.8 6.2 24.41 5.73 24.66 5.87 24.8"/><polygon class="cls-5" points="6 26.51 6.34 26.12 5.86 26.36 6 26.51"/><polygon class="cls-5" points="8.31 30.58 8.7 30.35 8.17 30.43 8.31 30.58"/><polygon class="cls-5" points="9.71 31.53 10.1 31.3 9.48 31.26 9.71 31.53"/><polygon class="cls-5" points="11.06 31.82 11.8 31.4 10.84 31.55 11.06 31.82"/><path class="cls-6" d="M15.34,26.41h.16l-.29-1h-.16a7.27,7.27,0,0,0-.33-.76l.12-.07-.54-.92-.11.07q-.24-.36-.51-.69l.07-.13-.7-.73-.06.13c-.19-.17-.39-.33-.59-.48v-.17l-.75-.43v.17a3.57,3.57,0,0,0-.6-.21L11,21,10.3,21l.06.2a1.59,1.59,0,0,0-.5.1l-.11-.18-.53.3.11.19A1.83,1.83,0,0,0,9,22l-.34-.14L7,22.79l1,.05c0,.18.21.08.19.3L8,23.22l.44.78.17.09a5.21,5.21,0,0,0,.12.76l-.15,0,.28,1,.16,0c.1.25.21.51.33.76l-.12.07.54.92.12-.08c.16.24.33.46.5.68l-.06.15.69.73.07-.16a6.28,6.28,0,0,0,.58.47v.21l.61.46.14-.25c.2.09-.27.43-.08.47l-.49,1.08,1.58-.7.27-.58a1.64,1.64,0,0,0,.49-.1l.13.23.53-.31-.13-.23a1.77,1.77,0,0,0,.33-.38l.17.18.29-.64-.17-.17a3.75,3.75,0,0,0,.11-.6l.18.1v-.87l-.17-.1Q15.42,26.79,15.34,26.41Z"/><polygon class="cls-7" points="7.04 22.61 7.14 22.79 9.86 21.26 9.75 21.08 7.04 22.61"/><polygon class="cls-7" points="12 31.17 12.13 31.4 14.85 29.87 14.72 29.64 12 31.17"/><path class="cls-7" d="M12.62,27.94h.16l-.29-1h-.15c-.1-.26-.21-.51-.33-.76l.11-.07-.53-.92-.11.06c-.16-.23-.33-.46-.51-.68l.06-.13-.69-.73-.06.13a5.17,5.17,0,0,0-.59-.48v-.17l-.75-.44V23a3.32,3.32,0,0,0-.6-.21l-.06-.19-.7-.07.06.2a1.71,1.71,0,0,0-.5.1L7,22.6l-.53.31.11.19a1.83,1.83,0,0,0-.34.39l-.14-.15L5.85,24l.15.15a3,3,0,0,0-.12.62l-.15-.09v.86l.16.1a7,7,0,0,0,.12.76l-.15,0,.29,1,.16,0c.1.25.21.51.33.76l-.12.06.53.93L7.18,29a6.86,6.86,0,0,0,.5.67l-.07.16.7.73.07-.16a4.79,4.79,0,0,0,.57.46v.22l.76.43v-.22a2.86,2.86,0,0,0,.58.2l.07.25.7.06L11,31.58a1.86,1.86,0,0,0,.48-.1l.14.23.52-.31L12,31.17a1.35,1.35,0,0,0,.33-.38l.18.18.28-.64-.17-.18a2.66,2.66,0,0,0,.12-.6l.18.11v-.87l-.18-.1A4.88,4.88,0,0,0,12.62,27.94Z"/><path class="cls-6" d="M9.72,29.49a4.94,4.94,0,0,1-2.24-3.88A1.72,1.72,0,0,1,8,24.29a1.46,1.46,0,0,0-.88,1.55,4.94,4.94,0,0,0,2.24,3.88,1.46,1.46,0,0,0,1.77,0A1.75,1.75,0,0,1,9.72,29.49Z"/><path class="cls-8" d="M9.31,24.54A1.73,1.73,0,0,0,8,24.29a1.72,1.72,0,0,0-.47,1.32,4.94,4.94,0,0,0,2.24,3.88,1.75,1.75,0,0,0,1.36.26,1.72,1.72,0,0,0,.47-1.32A5,5,0,0,0,9.31,24.54Z"/><path class="cls-5" d="M9.63,28.06a2.29,2.29,0,0,1-1.05-1.8,1,1,0,0,1,.1-.45.68.68,0,0,0-.41.72,2.34,2.34,0,0,0,1,1.81c.43.24.79.16.95-.16A.77.77,0,0,1,9.63,28.06Z"/><path class="cls-9" d="M9.31,25.93a.77.77,0,0,0-.63-.12,1,1,0,0,0-.1.45,2.29,2.29,0,0,0,1.05,1.8.77.77,0,0,0,.63.12,1,1,0,0,0,.1-.45A2.29,2.29,0,0,0,9.31,25.93Z"/><polygon class="cls-5" points="12.49 26.98 12.78 27.95 15.5 26.42 15.21 25.45 12.49 26.98"/><polygon class="cls-5" points="12.92 29.66 15.63 28.13 15.63 27.26 12.92 28.79 12.92 29.66"/><polygon class="cls-5" points="12.51 30.97 15.22 29.44 15.51 28.8 12.79 30.33 12.51 30.97"/><polygon class="cls-5" points="11.59 25.22 12.12 26.14 14.84 24.61 14.3 23.69 11.59 25.22"/><polygon class="cls-5" points="10.34 23.74 11.03 24.47 13.75 22.94 13.05 22.21 10.34 23.74"/><polygon class="cls-5" points="8.94 22.78 9.69 23.22 12.4 21.69 11.65 21.26 8.94 22.78"/><polygon class="cls-5" points="7.58 22.49 8.28 22.56 10.99 21.03 10.3 20.96 7.58 22.49"/><polygon class="cls-7" points="10.97 24.6 13.69 23.07 13.75 22.94 11.03 24.47 10.97 24.6"/><polygon class="cls-7" points="12.34 26.97 12.49 26.98 15.21 25.45 15.05 25.44 12.34 26.97"/><polygon class="cls-7" points="12.74 28.69 12.92 28.79 15.63 27.26 15.46 27.16 12.74 28.69"/><polygon class="cls-7" points="12.62 30.15 12.79 30.33 15.51 28.8 15.34 28.63 12.62 30.15"/><polygon class="cls-7" points="9.69 23.39 12.4 21.86 12.4 21.69 9.69 23.22 9.69 23.39"/><polygon class="cls-7" points="8.28 22.56 8.34 22.75 11.05 21.22 10.99 21.03 8.28 22.56"/><polygon class="cls-5" points="13.73 27.8 14.07 27.4 13.59 27.65 13.73 27.8"/><polygon class="cls-5" points="13.32 29.11 13.66 28.71 13.18 28.96 13.32 29.11"/><polygon class="cls-5" points="13.46 30.81 13.79 30.42 13.31 30.66 13.46 30.81"/><polygon class="cls-5" points="15.76 34.88 16.15 34.66 15.62 34.73 15.76 34.88"/><polygon class="cls-5" points="17.16 35.83 17.55 35.61 16.94 35.56 17.16 35.83"/><polygon class="cls-5" points="18.51 36.13 19.25 35.71 18.29 35.85 18.51 36.13"/><path class="cls-6" d="M22.79,30.71l.16,0-.29-1-.16,0a5.63,5.63,0,0,0-.33-.76l.12-.07L21.76,28l-.12.07a6.72,6.72,0,0,0-.5-.69l.06-.13-.7-.73-.06.13a6.28,6.28,0,0,0-.58-.47V26l-.76-.43v.17a2.82,2.82,0,0,0-.6-.2l-.05-.2-.7-.06.06.19a2,2,0,0,0-.5.1l-.1-.18-.53.31.1.18a1.94,1.94,0,0,0-.34.4l-.34-.15-1.61,1,1,.05c-.06.19.2.08.18.3l-.18.08.44.78.16.09a5,5,0,0,0,.12.76H16l.29,1h.15a7.35,7.35,0,0,0,.34.76l-.12.07.53.92.13-.07a6.48,6.48,0,0,0,.5.67l-.07.15.69.73.08-.15a5,5,0,0,0,.57.46v.21l.61.46.14-.24c.2.09-.27.42-.08.47l-.49,1.08,1.58-.7.27-.59a1.93,1.93,0,0,0,.49-.09l.13.23.53-.31L22.17,34a2,2,0,0,0,.33-.38l.17.17.29-.63-.17-.18a5.31,5.31,0,0,0,.12-.6l.17.1v-.87l-.17-.1A6.86,6.86,0,0,0,22.79,30.71Z"/><polygon class="cls-7" points="14.49 26.91 14.6 27.09 17.31 25.56 17.21 25.38 14.49 26.91"/><polygon class="cls-7" points="19.46 35.48 19.59 35.71 22.3 34.18 22.17 33.95 19.46 35.48"/><path class="cls-7" d="M20.07,32.24h.16l-.28-1-.16,0c-.09-.25-.21-.51-.33-.76l.12-.07L19,29.52l-.11.07a6.82,6.82,0,0,0-.51-.69l.07-.13-.7-.73-.06.13a6.39,6.39,0,0,0-.59-.47v-.18l-.75-.44v.18a4.32,4.32,0,0,0-.6-.21l-.06-.18L15,26.8l.06.19a1.59,1.59,0,0,0-.5.1l-.11-.18-.53.3.11.19a1.67,1.67,0,0,0-.34.4l-.14-.15-.28.63.14.16a5.07,5.07,0,0,0-.12.61L13.18,29v.87l.16.09c0,.25.07.51.12.76l-.15,0,.29,1,.16,0c.1.25.21.51.33.76l-.12.07.53.92.13-.07c.16.23.33.46.5.67l-.06.15.69.73.07-.15c.19.16.38.32.58.46v.21l.75.43v-.21a3.42,3.42,0,0,0,.59.2l.07.24.69.06-.07-.24a1.52,1.52,0,0,0,.48-.1l.14.23.53-.3-.13-.23a2.12,2.12,0,0,0,.33-.39l.17.18.29-.64-.18-.17a2.9,2.9,0,0,0,.12-.6l.18.1v-.87l-.18-.1A4.88,4.88,0,0,0,20.07,32.24Z"/><path class="cls-6" d="M17.17,33.79a5,5,0,0,1-2.24-3.88,1.76,1.76,0,0,1,.47-1.32,1.47,1.47,0,0,0-.88,1.55A5,5,0,0,0,16.77,34a1.46,1.46,0,0,0,1.76,0A1.71,1.71,0,0,1,17.17,33.79Z"/><path class="cls-8" d="M16.77,28.85a1.77,1.77,0,0,0-1.37-.26,1.76,1.76,0,0,0-.47,1.32,5,5,0,0,0,2.24,3.88,1.71,1.71,0,0,0,1.36.26A1.72,1.72,0,0,0,19,32.73,5,5,0,0,0,16.77,28.85Z"/><path class="cls-5" d="M17.08,32.37a2.3,2.3,0,0,1-1-1.81,1,1,0,0,1,.09-.45.68.68,0,0,0-.41.72,2.3,2.3,0,0,0,1,1.81c.42.24.78.16.95-.16A.82.82,0,0,1,17.08,32.37Z"/><path class="cls-9" d="M16.77,30.23a.83.83,0,0,0-.64-.12,1,1,0,0,0-.09.45,2.3,2.3,0,0,0,1,1.81.82.82,0,0,0,.64.11.93.93,0,0,0,.09-.44A2.31,2.31,0,0,0,16.77,30.23Z"/><polygon class="cls-5" points="19.95 31.29 20.23 32.25 22.95 30.73 22.66 29.76 19.95 31.29"/><polygon class="cls-5" points="20.37 33.96 23.08 32.43 23.08 31.56 20.37 33.09 20.37 33.96"/><polygon class="cls-5" points="19.96 35.27 22.67 33.74 22.96 33.11 20.25 34.63 19.96 35.27"/><polygon class="cls-5" points="19.04 29.52 19.58 30.44 22.29 28.91 21.76 27.99 19.04 29.52"/><polygon class="cls-5" points="17.79 28.04 18.48 28.77 21.2 27.24 20.5 26.51 17.79 28.04"/><polygon class="cls-5" points="16.39 27.09 17.14 27.52 19.86 25.99 19.1 25.56 16.39 27.09"/><polygon class="cls-5" points="15.04 26.8 15.73 26.86 18.45 25.34 17.75 25.27 15.04 26.8"/><polygon class="cls-7" points="18.42 28.9 21.14 27.38 21.2 27.24 18.48 28.77 18.42 28.9"/><polygon class="cls-7" points="19.79 31.27 19.95 31.29 22.66 29.76 22.5 29.74 19.79 31.27"/><polygon class="cls-7" points="20.19 32.99 20.37 33.09 23.08 31.56 22.91 31.46 20.19 32.99"/><polygon class="cls-7" points="20.07 34.46 20.25 34.63 22.96 33.11 22.79 32.93 20.07 34.46"/><polygon class="cls-7" points="17.14 27.7 19.86 26.17 19.86 25.99 17.14 27.52 17.14 27.7"/><polygon class="cls-7" points="15.73 26.86 15.79 27.05 18.5 25.53 18.45 25.34 15.73 26.86"/><path class="cls-10" d="M25.55,28.71h0L31.22,32,27.4,37.42l-5.66-3.27h0a.59.59,0,0,1-.23-.52V31.72a1.82,1.82,0,0,1,.81-1.41L25,28.77a.57.57,0,0,1,.57-.06Z"/><path class="cls-11" d="M28,33.59l-5.68-3.28L25,28.77a.57.57,0,0,1,.57-.06h0L31.22,32Z"/><path class="cls-3" d="M28,33.59A1.84,1.84,0,0,0,27.19,35v1.9c0,.52.37.73.82.48l2.65-1.54a1.81,1.81,0,0,0,.81-1.42v-1.9c0-.52-.36-.74-.81-.48Z"/><polygon class="cls-3" points="29.22 33.74 2.15 18.11 14.65 10.89 41.73 26.52 29.22 33.74"/><polygon class="cls-12" points="15.08 4.86 2.69 12.58 2.15 11.83 14.65 4.61 15.08 4.86"/><polygon class="cls-13" points="4.08 15.26 2.58 18.36 2.15 18.11 2.15 11.83 2.58 12.08 4.08 15.26"/><polygon class="cls-14" points="15.08 11.14 2.58 18.36 2.58 12.08 15.08 4.86 15.08 11.14"/><polygon class="cls-12" points="41.73 20.24 29.34 27.96 28.8 27.21 41.3 19.99 41.73 20.24"/><polygon class="cls-13" points="30.73 30.64 29.22 33.74 28.8 33.49 28.8 27.21 29.22 27.46 30.73 30.64"/><polygon class="cls-14" points="41.73 26.52 29.22 33.74 29.22 27.46 41.73 20.24 41.73 26.52"/><path class="cls-15" d="M1.67,14.7A4.12,4.12,0,0,1,0,11,13,13,0,0,1,5.87.81,4.12,4.12,0,0,1,9.74.28l1.33.78L3.16,15.63Z"/><path class="cls-16" d="M1.28,11.75A13,13,0,0,1,7.14,1.57C10.39-.29,13,1.24,13,5a12.93,12.93,0,0,1-5.9,10.16C3.9,17,1.28,15.49,1.28,11.75Z"/><path class="cls-17" d="M3.15,15.35a4,4,0,0,1-1.63-3.63,12.7,12.7,0,0,1,5.75-10,4,4,0,0,1,3.78-.52l5.86,3.4L9.17,18.9Z"/><path class="cls-15" d="M7.33,15.1a12.77,12.77,0,0,1,5.73-10c3.18-1.82,5.78-.31,5.75,3.34a12.68,12.68,0,0,1-5.77,10C9.9,20.23,7.33,18.76,7.33,15.1Z"/><path class="cls-15" d="M8.63,18.72A4.14,4.14,0,0,1,7,15,13,13,0,0,1,12.83,4.83a4.13,4.13,0,0,1,3.87-.54L18,5.08,10.12,19.64Z"/><path class="cls-16" d="M8.24,15.77A13,13,0,0,1,14.1,5.58C17.35,3.73,20,5.26,20,9a12.93,12.93,0,0,1-5.9,10.16C10.86,21,8.24,19.51,8.24,15.77Z"/><path class="cls-17" d="M10.11,19.37a4,4,0,0,1-1.63-3.64,12.68,12.68,0,0,1,5.75-9.95A4,4,0,0,1,18,5.26l5.85,3.39L16.13,22.91Z"/><path class="cls-15" d="M14.29,19.12A12.75,12.75,0,0,1,20,9.15c3.18-1.82,5.78-.31,5.75,3.34a12.68,12.68,0,0,1-5.77,10C16.86,24.25,14.29,22.78,14.29,19.12Z"/><path class="cls-15" d="M15.8,22.86a4.15,4.15,0,0,1-1.67-3.72A13,13,0,0,1,20,9a4.12,4.12,0,0,1,3.87-.53l1.32.78L17.29,23.79Z"/><path class="cls-16" d="M15.41,19.91A13.07,13.07,0,0,1,21.27,9.72c3.25-1.85,5.9-.31,5.87,3.42A12.94,12.94,0,0,1,21.25,23.3C18,25.16,15.41,23.65,15.41,19.91Z"/><path class="cls-17" d="M17.29,23.51a4,4,0,0,1-1.64-3.63,12.73,12.73,0,0,1,5.75-10,4,4,0,0,1,3.79-.52l5.86,3.4L23.3,27.05Z"/><path class="cls-15" d="M21.46,23.26a12.77,12.77,0,0,1,5.74-10c3.18-1.81,5.77-.31,5.74,3.34a12.67,12.67,0,0,1-5.76,10C24,28.39,21.46,26.92,21.46,23.26Z"/><path class="cls-15" d="M23,27a4.12,4.12,0,0,1-1.67-3.72,13,13,0,0,1,5.87-10.16,4.1,4.1,0,0,1,3.87-.54l1.33.78L24.47,27.93Z"/><path class="cls-16" d="M22.59,24.05a13,13,0,0,1,5.86-10.18c3.25-1.86,5.89-.32,5.87,3.41a12.91,12.91,0,0,1-5.9,10.16C25.21,29.3,22.59,27.79,22.59,24.05Z"/><path class="cls-17" d="M24.46,27.66A4.06,4.06,0,0,1,22.83,24a12.67,12.67,0,0,1,5.75-9.95,4,4,0,0,1,3.79-.53l5.85,3.4L30.48,31.2Z"/><path class="cls-15" d="M28.64,27.4a12.75,12.75,0,0,1,5.73-10c3.18-1.82,5.78-.32,5.75,3.33a12.68,12.68,0,0,1-5.77,10C31.21,32.54,28.64,31.06,28.64,27.4Z"/><path class="cls-15" d="M29.94,31a4.12,4.12,0,0,1-1.67-3.72,13,13,0,0,1,5.87-10.17A4.12,4.12,0,0,1,38,16.6l1.33.78L31.43,32Z"/><path class="cls-16" d="M29.55,28.07a13,13,0,0,1,5.86-10.18c3.25-1.86,5.89-.33,5.87,3.41a12.93,12.93,0,0,1-5.9,10.16C32.17,33.32,29.55,31.81,29.55,28.07Z"/><path class="cls-18" d="M40.58,11.56l-.31-.18a.59.59,0,0,0-.23-.05.82.82,0,0,0-.42.13l-9.76,5.63a2.08,2.08,0,0,0-.94,1.63V33.07l.33-.19.15-14.17a1.34,1.34,0,0,1,.68-1.16l9.7-5.81a.51.51,0,0,1,.26-.08c.17,0,.2.21.2.34V26.53l.3.18,0-.36V12a.88.88,0,0,0,0-.29Z"/><path class="cls-1" d="M29.55,33.06V18.9a1.79,1.79,0,0,1,.78-1.35l9.76-5.63a.53.53,0,0,1,.25-.09c.18,0,.2.22.2.35V26.71l.33-.19V12.18c0-.43-.21-.67-.53-.67a.9.9,0,0,0-.41.12l-9.76,5.63a2.1,2.1,0,0,0-.94,1.64V33.25Z"/><polygon class="cls-19" points="40.54 23.79 40.54 26.71 40.87 26.52 40.87 23.6 40.54 23.79"/><polygon class="cls-19" points="29.23 30.32 29.23 33.24 29.55 33.06 29.55 30.13 29.23 30.32"/><polygon class="cls-17" points="47.76 25.5 37.37 32.1 37.46 25.3 47.76 24.41 47.76 25.5"/><path class="cls-20" d="M53.08,33c-2.45,1.14-2.61,4.16-2.61,4.18l2.66-1.53a10.14,10.14,0,0,1,1.06-2Z"/><polygon class="cls-5" points="52.3 36.42 52.64 36.03 52.16 36.27 52.3 36.42"/><polygon class="cls-5" points="51.89 37.73 52.23 37.34 51.75 37.59 51.89 37.73"/><polygon class="cls-5" points="52.03 39.44 52.36 39.05 51.89 39.29 52.03 39.44"/><polygon class="cls-5" points="54.33 43.51 54.72 43.28 54.19 43.36 54.33 43.51"/><polygon class="cls-5" points="55.73 44.46 56.12 44.24 55.51 44.19 55.73 44.46"/><polygon class="cls-5" points="57.08 44.75 57.82 44.33 56.86 44.48 57.08 44.75"/><path class="cls-6" d="M61.36,39.34h.16l-.29-1h-.15c-.1-.26-.21-.51-.33-.76l.11-.07-.53-.92-.11.07q-.24-.36-.51-.69l.06-.13-.69-.73-.06.13a6.39,6.39,0,0,0-.59-.47v-.18l-.75-.43v.17a4.32,4.32,0,0,0-.6-.21L57,34l-.7-.07.06.2a1.71,1.71,0,0,0-.5.1l-.1-.18-.53.3.11.19a1.59,1.59,0,0,0-.34.39l-.34-.14-1.62,1,1,.05c-.06.19.21.07.19.3l-.19.08.44.78.16.09a5.21,5.21,0,0,0,.12.76l-.15,0,.29,1,.16,0c.1.25.21.51.33.76l-.12.07.53.92.13-.08a6.6,6.6,0,0,0,.5.68l-.07.15.7.73.07-.16a6.17,6.17,0,0,0,.57.47v.21l.61.46.15-.25c.2.09-.28.43-.09.47l-.49,1.08,1.58-.7.28-.58a1.52,1.52,0,0,0,.48-.1l.13.23.54-.31-.14-.23a1.57,1.57,0,0,0,.34-.38l.17.18.28-.64-.17-.17a3.75,3.75,0,0,0,.12-.6l.18.1v-.87l-.18-.1A4.88,4.88,0,0,0,61.36,39.34Z"/><polygon class="cls-7" points="53.06 35.53 53.17 35.72 55.88 34.19 55.78 34.01 53.06 35.53"/><polygon class="cls-7" points="58.03 44.1 58.16 44.33 60.88 42.8 60.74 42.57 58.03 44.1"/><path class="cls-7" d="M58.65,40.87h.16l-.29-1h-.16a5.63,5.63,0,0,0-.33-.76l.12-.07-.53-.92-.12.06a7.9,7.9,0,0,0-.5-.68l.06-.13-.7-.73-.06.13a5.38,5.38,0,0,0-.59-.48v-.17L55,35.71v.18a2.86,2.86,0,0,0-.6-.21l0-.19-.7-.07.06.2a1.59,1.59,0,0,0-.5.1l-.11-.19-.53.31.11.19a1.83,1.83,0,0,0-.34.39l-.14-.14-.28.63.14.15a3.8,3.8,0,0,0-.11.62l-.16-.09v.87l.17.09a5.21,5.21,0,0,0,.12.76l-.15,0,.28,1,.16,0c.1.25.21.51.34.76l-.13.06.54.93L53.2,42a6.94,6.94,0,0,0,.51.67l-.07.16.69.73.07-.16a6.28,6.28,0,0,0,.58.47V44l.75.43v-.22a2.94,2.94,0,0,0,.59.2l.07.25.69.06L57,44.51a1.94,1.94,0,0,0,.49-.1l.13.23.53-.31L58,44.1a1.77,1.77,0,0,0,.33-.38l.17.18.29-.64-.17-.18a3.38,3.38,0,0,0,.11-.6l.18.11v-.87l-.17-.1Q58.73,41.25,58.65,40.87Z"/><path class="cls-6" d="M55.74,42.42a5,5,0,0,1-2.24-3.88A1.72,1.72,0,0,1,54,37.22c-.54.16-.88.71-.88,1.55a4.94,4.94,0,0,0,2.24,3.88,1.46,1.46,0,0,0,1.77,0A1.77,1.77,0,0,1,55.74,42.42Z"/><path class="cls-8" d="M55.34,37.47A1.74,1.74,0,0,0,54,37.22a1.72,1.72,0,0,0-.48,1.32,5,5,0,0,0,2.24,3.88,1.77,1.77,0,0,0,1.37.26,1.76,1.76,0,0,0,.47-1.32A5,5,0,0,0,55.34,37.47Z"/><path class="cls-5" d="M55.65,41a2.28,2.28,0,0,1-1-1.8,1,1,0,0,1,.09-.45c-.25.08-.4.33-.4.72a2.3,2.3,0,0,0,1,1.81c.42.24.79.16.95-.16A.79.79,0,0,1,55.65,41Z"/><path class="cls-9" d="M55.34,38.86a.79.79,0,0,0-.64-.12,1,1,0,0,0-.09.45,2.28,2.28,0,0,0,1,1.8.79.79,0,0,0,.64.12,1,1,0,0,0,.09-.45A2.31,2.31,0,0,0,55.34,38.86Z"/><polygon class="cls-5" points="58.52 39.91 58.81 40.88 61.52 39.35 61.23 38.38 58.52 39.91"/><polygon class="cls-5" points="58.94 42.59 61.66 41.06 61.66 40.19 58.94 41.72 58.94 42.59"/><polygon class="cls-5" points="58.53 43.9 61.24 42.37 61.53 41.73 58.82 43.26 58.53 43.9"/><polygon class="cls-5" points="57.62 38.15 58.15 39.07 60.86 37.54 60.33 36.62 57.62 38.15"/><polygon class="cls-5" points="56.36 36.67 57.05 37.4 59.77 35.87 59.08 35.14 56.36 36.67"/><polygon class="cls-5" points="54.96 35.71 55.71 36.15 58.43 34.62 57.68 34.19 54.96 35.71"/><polygon class="cls-5" points="53.61 35.42 54.3 35.49 57.02 33.96 56.32 33.9 53.61 35.42"/><polygon class="cls-7" points="56.99 37.53 59.71 36 59.77 35.87 57.05 37.4 56.99 37.53"/><polygon class="cls-7" points="58.36 39.9 58.52 39.91 61.23 38.38 61.08 38.37 58.36 39.9"/><polygon class="cls-7" points="58.77 41.62 58.94 41.72 61.66 40.19 61.48 40.09 58.77 41.62"/><polygon class="cls-7" points="58.65 43.08 58.82 43.26 61.53 41.73 61.36 41.56 58.65 43.08"/><polygon class="cls-7" points="55.71 36.32 58.43 34.8 58.43 34.62 55.71 36.15 55.71 36.32"/><polygon class="cls-7" points="54.3 35.49 54.36 35.68 57.08 34.16 57.02 33.96 54.3 35.49"/><path class="cls-15" d="M54.19,33.63l5.22,2.95.66-.57L62,38.53l.76.44v-4.5L57,31.19A2.25,2.25,0,0,0,54.71,31l-2.58,1.5.95.49Z"/><polygon class="cls-19" points="62.73 38.97 59.44 40.86 59 38.97 59.44 36.37 62.73 34.48 62.73 38.97"/><polygon class="cls-15" points="47.2 19.67 37.46 25.3 37.11 25.37 30.73 21.41 40.47 15.79 47.2 19.67"/><polygon class="cls-19" points="47.2 19.67 47.76 24.41 38.02 30.04 37.46 25.3 47.2 19.67"/><polygon class="cls-21" points="38.24 29.26 38.28 29.57 42.72 27.01 42.24 22.87 41.99 23.02 42.43 26.84 38.24 29.26"/><polygon class="cls-22" points="37.8 25.44 38.24 29.26 42.43 26.84 41.99 23.02 37.8 25.44"/><polygon class="cls-21" points="42.97 26.53 43 26.84 47.45 24.28 46.97 20.14 46.72 20.29 47.16 24.11 42.97 26.53"/><polygon class="cls-22" points="42.53 22.71 42.97 26.53 47.16 24.11 46.72 20.29 42.53 22.71"/><polygon class="cls-23" points="43.92 21.9 47 23.68 46.62 20.34 43.92 21.9"/><polygon class="cls-17" points="38.02 30.04 37.46 25.3 30.73 21.41 30.73 33.41 38.02 37.62 38.02 30.04"/><polygon class="cls-22" points="33.52 23.89 33.52 27.37 37.27 29.54 37.25 29.3 33.72 27.26 33.72 24 33.52 23.89"/><polygon class="cls-23" points="33.72 24 33.72 27.26 37.25 29.3 36.94 25.86 33.72 24"/><polygon class="cls-24" points="40.78 40.08 30.73 34.28 30.73 37.95 38.84 42.64 40.78 40.08"/><polygon class="cls-15" points="51.08 36.16 58.36 31.95 46.53 25.12 39.25 29.33 51.08 36.16"/><polygon class="cls-17" points="38.02 31.13 36.87 35.12 38.02 37.62 48.2 43.49 48.37 44.47 49.85 45.32 49.85 37.95 38.02 31.13"/><polygon class="cls-25" points="49.85 37.95 38.02 31.13 39.25 29.33 51.08 36.16 49.85 37.95"/><polygon class="cls-25" points="59.59 32.33 47.76 25.5 46.53 25.12 58.36 31.95 59.59 32.33"/><polygon class="cls-17" points="42.87 30.32 42.87 31.01 49.87 33.6 53.92 31.26 53.92 31.14 42.87 30.32"/><polygon class="cls-26" points="49.44 26.53 42.87 30.32 49.87 33.48 53.92 31.14 49.44 26.53"/><polygon class="cls-19" points="59.6 33.23 52.64 37.25 50.55 37.95 51.57 45.69 60.22 40.7 60.22 33.42 59.6 33.23"/><path class="cls-25" d="M52.41,39.92l1.07-.62a.29.29,0,0,0,.13-.22c0-.07,0-.11-.1-.1a.06.06,0,0,1,0,0,.29.29,0,0,1-.13.23l-1.07.62h0A.08.08,0,0,0,52.41,39.92Z"/><path class="cls-1" d="M52.32,39.87l1.07-.62a.29.29,0,0,0,.13-.23.06.06,0,0,0,0,0l0,0-1.07.61a.32.32,0,0,0-.13.23v0Z"/><path class="cls-25" d="M58.33,36.5l1.07-.61a.32.32,0,0,0,.13-.23c0-.07,0-.11-.1-.1a.09.09,0,0,1,0,0,.29.29,0,0,1-.13.22l-1.07.62,0,0C58.22,36.52,58.27,36.54,58.33,36.5Z"/><path class="cls-1" d="M58.24,36.45l1.07-.62a.29.29,0,0,0,.13-.22.09.09,0,0,0,0,0l0,0-1.07.62a.29.29,0,0,0-.13.23v0Z"/><path class="cls-25" d="M53.94,39l1.62-.94a.29.29,0,0,0,.14-.23c0-.07,0-.11-.1-.09s0,0,0,0a.3.3,0,0,1-.14.23L53.85,39h0C53.83,39.06,53.88,39.07,53.94,39Z"/><path class="cls-1" d="M53.85,39l1.62-.94a.3.3,0,0,0,.14-.23s0,0,0,0h0l-1.62.94a.3.3,0,0,0-.13.23v0Z"/><path class="cls-25" d="M56.24,37.71l1.63-.94a.3.3,0,0,0,.13-.23c0-.07,0-.1-.09-.09v0a.3.3,0,0,1-.13.23l-1.63.94h0C56.13,37.73,56.18,37.74,56.24,37.71Z"/><path class="cls-1" d="M56.15,37.66l1.63-.94a.3.3,0,0,0,.13-.23v0h0l-1.63.94a.3.3,0,0,0-.13.23s0,0,0,0Z"/><path class="cls-25" d="M52.41,40.52l1.07-.62a.29.29,0,0,0,.13-.23c0-.07,0-.1-.1-.09s0,0,0,0a.3.3,0,0,1-.13.23l-1.07.62h0A.09.09,0,0,0,52.41,40.52Z"/><path class="cls-1" d="M52.32,40.47l1.07-.62a.3.3,0,0,0,.13-.23s0,0,0,0h0l-1.07.62a.3.3,0,0,0-.13.23v0Z"/><path class="cls-25" d="M58.33,37.1l1.07-.62a.29.29,0,0,0,.13-.23c0-.07,0-.1-.1-.09a.06.06,0,0,1,0,0,.29.29,0,0,1-.13.23l-1.07.62h0C58.22,37.12,58.27,37.13,58.33,37.1Z"/><path class="cls-1" d="M58.24,37.05l1.07-.62a.29.29,0,0,0,.13-.23.06.06,0,0,0,0,0l0,0-1.07.61a.3.3,0,0,0-.13.23v0Z"/><path class="cls-25" d="M53.94,39.63l1.62-.93a.3.3,0,0,0,.14-.23c0-.07,0-.11-.1-.1a.06.06,0,0,1,0,0,.27.27,0,0,1-.14.23l-1.62.94,0,0S53.88,39.67,53.94,39.63Z"/><path class="cls-1" d="M53.85,39.58l1.62-.94a.27.27,0,0,0,.14-.23.06.06,0,0,0,0,0l0,0-1.62.94a.29.29,0,0,0-.13.23v0Z"/><path class="cls-25" d="M56.24,38.3l1.63-.93a.32.32,0,0,0,.13-.23c0-.07,0-.11-.09-.1v0a.29.29,0,0,1-.13.23l-1.63.94,0,0S56.18,38.34,56.24,38.3Z"/><path class="cls-1" d="M56.15,38.25l1.63-.94a.29.29,0,0,0,.13-.23v0l0,0L56.24,38a.29.29,0,0,0-.13.23.06.06,0,0,0,0,0Z"/><path class="cls-25" d="M52.41,41.11l1.07-.61a.32.32,0,0,0,.13-.23c0-.07,0-.11-.1-.1a.09.09,0,0,1,0,0,.29.29,0,0,1-.13.22l-1.07.62,0,0C52.3,41.13,52.35,41.15,52.41,41.11Z"/><path class="cls-1" d="M52.32,41.06l1.07-.62a.29.29,0,0,0,.13-.22.09.09,0,0,0,0,0l0,0-1.07.62a.29.29,0,0,0-.13.23v0Z"/><path class="cls-25" d="M58.33,37.69l1.07-.61a.3.3,0,0,0,.13-.23c0-.07,0-.11-.1-.09s0,0,0,0a.32.32,0,0,1-.13.23l-1.07.61,0,0C58.22,37.71,58.27,37.73,58.33,37.69Z"/><path class="cls-1" d="M58.24,37.64,59.31,37a.32.32,0,0,0,.13-.23s0,0,0,0h0l-1.07.62a.29.29,0,0,0-.13.23v0Z"/><path class="cls-25" d="M53.94,40.23l1.62-.94a.27.27,0,0,0,.14-.23c0-.07,0-.1-.1-.09s0,0,0,0a.29.29,0,0,1-.14.23l-1.62.94h0C53.83,40.25,53.88,40.26,53.94,40.23Z"/><path class="cls-1" d="M53.85,40.18l1.62-.94a.29.29,0,0,0,.14-.23s0,0,0,0h0l-1.62.94a.32.32,0,0,0-.13.23v0Z"/><path class="cls-25" d="M56.24,38.9,57.87,38a.29.29,0,0,0,.13-.23c0-.07,0-.1-.09-.09v0a.3.3,0,0,1-.13.23l-1.63.94h0C56.13,38.92,56.18,38.93,56.24,38.9Z"/><path class="cls-1" d="M56.15,38.85l1.63-.94a.3.3,0,0,0,.13-.23v0h0l-1.63.94a.32.32,0,0,0-.13.23s0,0,0,0Z"/><path class="cls-25" d="M52.41,41.71l1.07-.62a.29.29,0,0,0,.13-.23c0-.07,0-.1-.1-.09a.06.06,0,0,1,0,0,.29.29,0,0,1-.13.23l-1.07.62h0C52.3,41.73,52.35,41.74,52.41,41.71Z"/><path class="cls-1" d="M52.32,41.66,53.39,41a.29.29,0,0,0,.13-.23.06.06,0,0,0,0,0l0,0-1.07.61a.3.3,0,0,0-.13.23v0Z"/><path class="cls-25" d="M58.33,38.29l1.07-.61a.32.32,0,0,0,.13-.23c0-.07,0-.11-.1-.1a.06.06,0,0,1,0,0,.29.29,0,0,1-.13.23l-1.07.62h0A.08.08,0,0,0,58.33,38.29Z"/><path class="cls-1" d="M58.24,38.24l1.07-.62a.29.29,0,0,0,.13-.23.06.06,0,0,0,0,0l0,0L58.33,38a.32.32,0,0,0-.13.23v0Z"/><path class="cls-25" d="M53.94,40.83l1.62-.94a.3.3,0,0,0,.14-.23c0-.07,0-.11-.1-.1a.09.09,0,0,1,0,0,.3.3,0,0,1-.14.23l-1.62.93,0,0A.09.09,0,0,0,53.94,40.83Z"/><path class="cls-1" d="M53.85,40.77l1.62-.93a.3.3,0,0,0,.14-.23.09.09,0,0,0,0,0l0,0-1.62.94a.29.29,0,0,0-.13.23v0Z"/><path class="cls-25" d="M56.24,39.5l1.63-.94a.32.32,0,0,0,.13-.23c0-.07,0-.11-.09-.1v.05a.32.32,0,0,1-.13.23l-1.63.93,0,0S56.18,39.53,56.24,39.5Z"/><path class="cls-1" d="M56.15,39.44l1.63-.93a.32.32,0,0,0,.13-.23v-.05l0,0-1.63.94a.29.29,0,0,0-.13.23.06.06,0,0,0,0,0Z"/><path class="cls-25" d="M52.41,42.31l1.07-.62a.3.3,0,0,0,.13-.23c0-.07,0-.11-.1-.09s0,0,0,0a.32.32,0,0,1-.13.23l-1.07.61,0,0A.09.09,0,0,0,52.41,42.31Z"/><path class="cls-1" d="M52.32,42.25l1.07-.61a.32.32,0,0,0,.13-.23s0,0,0,0h0L52.41,42a.29.29,0,0,0-.13.23v0Z"/><path class="cls-25" d="M58.33,38.89l1.07-.62a.29.29,0,0,0,.13-.23c0-.07,0-.1-.1-.09s0,0,0,0a.3.3,0,0,1-.13.23l-1.07.62h0C58.22,38.91,58.27,38.92,58.33,38.89Z"/><path class="cls-1" d="M58.24,38.84l1.07-.62a.3.3,0,0,0,.13-.23s0,0,0,0h0l-1.07.62a.3.3,0,0,0-.13.23v0Z"/><path class="cls-25" d="M53.94,41.42l1.62-.94a.27.27,0,0,0,.14-.23c0-.07,0-.1-.1-.09a.06.06,0,0,1,0,0,.27.27,0,0,1-.14.23l-1.62.94,0,0S53.88,41.46,53.94,41.42Z"/><path class="cls-1" d="M53.85,41.37l1.62-.94a.27.27,0,0,0,.14-.23.06.06,0,0,0,0,0l0,0-1.62.94a.29.29,0,0,0-.13.23v0Z"/><path class="cls-25" d="M56.24,40.09l1.63-.94a.29.29,0,0,0,.13-.23c0-.07,0-.1-.09-.09v0a.29.29,0,0,1-.13.23L56.15,40l0,0S56.18,40.13,56.24,40.09Z"/><path class="cls-1" d="M56.15,40l1.63-.94a.29.29,0,0,0,.13-.23v0l0,0-1.63.94a.29.29,0,0,0-.13.23.08.08,0,0,0,0,0Z"/><path class="cls-25" d="M52.41,42.9l1.07-.61a.32.32,0,0,0,.13-.23c0-.07,0-.11-.1-.1a.06.06,0,0,1,0,0,.29.29,0,0,1-.13.23l-1.07.62,0,0C52.3,42.92,52.35,42.94,52.41,42.9Z"/><path class="cls-1" d="M52.32,42.85l1.07-.62a.29.29,0,0,0,.13-.23.06.06,0,0,0,0,0l0,0-1.07.61a.32.32,0,0,0-.13.24v0Z"/><path class="cls-25" d="M58.33,39.48l1.07-.61a.32.32,0,0,0,.13-.23c0-.07,0-.11-.1-.1a.09.09,0,0,1,0,.05.29.29,0,0,1-.13.22l-1.07.62,0,0S58.27,39.52,58.33,39.48Z"/><path class="cls-1" d="M58.24,39.43l1.07-.62a.29.29,0,0,0,.13-.22.09.09,0,0,0,0-.05l0,0-1.07.62a.29.29,0,0,0-.13.23v0Z"/><path class="cls-25" d="M53.94,42l1.62-.94a.29.29,0,0,0,.14-.23c0-.07,0-.11-.1-.09s0,0,0,0a.29.29,0,0,1-.14.23L53.85,42h0C53.83,42,53.88,42.05,53.94,42Z"/><path class="cls-1" d="M53.85,42,55.47,41a.29.29,0,0,0,.14-.23s0,0,0,0h0l-1.62.94a.3.3,0,0,0-.13.23v0Z"/><path class="cls-25" d="M56.24,40.69l1.63-.94a.3.3,0,0,0,.13-.23c0-.07,0-.11-.09-.09v0a.32.32,0,0,1-.13.23l-1.63.94h0C56.13,40.71,56.18,40.72,56.24,40.69Z"/><path class="cls-1" d="M56.15,40.64l1.63-.94a.32.32,0,0,0,.13-.23v0h0l-1.63.94a.3.3,0,0,0-.13.23s0,0,0,0Z"/><path class="cls-25" d="M52.41,43.5l1.07-.62a.29.29,0,0,0,.13-.23c0-.07,0-.1-.1-.09s0,0,0,0a.3.3,0,0,1-.13.23l-1.07.62h0C52.3,43.52,52.35,43.53,52.41,43.5Z"/><path class="cls-1" d="M52.32,43.45l1.07-.62a.3.3,0,0,0,.13-.23s0,0,0,0h0l-1.07.62a.3.3,0,0,0-.13.23v0Z"/><path class="cls-25" d="M58.33,40.08l1.07-.62a.29.29,0,0,0,.13-.23c0-.07,0-.1-.1-.09a.06.06,0,0,1,0,0,.29.29,0,0,1-.13.23L58.24,40h0C58.22,40.1,58.27,40.11,58.33,40.08Z"/><path class="cls-1" d="M58.24,40l1.07-.62a.29.29,0,0,0,.13-.23.06.06,0,0,0,0,0l0,0-1.07.61a.32.32,0,0,0-.13.23v0Z"/><path class="cls-25" d="M53.94,42.61l1.62-.93a.3.3,0,0,0,.14-.23c0-.07,0-.11-.1-.1a.08.08,0,0,1,0,0,.27.27,0,0,1-.14.23l-1.62.94,0,0C53.83,42.63,53.88,42.65,53.94,42.61Z"/><path class="cls-1" d="M53.85,42.56l1.62-.94a.27.27,0,0,0,.14-.23.08.08,0,0,0,0,0l0,0-1.62.94a.29.29,0,0,0-.13.23v0Z"/><path class="cls-25" d="M56.24,41.28l1.63-.93a.32.32,0,0,0,.13-.23c0-.07,0-.11-.09-.1v0a.29.29,0,0,1-.13.23l-1.63.94,0,0S56.18,41.32,56.24,41.28Z"/><path class="cls-1" d="M56.15,41.23l1.63-.94a.29.29,0,0,0,.13-.23v0l0,0L56.24,41a.29.29,0,0,0-.13.23.06.06,0,0,0,0,0Z"/><path class="cls-25" d="M52.41,44.09l1.07-.61a.32.32,0,0,0,.13-.23c0-.07,0-.11-.1-.1a.09.09,0,0,1,0,.05.32.32,0,0,1-.13.23L52.32,44l0,0S52.35,44.13,52.41,44.09Z"/><path class="cls-1" d="M52.32,44l1.07-.61a.32.32,0,0,0,.13-.23.09.09,0,0,0,0-.05l0,0-1.07.62a.29.29,0,0,0-.13.23v0Z"/><path class="cls-25" d="M58.33,40.68l1.07-.62a.3.3,0,0,0,.13-.23c0-.07,0-.11-.1-.09s0,0,0,0a.32.32,0,0,1-.13.23l-1.07.61,0,0A.09.09,0,0,0,58.33,40.68Z"/><path class="cls-1" d="M58.24,40.62,59.31,40a.32.32,0,0,0,.13-.23s0,0,0,0h0l-1.07.62a.29.29,0,0,0-.13.23v0Z"/><path class="cls-25" d="M53.94,43.21l1.62-.94A.27.27,0,0,0,55.7,42c0-.07,0-.1-.1-.09s0,0,0,0a.27.27,0,0,1-.14.23l-1.62.94h0A.08.08,0,0,0,53.94,43.21Z"/><path class="cls-1" d="M53.85,43.16l1.62-.94a.27.27,0,0,0,.14-.23s0,0,0,0l0,0-1.62.93a.32.32,0,0,0-.13.23v0Z"/><path class="cls-25" d="M56.24,41.88l1.63-.94a.29.29,0,0,0,.13-.23c0-.07,0-.1-.09-.09v0a.3.3,0,0,1-.13.23l-1.63.94h0C56.13,41.9,56.18,41.92,56.24,41.88Z"/><path class="cls-1" d="M56.15,41.83l1.63-.94a.3.3,0,0,0,.13-.23v0h0l-1.63.94a.32.32,0,0,0-.13.23s0,0,0,0Z"/><polygon class="cls-25" points="59.6 33.23 52.64 37.25 51.08 36.16 58.36 31.95 59.6 33.23"/><polygon class="cls-17" points="51.57 38.81 49.85 37.95 51.08 36.16 52.64 37.25 51.57 38.81"/><polygon class="cls-17" points="59.6 33.23 58.36 31.95 59.59 32.33 60.22 33.42 59.6 33.23"/><polygon class="cls-24" points="51.57 45.69 49.85 45.32 49.85 37.95 51.57 38.81 51.57 45.69"/><polygon class="cls-16" points="47.86 43.29 30.73 33.41 30.73 34.28 47.86 44.16 47.86 43.29"/><path class="cls-1" d="M41,39.12c-2.46,1.14-2.61,4.16-2.61,4.18L41,41.77a11.39,11.39,0,0,1,1.06-2.05Z"/><polygon class="cls-5" points="40.36 43.32 40.7 42.92 40.23 43.17 40.36 43.32"/><polygon class="cls-5" points="39.95 44.63 40.29 44.23 39.81 44.48 39.95 44.63"/><polygon class="cls-5" points="40.09 46.33 40.43 45.94 39.95 46.19 40.09 46.33"/><polygon class="cls-5" points="42.39 50.4 42.78 50.18 42.25 50.26 42.39 50.4"/><polygon class="cls-5" points="43.79 51.35 44.18 51.13 43.57 51.08 43.79 51.35"/><polygon class="cls-5" points="45.14 51.64 45.89 51.23 44.92 51.37 45.14 51.64"/><path class="cls-6" d="M49.42,46.23l.16,0-.29-1-.15,0c-.1-.26-.21-.51-.33-.76l.11-.07-.53-.92-.11.07q-.24-.36-.51-.69l.06-.13L47.14,42l-.06.13a6.39,6.39,0,0,0-.59-.47v-.18l-.75-.43v.17a3.25,3.25,0,0,0-.6-.2l-.06-.19-.69-.07,0,.19a1.58,1.58,0,0,0-.49.1l-.11-.18-.53.31.11.18a1.67,1.67,0,0,0-.34.4l-.34-.15-1.61,1,1,0c-.05.19.21.08.19.3l-.19.08.44.78.16.09c0,.25.07.51.12.76h-.15l.29,1h.16c.1.26.21.51.33.76l-.12.07.53.92.13-.07a8.33,8.33,0,0,0,.5.67l-.07.15.7.73.07-.15a6.51,6.51,0,0,0,.58.46v.21l.6.46.15-.24c.2.09-.27.42-.08.47l-.5,1.08,1.58-.7.28-.59a1.86,1.86,0,0,0,.48-.09l.13.22.54-.3-.14-.23a1.83,1.83,0,0,0,.34-.39l.17.19.28-.64-.17-.18a2.9,2.9,0,0,0,.12-.6l.18.1v-.87l-.18-.1A4.88,4.88,0,0,0,49.42,46.23Z"/><polygon class="cls-7" points="41.13 42.43 41.23 42.61 43.95 41.08 43.84 40.9 41.13 42.43"/><polygon class="cls-7" points="46.09 51 46.22 51.23 48.94 49.7 48.8 49.47 46.09 51"/><path class="cls-7" d="M46.71,47.76h.16l-.29-1-.15,0a7.35,7.35,0,0,0-.34-.76l.12-.07L45.68,45l-.12.07a6.72,6.72,0,0,0-.5-.69l.06-.13-.7-.73-.06.13a6.28,6.28,0,0,0-.58-.47V43L43,42.61v.17a3.57,3.57,0,0,0-.6-.21l-.05-.19-.7-.06.06.19a1.71,1.71,0,0,0-.5.1l-.1-.18-.54.3.11.19a1.94,1.94,0,0,0-.34.4l-.13-.15-.29.63.14.16a3.68,3.68,0,0,0-.11.61l-.16-.09v.87l.17.09a5,5,0,0,0,.12.76l-.15,0,.29,1,.16,0a6.24,6.24,0,0,0,.33.76l-.12.07.53.92.13-.08a5.67,5.67,0,0,0,.5.68l-.07.15.69.73.07-.16a6.28,6.28,0,0,0,.58.47v.21l.75.43v-.21a3.73,3.73,0,0,0,.59.2l.07.24.69.06-.07-.24a1.58,1.58,0,0,0,.49-.1l.13.23.53-.3L46.09,51a1.79,1.79,0,0,0,.33-.39l.17.18.29-.64L46.71,50a5.31,5.31,0,0,0,.12-.6l.17.1v-.87l-.17-.1A4.88,4.88,0,0,0,46.71,47.76Z"/><path class="cls-6" d="M43.81,49.31a5,5,0,0,1-2.25-3.88A1.72,1.72,0,0,1,42,44.11a1.45,1.45,0,0,0-.88,1.55,5,5,0,0,0,2.24,3.89,1.47,1.47,0,0,0,1.77,0A1.74,1.74,0,0,1,43.81,49.31Z"/><path class="cls-8" d="M43.4,44.37A1.74,1.74,0,0,0,42,44.11a1.72,1.72,0,0,0-.48,1.32,5,5,0,0,0,2.25,3.88,1.74,1.74,0,0,0,1.36.26,1.76,1.76,0,0,0,.47-1.32A4.94,4.94,0,0,0,43.4,44.37Z"/><path class="cls-5" d="M43.71,47.89a2.33,2.33,0,0,1-1-1.81,1,1,0,0,1,.09-.45c-.25.08-.4.33-.4.72a2.29,2.29,0,0,0,1,1.81c.42.24.79.16,1-.16A.82.82,0,0,1,43.71,47.89Z"/><path class="cls-9" d="M43.4,45.75a.83.83,0,0,0-.64-.12,1,1,0,0,0-.09.45,2.33,2.33,0,0,0,1,1.81.82.82,0,0,0,.64.11,1,1,0,0,0,.09-.44A2.29,2.29,0,0,0,43.4,45.75Z"/><polygon class="cls-5" points="46.58 46.81 46.87 47.77 49.58 46.25 49.29 45.28 46.58 46.81"/><polygon class="cls-5" points="47 49.48 49.72 47.95 49.72 47.08 47 48.61 47 49.48"/><polygon class="cls-5" points="46.59 50.79 49.31 49.27 49.59 48.63 46.88 50.16 46.59 50.79"/><polygon class="cls-5" points="45.68 45.04 46.21 45.96 48.92 44.43 48.39 43.51 45.68 45.04"/><polygon class="cls-5" points="44.42 43.56 45.12 44.29 47.83 42.76 47.14 42.03 44.42 43.56"/><polygon class="cls-5" points="43.02 42.6 43.78 43.04 46.49 41.51 45.74 41.08 43.02 42.6"/><polygon class="cls-5" points="41.67 42.32 42.37 42.38 45.08 40.85 44.39 40.79 41.67 42.32"/><polygon class="cls-7" points="45.06 44.42 47.77 42.9 47.83 42.76 45.12 44.29 45.06 44.42"/><polygon class="cls-7" points="46.42 46.79 46.58 46.81 49.29 45.28 49.14 45.26 46.42 46.79"/><polygon class="cls-7" points="46.83 48.51 47 48.61 49.72 47.08 49.54 46.98 46.83 48.51"/><polygon class="cls-7" points="46.71 49.98 46.88 50.16 49.59 48.63 49.42 48.45 46.71 49.98"/><polygon class="cls-7" points="43.78 43.22 46.49 41.69 46.49 41.51 43.78 43.04 43.78 43.22"/><polygon class="cls-7" points="42.37 42.38 42.42 42.58 45.14 41.05 45.08 40.85 42.37 42.38"/><path class="cls-15" d="M42.25,40.52l5.22,2.95.66-.57L50,45.42l.83.4V41.33l-1-.5L45.1,38.08a2.25,2.25,0,0,0-2.33-.15l-2.58,1.5,1,.5Z"/><polygon class="cls-19" points="50.86 45.82 48.13 47.39 47.64 45.76 48.13 42.9 50.86 41.33 50.86 45.82"/><path class="cls-17" d="M42.44,39.61c-3.45-2-4.7,4-4.7,4l.79.45c.22-.37,1.4-4.28,3.91-2.82l3.91,2.25,1,3.43.75.43V42.9Z"/><polygon class="cls-18" points="60.22 40.7 51.57 45.69 50.85 45.44 48.13 47.01 48.13 49.91 51.03 48.9 51.03 48.9 60.76 43.28 63.16 38.83 62.73 38.58 60.21 40.03 60.22 40.7"/><polygon class="cls-1" points="51.95 46.53 51.95 49.43 61.68 43.81 61.68 40.91 51.95 46.53"/><polygon class="cls-3" points="61.68 40.91 61.68 43.81 63.16 41.73 63.16 38.83 61.68 40.91"/><polygon class="cls-3" points="48.57 47.25 48.57 50.15 51.95 49.43 51.95 46.53 48.57 47.25"/><polygon class="cls-1" points="48.57 50.15 48.13 49.91 48.13 47.01 48.57 47.25 48.57 50.15"/><path class="cls-27" d="M49.73,43.26a2,2,0,0,0-.9,1.56c0,.57.41.8.9.52a2,2,0,0,0,.91-1.56C50.64,43.2,50.23,43,49.73,43.26Z"/><path class="cls-17" d="M50.21,43.1a.62.62,0,0,0-.63.07,2,2,0,0,0-.9,1.56.6.6,0,0,0,.29.59l.12.08a.65.65,0,0,1-.26-.58,2,2,0,0,1,.9-1.56.64.64,0,0,1,.61-.08l-.12-.08Z"/><path class="cls-15" d="M50.22,43.4a.55.55,0,0,1,.16.43,1.59,1.59,0,0,1-.72,1.25.48.48,0,0,1-.48.06.46.46,0,0,0,.55,0,1.59,1.59,0,0,0,.72-1.25A.5.5,0,0,0,50.22,43.4Z"/><path class="cls-28" d="M49.73,43.46A1.62,1.62,0,0,0,49,44.71a.51.51,0,0,0,.17.43.48.48,0,0,0,.48-.06,1.59,1.59,0,0,0,.72-1.25.55.55,0,0,0-.16-.43A.56.56,0,0,0,49.73,43.46Z"/><path class="cls-27" d="M61.46,36.53a2,2,0,0,0-.9,1.56c0,.58.41.81.9.53a2,2,0,0,0,.91-1.57C62.37,36.48,62,36.24,61.46,36.53Z"/><path class="cls-17" d="M62,36.38a.63.63,0,0,0-.64.06,2,2,0,0,0-.9,1.56.61.61,0,0,0,.29.6l.12.08a.65.65,0,0,1-.26-.59,2,2,0,0,1,.9-1.56.7.7,0,0,1,.61-.08L62,36.38Z"/><path class="cls-15" d="M62,36.68a.51.51,0,0,1,.17.43,1.62,1.62,0,0,1-.72,1.25.53.53,0,0,1-.49.06.46.46,0,0,0,.55,0,1.57,1.57,0,0,0,.73-1.24A.49.49,0,0,0,62,36.68Z"/><path class="cls-28" d="M61.46,36.74A1.61,1.61,0,0,0,60.75,38a.54.54,0,0,0,.16.43.53.53,0,0,0,.49-.06,1.62,1.62,0,0,0,.72-1.25.51.51,0,0,0-.17-.43A.53.53,0,0,0,61.46,36.74Z"/><path class="cls-1" d="M39.41,33.68,38.23,33A2.64,2.64,0,0,1,37,30.91v-6.5h.87v6.5a1.75,1.75,0,0,0,.77,1.33l1.18.68Z"/><path class="cls-18" d="M37.77,24.59a.66.66,0,0,1-.61,0c-.18-.1-.18-.26,0-.35a.66.66,0,0,1,.61,0C37.94,24.33,37.94,24.49,37.77,24.59Z"/><path class="cls-2" d="M37.77,25.1a.72.72,0,0,1-.61,0c-.18-.1-.18-.26,0-.36a.66.66,0,0,1,.61,0A.19.19,0,0,1,37.77,25.1Z"/><path class="cls-1" d="M38.32,24.27,38,23.72H36.9l-.31.59h0c-.1.18,0,.39.22.54a1.51,1.51,0,0,0,1.31,0c.26-.16.33-.38.2-.57Z"/><path class="cls-10" d="M37.88,23.57a1,1,0,0,0-.84,0c-.23.14-.23.36,0,.49a1,1,0,0,0,.84,0C38.11,23.93,38.11,23.71,37.88,23.57Z"/><path class="cls-1" d="M37.8,23.63a.72.72,0,0,0-.67,0,.22.22,0,0,0-.14.22c0-.06.06-.11.14-.16a.72.72,0,0,1,.67,0,.3.3,0,0,1,.14.16A.22.22,0,0,0,37.8,23.63Z"/><path class="cls-18" d="M37.8,23.69a.72.72,0,0,0-.67,0c-.08,0-.13.1-.14.16a.24.24,0,0,0,.14.16.72.72,0,0,0,.67,0,.27.27,0,0,0,.14-.16A.3.3,0,0,0,37.8,23.69Z"/><path class="cls-18" d="M39.46,31.52l4,2.31-1.39,2.4-4-2.31h0a.68.68,0,0,1-.29-.63,2.16,2.16,0,0,1,1-1.7A.68.68,0,0,1,39.46,31.52Z"/><path class="cls-1" d="M42.15,33.53a2.16,2.16,0,0,0-1,1.7.69.69,0,0,0,.28.63h0l-.11-.06h0a.71.71,0,0,1-.29-.64,2.19,2.19,0,0,1,1-1.7.68.68,0,0,1,.69-.06l.12.06A.71.71,0,0,0,42.15,33.53Z"/><path class="cls-1" d="M39.37,31.93a2.16,2.16,0,0,0-1,1.7.68.68,0,0,0,.29.63h0l-.12-.07h0a.68.68,0,0,1-.29-.63,2.18,2.18,0,0,1,1-1.7.72.72,0,0,1,.7-.07l.11.07A.68.68,0,0,0,39.37,31.93Z"/><path class="cls-1" d="M42.79,33.9a2.16,2.16,0,0,0-1,1.7c0,.62.44.88,1,.56a2.16,2.16,0,0,0,1-1.69C43.77,33.84,43.33,33.59,42.79,33.9Z"/></g></g></svg>